<svg width="243" height="147" viewBox="0 0 243 147" fill="none" xmlns="http://www.w3.org/2000/svg">
<path fill-rule="evenodd" clip-rule="evenodd" d="M276.891 -38.1563C278.488 -39.0738 280.116 -40.0086 281.95 -40.1851C282.051 -40.1976 282.154 -40.1763 282.242 -40.1247C282.331 -40.0731 282.399 -39.9939 282.438 -39.8994C282.477 -39.8048 282.484 -39.7002 282.457 -39.6015C282.431 -39.5027 282.373 -39.4154 282.292 -39.353C282.308 -39.3663 282.121 -39.2352 282.121 -39.2352C281.008 -37.9725 279.449 -37.1807 277.9 -36.3939C277.072 -35.9734 276.246 -35.5542 275.493 -35.0653C267.32 -30.4579 259.445 -25.3397 251.915 -19.7411C249.603 -19.4004 253.843 -22.6561 256.177 -24.4481C256.876 -24.9852 257.404 -25.3908 257.534 -25.5287C263.232 -29.8677 269.216 -33.8173 275.445 -37.3507C275.927 -37.6032 276.407 -37.8787 276.89 -38.1558L276.89 -38.1559L276.891 -38.1563ZM208.053 -2.45463C207.509 -3.19013 205.021 -2.08335 203.356 -1.34271L203.356 -1.34252L203.355 -1.34198L203.354 -1.34189C202.801 -1.09573 202.339 -0.890136 202.069 -0.806268C196.813 1.60329 191.688 4.199 186.63 7.0488C175.955 12.8068 165.825 19.5208 156.363 27.1083C156.064 27.3619 156.384 27.929 156.753 27.7104C158.647 26.4974 160.537 25.275 162.426 24.0527C170.198 19.0248 177.969 13.9972 186.113 9.62458C191.166 6.8329 196.283 4.16335 201.503 1.66308C201.971 1.36038 202.725 1.00248 203.558 0.606826C205.442 -0.2878 207.732 -1.37547 208.053 -2.45463ZM83.2746 75.3758C94.385 66.2618 105.968 57.274 118.911 50.7953C121.775 50.7308 115.807 54.4346 112.089 56.7418C110.69 57.6096 109.61 58.2798 109.438 58.4777C99.7547 64.6596 90.772 71.7873 81.8174 78.8927L81.8172 78.8928L81.8171 78.8929L81.817 78.893L81.8169 78.893L81.8168 78.8931L81.8166 78.8932L81.8165 78.8933L81.8164 78.8934L81.8158 78.8938L81.8153 78.8943L81.8147 78.8947L81.8141 78.8952L81.8136 78.8957L81.813 78.8961L81.8124 78.8966L81.8119 78.897C79.5134 80.7208 77.2168 82.5431 74.9106 84.3476C72.3949 84.8072 80.0767 78.1516 82.5664 75.9946L82.5665 75.9945C82.927 75.6821 83.1786 75.4641 83.2746 75.3758ZM23.1156 83.3949L31.1435 107.316L49.2155 82.7396L40.4999 108.077L65.8221 103.498L43.7368 116.106L59.8075 129.611L38.3346 121.209L33.469 146.86L29.3822 122.134L9.74288 138.831L24.9197 115.687L0.866074 104.853L26.0545 108.569L23.1156 83.3949ZM136.047 61.0812C135.368 59.8456 130.306 62.0735 126.797 63.6178C125.436 64.2164 124.309 64.7124 123.762 64.864C116.268 67.9982 108.885 71.3755 101.614 75.0104C101.414 75.1202 100.811 75.4273 99.9243 75.8789L99.9233 75.8794L99.9171 75.8826L99.9098 75.8863L99.9078 75.8873L99.9074 75.8875L99.9072 75.8876C93.9881 78.9027 75.557 88.2914 79.6148 88.5326C83.5829 86.5684 87.5259 84.5255 91.4707 82.4818L91.4711 82.4816L91.4715 82.4814L91.4719 82.4812L91.4724 82.481L91.4728 82.4808L91.4732 82.4806L91.4741 82.4801L91.4746 82.4798L91.4756 82.4793C98.3002 78.9436 105.13 75.4053 112.103 72.2661C117.599 69.7883 123.182 67.3176 128.781 65.0091C129.264 64.7278 130.138 64.4129 131.116 64.0603C133.306 63.2706 136.019 62.2922 136.047 61.0812ZM118.844 86.4556C123.045 85.0959 127.242 83.7376 131.576 82.9762C135.419 83.9694 119.837 88.4306 110.4 91.1327C106.857 92.1471 104.18 92.9135 103.722 93.1556C102.668 93.4619 101.616 93.7718 100.563 94.0818L100.563 94.0818L100.562 94.0818L100.562 94.0819L100.562 94.0819L100.562 94.0819L100.562 94.082C95.5657 95.5528 90.5652 97.0249 85.4756 98.1206C84.9977 98.2426 84.7383 97.4756 85.2053 97.3089C91.7839 94.8226 98.5213 92.7575 105.256 90.6933C107.975 89.86 110.693 89.0269 113.4 88.1662C115.223 87.6275 117.034 87.0414 118.844 86.4556ZM227.725 1.44145C229.907 0.456724 233.125 -0.995914 233.547 0.0145176C233.579 0.801711 232.462 1.31392 231.432 1.78675L231.431 1.78681C230.887 2.03662 230.366 2.27545 230.051 2.53804C228.601 3.21221 227.146 3.88188 225.69 4.55203C223.303 5.65097 220.913 6.75122 218.532 7.87481C200.963 16.0246 183.819 25.0572 166.778 34.2591C166.333 34.5154 165.97 33.7692 166.416 33.4984L167.954 32.5705C175.826 27.4631 184.084 22.9871 192.329 18.5175L192.329 18.5174L192.33 18.5172L193.208 18.0408C203.909 12.3449 214.848 7.13636 225.941 2.189C226.276 2.09541 226.932 1.79934 227.725 1.44145ZM218.415 32.3174C210.615 34.8676 202.985 37.9292 195.353 40.9915C190.299 43.0196 185.244 45.048 180.138 46.9283C179.41 47.2346 178.66 47.5256 177.901 47.8201L177.898 47.821L177.898 47.8211L177.898 47.8212L177.898 47.8213L177.897 47.8215L177.897 47.8216C177.077 48.1394 176.247 48.4615 175.422 48.8115C174.909 49.0037 175.201 49.905 175.727 49.743C176.24 49.5814 176.754 49.4207 177.267 49.2602L177.268 49.26C179.634 48.52 181.995 47.7816 184.333 46.9625C192.833 44.0418 201.215 40.7896 209.534 37.4008C209.67 37.3315 210.094 37.1527 210.69 36.9011C213.566 35.6884 220.448 32.7856 218.415 32.3174ZM284.495 -21.6825C283.929 -22.9213 276.308 -19.4777 271.605 -17.3525C270.023 -16.6374 268.771 -16.0716 268.229 -15.8837C267.933 -15.7473 267.638 -15.6109 267.343 -15.4746L267.333 -15.4698L267.332 -15.4691C266.206 -14.9487 265.084 -14.4298 263.945 -13.9215C263.247 -13.6127 263.763 -12.5763 264.459 -12.8706C266.729 -13.7746 269.014 -14.649 271.3 -15.5237L271.302 -15.5245C274.205 -16.6353 277.109 -17.7467 279.985 -18.9197C280.329 -19.133 280.911 -19.3256 281.545 -19.5354C282.988 -20.0125 284.7 -20.579 284.495 -21.6825ZM285.595 4.59238C288.639 3.65861 291.681 2.72527 294.757 1.9232C296.501 2.49463 291.94 4.19865 289.822 4.99012C289.344 5.16866 288.991 5.30076 288.862 5.36295C281.185 7.86805 273.329 10.227 265.243 10.7537C263.909 10.0271 267.46 9.30027 269.845 8.81189C270.79 8.61845 271.552 8.46243 271.756 8.35865C276.451 7.39758 281.025 5.99449 285.595 4.59238Z" fill="#E2EBF7"/>
</svg>
