<svg width="246" height="168" viewBox="0 0 246 168" fill="none" xmlns="http://www.w3.org/2000/svg">
<g clip-path="url(#clip0_792_1483)">
<path d="M34.1449 107.316L26.117 83.3951L29.0559 108.569L3.8675 104.853L27.9211 115.687L12.7443 138.832L32.3836 122.134L36.4704 146.86L41.336 121.21L62.8089 129.611L46.7382 116.106L68.8235 103.498L43.5013 108.077L52.2169 82.7399L34.1449 107.316Z" fill="#E2EBF7"/>
<path d="M121.913 50.7955C108.969 57.2742 97.3864 66.262 86.276 75.376C85.5172 76.0747 75.032 84.874 77.912 84.3478C89.2045 75.5119 100.269 66.2479 112.44 58.4779C113.069 57.754 125.854 50.7067 121.913 50.7955Z" fill="#E2EBF7"/>
<path d="M139.049 61.0814C138.106 59.3667 128.723 64.3216 126.763 64.8642C119.269 67.9984 111.887 71.3757 104.615 75.0106C103.084 75.8513 77.9443 88.2551 82.6162 88.5328C93.4507 83.1696 104.099 77.2208 115.105 72.2663C120.601 69.7885 126.183 67.3178 131.782 65.0093C133.348 64.0983 139.009 62.8331 139.049 61.0814Z" fill="#E2EBF7"/>
<path d="M134.578 82.9764C128.376 84.0659 122.455 86.3775 116.401 88.1664C106.988 91.1592 97.4409 93.8192 88.2067 97.3091C87.7398 97.4759 87.9991 98.2428 88.477 98.1208C94.6396 96.7941 100.672 94.9157 106.723 93.1558C108.404 92.2688 139.863 84.3424 134.578 82.9764Z" fill="#E2EBF7"/>
<path d="M211.054 -2.45442C210.33 -3.43473 206.151 -1.14228 205.071 -0.806059C199.814 1.6035 194.689 4.19921 189.631 7.04901C178.957 12.807 168.826 19.521 159.364 27.1085C159.066 27.3621 159.385 27.9292 159.754 27.7106C169.443 21.5083 178.991 15.0605 189.115 9.62479C194.168 6.83311 199.284 4.16357 204.504 1.66329C206.032 0.676146 210.591 -0.897998 211.054 -2.45442Z" fill="#E2EBF7"/>
<path d="M236.549 0.0147297C235.974 -1.36292 230.2 1.83812 228.943 2.18921C217.849 7.13657 206.91 12.3451 196.21 18.041C187.673 22.6698 179.108 27.2817 170.955 32.5707L169.418 33.4986C168.971 33.7694 169.335 34.5156 169.78 34.2593C186.82 25.0574 203.964 16.0248 221.533 7.87502C225.366 6.06625 229.223 4.31796 233.053 2.53825C233.963 1.77868 236.597 1.21789 236.549 0.0147297Z" fill="#E2EBF7"/>
<path d="M221.416 32.3176C208.451 36.5568 195.955 42.209 183.14 46.9286C181.625 47.5658 180.014 48.1367 178.423 48.8117C177.911 49.004 178.203 49.9052 178.728 49.7432C181.61 48.8369 184.489 47.9597 187.334 46.9627C195.835 44.042 204.216 40.7898 212.535 37.401C213.329 36.9976 223.871 32.8829 221.416 32.3176Z" fill="#E2EBF7"/>
</g>
<defs>
<clipPath id="clip0_792_1483">
<rect width="285" height="206.578" fill="white" transform="translate(17.4375 -61.9492) rotate(4.65122)"/>
</clipPath>
</defs>
</svg>
