<svg width="108" height="111" viewBox="0 0 108 111" fill="none" xmlns="http://www.w3.org/2000/svg">
<path d="M60.1555 104.879C59.372 105.5 58.4409 105.908 57.4544 106.061C56.8676 106.133 56.2754 106.145 55.687 106.096C50.5415 108.801 46.7672 102.818 44.489 99.0065C41.4016 93.0418 36.3369 83.1288 42.228 77.5931C47.2328 74.1031 52.264 78.475 55.5154 82.2683C60.2603 86.677 65.9093 99.7581 60.1555 104.879Z" fill="#D23F3F"/>
<path d="M45.8496 96.6948C43.9433 94.8731 42.4054 92.7028 41.3182 90.3002C40.6721 88.6032 39.3165 84.9453 41.7515 84.186C42.7705 84.147 43.7621 84.5041 44.5176 85.182C46.9105 87.246 49.0461 89.5893 50.879 92.1622C51.1637 92.8438 51.2285 93.5982 51.0643 94.3212C50.9002 95.0442 50.5154 95.7001 49.963 96.1979C49.4107 96.6957 48.718 97.0109 47.9811 97.0999C47.2442 97.189 46.4993 97.0474 45.8496 96.6948Z" fill="#4B0009"/>
<path d="M92.9353 96.927C89.4931 99.5112 84.8677 98.1297 81.8197 95.7423C78.2365 92.8215 78.4879 87.7792 78.0496 83.6107C77.6114 79.4422 79.6738 76.5135 80.8506 73.0028C83.5992 65.5513 89.9831 65.0336 95.5561 70.0674C101.884 76.4051 99.8845 91.6657 92.9353 96.927Z" fill="#D23F3F"/>
<path d="M90.0201 89.4516C88.5187 89.0647 88.5758 86.7509 88.6932 85.7721C88.8107 84.7934 88.8806 82.9151 88.9136 81.4654C89.4813 78.2783 87.2591 72.5101 91.6838 71.5931C96.1084 70.676 96.1094 77.4883 96.1644 80.6086C95.9274 83.2802 93.5304 90.4232 89.9987 89.4231L90.0201 89.4516Z" fill="#4B0009"/>
<path d="M23.4214 34.6226C18.7743 38.1112 12.9545 34.2422 11.732 29.1485C8.47061 26.2978 8.75116 21.0554 9.52856 17.1321C9.42725 12.7552 9.59408 7.24183 13.5803 4.60556C14.7225 3.86128 16.0513 3.45576 17.4111 3.43653C18.7709 3.41729 20.1053 3.78517 21.2581 4.49698C23.6839 6.26473 25.3367 8.89363 25.8797 11.8481C28.2614 19.3223 29.9717 28.7701 23.4214 34.6226Z" fill="#D23F3F"/>
<path d="M23.1228 27.4107C18.4849 27.8644 18.5235 22.1802 18.3329 18.9391C18.611 16.86 17.2461 11.5169 20.8357 12.2955C21.9516 12.8301 22.8259 13.7606 23.2892 14.9065C24.335 16.5265 25.144 18.2881 25.6919 20.1385C26.3707 22.835 26.8601 26.6534 23.1228 27.4107Z" fill="#4B0009"/>
<path d="M65.6059 62.6717C58.4566 65.456 52.9347 60.0721 53.1711 52.859C53.0251 47.8369 53.5528 42.8133 54.7401 37.9215C55.908 34.9964 57.7416 29.6122 61.8698 32.1238C67.7166 31.7867 70.2914 36.8894 70.7483 41.979C71.4716 48.917 72.58 58.6384 65.6059 62.6717Z" fill="#D23F3F"/>
<path d="M66.6176 54.3414C62.8616 54.1776 62.2272 51.0024 62.6728 47.9515C62.8541 44.9725 62.4847 41.9893 61.583 39.1512C61.4758 38.6448 61.5164 38.1174 61.6999 37.6313C61.8834 37.1452 62.2022 36.7208 62.6186 36.4082C63.035 36.0956 63.5315 35.9079 64.0495 35.8674C64.5675 35.8269 65.0853 35.9351 65.5417 36.1794C66.7932 37.1284 67.6698 38.4865 68.0201 40.0186C69.661 43.9967 73.5893 53.4715 66.6176 54.3414Z" fill="#4B0009"/>
</svg>
