<svg width="133" height="132" viewBox="0 0 133 132" fill="none" xmlns="http://www.w3.org/2000/svg">
<path fill-rule="evenodd" clip-rule="evenodd" d="M69.5261 22.204C70.4236 22.7414 71.3554 23.2193 72.3155 23.6345C74.7675 25.096 76.7343 27.2478 77.9699 29.821C79.2055 32.3942 79.6551 35.2746 79.2625 38.102C78.9126 40.352 78.3266 41.7079 74.8962 42.8144C73.4102 42.2183 72.087 41.2779 71.0355 40.0705L67.0883 41.5361C66.2969 40.9736 65.3079 39.5443 64.5856 39.089C60.1427 42.8464 58.5714 41.9912 56.4361 38.9045C50.9666 41.6126 50.8096 34.5569 50.5408 31.4604C50.0912 27.5962 54.1869 24.8996 58.4431 22.5495C53.0983 20.8717 46.1804 23.451 39.6908 26.6543C28.7057 32.2991 27.3983 40.6384 24.3166 47.2227C22.2352 52.113 20.9401 57.3016 20.4793 62.5964C20.1148 65.2918 19.95 68.0104 19.9863 70.7301C20.2259 77.0787 21.9136 83.2885 24.9204 88.885C27.9272 94.4816 32.1735 99.3167 37.3349 103.021C58.5688 118.113 67.7608 114.419 87.4274 104.571C97.6733 99.4763 104.029 96.7881 109.99 86.6429C112.605 82.0135 114.259 76.9049 114.856 71.6219C116.218 63.4091 116.148 53.4515 111.936 45.5189C109.067 40.1635 104.96 35.5709 99.9568 32.1232C94.6853 28.8705 75.5993 21.0582 69.5261 22.204Z" fill="#B72223"/>
<path fill-rule="evenodd" clip-rule="evenodd" d="M69.5254 22.2055L68.6149 22.5462C67.5514 21.986 66.3844 21.6493 65.1859 21.557C63.9873 21.4647 62.7825 21.6186 61.6457 22.0093C60.5768 21.7145 59.7461 22.0248 58.4785 22.6637C54.2498 24.9752 50.1541 27.6718 50.5762 31.5746C50.9415 34.7398 51.002 41.7268 56.4715 39.0188C58.6068 42.1054 60.1781 42.9606 64.6209 39.2033C65.3159 39.6972 66.3322 41.0878 67.1237 41.6504L71.0709 40.1847C72.1224 41.3921 73.4456 42.3325 74.9316 42.9287C78.362 41.8221 78.948 40.4663 79.2978 38.2162C79.6885 35.3971 79.242 32.5253 78.0137 29.958C76.7855 27.3907 74.8297 25.241 72.3895 23.7762C71.3888 23.3414 70.43 22.8156 69.5254 22.2055Z" fill="#520000"/>
</svg>
