<svg width="606" height="223" viewBox="0 0 606 223" fill="none" xmlns="http://www.w3.org/2000/svg">
<path d="M22.3986 138.04L3.49295 168.027C2.72965 169.238 3.28833 170.844 4.63822 171.319L23.4493 177.947C24.0907 178.173 24.8001 178.094 25.3761 177.733L32.6982 173.136C33.6174 172.559 34.8186 172.727 35.5435 173.535L40.4243 178.974C40.5461 179.11 40.6841 179.23 40.8351 179.332L60.1145 192.365C61.2059 193.103 62.6957 192.739 63.3236 191.581L90.3567 141.724C90.5664 141.337 90.8858 141.021 91.2746 140.816L104.598 133.771C104.893 133.615 105.219 133.527 105.553 133.514L140.853 132.121L213.445 121.531L346.006 116.976L408.665 120.365C408.827 120.374 408.988 120.4 409.145 120.444L433.658 127.299L479.319 139.818L507.807 147.908C508.233 148.029 508.613 148.274 508.899 148.612L516.783 157.919C517.166 158.371 517.728 158.651 518.318 158.71C539.037 160.788 541.043 174.579 559.047 182.014C559.919 182.374 560.924 182.111 561.532 181.389L598.017 138.082C598.844 137.1 598.673 135.624 597.642 134.857L567.012 112.064C566.773 111.886 566.572 111.661 566.421 111.404L551.253 85.5894C551.054 85.2503 550.769 84.9699 550.426 84.7767L499.817 56.2377C499.595 56.1125 499.353 56.0263 499.102 55.9829L410.981 40.7202C410.62 40.6577 410.249 40.6851 409.901 40.8L397.873 44.772C397.534 44.884 397.174 44.9131 396.821 44.8565C391.605 44.0197 349.927 37.3528 344.188 37.0424C338.48 36.7337 324.311 40.3343 322.418 40.8236C322.274 40.8607 322.135 40.8824 321.987 40.8909C317.528 41.1467 246.828 45.1935 236.557 45.1786C225.95 45.1633 221.888 37.6859 214.471 40.6345C207.053 43.583 206.407 45.2229 198.929 49.2848C191.784 53.1664 168.138 51.0575 166.053 50.8626C165.943 50.8523 165.889 50.8494 165.779 50.8549C162.361 51.0279 90.6737 54.6892 81.774 58.0226C73.5863 61.0894 61.0787 77.4299 58.6133 80.7302C58.3277 81.1125 57.9416 81.3871 57.4901 81.5415C55.3008 82.2906 48.5024 84.7906 45.545 87.8857C41.9943 91.6017 36.9684 122.594 31.0104 129.53C26.7479 134.492 24.3644 136.412 23.3531 137.103C22.9829 137.356 22.6377 137.661 22.3986 138.04Z" fill="white" fill-opacity="0.22" stroke="white" stroke-width="2.2299"/>
<path d="M421.405 124.286C417.003 123.993 411.138 120.942 412.399 115.744C412.672 114.362 413.342 113.09 414.328 112.084C415.313 111.077 416.572 110.381 417.948 110.08C420.179 108.374 423.287 108.938 425.79 109.689C427.1 110.071 428.295 110.771 429.271 111.725C430.247 112.68 430.972 113.86 431.384 115.161C431.64 116.508 431.524 117.9 431.049 119.187C430.573 120.473 429.756 121.606 428.684 122.462C427.656 123.241 426.482 123.803 425.231 124.117C423.98 124.43 422.679 124.488 421.405 124.286ZM423.661 121.866C425.022 121.863 426.334 121.357 427.345 120.445C428.357 119.534 428.996 118.282 429.141 116.928C429.211 112.823 424.106 111.283 420.715 111.702C419.922 111.935 419.237 112.442 418.783 113.133C418.328 113.824 418.134 114.654 418.234 115.474C418.398 116.288 418.81 117.03 419.415 117.597C420.019 118.165 420.786 118.531 421.608 118.642C423.365 118.962 424.555 116.834 422.59 116.139C422.258 116.047 421.975 115.826 421.804 115.526C421.633 115.226 421.588 114.871 421.678 114.537C422.612 112.3 425.446 114.483 425.902 116.044C426.124 116.651 426.18 117.306 426.064 117.942C425.949 118.578 425.666 119.172 425.244 119.662C423.033 122.534 418.621 121.246 416.612 118.706C415.985 117.861 415.59 116.867 415.465 115.822C415.34 114.777 415.49 113.718 415.9 112.748C411.227 118.593 418.307 122.16 423.763 121.885L423.661 121.866Z" fill="white"/>
<path d="M282.719 103.987C286.171 106.735 289.256 112.582 285.26 116.137C284.25 117.118 282.974 117.783 281.591 118.049C280.208 118.315 278.777 118.171 277.474 117.636C274.668 117.768 272.435 115.535 270.804 113.493C269.945 112.432 269.36 111.177 269.101 109.836C268.843 108.496 268.918 107.113 269.32 105.809C269.877 104.555 270.764 103.477 271.888 102.69C273.011 101.903 274.328 101.437 275.696 101.343C276.985 101.288 278.271 101.495 279.477 101.949C280.684 102.403 281.787 103.097 282.719 103.987ZM279.487 104.693C278.366 103.921 276.999 103.59 275.649 103.764C274.299 103.937 273.06 104.603 272.171 105.633C269.776 108.968 273.096 113.14 276.122 114.727C276.907 114.987 277.759 114.959 278.526 114.65C279.293 114.341 279.925 113.769 280.309 113.037C280.638 112.276 280.722 111.431 280.548 110.62C280.374 109.809 279.952 109.072 279.34 108.512C278.076 107.249 275.887 108.321 277.107 110.011C277.328 110.276 277.434 110.618 277.404 110.962C277.374 111.306 277.209 111.624 276.945 111.847C274.903 113.155 273.816 109.746 274.33 108.204C274.493 107.578 274.82 107.008 275.277 106.551C275.734 106.094 276.305 105.767 276.931 105.603C280.383 104.502 283.277 108.072 283.483 111.304C283.517 112.355 283.276 113.398 282.784 114.328C282.292 115.258 281.566 116.044 280.677 116.607C287.846 114.462 284.056 107.499 279.413 104.619L279.487 104.693Z" fill="white"/>
<path d="M348.374 116.964C343.972 116.671 338.107 113.62 339.368 108.423C339.641 107.04 340.311 105.768 341.297 104.762C342.282 103.755 343.54 103.059 344.916 102.758C347.148 101.052 350.255 101.616 352.758 102.367C354.069 102.75 355.264 103.449 356.24 104.403C357.215 105.358 357.941 106.538 358.352 107.839C358.609 109.187 358.493 110.579 358.018 111.865C357.542 113.152 356.724 114.284 355.653 115.141C354.625 115.919 353.45 116.482 352.2 116.795C350.949 117.108 349.648 117.166 348.374 116.964ZM350.63 114.545C351.991 114.541 353.303 114.035 354.314 113.124C355.325 112.212 355.965 110.96 356.11 109.607C356.18 105.502 351.075 103.962 347.684 104.38C346.89 104.613 346.206 105.12 345.751 105.811C345.297 106.502 345.103 107.332 345.203 108.153C345.366 108.966 345.779 109.708 346.383 110.276C346.988 110.843 347.754 111.209 348.576 111.321C350.334 111.64 351.523 109.512 349.559 108.817C349.226 108.725 348.944 108.504 348.773 108.204C348.602 107.904 348.557 107.549 348.647 107.216C349.581 104.978 352.415 107.161 352.871 108.722C353.092 109.329 353.149 109.985 353.033 110.621C352.917 111.257 352.634 111.85 352.213 112.341C350.002 115.212 345.59 113.924 343.581 111.384C342.954 110.539 342.559 109.545 342.434 108.5C342.309 107.455 342.459 106.396 342.869 105.427C338.196 111.271 345.276 114.839 350.732 114.563L350.63 114.545Z" fill="white"/>
<path d="M157.804 128.4C153.402 128.107 147.536 125.056 148.798 119.859C149.07 118.477 149.741 117.204 150.726 116.198C151.712 115.192 152.97 114.495 154.346 114.194C156.578 112.488 159.685 113.052 162.188 113.803C163.498 114.186 164.694 114.885 165.67 115.839C166.645 116.794 167.371 117.974 167.782 119.275C168.039 120.623 167.923 122.015 167.447 123.301C166.972 124.588 166.154 125.72 165.083 126.577C164.055 127.355 162.88 127.918 161.629 128.231C160.379 128.544 159.077 128.602 157.804 128.4ZM160.06 125.981C161.421 125.977 162.733 125.471 163.744 124.56C164.755 123.648 165.394 122.396 165.539 121.043C165.61 116.938 160.505 115.398 157.113 115.816C156.32 116.049 155.635 116.556 155.181 117.247C154.727 117.938 154.532 118.768 154.633 119.589C154.796 120.402 155.209 121.144 155.813 121.712C156.418 122.28 157.184 122.645 158.006 122.757C159.764 123.076 160.953 120.948 158.989 120.253C158.656 120.161 158.374 119.94 158.203 119.64C158.032 119.34 157.986 118.985 158.076 118.652C159.011 116.414 161.845 118.597 162.3 120.158C162.522 120.765 162.578 121.421 162.463 122.057C162.347 122.693 162.064 123.286 161.643 123.777C159.432 126.648 155.02 125.36 153.011 122.82C152.384 121.975 151.988 120.981 151.864 119.936C151.739 118.891 151.889 117.832 152.299 116.863C147.626 122.707 154.706 126.275 160.162 125.999L160.06 125.981Z" fill="white"/>
<path d="M60.1693 184.424C55.5001 184.105 50.0533 178.804 51.4074 173.85C51.5038 173.319 51.6435 172.55 52.2825 172.364C52.3401 172.36 52.398 172.369 52.4514 172.391C52.5049 172.413 52.5525 172.447 52.5904 172.491C52.6284 172.534 52.6557 172.586 52.6701 172.642C52.6845 172.698 52.6857 172.757 52.6736 172.813C52.6121 173.498 52.6071 174.186 52.6588 174.872C52.7667 176.187 53.2795 177.436 54.1268 178.447C53.7779 177.532 53.6764 176.54 53.8323 175.573C53.9882 174.605 54.396 173.696 55.0149 172.936C56.2549 171.583 57.9423 170.723 59.766 170.516C61.5898 170.309 63.4269 170.768 64.9389 171.809C66.1907 172.704 67.1114 173.988 67.5578 175.46C68.0041 176.933 67.9511 178.512 67.4069 179.951C66.8627 181.39 65.8579 182.61 64.5489 183.419C63.2399 184.228 61.7001 184.581 60.1693 184.424ZM61.2474 182.237C68.0066 181.461 66.9508 172.496 60.3846 172.626C59.2195 172.615 58.0919 173.037 57.2197 173.81C56.0035 175.196 55.5544 177.459 57.5879 178.339C58.4849 178.71 60.0358 179.332 60.7263 178.342C60.9492 177.948 60.9591 177.061 60.3001 177.149C60.1406 177.242 59.9638 177.302 59.7805 177.326C59.5971 177.35 59.4109 177.336 59.2329 177.286C59.055 177.236 58.8889 177.151 58.7446 177.035C58.6003 176.919 58.4808 176.776 58.3931 176.613C57.8555 175.097 59.9937 174.465 61.1203 174.821C61.6593 175.034 62.133 175.384 62.4943 175.837C62.8555 176.29 63.0916 176.83 63.1789 177.403C63.2662 177.975 63.2016 178.561 62.9918 179.101C62.7819 179.641 62.4339 180.117 61.9828 180.48C61.1272 180.998 60.1443 181.268 59.1441 181.26C58.1438 181.252 57.1655 180.966 56.3185 180.434C57.6712 181.642 59.4345 182.287 61.2474 182.237Z" fill="white"/>
<path d="M76.0678 157.889C71.3985 157.57 65.9517 152.269 67.3058 147.315C67.4023 146.784 67.542 146.015 68.1809 145.829C68.2386 145.825 68.2964 145.834 68.3499 145.856C68.4033 145.878 68.4509 145.912 68.4889 145.956C68.5268 145.999 68.5541 146.051 68.5685 146.107C68.583 146.163 68.5841 146.222 68.572 146.278C68.5105 146.963 68.5056 147.651 68.5572 148.336C68.6651 149.651 69.1779 150.901 70.0252 151.912C69.6764 150.997 69.5748 150.005 69.7307 149.038C69.8866 148.07 70.2945 147.161 70.9133 146.401C72.1533 145.048 73.8407 144.188 75.6645 143.981C77.4882 143.774 79.3254 144.233 80.8374 145.274C82.0891 146.169 83.0099 147.452 83.4562 148.925C83.9026 150.398 83.8496 151.977 83.3054 153.416C82.7612 154.855 81.7563 156.074 80.4473 156.883C79.1383 157.692 77.5986 158.046 76.0678 157.889ZM77.1459 155.702C83.905 154.926 82.8492 145.961 76.283 146.091C75.118 146.08 73.9903 146.502 73.1182 147.274C71.9019 148.661 71.4528 150.924 73.4864 151.804C74.3833 152.175 75.9342 152.797 76.6247 151.807C76.8476 151.412 76.8575 150.526 76.1986 150.614C76.039 150.707 75.8623 150.767 75.6789 150.791C75.4956 150.814 75.3093 150.801 75.1314 150.751C74.9534 150.701 74.7873 150.615 74.643 150.5C74.4988 150.384 74.3792 150.241 74.2916 150.078C73.754 148.562 75.8922 147.93 77.0187 148.286C77.5577 148.498 78.0315 148.849 78.3927 149.302C78.7539 149.755 78.99 150.295 79.0773 150.867C79.1646 151.44 79.1001 152.026 78.8902 152.566C78.6803 153.106 78.3324 153.581 77.8812 153.945C77.0256 154.463 76.0428 154.733 75.0425 154.725C74.0423 154.717 73.064 154.431 72.2169 153.899C73.5696 155.107 75.333 155.752 77.1459 155.702Z" fill="white"/>
<path d="M6.70883 168.996L6.68997 169.05C6.68874 169.053 6.68821 169.057 6.68856 169.061L5.57785 169.157L6.68857 169.061C6.68893 169.066 6.69024 169.071 6.69309 169.076C6.69553 169.08 6.6989 169.084 6.70312 169.088C7.9561 169.225 9.09819 169.331 10.2572 169.379L10.2909 169.381L10.3245 169.384C12.4681 169.603 14.61 169.015 16.3288 167.74C17.1278 167.133 17.8151 166.152 18.0954 165.176C18.3728 164.211 18.2132 163.461 17.6796 162.97L15.4143 160.885L18.4894 161.036C19.6457 161.093 20.8 160.919 21.8843 160.525C22.958 160.135 23.9415 159.536 24.7782 158.765C25.737 157.751 26.3744 156.368 26.5335 155.004C26.6934 153.634 26.3649 152.389 25.5393 151.523L23.8418 149.743L26.2996 149.64C29.2368 149.517 32.5102 148.028 34.326 145.953C35.2198 144.931 35.7045 143.835 35.7146 142.741C35.7245 141.667 35.2773 140.422 33.9717 139.079L31.9924 137.043L34.8284 137.188C37.1605 137.308 39.4723 136.915 40.9401 135.359C41.8615 134.38 42.4272 133.122 42.5483 131.783C42.6693 130.445 42.3389 129.1 41.6071 127.962L40.5247 126.278L42.5258 126.244C45.2573 126.197 47.9428 125.83 49.8305 124.204C50.4268 123.641 50.9035 122.965 51.233 122.215C51.5654 121.459 51.7413 120.643 51.7502 119.816C51.7591 118.989 51.6007 118.167 51.2841 117.399C50.9674 116.631 50.4989 115.933 49.906 115.347L48.0183 113.48L50.6731 113.44C53.3128 113.399 55.8896 112.663 58.1406 111.306C61.5361 109.021 62.2838 104.136 59.5733 101.254L57.7464 99.3113L60.4123 99.3754C63.7338 99.4551 67.1892 98.4355 68.5621 95.7931L68.5639 95.7896C69.2418 94.4962 69.5871 93.0543 69.569 91.592C69.5508 90.1297 69.1698 88.6917 68.4588 87.406L67.411 85.5115L69.5618 85.7588C72.6054 86.1087 75.792 85.6155 77.8132 83.6676C79.2087 82.1919 80.0535 80.2839 80.2079 78.2589C80.3629 76.2262 79.8129 74.1966 78.6472 72.5089L77.0975 70.2652L79.7752 70.7804C81.658 71.1427 83.8486 71.2379 85.7577 70.8068C87.6406 70.3816 89.1266 69.4799 89.9118 67.9429C90.2706 66.9938 90.3395 65.9579 90.1082 64.9649C89.8731 63.9554 89.3384 63.0364 88.5723 62.3281L88.521 62.2807L88.476 62.2272C88.2925 62.0092 87.8526 61.6072 87.2757 61.1548C87.8798 61.7298 88.3788 62.3108 88.7732 62.8914C89.8726 64.5098 90.2275 66.2555 89.5156 67.7823C88.8178 69.2788 87.2591 70.2046 85.3343 70.5845C83.4084 70.9646 80.96 70.8407 78.1253 70.1112C77.6877 70.0516 77.2754 69.9027 76.9512 69.7753C76.8067 69.7185 76.6815 69.6671 76.5663 69.6198C76.362 69.5358 76.1894 69.4649 75.997 69.4004C75.7157 69.3059 75.5578 69.288 75.4712 69.295C75.4395 69.2975 75.4128 69.3002 75.3704 69.335C75.3333 69.3942 75.3269 69.4245 75.3263 69.4273C75.3261 69.4284 75.326 69.4291 75.3259 69.4295L75.3263 69.433C75.3267 69.4355 75.3276 69.4398 75.3293 69.4461C75.3496 69.519 75.4366 69.6834 75.7133 69.9643C75.9091 70.1631 76.1208 70.3456 76.3656 70.5566C76.4668 70.6438 76.5736 70.7359 76.6873 70.8361C77.0083 71.1187 77.4124 71.4897 77.696 71.9224C79.8861 74.607 80.2975 78.0618 79.1643 80.8405C78.0063 83.6798 75.2601 85.7422 71.4043 85.566C69.9395 85.5421 68.4812 85.3543 67.0572 85.006C66.5087 84.8832 65.9684 84.7256 65.4397 84.5342C65.3863 84.5221 65.3315 84.5274 65.2833 84.5482L64.842 83.5243L65.2833 84.5482C65.2302 84.5711 65.1887 84.6112 65.1644 84.6601C65.1643 84.6603 65.1643 84.6605 65.1642 84.6607L6.70883 168.996ZM6.70883 168.996L6.72207 168.94C6.73616 168.881 6.75167 168.845 6.76163 168.827C6.77126 168.808 6.77802 168.801 6.77979 168.799C6.77986 168.799 6.79181 168.784 6.84503 168.769C6.98249 168.728 7.2427 168.728 7.57712 168.818C8.36732 169.033 9.14176 169.067 9.77458 169.096C9.94013 169.103 10.096 169.11 10.2399 169.12M6.70883 168.996L10.2399 169.12M10.2399 169.12C11.5729 169.267 13.2876 169.153 14.7858 168.555C16.3152 167.944 17.7526 166.761 18.0982 164.74L18.0646 164.731C18.1122 164.283 18.0145 163.831 17.7855 163.442L17.6885 163.277L17.542 163.154C16.7532 162.491 15.8722 161.978 15.0678 161.523C14.9841 161.476 14.9013 161.429 14.8195 161.383C14.1603 161.011 13.5611 160.673 13.0145 160.289C13.0122 160.279 13.0106 160.269 13.0098 160.258L12.9746 160.261L13.0098 160.258C13.0065 160.217 13.0154 160.176 13.0349 160.141C13.0545 160.105 13.0844 160.075 13.1221 160.055C13.1545 160.038 13.1917 160.029 13.2303 160.029C13.5267 160.073 13.8208 160.133 14.1113 160.207L14.1156 160.208C16.287 160.757 19.2668 161.041 21.7475 160.312C23.0049 159.942 24.2003 159.292 25.064 158.216C25.9392 157.125 26.3899 155.702 26.33 153.954L26.3281 153.901L26.3214 153.848C26.1128 152.24 25.0985 151.256 24.0869 150.587C23.5874 150.257 23.051 149.978 22.5752 149.734L22.4832 149.686C22.0264 149.452 21.6328 149.25 21.2868 149.032L21.207 148.982L21.1199 148.945C20.9527 148.876 20.7973 148.801 20.6658 148.72C20.5311 148.638 20.4515 148.569 20.4107 148.521C20.4099 148.52 20.4093 148.52 20.4086 148.519C20.4132 148.506 20.42 148.49 20.4298 148.47L20.4363 148.456L20.4425 148.443C20.4444 148.439 20.4461 148.435 20.4478 148.431C20.5085 148.421 20.6488 148.413 20.9227 148.454C21.2558 148.503 21.6527 148.6 22.1742 148.729L22.1785 148.73C22.6797 148.854 23.2673 148.999 23.9068 149.114C25.1985 149.346 26.7435 149.462 28.4549 149.064C30.1666 148.665 31.9755 147.768 33.8293 146.075C34.3985 145.602 34.8361 144.991 35.0998 144.299C35.3673 143.597 35.4462 142.837 35.3291 142.095L35.3077 141.959L35.2541 141.833C34.4134 139.852 32.998 138.164 31.1909 136.986L31.0924 136.921L30.9827 136.879C30.9114 136.852 30.8533 136.8 30.8184 136.735L29.8362 137.263L30.8184 136.735C30.7835 136.67 30.7742 136.597 30.7896 136.529C30.805 136.461 30.8445 136.401 30.9021 136.359C30.946 136.327 30.9987 136.307 31.0546 136.302C33.4285 136.857 35.8904 136.919 38.2859 136.483L38.3225 136.476L38.3586 136.467C40.2209 135.998 41.4034 134.519 41.8872 132.949C42.3633 131.405 42.2283 129.569 41.2216 128.201C40.8437 127.649 40.2776 127.286 39.8431 127.037C39.6462 126.924 39.4399 126.815 39.2546 126.717C39.2218 126.7 39.1896 126.683 39.1583 126.666C38.9397 126.551 38.7521 126.449 38.5863 126.347C38.2244 126.123 38.1356 125.995 38.1199 125.96C38.1196 125.96 38.1195 125.96 38.1193 125.959C38.1191 125.957 38.1189 125.95 38.12 125.939C38.1228 125.909 38.1356 125.838 38.1917 125.716C38.2383 125.673 38.2945 125.639 38.3569 125.619C38.4433 125.59 38.5377 125.588 38.6276 125.613L38.731 125.642L38.8379 125.651C40.3078 125.77 41.7825 125.816 43.2562 125.786L43.2772 125.786L43.2981 125.785C44.3405 125.725 45.5789 125.631 46.7595 125.306C47.9519 124.977 49.1591 124.392 50.0796 123.298L50.1075 123.265L50.1327 123.23C50.7828 122.323 51.1675 121.254 51.2442 120.14C51.3208 119.027 51.0864 117.913 50.5681 116.923L50.5428 116.875L50.5129 116.829C49.7187 115.617 48.5999 114.65 47.2844 114.037L47.263 114.027L47.2412 114.018C46.8267 113.846 46.525 113.628 46.3964 113.453C46.3698 113.417 46.3576 113.392 46.3523 113.379C46.3509 113.375 46.35 113.372 46.3493 113.37C46.3488 113.368 46.3484 113.367 46.3482 113.366C46.3478 113.364 46.3477 113.363 46.3477 113.363C46.3477 113.362 46.3476 113.361 46.348 113.357C46.3484 113.353 46.3495 113.346 46.3528 113.334C46.3592 113.311 46.3756 113.266 46.4173 113.198C46.4177 113.198 46.418 113.197 46.4183 113.197C46.4282 113.18 46.454 113.135 46.6395 113.1C46.8512 113.059 47.0844 113.061 47.4263 113.065C47.4773 113.066 47.5307 113.067 47.5868 113.067C48.2601 113.074 48.8822 113.058 49.503 113.043C49.5811 113.041 49.6592 113.039 49.7374 113.038C51.4407 113.007 53.1333 112.772 54.7782 112.337C56.5891 111.936 58.2503 110.872 59.353 109.431C60.4692 107.974 61.0479 106.076 60.5313 104.089L60.5161 104.031L60.4947 103.974C59.715 101.919 58.2689 100.182 56.3895 99.0369C56.3604 99.0025 56.3401 98.9622 56.33 98.9198C56.3161 98.8613 56.3219 98.8012 56.3456 98.7481C56.3693 98.695 56.4101 98.6503 56.4631 98.6214L55.9296 97.6424L56.4632 98.6214C56.5164 98.5924 56.5794 98.5808 56.6426 98.5902L56.6543 98.592L56.6661 98.5935C58.342 98.8077 60.4986 99.0664 62.5253 98.824C64.569 98.5797 66.6598 97.8029 67.9806 95.7941L68.0082 95.7521L68.0319 95.7078C69.732 92.5325 69.3636 87.8322 66.1078 85.4335L66.0569 85.396L66.002 85.3644C65.6196 85.1447 65.3409 84.9456 65.1987 84.7672C65.1711 84.7326 65.1568 84.7085 65.1497 84.6946L10.2399 169.12ZM65.1454 84.7101C65.1454 84.7101 65.1454 84.7091 65.1459 84.7071C65.1457 84.7091 65.1455 84.7102 65.1454 84.7101ZM20.399 148.554C20.3989 148.554 20.399 148.552 20.3994 148.55C20.3993 148.552 20.399 148.554 20.399 148.554Z" fill="white" fill-opacity="0.22" stroke="white" stroke-width="2.2299"/>
<path d="M92.6248 61.3201L92.5708 61.339C92.5599 61.3429 92.5497 61.349 92.541 61.3573C92.5323 61.3656 92.5248 61.3762 92.5195 61.3889L92.5195 61.389C92.5142 61.4017 92.5115 61.4159 92.5119 61.4305C92.512 61.4348 92.5123 61.4391 92.513 61.4434C93.223 62.5653 93.8854 63.576 94.6076 64.5625L94.6275 64.5897L94.6457 64.6181C95.8752 66.5303 97.769 67.9105 99.9519 68.4894C100.983 68.7506 102.249 68.6716 103.243 68.2591C104.228 67.8505 104.758 67.2152 104.814 66.4293L105.031 63.3582L106.831 65.8566C107.544 66.8476 108.447 67.6853 109.485 68.3203C110.514 68.9495 111.655 69.3673 112.843 69.55C114.314 69.6743 115.877 69.2896 117.109 68.5222C118.347 67.7512 119.165 66.655 119.338 65.392L119.672 62.9548L121.285 64.8122C123.315 67.1502 126.69 68.8683 129.595 69.0006C131.026 69.0658 132.256 68.7446 133.172 68.0281C134.073 67.3227 134.806 66.1281 135.055 64.1683L135.413 61.3512L137.067 63.6593C138.497 65.6536 140.343 67.3088 142.603 67.4969L92.6248 61.3201ZM92.6248 61.3201L92.6766 61.2958C92.7951 61.24 92.8497 61.2451 92.8582 61.2459C92.8691 61.247 92.8977 61.2512 92.9519 61.2891C93.0866 61.3833 93.2623 61.6066 93.4086 61.9447C93.7467 62.7267 94.2198 63.3774 94.6102 63.9145C94.7133 64.0563 94.8107 64.1902 94.8983 64.3165M92.6248 61.3201L94.8983 64.3165M94.8983 64.3165C95.6453 65.5002 96.8545 66.8249 98.3154 67.6572C99.8054 68.5061 101.695 68.904 103.556 67.8785L103.542 67.8445C103.929 67.5971 104.227 67.2314 104.392 66.8011L104.46 66.6224L104.465 66.4311C104.493 65.3563 104.338 64.3034 104.185 63.3464C104.169 63.2468 104.153 63.1483 104.137 63.0509C104.01 62.2608 103.893 61.5398 103.852 60.831C103.864 60.8137 103.877 60.7977 103.893 60.7835C103.932 60.7465 103.981 60.7224 104.033 60.7134C104.086 60.7044 104.141 60.7107 104.191 60.7327C104.236 60.7522 104.276 60.7834 104.307 60.8238C104.466 61.0983 104.611 61.3811 104.741 61.6709L104.743 61.6749C105.711 63.8094 107.421 66.4286 109.63 67.9781C110.749 68.763 112.053 69.3124 113.486 69.3169C114.938 69.3214 116.387 68.7662 117.773 67.5808L117.814 67.5465L117.85 67.5086C119.017 66.302 119.16 64.8461 119.048 63.5866C118.992 62.9644 118.871 62.3452 118.76 61.795L118.739 61.6877C118.632 61.1606 118.54 60.7035 118.493 60.275L118.482 60.1812L118.456 60.0906C118.403 59.9064 118.362 59.7269 118.342 59.5629C118.321 59.3952 118.325 59.2784 118.339 59.2067C118.342 59.1921 118.344 59.181 118.347 59.173C118.363 59.1658 118.391 59.1556 118.435 59.1457L118.45 59.1424L118.464 59.1388C118.482 59.1342 118.496 59.1317 118.506 59.1303C118.553 59.1667 118.661 59.2767 118.829 59.5651C119.009 59.873 119.19 60.2646 119.425 60.7758L119.426 60.7793C119.652 61.2716 119.917 61.847 120.24 62.4449C120.893 63.6517 121.803 64.9878 123.241 66.1243C124.679 67.2611 126.59 68.1541 129.182 68.5659C129.933 68.7216 130.712 68.6812 131.443 68.4478C132.184 68.2111 132.85 67.7843 133.376 67.2098L133.469 67.1086L133.534 66.988C134.604 65.0125 135.06 62.7592 134.845 60.5177L134.834 60.4007L134.799 60.2886C134.771 60.1998 134.776 60.105 134.811 60.0218C134.847 59.9389 134.91 59.8737 134.988 59.8361C135.065 59.7987 135.154 59.7903 135.239 59.8135C135.306 59.832 135.368 59.8698 135.416 59.9229C136.511 62.2285 138.066 64.2842 139.987 65.9602L140.015 65.9846L140.044 66.0071C141.628 67.2133 143.593 67.2176 145.183 66.5929C146.749 65.9778 148.151 64.6782 148.609 62.9776C148.81 62.3195 148.74 61.6279 148.66 61.1096C148.624 60.8752 148.579 60.6359 148.538 60.4199C148.531 60.3817 148.524 60.3442 148.517 60.3076C148.469 60.0527 148.429 59.8309 148.404 59.6261C148.35 59.1812 148.396 59.0106 148.421 58.9601C148.424 58.9541 148.427 58.945 148.458 58.9251C148.491 58.9037 148.566 58.8639 148.714 58.8286C148.792 58.8385 148.867 58.866 148.935 58.91C149.024 58.9681 149.094 59.0524 149.137 59.1526L149.179 59.2514L149.238 59.3405C150.1 60.6224 151.026 61.8596 152.013 63.0474L152.026 63.0635L152.04 63.0791C152.771 63.8944 153.654 64.845 154.688 65.5964C155.731 66.355 156.99 66.9564 158.474 66.9954L158.518 66.9965L158.561 66.9943C159.719 66.9349 160.838 66.5544 161.793 65.8948C162.748 65.2353 163.501 64.3231 163.97 63.2598L163.992 63.2099L164.009 63.158C164.48 61.7238 164.541 60.1845 164.185 58.7153L164.18 58.6923L164.173 58.6696C164.042 58.2131 164.021 57.812 164.084 57.5782C164.11 57.4813 164.139 57.456 164.142 57.4529C164.146 57.4495 164.157 57.4402 164.184 57.4287C164.213 57.4168 164.265 57.3996 164.351 57.3892C164.389 57.3847 164.454 57.377 164.621 57.5191C164.797 57.6697 164.951 57.8676 165.171 58.1501C165.204 58.1923 165.238 58.2364 165.274 58.2825C165.709 58.838 166.127 59.3375 166.546 59.8367C166.598 59.8994 166.651 59.9622 166.704 60.025C167.84 61.3986 169.137 62.6299 170.566 63.692C172.069 64.9071 174.016 65.5688 175.905 65.5316C177.816 65.494 179.734 64.7333 181.013 63.0261L181.05 62.9778L181.08 62.9258C182.251 60.9508 182.727 58.6382 182.436 56.3577C182.446 56.2996 182.47 56.2456 182.505 56.2004C182.551 56.1414 182.615 56.1002 182.685 56.0819C182.756 56.0635 182.831 56.0687 182.901 56.0979L183.334 55.0704L182.901 56.0979C182.97 56.1272 183.03 56.1793 183.07 56.2475L183.076 56.2577L183.082 56.2679C184.002 57.7827 185.197 59.7143 186.716 61.2123C188.246 62.7221 190.235 63.917 192.724 63.6884L192.774 63.6839L192.823 63.6748C196.519 62.996 200.106 59.6391 199.945 55.4345L199.942 55.3712L199.933 55.3087C199.863 54.8511 199.842 54.4834 199.898 54.2392C199.915 54.1657 199.933 54.1321 199.939 54.1212C199.949 54.1163 199.968 54.1083 200.005 54.1002C200.073 54.0852 200.146 54.0949 200.211 54.1296C200.271 54.1615 200.32 54.2127 200.35 54.2762C200.538 54.8338 200.762 55.3789 201.019 55.908C201.663 57.3 202.461 58.6154 203.397 59.829C205.76 63.0873 209.223 63.983 212.287 63.0822C215.288 62.1998 217.838 59.6181 218.602 56.0847C218.769 55.5766 218.809 55.0082 218.831 54.559C218.839 54.4019 218.844 54.2549 218.85 54.1153C218.863 53.7754 218.874 53.4793 218.909 53.1866C218.959 52.7734 219.038 52.5833 219.093 52.5075C219.093 52.5074 219.093 52.507 219.093 52.5065C219.096 52.4994 219.111 52.4596 219.257 52.4454C219.332 52.4594 219.362 52.4862 219.393 52.5197C219.463 52.5941 219.555 52.7433 219.662 53.0383C219.736 53.2398 219.791 53.4304 219.856 53.654C219.893 53.7792 219.932 53.9148 219.98 54.0684C220.087 54.4178 220.234 54.8491 220.468 55.2415C221.722 58.0392 223.217 60.1213 224.781 61.4455C226.344 62.769 228.105 63.4309 229.765 63.0301C231.457 62.6214 232.646 61.2084 233.25 59.26C233.567 58.2406 233.739 57.0375 233.751 55.6625C233.845 56.9706 233.795 58.1625 233.706 58.6089L233.692 58.6774L233.687 58.747C233.606 59.8491 233.198 60.8988 232.517 61.7603C231.847 62.6084 230.943 63.2359 229.919 63.5654C228.123 63.9323 226.395 63.2945 224.806 62.0218C223.197 60.7324 221.838 58.8673 220.902 57.0824L219.635 54.6676L218.847 57.2781C218.222 59.3493 216.91 61.1377 215.132 62.3468C213.36 63.5516 211.23 64.1097 209.095 63.9292C206.152 63.543 203.652 61.2364 201.945 58.5059L200.797 56.6701L199.969 58.6705C199.377 60.1024 198.441 61.3625 197.247 62.3393C196.053 63.316 194.637 63.9795 193.124 64.2712L193.12 64.272C190.024 64.8804 186.91 62.6917 184.801 59.9117L183.188 57.7876L182.809 60.4271C182.213 64.5713 177.681 67.1686 173.559 65.869C170.965 64.9072 168.668 63.2702 166.902 61.1244L165.215 59.074L164.933 61.7141C164.839 62.5908 164.571 63.4384 164.145 64.2064C163.718 64.9745 163.143 65.6474 162.454 66.1854C161.764 66.7235 160.973 67.116 160.129 67.3397C159.292 67.5616 158.418 67.6131 157.559 67.4912C154.97 67.0031 152.902 65.0272 151.076 62.817L149.802 61.2739L149.161 63.1698C148.702 64.5255 147.808 65.6856 146.621 66.4684C145.434 67.2508 144.022 67.6127 142.604 67.497L94.8983 64.3165ZM199.933 54.1256C199.932 54.1256 199.934 54.1244 199.937 54.1225C199.934 54.1248 199.933 54.1257 199.933 54.1256ZM118.353 59.1552C118.353 59.155 118.353 59.1557 118.352 59.157C118.353 59.1559 118.353 59.1553 118.353 59.1552ZM118.332 59.1806C118.329 59.1826 118.328 59.1834 118.328 59.1833C118.328 59.1833 118.329 59.1823 118.332 59.1806Z" fill="white" fill-opacity="0.22" stroke="white" stroke-width="2.2299"/>
<path d="M90.9646 93.1341L90.9107 93.153C90.8997 93.1568 90.8896 93.163 90.8809 93.1713C90.8721 93.1795 90.8646 93.1902 90.8593 93.2029L90.8593 93.2029C90.854 93.2157 90.8513 93.2298 90.8517 93.2444C90.8518 93.2488 90.8522 93.2531 90.8528 93.2574C91.5628 94.3793 92.2253 95.39 92.9474 96.3764L92.9673 96.4037L92.9856 96.432C94.2151 98.3442 96.1088 99.7245 98.2917 100.303C99.3227 100.565 100.589 100.486 101.583 100.073C102.568 99.6645 103.098 99.0292 103.154 98.2432L103.371 95.1722L105.17 97.6705C105.884 98.6616 106.787 99.4992 107.825 100.134C108.854 100.763 109.995 101.181 111.182 101.364C112.653 101.488 114.217 101.104 115.449 100.336C116.687 99.5651 117.505 98.469 117.678 97.206L118.012 94.7687L119.625 96.6262C121.655 98.9642 125.029 100.682 127.935 100.815C129.366 100.88 130.596 100.559 131.511 99.842C132.413 99.1367 133.146 97.942 133.395 95.9823L133.753 93.1652L135.407 95.4733C136.837 97.4675 138.683 99.1227 140.943 99.3109L90.9646 93.1341ZM90.9646 93.1341L91.0164 93.1097C91.1349 93.054 91.1895 93.0591 91.1981 93.0599C91.2089 93.0609 91.2376 93.0652 91.2917 93.103C91.4265 93.1973 91.6022 93.4206 91.7484 93.7587C92.0865 94.5407 92.5596 95.1914 92.9501 95.7284C93.0532 95.8702 93.1505 96.0041 93.2381 96.1304M90.9646 93.1341L93.2381 96.1304M93.2381 96.1304C93.9852 97.3142 95.1943 98.6388 96.6552 99.4711C98.1453 100.32 100.035 100.718 101.896 99.6925L101.881 99.6584C102.268 99.411 102.567 99.0454 102.731 98.615L102.8 98.4364L102.805 98.2451C102.832 97.1703 102.677 96.1174 102.524 95.1603C102.509 95.0607 102.493 94.9623 102.477 94.8649C102.35 94.0747 102.233 93.3538 102.192 92.645C102.204 92.6276 102.217 92.6117 102.232 92.5975C102.272 92.5605 102.321 92.5364 102.373 92.5273C102.426 92.5183 102.48 92.5246 102.531 92.5467C102.576 92.5661 102.616 92.5973 102.647 92.6377C102.806 92.9123 102.951 93.1951 103.081 93.4849L103.083 93.4889C104.051 95.6234 105.761 98.2426 107.97 99.792C109.089 100.577 110.393 101.126 111.826 101.131C113.277 101.135 114.727 100.58 116.113 99.3948L116.153 99.3605L116.19 99.3225C117.357 98.1159 117.5 96.66 117.388 95.4006C117.332 94.7784 117.211 94.1591 117.1 93.6089L117.078 93.5017C116.972 92.9746 116.88 92.5175 116.832 92.0889L116.822 91.9952L116.796 91.9046C116.743 91.7204 116.702 91.5409 116.682 91.3769C116.661 91.2091 116.665 91.0923 116.679 91.0207C116.681 91.006 116.684 90.995 116.686 90.987C116.703 90.9797 116.731 90.9696 116.775 90.9597L116.79 90.9564L116.804 90.9528C116.822 90.9482 116.836 90.9457 116.845 90.9443C116.892 90.9807 117.001 91.0907 117.169 91.379C117.348 91.6869 117.529 92.0785 117.764 92.5897L117.766 92.5933C117.992 93.0855 118.257 93.6609 118.58 94.2589C119.232 95.4656 120.143 96.8018 121.581 97.9383C123.019 99.075 124.929 99.968 127.522 100.38C128.273 100.536 129.051 100.495 129.782 100.262C130.524 100.025 131.19 99.5982 131.716 99.0237L131.808 98.9226L131.874 98.802C132.944 96.8265 133.4 94.5731 133.185 92.3317L133.174 92.2147L133.139 92.1025C133.111 92.0138 133.116 91.9189 133.151 91.8358C133.187 91.7529 133.25 91.6876 133.328 91.6501C133.405 91.6126 133.494 91.6042 133.579 91.6275C133.646 91.646 133.708 91.6837 133.756 91.7369C134.85 94.0425 136.406 96.0982 138.327 97.7741L138.355 97.7986L138.384 97.8211C139.968 99.0273 141.932 99.0316 143.523 98.4068C145.089 97.7918 146.491 96.4922 146.949 94.7916C147.15 94.1335 147.08 93.4419 147 92.9235C146.964 92.6892 146.919 92.4499 146.878 92.2339C146.871 92.1957 146.863 92.1582 146.856 92.1216C146.808 91.8667 146.769 91.6448 146.744 91.44C146.69 90.9951 146.735 90.8246 146.761 90.774C146.764 90.7681 146.767 90.7589 146.798 90.739C146.83 90.7176 146.906 90.6779 147.054 90.6426C147.132 90.6525 147.207 90.6799 147.274 90.724C147.363 90.7821 147.434 90.8664 147.477 90.9665L147.518 91.0654L147.578 91.1544C148.44 92.4364 149.366 93.6736 150.353 94.8613L150.366 94.8775L150.38 94.8931C151.111 95.7084 151.994 96.6589 153.028 97.4103C154.071 98.1689 155.33 98.7703 156.814 98.8094L156.857 98.8105L156.901 98.8083C158.059 98.7489 159.178 98.3684 160.133 97.7088C161.087 97.0493 161.84 96.1371 162.309 95.0738L162.331 95.0238L162.348 94.972C162.82 93.5377 162.881 91.9985 162.525 90.5292L162.52 90.5063L162.513 90.4836C162.382 90.0271 162.361 89.626 162.424 89.3922C162.45 89.2952 162.479 89.2699 162.482 89.2669C162.486 89.2635 162.497 89.2542 162.524 89.2427C162.552 89.2307 162.605 89.2136 162.691 89.2032C162.729 89.1987 162.794 89.191 162.961 89.333C163.137 89.4837 163.291 89.6815 163.511 89.964C163.544 90.0062 163.578 90.0504 163.614 90.0965C164.048 90.652 164.467 91.1515 164.886 91.6506C164.938 91.7134 164.991 91.7761 165.043 91.839C166.18 93.2126 167.477 94.4438 168.906 95.5059C170.408 96.7211 172.356 97.3828 174.245 97.3456C176.156 97.3079 178.073 96.5473 179.353 94.8401L179.389 94.7917L179.42 94.7397C180.591 92.7648 181.067 90.4522 180.776 88.1716C180.786 88.1136 180.81 88.0595 180.845 88.0144C180.891 87.9553 180.955 87.9141 181.025 87.8958C181.096 87.8775 181.171 87.8827 181.241 87.9119L181.673 86.8843L181.241 87.9119C181.31 87.9411 181.37 87.9932 181.409 88.0614L181.415 88.0717L181.422 88.0818C182.342 89.5966 183.537 91.5283 185.055 93.0262C186.586 94.5361 188.575 95.7309 191.064 95.5024L191.114 95.4978L191.163 95.4887C194.858 94.81 198.446 91.4531 198.285 87.2484L198.282 87.1852L198.273 87.1227C198.203 86.6651 198.182 86.2974 198.238 86.0532C198.255 85.9796 198.272 85.946 198.279 85.9351C198.289 85.9303 198.308 85.9223 198.344 85.9142C198.413 85.8992 198.486 85.9089 198.551 85.9436C198.611 85.9755 198.66 86.0267 198.69 86.0901C198.878 86.6478 199.102 87.1928 199.359 87.722C200.003 89.114 200.801 90.4293 201.737 91.643C204.1 94.9013 207.563 95.797 210.627 94.8961C213.628 94.0138 216.177 91.432 216.942 87.8987C217.109 87.3905 217.149 86.8221 217.171 86.373C217.179 86.2158 217.184 86.0688 217.19 85.9292C217.203 85.5894 217.214 85.2933 217.249 85.0005C217.299 84.5874 217.378 84.3973 217.433 84.3215C217.433 84.3214 217.433 84.321 217.433 84.3205C217.436 84.3134 217.451 84.2735 217.596 84.2594C217.671 84.2734 217.702 84.3001 217.733 84.3337C217.803 84.4081 217.895 84.5573 218.002 84.8523C218.075 85.0537 218.131 85.2443 218.196 85.468C218.233 85.5932 218.272 85.7287 218.319 85.8823C218.427 86.2317 218.574 86.6631 218.808 87.0555C220.062 89.8532 221.557 91.9352 223.121 93.2594C224.683 94.5829 226.444 95.2449 228.104 94.8441C229.797 94.4354 230.986 93.0223 231.59 91.074C231.906 90.0546 232.079 88.8514 232.091 87.4765C232.185 88.7845 232.135 89.9764 232.045 90.4229L232.032 90.4913L232.027 90.561C231.946 91.6631 231.538 92.7127 230.857 93.5742C230.187 94.4223 229.283 95.0499 228.258 95.3793C226.463 95.7462 224.735 95.1085 223.146 93.8358C221.537 92.5464 220.178 90.6813 219.242 88.8963L217.975 86.4816L217.187 89.0921C216.562 91.1633 215.25 92.9516 213.472 94.1608C211.7 95.3656 209.57 95.9237 207.435 95.7431C204.492 95.3569 201.992 93.0504 200.285 90.3198L199.137 88.4841L198.309 90.4845C197.716 91.9164 196.781 93.1764 195.587 94.1532C194.393 95.13 192.977 95.7935 191.464 96.0852L191.46 96.0859C188.364 96.6943 185.25 94.5057 183.14 91.7257L181.528 89.6015L181.149 92.241C180.553 96.3852 176.021 98.9826 171.898 97.683C169.305 96.7212 167.007 95.0842 165.242 92.9384L163.555 90.888L163.272 93.528C163.179 94.4048 162.91 95.2523 162.484 96.0204C162.058 96.7884 161.483 97.4613 160.793 97.9994C160.104 98.5375 159.313 98.9299 158.469 99.1537C157.631 99.3755 156.758 99.4271 155.899 99.3051C153.31 98.8171 151.242 96.8412 149.416 94.631L148.142 93.0879L147.5 94.9837C147.042 96.3395 146.148 97.4996 144.961 98.2823C143.774 99.0648 142.361 99.4267 140.944 99.311L93.2381 96.1304ZM198.272 85.9396C198.272 85.9395 198.273 85.9384 198.277 85.9365C198.274 85.9387 198.273 85.9397 198.272 85.9396ZM116.693 90.9691C116.693 90.969 116.693 90.9696 116.692 90.971C116.693 90.9699 116.693 90.9693 116.693 90.9691ZM116.672 90.9946C116.669 90.9965 116.668 90.9974 116.668 90.9973C116.668 90.9972 116.669 90.9963 116.672 90.9946Z" fill="white" fill-opacity="0.22" stroke="white" stroke-width="2.2299"/>
<path d="M515.744 64.2843L515.798 64.305C515.808 64.3092 515.818 64.3157 515.827 64.3243C515.835 64.3328 515.842 64.3437 515.847 64.3566L515.847 64.3566C515.852 64.3696 515.854 64.3838 515.854 64.3984C515.853 64.4027 515.853 64.407 515.852 64.4113C515.105 65.509 514.409 66.4971 513.655 67.4591L513.634 67.4856L513.615 67.5134C512.323 69.3837 510.384 70.7003 508.183 71.2064C507.144 71.4332 505.881 71.3122 504.901 70.8669C503.931 70.4259 503.422 69.7733 503.393 68.986L503.277 65.9094L501.396 68.3466C500.65 69.3134 499.719 70.1206 498.661 70.7209C497.612 71.3155 496.457 71.6952 495.264 71.8384C493.79 71.9138 492.24 71.4774 491.034 70.6695C489.823 69.8578 489.041 68.7351 488.911 67.467L488.658 65.02L486.984 66.8229C484.878 69.0922 481.448 70.6973 478.54 70.7331C477.107 70.7508 475.889 70.3889 474.997 69.6423C474.12 68.9075 473.427 67.6891 473.243 65.7222L472.979 62.8947L471.249 65.1466C469.754 67.0924 467.853 68.6853 465.588 68.7983L515.744 64.2843ZM515.744 64.2843L515.693 64.2583C515.577 64.1986 515.522 64.2019 515.513 64.2024C515.503 64.2031 515.474 64.2064 515.418 64.2424C515.281 64.3322 515.098 64.5495 514.94 64.8826C514.576 65.6529 514.082 66.2875 513.674 66.8113C513.566 66.9496 513.464 67.0802 513.373 67.2035M515.744 64.2843L513.373 67.2035M513.373 67.2035C512.587 68.3618 511.334 69.6456 509.847 70.429C508.329 71.2279 506.427 71.5629 504.602 70.4762L504.617 70.4426C504.238 70.1825 503.953 69.8072 503.802 69.3716L503.74 69.1907L503.741 68.9994C503.749 67.9243 503.939 66.8771 504.124 65.9256C504.143 65.8266 504.162 65.7288 504.181 65.632C504.334 64.8465 504.475 64.1298 504.54 63.4228C504.528 63.405 504.515 63.3886 504.501 63.3739C504.462 63.3356 504.414 63.3099 504.362 63.2991C504.31 63.2884 504.255 63.2929 504.204 63.3132C504.158 63.3312 504.117 63.361 504.085 63.4004C503.917 63.6695 503.763 63.9473 503.623 64.2326L503.621 64.2366C502.583 66.3378 500.786 68.8987 498.527 70.374C497.383 71.1214 496.061 71.6272 494.629 71.584C493.178 71.5404 491.748 70.9374 490.402 69.7066L490.363 69.671L490.327 69.6318C489.201 68.3871 489.106 66.9273 489.261 65.6723C489.337 65.0523 489.479 64.4374 489.608 63.8912L489.633 63.7847C489.756 63.2614 489.864 62.8076 489.926 62.3809L489.939 62.2876L489.968 62.1978C490.027 62.0155 490.074 61.8375 490.1 61.6743C490.127 61.5073 490.126 61.3904 490.115 61.3183C490.112 61.3036 490.11 61.2925 490.108 61.2844C490.092 61.2766 490.064 61.2655 490.02 61.2541L490.006 61.2504L489.992 61.2463C489.974 61.2411 489.96 61.2382 489.951 61.2364C489.902 61.2712 489.79 61.3775 489.613 61.6602C489.423 61.962 489.229 62.3473 488.977 62.8505L488.976 62.8539C488.733 63.3384 488.45 63.9047 488.107 64.4916C487.415 65.676 486.46 66.9812 484.985 68.0694C483.51 69.1577 481.571 69.9868 478.967 70.3123C478.211 70.443 477.434 70.3768 476.711 70.1193C475.978 69.858 475.326 69.4093 474.82 68.8177L474.731 68.7135L474.67 68.5908C473.666 66.5809 473.285 64.3136 473.574 62.0806L473.589 61.964L473.628 61.8531C473.659 61.7653 473.657 61.6703 473.624 61.586C473.591 61.502 473.53 61.4347 473.454 61.3946C473.378 61.3546 473.289 61.3433 473.204 61.3637C473.136 61.3799 473.073 61.4156 473.023 61.4671C471.853 63.7352 470.229 65.738 468.254 67.3493L468.226 67.3728L468.195 67.3943C466.572 68.5473 464.609 68.4864 463.04 67.8091C461.496 67.1424 460.137 65.797 459.736 64.0821C459.557 63.4177 459.65 62.7288 459.747 62.2134C459.79 61.9804 459.844 61.7427 459.892 61.5282C459.9 61.4902 459.909 61.453 459.917 61.4166C459.973 61.1635 460.02 60.9431 460.052 60.7392C460.121 60.2964 460.081 60.1244 460.057 60.073C460.054 60.0669 460.051 60.0577 460.022 60.0368C459.99 60.0143 459.915 59.9721 459.769 59.9319C459.691 59.9392 459.614 59.9642 459.546 60.0059C459.455 60.0611 459.381 60.143 459.336 60.2417L459.29 60.3391L459.228 60.4261C458.324 61.6787 457.357 62.8845 456.332 64.0388L456.318 64.0545L456.303 64.0696C455.546 64.8602 454.632 65.7809 453.574 66.4976C452.505 67.2211 451.228 67.7804 449.743 67.7701L449.699 67.7698L449.656 67.7662C448.5 67.6683 447.395 67.2509 446.463 66.56C445.53 65.8692 444.808 64.9324 444.375 63.8541L444.354 63.8035L444.339 63.7511C443.915 62.302 443.905 60.7616 444.31 59.3049L444.316 59.2822L444.323 59.2597C444.47 58.8078 444.504 58.4077 444.449 58.1719C444.426 58.0741 444.398 58.0479 444.394 58.0447C444.391 58.0412 444.38 58.0315 444.353 58.0191C444.326 58.0062 444.274 57.9874 444.188 57.9741C444.15 57.9683 444.086 57.9585 443.914 58.095C443.733 58.2397 443.573 58.4323 443.344 58.7073C443.309 58.7484 443.274 58.7914 443.236 58.8363C442.783 59.3771 442.348 59.8624 441.913 60.3474C441.859 60.4083 441.804 60.4693 441.749 60.5304C440.568 61.8655 439.231 63.053 437.768 64.0671C436.225 65.2317 434.257 65.8283 432.37 65.7284C430.461 65.6273 428.57 64.8035 427.348 63.0547L427.313 63.0052L427.284 62.9522C426.18 60.9395 425.781 58.6124 426.147 56.3427C426.139 56.2843 426.117 56.2295 426.083 56.1832C426.039 56.1227 425.977 56.0794 425.907 56.0587C425.838 56.0381 425.762 56.0407 425.692 56.0676L425.293 55.0263L425.692 56.0676C425.621 56.0946 425.56 56.1447 425.518 56.2115L425.512 56.2216L425.505 56.2315C424.535 57.7149 423.276 59.6058 421.709 61.0525C420.129 62.5107 418.101 63.6389 415.622 63.3278L415.572 63.3216L415.523 63.3109C411.852 62.5098 408.379 59.0357 408.679 54.8387L408.683 54.7756L408.695 54.7134C408.78 54.2584 408.813 53.8915 408.765 53.6457C408.751 53.5716 408.734 53.5374 408.728 53.5263C408.719 53.5211 408.699 53.5124 408.663 53.5031C408.595 53.4859 408.522 53.4932 408.456 53.5257C408.395 53.5556 408.344 53.6051 408.312 53.6676C408.106 54.2186 407.864 54.756 407.589 55.2763C406.899 56.6461 406.058 57.9343 405.083 59.1162C402.613 62.2942 399.122 63.0745 396.09 62.0724C393.12 61.0908 390.657 58.4259 390.011 54.8691C389.86 54.3557 389.839 53.7863 389.832 53.3366C389.83 53.1793 389.829 53.0322 389.828 52.8925C389.826 52.5524 389.825 52.2561 389.799 51.9624C389.764 51.5478 389.691 51.3551 389.638 51.2776C389.638 51.2774 389.638 51.2771 389.638 51.2766C389.636 51.2694 389.622 51.2291 389.477 51.21C389.402 51.2216 389.37 51.2473 389.338 51.2798C389.266 51.3518 389.169 51.4979 389.052 51.7892C388.972 51.9881 388.91 52.1767 388.837 52.3981C388.797 52.522 388.753 52.6562 388.701 52.8081C388.581 53.1538 388.421 53.58 388.173 53.9644C386.828 56.719 385.264 58.7502 383.657 60.0217C382.051 61.2926 380.269 61.8958 378.623 61.44C376.945 60.9753 375.804 59.5237 375.265 57.5563C374.983 56.5269 374.85 55.3188 374.884 53.9442C374.746 55.2484 374.757 56.4412 374.831 56.8904L374.843 56.9593L374.846 57.0291C374.89 58.1333 375.262 59.1959 375.914 60.0795C376.556 60.9494 377.439 61.6066 378.452 61.9699C380.234 62.3962 381.982 61.8162 383.612 60.597C385.264 59.3617 386.683 57.5427 387.679 55.7898L389.025 53.4185L389.726 56.0537C390.282 58.1445 391.533 59.9754 393.271 61.2429C395.002 62.5059 397.112 63.1344 399.252 63.0249C402.206 62.7366 404.781 60.5143 406.578 57.842L407.786 56.0454L408.547 58.0722C409.092 59.5229 409.985 60.8133 411.146 61.8292C412.307 62.8451 413.7 63.5552 415.202 63.897L415.206 63.8979C418.28 64.6087 421.465 62.5247 423.666 59.8163L425.348 57.7468L425.64 60.3975C426.098 64.5592 430.541 67.3055 434.704 66.1436C437.328 65.2684 439.679 63.7086 441.514 61.6226L443.268 59.6293L443.463 62.2773C443.528 63.1567 443.768 64.0127 444.168 64.7944C444.569 65.5762 445.121 66.2678 445.793 66.8285C446.464 67.3892 447.241 67.8077 448.078 68.0593C448.907 68.3089 449.779 68.3894 450.641 68.296C453.244 67.8942 455.377 65.9881 457.275 63.8397L458.6 62.3397L459.178 64.2559C459.592 65.6261 460.447 66.8152 461.607 67.6369C462.767 68.4584 464.167 68.867 465.587 68.7984L513.373 67.2035ZM408.735 53.531C408.735 53.5309 408.734 53.5297 408.73 53.5277C408.733 53.53 408.734 53.531 408.735 53.531ZM490.102 61.2663C490.102 61.2662 490.102 61.2668 490.103 61.2682C490.102 61.2671 490.102 61.2665 490.102 61.2663ZM490.123 61.2925C490.125 61.2945 490.126 61.2954 490.126 61.2953C490.127 61.2953 490.125 61.2942 490.123 61.2925Z" fill="white" fill-opacity="0.22" stroke="white" stroke-width="2.2299"/>
<path d="M514.084 96.0988L514.137 96.1195C514.148 96.1237 514.158 96.1302 514.167 96.1387C514.175 96.1473 514.182 96.1582 514.187 96.171L514.187 96.1711C514.192 96.184 514.194 96.1983 514.193 96.2128C514.193 96.2172 514.193 96.2215 514.192 96.2257C513.445 97.3235 512.749 98.3116 511.995 99.2735L511.974 99.3001L511.955 99.3278C510.663 101.198 508.724 102.515 506.523 103.021C505.484 103.248 504.221 103.127 503.241 102.681C502.271 102.24 501.762 101.588 501.732 100.8L501.617 97.7238L499.736 100.161C498.989 101.128 498.059 101.935 497 102.535C495.951 103.13 494.797 103.51 493.604 103.653C492.13 103.728 490.58 103.292 489.374 102.484C488.163 101.672 487.381 100.55 487.25 99.2815L486.998 96.8345L485.324 98.6374C483.217 100.907 479.788 102.512 476.88 102.548C475.447 102.565 474.228 102.203 473.337 101.457C472.46 100.722 471.766 99.5036 471.583 97.5366L471.319 94.7092L469.588 96.9611C468.094 98.9068 466.193 100.5 463.928 100.613L514.084 96.0988ZM514.084 96.0988L514.033 96.0727C513.917 96.0131 513.862 96.0164 513.853 96.0169C513.842 96.0176 513.814 96.0208 513.758 96.0569C513.621 96.1466 513.437 96.3639 513.28 96.697C512.916 97.4674 512.422 98.102 512.014 98.6258C511.906 98.7641 511.804 98.8947 511.712 99.018M514.084 96.0988L511.712 99.018M511.712 99.018C510.927 100.176 509.674 101.46 508.186 102.243C506.669 103.042 504.767 103.377 502.942 102.291L502.957 102.257C502.578 101.997 502.292 101.622 502.142 101.186L502.08 101.005L502.081 100.814C502.089 99.7387 502.279 98.6915 502.463 97.7401C502.483 97.6411 502.502 97.5432 502.521 97.4464C502.674 96.6609 502.814 95.9442 502.879 95.2372C502.868 95.2195 502.855 95.2031 502.84 95.1884C502.802 95.1501 502.754 95.1243 502.702 95.1136C502.65 95.1028 502.595 95.1073 502.544 95.1277C502.498 95.1456 502.457 95.1755 502.425 95.2148C502.257 95.484 502.102 95.7618 501.963 96.0471L501.961 96.0511C500.923 98.1522 499.126 100.713 496.867 102.188C495.723 102.936 494.401 103.442 492.969 103.399C491.518 103.355 490.088 102.752 488.742 101.521L488.703 101.485L488.667 101.446C487.541 100.202 487.446 98.7418 487.6 97.4867C487.676 96.8667 487.818 96.2518 487.947 95.7056L487.973 95.5991C488.096 95.0758 488.203 94.6221 488.265 94.1953L488.279 94.102L488.308 94.0123C488.367 93.83 488.414 93.6519 488.44 93.4887C488.466 93.3217 488.466 93.2048 488.455 93.1328C488.452 93.118 488.45 93.1069 488.448 93.0988C488.432 93.0911 488.404 93.08 488.36 93.0686L488.346 93.0649L488.332 93.0607C488.314 93.0556 488.3 93.0526 488.29 93.0509C488.242 93.0857 488.13 93.192 487.952 93.4746C487.763 93.7764 487.569 94.1618 487.317 94.6649L487.316 94.6684C487.073 95.1529 486.79 95.7192 486.447 96.306C485.755 97.4905 484.8 98.7957 483.325 99.8838C481.85 100.972 479.911 101.801 477.307 102.127C476.551 102.257 475.774 102.191 475.051 101.934C474.318 101.673 473.666 101.224 473.16 100.632L473.071 100.528L473.009 100.405C472.006 98.3954 471.625 96.1281 471.914 93.895L471.929 93.7784L471.968 93.6675C471.999 93.5797 471.997 93.4848 471.964 93.4005C471.931 93.3165 471.87 93.2492 471.794 93.2091C471.718 93.169 471.629 93.1577 471.544 93.1781C471.476 93.1944 471.413 93.2301 471.363 93.2816C470.192 95.5496 468.569 97.5525 466.594 99.1638L466.566 99.1873L466.535 99.2088C464.912 100.362 462.949 100.301 461.38 99.6236C459.835 98.9569 458.477 97.6114 458.076 95.8966C457.896 95.2321 457.99 94.5433 458.087 94.0279C458.13 93.7948 458.184 93.5572 458.232 93.3427C458.24 93.3047 458.249 93.2675 458.257 93.2311C458.313 92.9779 458.36 92.7575 458.392 92.5537C458.46 92.1108 458.421 91.9388 458.397 91.8875C458.394 91.8814 458.391 91.8722 458.361 91.8513C458.329 91.8288 458.255 91.7865 458.108 91.7463C458.031 91.7537 457.954 91.7786 457.885 91.8204C457.795 91.8755 457.721 91.9574 457.675 92.0561L457.63 92.1535L457.568 92.2405C456.664 93.4931 455.697 94.6989 454.671 95.8533L454.657 95.8689L454.643 95.8841C453.886 96.6747 452.972 97.5954 451.914 98.3121C450.845 99.0356 449.567 99.5949 448.083 99.5846L448.039 99.5843L447.996 99.5807C446.84 99.4828 445.735 99.0653 444.802 98.3745C443.87 97.6836 443.148 96.7469 442.714 95.6686L442.694 95.618L442.679 95.5656C442.255 94.1165 442.245 92.576 442.65 91.1194L442.656 91.0966L442.663 91.0742C442.809 90.6223 442.844 90.2221 442.789 89.9864C442.766 89.8886 442.738 89.8623 442.734 89.8592C442.731 89.8557 442.72 89.846 442.693 89.8336C442.665 89.8207 442.614 89.8019 442.528 89.7886C442.49 89.7828 442.425 89.773 442.254 89.9094C442.073 90.0541 441.912 90.2468 441.683 90.5218C441.649 90.5629 441.613 90.6058 441.576 90.6508C441.123 91.1915 440.688 91.6768 440.253 92.1618C440.199 92.2228 440.144 92.2838 440.089 92.3448C438.908 93.68 437.571 94.8674 436.107 95.8815C434.565 97.0461 432.597 97.6428 430.71 97.5429C428.801 97.4418 426.91 96.6179 425.688 94.8691L425.653 94.8196L425.624 94.7666C424.52 92.7539 424.121 90.4268 424.487 88.1572C424.479 88.0988 424.457 88.044 424.423 87.9977C424.379 87.9371 424.317 87.8939 424.247 87.8732C424.177 87.8526 424.102 87.8552 424.031 87.8821L423.633 86.8407L424.031 87.8821C423.961 87.909 423.899 87.9591 423.858 88.026L423.851 88.036L423.845 88.046C422.875 89.5294 421.616 91.4203 420.049 92.867C418.469 94.3252 416.441 95.4533 413.962 95.1423L413.912 95.136L413.863 95.1253C410.192 94.3243 406.718 90.8501 407.019 86.6531L407.023 86.59L407.035 86.5278C407.12 86.0728 407.153 85.706 407.105 85.4601C407.091 85.386 407.074 85.3518 407.068 85.3407C407.059 85.3356 407.039 85.3269 407.003 85.3176C406.935 85.3004 406.862 85.3076 406.796 85.3401C406.735 85.37 406.684 85.4196 406.652 85.482C406.446 86.0331 406.204 86.5704 405.929 87.0907C405.239 88.4606 404.398 89.7487 403.422 90.9306C400.953 94.1087 397.462 94.8889 394.429 93.8868C391.46 92.9053 388.997 90.2403 388.35 86.6836C388.2 86.1701 388.179 85.6007 388.172 85.1511C388.169 84.9938 388.169 84.8467 388.168 84.7069C388.166 84.3669 388.165 84.0706 388.139 83.7768C388.103 83.3623 388.031 83.1696 387.978 83.092C387.978 83.0919 387.978 83.0915 387.978 83.091C387.975 83.0838 387.962 83.0435 387.817 83.0245C387.741 83.036 387.71 83.0617 387.678 83.0942C387.605 83.1663 387.509 83.3124 387.392 83.6036C387.312 83.8026 387.25 83.9912 387.177 84.2126C387.137 84.3365 387.093 84.4706 387.04 84.6226C386.921 84.9682 386.761 85.3944 386.513 85.7789C385.167 88.5334 383.603 90.5646 381.997 91.8362C380.391 93.1071 378.609 93.7102 376.963 93.2545C375.285 92.7898 374.144 91.3381 373.605 89.3708C373.322 88.3414 373.19 87.1332 373.224 85.7586C373.086 87.0628 373.096 88.2557 373.171 88.7049L373.183 88.7738L373.185 88.8435C373.229 89.9477 373.602 91.0103 374.254 91.894C374.896 92.7638 375.779 93.4211 376.792 93.7844C378.574 94.2107 380.322 93.6306 381.952 92.4114C383.603 91.1761 385.023 89.3572 386.018 87.6043L387.365 85.233L388.065 87.8682C388.621 89.9589 389.873 91.7899 391.611 93.0574C393.341 94.3204 395.451 94.9489 397.592 94.8393C400.545 94.551 403.121 92.3288 404.918 89.6564L406.126 87.8598L406.887 89.8866C407.432 91.3374 408.325 92.6278 409.486 93.6437C410.647 94.6595 412.04 95.3697 413.542 95.7114L413.546 95.7123C416.62 96.4232 419.805 94.3391 422.006 91.6308L423.688 89.5613L423.98 92.2119C424.438 96.3736 428.881 99.12 433.044 97.958C435.668 97.0828 438.019 95.523 439.854 93.437L441.608 91.4438L441.803 94.0917C441.868 94.9711 442.108 95.8271 442.508 96.6089C442.908 97.3907 443.461 98.0823 444.132 98.6429C444.804 99.2036 445.581 99.6221 446.417 99.8738C447.247 100.123 448.118 100.204 448.981 100.11C451.584 99.7086 453.717 97.8025 455.615 95.6541L456.94 94.1542L457.518 96.0703C457.931 97.4405 458.787 98.6296 459.947 99.4514C461.107 100.273 462.507 100.681 463.927 100.613L511.712 99.018ZM407.074 85.3454C407.075 85.3454 407.074 85.3442 407.07 85.3422C407.073 85.3445 407.074 85.3455 407.074 85.3454ZM488.442 93.0808C488.442 93.0806 488.442 93.0813 488.443 93.0827C488.442 93.0815 488.442 93.0809 488.442 93.0808ZM488.463 93.1069C488.465 93.109 488.466 93.1098 488.466 93.1098C488.466 93.1097 488.465 93.1087 488.463 93.1069Z" fill="white" fill-opacity="0.22" stroke="white" stroke-width="2.2299"/>
<path d="M374.72 50.6782L374.775 50.693C374.787 50.696 374.797 50.7013 374.806 50.7089C374.816 50.7165 374.824 50.7265 374.83 50.7388L374.83 50.7389C374.837 50.7512 374.84 50.7651 374.841 50.7797C374.841 50.784 374.841 50.7883 374.841 50.7927C374.218 51.9653 373.635 53.0235 372.99 54.062L372.972 54.0906L372.956 54.1203C371.875 56.1205 370.092 57.6408 367.96 58.384C366.952 58.7229 365.683 58.7405 364.66 58.4048C363.647 58.0723 363.071 57.4791 362.955 56.6997L362.504 53.6541L360.901 56.2821C360.264 57.3246 359.428 58.2284 358.441 58.9406C357.463 59.6462 356.357 60.1496 355.187 60.4221C353.73 60.6579 352.142 60.3933 350.855 59.7218C349.562 59.0472 348.662 58.0164 348.394 56.7702L347.876 54.3654L346.409 56.3402C344.562 58.8258 341.328 60.7956 338.441 61.1486C337.019 61.3225 335.769 61.0957 334.801 60.4509C333.849 59.8161 333.027 58.6807 332.629 56.7456L332.058 53.9639L330.584 56.3911C329.311 58.4884 327.595 60.2792 325.356 60.6387L374.72 50.6782ZM374.72 50.6782L374.667 50.6579C374.544 50.6113 374.49 50.6205 374.482 50.622C374.471 50.6239 374.443 50.6303 374.392 50.6721C374.264 50.7764 374.106 51.0123 373.986 51.3607C373.708 52.1661 373.286 52.8509 372.938 53.4161C372.846 53.5653 372.759 53.7062 372.681 53.8388M374.72 50.6782L372.681 53.8388M372.681 53.8388C372.026 55.076 370.921 56.4887 369.528 57.4298C368.107 58.3896 366.253 58.9301 364.32 58.0491L364.331 58.014C363.926 57.7968 363.601 57.4549 363.404 57.0383L363.323 56.8654L363.303 56.675C363.194 55.6055 363.268 54.5438 363.348 53.5779C363.356 53.4774 363.365 53.378 363.373 53.2797C363.44 52.4821 363.501 51.7545 363.488 51.0445C363.475 51.0281 363.46 51.0132 363.444 51.0003C363.402 50.9664 363.351 50.946 363.298 50.941C363.246 50.936 363.191 50.9465 363.143 50.9723L362.622 49.9864L363.143 50.9723C363.099 50.9951 363.062 51.0292 363.034 51.0719C362.896 51.3578 362.773 51.6508 362.666 51.9496L362.664 51.9538C361.861 54.1557 360.355 56.8974 358.271 58.6104C357.214 59.4782 355.956 60.1252 354.527 60.2386C353.081 60.3535 351.593 59.9102 350.121 58.8337L350.078 58.8025L350.038 58.7675C348.783 57.6531 348.53 56.2124 348.546 54.948C348.554 54.3234 348.628 53.6967 348.697 53.1397L348.71 53.0311C348.776 52.4974 348.833 52.0346 348.848 51.6037L348.851 51.5095L348.87 51.4171C348.909 51.2294 348.936 51.0474 348.944 50.8823C348.952 50.7134 348.939 50.5973 348.92 50.5268C348.916 50.5124 348.912 50.5017 348.909 50.4938C348.893 50.4879 348.864 50.4799 348.819 50.4733L348.804 50.4712L348.79 50.4687C348.771 50.4655 348.758 50.464 348.748 50.4634C348.704 50.5032 348.604 50.6212 348.458 50.9215C348.303 51.2421 348.152 51.6463 347.957 52.1739L347.955 52.177C347.767 52.6852 347.547 53.2793 347.27 53.9003C346.712 55.1532 345.905 56.5547 344.558 57.7973C343.21 59.0402 341.374 60.0759 338.82 60.6837C338.083 60.8961 337.304 60.9151 336.557 60.7379C335.8 60.5583 335.103 60.1834 334.535 59.6505L334.435 59.5567L334.361 59.4414C333.144 57.553 332.517 55.3409 332.561 53.0896L332.563 52.9721L332.59 52.8576C332.611 52.7669 332.599 52.6728 332.557 52.5926C332.515 52.5126 332.447 52.4524 332.367 52.4208C332.287 52.3894 332.198 52.3878 332.115 52.4174C332.049 52.441 331.99 52.4833 331.946 52.54C331.031 54.9222 329.636 57.0902 327.848 58.9074L327.822 58.9339L327.795 58.9586C326.307 60.2818 324.349 60.4355 322.715 59.9335C321.107 59.4393 319.61 58.2501 319.024 56.5893C318.773 55.9484 318.791 55.2535 318.831 54.7306C318.849 54.4942 318.876 54.2521 318.901 54.0336C318.905 53.995 318.909 53.957 318.913 53.92C318.942 53.6622 318.964 53.438 318.973 53.2319C318.993 52.7842 318.935 52.6176 318.906 52.5691L318.905 52.568C318.902 52.5622 318.896 52.5534 318.867 52.537C318.832 52.5182 318.754 52.4843 318.604 52.4603C318.527 52.4761 318.454 52.5092 318.39 52.5583C318.306 52.623 318.242 52.7124 318.207 52.8155L318.173 52.9172L318.12 53.0106C317.358 54.3544 316.529 55.6584 315.635 56.9178L315.623 56.9349L315.61 56.9515C314.944 57.82 314.136 58.835 313.162 59.6629C312.179 60.4986 310.97 61.194 309.493 61.3459L309.45 61.3503L309.407 61.3514C308.247 61.3802 307.103 61.0859 306.1 60.5009C305.098 59.9159 304.278 59.0636 303.73 58.0391L303.704 57.9909L303.683 57.9405C303.104 56.5463 302.926 55.0162 303.169 53.5241L303.173 53.5008L303.177 53.4776C303.273 53.0125 303.264 52.611 303.183 52.3827C303.15 52.288 303.119 52.265 303.115 52.2622C303.111 52.2591 303.1 52.2506 303.072 52.2412C303.043 52.2314 302.989 52.2184 302.902 52.2145C302.864 52.2129 302.799 52.2102 302.644 52.3645C302.479 52.5281 302.341 52.7371 302.143 53.0355C302.114 53.0801 302.083 53.1267 302.05 53.1754C301.659 53.7624 301.28 54.2923 300.901 54.8218C300.853 54.8884 300.805 54.955 300.757 55.0216C299.729 56.4777 298.529 57.8039 297.185 58.9716C295.779 60.2976 293.888 61.1055 292.002 61.2121C290.093 61.32 288.123 60.7074 286.717 59.1025L286.678 59.057L286.643 59.0075C285.326 57.1273 284.675 54.8576 284.792 52.5616C284.777 52.5044 284.749 52.4524 284.711 52.41C284.66 52.3547 284.594 52.3184 284.522 52.3055C284.45 52.2926 284.375 52.3035 284.308 52.3379C284.241 52.3724 284.186 52.4289 284.152 52.4999L284.146 52.5106L284.141 52.5211C283.338 54.1016 282.294 56.1185 280.894 57.7276C279.482 59.3496 277.59 60.6922 275.091 60.6536L275.041 60.6529L274.991 60.6476C271.255 60.2519 267.423 57.1776 267.263 52.9728L267.261 52.9096L267.266 52.8465C267.301 52.385 267.293 52.0167 267.219 51.7775C267.197 51.7054 267.176 51.6733 267.169 51.6629L372.681 53.8388ZM267.176 51.6669C267.176 51.6667 267.175 51.6657 267.171 51.6641C267.174 51.6662 267.176 51.667 267.176 51.6669ZM267.102 51.647C267.033 51.6373 266.96 51.6525 266.898 51.692C266.841 51.7284 266.796 51.7832 266.771 51.8487C266.626 52.4191 266.444 52.9795 266.228 53.5267C265.692 54.9637 264.996 56.3359 264.155 57.6173C262.047 61.0459 258.662 62.2024 255.539 61.5372C252.479 60.8856 249.741 58.5053 248.71 55.0404C248.504 54.5464 248.421 53.9827 248.365 53.5365C248.345 53.3804 248.329 53.2342 248.313 53.0954C248.274 52.7576 248.24 52.4632 248.183 52.174C248.102 51.7658 248.008 51.5823 247.948 51.5109C247.948 51.5107 247.948 51.5104 247.947 51.5099C247.944 51.5031 247.927 51.4644 247.78 51.4614C247.706 51.4811 247.678 51.51 247.649 51.5459C247.585 51.6254 247.505 51.7811 247.421 52.0834C247.363 52.2899 247.322 52.4841 247.274 52.7121C247.247 52.8397 247.218 52.9779 247.183 53.1346C247.102 53.4912 246.989 53.9324 246.785 54.3416C245.748 57.2265 244.415 59.4163 242.956 60.8555C241.499 62.2941 239.793 63.0881 238.108 62.8147C236.389 62.5359 235.096 61.2174 234.345 59.3207C233.952 58.3282 233.689 57.1418 233.573 55.7717C233.578 57.0831 233.719 58.2677 233.842 58.7061L233.861 58.7733L233.871 58.8423C234.035 59.9351 234.522 60.9507 235.266 61.7579C235.999 62.5526 236.949 63.1095 237.995 63.3601C239.813 63.5894 241.488 62.822 242.975 61.4322C244.481 60.0241 245.694 58.0611 246.492 56.21L247.572 53.706L248.556 56.249C249.337 58.2666 250.781 59.95 252.646 61.0203C254.504 62.0869 256.67 62.4814 258.786 62.1389C261.691 61.53 264.008 59.0399 265.503 56.1875L266.507 54.2698L267.485 56.2014C268.185 57.584 269.213 58.7693 270.478 59.6524C271.743 60.5355 273.206 61.0894 274.736 61.2652L274.74 61.2656C277.874 61.6368 280.812 59.2176 282.704 56.2852L284.15 54.0446L284.729 56.6475C285.639 60.7344 290.355 62.9795 294.367 61.3701C296.88 60.2138 299.046 58.4068 300.643 56.133L302.169 53.9602L302.652 56.571C302.812 57.4381 303.144 58.2628 303.627 58.9963C304.11 59.7297 304.735 60.3569 305.464 60.8409C306.192 61.325 307.011 61.6562 307.869 61.815C308.721 61.9726 309.596 61.9575 310.444 61.7705C312.987 61.087 314.9 58.9595 316.552 56.6169L317.705 54.9813L318.489 56.8229C319.049 58.1398 320.029 59.2285 321.272 59.9187C322.515 60.6087 323.951 60.8621 325.355 60.6389L267.102 51.647ZM348.902 50.4765C348.902 50.4766 348.902 50.4772 348.903 50.4784C348.902 50.4771 348.902 50.4765 348.902 50.4765ZM348.925 50.5001C348.927 50.502 348.929 50.5027 348.929 50.5027C348.929 50.5027 348.928 50.5017 348.925 50.5001Z" fill="white" fill-opacity="0.22" stroke="white" stroke-width="2.2299"/>
<path d="M373.06 82.4922L373.115 82.5069C373.126 82.5099 373.137 82.5153 373.146 82.5229C373.156 82.5305 373.164 82.5405 373.17 82.5528L373.17 82.5528C373.176 82.5651 373.18 82.579 373.181 82.5936C373.181 82.598 373.181 82.6023 373.181 82.6066C372.558 83.7793 371.975 84.8375 371.33 85.876L371.312 85.9046L371.296 85.9343C370.215 87.9344 368.432 89.4547 366.3 90.1979C365.291 90.5369 364.023 90.5545 363 90.2188C361.987 89.8863 361.41 89.2931 361.295 88.5137L360.844 85.468L359.24 88.096C358.604 89.1385 357.768 90.0424 356.781 90.7546C355.803 91.4602 354.697 91.9636 353.527 92.2361C352.069 92.4719 350.481 92.2072 349.194 91.5357C347.901 90.8611 347.002 89.8304 346.734 88.5842L346.216 86.1794L344.749 88.1541C342.902 90.6398 339.668 92.6096 336.781 92.9626C335.359 93.1364 334.108 92.9096 333.141 92.2648C332.189 91.6301 331.367 90.4947 330.969 88.5596L330.398 85.7778L328.924 88.2051C327.65 90.3023 325.935 92.0932 323.696 92.4526L373.06 82.4922ZM373.06 82.4922L373.007 82.4718C372.884 82.4253 372.83 82.4345 372.822 82.436C372.811 82.4378 372.783 82.4442 372.732 82.4861C372.604 82.5903 372.446 82.8263 372.326 83.1746C372.048 83.98 371.626 84.6648 371.278 85.23C371.186 85.3793 371.099 85.5202 371.021 85.6528M373.06 82.4922L371.021 85.6528M371.021 85.6528C370.366 86.8899 369.261 88.3027 367.868 89.2437C366.447 90.2035 364.593 90.7441 362.66 89.863L362.671 89.828C362.266 89.6107 361.941 89.2689 361.744 88.8523L361.662 88.6793L361.643 88.489C361.534 87.4194 361.608 86.3577 361.688 85.3918C361.696 85.2913 361.704 85.192 361.713 85.0937C361.78 84.2961 361.841 83.5684 361.828 82.8585C361.815 82.8421 361.8 82.8272 361.784 82.8142C361.742 82.7803 361.691 82.76 361.638 82.755C361.585 82.75 361.531 82.7604 361.482 82.7862L360.962 81.8004L361.482 82.7863C361.439 82.8091 361.402 82.8432 361.374 82.8859C361.236 83.1718 361.113 83.4647 361.005 83.7636L361.004 83.7677C360.201 85.9697 358.695 88.7114 356.61 90.4243C355.554 91.2921 354.296 91.9392 352.867 92.0526C351.42 92.1675 349.933 91.7242 348.46 90.6477L348.418 90.6165L348.378 90.5814C347.123 89.4671 346.87 88.0263 346.886 86.762C346.894 86.1374 346.968 85.5106 347.036 84.9536L347.05 84.845C347.116 84.3114 347.173 83.8486 347.188 83.4177L347.191 83.3234L347.21 83.2311C347.249 83.0434 347.276 82.8613 347.284 82.6962C347.292 82.5273 347.279 82.4112 347.26 82.3408C347.256 82.3264 347.252 82.3156 347.249 82.3078C347.233 82.3018 347.204 82.2938 347.159 82.2873L347.144 82.2852L347.13 82.2826C347.111 82.2795 347.098 82.278 347.088 82.2773C347.044 82.3172 346.943 82.4351 346.798 82.7354C346.643 83.0561 346.492 83.4603 346.296 83.9879L346.295 83.991C346.107 84.4992 345.887 85.0932 345.61 85.7142C345.051 86.9671 344.245 88.3687 342.898 89.6113C341.55 90.8541 339.713 91.8899 337.16 92.4976C336.423 92.7101 335.643 92.729 334.897 92.5519C334.14 92.3722 333.443 91.9973 332.875 91.4645L332.775 91.3706L332.701 91.2554C331.484 89.367 330.857 87.1548 330.901 84.9036L330.903 84.7861L330.93 84.6716C330.951 84.5809 330.939 84.4867 330.897 84.4065C330.855 84.3266 330.787 84.2663 330.707 84.2348C330.627 84.2033 330.537 84.2017 330.455 84.2314C330.389 84.2549 330.33 84.2973 330.286 84.354C329.37 86.7361 327.976 88.9041 326.188 90.7213L326.162 90.7479L326.134 90.7726C324.647 92.0957 322.688 92.2494 321.055 91.7475C319.447 91.2533 317.95 90.0641 317.364 88.4033C317.113 87.7624 317.131 87.0674 317.171 86.5446C317.189 86.3081 317.216 86.0661 317.24 85.8476C317.245 85.8089 317.249 85.771 317.253 85.734C317.282 85.4762 317.304 85.252 317.313 85.0459C317.333 84.5982 317.275 84.4315 317.246 84.3831L317.245 84.3819C317.242 84.3762 317.236 84.3673 317.207 84.351C317.172 84.3321 317.094 84.2982 316.944 84.2743C316.867 84.29 316.794 84.3232 316.73 84.3722C316.646 84.4369 316.582 84.5264 316.547 84.6295L316.513 84.7312L316.46 84.8245C315.698 86.1683 314.869 87.4724 313.975 88.7317L313.963 88.7488L313.95 88.7655C313.284 89.634 312.476 90.649 311.502 91.4768C310.519 92.3126 309.31 93.008 307.833 93.1598L307.79 93.1642L307.747 93.1653C306.587 93.1942 305.443 92.8999 304.44 92.3149C303.438 91.7299 302.618 90.8776 302.069 89.853L302.044 89.8049L302.023 89.7545C301.444 88.3603 301.266 86.8301 301.509 85.3381L301.512 85.3147L301.517 85.2916C301.613 84.8265 301.604 84.4249 301.523 84.1966C301.49 84.1019 301.459 84.0789 301.455 84.0761C301.451 84.073 301.44 84.0646 301.412 84.0552C301.383 84.0454 301.329 84.0323 301.242 84.0285C301.204 84.0269 301.139 84.0241 300.984 84.1785C300.819 84.3421 300.681 84.5511 300.483 84.8495C300.453 84.8941 300.423 84.9407 300.39 84.9894C299.999 85.5764 299.62 86.1062 299.24 86.6358C299.193 86.7024 299.145 86.7689 299.097 86.8356C298.069 88.2916 296.869 89.6179 295.525 90.7856C294.119 92.1116 292.228 92.9195 290.341 93.0261C288.433 93.134 286.463 92.5214 285.057 90.9164L285.017 90.871L284.983 90.8215C283.666 88.9413 283.015 86.6716 283.132 84.3755C283.117 84.3184 283.089 84.2663 283.051 84.224C283 84.1686 282.934 84.1324 282.862 84.1195C282.79 84.1066 282.715 84.1175 282.648 84.1519C282.581 84.1864 282.526 84.2428 282.491 84.3139L282.486 84.3245L282.481 84.3351C281.678 85.9155 280.634 87.9325 279.234 89.5416C277.822 91.1635 275.93 92.5062 273.431 92.4676L273.381 92.4668L273.331 92.4615C269.595 92.0658 265.763 88.9915 265.603 84.7868L265.601 84.7236L265.606 84.6605C265.641 84.1989 265.633 83.8307 265.559 83.5915C265.537 83.5194 265.516 83.4872 265.509 83.4769L371.021 85.6528ZM265.516 83.4808C265.516 83.4807 265.515 83.4797 265.511 83.4781C265.514 83.4801 265.516 83.481 265.516 83.4808ZM265.442 83.4609C265.372 83.4513 265.3 83.4665 265.238 83.506C265.181 83.5423 265.136 83.5971 265.111 83.6627C264.966 84.233 264.784 84.7935 264.568 85.3407C264.031 86.7777 263.336 88.1499 262.495 89.4312C260.387 92.8599 257.002 94.0164 253.878 93.3511C250.819 92.6996 248.08 90.3193 247.05 86.8543C246.844 86.3604 246.761 85.7966 246.705 85.3505C246.685 85.1943 246.669 85.0482 246.653 84.9094C246.614 84.5715 246.58 84.2772 246.523 83.9879C246.442 83.5798 246.348 83.3962 246.288 83.3249C246.288 83.3247 246.287 83.3244 246.287 83.3239C246.284 83.317 246.266 83.2784 246.12 83.2753C246.046 83.295 246.018 83.324 245.989 83.3598C245.925 83.4393 245.845 83.5951 245.761 83.8974C245.703 84.1039 245.662 84.2981 245.614 84.5261C245.587 84.6537 245.558 84.7918 245.523 84.9486C245.442 85.3052 245.329 85.7464 245.124 86.1555C244.087 89.0405 242.755 91.2302 241.296 92.6695C239.839 94.1081 238.133 94.9021 236.448 94.6287C234.729 94.3499 233.436 93.0313 232.685 91.1346C232.292 90.1422 232.029 88.9557 231.913 87.5856C231.918 88.8971 232.058 90.0817 232.182 90.52L232.201 90.5873L232.211 90.6563C232.375 91.7491 232.862 92.7647 233.606 93.5719C234.339 94.3666 235.288 94.9235 236.335 95.1741C238.153 95.4033 239.828 94.636 241.315 93.2462C242.821 91.8381 244.034 89.8751 244.832 88.024L245.911 85.5199L246.896 88.0629C247.677 90.0805 249.121 91.764 250.986 92.8343C252.844 93.9008 255.01 94.2953 257.126 93.9529C260.03 93.344 262.348 90.8539 263.843 88.0014L264.847 86.0837L265.825 88.0154C266.525 89.398 267.553 90.5833 268.818 91.4664C270.083 92.3495 271.546 92.9034 273.076 93.0791L273.08 93.0796C276.213 93.4507 279.152 91.0315 281.044 88.0992L282.49 85.8585L283.069 88.4615C283.979 92.5484 288.695 94.7934 292.707 93.1841C295.22 92.0277 297.386 90.2208 298.983 87.9469L300.509 85.7742L300.992 88.385C301.152 89.2521 301.484 90.0768 301.967 90.8102C302.45 91.5436 303.075 92.1708 303.804 92.6549C304.532 93.1389 305.35 93.4701 306.209 93.629C307.061 93.7865 307.936 93.7714 308.783 93.5845C311.327 92.901 313.239 90.7735 314.892 88.4308L316.045 86.7952L316.829 88.6368C317.389 89.9538 318.369 91.0425 319.612 91.7327C320.854 92.4227 322.291 92.676 323.695 92.4528L265.442 83.4609ZM347.241 82.2905C347.241 82.2905 347.242 82.2912 347.243 82.2923C347.242 82.2911 347.241 82.2905 347.241 82.2905ZM347.265 82.3141C347.267 82.3159 347.269 82.3167 347.269 82.3167C347.269 82.3166 347.268 82.3157 347.265 82.3141Z" fill="white" fill-opacity="0.22" stroke="white" stroke-width="2.2299"/>
<path d="M594.733 140.626L594.764 140.674C594.77 140.683 594.774 140.694 594.775 140.705C594.777 140.717 594.776 140.729 594.773 140.742C594.769 140.755 594.762 140.767 594.753 140.778C594.751 140.781 594.748 140.783 594.746 140.786C593.496 141.222 592.353 141.6 591.178 141.922L591.146 141.931L591.114 141.942C588.97 142.672 586.637 142.576 584.576 141.675C583.61 141.24 582.671 140.394 582.151 139.457C581.636 138.528 581.617 137.705 582.059 137.059L583.799 134.518L580.836 135.356C579.665 135.687 578.442 135.781 577.238 135.633C576.046 135.487 574.897 135.106 573.857 134.513C572.633 133.699 571.652 132.43 571.166 131.068C570.678 129.7 570.719 128.338 571.366 127.247L572.62 125.131L570.202 125.582C567.169 126.148 563.471 125.398 561.123 123.701C559.966 122.865 559.206 121.853 558.935 120.727C558.669 119.619 558.837 118.233 559.857 116.55L561.329 114.121L558.598 114.9C556.246 115.57 553.781 115.718 551.902 114.465L594.733 140.626ZM594.733 140.626L594.708 140.574C594.65 140.458 594.605 140.429 594.598 140.424C594.59 140.419 594.566 140.405 594.5 140.401C594.338 140.391 594.063 140.456 593.739 140.629C593.002 141.024 592.291 141.222 591.688 141.39L591.653 141.4C591.462 141.453 591.284 141.503 591.106 141.557C589.789 142.018 588.024 142.303 586.367 142.047C584.677 141.786 582.954 140.924 582.136 138.969L582.169 138.951M594.733 140.626L582.169 138.951M582.169 138.951C582.02 138.517 582.013 138.046 582.152 137.608L582.209 137.425L582.324 137.272C583.023 136.344 583.88 135.563 584.646 134.864L584.679 134.833C585.269 134.296 585.806 133.804 586.273 133.282C586.275 133.262 586.274 133.242 586.271 133.222C586.263 133.169 586.24 133.121 586.205 133.082C586.171 133.043 586.125 133.014 586.072 133C586.026 132.988 585.976 132.987 585.927 132.999C585.633 133.115 585.345 133.246 585.064 133.391L585.06 133.393C582.981 134.459 580.022 135.444 577.337 135.284C575.976 135.203 574.617 134.823 573.495 133.938C572.359 133.041 571.571 131.709 571.224 129.924L571.214 129.872L571.209 129.819C571.085 128.552 571.515 127.525 572.126 126.698C572.696 125.926 573.461 125.282 574.091 124.751L574.135 124.713C574.542 124.37 574.894 124.072 575.192 123.772L575.258 123.705L575.335 123.651C575.49 123.54 575.633 123.425 575.751 123.31C575.871 123.192 575.939 123.099 575.973 123.035C575.98 123.023 575.984 123.013 575.987 123.005C575.979 122.99 575.964 122.965 575.936 122.931L575.927 122.92L575.918 122.908C575.907 122.894 575.899 122.884 575.892 122.877C575.869 122.877 575.825 122.88 575.753 122.895C575.411 122.967 574.945 123.193 574.166 123.588L574.128 123.607C572.925 124.216 571.262 125.058 569.185 125.32C567.055 125.587 564.573 125.239 561.711 123.624C561.027 123.28 560.444 122.765 560.018 122.129C559.586 121.485 559.33 120.738 559.276 119.963L559.266 119.826L559.29 119.691C559.679 117.485 560.72 115.443 562.278 113.826L562.359 113.742L562.457 113.676C562.533 113.624 562.587 113.548 562.611 113.462C562.634 113.376 562.625 113.287 562.588 113.21C562.551 113.134 562.488 113.073 562.408 113.039C562.345 113.012 562.274 113.003 562.204 113.014C559.921 114.136 557.432 114.776 554.894 114.894L554.857 114.895L554.82 114.895C552.835 114.854 551.298 113.639 550.443 112.165C549.602 110.714 549.313 108.829 550.01 107.217C550.191 106.753 550.49 106.376 550.767 106.081C551.045 105.787 551.362 105.512 551.629 105.282L551.648 105.265C551.909 105.04 552.124 104.854 552.304 104.67C552.484 104.485 552.577 104.354 552.621 104.265C552.653 104.198 552.647 104.18 552.646 104.177C552.646 104.176 552.646 104.176 552.646 104.176C552.644 104.162 552.626 104.077 552.5 103.917C552.434 103.877 552.359 103.852 552.28 103.845C552.175 103.835 552.068 103.857 551.974 103.909L551.879 103.96L551.777 103.992C550.31 104.459 548.82 104.851 547.314 105.166L547.293 105.17L547.272 105.174C546.197 105.357 544.918 105.552 543.645 105.498C542.36 105.443 541.004 105.132 539.82 104.242L539.786 104.216L539.753 104.188C538.885 103.423 538.248 102.432 537.911 101.324C537.575 100.217 537.552 99.0378 537.845 97.9165L537.859 97.8637L537.878 97.8125C538.399 96.4002 539.306 95.1605 540.495 94.2337L540.514 94.2192L540.533 94.2055C540.918 93.9307 541.183 93.6313 541.278 93.4106C541.317 93.3202 541.31 93.2831 541.31 93.2787L541.31 93.2786C541.309 93.274 541.306 93.2602 541.292 93.2348C541.278 93.2083 541.248 93.1627 541.187 93.1012C541.16 93.0744 541.12 93.036 540.941 93.0361C540.721 93.0363 540.459 93.0946 540.072 93.1897C540.022 93.2021 539.969 93.2151 539.917 93.2277L539.917 93.2277C539.234 93.3918 538.601 93.5215 537.967 93.6512L537.961 93.6525L537.961 93.6525L537.723 93.7012C537.722 93.7014 537.721 93.7017 537.72 93.702C535.981 94.0695 534.206 94.2267 532.433 94.17C530.506 94.1871 528.575 93.4964 527.123 92.2957C525.654 91.0811 524.628 89.2981 524.687 87.171L524.689 87.1106L524.697 87.0508C525.008 84.7832 526.07 82.6826 527.711 81.0823C527.739 81.0315 527.753 80.9752 527.754 80.9189L528.868 80.9268L527.754 80.9189C527.754 80.845 527.73 80.7743 527.687 80.717C527.644 80.6596 527.582 80.6172 527.511 80.5973C527.439 80.5772 527.361 80.5808 527.289 80.6093L527.278 80.6136L527.267 80.6177C525.609 81.2294 523.479 81.9967 521.365 82.2247C519.234 82.4545 516.939 82.1542 515.138 80.4324L515.101 80.3977L515.068 80.3598C512.604 77.5387 511.884 72.6932 514.617 69.5094L514.659 69.4614L514.705 69.4183C515.043 69.1046 515.287 68.8308 515.394 68.6063C515.426 68.5406 515.433 68.5039 515.435 68.4907L582.169 138.951ZM515.437 68.4988C515.438 68.4987 515.437 68.4971 515.436 68.4937C515.437 68.4971 515.437 68.4989 515.437 68.4988ZM515.398 68.4357C515.354 68.3821 515.291 68.3447 515.22 68.3317C515.204 68.3288 515.188 68.3271 515.172 68.3268L512.553 72.1905C512.171 73.6247 512.135 75.1266 512.45 76.5723C512.776 78.0741 513.47 79.4693 514.469 80.634L514.472 80.637C516.51 83.0292 520.295 83.2514 523.664 82.3894L526.248 81.7285L524.904 84.0315C522.802 87.6333 524.728 92.467 528.749 94.007C531.369 94.8637 534.176 95.01 536.883 94.4295L539.479 93.8728L538.059 96.1161C537.589 96.8582 537.273 97.6854 537.129 98.5485C536.986 99.4115 537.018 100.293 537.222 101.14C537.427 101.987 537.801 102.783 538.321 103.48C538.837 104.172 539.486 104.753 540.232 105.19C542.553 106.413 545.391 106.153 548.186 105.56L550.144 105.144L549.467 107.027C548.985 108.369 548.964 109.828 549.405 111.173C549.845 112.519 550.723 113.676 551.9 114.464L515.398 68.4357ZM575.878 122.864C575.878 122.864 575.879 122.864 575.88 122.865C575.878 122.864 575.878 122.863 575.878 122.864ZM575.996 123.026C575.996 123.026 575.996 123.025 575.995 123.022C575.995 123.025 575.996 123.026 575.996 123.026Z" fill="white" fill-opacity="0.22" stroke="white" stroke-width="2.2299"/>
<path d="M167.988 80.4286C167.684 80.3453 167.402 80.196 167.162 79.9916C166.922 79.7871 166.73 79.5323 166.599 79.2454C166.469 78.9584 166.403 78.6462 166.406 78.331C166.41 78.0157 166.483 77.7051 166.62 77.4211C166.108 74.9699 169.417 72.8195 171.372 74.5187C173.732 76.7594 171.086 81.3008 167.988 80.4286Z" fill="white"/>
<path d="M247.011 75.7553C246.707 75.6719 246.425 75.5227 246.185 75.3182C245.945 75.1137 245.753 74.859 245.623 74.572C245.492 74.285 245.426 73.9729 245.43 73.6576C245.433 73.3424 245.506 73.0317 245.643 72.7477C245.132 70.2965 248.44 68.1461 250.395 69.8454C252.756 72.086 250.109 76.6275 247.011 75.7553Z" fill="white"/>
<path d="M266.175 74.4677C265.871 74.3843 265.589 74.2351 265.349 74.0306C265.109 73.8261 264.917 73.5714 264.787 73.2844C264.656 72.9974 264.59 72.6853 264.594 72.37C264.597 72.0548 264.67 71.7441 264.807 71.4601C264.296 69.0089 267.604 66.8585 269.559 68.5578C271.92 70.7985 269.273 75.3399 266.175 74.4677Z" fill="white"/>
<path d="M201.106 78.5517C201.41 78.4683 201.692 78.3191 201.932 78.1146C202.172 77.9101 202.364 77.6554 202.494 77.3684C202.625 77.0814 202.691 76.7693 202.687 76.454C202.684 76.1387 202.611 75.8281 202.474 75.5441C202.985 73.0929 199.677 70.9425 197.722 72.6418C195.361 74.8824 198.008 79.4239 201.106 78.5517Z" fill="white"/>
<path d="M366.633 75.7553C366.328 75.6719 366.046 75.5227 365.806 75.3182C365.567 75.1137 365.374 74.859 365.244 74.572C365.113 74.285 365.047 73.9729 365.051 73.6576C365.054 73.3424 365.127 73.0317 365.264 72.7477C364.753 70.2965 368.061 68.1461 370.016 69.8454C372.377 72.086 369.73 76.6275 366.633 75.7553Z" fill="white"/>
<path d="M389.797 76.476C390.101 76.3926 390.383 76.2434 390.623 76.0389C390.863 75.8344 391.055 75.5797 391.186 75.2927C391.316 75.0057 391.382 74.6936 391.379 74.3783C391.375 74.0631 391.303 73.7524 391.166 73.4684C391.677 71.0172 388.369 68.8668 386.414 70.5661C384.053 72.8068 386.699 77.3482 389.797 76.476Z" fill="white"/>
<path d="M285.547 75.7553C285.851 75.6719 286.133 75.5227 286.373 75.3182C286.613 75.1137 286.805 74.859 286.936 74.572C287.066 74.285 287.132 73.9729 287.129 73.6576C287.125 73.3424 287.053 73.0317 286.916 72.7477C287.427 70.2965 284.119 68.1461 282.164 69.8454C279.803 72.086 282.449 76.6275 285.547 75.7553Z" fill="white"/>
<path d="M408.434 77.7294C408.738 77.646 409.02 77.4968 409.26 77.2923C409.5 77.0879 409.692 76.8331 409.823 76.5461C409.953 76.2592 410.019 75.947 410.015 75.6317C410.012 75.3165 409.939 75.0058 409.802 74.7218C410.314 72.2707 407.005 70.1202 405.05 71.8195C402.689 74.0602 405.336 78.6016 408.434 77.7294Z" fill="white"/>
<path d="M152.891 80.4286C153.195 80.3453 153.477 80.196 153.717 79.9916C153.957 79.7871 154.149 79.5323 154.28 79.2454C154.41 78.9584 154.476 78.6462 154.473 78.331C154.469 78.0157 154.396 77.7051 154.259 77.4211C154.771 74.9699 151.462 72.8195 149.507 74.5187C147.146 76.7594 149.793 81.3008 152.891 80.4286Z" fill="white"/>
<path d="M137.203 82.3827C137.507 82.2994 137.789 82.1501 138.029 81.9457C138.269 81.7412 138.462 81.4864 138.592 81.1995C138.723 80.9125 138.789 80.6003 138.785 80.2851C138.782 79.9698 138.709 79.6592 138.572 79.3752C139.083 76.924 135.775 74.7736 133.82 76.4728C131.459 78.7135 134.106 83.2549 137.203 82.3827Z" fill="white"/>
<path d="M45.762 149.899C46.0661 149.816 46.3481 149.667 46.588 149.462C46.828 149.258 47.0201 149.003 47.1507 148.716C47.2812 148.429 47.3471 148.117 47.3436 147.802C47.3401 147.486 47.2674 147.176 47.1305 146.892C47.6417 144.441 44.3334 142.29 42.3785 143.989C40.0175 146.23 42.6642 150.772 45.762 149.899Z" fill="white"/>
<path d="M24.8356 172.596C24.5316 172.513 24.2496 172.364 24.0096 172.159C23.7696 171.955 23.5776 171.7 23.447 171.413C23.3164 171.126 23.2505 170.814 23.254 170.498C23.2575 170.183 23.3303 169.873 23.4672 169.589C22.9559 167.137 26.2642 164.987 28.2192 166.686C30.5801 168.927 27.9335 173.468 24.8356 172.596Z" fill="white"/>
<path d="M299.859 74.4155C299.555 74.3321 299.273 74.1829 299.033 73.9784C298.793 73.7739 298.601 73.5191 298.47 73.2322C298.34 72.9452 298.274 72.633 298.277 72.3178C298.281 72.0025 298.354 71.6919 298.491 71.4079C297.979 68.9567 301.288 66.8063 303.243 68.5056C305.604 70.7462 302.957 75.2876 299.859 74.4155Z" fill="white"/>
<path d="M221.141 77.3782C220.689 77.0582 220.351 76.6025 220.176 76.0772C219.758 75.5726 219.535 74.9345 219.547 74.2793C219.587 73.7614 219.745 73.2596 220.01 72.8129C220.275 72.3662 220.64 71.9867 221.075 71.7039C221.511 71.421 222.006 71.2424 222.522 71.1821C223.038 71.1217 223.56 71.1811 224.05 71.3558C227.719 73.3437 225.044 79.7316 221.141 77.3782Z" fill="white"/>
<path d="M33.797 161.019C33.3452 160.699 33.0072 160.244 32.8322 159.718C32.4139 159.214 32.1908 158.576 32.2036 157.92C32.2431 157.402 32.4015 156.901 32.6665 156.454C32.9315 156.007 33.296 155.628 33.7316 155.345C34.1672 155.062 34.6622 154.884 35.178 154.823C35.6939 154.763 36.2167 154.822 36.7058 154.997C40.3748 156.985 37.6998 163.373 33.797 161.019Z" fill="white"/>
<path d="M342.828 75.675C342.376 75.3551 342.038 74.8993 341.863 74.3741C341.445 73.8695 341.222 73.2314 341.235 72.5761C341.274 72.0583 341.433 71.5565 341.698 71.1098C341.963 70.6631 342.327 70.2836 342.763 70.0007C343.198 69.7179 343.693 69.5393 344.209 69.4789C344.725 69.4186 345.248 69.478 345.737 69.6526C349.406 71.6406 346.731 78.0285 342.828 75.675Z" fill="white"/>
<path d="M421.02 77.8601C420.568 77.5401 420.23 77.0844 420.055 76.5591C419.637 76.0546 419.413 75.4165 419.426 74.7612C419.466 74.2433 419.624 73.7415 419.889 73.2948C420.154 72.8482 420.519 72.4686 420.954 72.1858C421.39 71.9029 421.885 71.7244 422.401 71.664C422.917 71.6036 423.439 71.6631 423.928 71.8377C427.597 73.8257 424.922 80.2135 421.02 77.8601Z" fill="white"/>
<path d="M443.043 80.3611C442.591 80.0411 442.253 79.5854 442.078 79.0601C441.66 78.5555 441.437 77.9175 441.45 77.2622C441.489 76.7443 441.648 76.2425 441.913 75.7958C442.178 75.3491 442.542 74.9696 442.978 74.6868C443.413 74.4039 443.908 74.2254 444.424 74.165C444.94 74.1046 445.463 74.164 445.952 74.3387C449.621 76.3266 446.946 82.7145 443.043 80.3611Z" fill="white"/>
<path d="M315.367 73.7532C314.915 73.4332 314.578 72.9775 314.403 72.4522C313.984 71.9476 313.761 71.3095 313.774 70.6543C313.813 70.1364 313.972 69.6346 314.237 69.1879C314.502 68.7412 314.866 68.3617 315.302 68.0789C315.737 67.796 316.232 67.6174 316.748 67.5571C317.264 67.4967 317.787 67.5561 318.276 67.7308C321.945 69.7187 319.27 76.1066 315.367 73.7532Z" fill="white"/>
<path d="M512.41 132.198C520.2 132.198 523.924 143.515 531.141 145.577C536.376 147.073 541.626 150.499 546.354 153.159C551.509 156.058 556.082 160.121 560.378 164.11C563.165 166.698 568.722 168.113 570.387 171.444" stroke="white" stroke-width="2.2299" stroke-linecap="round"/>
<path d="M103.891 118.818C140.005 114.304 177.46 111.404 214.048 107.223C229.758 105.427 245.032 101.92 260.876 100.929C275.528 100.013 290.975 97.4657 305.672 99.3931C320.247 101.305 335.272 99.61 349.675 102.565C361.089 104.906 373.704 101.641 385.304 103.209C391.072 103.988 396.889 103.254 402.648 104.101C409.701 105.138 416.282 107.658 423.212 108.957C434.869 111.143 448.666 116.251 458.891 122.386" stroke="white" stroke-width="2.2299" stroke-linecap="round"/>
<path d="M76.192 131.16C77.9998 130.437 58.1232 163.176 57.2135 164.704C53.8914 170.285 49.2943 175.767 47.6992 182.147" stroke="white" stroke-width="2.2299" stroke-linecap="round"/>
<path d="M218.451 120.339C213.781 120.02 208.335 114.718 209.689 109.765C209.785 109.234 209.925 108.465 210.564 108.279C210.621 108.274 210.679 108.284 210.733 108.306C210.786 108.328 210.834 108.362 210.872 108.405C210.91 108.449 210.937 108.501 210.951 108.557C210.966 108.613 210.967 108.671 210.955 108.728C210.893 109.412 210.888 110.101 210.94 110.786C211.048 112.101 211.561 113.35 212.408 114.362C212.059 113.446 211.958 112.455 212.114 111.487C212.269 110.52 212.677 109.611 213.296 108.851C214.536 107.497 216.224 106.638 218.047 106.431C219.871 106.224 221.708 106.683 223.22 107.723C224.472 108.618 225.393 109.902 225.839 111.375C226.285 112.847 226.232 114.426 225.688 115.866C225.144 117.305 224.139 118.524 222.83 119.333C221.521 120.142 219.981 120.496 218.451 120.339ZM219.529 118.152C226.288 117.376 225.232 108.41 218.666 108.541C217.501 108.53 216.373 108.952 215.501 109.724C214.285 111.11 213.836 113.373 215.869 114.254C216.766 114.625 218.317 115.247 219.008 114.257C219.23 113.862 219.24 112.975 218.581 113.063C218.422 113.157 218.245 113.217 218.062 113.241C217.878 113.264 217.692 113.25 217.514 113.2C217.336 113.15 217.17 113.065 217.026 112.95C216.882 112.834 216.762 112.691 216.674 112.528C216.137 111.012 218.275 110.379 219.402 110.735C219.941 110.948 220.414 111.298 220.776 111.751C221.137 112.204 221.373 112.744 221.46 113.317C221.547 113.89 221.483 114.476 221.273 115.016C221.063 115.556 220.715 116.031 220.264 116.395C219.408 116.913 218.426 117.183 217.425 117.175C216.425 117.167 215.447 116.881 214.6 116.349C215.952 117.557 217.716 118.202 219.529 118.152Z" fill="white"/>
<path d="M504.488 83.9792C504.037 83.6593 503.699 83.2035 503.524 82.6783C503.105 82.1737 502.882 81.5356 502.895 80.8803C502.935 80.3625 503.093 79.8607 503.358 79.414C503.623 78.9673 503.987 78.5878 504.423 78.3049C504.859 78.0221 505.354 77.8435 505.869 77.7831C506.385 77.7228 506.908 77.7822 507.397 77.9568C511.066 79.9448 508.391 86.3327 504.488 83.9792Z" fill="white"/>
<path d="M562.188 138.986C561.736 138.666 561.398 138.21 561.223 137.685C560.805 137.18 560.581 136.542 560.594 135.887C560.634 135.369 560.792 134.867 561.057 134.42C561.322 133.974 561.687 133.594 562.122 133.311C562.558 133.028 563.053 132.85 563.569 132.789C564.084 132.729 564.607 132.789 565.096 132.963C568.765 134.951 566.09 141.339 562.188 138.986Z" fill="white"/>
<path d="M548.593 128.594C548.791 128.84 549.04 129.04 549.323 129.179C549.606 129.317 549.916 129.392 550.231 129.398C550.546 129.404 550.859 129.34 551.147 129.212C551.435 129.083 551.691 128.893 551.897 128.655C554.35 128.15 555.008 124.259 552.672 123.141C549.677 121.865 546.562 126.098 548.593 128.594Z" fill="white"/>
<path d="M575.429 149.481C575.627 149.727 575.876 149.926 576.159 150.065C576.442 150.204 576.752 150.279 577.067 150.285C577.382 150.291 577.695 150.227 577.983 150.099C578.271 149.97 578.527 149.78 578.733 149.541C581.186 149.036 581.844 145.146 579.508 144.027C576.513 142.751 573.398 146.985 575.429 149.481Z" fill="white"/>
<path d="M551.771 175.458C547.102 175.139 541.655 169.838 543.009 164.884C543.105 164.353 543.245 163.585 543.884 163.398C543.942 163.394 544 163.403 544.053 163.425C544.106 163.447 544.154 163.481 544.192 163.525C544.23 163.569 544.257 163.62 544.272 163.676C544.286 163.732 544.287 163.791 544.275 163.847C544.214 164.532 544.209 165.22 544.26 165.906C544.368 167.221 544.881 168.47 545.728 169.482C545.379 168.566 545.278 167.574 545.434 166.607C545.59 165.64 545.998 164.73 546.616 163.97C547.856 162.617 549.544 161.758 551.368 161.55C553.191 161.343 555.029 161.802 556.54 162.843C557.792 163.738 558.713 165.022 559.159 166.494C559.606 167.967 559.553 169.546 559.008 170.985C558.464 172.425 557.459 173.644 556.15 174.453C554.841 175.262 553.302 175.615 551.771 175.458ZM552.849 173.272C559.608 172.496 558.552 163.53 551.986 163.66C550.821 163.65 549.693 164.071 548.821 164.844C547.605 166.23 547.156 168.493 549.189 169.373C550.086 169.744 551.637 170.366 552.328 169.376C552.551 168.982 552.561 168.095 551.902 168.183C551.742 168.276 551.565 168.337 551.382 168.36C551.199 168.384 551.012 168.37 550.835 168.32C550.657 168.27 550.49 168.185 550.346 168.069C550.202 167.954 550.082 167.81 549.995 167.648C549.457 166.132 551.595 165.499 552.722 165.855C553.261 166.068 553.735 166.418 554.096 166.871C554.457 167.324 554.693 167.864 554.78 168.437C554.868 169.01 554.803 169.595 554.593 170.135C554.383 170.675 554.036 171.151 553.584 171.514C552.729 172.033 551.746 172.303 550.746 172.294C549.745 172.286 548.767 172 547.92 171.468C549.273 172.676 551.036 173.321 552.849 173.272Z" fill="white"/>
<path d="M521.173 149.43C523.738 145.515 531.027 143.362 534.683 146.968C535.099 147.313 535.701 147.811 535.55 148.459C535.526 148.512 535.49 148.557 535.444 148.593C535.399 148.629 535.346 148.654 535.289 148.666C535.233 148.677 535.174 148.676 535.118 148.661C535.062 148.646 535.011 148.618 534.967 148.58C534.401 148.191 533.803 147.85 533.18 147.559C531.98 147.009 530.64 146.845 529.343 147.088C530.313 147.232 531.227 147.629 531.994 148.239C532.761 148.849 533.354 149.65 533.714 150.561C534.286 152.305 534.209 154.197 533.497 155.889C532.784 157.58 531.484 158.957 529.836 159.766C528.443 160.419 526.873 160.593 525.37 160.261C523.868 159.929 522.517 159.11 521.529 157.93C520.54 156.751 519.969 155.278 519.905 153.74C519.841 152.203 520.287 150.687 521.173 149.43ZM522.552 151.44C519.918 157.714 528.252 161.184 531.354 155.395C531.934 154.384 532.119 153.195 531.872 152.056C531.259 150.317 529.506 148.817 527.743 150.159C526.98 150.759 525.678 151.807 526.203 152.894C526.438 153.281 527.206 153.724 527.452 153.106C527.449 152.922 527.483 152.738 527.552 152.567C527.622 152.395 527.725 152.239 527.855 152.109C527.986 151.978 528.142 151.875 528.313 151.806C528.485 151.737 528.668 151.703 528.853 151.706C530.438 151.98 529.942 154.154 529.08 154.962C528.631 155.327 528.093 155.569 527.522 155.662C526.95 155.755 526.363 155.696 525.821 155.492C525.279 155.288 524.8 154.945 524.432 154.497C524.064 154.05 523.82 153.513 523.724 152.942C523.691 151.942 523.937 150.953 524.434 150.085C524.931 149.217 525.659 148.504 526.538 148.026C524.822 148.614 523.396 149.835 522.552 151.44Z" fill="white"/>
</svg>
