<svg width="881" height="576" viewBox="0 0 881 576" fill="none" xmlns="http://www.w3.org/2000/svg">
<path d="M484.147 306.229C480.312 306.027 476.481 305.719 472.661 305.305C469.494 304.795 466.286 304.461 463.073 304.127L463.066 304.127L463.059 304.126C463.051 304.125 463.044 304.124 463.036 304.123C462.133 304.03 461.229 303.936 460.326 303.838C460.127 303.792 459.926 303.759 459.723 303.737C459.117 303.634 458.504 303.559 457.886 303.484C457.881 303.484 457.875 303.483 457.87 303.482C457.859 303.481 457.848 303.48 457.838 303.479C457.697 303.461 457.556 303.444 457.415 303.427C457.385 303.423 457.355 303.419 457.324 303.415C457.265 303.408 457.205 303.4 457.146 303.393C457.132 303.391 457.118 303.389 457.105 303.387L455.653 303.192C455.204 303.062 454.753 302.937 454.3 302.812C453.557 302.606 452.812 302.399 452.071 302.17L448.023 301.041L447.351 300.545L446.608 299.983C446.183 299.7 445.742 299.44 445.289 299.205C445.142 299.118 444.979 299.064 444.809 299.047L443.032 297.858C442.752 297.681 442.425 297.591 442.094 297.599C441.763 297.606 441.442 297.711 441.17 297.901L440.594 297.574C439.418 296.705 438.222 295.869 437.013 295.092C436.65 294.873 436.219 294.794 435.802 294.871C435.384 294.948 435.009 295.175 434.748 295.509C434.494 295.814 434.336 296.188 434.295 296.583C434.269 296.984 434.366 297.383 434.575 297.726L432.569 296.841C432.073 296.607 431.585 296.34 431.087 296.067L431.085 296.066L431.082 296.065L431.081 296.064L431.079 296.063L431.077 296.062L431.075 296.061L431.074 296.06C430.92 295.976 430.765 295.891 430.608 295.806L429.625 295.276C429.73 295.031 429.778 294.765 429.765 294.499C429.759 294.128 429.611 293.774 429.352 293.51C429.093 293.245 428.741 293.091 428.371 293.078L426.944 293.207C426.669 293.246 426.399 293.312 426.138 293.404C425.875 293.481 425.625 293.598 425.397 293.751C425.154 293.887 424.947 294.079 424.793 294.311C424.639 294.544 424.544 294.81 424.515 295.087C424.485 295.364 424.523 295.644 424.625 295.903C424.726 296.163 424.889 296.394 425.098 296.577C425.857 297.134 426.659 297.628 427.497 298.055C428.144 298.447 428.81 298.807 429.503 299.161C429.702 299.263 429.9 299.367 430.099 299.472L430.1 299.473C430.589 299.731 431.081 299.991 431.605 300.215L433.184 300.93C433.294 300.979 433.401 301.033 433.506 301.087C433.669 301.169 433.828 301.25 433.993 301.31L434.265 301.408L434.421 301.37L434.603 301.326L434.875 301.424L435.542 301.674L436.39 301.99L436.636 302.095L436.817 302.05L437.063 302.155L436.907 302.193L437.179 302.292L437.393 302.377L437.814 302.522C437.983 302.676 438.165 302.815 438.357 302.94L438.719 303.181C438.703 303.4 438.756 303.618 438.871 303.805C438.982 303.977 439.122 304.129 439.284 304.254C439.564 304.471 439.86 304.666 440.17 304.836C440.772 305.201 441.383 305.539 442.004 305.881L442.005 305.882C442.517 306.165 443.036 306.451 443.559 306.759L444.064 307.021L445.945 308.295L448.686 310.156C446.144 312.102 443.867 314.371 441.914 316.908C443.595 319.097 442.239 322.03 441.074 324.197L484.147 306.229Z" fill="#646B23"/>
<path fill-rule="evenodd" clip-rule="evenodd" d="M140.586 335.679C125.328 337.681 145.096 345.825 95.1533 343.637C45.2105 341.449 37.019 299.955 89.3297 265.959C141.64 231.964 97.9134 259.918 102.325 257.052C106.188 254.542 110.059 252.027 113.797 249.287C120.509 243.884 126.978 238.082 133.458 232.271L134.097 231.699L134.802 231.066C140.51 225.719 145.944 220.05 151.404 214.354L151.405 214.352C152.757 212.942 154.111 211.53 155.47 210.121C157.518 208.08 159.569 205.977 161.64 203.854C175.239 189.911 189.703 175.08 209.731 171.204C222.142 168.774 234.296 165.181 246.032 160.471C248.618 159.476 251.183 158.401 253.753 157.324C260.761 154.386 267.797 151.437 275.34 150.074C280.765 149.049 286.255 148.555 291.749 148.061C299.232 147.388 306.72 146.715 314.053 144.697C319.449 143.297 324.797 141.655 330.154 140.011C339.599 137.112 349.071 134.204 358.883 132.592C365.424 131.525 372.014 130.79 378.613 130.054C382.562 129.613 386.515 129.172 390.462 128.66C407.733 126.11 413.738 99.7316 429.801 106.976L483.64 116.01C492.515 117.501 496.251 122.201 496.251 122.201C517.238 135.775 517.872 180.583 515.948 207.908C514.842 214.18 513.905 220.475 512.968 226.771L512.967 226.776C511.986 233.363 511.006 239.95 509.831 246.51C508.918 252.253 507.596 257.939 506.274 263.623C505.446 267.183 504.618 270.741 503.892 274.312C502.899 281.844 501.444 289.307 499.535 296.66C499.404 297.072 499.288 297.529 499.168 297.999L499.167 298.002C498.975 298.758 498.773 299.55 498.486 300.248L484.147 306.229C480.312 306.027 476.481 305.719 472.661 305.305C469.494 304.795 466.286 304.461 463.073 304.127L463.066 304.127L463.059 304.126L463.036 304.123C462.133 304.03 461.229 303.936 460.326 303.838C460.127 303.792 459.926 303.759 459.723 303.737C459.117 303.634 458.504 303.559 457.886 303.484L457.87 303.482L457.838 303.479C457.697 303.461 457.556 303.444 457.415 303.427L457.324 303.415C457.265 303.408 457.205 303.4 457.146 303.393L457.105 303.387L455.653 303.192C455.204 303.062 454.753 302.937 454.3 302.812C453.557 302.606 452.812 302.399 452.071 302.17L448.023 301.041L447.351 300.545L446.608 299.983C446.183 299.7 445.742 299.44 445.289 299.205C445.142 299.118 444.979 299.064 444.809 299.047L443.032 297.858C442.752 297.681 442.425 297.591 442.094 297.599C441.763 297.606 441.442 297.711 441.17 297.901L440.594 297.574C439.418 296.705 438.222 295.869 437.013 295.092C436.65 294.873 436.219 294.794 435.802 294.871C435.384 294.948 435.009 295.175 434.748 295.509C434.494 295.814 434.336 296.188 434.295 296.583C434.269 296.984 434.366 297.383 434.575 297.726L432.569 296.841C432.073 296.607 431.585 296.34 431.087 296.067L431.085 296.066L431.082 296.065L431.081 296.064L431.079 296.063L431.077 296.062L431.075 296.061L431.074 296.06C430.92 295.976 430.765 295.891 430.608 295.806L429.625 295.276C429.73 295.031 429.778 294.765 429.765 294.499C429.759 294.128 429.611 293.774 429.352 293.51C429.093 293.245 428.741 293.091 428.371 293.078L426.944 293.207C426.669 293.246 426.399 293.312 426.138 293.404C425.875 293.481 425.625 293.598 425.397 293.751C425.154 293.887 424.947 294.079 424.793 294.311C424.639 294.544 424.544 294.81 424.515 295.087C424.485 295.364 424.523 295.644 424.625 295.903C424.726 296.163 424.889 296.394 425.098 296.577C425.857 297.134 426.659 297.628 427.497 298.055C428.144 298.447 428.81 298.807 429.503 299.161C429.702 299.263 429.9 299.367 430.099 299.472L430.1 299.473C430.589 299.731 431.081 299.991 431.605 300.215L433.184 300.93C433.294 300.979 433.401 301.033 433.506 301.087C433.669 301.169 433.828 301.25 433.993 301.31L434.265 301.408L434.421 301.37L434.603 301.326L434.875 301.424L435.542 301.674L436.39 301.99L436.636 302.095L436.817 302.05L437.063 302.155L436.907 302.193L437.179 302.292L437.393 302.377L437.814 302.522C437.983 302.676 438.165 302.815 438.357 302.94L438.719 303.181C438.703 303.4 438.756 303.618 438.871 303.805C438.982 303.977 439.122 304.129 439.284 304.254C439.564 304.471 439.86 304.666 440.17 304.836C440.772 305.201 441.383 305.539 442.004 305.881L442.005 305.882C442.517 306.165 443.036 306.451 443.559 306.759L444.064 307.021L445.945 308.295L448.686 310.156C446.144 312.102 443.867 314.371 441.914 316.908C443.595 319.097 442.239 322.03 441.074 324.197L423.364 331.584C420.599 331.787 417.831 331.991 415.061 332.045C407.106 332.052 399.156 331.637 391.245 330.8C363.994 328.91 336.418 327.486 309.206 328.229C296.888 328.385 284.616 329.303 272.36 330.219L272.359 330.219C264.327 330.82 256.301 331.42 248.275 331.805C238.253 332.088 228.227 332.068 218.201 332.049C208.396 332.03 198.59 332.012 188.785 332.275C172.671 332.582 156.583 333.719 140.586 335.679Z" fill="#646B23"/>
<path fill-rule="evenodd" clip-rule="evenodd" d="M106.134 311.318C105.899 311.358 105.665 311.398 105.431 311.44C101.706 312.974 97.8583 316.181 94.0572 319.348C90.7306 322.121 87.4395 324.864 84.2967 326.43C80.0875 328.511 75.3395 328.498 70.5995 328.485C65.6754 328.472 60.7598 328.459 56.4656 330.792C54.317 332.016 51.7731 333.972 49.4373 335.768C48.3227 336.625 47.2555 337.445 46.3012 338.132C44.0832 339.658 36.3259 346.28 38.0853 348.652C34.3197 350.491 32.9905 353.055 31.6742 355.595C30.33 358.189 28.9991 360.757 25.1008 362.5C17.9834 365.407 11.4207 369.501 5.69543 374.605C3.07027 377.046 1.26212 380.228 0.513979 383.724C-0.917913 400.471 18.0772 407.438 30.6185 408.24C29.1585 410.305 28.4393 412.798 28.5758 415.322C28.7123 417.845 29.6968 420.252 31.3717 422.158C39.8857 430.536 53.992 431.363 65.7257 432.05C67.977 432.182 70.1409 432.309 72.1612 432.483C73.7438 432.586 75.3255 432.692 76.9063 432.797C85.9703 433.402 95.0074 434.004 104.038 434.122C107.421 434.979 110.838 435.715 114.282 436.327C119.4 437.304 125.077 438.605 131.017 439.967C146.958 443.621 164.797 447.711 178.824 447.137C184.823 446.89 191.148 445.702 197.512 444.409C199.373 444.342 201.231 444.149 203.073 443.828C205.599 443.62 208.101 443.29 210.604 442.96C214.519 442.444 218.437 441.928 222.451 441.879C239.504 441.34 257.893 443.087 276.078 444.814C290.067 446.143 303.934 447.461 316.979 447.717C321.877 447.812 330.223 447.602 335.099 447.322C335.955 447.237 335.235 445.123 334.193 442.579C333.833 434.14 332.738 425.469 327.674 419.197C325.438 416.45 322.625 414.422 319.804 412.389C318.199 411.232 316.592 410.074 315.088 408.781C304.27 399.379 299.842 383.343 300.205 368.463C300.514 355.771 303.845 343.495 307.152 331.306C307.723 329.203 308.292 327.103 308.846 325.005C308.965 324.547 309.091 324.065 309.223 323.559C312.933 309.383 321.424 276.934 305.143 268.211C296.665 263.701 288.242 271.371 281.804 278.089C274.022 280.872 266.52 284.324 259.035 287.767C259.015 287.777 258.995 287.786 258.975 287.795C258.901 284.583 258.869 281.38 258.9 278.213C258.93 274.508 259.011 270.799 259.092 267.089C259.248 259.985 259.404 252.875 259.197 245.773C260.696 245.091 260.506 243.923 258.946 243.575L258.869 243.367C258.128 245.263 256.761 244.856 255.03 244.341C253.953 244.021 252.735 243.659 251.438 243.782C249.505 244.038 247.66 244.026 245.827 244.013C243.416 243.997 241.023 243.98 238.471 244.575C226.069 247.709 213.892 252.001 201.851 256.246C198.108 257.565 194.379 258.88 190.659 260.154C188.919 260.829 187.2 261.488 185.501 262.139C173.432 266.766 162.37 271.007 151.573 278.185C148.224 280.492 144.589 283.48 141.024 286.41C138.396 288.571 135.806 290.701 133.396 292.503C128.383 296.221 123.348 299.593 118.328 302.956C114.247 305.69 110.175 308.417 106.134 311.318Z" fill="#979841"/>
<path d="M855.752 346.562C855.532 345.482 854.96 344.505 854.125 343.785C852.29 341.852 850.521 339.861 848.565 338.025C841.645 331.715 834.41 325.702 826.923 320.006C814.242 310.39 801.049 301.469 787.402 293.281C779.256 288.474 770.883 284.132 762.718 279.39C744.742 268.726 727.62 256.685 711.505 243.375C707.793 240.263 703.973 237.229 700.377 233.99C696.543 230.243 693.067 226.175 689.463 222.251C684.406 216.406 678.47 211.318 673.167 205.636C670.576 202.93 668.163 200.011 665.372 197.476L664.904 197.142C663.908 196.12 662.888 195.133 661.808 194.155C657.396 190.087 652.624 186.428 647.551 183.222C639.064 178.133 629.909 174.252 620.35 171.692C610.609 169.64 600.753 169.178 591.019 167.445C579.869 165.904 568.577 163.793 558.337 158.331C546.186 152.292 535.44 143.911 524.581 135.762C518.394 131.357 512.355 126.745 506.207 122.212C499.033 117.104 492.327 111.338 485.014 106.314C480.543 103.35 475.854 100.727 470.987 98.47C464.469 94.9349 457.595 92.0984 450.481 90.0077C442.421 87.873 434.042 87.2159 425.748 88.0683C413.837 89.1553 402.062 91.4077 390.591 94.7932C386.375 95.5788 382.176 96.6364 378.156 97.5874C374.6 98.2079 371.153 99.3429 367.923 100.957C363.624 101.97 359.298 102.912 355.022 103.967C345.517 106.314 336.195 108.844 326.735 111.275C322.216 112.34 317.989 113.143 313.336 114.14C312.846 114.202 312.37 114.349 311.93 114.575L309.615 114.781C309.561 114.738 309.496 114.711 309.427 114.703C309.359 114.696 309.289 114.709 309.227 114.74C309.175 114.728 309.122 114.727 309.069 114.737C309.017 114.747 308.968 114.768 308.924 114.798C308.88 114.829 308.843 114.868 308.816 114.913C308.788 114.958 308.77 115.009 308.763 115.062C308.746 115.181 308.765 115.303 308.819 115.411C308.872 115.519 308.957 115.609 309.063 115.667C309.607 115.942 310.205 116.091 310.814 116.105C310.952 116.092 311.09 116.094 311.227 116.111L311.255 116.366C311.399 116.89 311.738 117.339 312.202 117.621C312.667 117.903 313.221 117.997 313.753 117.883C312.858 121.633 312.419 125.551 311.518 129.349C310.524 134.412 309.221 139.36 308.275 144.431C307.327 150.311 306.045 156.11 304.922 161.943C303.573 168.973 302.822 176.116 301.738 183.178C299.86 193.775 297.713 204.311 296.011 214.955C294.821 222.202 293.249 229.362 291.549 236.481C289.855 244.18 288.383 251.932 286.608 259.599C285.446 264.569 284.331 269.546 283.152 274.504C282.721 276.208 282.309 277.925 281.943 279.65C281.876 279.815 281.857 279.996 281.889 280.172C281.921 280.348 282.003 280.51 282.125 280.641C281.979 281.147 281.972 281.683 282.106 282.192C282.24 282.701 282.51 283.165 282.886 283.533C284.544 284.505 286.356 285.186 288.243 285.545C289.745 286.04 291.252 286.564 292.779 287.024C298.726 288.647 304.664 290.576 310.575 292.434C318.804 294.924 327.139 296.862 335.353 299.629C341.522 301.748 347.572 304.254 353.765 306.155C359.958 308.057 366.041 309.672 372.059 311.711C392.011 318.42 411.919 325.412 431.446 333.49C453.206 342.586 475.945 349.135 499.209 353.007C505.843 353.995 512.421 355.466 519.07 356.544C525.719 357.621 532.184 358.333 538.778 359.085C546.738 359.972 554.648 361.295 562.536 362.393C578.713 364.43 595.02 366.43 611.571 367.611C619.706 368.29 627.873 368.525 636.034 368.314C644.643 368.253 653.286 368.767 661.939 368.607C669.33 368.385 676.589 367.286 684.044 366.718C689.823 366.34 695.627 366.111 701.435 365.545C711.938 364.51 722.532 365.549 733.175 365.344C743.299 365.023 753.391 364.043 763.387 362.411C766.666 361.806 769.858 360.797 772.889 359.409C775.611 357.9 778.472 356.658 781.432 355.698C789.513 353.774 798.056 354.685 806.384 353.955C813.517 353.471 820.476 351.949 827.577 350.999C831.748 350.495 835.922 350.281 840.245 350.224C843.269 350.158 846.291 350.168 849.296 349.983C851.892 350.003 855.779 349.715 855.752 346.562Z" fill="#32494F"/>
<path fill-rule="evenodd" clip-rule="evenodd" d="M336.219 295.495L338.743 313.248C339.269 316.586 339.542 319.939 339.823 323.405C339.953 324.999 340.084 326.617 340.244 328.268C340.382 329.706 340.531 331.145 340.681 332.585C341.076 336.395 341.471 340.213 341.672 344.045L342.288 355.883C342.31 357.066 342.369 358.259 342.428 359.457C342.507 361.046 342.586 362.645 342.579 364.245L342.637 373.517C342.641 375.215 342.644 376.912 342.67 378.615C342.783 378.934 342.713 379.207 342.643 379.481C343.043 384.09 343.488 388.711 343.95 393.361C344.26 396.381 344.562 399.403 344.863 402.426C345.292 406.726 345.721 411.027 346.175 415.327L344.546 414.208C345.082 417.617 345.635 421.247 346.035 424.427C346.116 425.07 346.198 425.713 346.28 426.358C346.603 428.904 346.928 431.466 347.22 434.035C349.855 436.388 352.631 438.577 355.533 440.59C363.407 445.919 371.373 451.076 379.598 455.598C386.093 458.822 392.75 461.709 399.542 464.247C417.145 469.944 435.375 473.479 453.832 474.773C460.699 475.022 467.567 475.174 474.424 475.178C479.306 476.699 484.299 477.835 489.359 478.575C497.284 480.543 505.323 482.027 513.429 483.018C515.227 483.248 517.022 483.494 518.817 483.741C523.885 484.436 528.947 485.131 534.035 485.462C535.906 485.573 537.779 485.675 539.653 485.777C543.494 485.986 547.339 486.195 551.173 486.488C558.035 485.524 564.981 484.703 571.892 484.212C582.278 483.387 592.678 483.065 603.075 482.743C620.46 482.205 637.835 481.667 655.116 478.78C682.497 474.226 709.513 467.695 735.951 459.241C744.646 456.318 753.327 453.231 762.029 450.137C785.08 441.941 808.28 433.691 832.298 428.293L832.467 419.079C817.883 407.462 804.019 394.77 790.05 381.981C788.76 380.799 787.468 379.617 786.175 378.434C733.228 328.531 674.441 281.476 605.758 249.661C556.018 227.281 510.806 210.903 460.269 212.555C459.992 212.536 459.714 212.516 459.434 212.496C458.681 212.441 457.922 212.385 457.166 212.369L455.901 212.676C455.382 212.811 454.863 212.945 454.327 213.051C453.425 213.255 452.538 213.454 451.651 213.653C449.276 214.186 446.91 214.717 444.315 215.344C440.751 216.204 437.078 217.303 433.719 218.312C432.262 218.75 430.802 219.168 429.342 219.586C427.435 220.132 425.529 220.678 423.636 221.266C421.316 222.047 418.998 222.76 416.673 223.476C414.853 224.036 413.028 224.597 411.195 225.194C406.877 226.534 402.492 227.648 398.057 228.531C394.546 229.195 390.999 229.65 387.435 229.893C382.017 230.305 376.577 230.326 371.149 230.336C365.227 230.442 359.353 230.272 353.445 229.852C348.297 229.527 343.195 228.672 338.222 227.302C334.17 226.136 330.191 224.733 326.304 223.099C326.757 226.171 327.299 229.46 327.839 232.288C328.378 235.115 328.894 237.937 329.37 240.724C329.847 243.511 330.301 246.196 330.686 249.057C330.87 250.423 331.093 251.787 331.318 253.163C331.563 254.668 331.811 256.186 332.012 257.732C332.397 260.689 332.82 263.972 333.126 266.667C333.432 269.363 333.705 271.807 334.016 274.77C334.223 276.745 334.45 278.724 334.677 280.704C334.791 281.695 334.905 282.686 335.016 283.677C335.453 287.601 335.854 291.54 336.219 295.495ZM371.149 230.336C370.977 230.336 370.806 230.336 370.634 230.337L371.207 230.335C371.187 230.335 371.168 230.336 371.149 230.336ZM360.785 433.205C360.788 433.339 360.802 433.473 360.828 433.604C359.869 432.996 358.858 432.302 358.041 431.706L360.785 433.205Z" fill="#9D9B36"/>
</svg>
