<svg width="888" height="576" viewBox="0 0 888 576" fill="none" xmlns="http://www.w3.org/2000/svg">
<path d="M491.147 306.229C487.312 306.027 483.481 305.719 479.661 305.305C476.494 304.795 473.286 304.461 470.073 304.127L470.066 304.127L470.059 304.126C470.051 304.125 470.044 304.124 470.036 304.123C469.133 304.03 468.229 303.936 467.326 303.838C467.127 303.792 466.926 303.759 466.723 303.737C466.117 303.634 465.504 303.559 464.886 303.484C464.881 303.484 464.875 303.483 464.87 303.482C464.859 303.481 464.848 303.48 464.838 303.479C464.697 303.461 464.556 303.444 464.415 303.427C464.385 303.423 464.355 303.419 464.324 303.415C464.265 303.408 464.205 303.4 464.146 303.393C464.132 303.391 464.118 303.389 464.105 303.387L462.653 303.192C462.204 303.062 461.753 302.937 461.3 302.812C460.557 302.606 459.812 302.399 459.071 302.17L455.023 301.041L454.351 300.545L453.608 299.983C453.183 299.7 452.742 299.44 452.289 299.205C452.142 299.118 451.979 299.064 451.809 299.047L450.032 297.858C449.752 297.681 449.425 297.591 449.094 297.599C448.763 297.606 448.442 297.711 448.17 297.901L447.594 297.574C446.418 296.705 445.222 295.869 444.013 295.092C443.65 294.873 443.219 294.794 442.802 294.871C442.384 294.948 442.009 295.175 441.748 295.509C441.494 295.814 441.336 296.188 441.295 296.583C441.269 296.984 441.366 297.383 441.575 297.726L439.569 296.841C439.073 296.607 438.585 296.34 438.087 296.067L438.085 296.066L438.082 296.065L438.081 296.064L438.079 296.063L438.077 296.062L438.075 296.061L438.074 296.06C437.92 295.976 437.765 295.891 437.608 295.806L436.625 295.276C436.73 295.031 436.778 294.765 436.765 294.499C436.759 294.128 436.611 293.774 436.352 293.51C436.093 293.245 435.741 293.091 435.371 293.078L433.944 293.207C433.669 293.246 433.399 293.312 433.138 293.404C432.875 293.481 432.625 293.598 432.397 293.751C432.154 293.887 431.947 294.079 431.793 294.311C431.639 294.544 431.544 294.81 431.515 295.087C431.485 295.364 431.523 295.644 431.625 295.903C431.726 296.163 431.889 296.394 432.098 296.577C432.857 297.134 433.659 297.628 434.497 298.055C435.144 298.447 435.81 298.807 436.503 299.161C436.702 299.263 436.9 299.367 437.099 299.472L437.1 299.473C437.589 299.731 438.081 299.991 438.605 300.215L440.184 300.93C440.294 300.979 440.401 301.033 440.506 301.087C440.669 301.169 440.828 301.25 440.993 301.31L441.265 301.408L441.421 301.37L441.603 301.326L441.875 301.424L442.542 301.674L443.39 301.99L443.636 302.095L443.817 302.05L444.063 302.155L443.907 302.193L444.179 302.292L444.393 302.377L444.814 302.522C444.983 302.676 445.165 302.815 445.357 302.94L445.719 303.181C445.703 303.4 445.756 303.618 445.871 303.805C445.982 303.977 446.122 304.129 446.284 304.254C446.564 304.471 446.86 304.666 447.17 304.836C447.772 305.201 448.383 305.539 449.004 305.881L449.005 305.882C449.517 306.165 450.036 306.451 450.559 306.759L451.064 307.021L452.945 308.295L455.686 310.156C453.144 312.102 450.867 314.371 448.914 316.908C450.595 319.097 449.239 322.03 448.074 324.197L491.147 306.229Z" fill="#646B23"/>
<path fill-rule="evenodd" clip-rule="evenodd" d="M147.586 335.679C132.328 337.681 152.096 345.825 102.153 343.637C52.2105 341.449 44.019 299.955 96.3297 265.959C148.64 231.964 104.913 259.918 109.325 257.052C113.188 254.542 117.059 252.027 120.797 249.287C127.509 243.884 133.978 238.082 140.458 232.271L141.097 231.699L141.802 231.066C147.51 225.719 152.944 220.05 158.404 214.354L158.405 214.352C159.757 212.942 161.111 211.53 162.47 210.121C164.518 208.08 166.569 205.977 168.64 203.854C182.239 189.911 196.703 175.08 216.731 171.204C229.142 168.774 241.296 165.181 253.032 160.471C255.618 159.476 258.183 158.401 260.753 157.324C267.761 154.386 274.797 151.437 282.34 150.074C287.765 149.049 293.255 148.555 298.749 148.061C306.232 147.388 313.72 146.715 321.053 144.697C326.449 143.297 331.797 141.655 337.154 140.011C346.599 137.112 356.071 134.204 365.883 132.592C372.424 131.525 379.014 130.79 385.613 130.054C389.562 129.613 393.515 129.172 397.462 128.66C414.733 126.11 420.738 99.7316 436.801 106.976L490.64 116.01C499.515 117.501 503.251 122.201 503.251 122.201C524.238 135.775 524.872 180.583 522.948 207.908C521.842 214.18 520.905 220.475 519.968 226.771L519.967 226.776C518.986 233.363 518.006 239.95 516.831 246.51C515.918 252.253 514.596 257.939 513.274 263.623C512.446 267.183 511.618 270.741 510.892 274.312C509.899 281.844 508.444 289.307 506.535 296.66C506.404 297.072 506.288 297.529 506.168 297.999L506.167 298.002C505.975 298.758 505.773 299.55 505.486 300.248L491.147 306.229C487.312 306.027 483.481 305.719 479.661 305.305C476.494 304.795 473.286 304.461 470.073 304.127L470.066 304.127L470.059 304.126L470.036 304.123C469.133 304.03 468.229 303.936 467.326 303.838C467.127 303.792 466.926 303.759 466.723 303.737C466.117 303.634 465.504 303.559 464.886 303.484L464.87 303.482L464.838 303.479C464.697 303.461 464.556 303.444 464.415 303.427L464.324 303.415C464.265 303.408 464.205 303.4 464.146 303.393L464.105 303.387L462.653 303.192C462.204 303.062 461.753 302.937 461.3 302.812C460.557 302.606 459.812 302.399 459.071 302.17L455.023 301.041L454.351 300.545L453.608 299.983C453.183 299.7 452.742 299.44 452.289 299.205C452.142 299.118 451.979 299.064 451.809 299.047L450.032 297.858C449.752 297.681 449.425 297.591 449.094 297.599C448.763 297.606 448.442 297.711 448.17 297.901L447.594 297.574C446.418 296.705 445.222 295.869 444.013 295.092C443.65 294.873 443.219 294.794 442.802 294.871C442.384 294.948 442.009 295.175 441.748 295.509C441.494 295.814 441.336 296.188 441.295 296.583C441.269 296.984 441.366 297.383 441.575 297.726L439.569 296.841C439.073 296.607 438.585 296.34 438.087 296.067L438.085 296.066L438.082 296.065L438.081 296.064L438.079 296.063L438.077 296.062L438.075 296.061L438.074 296.06C437.92 295.976 437.765 295.891 437.608 295.806L436.625 295.276C436.73 295.031 436.778 294.765 436.765 294.499C436.759 294.128 436.611 293.774 436.352 293.51C436.093 293.245 435.741 293.091 435.371 293.078L433.944 293.207C433.669 293.246 433.399 293.312 433.138 293.404C432.875 293.481 432.625 293.598 432.397 293.751C432.154 293.887 431.947 294.079 431.793 294.311C431.639 294.544 431.544 294.81 431.515 295.087C431.485 295.364 431.523 295.644 431.625 295.903C431.726 296.163 431.889 296.394 432.098 296.577C432.857 297.134 433.659 297.628 434.497 298.055C435.144 298.447 435.81 298.807 436.503 299.161C436.702 299.263 436.9 299.367 437.099 299.472L437.1 299.473C437.589 299.731 438.081 299.991 438.605 300.215L440.184 300.93C440.294 300.979 440.401 301.033 440.506 301.087C440.669 301.169 440.828 301.25 440.993 301.31L441.265 301.408L441.421 301.37L441.603 301.326L441.875 301.424L442.542 301.674L443.39 301.99L443.636 302.095L443.817 302.05L444.063 302.155L443.907 302.193L444.179 302.292L444.393 302.377L444.814 302.522C444.983 302.676 445.165 302.815 445.357 302.94L445.719 303.181C445.703 303.4 445.756 303.618 445.871 303.805C445.982 303.977 446.122 304.129 446.284 304.254C446.564 304.471 446.86 304.666 447.17 304.836C447.772 305.201 448.383 305.539 449.004 305.881L449.005 305.882C449.517 306.165 450.036 306.451 450.559 306.759L451.064 307.021L452.945 308.295L455.686 310.156C453.144 312.102 450.867 314.371 448.914 316.908C450.595 319.097 449.239 322.03 448.074 324.197L430.364 331.584C427.599 331.787 424.831 331.991 422.061 332.045C414.106 332.052 406.156 331.637 398.245 330.8C370.994 328.91 343.418 327.486 316.206 328.229C303.888 328.385 291.616 329.303 279.36 330.219L279.359 330.219C271.327 330.82 263.301 331.42 255.275 331.805C245.253 332.088 235.227 332.068 225.201 332.049C215.396 332.03 205.59 332.012 195.785 332.275C179.671 332.582 163.583 333.719 147.586 335.679Z" fill="#646B23"/>
<path d="M341.196 442.578C340.835 434.14 339.741 425.469 334.676 419.196C331.169 414.887 326.237 412.346 322.09 408.78C311.272 399.379 306.845 383.343 307.207 368.462C307.57 353.582 312.086 339.272 315.848 325.004C319.298 311.728 329.007 277.244 312.145 268.211C303.667 263.701 295.244 271.371 288.807 278.089C270.685 284.569 254.086 294.674 235.68 299.865C229.893 301.671 224.026 303.246 218.17 304.762C208.061 300.642 197.202 298.668 186.29 298.967C168.24 299.16 149.958 304.189 133.141 309.372C132.085 308.898 130.923 308.708 129.771 308.82C128.62 308.933 127.519 309.344 126.579 310.013C121.833 310.132 117.104 310.609 112.433 311.44C105.448 314.317 98.033 323.073 91.2991 326.43C82.7173 330.672 71.896 326.212 63.468 330.792C60.2943 332.6 56.2579 336.005 53.3036 338.132C51.0856 339.658 43.3283 346.28 45.0876 348.652C37.4768 352.368 39.819 359.051 32.1032 362.5C24.9858 365.407 18.4231 369.501 12.6978 374.605C10.0727 377.046 8.26451 380.227 7.51637 383.723C6.08448 400.471 25.0795 407.438 37.6209 408.239C36.1609 410.305 35.4417 412.798 35.5782 415.322C35.7147 417.845 36.6992 420.252 38.374 422.158C48.5216 432.143 66.6131 431.402 79.1636 432.483C92.3169 433.339 105.406 434.368 118.493 434.099C137.688 434.081 156.856 432.76 175.864 430.147L179.275 429.712C180.38 433.566 184.503 433.483 187.628 433.735C187.708 434.089 187.808 434.438 187.928 434.781C187.693 435.664 187.639 436.586 187.769 437.491C187.9 438.396 188.212 439.267 188.687 440.051C189.162 440.836 189.791 441.517 190.536 442.057C191.28 442.596 192.126 442.981 193.023 443.19C198.601 444.597 204.413 444.814 210.075 443.827C216.554 443.295 222.874 441.96 229.453 441.879C259.625 440.925 293.978 447.127 323.982 447.717C328.88 447.812 337.226 447.602 342.101 447.321C342.957 447.236 342.238 445.123 341.196 442.578Z" fill="#979841"/>
<path d="M77.1048 399.469C76.1335 409.304 75.561 420.44 83.9239 424.29C95.7613 429.976 108.331 434.025 121.285 436.327C140.136 439.926 166.572 447.924 185.826 447.137C198.887 446.599 213.49 441.599 226.684 440.775C235.433 440.191 240.776 436.91 249.416 438.051C251.722 438.336 255.776 435.371 258.003 435.947C259.28 436.32 266.144 440.852 267.429 440.379C267.779 440.25 267.401 434.677 267.662 434.449C270.686 431.784 268.803 423.13 268.599 419.835C268.396 416.54 267.894 413.302 267.644 410.024C267.317 405.721 267.103 401.412 267.001 397.097C266.888 393.4 266.915 389.652 266.811 385.978C266.773 381.042 266.798 376.136 266.707 371.273C266.858 352.209 267.456 333.139 266.908 314.122C266.881 313.184 266.831 312.254 266.804 311.316C266.559 305.457 266.322 299.62 266.156 293.758C265.969 288.561 265.852 283.339 265.902 278.212C265.989 267.413 266.515 256.583 266.2 245.773C267.699 245.09 267.508 243.923 265.948 243.575C265.948 243.575 265.897 243.436 265.872 243.367C264.669 246.442 261.822 243.46 258.44 243.782C253.965 244.375 249.967 243.528 245.473 244.575C229.217 248.683 213.347 254.781 197.662 260.153C183.553 265.631 170.892 269.996 158.575 278.185C152.757 282.193 146.076 288.256 140.398 292.503C129.98 300.23 119.465 306.466 109.19 314.219C104.238 317.988 96.0385 324.32 91.1077 328.002C89.7874 328.883 93.5521 335.66 92.4286 335.994C91.1196 338.318 90.2101 340.841 89.7376 343.46C87.7978 351.887 88.4268 360.449 87.3538 368.926C86.2095 375.284 84.2739 381.479 81.5917 387.368C79.9296 390.645 78.5191 394.041 77.3723 397.528C77.2284 398.167 77.139 398.816 77.1048 399.469Z" fill="#979841"/>
<path d="M862.752 346.562C862.532 345.482 861.96 344.505 861.125 343.785C859.29 341.852 857.521 339.861 855.565 338.025C848.645 331.715 841.41 325.702 833.923 320.006C821.242 310.39 808.049 301.469 794.402 293.281C786.256 288.474 777.883 284.132 769.718 279.39C751.742 268.726 734.62 256.685 718.505 243.375C714.793 240.263 710.973 237.229 707.377 233.99C703.543 230.243 700.067 226.175 696.463 222.251C691.406 216.406 685.47 211.318 680.167 205.636C677.576 202.93 675.163 200.011 672.372 197.476L671.904 197.142C670.908 196.12 669.888 195.133 668.808 194.155C664.396 190.087 659.624 186.428 654.551 183.222C646.064 178.133 636.909 174.252 627.35 171.692C617.609 169.64 607.753 169.178 598.019 167.445C586.869 165.904 575.577 163.793 565.337 158.331C553.186 152.292 542.44 143.911 531.581 135.762C525.394 131.357 519.355 126.745 513.207 122.212C506.033 117.104 499.327 111.338 492.014 106.314C487.543 103.35 482.854 100.727 477.987 98.47C471.469 94.9349 464.595 92.0984 457.481 90.0077C449.421 87.873 441.042 87.2159 432.748 88.0683C420.837 89.1553 409.062 91.4077 397.591 94.7932C393.375 95.5788 389.176 96.6364 385.156 97.5874C381.6 98.2079 378.153 99.3429 374.923 100.957C370.624 101.97 366.298 102.912 362.022 103.967C352.517 106.314 343.195 108.844 333.735 111.275C329.216 112.34 324.989 113.143 320.336 114.14C319.846 114.202 319.37 114.349 318.93 114.575L316.615 114.781C316.561 114.738 316.496 114.711 316.427 114.703C316.359 114.696 316.289 114.709 316.227 114.74C316.175 114.728 316.122 114.727 316.069 114.737C316.017 114.747 315.968 114.768 315.924 114.798C315.88 114.829 315.843 114.868 315.816 114.913C315.788 114.958 315.77 115.009 315.763 115.062C315.746 115.181 315.765 115.303 315.819 115.411C315.872 115.519 315.957 115.609 316.063 115.667C316.607 115.942 317.205 116.091 317.814 116.105C317.952 116.092 318.09 116.094 318.227 116.111L318.255 116.366C318.399 116.89 318.738 117.339 319.202 117.621C319.667 117.903 320.221 117.997 320.753 117.883C319.858 121.633 319.419 125.551 318.518 129.349C317.524 134.412 316.221 139.36 315.275 144.431C314.327 150.311 313.045 156.11 311.922 161.943C310.573 168.973 309.822 176.116 308.738 183.178C306.86 193.775 304.713 204.311 303.011 214.955C301.821 222.202 300.249 229.362 298.549 236.481C296.855 244.18 295.383 251.932 293.608 259.599C292.446 264.569 291.331 269.546 290.152 274.504C289.721 276.208 289.309 277.925 288.943 279.65C288.876 279.815 288.857 279.996 288.889 280.172C288.921 280.348 289.003 280.51 289.125 280.641C288.979 281.147 288.972 281.683 289.106 282.192C289.24 282.701 289.51 283.165 289.886 283.533C291.544 284.505 293.356 285.186 295.243 285.545C296.745 286.04 298.252 286.564 299.779 287.024C305.726 288.647 311.664 290.576 317.575 292.434C325.804 294.924 334.139 296.862 342.353 299.629C348.522 301.748 354.572 304.254 360.765 306.155C366.958 308.057 373.041 309.672 379.059 311.711C399.011 318.42 418.919 325.412 438.446 333.49C460.206 342.586 482.945 349.135 506.209 353.007C512.843 353.995 519.421 355.466 526.07 356.544C532.719 357.621 539.184 358.333 545.778 359.085C553.738 359.972 561.648 361.295 569.536 362.393C585.713 364.43 602.02 366.43 618.571 367.611C626.706 368.29 634.873 368.525 643.034 368.314C651.643 368.253 660.286 368.767 668.939 368.607C676.33 368.385 683.589 367.286 691.044 366.718C696.823 366.34 702.627 366.111 708.435 365.545C718.938 364.51 729.532 365.549 740.175 365.344C750.299 365.023 760.391 364.043 770.387 362.411C773.666 361.806 776.858 360.797 779.889 359.409C782.611 357.9 785.472 356.658 788.432 355.698C796.513 353.774 805.056 354.685 813.384 353.955C820.517 353.471 827.476 351.949 834.577 350.999C838.748 350.495 842.922 350.281 847.245 350.224C850.269 350.158 853.291 350.168 856.296 349.983C858.892 350.003 862.779 349.715 862.752 346.562Z" fill="#32494F"/>
<path fill-rule="evenodd" clip-rule="evenodd" d="M343.222 295.495L345.747 313.248C346.273 316.586 346.546 319.939 346.827 323.405C346.957 324.999 347.088 326.617 347.247 328.268C347.386 329.706 347.535 331.145 347.684 332.585C348.079 336.395 348.475 340.213 348.676 344.045L349.292 355.883C349.313 357.066 349.373 358.259 349.432 359.457C349.511 361.046 349.59 362.645 349.583 364.245L349.641 373.517C349.645 375.215 349.648 376.912 349.674 378.615C349.786 378.934 349.717 379.207 349.647 379.481C350.047 384.09 350.492 388.711 350.954 393.361C351.264 396.381 351.566 399.403 351.867 402.426C352.296 406.726 352.725 411.027 353.179 415.327L351.55 414.208C352.086 417.617 352.639 421.247 353.039 424.427C353.12 425.07 353.202 425.713 353.284 426.358C353.607 428.904 353.932 431.466 354.224 434.035C356.859 436.388 359.635 438.577 362.537 440.59C370.411 445.919 378.377 451.076 386.602 455.598C393.097 458.822 399.754 461.709 406.546 464.247C424.149 469.944 442.379 473.479 460.836 474.773C467.703 475.022 474.571 475.174 481.428 475.178C486.31 476.699 491.303 477.835 496.363 478.575C504.288 480.543 512.327 482.027 520.433 483.018C522.231 483.248 524.026 483.494 525.82 483.741C530.889 484.436 535.951 485.131 541.039 485.462C542.91 485.573 544.783 485.675 546.657 485.777C550.498 485.986 554.343 486.195 558.177 486.488C565.039 485.524 571.985 484.703 578.896 484.212C589.282 483.387 599.682 483.065 610.079 482.743C627.464 482.205 644.839 481.667 662.119 478.78C689.501 474.226 716.517 467.695 742.955 459.241C751.65 456.318 760.331 453.231 769.033 450.137C792.084 441.941 815.284 433.691 839.302 428.293L839.471 419.079C824.887 407.462 811.023 394.77 797.054 381.981C795.763 380.799 794.472 379.617 793.178 378.434C740.232 328.531 681.445 281.476 612.762 249.661C563.022 227.281 517.81 210.903 467.273 212.555C466.996 212.536 466.718 212.516 466.438 212.496C465.685 212.441 464.926 212.385 464.17 212.369L462.904 212.676C462.386 212.811 461.867 212.945 461.331 213.051C460.429 213.255 459.541 213.454 458.655 213.653C456.28 214.186 453.914 214.717 451.319 215.344C447.755 216.204 444.082 217.303 440.723 218.312C439.266 218.75 437.806 219.168 436.346 219.586C434.439 220.132 432.533 220.678 430.639 221.266C428.32 222.047 426.002 222.76 423.677 223.476C421.857 224.036 420.032 224.597 418.199 225.194C413.881 226.534 409.496 227.648 405.061 228.531C401.55 229.195 398.003 229.65 394.439 229.893C389.021 230.305 383.581 230.326 378.152 230.336C372.231 230.442 366.357 230.272 360.449 229.852C355.301 229.527 350.199 228.672 345.226 227.302C341.174 226.136 337.195 224.733 333.308 223.099C333.761 226.171 334.303 229.46 334.842 232.288C335.381 235.115 335.898 237.937 336.374 240.724C336.851 243.511 337.305 246.196 337.69 249.057C337.874 250.423 338.097 251.787 338.321 253.163C338.567 254.668 338.815 256.186 339.016 257.732C339.401 260.689 339.824 263.972 340.13 266.667C340.436 269.363 340.709 271.807 341.02 274.77C341.227 276.745 341.454 278.724 341.681 280.704C341.795 281.695 341.909 282.686 342.02 283.677C342.457 287.601 342.858 291.54 343.222 295.495ZM378.152 230.336C377.981 230.336 377.81 230.336 377.638 230.337L378.21 230.335C378.191 230.335 378.172 230.336 378.152 230.336ZM367.789 433.205C367.792 433.339 367.806 433.473 367.832 433.604C366.873 432.996 365.862 432.302 365.045 431.706L367.789 433.205Z" fill="#9D9B36"/>
</svg>
