<svg width="112" height="67" viewBox="0 0 112 67" fill="none" xmlns="http://www.w3.org/2000/svg">
<path d="M51.4116 64.2649C50.8548 64.4203 50.2621 64.3861 49.7269 64.1677C38.4905 59.0932 27.5924 52.9906 19.1527 43.7464C10.6421 34.2816 4.67517 22.81 1.8117 10.4078C1.53047 7.52073 -0.760214 3.12647 2.18382 1.10701C3.83167 0.122399 5.77082 0.949724 7.49566 1.26796C13.135 2.36776 18.616 4.1635 23.8128 6.61393C34.5883 11.6913 43.1552 20.5064 47.9229 31.4224C49.434 35.3593 50.5262 39.4445 51.1812 43.6103C52.8076 38.3935 55.4017 33.5295 58.828 29.2727C60.0469 27.8124 61.37 26.4424 62.7869 25.1733L63.2257 24.7815C69.3845 18.8466 77.5596 15.4599 86.1112 15.3008C91.5853 14.7526 97.1099 15.0021 102.512 16.0415C104.997 16.7315 108.092 17.0063 110.061 18.7949C112.905 20.1581 111.283 26.9837 110.603 29.3985C107.651 39.5929 102.005 48.8026 94.2583 56.0576C87.3587 62.4878 77.9976 65.0496 68.9145 66.0005C63.2476 66.3419 57.5623 65.7878 52.068 64.3587C51.8473 64.3428 51.6279 64.3115 51.4116 64.2649Z" fill="#194128"/>
</svg>
