<svg width="32" height="32" viewBox="0 0 32 32" fill="none" xmlns="http://www.w3.org/2000/svg">
<path fill-rule="evenodd" clip-rule="evenodd" d="M6.43925 6.58841C7.38237 6.68815 8.13274 7.68426 7.76555 8.42355C7.64105 8.68154 7.4062 8.75827 7.16925 8.91223C7.21197 9.09692 7.20278 9.28983 7.14271 9.46963C7.08264 9.64943 6.97403 9.80911 6.82888 9.93103L6.75533 10.0072C6.88982 9.9242 6.82995 10.2536 6.82946 10.6177C6.83001 10.8447 6.81742 11.0454 6.82637 11.2918C6.88118 13.0929 7.61103 13.7749 7.93537 15.5712C8.25971 17.3676 8.20608 16.9399 8.8514 18.1856C9.61863 19.6803 9.54519 20.9387 11.8229 21.9078C12.5148 22.3083 13.2811 22.5634 14.0749 22.6574C14.9023 22.6866 15.7174 22.8671 16.4797 23.1899C16.6484 23.2803 16.7877 23.4011 16.9427 23.5009C17.2793 23.7016 17.6398 23.8594 18.0156 23.9706C18.2274 24.0037 18.4198 24.113 18.5568 24.2779C18.6135 23.9658 18.6582 23.95 18.9855 23.8244C19.069 23.7918 19.2214 23.7419 19.307 23.6978C19.3927 23.6536 19.4468 23.5858 19.668 23.5186C20.0352 23.3704 20.0289 23.0767 20.351 23.0456C20.427 23.0644 20.5 23.0938 20.568 23.1328C20.5921 23.3309 20.5898 23.5312 20.5612 23.7286C20.5133 23.9197 20.4897 24.116 20.4908 24.3129C21.2726 24.2818 22.9213 22.9634 23.3978 22.4112L24.7621 20.7187C24.9848 20.4129 25.1524 20.115 25.3673 19.8197C25.7266 19.2879 25.4997 20.0109 25.9888 18.9296C26.2582 18.3337 26.1001 18.3169 26.0012 17.6124C26.3568 17.4468 26.6692 17.2012 26.9138 16.8946C27.3194 16.3712 27.3357 16.2488 27.1932 15.7513L27.7722 15.2594C27.9298 15.1149 27.8652 15.1091 27.9592 14.9531C28.0921 14.7145 28.9847 14.1722 28.1183 13.2565C28.3688 12.7647 29.1654 12.6527 29.1679 11.5546C29.1715 11.1075 29.4211 10.9499 29.6181 10.6215C29.7132 10.4596 29.7746 10.3514 29.8734 10.2022C30.3215 9.54326 30.4224 9.57951 30.107 8.62066C29.9557 8.1394 30.0555 7.85304 29.9183 7.32659C29.8359 6.96349 29.6149 6.64695 29.3024 6.44449C28.9877 6.17236 29.3554 5.46302 28.5883 5.67588L28.4407 5.99534C28.2773 5.74473 28.3204 5.37642 28.0918 5.09009C27.4875 4.27576 26.2297 5.21741 25.739 5.68349C25.5587 5.8753 25.3936 6.08084 25.2452 6.29826C24.8922 6.71869 24.58 7.17173 24.3127 7.65128C24.1725 7.86461 24.0285 8.19668 23.8898 8.3685C23.6712 8.36302 23.4523 8.37111 23.2347 8.39273L22.4571 8.53204C21.5293 8.66503 20.6218 8.91327 19.7555 9.27101C19.5774 9.36402 19.394 9.48593 19.2159 9.57894C18.8917 9.75288 18.8576 9.5795 18.5177 9.77446C17.9896 10.0845 17.6907 10.5138 16.8858 10.672C15.877 10.835 16.961 10.7513 15.5886 11.0751C14.8916 11.3481 14.1532 11.5006 13.4051 11.5261C12.8082 11.5251 12.9521 11.5214 12.4094 11.0586C11.5608 10.3073 10.864 9.21348 10.1698 8.53209C9.38654 7.75471 8.46951 7.12491 7.46275 6.67291C7.28358 6.64035 6.5942 6.16282 6.43925 6.58841Z" fill="white"/>
<path fill-rule="evenodd" clip-rule="evenodd" d="M22.13 11.7861C21.9288 12.2033 21.2174 12.4382 21.4439 12.9331C21.6704 13.4281 22.3765 13.2877 22.8326 13.4721C22.6571 13.7148 21.9526 13.945 21.8806 14.3738C21.784 14.9055 22.4397 15.1082 22.6589 15.4466C21.9129 15.8623 21.1057 16.157 20.2673 16.3195C18.4725 16.7994 16.8401 16.9445 15.2722 16.0447C14.9417 15.8592 15.0735 15.7578 14.856 15.7063C14.8063 15.6915 14.7537 15.6886 14.7027 15.698C14.6516 15.7073 14.6035 15.7287 14.5622 15.7602C14.521 15.7917 14.4878 15.8325 14.4653 15.8793C14.4429 15.9261 14.4318 15.9776 14.4331 16.0295C14.4463 16.5155 15.763 17.0235 16.2259 17.1374C17.5541 17.4675 18.9486 17.4146 20.2479 16.9847C20.8752 16.8181 23.6835 16.2478 23.3345 15.2768C23.1905 14.8865 22.7886 14.7 22.5873 14.4604C22.8038 14.3206 23.046 14.1378 23.2703 13.9875C23.4946 13.8372 23.8067 13.6969 23.7578 13.3417C23.701 12.8657 22.6723 12.7444 22.2357 12.683C22.2483 12.6136 22.2357 12.683 22.294 12.5921L22.5346 12.3194C23.0478 11.6962 22.6695 11.1498 22.1956 11.1293C21.3066 11.0932 17.0987 12.1375 15.9612 12.5816C15.6008 12.7251 15.2493 12.9179 14.9094 13.0472C14.5694 13.1765 14.0745 13.2716 14.0388 13.5995C14.0333 13.642 14.0365 13.6851 14.0481 13.7263C14.0597 13.7675 14.0795 13.8059 14.1064 13.8392C14.1333 13.8725 14.1666 13.9001 14.2044 13.9202C14.2421 13.9403 14.2836 13.9526 14.3262 13.9562C14.4823 13.9846 16.6338 13.0203 17.0383 12.8968C18.6988 12.3889 20.3977 12.0168 22.1184 11.784L22.13 11.7861ZM26.6339 7.40432C26.6182 7.75371 26.3319 8.44202 26.4769 8.69526C26.7123 9.10821 27.3396 8.61322 27.7022 8.52387C27.4984 9.18538 27.6749 9.26522 28.4031 9.13486C28.3277 9.37047 28.2187 9.59397 28.0795 9.79847C27.964 10.0402 27.8641 10.1952 27.7417 10.4416C27.6593 10.5998 27.4476 10.9434 27.5479 11.1467C27.7019 11.4493 28.024 11.287 28.17 11.009C28.3714 10.5544 28.6031 10.1138 28.8634 9.69017C29.1487 9.20466 29.2442 8.48169 28.4004 8.52538C28.352 7.54339 27.8697 7.83189 27.193 8.07311C27.2003 7.70427 27.5255 6.73643 26.8388 6.73702C26.0438 6.74182 25.1938 7.87101 25.135 8.06331C25.1121 8.1243 25.1092 8.19101 25.1269 8.25371C25.1446 8.31641 25.1819 8.37182 25.2333 8.41184C25.2847 8.45186 25.3475 8.47439 25.4127 8.47614C25.4778 8.4779 25.5418 8.45879 25.5953 8.4216C25.755 8.33122 25.8595 8.05169 26.024 7.90246C26.1871 7.69253 26.3956 7.52223 26.6339 7.40432Z" fill="#CCCCCC"/>
<path fill-rule="evenodd" clip-rule="evenodd" d="M4.98314 8.62256C4.99153 8.3793 5.08715 8.37877 4.96839 8.17807C4.90609 8.0475 4.83297 7.92237 4.74978 7.804C4.46029 7.85289 4.5223 8.0373 4.22228 7.88128C4.196 7.76307 4.15765 7.80983 4.13085 7.79302C4.16924 8.14032 3.68011 8.49921 3.87927 8.81601C4.07843 9.13282 4.61484 8.71086 4.98314 8.62256Z" fill="#FAB319"/>
<path fill-rule="evenodd" clip-rule="evenodd" d="M19.066 27.5588C18.5595 27.0608 19.0359 26.0488 19.2108 25.3164C19.2738 24.9696 19.3159 24.7384 19.4666 24.5986C19.5427 25.3893 19.5063 26.1868 19.3586 26.9672L19.0681 27.5473L19.066 27.5588ZM20.4885 24.3963L20.4969 24.35C20.4958 24.1531 20.5195 23.9568 20.5673 23.7658C20.5959 23.5683 20.5982 23.368 20.5741 23.17C20.5062 23.1309 20.4331 23.1016 20.3571 23.0828C20.0103 23.0854 20.0166 23.3791 19.6741 23.5557C19.4529 23.623 19.4891 23.6534 19.3131 23.7349C19.1371 23.8163 19.0751 23.829 18.9916 23.8615C18.6643 23.9871 18.6138 24.0019 18.5629 24.315C18.3538 24.8034 18.2102 25.3174 18.1359 25.8435C18.0855 26.1209 18.0093 26.3757 17.9342 26.6248C17.9006 26.8731 17.783 27.1024 17.6011 27.2747C17.21 27.6225 16.7982 27.9465 16.3681 28.2447C16.1923 28.4266 16.036 28.6263 15.9016 28.8406C15.6867 29.1359 15.6999 29.2278 15.9873 29.4532C16.4249 29.4432 16.5468 29.1668 16.8799 28.9766C17.259 28.8186 17.6596 28.7184 18.0684 28.6791C18.2008 29.4614 18.7252 28.9418 19.0898 28.7752L19.1649 28.7888C19.394 28.9081 19.4949 28.8786 19.7807 28.6858C20.6691 28.0352 20.5241 28.7015 20.9366 28.8958C20.987 28.9248 21.0448 28.9384 21.1029 28.9351C21.161 28.9317 21.2168 28.9115 21.2636 28.877C21.3104 28.8425 21.3461 28.795 21.3664 28.7405C21.3867 28.686 21.3907 28.6268 21.3779 28.5701C21.3306 28.239 20.6796 27.8461 20.6086 27.4809C20.5655 27.2046 20.5444 26.9252 20.5455 26.6456C20.5638 25.8548 20.5208 26.2888 20.4829 25.9058C20.445 25.5228 20.5648 24.9296 20.4885 24.3963Z" fill="#FAB319"/>
<path fill-rule="evenodd" clip-rule="evenodd" d="M4.25863 7.86347C4.55865 8.01949 4.49664 7.83507 4.78614 7.78618C4.86932 7.90455 4.94245 8.02968 5.00474 8.16025C5.1235 8.36095 5.02788 8.36149 5.01949 8.60475C5.00598 8.83971 5.04148 9.07491 5.12372 9.29542C5.20596 9.51593 5.33314 9.71693 5.49721 9.88566C5.6684 10.048 5.8897 10.1473 6.12477 10.1672C6.35984 10.1871 6.5947 10.1265 6.79077 9.99535L6.86433 9.91916C7.00948 9.79724 7.11809 9.63756 7.17816 9.45776C7.23823 9.27796 7.24741 9.08505 7.2047 8.90036C7.44269 8.74062 7.67755 8.66389 7.801 8.41168C8.16819 7.67239 7.41781 6.67628 6.47469 6.57654L6.39956 6.56289C6.29604 6.44258 6.70427 6.20033 6.82195 6.1441C7.07782 6.01745 7.44298 6.01216 7.5617 5.8188C7.68043 5.62544 7.40876 5.31337 7.24851 5.24246C6.98842 5.12952 6.70261 5.25669 6.38263 5.27616C6.22074 4.52431 5.75998 4.79284 5.60923 5.26099C5.20203 5.23476 5.26296 5.03089 4.92411 5.4171C4.66455 5.33411 4.45596 5.33203 4.39819 5.64991C4.37719 5.7655 4.38981 5.89317 4.37668 5.99825C4.32732 6.2699 4.35883 6.09651 4.20647 6.27779C4.05318 6.75298 4.05212 7.26418 4.20345 7.74C4.20345 7.74 4.23235 7.74526 4.25863 7.86347Z" fill="#E30613"/>
<path fill-rule="evenodd" clip-rule="evenodd" d="M5.83584 7.49935C5.95041 7.78884 6.52677 7.67267 6.3917 7.26602C6.37638 7.22952 6.35402 7.1964 6.3259 7.16854C6.29778 7.14069 6.26444 7.11864 6.2278 7.10366C6.19116 7.08869 6.15192 7.08108 6.11234 7.08127C6.07276 7.08146 6.0336 7.08944 5.9971 7.10476C5.9606 7.12008 5.92748 7.14243 5.89963 7.17056C5.87177 7.19868 5.84972 7.23201 5.83475 7.26865C5.81977 7.3053 5.81216 7.34453 5.81235 7.38411C5.81253 7.42369 5.82052 7.46285 5.83584 7.49935Z" fill="#1D1D1B"/>
</svg>
