<svg width="171" height="203" viewBox="0 0 171 203" fill="none" xmlns="http://www.w3.org/2000/svg">
<path d="M103.893 20.7735C103.867 20.7762 103.841 20.7693 103.82 20.754C103.865 20.7577 103.91 20.7696 103.951 20.7892L103.893 20.7735ZM102.919 196.229C103.042 196.583 103.292 196.879 103.621 197.059C103.881 197.182 104.172 197.223 104.456 197.175C104.739 197.128 105.001 196.995 105.207 196.794C105.413 196.593 105.552 196.334 105.606 196.052C105.66 195.77 105.626 195.478 105.509 195.215C103.079 189.551 101.244 183.655 99.1947 177.858C101.106 180.547 106.441 190.045 110.201 188.64C113.961 187.235 115.97 183.011 118.35 179.858C120.144 177.315 121.916 174.735 123.669 172.166C126.807 167.587 130.411 163.257 132.932 158.293C133.195 159.476 133.42 160.68 133.544 161.857C133.674 162.18 133.912 162.448 134.217 162.616C134.523 162.784 134.877 162.841 135.22 162.779C135.562 162.716 135.873 162.536 136.099 162.271C136.325 162.006 136.452 161.67 136.46 161.322C136.073 158.84 135.516 156.388 134.792 153.982L134.598 153.304C134.588 153.118 134.564 152.934 134.526 152.752C134.487 152.625 134.423 152.506 134.338 152.404C133.095 148.155 131.935 143.833 130.732 139.611C129.142 134.845 127.689 130.038 126.117 125.262C125.676 123.985 125.231 122.722 124.728 121.444C122.809 116.387 120.595 111.438 118.432 106.473C117.997 105.277 117.656 104.049 117.411 102.8C117.712 100.39 118.328 98.0327 118.731 95.65C119.135 93.2674 119.76 90.9912 120.2 88.6496C120.546 86.8312 120.849 85.001 121.033 83.202C122.238 77.213 123.821 71.3062 125.772 65.5169C128.3 58.3617 130.813 51.0302 130.842 43.3778C131.342 37.2456 126.25 32.7481 122.094 39.1381C120.104 42.5084 118.435 46.0575 117.107 49.7389C113.834 56.4594 111.219 63.5286 107.993 70.2463C107.687 65.543 107.975 60.8424 107.957 56.0595C107.938 51.2767 107.147 46.8038 107.695 42.1883C108.175 35.8943 110.136 29.5114 108.766 23.2229C108.19 19.9356 105.175 16.1043 101.622 18.3165C100.658 19.0496 99.8705 19.9896 99.318 21.0673C96.6816 25.0604 95.7024 29.5916 94.504 34.064C93.4114 38.1418 91.7459 42.0191 90.4564 46.0128C90.2685 46.7144 90.0648 47.4744 89.8925 48.1175C89.2659 50.456 88.6432 52.7799 88.0205 55.1039C87.3978 57.4278 87.1434 59.8973 85.6255 61.7621C84.231 58.2554 85.4314 54.5354 85.4046 50.8939C85.5245 46.8218 85.6882 42.7614 85.5361 38.7104L85.5792 38.5496C85.664 36.0807 85.8795 33.618 86.2245 31.1719C86.3797 28.6751 86.3863 26.1712 86.2442 23.6736C85.6654 19.4612 84.9288 7.8283 78.3897 10.1334C74.6833 12.2733 73.9323 16.7716 73.215 20.7933C72.9957 21.6118 72.9225 22.4695 72.7442 23.2519C72.2627 25.692 71.7559 28.1096 71.3221 30.5468C70.8001 34.3076 71.1688 38.1347 70.8153 41.9092C70.744 42.877 70.6834 43.8634 70.6598 44.8283C70.5188 48.6285 70.5942 52.4396 70.1452 56.2199L69.3176 61.1207C68.5716 58.994 67.7407 56.8915 67.0796 54.7406C65.7496 50.233 64.0989 45.8117 62.8577 41.2652C62.303 38.8921 61.9909 35.8478 61.5336 32.7019C60.5987 26.3106 59.0834 19.5132 53.7085 17.4151C53.49 17.4027 53.2749 17.4739 53.1069 17.6142C52.8284 17.532 52.5405 17.4865 52.2503 17.4786C51.6914 17.5663 51.1589 17.7767 50.691 18.0947C47.8503 20.0437 47.9673 25.7458 48.0232 28.7528C48.0808 31.4407 48.3202 34.1217 48.7397 36.7774C49.5649 41.1811 51.2929 45.3724 51.8051 49.8332C52.3834 56.9121 52.5835 63.9994 53.1803 71.0676L53.3017 73.8886C47.2715 69.8103 40.2355 67.4698 32.964 67.1232C30.4591 67.0003 25.2003 68.9122 27.2014 72.1428C29.885 75.1647 34.1437 75.7575 37.5061 77.708C39.8022 79.3568 41.9829 81.1607 44.033 83.1069C48.138 86.7619 51.976 90.7062 55.5174 94.9096C56.2512 95.7955 56.9997 96.6853 57.7931 97.5245C59.8372 100.987 62.2557 104.214 65.005 107.149C67.9046 110.113 71.0159 112.863 74.3143 115.376C75.4475 116.836 76.3212 118.48 76.8973 120.235C77.935 122.91 78.8032 125.634 79.8381 128.261C80.873 130.888 81.8917 133.166 82.7854 135.677C83.8876 139.105 84.633 142.579 85.9166 145.915C87.704 150.937 89.4914 155.959 91.271 161.01C91.0804 161.245 90.9529 161.525 90.9003 161.823C90.8478 162.122 90.872 162.429 90.9707 162.715C91.7469 165.098 92.6586 167.434 93.7013 169.713C94.0463 170.41 94.4294 171.088 94.849 171.743C97.2441 178.823 99.61 185.896 101.835 193.024C102.231 194.18 102.551 195.206 102.919 196.229Z" fill="#272D1F"/>
<path d="M84.9601 21.3886C84.9833 18.2618 83.4654 14.4558 80.3225 13.2064C79.4748 12.9792 79.2555 13.7977 79.7743 14.3753C80.9868 15.615 82.0071 17.0289 82.8016 18.5702C83.204 19.5105 83.5085 20.4897 83.7104 21.4924C83.7472 21.6384 83.8346 21.7666 83.9571 21.8542C84.0796 21.9417 84.2292 21.9829 84.3792 21.9705C84.5293 21.958 84.67 21.8927 84.7764 21.7861C84.8828 21.6796 84.9479 21.5387 84.9601 21.3886Z" fill="#CDCFD0"/>
<path d="M58.8337 32.3217C58.1554 29.0069 56.8457 22.202 53.2114 21.1498C53.0938 21.1152 52.9679 21.1225 52.8551 21.1704C52.7423 21.2183 52.6495 21.3038 52.5927 21.4124C52.5359 21.521 52.5185 21.6459 52.5435 21.7659C52.5685 21.8858 52.6343 21.9934 52.7297 22.0703C54.3375 24.2353 55.6632 26.5961 56.6747 29.0958C57.1324 30.2523 57.5277 31.4078 57.8792 32.5516C57.9268 32.658 58.0101 32.7444 58.1147 32.7958C58.2193 32.8473 58.3386 32.8605 58.452 32.8332C58.5653 32.8059 58.6655 32.7398 58.7352 32.6464C58.8049 32.553 58.8398 32.4381 58.8337 32.3217Z" fill="#CDCFD0"/>
<path d="M104.66 43.6326C104.992 40.4633 105.94 37.3961 106.213 34.2111C106.487 31.0261 107.244 22.9419 102.456 22.8026C102.374 22.7942 102.292 22.8034 102.214 22.8296C102.136 22.8558 102.065 22.8984 102.005 22.9545C101.945 23.0106 101.897 23.0789 101.866 23.1548C101.834 23.2307 101.82 23.3125 101.823 23.3946C101.825 23.4767 101.846 23.5572 101.882 23.6308C101.919 23.7043 101.971 23.7692 102.035 23.821C102.099 23.8727 102.173 23.9103 102.252 23.931C102.332 23.9517 102.415 23.9552 102.496 23.9411C104.959 25.447 104.622 28.8659 104.761 31.3311C104.899 33.7962 104.797 36.573 104.586 39.1167C104.443 40.6449 104.066 42.1104 103.979 43.5441C103.982 43.6266 104.014 43.7055 104.069 43.7666C104.125 43.8278 104.2 43.8672 104.282 43.8778C104.364 43.8885 104.447 43.8696 104.516 43.8247C104.585 43.7798 104.636 43.7117 104.66 43.6326Z" fill="#CDCFD0"/>
<path d="M105.011 58.8738C104.8 56.3266 104.616 53.7396 104.622 51.2034C104.621 51.091 104.576 50.9835 104.495 50.9047C104.415 50.826 104.307 50.7823 104.194 50.7833C104.082 50.7843 103.974 50.83 103.896 50.9102C103.817 50.9905 103.773 51.0987 103.774 51.2112C103.739 53.7892 103.838 56.3673 104.07 58.935C104.078 59.0598 104.136 59.1762 104.23 59.2586C104.323 59.3411 104.446 59.3829 104.571 59.3747C104.696 59.3666 104.812 59.3093 104.895 59.2153C104.977 59.1214 105.019 58.9985 105.011 58.8738Z" fill="#CDCFD0"/>
<path d="M127.902 54.4168C130.043 49.9933 132.225 40.7402 126.057 38.6801C125.982 38.6393 125.9 38.6139 125.816 38.6053C125.731 38.5968 125.646 38.6052 125.565 38.6302C125.483 38.6552 125.408 38.6962 125.343 38.7508C125.278 38.8054 125.224 38.8725 125.186 38.9481C124.919 39.5345 125.524 39.7906 125.89 40.061C128.875 42.4273 128.487 46.9133 127.683 50.2068C127.35 51.4492 127.021 52.6769 126.575 53.8733C126.517 54.0368 126.522 54.2162 126.589 54.3763C126.657 54.5363 126.781 54.6654 126.939 54.7383C127.11 54.8212 127.306 54.834 127.486 54.7739C127.666 54.7139 127.816 54.5857 127.902 54.4168Z" fill="#CDCFD0"/>
<path d="M119.881 77.8631C120.854 74.1307 122.047 70.4592 123.454 66.8679C123.465 66.7434 123.432 66.6189 123.361 66.5163C123.29 66.4138 123.184 66.3398 123.063 66.3074C122.943 66.2751 122.814 66.2864 122.701 66.3396C122.588 66.3927 122.497 66.4841 122.445 66.5977C120.597 69.9874 120.057 73.9314 118.847 77.5704C118.833 77.6985 118.865 77.8274 118.937 77.9343C119.009 78.0412 119.116 78.119 119.24 78.1541C119.364 78.1892 119.497 78.1793 119.614 78.126C119.731 78.0727 119.826 77.9796 119.881 77.8631Z" fill="#CDCFD0"/>
</svg>
