<svg width="322" height="320" viewBox="0 0 322 320" fill="none" xmlns="http://www.w3.org/2000/svg">
<path fill-rule="evenodd" clip-rule="evenodd" d="M202.449 92.5536C188.018 96.695 191.115 92.1406 174.569 87.1624C162.049 83.3837 140.849 82.2055 128.502 87.2149C120.164 90.6237 111.163 95.8274 105.314 102.482C96.7262 112.202 87.881 121.609 82.6046 133.416C79.614 140.093 77.2215 154.466 77.7836 161.352C78.5633 171.311 82.6574 186.363 85.4015 195.885C90.6397 214.36 104.053 227.568 122.129 232.847C126.743 234.201 129.807 236.329 134.578 237.708C159.665 244.951 190.225 239.743 209.416 227.043C220.59 219.635 229.259 209.493 234.211 196.977C241.242 179.316 243.036 177.583 238.76 153.389C236.971 143.194 231.897 133.457 227.689 125.51C229.686 122.876 230.768 120.551 232.229 118.059C234.15 114.674 236.666 113.888 235.119 108.698L233.742 109.29C233.852 112.329 229.297 118.202 224.242 118.146C218.476 118.11 215.154 115.363 211.528 113.228C206.214 110.159 206.605 108.563 202.728 103.159C201.059 100.844 199.269 101.403 199.396 97.9668C199.469 95.1003 201.069 94.6236 202.524 92.6937L202.449 92.5536Z" fill="#D03435"/>
<path fill-rule="evenodd" clip-rule="evenodd" d="M203.812 92.4742L202.449 92.5535C200.945 94.4918 199.402 95.0096 199.321 97.8265C199.243 101.255 200.984 100.703 202.652 103.018C206.53 108.423 206.089 110.027 211.453 113.088C215.07 115.173 218.442 117.911 224.167 118.006C229.272 118.054 233.777 112.189 233.667 109.15L235.044 108.558C236.395 105.423 239.216 104.33 239.772 100.413C240.489 95.3469 239.018 92.9982 235.961 90.6139C232.618 91.0309 231.579 91.5138 230.671 93.962C229.198 97.8827 231.31 97.1151 228.329 99.6618C227.309 98.4595 228.008 99.8695 227.538 98.0127L226.685 90.6147C225.878 86.7768 224.411 85.3449 220.678 85.5733C216.194 85.8787 206.829 88.647 203.87 92.5152L203.812 92.4742Z" fill="#530700"/>
</svg>
