<svg width="322" height="322" viewBox="0 0 322 322" fill="none" xmlns="http://www.w3.org/2000/svg">
<path fill-rule="evenodd" clip-rule="evenodd" d="M202.805 92.3197C188.373 96.4611 191.471 91.9068 174.924 86.9285C162.405 83.1498 141.205 81.9717 128.858 86.981C120.519 90.3898 111.518 95.5935 105.67 102.248C97.0817 111.968 88.2364 121.376 82.9601 133.182C79.9695 139.859 77.577 154.232 78.139 161.119C78.9188 171.077 83.0129 186.129 85.757 195.651C90.9952 214.126 104.408 227.334 122.484 232.613C127.098 233.967 130.162 236.095 134.933 237.474C160.021 244.717 190.58 239.509 209.772 226.81C220.945 219.401 229.614 209.259 234.566 196.743C241.597 179.082 243.391 177.349 239.115 153.155C237.327 142.96 232.253 133.223 228.044 125.276C230.042 122.642 231.124 120.317 232.585 117.825C234.505 114.44 237.022 113.654 235.475 108.465L234.097 109.056C234.208 112.095 229.653 117.968 224.598 117.912C218.832 117.876 215.51 115.129 211.884 112.995C206.57 109.925 206.96 108.329 203.083 102.925C201.414 100.61 199.624 101.17 199.752 97.7329C199.824 94.8664 201.425 94.3898 202.88 92.4598L202.805 92.3197Z" fill="#D03435"/>
<path fill-rule="evenodd" clip-rule="evenodd" d="M204.167 92.2403L202.805 92.3196C201.3 94.2579 199.757 94.7757 199.677 97.5927C199.598 101.021 201.339 100.469 203.008 102.784C206.885 108.189 206.445 109.793 211.809 112.854C215.426 114.939 218.798 117.677 224.522 117.772C229.627 117.82 234.132 111.955 234.022 108.916L235.399 108.324C236.751 105.189 239.572 104.096 240.127 100.179C240.844 95.1131 239.373 92.7643 236.317 90.38C232.973 90.797 231.934 91.2799 231.026 93.7282C229.554 97.6488 231.665 96.8812 228.684 99.4279C227.664 98.2257 228.363 99.6356 227.894 97.7788L227.041 90.3809C226.234 86.5429 224.767 85.111 221.034 85.3394C216.55 85.6448 207.185 88.4131 204.225 92.2813L204.167 92.2403Z" fill="#530700"/>
</svg>
