<svg width="630" height="224" viewBox="0 0 630 224" fill="none" xmlns="http://www.w3.org/2000/svg">
<path fill-rule="evenodd" clip-rule="evenodd" d="M18.7282 195.27C16.058 195.38 13.397 195.49 10.7777 195.507L10.8073 195.447C11.1045 195.385 9.85222 193.575 8.58695 191.747C7.29414 189.878 5.98771 187.99 6.30648 187.927C7.64016 183.712 6.12545 180.802 4.54003 177.756C3.39384 175.553 2.2107 173.28 2.04016 170.392C1.70718 164.754 3.24635 161.804 5.1557 158.145C5.96496 156.594 6.84071 154.915 7.66862 152.851C9.03409 149.446 8.86567 145.745 8.69711 142.041C8.66113 141.25 8.62514 140.459 8.60406 139.671C8.58504 139.188 8.53241 138.668 8.47816 138.132C8.32633 136.631 8.16173 135.004 8.685 133.716C9.10228 132.669 9.85101 132.222 10.6294 131.757C11.2859 131.364 11.9635 130.96 12.4811 130.172C15.6132 125.467 17.8228 120.314 20.0441 115.134C21.1598 112.533 22.2784 109.924 23.5184 107.362C28.3252 97.3911 24.8705 94.5089 17.4492 88.3173C16.8086 87.7829 16.1385 87.2238 15.4415 86.6333C14.3952 85.7598 12.9759 84.8488 11.4813 83.8895C8.48317 81.9651 5.18221 79.8463 3.98219 77.4458C2.31004 74.0672 3.15136 66.2142 3.54926 62.5002L3.55238 62.4711C3.74452 60.6811 4.24067 59.061 4.73649 57.442C5.19104 55.9577 5.64532 54.4743 5.86481 52.8618C6.38419 49.025 6.14335 44.8413 5.90786 40.7506C5.79231 38.7434 5.67804 36.7585 5.65551 34.848C5.58787 29.1642 6.096 24.1383 7.29783 19.4085C7.84047 17.2793 7.80911 15.2816 7.77497 13.1071C7.76853 12.6972 7.762 12.281 7.75919 11.8565C7.76091 12.116 8.22797 12.4422 8.68796 12.7634C9.13421 13.075 9.5738 13.382 9.57536 13.619C12.0868 13.5921 14.6364 13.4874 17.1958 13.3824C22.1147 13.1805 27.0697 12.9771 31.8593 13.3213C35.2023 13.5613 38.3818 14.122 41.555 14.6817C45.6649 15.4065 49.7641 16.1295 54.1939 16.1511C60.8666 16.1822 67.562 16.0956 74.2588 16.0091C78.2778 15.9571 82.2972 15.9052 86.3126 15.8787L86.7506 15.8748C99.8056 15.7591 112.799 15.6439 125.451 12.9132C128.358 12.2827 131.238 11.4772 134.131 10.668C140.207 8.96861 146.342 7.25283 152.902 7.10761C163.961 6.87256 175.004 5.42552 186.051 3.97779C195.521 2.73687 204.995 1.49545 214.486 1.01628C220.746 0.707617 227.057 0.798553 233.363 0.889412C236.991 0.941684 240.617 0.99393 244.23 0.970045C249.525 0.935043 254.824 0.842889 260.124 0.750716C269.212 0.592655 278.304 0.434538 287.386 0.564481C300.951 0.745492 314.23 3.15397 326.834 8.12332C333.74 10.8747 339.559 13.152 346.904 14.1561C363.461 16.4226 378.801 16.7423 395.613 16.6312C399.581 16.6049 403.722 16.746 407.926 16.8893C417.932 17.2303 428.299 17.5836 437.562 15.7223C443.072 14.6064 448.163 14.3436 453.393 14.0736C456.032 13.9374 458.706 13.7994 461.488 13.5491C464.334 13.2942 467.098 12.6343 469.864 11.974C472.736 11.2885 475.609 10.6025 478.58 10.3684C486.816 9.74253 495.72 9.95436 503.993 10.2907C508.37 10.4627 509.269 11.0058 511.282 12.222C511.98 12.6439 512.812 13.1469 513.971 13.7435C521.496 17.6319 529.51 18.9456 537.609 20.2733C540.519 20.7504 543.441 21.2293 546.355 21.8303C555.51 23.6946 562.557 25.0315 571.798 21.7222C585.273 16.8916 597.748 13.8599 611.276 12.7655C611.734 13.6065 614.501 13.8107 617.043 13.9984C619.657 14.1913 622.032 14.3666 621.409 15.1988C619.114 18.2215 618.494 19.9699 617.467 23.9166C616.626 27.1824 615.552 30.0103 614.478 32.8404C614.204 33.5609 613.93 34.2815 613.661 35.0095C612.508 38.145 611.781 41.7889 611.472 45.1594C611.264 47.3743 610.792 49.2705 610.322 51.1588C609.905 52.8368 609.489 54.5086 609.261 56.3921C608.955 58.9793 609.638 60.3825 610.347 61.8383C610.759 62.686 611.181 63.5514 611.421 64.6786C611.983 67.2862 611.865 70.0743 611.749 72.8404C611.679 74.5027 611.609 76.1571 611.688 77.7597C611.779 79.7311 612.383 81.4592 612.978 83.1644C613.518 84.7099 614.051 86.2366 614.191 87.9086C614.543 91.8248 611.889 93.8699 609.128 95.9981C608.074 96.8101 607.005 97.6342 606.081 98.5788C604.838 99.8523 604.099 101.001 603.769 102.051C604.042 102.978 604.273 103.927 604.383 104.939L604.386 104.964L604.387 104.971C604.418 105.257 604.452 105.573 604.487 105.911C606.121 108.116 609.704 109.899 613.462 111.768C618.46 114.255 623.767 116.895 625.206 120.889C626.772 125.226 624.83 126.411 622.61 127.765C621.313 128.556 619.92 129.405 619.077 130.974C618.092 132.78 619.067 135.042 619.999 137.205C620.501 138.37 620.991 139.505 621.155 140.525C621.405 142.098 621.765 143.778 622.131 145.492L622.132 145.494L622.132 145.495C622.822 148.723 623.538 152.069 623.597 155.035C623.664 157.92 623.04 160.731 622.415 163.548C621.873 165.988 621.331 168.431 621.236 170.93C621.167 172.883 621.325 174.89 621.484 176.899C621.677 179.346 621.87 181.797 621.654 184.161C621.231 188.656 619.504 189.582 617.147 190.846C615.749 191.596 614.129 192.464 612.428 194.267L605.268 195.438C605.262 195.773 605.247 196.12 605.222 196.48C605.054 198.929 603.975 200.85 602.93 202.71C601.484 205.284 600.103 207.744 601.286 211.327C601.573 211.382 600.385 212.976 599.209 214.553L599.208 214.554C598.057 216.097 596.919 217.624 597.187 217.678L597.213 217.729C594.849 217.699 592.448 217.59 590.038 217.481C585.697 217.284 581.329 217.087 577.101 217.344C574.082 217.528 571.209 217.985 568.343 218.441C564.629 219.031 560.926 219.62 556.927 219.612C550.887 219.598 544.848 219.485 538.809 219.372C535.185 219.304 531.562 219.237 527.938 219.19C516.021 219.038 504.159 218.886 492.625 216.443C490.005 215.891 487.409 215.191 484.801 214.487C479.325 213.01 473.796 211.518 467.876 211.356C457.923 211.078 447.991 209.793 438.054 208.507L438.053 208.507C429.484 207.398 420.911 206.289 412.319 205.825C406.652 205.509 400.925 205.554 395.213 205.599C391.957 205.625 388.704 205.651 385.472 205.609C380.692 205.548 375.905 205.439 371.118 205.329H371.117C362.91 205.141 354.7 204.953 346.521 205.009C334.248 205.082 322.278 207.046 310.877 211.186L310.628 211.277C304.491 213.504 299.305 215.387 292.732 216.184C277.777 218.008 263.928 218.188 248.755 217.994C245.169 217.948 241.423 218.046 237.62 218.145L237.619 218.145C228.584 218.381 219.223 218.625 210.895 216.975C206.021 216.011 201.487 215.761 196.838 215.506C194.383 215.371 191.896 215.234 189.31 214.99C186.742 214.756 184.251 214.18 181.757 213.604C179.169 213.006 176.578 212.407 173.898 212.191C166.467 211.585 158.456 211.738 150.96 211.974C147.026 212.093 146.216 212.545 144.408 213.555C143.769 213.912 143.006 214.338 141.937 214.843C135.125 218.096 127.886 219.163 120.569 220.241L120.567 220.241C117.939 220.629 115.299 221.018 112.667 221.51C104.394 223.062 98.0274 224.129 89.7022 221.267C77.8548 217.203 66.8283 214.573 54.93 213.509L54.16 213.109C52.6333 211.57 51.1754 210.824 49.9172 210.18C47.7957 209.094 46.2415 208.298 45.8813 204.483C45.6982 202.478 45.8845 200.4 46.0704 198.326C46.1054 197.936 46.1404 197.545 46.1729 197.156C45.0303 196.971 43.8942 196.77 42.7573 196.57C39.5841 196.01 36.4046 195.449 33.0616 195.209C28.3791 194.873 23.5385 195.072 18.7282 195.27ZM611.276 12.7655C611.213 12.6493 611.194 12.521 611.225 12.3788L621.902 12.3083C618.268 12.3323 614.738 12.4855 611.276 12.7655Z" fill="#F6F6F6"/>
<path d="M33.4908 161.03C33.9014 161.223 34.2554 161.519 34.5192 161.888C34.7831 162.258 34.9478 162.689 34.9978 163.14C35.0479 163.591 34.9815 164.047 34.805 164.466C34.6285 164.884 34.3478 165.25 33.9897 165.529C33.1566 166.058 32.2033 166.368 31.2183 166.43C31.9874 167.194 32.5097 168.17 32.7173 169.234C32.9288 169.854 32.8949 170.53 32.6226 171.126C32.3502 171.721 31.8602 172.189 31.2532 172.434C30.6462 172.679 29.9685 172.681 29.3594 172.442C28.7504 172.202 28.2563 171.738 27.9788 171.146C27.2607 169.777 26.9357 168.237 27.0398 166.695L26.5507 166.75C24.7999 166.896 23.0434 166.542 21.4868 165.727C21.2551 165.627 21.0473 165.48 20.8772 165.294C20.7071 165.108 20.5787 164.887 20.5005 164.648C20.4224 164.408 20.3964 164.154 20.4242 163.904C20.4519 163.653 20.5328 163.411 20.6615 163.195C20.9942 162.732 21.4891 162.412 22.0473 162.298C22.9885 161.981 23.9586 161.757 24.9436 161.631C24.6469 160.515 24.519 159.361 24.5641 158.207C24.6092 157.736 24.782 157.285 25.064 156.904C25.346 156.523 25.7264 156.226 26.1645 156.045C26.6026 155.864 27.0818 155.806 27.5505 155.877C28.0191 155.948 28.4595 156.145 28.8244 156.448C30.1554 157.736 29.818 159.605 29.3666 161.338C29.9644 160.924 30.6617 160.678 31.3867 160.623C32.1118 160.569 32.8381 160.709 33.4908 161.03Z" fill="#D6D6D6"/>
<path fill-rule="evenodd" clip-rule="evenodd" d="M74.003 29.0517C74.0648 28.3743 74.3673 27.7402 74.8527 27.2709C78.0063 24.9197 81.7703 30.2771 79.4019 33.0482C77.661 35.1841 74.3924 33.5398 73.7759 31.2264C73.5692 30.5036 73.6508 29.7217 74.003 29.0517ZM63.5293 32.9275C63.4263 32.4245 63.2118 31.9543 62.9024 31.5532C58.6452 26.6636 51.937 34.7203 56.5902 38.752C59.3532 41.0775 64.1648 38.7036 63.3944 34.834C63.4384 34.7104 63.4724 34.5834 63.4961 34.4543C63.6209 33.9529 63.6322 33.4305 63.5293 32.9275ZM23.5782 60.5419C23.8876 60.9431 24.1021 61.4133 24.205 61.9163C24.308 62.4193 24.2966 62.9417 24.1719 63.4431C24.1482 63.5721 24.1142 63.6991 24.0701 63.8228C24.8406 67.6924 20.029 70.0663 17.266 67.7407C12.6128 63.709 19.321 55.6524 23.5782 60.5419ZM27.0118 77.9335C27.0737 77.2561 27.3762 76.6221 27.8616 76.1527C31.0152 73.8016 34.7792 79.159 32.4108 81.9301C30.6698 84.0659 27.4013 82.4216 26.7848 80.1082C26.5781 79.3854 26.6597 78.6035 27.0118 77.9335Z" fill="#D23F3F"/>
<path d="M22.1324 35.0887C22.2155 34.8459 22.3517 34.6236 22.5317 34.4369C22.2651 33.9105 22.2102 33.3074 22.3776 32.7454C22.545 32.1834 22.9227 31.7029 23.4368 31.3979C24.0184 31.1156 24.6689 30.9925 25.3184 31.042C26.2831 30.8175 27.2796 30.7472 28.2688 30.8338C31.6831 31.3304 35.5957 31.2837 38.6995 33.0523C39.0197 33.2941 39.2707 33.6116 39.4284 33.9741C39.5861 34.3366 39.6452 34.732 39.6001 35.1223C39.5549 35.5126 39.4069 35.8847 39.1704 36.2029C38.9339 36.5211 38.6167 36.7745 38.2495 36.939C36.8622 37.2761 35.4286 37.4023 33.9997 37.3134C35.4332 38.4056 37.4867 40.0688 36.4164 42.0115C36.1497 42.4616 35.7389 42.8147 35.2461 43.0174C34.7532 43.2201 34.205 43.2613 33.6846 43.1349C31.8013 42.3208 30.0329 41.2755 28.423 40.0246C29.0313 42.008 28.9008 44.1332 28.0545 46.0273C27.797 46.3581 27.459 46.6217 27.0704 46.7946C26.6818 46.9674 26.2548 47.0442 25.8275 47.0179C25.4001 46.9917 24.9857 46.8633 24.6212 46.6442C24.2566 46.4251 23.9534 46.1221 23.7383 45.7623C23.021 43.6888 22.592 41.5327 22.4624 39.3512C22.1567 37.9503 22.0457 36.5168 22.1324 35.0887Z" fill="#231F20"/>
<path fill-rule="evenodd" clip-rule="evenodd" d="M569.272 180.521C568.808 179.775 568.637 178.886 568.791 178.023C568.568 177.073 568.734 176.074 569.251 175.244C570.847 172.573 575.637 171.617 577.147 174.853C579.246 179.087 572.531 184.495 569.272 180.521ZM576.382 192.248C575.556 192.179 574.779 191.834 574.175 191.27C573.572 190.707 573.178 189.957 573.057 189.143C573.112 188.565 573.085 188.019 573.057 187.482C573.03 186.95 573.003 186.426 573.057 185.886C573.429 183.714 575.77 182.824 577.716 182.541C578.26 182.505 578.804 182.593 579.308 182.799C579.811 183.004 580.261 183.321 580.622 183.726C580.983 184.13 581.246 184.612 581.391 185.133C581.535 185.654 581.558 186.201 581.457 186.732C581.57 187.441 581.521 188.166 581.313 188.854C581.106 189.541 580.745 190.173 580.257 190.703C579.769 191.233 579.168 191.647 578.497 191.915C577.826 192.182 577.103 192.296 576.382 192.248ZM581.502 176.786C579.73 179.522 580.299 182.801 583.689 183.865C589.77 185.711 595.697 177.264 588.523 174.397C587.245 174.094 585.906 174.158 584.663 174.58C583.42 175.003 582.324 175.768 581.502 176.786Z" fill="#D23F3F"/>
<path d="M517.494 190.797C517.139 190.536 516.849 190.198 516.647 189.808C516.445 189.418 516.335 188.988 516.327 188.549C516.318 188.438 516.318 188.327 516.327 188.216C514.789 185.214 518.343 182.211 521.225 183.511C526.106 185.793 522.233 193.869 517.494 190.797Z" fill="#D23F3F"/>
<path d="M548.046 182.819C548.344 183.056 548.576 183.365 548.721 183.717C548.866 184.07 548.917 184.453 548.872 184.831C548.826 185.209 548.684 185.569 548.46 185.877C548.235 186.184 547.936 186.429 547.59 186.588C546.808 186.861 545.97 186.931 545.154 186.792C545.635 187.564 545.874 188.462 545.839 189.37C545.893 189.916 545.736 190.463 545.399 190.896C545.062 191.33 544.572 191.618 544.03 191.702C543.487 191.785 542.933 191.657 542.482 191.345C542.03 191.032 541.716 190.559 541.603 190.021C541.279 188.766 541.31 187.446 541.691 186.207L541.281 186.157C539.823 185.941 538.457 185.314 537.342 184.35C537.172 184.224 537.031 184.064 536.927 183.879C536.824 183.695 536.762 183.49 536.744 183.279C536.726 183.069 536.754 182.857 536.824 182.657C536.895 182.458 537.008 182.276 537.154 182.124C537.515 181.81 537.98 181.644 538.458 181.658C539.287 181.58 540.122 181.583 540.951 181.669C540.923 180.701 541.04 179.734 541.298 178.801C541.426 178.424 541.653 178.089 541.957 177.832C542.26 177.575 542.628 177.406 543.02 177.342C543.413 177.278 543.815 177.323 544.184 177.471C544.553 177.619 544.875 177.865 545.115 178.182C545.955 179.489 545.32 180.95 544.619 182.279C545.187 182.056 545.803 181.988 546.406 182.083C547.008 182.178 547.575 182.432 548.046 182.819Z" fill="#272D1F"/>
<path d="M580.674 130.597C580.319 130.336 580.029 129.998 579.827 129.608C579.624 129.219 579.515 128.788 579.507 128.35C579.498 128.239 579.498 128.127 579.507 128.016C577.968 125.014 581.523 122.012 584.405 123.311C589.286 125.593 585.413 133.67 580.674 130.597Z" fill="#D23F3F"/>
<path d="M584.965 150.599C585.33 150.707 585.661 150.908 585.927 151.181C586.192 151.454 586.384 151.79 586.482 152.158C586.581 152.526 586.583 152.913 586.49 153.282C586.396 153.651 586.21 153.99 585.948 154.267C585.324 154.811 584.573 155.189 583.764 155.365C584.499 155.9 585.055 156.644 585.362 157.5C585.616 157.987 585.673 158.553 585.523 159.081C585.372 159.609 585.025 160.059 584.552 160.339C584.08 160.619 583.518 160.707 582.983 160.585C582.448 160.463 581.979 160.141 581.674 159.685C580.906 158.641 580.441 157.405 580.333 156.113L579.934 156.22C578.501 156.563 576.999 156.491 575.605 156.012C575.401 155.959 575.21 155.863 575.045 155.73C574.88 155.598 574.746 155.431 574.651 155.242C574.556 155.053 574.502 154.846 574.493 154.635C574.485 154.424 574.521 154.213 574.601 154.017C574.818 153.591 575.188 153.263 575.636 153.098C576.377 152.716 577.153 152.408 577.954 152.178C577.567 151.291 577.314 150.35 577.206 149.388C577.184 148.991 577.27 148.595 577.456 148.244C577.641 147.892 577.919 147.598 578.26 147.392C578.6 147.187 578.99 147.078 579.388 147.077C579.785 147.077 580.175 147.185 580.516 147.39C581.783 148.29 581.74 149.882 581.585 151.377C582.028 150.958 582.575 150.665 583.169 150.528C583.764 150.391 584.384 150.416 584.965 150.599Z" fill="#272D1F"/>
</svg>
