<svg width="185" height="220" viewBox="0 0 185 220" fill="none" xmlns="http://www.w3.org/2000/svg">
<path d="M72.6523 22.0905C72.6804 22.0934 72.7085 22.0859 72.7314 22.0693C72.682 22.0733 72.6338 22.0863 72.589 22.1075L72.6523 22.0905ZM73.7056 211.992C73.5725 212.376 73.3019 212.696 72.9461 212.891C72.665 213.024 72.3498 213.068 72.043 213.017C71.7362 212.966 71.4524 212.822 71.2298 212.604C71.0072 212.387 70.8565 212.107 70.798 211.801C70.7395 211.496 70.7759 211.179 70.9024 210.895C73.5324 204.765 75.5186 198.383 77.7371 192.109C75.6686 195.02 69.8945 205.299 65.8248 203.778C61.7551 202.258 59.5806 197.686 57.0046 194.273C55.0633 191.521 53.1453 188.729 51.2472 185.948C47.8507 180.992 43.9502 176.306 41.222 170.933C40.9376 172.213 40.6934 173.516 40.5598 174.79C40.4187 175.14 40.1611 175.43 39.8306 175.612C39.5001 175.794 39.117 175.856 38.7459 175.788C38.3749 175.72 38.0387 175.526 37.7941 175.239C37.5496 174.951 37.4117 174.589 37.4038 174.211C37.8225 171.525 38.4256 168.871 39.2088 166.268L39.4189 165.533C39.4297 165.332 39.4555 165.133 39.4963 164.936C39.5385 164.798 39.608 164.67 39.7005 164.559C41.0453 159.96 42.3015 155.283 43.6031 150.712C45.3239 145.555 46.8969 140.352 48.5976 135.183C49.0749 133.8 49.5564 132.433 50.1012 131.05C52.1782 125.576 54.575 120.221 56.9158 114.846C57.3864 113.551 57.7559 112.222 58.0209 110.871C57.6949 108.262 57.0283 105.711 56.5917 103.132C56.155 100.553 55.4779 98.0898 55.0023 95.5553C54.6275 93.5872 54.3002 91.6064 54.1006 89.6592C52.7961 83.1771 51.083 76.7839 48.9717 70.518C46.2354 62.7737 43.5158 54.8384 43.4837 46.556C42.943 39.9189 48.4546 35.0511 52.9527 41.9672C55.1058 45.615 56.9127 49.4563 58.3499 53.4408C61.8927 60.7147 64.7227 68.366 68.2138 75.6368C68.5453 70.5462 68.2333 65.4586 68.2535 60.2819C68.2737 55.1052 69.1298 50.2641 68.5372 45.2685C68.0174 38.4563 65.895 31.5478 67.3775 24.7416C68.001 21.1836 71.2642 17.0369 75.1103 19.4312C76.1536 20.2247 77.0056 21.2421 77.6036 22.4085C80.4571 26.7304 81.5169 31.6346 82.8139 36.4753C83.9965 40.8888 85.7992 45.0854 87.1948 49.408C87.3983 50.1673 87.6187 50.9899 87.8052 51.6859C88.4834 54.217 89.1573 56.7323 89.8313 59.2475C90.5053 61.7628 90.7807 64.4357 92.4235 66.454C93.9328 62.6585 92.6336 58.6323 92.6626 54.6909C92.5329 50.2835 92.3557 45.8888 92.5202 41.5042L92.4736 41.3302C92.3818 38.6581 92.1486 35.9926 91.7752 33.3451C91.6072 30.6426 91.6001 27.9326 91.7539 25.2294C92.3803 20.6702 93.1776 8.07941 100.255 10.5743C104.267 12.8904 105.079 17.7591 105.856 22.112C106.093 22.9978 106.172 23.9261 106.365 24.773C106.887 27.414 107.435 30.0306 107.905 32.6685C108.47 36.7389 108.071 40.8811 108.453 44.9665C108.53 46.014 108.596 47.0815 108.621 48.1259C108.774 52.239 108.692 56.3639 109.178 60.4555L110.074 65.7598C110.882 63.4579 111.781 61.1824 112.496 58.8543C113.936 53.9756 115.723 49.1903 117.066 44.2694C117.666 41.7009 118.004 38.4059 118.499 35.001C119.511 28.0835 121.151 20.7264 126.968 18.4555C127.205 18.4421 127.438 18.5192 127.62 18.671C127.921 18.5821 128.233 18.5328 128.547 18.5243C129.152 18.6192 129.728 18.8469 130.234 19.1912C133.309 21.3006 133.182 27.4722 133.122 30.7268C133.06 33.636 132.8 36.5378 132.346 39.4121C131.453 44.1784 129.583 48.7148 129.029 53.5429C128.403 61.2047 128.186 68.8755 127.54 76.5257L127.409 79.5789C133.935 75.1648 141.551 72.6316 149.421 72.2565C152.132 72.1235 157.824 74.1929 155.658 77.6895C152.754 80.9601 148.144 81.6018 144.505 83.7129C142.02 85.4974 139.66 87.4498 137.441 89.5563C132.998 93.5122 128.844 97.7813 125.011 102.331C124.216 103.29 123.406 104.253 122.548 105.161C120.335 108.909 117.718 112.402 114.742 115.577C111.603 118.786 108.236 121.762 104.666 124.483C103.44 126.063 102.494 127.842 101.87 129.742C100.747 132.637 99.8076 135.585 98.6875 138.428C97.5673 141.271 96.4647 143.737 95.4974 146.455C94.3045 150.165 93.4977 153.925 92.1084 157.536C90.1738 162.971 88.2392 168.406 86.3131 173.873C86.5194 174.128 86.6575 174.431 86.7143 174.754C86.7712 175.077 86.745 175.409 86.6381 175.719C85.798 178.298 84.8113 180.827 83.6828 183.293C83.3094 184.048 82.8947 184.782 82.4406 185.491C79.8482 193.154 77.2875 200.809 74.8788 208.524C74.451 209.775 74.1041 210.885 73.7056 211.992Z" fill="#272D1F"/>
<path d="M93.1423 22.7563C93.1171 19.372 94.76 15.2526 98.1617 13.9003C99.0792 13.6544 99.3166 14.5403 98.755 15.1655C97.4428 16.5072 96.3384 18.0375 95.4785 19.7057C95.043 20.7234 94.7134 21.7833 94.4949 22.8686C94.455 23.0266 94.3604 23.1654 94.2279 23.2601C94.0953 23.3549 93.9334 23.3995 93.771 23.386C93.6086 23.3725 93.4562 23.3018 93.3411 23.1865C93.2259 23.0711 93.1555 22.9187 93.1423 22.7563Z" fill="#CDCFD0"/>
<path d="M121.422 34.5896C122.156 31.0018 123.574 23.6366 127.507 22.4978C127.634 22.4604 127.771 22.4683 127.893 22.5201C128.015 22.5719 128.115 22.6645 128.177 22.782C128.238 22.8995 128.257 23.0347 128.23 23.1646C128.203 23.2944 128.132 23.4109 128.029 23.4941C126.288 25.8373 124.854 28.3925 123.759 31.098C123.263 32.3498 122.835 33.6004 122.455 34.8383C122.404 34.9535 122.313 35.0471 122.2 35.1027C122.087 35.1584 121.958 35.1727 121.835 35.1432C121.712 35.1137 121.604 35.0421 121.529 34.941C121.453 34.8399 121.415 34.7156 121.422 34.5896Z" fill="#CDCFD0"/>
<path d="M71.8213 46.8316C71.4616 43.4013 70.4365 40.0816 70.1401 36.6343C69.8438 33.1871 69.0252 24.4372 74.207 24.2865C74.2954 24.2774 74.3848 24.2874 74.4691 24.3157C74.5533 24.3441 74.6305 24.3902 74.6955 24.4509C74.7605 24.5116 74.8117 24.5855 74.8456 24.6677C74.8796 24.7499 74.8956 24.8384 74.8925 24.9272C74.8895 25.0161 74.8674 25.1032 74.8278 25.1828C74.7881 25.2625 74.7319 25.3327 74.6629 25.3887C74.5939 25.4448 74.5137 25.4854 74.4276 25.5078C74.3416 25.5302 74.2517 25.534 74.1641 25.5188C71.4981 27.1487 71.8623 30.849 71.7125 33.5172C71.5627 36.1853 71.6729 39.1908 71.9019 41.9439C72.0569 43.5979 72.4649 45.184 72.5586 46.7358C72.5556 46.8251 72.521 46.9105 72.461 46.9766C72.4009 47.0428 72.3193 47.0855 72.2306 47.097C72.142 47.1085 72.0522 47.0881 71.9772 47.0395C71.9022 46.9909 71.8469 46.9172 71.8213 46.8316Z" fill="#CDCFD0"/>
<path d="M71.4406 63.3276C71.6684 60.5707 71.8676 57.7706 71.8611 55.0256C71.8622 54.9039 71.9116 54.7877 71.9985 54.7024C72.0853 54.6171 72.2025 54.5698 72.3242 54.5709C72.4459 54.572 72.5622 54.6215 72.6475 54.7083C72.7328 54.7952 72.78 54.9123 72.7789 55.034C72.8173 57.8243 72.7104 60.6147 72.4587 63.3938C72.4499 63.5289 72.3879 63.6548 72.2862 63.7441C72.1845 63.8333 72.0515 63.8786 71.9165 63.8698C71.7815 63.861 71.6555 63.7989 71.5663 63.6972C71.477 63.5955 71.4318 63.4626 71.4406 63.3276Z" fill="#CDCFD0"/>
<path d="M46.669 58.5036C44.3519 53.7159 41.9905 43.7009 48.6667 41.4712C48.7474 41.427 48.8361 41.3995 48.9275 41.3903C49.019 41.381 49.1113 41.3902 49.1992 41.4172C49.287 41.4442 49.3686 41.4886 49.439 41.5477C49.5094 41.6068 49.5673 41.6794 49.6092 41.7612C49.8979 42.3959 49.2431 42.6731 48.8468 42.9658C45.6164 45.5269 46.0358 50.3823 46.9062 53.947C47.2665 55.2916 47.6225 56.6204 48.1051 57.9154C48.1681 58.0924 48.1627 58.2865 48.0899 58.4597C48.0171 58.6329 47.8822 58.7727 47.7117 58.8516C47.5269 58.9413 47.3143 58.9552 47.1194 58.8902C46.9246 58.8251 46.7629 58.6864 46.669 58.5036Z" fill="#CDCFD0"/>
<path d="M55.3476 83.8807C54.2947 79.841 53.0035 75.8672 51.4807 71.9802C51.4682 71.8455 51.5037 71.7107 51.581 71.5997C51.6583 71.4887 51.7724 71.4086 51.9031 71.3736C52.0338 71.3386 52.1726 71.3509 52.2951 71.4084C52.4175 71.4659 52.5157 71.5648 52.5722 71.6878C54.5726 75.3566 55.1569 79.6253 56.4666 83.564C56.4818 83.7026 56.4474 83.8421 56.3696 83.9578C56.2917 84.0735 56.1753 84.1578 56.0411 84.1957C55.907 84.2337 55.7637 84.2229 55.6367 84.1653C55.5097 84.1076 55.4073 84.0068 55.3476 83.8807Z" fill="#CDCFD0"/>
</svg>
