<svg width="47" height="48" viewBox="0 0 47 48" fill="none" xmlns="http://www.w3.org/2000/svg">
<path fill-rule="evenodd" clip-rule="evenodd" d="M37.5873 9.37725C36.1522 9.52903 35.0103 11.0448 35.5691 12.1698C35.7585 12.5624 36.1159 12.6792 36.4765 12.9135C36.4115 13.1945 36.4255 13.4881 36.5169 13.7617C36.6083 14.0353 36.7736 14.2783 36.9944 14.4638L37.1064 14.5798C36.9017 14.4534 36.9928 14.9547 36.9935 15.5088C36.9927 15.8542 37.0119 16.1596 36.9982 16.5346C36.9148 19.2754 35.8042 20.3131 35.3106 23.0466C34.8171 25.7802 34.8987 25.1294 33.9167 27.025C32.7492 29.2995 32.8609 31.2144 29.3948 32.6892C28.3421 33.2987 27.176 33.6868 25.9679 33.8299C24.7089 33.8743 23.4685 34.1489 22.3084 34.6403C22.0518 34.7778 21.8399 34.9616 21.604 35.1135C21.0917 35.4189 20.5432 35.659 19.9713 35.8282C19.649 35.8787 19.3562 36.0449 19.1477 36.2958C19.0614 35.8209 18.9935 35.7969 18.4954 35.6058C18.3682 35.5562 18.1364 35.4802 18.0061 35.413C17.8758 35.3459 17.7934 35.2427 17.4568 35.1403C16.898 34.9148 16.9076 34.4679 16.4175 34.4207C16.3018 34.4493 16.1906 34.4939 16.0873 34.5534C16.0506 34.8547 16.0541 35.1596 16.0976 35.46C16.1704 35.7507 16.2064 36.0494 16.2046 36.3491C15.0149 36.3018 12.5062 34.2956 11.7811 33.4552L9.70495 30.8797C9.36599 30.4144 9.11098 29.961 8.78401 29.5116C8.23721 28.7025 8.5825 29.8027 7.83828 28.1572C7.42821 27.2505 7.66887 27.2249 7.81928 26.1527C7.2782 25.9008 6.80286 25.527 6.43059 25.0604C5.81342 24.2641 5.78866 24.0778 6.0054 23.3206L5.12438 22.5722C4.88454 22.3523 4.98288 22.3435 4.83979 22.106C4.63754 21.743 3.27921 20.9178 4.59776 19.5243C4.21646 18.7759 3.00438 18.6055 3.00053 16.9345C2.99499 16.2541 2.61524 16.0142 2.31547 15.5145C2.17077 15.2682 2.07724 15.1035 1.92695 14.8764C1.24504 13.8737 1.09152 13.9289 1.57137 12.4698C1.8017 11.7374 1.64983 11.3017 1.85859 10.5006C1.98396 9.94801 2.32025 9.46633 2.79575 9.15824C3.27471 8.74412 2.71514 7.6647 3.88242 7.98861L4.10705 8.47475C4.35574 8.0934 4.29023 7.53291 4.63806 7.0972C5.55763 5.85801 7.47159 7.29095 8.21828 8.0002C8.49266 8.29208 8.74391 8.60486 8.96976 8.93571C9.50695 9.57549 9.98208 10.2649 10.3887 10.9946C10.6022 11.3193 10.8212 11.8246 11.0323 12.0861C11.365 12.0777 11.698 12.09 12.0293 12.1229L13.2126 12.3349C14.6244 12.5373 16.0054 12.9151 17.3237 13.4594C17.5947 13.601 17.8737 13.7865 18.1447 13.928C18.638 14.1927 18.69 13.9289 19.2073 14.2255C20.0108 14.6973 20.4656 15.3506 21.6905 15.5914C23.2256 15.8394 21.5762 15.7121 23.6645 16.2048C24.7252 16.6203 25.8488 16.8523 26.9873 16.8911C27.8955 16.8896 27.6765 16.884 28.5025 16.1796C29.7938 15.0364 30.8541 13.3719 31.9104 12.335C33.1024 11.152 34.4978 10.1937 36.0298 9.50583C36.3025 9.45628 37.3515 8.7296 37.5873 9.37725Z" fill="white"/>
<path fill-rule="evenodd" clip-rule="evenodd" d="M13.7152 17.2869C14.0213 17.9217 15.1039 18.2792 14.7592 19.0324C14.4145 19.7855 13.34 19.5719 12.646 19.8525C12.913 20.2219 13.9851 20.5722 14.0946 21.2246C14.2416 22.0337 13.2438 22.3423 12.9103 22.8571C14.0455 23.4898 15.2739 23.9382 16.5497 24.1855C19.2808 24.9157 21.7649 25.1366 24.1509 23.7672C24.6538 23.485 24.4531 23.3307 24.7841 23.2524C24.8598 23.2298 24.9398 23.2254 25.0175 23.2397C25.0952 23.2539 25.1684 23.2864 25.2312 23.3343C25.294 23.3823 25.3445 23.4444 25.3787 23.5156C25.4128 23.5869 25.4296 23.6652 25.4277 23.7442C25.4077 24.4837 23.404 25.2567 22.6996 25.4301C20.6784 25.9324 18.5564 25.8518 16.5792 25.1977C15.6246 24.9442 11.3511 24.0763 11.8822 22.5988C12.1013 22.0048 12.7129 21.721 13.0192 21.3564C12.6898 21.1437 12.3213 20.8655 11.9799 20.6368C11.6385 20.4081 11.1636 20.1945 11.238 19.6541C11.3244 18.9297 12.8899 18.7451 13.5543 18.6517C13.5352 18.5461 13.5543 18.6517 13.4656 18.5133L13.0995 18.0983C12.3184 17.15 12.8941 16.3186 13.6153 16.2875C14.9681 16.2324 21.3714 17.8217 23.1024 18.4974C23.6508 18.7157 24.1857 19.0092 24.7029 19.206C25.2202 19.4027 25.9734 19.5475 26.0277 20.0464C26.036 20.111 26.0312 20.1766 26.0136 20.2393C25.9959 20.302 25.9657 20.3604 25.9249 20.4111C25.884 20.4619 25.8333 20.5038 25.7758 20.5344C25.7183 20.565 25.6552 20.5836 25.5903 20.5892C25.3528 20.6324 22.0789 19.1649 21.4633 18.977C18.9365 18.2042 16.3512 17.6379 13.7328 17.2837L13.7152 17.2869ZM6.86138 10.619C6.88532 11.1507 7.32097 12.1981 7.10026 12.5834C6.74202 13.2118 5.78745 12.4586 5.23578 12.3226C5.54591 13.3293 5.27726 13.4508 4.16912 13.2524C4.28386 13.6109 4.4497 13.951 4.66154 14.2622C4.8374 14.63 4.9893 14.8659 5.17555 15.2409C5.30106 15.4816 5.62322 16.0045 5.47048 16.3139C5.23618 16.7744 4.74609 16.5273 4.52386 16.1043C4.21736 15.4125 3.86484 14.7421 3.46865 14.0974C3.03458 13.3586 2.88916 12.2584 4.17321 12.3249C4.2469 10.8306 4.98082 11.2696 6.01059 11.6367C5.99945 11.0754 5.50467 9.60264 6.54965 9.60353C7.75935 9.61084 9.05283 11.3292 9.14235 11.6218C9.17723 11.7146 9.18154 11.8161 9.15463 11.9115C9.12771 12.0069 9.071 12.0913 8.99277 12.1522C8.91454 12.213 8.81889 12.2473 8.71978 12.25C8.62068 12.2527 8.52332 12.2236 8.44192 12.167C8.19887 12.0295 8.0398 11.6041 7.78957 11.377C7.54132 11.0576 7.224 10.7984 6.86138 10.619Z" fill="#CCCCCC"/>
<path fill-rule="evenodd" clip-rule="evenodd" d="M39.8028 12.4729C39.7901 12.1027 39.6446 12.1019 39.8253 11.7965C39.9201 11.5978 40.0314 11.4074 40.1579 11.2273C40.5985 11.3017 40.5041 11.5823 40.9607 11.3449C41.0007 11.165 41.059 11.2361 41.0998 11.2106C41.0414 11.739 41.7857 12.2852 41.4826 12.7673C41.1796 13.2494 40.3633 12.6073 39.8028 12.4729Z" fill="#FAB319"/>
<path fill-rule="evenodd" clip-rule="evenodd" d="M18.3768 41.2885C19.1476 40.5306 18.4226 38.9907 18.1564 37.8761C18.0605 37.3484 17.9966 36.9966 17.7672 36.7839C17.6514 37.9871 17.7067 39.2006 17.9315 40.3882L18.3736 41.2709L18.3768 41.2885ZM16.2121 36.4759L16.1993 36.4056C16.201 36.1059 16.1651 35.8072 16.0923 35.5165C16.0488 35.2161 16.0453 34.9112 16.082 34.6098C16.1853 34.5504 16.2964 34.5058 16.4122 34.4771C16.9399 34.4812 16.9302 34.9281 17.4515 35.1968C17.7881 35.2992 17.7329 35.3455 18.0008 35.4695C18.2686 35.5935 18.3629 35.6126 18.49 35.6622C18.9881 35.8534 19.0649 35.8758 19.1424 36.3523C19.4607 37.0955 19.6792 37.8776 19.7922 38.6782C19.8689 39.1003 19.9848 39.4881 20.0991 39.8671C20.1503 40.245 20.3291 40.5939 20.6059 40.8562C21.2012 41.3854 21.8278 41.8784 22.4823 42.3323C22.7498 42.6091 22.9877 42.9129 23.1922 43.239C23.5192 43.6884 23.4992 43.8283 23.0618 44.1713C22.3958 44.156 22.2103 43.7354 21.7035 43.446C21.1266 43.2056 20.517 43.053 19.895 42.9933C19.6934 44.1837 18.8955 43.3929 18.3407 43.1394L18.2263 43.1602C17.8777 43.3417 17.7242 43.2969 17.2893 43.0034C15.9374 42.0135 16.1579 43.0273 15.5303 43.3231C15.4535 43.3671 15.3656 43.3878 15.2772 43.3828C15.1889 43.3777 15.1039 43.347 15.0327 43.2944C14.9615 43.2418 14.9071 43.1697 14.8762 43.0867C14.8453 43.0038 14.8393 42.9136 14.8587 42.8273C14.9307 42.3236 15.9214 41.7256 16.0294 41.17C16.095 40.7494 16.1271 40.3244 16.1255 39.8987C16.0976 38.6954 16.1631 39.3559 16.2207 38.773C16.2783 38.1902 16.0961 37.2875 16.2121 36.4759Z" fill="#FAB319"/>
<path fill-rule="evenodd" clip-rule="evenodd" d="M40.9123 11.3177C40.4558 11.5551 40.5501 11.2745 40.1096 11.2001C39.983 11.3802 39.8717 11.5706 39.7769 11.7693C39.5962 12.0748 39.7417 12.0756 39.7545 12.4458C39.775 12.8033 39.721 13.1612 39.5959 13.4968C39.4707 13.8323 39.2772 14.1382 39.0275 14.3949C38.767 14.642 38.4303 14.793 38.0726 14.8234C37.7148 14.8537 37.3574 14.7615 37.0591 14.5619L36.9471 14.4459C36.7263 14.2604 36.561 14.0174 36.4696 13.7438C36.3782 13.4702 36.3642 13.1766 36.4292 12.8956C36.067 12.6525 35.7096 12.5357 35.5218 12.1519C34.963 11.027 36.1049 9.51115 37.5401 9.35936L37.6544 9.33859C37.8119 9.15551 37.1907 8.78687 37.0116 8.7013C36.6223 8.50858 36.0666 8.50053 35.8859 8.20629C35.7053 7.91204 36.1187 7.43716 36.3625 7.32925C36.7583 7.15738 37.1932 7.3509 37.6801 7.38053C37.9265 6.23642 38.6277 6.64505 38.8571 7.35745C39.4767 7.31753 39.384 7.00731 39.8996 7.59501C40.2946 7.46872 40.612 7.46555 40.6999 7.94928C40.7319 8.12518 40.7127 8.31946 40.7327 8.47937C40.8078 8.89273 40.7598 8.62889 40.9917 8.90474C41.2249 9.62786 41.2266 10.4058 40.9963 11.1298C40.9963 11.1298 40.9523 11.1378 40.9123 11.3177Z" fill="#E30613"/>
<path fill-rule="evenodd" clip-rule="evenodd" d="M38.5107 10.7631C38.3363 11.2036 37.4593 11.0268 37.6648 10.408C37.6881 10.3525 37.7221 10.3021 37.7649 10.2597C37.8077 10.2173 37.8585 10.1837 37.9142 10.161C37.97 10.1382 38.0297 10.1266 38.0899 10.1269C38.1502 10.1272 38.2097 10.1393 38.2653 10.1626C38.3208 10.1859 38.3712 10.22 38.4136 10.2627C38.456 10.3055 38.4896 10.3563 38.5123 10.412C38.5351 10.4678 38.5467 10.5275 38.5464 10.5877C38.5461 10.648 38.534 10.7075 38.5107 10.7631Z" fill="#1D1D1B"/>
</svg>
