<svg width="95" height="91" viewBox="0 0 95 91" fill="none" xmlns="http://www.w3.org/2000/svg">
<path fill-rule="evenodd" clip-rule="evenodd" d="M13.3621 34.3444C15.9614 40.9976 13.6672 39.7316 12.0401 47.7895C10.8033 53.8867 11.1819 63.9808 14.1003 69.6081C16.0834 73.4074 18.9459 77.4411 22.3563 79.9176C27.3402 83.5562 32.1872 87.3304 38.0128 89.3082C41.3077 90.4298 48.2217 90.928 51.4591 90.3576C56.142 89.5482 63.0908 86.9439 67.48 85.2234C76.0001 81.9258 81.6642 74.9887 83.3658 66.1932C83.8035 63.9478 84.6762 62.4024 85.1184 60.0815C87.4411 47.8778 83.624 33.6321 76.7604 25.1025C72.7573 20.137 67.5702 16.4786 61.423 14.6861C52.7466 12.1359 51.8465 11.3624 40.5747 14.457C35.8246 15.7545 31.4367 18.5882 27.858 20.9329C26.5221 20.1031 25.373 19.6933 24.1282 19.1112C22.4397 18.3511 21.9564 17.1938 19.5663 18.1559L19.9073 18.7822C21.3422 18.5957 24.3254 20.4937 24.5222 22.8908C24.7596 25.6236 23.6052 27.3187 22.7544 29.1304C21.535 31.7833 20.7619 31.6687 18.3732 33.7441C17.3504 34.6368 17.6947 35.4602 16.0611 35.5514C14.7001 35.6439 14.4036 34.9067 13.4252 34.3028L13.3621 34.3444Z" fill="#D03435"/>
<path fill-rule="evenodd" clip-rule="evenodd" d="M13.2668 33.7025L13.3645 34.3444C14.3492 34.9715 14.6626 35.6794 16.0005 35.5931C17.6279 35.4787 17.2897 34.6785 18.3126 33.7857C20.7013 31.7104 21.4806 31.848 22.6938 29.1721C23.5215 27.3665 24.6696 25.6483 24.4616 22.9325C24.2585 20.5123 21.2815 18.6373 19.8467 18.8238L19.5057 18.1976C17.9607 17.6959 17.3187 16.4079 15.4385 16.3178C13.0072 16.2021 11.9596 17.0025 10.9652 18.5558C11.3104 20.1213 11.5851 20.5921 12.7849 20.914C14.7071 21.4383 14.2502 20.4719 15.5883 21.7714C15.0639 22.3078 15.7008 21.9144 14.842 22.2188L11.3754 22.9497C9.59306 23.5015 8.97961 24.2598 9.25271 26.0178C9.59552 28.1284 11.3206 32.4422 13.2837 33.6732L13.2668 33.7025Z" fill="#530700"/>
</svg>
