<svg width="675" height="246" viewBox="0 0 675 246" fill="none" xmlns="http://www.w3.org/2000/svg">
<path fill-rule="evenodd" clip-rule="evenodd" d="M12.8153 160.84L12.8145 160.84C10.4852 160.672 8.16395 160.505 5.8879 160.261L5.91962 160.212C6.18369 160.188 5.27472 158.493 4.35629 156.78C3.41787 155.03 2.46958 153.262 2.7526 153.239C4.32648 149.709 3.2981 147.033 2.22171 144.231C1.44353 142.206 0.640255 140.115 0.77704 137.59C1.04382 132.661 2.67132 130.251 4.69026 127.262C5.54596 125.995 6.47198 124.624 7.39452 122.912C8.91602 120.091 9.13473 116.86 9.35363 113.627C9.40036 112.937 9.44709 112.246 9.5065 111.56C9.53759 111.139 9.54319 110.682 9.54896 110.211C9.5651 108.893 9.5826 107.464 10.1641 106.396C10.6297 105.528 11.324 105.214 12.0458 104.887C12.6545 104.611 13.2829 104.326 13.8101 103.693C16.994 99.9158 19.4208 95.6594 21.8606 91.3804L21.8607 91.3803C23.086 89.2312 24.3147 87.0763 25.6441 84.9736C30.8015 76.789 28.0857 73.9454 22.2518 67.8369L22.2507 67.8357C21.7474 67.3088 21.2209 66.7575 20.6743 66.1765C19.8519 65.3147 18.7092 64.3837 17.5059 63.4032C15.0921 61.4364 12.4345 59.271 11.6292 57.0681C10.5103 53.9693 12.0153 47.2327 12.7271 44.0468L12.7326 44.0218C13.076 42.4864 13.6666 41.1284 14.2568 39.7714C14.7979 38.5272 15.3387 37.2839 15.6883 35.9052C16.5177 32.6246 16.7211 28.9678 16.92 25.3922V25.3922C17.0176 23.6377 17.1142 21.9028 17.283 20.2416C17.7847 15.2991 18.7216 10.9847 20.2317 6.99597C20.9129 5.20048 21.0827 3.46263 21.2674 1.57099C21.3023 1.21439 21.3377 0.852337 21.3771 0.483398C21.353 0.708919 21.7264 1.03822 22.0942 1.36252C22.451 1.67715 22.8024 1.98707 22.7804 2.19299C24.964 2.41729 27.1884 2.57784 29.4213 2.73901C33.7127 3.04875 38.0357 3.36077 42.1609 4.13198C45.0403 4.67003 47.7461 5.47054 50.4464 6.26945L50.4465 6.26946C53.944 7.3042 57.4324 8.33625 61.2771 8.79187C64.7062 9.19746 68.1463 9.56804 71.5912 9.92435C72.6586 9.03029 73.8665 8.44306 75.2288 8.33635L74.8335 10.256C76.1271 10.3871 77.421 10.5172 78.7151 10.6472L78.7153 10.6472L78.7158 10.6473C82.2107 10.9985 85.7062 11.3497 89.1955 11.7226L89.5763 11.7624C91.0518 11.9167 92.5264 12.071 94.0001 12.2201C95.3486 12.19 96.5858 12.1664 97.6468 12.1714C104.317 12.2206 110.964 11.2836 117.608 10.347C122.229 9.69572 126.848 9.04458 131.473 8.72541C140.403 8.11022 146.766 9.30032 152.584 11.0255C160.674 11.5045 168.826 11.3641 176.981 11.2236C185.327 11.0798 193.676 10.936 201.966 11.4559C207.432 11.8051 212.904 12.5065 218.371 13.2072L218.371 13.2072L218.371 13.2072C221.516 13.6104 224.66 14.0133 227.8 14.3489C232.402 14.8407 237.012 15.2832 241.624 15.7258C242.739 15.8328 243.854 15.9398 244.969 16.0475C247.026 15.8169 249.075 15.5226 251.125 15.2283C254.85 14.6933 258.575 14.1584 262.35 14.0055C269.946 13.6894 277.542 13.5223 285.138 13.3551C286.223 13.3312 287.309 13.3073 288.394 13.283C294.706 13.1453 301.084 11.6837 307.341 10.2503C309.92 9.65933 312.478 9.07317 315.003 8.58646C329.172 5.83524 342.41 5.27943 356.945 5.72408C359.478 5.80627 361.999 5.85998 364.509 5.91346C375.577 6.14928 386.439 6.38071 397.257 9.03111C402.612 10.3372 407.735 11.2265 413.289 11.8379C416.662 12.2042 419.923 12.9277 423.195 13.6533C426.376 14.3591 429.568 15.067 432.88 15.4506C434.401 15.6267 435.763 15.7875 436.996 15.9332C448.228 17.2596 448.875 17.336 462.87 16.2843C469.423 15.7841 474.711 15.8675 481.197 16.8123C481.592 16.8688 481.986 16.9258 482.378 16.9826C487.004 17.6524 491.443 18.2952 496.165 17.7572C501.544 17.1506 506.89 16.209 512.232 15.268C517.658 14.3122 523.08 13.3572 528.528 12.755C531.864 12.3937 535.353 12.6502 538.813 12.9046C540.942 13.0611 543.06 13.2168 545.125 13.2274C548.945 13.2401 552.716 12.9815 556.493 12.7226C561.003 12.4133 565.521 12.1035 570.137 12.2548C582.198 12.6429 594.103 11.7559 606.015 10.8683C615.423 10.1673 624.835 9.46596 634.331 9.39238C642.68 9.3368 650.164 9.72586 657.98 12.2548C660.824 13.1718 663.651 14.1028 666.478 15.0337C669.305 15.9647 672.133 16.8957 674.977 17.8128C674.522 18.341 674.062 18.8668 673.602 19.3923C672.513 20.6362 671.425 21.8786 670.42 23.1485C667.69 26.5522 664.941 33.6541 662.031 41.1719C658.171 51.1477 654.026 61.8558 649.266 65.6275C644.475 69.4061 638.856 72.3302 633.261 75.2419C627.046 78.4762 620.86 81.6952 615.871 86.0533C613.61 88.018 611.595 90.057 609.578 92.0977C607.145 94.5599 604.709 97.0246 601.835 99.3648C597.212 103.116 592.389 106.257 586.735 108.897C585.754 109.351 583.967 109.879 581.986 110.464C578.39 111.526 574.154 112.778 572.931 114.121C570.603 116.65 571.268 122.875 571.601 125.932C572.113 130.513 575.101 133.607 578.276 136.895C580.051 138.733 581.884 140.632 583.375 142.884C585.878 146.684 587.954 150.627 590.031 154.573C591.128 156.658 592.226 158.743 593.387 160.809C593.865 161.663 594.331 162.598 594.807 163.55C595.754 165.448 596.737 167.415 597.91 168.951C599.01 170.37 601.006 171.415 602.981 172.449C604.411 173.197 605.83 173.94 606.891 174.815C609.527 176.958 611.467 179.56 613.409 182.167C615.07 184.394 616.732 186.624 618.832 188.571C621.599 191.145 624.661 193.358 627.713 195.564C630.823 197.811 633.923 200.052 636.693 202.661C641.49 207.164 645.365 216.595 649.018 225.486C651.722 232.068 654.304 238.353 657.049 242.124C656.182 241.841 655.311 241.553 654.437 241.265C652.996 240.79 651.546 240.312 650.097 239.845C642.281 237.316 634.83 236.927 626.448 236.983C616.952 237.056 607.54 237.758 598.132 238.459C586.22 239.346 574.315 240.233 562.254 239.845C557.638 239.694 553.12 240.004 548.61 240.313C544.833 240.572 541.062 240.83 537.242 240.818C535.111 240.818 532.934 240.657 530.752 240.495C527.347 240.243 523.928 239.99 520.645 240.345C515.197 240.948 509.775 241.903 504.349 242.858C499.007 243.799 493.661 244.741 488.282 245.348C483.578 245.887 479.102 245.239 474.459 244.568C474.079 244.513 473.697 244.458 473.314 244.403C466.828 243.458 461.54 243.402 454.987 243.875C440.992 244.926 440.345 244.85 429.114 243.524C427.88 243.378 426.518 243.217 424.997 243.041C421.693 242.658 418.517 241.953 415.347 241.249C412.072 240.521 408.804 239.795 405.406 239.428C399.852 238.817 394.73 237.928 389.375 236.622C378.554 233.97 367.71 233.74 356.629 233.504C354.12 233.45 351.598 233.397 349.062 233.314C334.527 232.842 321.289 233.426 307.12 236.121C304.566 236.612 301.983 237.203 299.382 237.799C293.143 239.228 286.802 240.681 280.511 240.818C279.425 240.842 278.34 240.866 277.254 240.89C269.659 241.057 262.063 241.224 254.467 241.54C250.686 241.693 246.947 242.23 243.212 242.766C239.488 243.3 235.769 243.833 232.016 243.986C228.563 244.127 225.076 243.961 221.604 243.795C220.293 243.733 218.984 243.67 217.68 243.625C210.637 243.4 203.669 244.037 196.704 244.674C189.033 245.376 181.367 246.077 173.609 245.626C163.92 245.062 157.314 242.798 150.953 240.618C143.187 237.956 135.787 235.42 123.591 236.26C118.958 236.579 114.343 237.233 109.73 237.887C103.082 238.83 96.4405 239.772 89.7639 239.706C88.443 239.694 86.844 239.729 85.0945 239.767C79.0468 239.9 71.1995 240.072 66.8138 238.456L67.346 235.871C67.653 234.38 66.4984 227.069 65.4794 220.617C64.7324 215.886 64.0582 211.618 64.0864 210.442C64.0967 209.533 64.1652 208.63 64.2334 207.729C64.3842 205.738 64.534 203.761 64.0531 201.771C63.7665 200.625 63.2815 199.278 62.8029 197.949C62.2262 196.347 61.6586 194.771 61.4587 193.601C61.309 192.726 61.309 191.864 61.309 191.006C61.3091 190.148 61.3091 189.294 61.1594 188.432C60.9225 187.23 60.2167 186.269 59.5173 185.317C58.9399 184.531 58.3669 183.751 58.0661 182.846C56.8334 179.108 57.1674 173.341 57.7241 168.303C53.2744 167.851 48.8263 167.386 44.3845 166.86C40.5399 166.405 37.0516 165.373 33.5541 164.338L33.5539 164.338L33.5536 164.338C30.8533 163.539 28.1476 162.738 25.2684 162.2C21.2353 161.446 17.0121 161.142 12.8153 160.84Z" fill="white"/>
</svg>
