<svg width="678" height="255" viewBox="0 0 678 255" fill="none" xmlns="http://www.w3.org/2000/svg">
<path d="M61.432 171.143C61.9642 167.03 65.0242 164.529 65.7892 160.944C66.7871 156.247 66.1218 150.661 66.3214 145.854C66.6872 135.905 68.9822 126.345 69.3813 116.368C69.5809 111.144 69.9801 105.891 70.1132 100.667C70.2795 94.2752 67.6186 88.5504 66.9201 82.242C65.8225 72.0986 65.0907 42.4587 67.8181 32.621C68.8492 28.8971 71.8427 17.8366 78.2288 17.3364L77.6967 19.9209C83.3178 22.0051 94.7264 21.1436 100.647 21.1714C111.956 21.2548 123.198 18.5036 134.474 17.7254C156.659 16.197 163.006 25.8124 184.492 27.0907C199.294 27.9522 213.729 24.6174 228.563 25.0898C233.32 25.2288 238.143 25.6456 242.899 25.4511C250.449 25.1454 257.8 23.3113 265.35 23.0056C274.031 22.6443 282.713 22.4775 291.394 22.283C300.308 22.0885 309.355 19.2539 318.003 17.5865C332.172 14.8353 345.41 14.2795 359.945 14.7241C373.649 15.1687 386.986 14.7797 400.257 18.0311C405.612 19.3373 410.735 20.2265 416.289 20.8379C422.942 21.5605 429.161 23.6725 435.88 24.4506C451.247 26.2292 450.337 26.4515 465.87 25.2844C472.423 24.7841 477.711 24.8675 484.197 25.8124C489.253 26.5349 494.042 27.3408 499.165 26.7572C510.008 25.5345 520.718 22.95 531.528 21.755C536.916 21.1714 542.703 22.1996 548.125 22.2274C556.507 22.2552 564.656 20.9769 573.137 21.2548C594.724 21.9495 615.811 18.5591 637.331 18.3924C645.68 18.3368 653.164 18.7259 660.98 21.2548C666.668 23.0889 672.289 24.9787 677.977 26.8128C676.447 28.5914 674.85 30.3422 673.42 32.1485C667.067 40.0687 660.614 68.0135 652.266 74.6275C642.154 82.6033 628.351 86.7718 618.871 95.0533C613.882 99.3885 610.091 104.085 604.835 108.365C600.212 112.116 595.389 115.257 589.735 117.897C586.974 119.175 577.827 121.037 575.931 123.121C573.603 125.65 574.268 131.875 574.601 134.932C575.399 142.074 582.218 145.604 586.375 151.884C590.2 157.692 593.028 163.834 596.387 169.809C597.817 172.366 599.148 175.645 600.91 177.951C602.806 180.397 607.363 181.731 609.891 183.815C614.78 187.789 617.275 193.347 621.832 197.571C627.42 202.768 634.205 206.492 639.693 211.661C648.042 219.498 653.596 242.259 660.049 251.124C657.754 250.374 655.426 249.596 653.097 248.845C645.281 246.316 637.83 245.927 629.449 245.983C607.929 246.15 586.841 249.54 565.255 248.845C556.773 248.567 548.624 249.846 540.242 249.818C534.787 249.818 529.033 248.762 523.645 249.345C512.835 250.54 502.125 253.125 491.282 254.348C486.193 254.931 481.37 254.125 476.314 253.403C469.828 252.458 464.54 252.402 457.987 252.875C442.454 254.042 443.364 253.82 427.997 252.041C421.279 251.263 415.092 249.151 408.406 248.428C402.852 247.817 397.73 246.928 392.375 245.622C379.103 242.37 365.799 242.759 352.062 242.314C337.527 241.842 324.289 242.426 310.12 245.121C301.439 246.789 292.425 249.623 283.511 249.818C274.83 250.012 266.149 250.179 257.467 250.54C249.917 250.846 242.533 252.68 235.016 252.986C230.26 253.18 225.437 252.791 220.681 252.625C205.879 252.152 191.411 255.487 176.61 254.626C155.09 253.375 148.776 243.732 126.591 245.26C115.282 246.038 104.073 248.817 92.764 248.706C86.8768 248.651 75.4683 249.54 69.8138 247.456L70.346 244.871C70.8782 242.287 67.0199 222.221 67.0864 219.442C67.1197 216.524 67.7516 213.662 67.0531 210.772C66.4211 208.243 64.8246 204.741 64.4587 202.601C64.1594 200.85 64.4588 199.155 64.1594 197.432C63.7271 195.237 61.7313 193.847 61.0661 191.846C59.27 186.4 60.8 176.645 61.4985 171.115L61.432 171.143Z" fill="white"/>
<path fill-rule="evenodd" clip-rule="evenodd" d="M301.827 37.7066L251.423 185.321C263.211 186.819 274.479 190.217 284.935 195.775L285.163 195.896C290.791 198.887 295.547 201.415 301.769 202.993C315.922 206.594 329.213 208.384 343.822 209.946C347.276 210.315 350.865 210.849 354.51 211.392C363.166 212.681 372.134 214.016 380.34 213.293C385.143 212.872 389.532 213.143 394.032 213.421C396.408 213.567 398.816 213.716 401.331 213.765C403.828 213.825 406.294 213.524 408.761 213.224C411.322 212.912 413.885 212.599 416.488 212.689C423.705 212.931 431.387 214.017 438.564 215.127C442.331 215.706 443.054 216.262 444.67 217.505C445.24 217.944 445.922 218.469 446.888 219.11C453.04 223.229 459.869 225.16 466.771 227.111C469.252 227.813 471.742 228.517 474.213 229.326C481.977 231.874 487.967 233.703 496.318 231.741C511.583 228.165 525.257 226.851 540.756 228.507L531.478 227.515C533.133 226.118 534.625 225.523 535.913 225.01C538.085 224.145 539.675 223.511 540.486 219.649C540.907 217.618 540.981 215.47 541.055 213.326C541.115 211.566 541.176 209.808 541.428 208.119C541.757 205.958 542.469 203.889 543.18 201.824C544.001 199.44 544.82 197.06 545.046 194.548C545.287 191.967 544.996 188.991 544.714 186.119C544.565 184.594 544.418 183.098 544.356 181.707C544.314 180.805 544.001 179.771 543.68 178.71C543.084 176.74 542.46 174.679 543.493 173.208C544.381 171.929 545.673 171.329 546.878 170.77C548.94 169.813 550.743 168.976 549.81 165.054C548.954 161.444 544.606 158.628 540.511 155.976C534.669 152.192 529.341 148.742 535.402 143.795C536.298 143.066 537.308 142.455 538.303 141.854C540.911 140.278 543.417 138.764 543.497 135.329C543.541 133.863 543.228 132.485 542.912 131.089C542.563 129.55 542.209 127.99 542.324 126.269C542.414 124.869 542.638 123.439 542.862 122.003C543.236 119.612 543.613 117.203 543.382 114.883C543.285 113.88 543.005 113.087 542.73 112.31C542.258 110.976 541.803 109.69 542.324 107.474C542.708 105.861 543.234 104.45 543.762 103.034C544.356 101.44 544.953 99.8403 545.352 97.9375C545.952 95.041 546.944 91.9485 548.253 89.3393C548.559 88.7336 548.868 88.1347 549.177 87.5359C550.389 85.1843 551.6 82.8346 552.653 80.0817C553.933 76.7557 554.644 75.2984 556.936 72.8999C557.559 72.2387 555.513 71.8523 553.262 71.4269C551.074 71.0134 548.69 70.563 548.376 69.7876C551.41 69.8858 554.491 70.1009 557.648 70.4384L548.37 69.4469C548.329 69.5672 548.333 69.6805 548.376 69.7876C536.521 69.404 525.388 70.8064 513.211 73.6725C504.859 75.6349 498.872 73.7791 491.105 71.2573C488.634 70.4481 486.144 69.7441 483.664 69.0427C476.762 67.0911 469.932 65.1601 463.78 61.0413C462.833 60.409 462.16 59.8901 461.595 59.4548C459.968 58.2003 459.241 57.64 455.456 57.0589C448.305 55.9511 440.594 54.8891 433.38 54.6204C430.778 54.5307 428.214 54.8431 425.653 55.1552C423.186 55.4558 420.721 55.7563 418.224 55.6969C415.784 55.64 413.448 55.4962 411.143 55.3542C406.574 55.0729 402.128 54.7991 397.233 55.2247C389.005 55.9276 380.037 54.5985 371.382 53.3156C367.745 52.7766 364.164 52.2458 360.715 51.8772C346.105 50.3159 332.815 48.5255 318.661 44.9246C312.382 43.3284 307.553 40.7769 301.827 37.7066Z" fill="white"/>
<path d="M8.88794 169.261C15.265 169.943 21.9967 170.028 28.2684 171.2C34.8772 172.435 40.5715 175.053 47.3846 175.86C56.6777 176.959 65.9988 177.797 75.3031 178.791C86.7766 180.017 98.1979 181.238 109.583 180.075C117.6 179.267 125.564 176.972 133.993 177.741C151.875 179.361 170.113 177.398 188.073 178.524C196.688 179.048 205.335 180.501 213.907 181.417C226.4 182.752 238.984 183.727 251.423 185.321L301.827 37.7066C291.372 32.1483 280.078 28.7473 268.316 27.2524C255.851 25.656 243.293 24.684 230.8 23.3489C222.201 22.43 213.577 21.0061 204.966 20.4559C187.005 19.3295 168.764 21.3188 150.886 19.6725C142.456 18.9038 134.492 21.1984 126.476 22.007C115.219 23.1307 103.925 21.9494 92.5763 20.7624L92.1956 20.7226C82.8913 19.7283 73.5441 18.888 64.2771 17.7919C57.4641 16.9845 51.7697 14.3669 45.161 13.132C38.8892 11.9595 32.1604 11.8484 25.7805 11.193C25.8252 10.7748 24.3296 9.92772 24.3771 9.48342C24.1285 11.8095 24.0414 13.862 23.2318 15.996C21.7217 19.9848 20.7848 24.2991 20.283 29.2416C19.7701 34.2886 19.9247 40.0149 18.6884 44.9052C17.9574 47.7877 16.3909 50.0787 15.7327 53.0218L15.7271 53.0468C15.0153 56.2328 13.5103 62.9693 14.6292 66.0681C15.8361 69.3692 21.2021 72.5861 23.6744 75.1765C30.5582 82.4943 34.2468 85.0825 28.6442 93.9736C24.6678 100.263 21.5932 107.019 16.8101 112.693C15.6578 114.077 14.0224 113.796 13.1641 115.396C12.3749 116.845 12.6247 118.96 12.5065 120.56C12.1688 124.463 12.2408 128.488 10.3946 131.912C7.29541 137.661 4.15694 139.573 3.77709 146.59C3.4511 152.608 8.46436 156.158 5.75265 162.239C5.19263 162.284 9.45355 169.163 8.91966 169.212L8.88794 169.261Z" fill="white"/>
</svg>
