<svg width="100" height="100" viewBox="0 0 100 100" fill="none" xmlns="http://www.w3.org/2000/svg">
<path fill-rule="evenodd" clip-rule="evenodd" d="M78.2599 57.3574H78.4343H78.5116C80.3166 54.8834 81.5353 52.0364 82.0767 49.0291C82.4123 46.5305 82.0767 39.2016 80.4409 38.2438C80.1054 39.3681 79.3085 41.0338 79.0568 42.408C78.4696 44.9898 79.0568 48.3628 78.4696 49.9035C76.4314 53.6615 77.0333 54.0613 78.4343 57.3574C78.446 57.385 78.4578 57.4128 78.4696 57.4407L78.2599 57.3574ZM21.7203 57.3574V56.8161C21.6766 56.4472 21.5922 56.0841 21.4687 55.7334C21.1751 54.9006 21.4687 55.4836 20.9654 54.8589C20.3996 52.5864 20.2153 50.2368 20.4201 47.9047C20.5656 46.2005 20.5656 44.487 20.4201 42.7828C20.0039 41.4231 19.7091 40.0296 19.5393 38.6186C18.1879 41.9892 17.6146 45.6177 17.8616 49.2373C17.9106 51.0238 18.3696 52.7755 19.2037 54.3592C19.7628 55.704 20.7497 56.8301 22.0139 57.5657L21.7203 57.3574Z" fill="#F3CCAC"/>
<path d="M79.0568 42.408C79.3085 41.0338 80.1054 39.3681 80.4409 38.2438C77.8493 35.5047 76.2246 35.7554 73.2686 38.4937C74.0931 34.803 73.8161 30.9538 72.4717 27.4169C71.9265 25.9594 71.0037 24.377 70.6262 23.2527C69.997 21.3788 69.7454 21.8369 68.7388 20.5044L68.0257 19.505C65.6978 17.5701 62.9809 16.1505 60.0565 15.3408L52.6745 14.0498H49.5707C45.9238 13.7694 42.2575 14.2226 38.7913 15.3824C36.713 16.2119 34.839 17.4759 33.2967 19.0885C32.4159 19.6299 32.7095 19.3384 32.0384 20.0879L27.2149 25.4598C26.7202 26.0975 26.3761 26.8376 26.2083 27.6251C26.1906 30.5091 25.7959 33.3787 25.0339 36.1617C22.1797 35.8601 20.9152 36.2891 19.5393 38.6186C19.7091 40.0296 20.0039 41.4231 20.4201 42.7828C20.5656 44.487 20.5656 46.2005 20.4201 47.9047C20.2153 50.2368 20.3996 52.5864 20.9654 54.8589C21.4687 55.4836 21.1751 54.9006 21.4687 55.7334C21.5922 56.0841 21.6766 56.4472 21.7203 56.8161V57.3574L22.0139 57.5657L23.8994 68.3125C23.8994 68.3125 29.8476 79.7328 34.8067 83.5C39.7657 87.2672 42.1467 87.375 44.7891 87.375H55.0652C57.9593 87.375 59.0918 86.875 62.6989 84.3125C66.306 81.75 69.7119 75.625 69.7119 75.625L74.8369 65.5625L77.3369 58.107L78.2599 57.3574H78.4343C77.0333 54.0613 76.4314 53.6615 78.4696 49.9035C79.0568 48.3628 78.4696 44.9898 79.0568 42.408Z" fill="#F3CCAC"/>
<path fill-rule="evenodd" clip-rule="evenodd" d="M43.2432 62.855C46.9761 60.4398 47.1858 65.3952 50.2896 63.2298C51.0866 62.6885 52.6385 61.3975 53.7709 61.6474C54.9023 62.0697 55.9628 62.6594 56.9167 63.3964C57.1264 62.6468 57.2942 62.8967 57.4619 62.0638C57.6197 60.5713 57.1832 59.0768 56.2456 57.8997C54.4747 54.4442 53.069 50.8158 52.0513 47.0727C52.0256 46.3564 51.8309 45.6561 51.4829 45.028C51.1349 44.4 50.6433 43.8618 50.0476 43.4568C49.452 43.0517 48.7689 42.7911 48.0533 42.6959C47.3377 42.6007 46.6096 42.6735 45.9275 42.9085C45.0887 43.2417 44.837 44.0329 44.6693 45.1989C44.7958 47.4874 44.7958 49.7812 44.6693 52.0698C44.0821 54.485 41.9429 57.275 42.0268 60.1899C42.1946 62.1055 42.9915 61.8556 43.2432 62.855Z" fill="#DEB795"/>
<path fill-rule="evenodd" clip-rule="evenodd" d="M62.0747 40.8267C63.1233 39.9522 66.269 40.8267 67.0659 41.368C69.3728 42.4091 70.1278 39.7856 68.5759 38.8279C65.2816 37.5426 61.6814 37.2387 58.2159 37.9534L56.8737 38.2449C52.218 38.9528 51.6308 42.9088 52.9311 43.6167C54.2313 44.3246 54.5249 43.6167 55.0701 42.9088C57.6706 40.7017 60.3131 42.2841 62.0747 40.8267Z" fill="#231F20"/>
<path fill-rule="evenodd" clip-rule="evenodd" d="M28.6876 41.1586C28.6876 41.9498 29.6523 42.1997 30.5331 42.0748C31.4139 41.9498 32.2528 41.3252 32.5464 41.3252C33.2606 41.5006 33.9919 41.5983 34.7274 41.6167C37.0602 41.1912 39.4688 41.512 41.6061 42.5328C42.9483 43.3657 44.7099 42.5328 43.8291 40.6173C42.1094 37.2443 34.7694 36.4531 31.2461 38.4519C30.4073 39.2015 28.1843 39.2848 28.6876 41.1586Z" fill="#231F20"/>
<path fill-rule="evenodd" clip-rule="evenodd" d="M40.6807 72.1413C41.1001 73.2657 43.0714 73.4322 43.9103 73.8903C45.6067 74.14 47.331 74.14 49.0274 73.8903C50.697 73.4885 52.4494 73.59 54.0606 74.1818C54.6478 73.8486 55.4447 73.7237 55.99 73.3906C56.5352 73.0574 56.9127 72.641 57.4999 72.0164C54.6897 70.3507 51.8376 71.5167 48.8177 70.6422C47.4378 70.2426 45.9827 70.17 44.5695 70.4304C43.1562 70.6908 41.8242 71.2768 40.6807 72.1413Z" fill="#E38D8C"/>
<path fill-rule="evenodd" clip-rule="evenodd" d="M43.8267 80.7604C40.5131 79.3029 41.1423 74.8472 43.8267 74.8889C45.5231 75.1385 47.2473 75.1385 48.9437 74.8889C50.6134 74.4871 52.3657 74.5886 53.977 75.1804C54.3964 76.263 55.445 75.1804 55.445 77.7622C55.445 80.344 46.0077 81.6765 43.8267 80.7604Z" fill="#6D6E71"/>
<path fill-rule="evenodd" clip-rule="evenodd" d="M21.7238 57.3989C22.4788 63.9783 21.1366 65.1859 23.6532 71.224C24.4081 73.0562 24.9954 75.3882 25.7923 77.0539C28.5186 82.5922 31.1191 87.0063 36.9073 88.8802C40.9254 90.3762 45.2015 91.0696 49.4902 90.9206C51.9383 91.0529 54.3931 90.8569 56.7884 90.3376C60.5129 89.2075 64.0062 87.4311 67.1064 85.0908C69.6158 82.3043 71.5662 79.0676 72.8527 75.5548C73.7335 73.5143 73.9432 71.8486 74.6981 69.8082C75.4531 67.7677 76.3759 66.4768 77.047 64.478C78.1181 61.8382 78.5491 58.9853 78.3053 56.1496C77.4777 54.1342 77.4777 51.8772 78.3053 49.8617C78.7247 48.321 78.3053 44.9479 78.8925 42.3661C79.0348 41.7854 79.217 41.2149 79.4378 40.6588C76.1662 39.3679 74.3207 39.3263 73.2721 39.9926C73.7037 43.4609 73.9417 46.9503 73.9851 50.4447C73.9851 52.3186 73.314 53.901 73.314 55.8998C73.314 55.8998 72.7268 62.6041 72.4752 62.9373C71.4685 64.4364 72.0138 63.7284 71.7621 65.644C71.5105 67.5595 69.7069 68.5589 69.1197 69.8082C68.5325 71.0574 68.2389 73.5143 66.4773 73.9723C64.7156 74.4304 64.9254 73.5976 64.1704 73.1395C63.8907 73.7417 63.4384 74.2486 62.8701 74.597L62.6185 72.6815C62.8777 73.5228 62.8777 74.4219 62.6185 75.2633C62.5146 75.4064 62.383 75.5275 62.2316 75.6198C62.0801 75.712 61.9117 75.7735 61.7361 75.8006C61.5605 75.8277 61.3813 75.8199 61.2087 75.7777C61.0362 75.7355 60.8738 75.6598 60.731 75.5548C60.018 76.0545 59.305 75.3049 58.2144 75.2216C57.1661 75.1759 56.1174 75.3025 55.1106 75.5964C55.7817 75.9295 54.7331 76.1794 54.6073 77.4703C53.3145 78.3171 51.8355 78.8424 50.295 79.0019C48.7546 79.1613 47.1982 78.9502 45.7573 78.3864C44.3732 77.8034 41.3113 79.0943 42.0243 77.0539C41.2693 76.0128 40.9758 76.7624 40.053 75.638C39.1303 74.5137 39.2141 74.7219 37.83 74.4304H37.4525C37.1589 75.0967 33.5099 74.8052 34.8101 72.1401C34.33 71.4329 33.8119 70.7517 33.2582 70.0996C32.9646 71.0574 32.7549 71.807 32.0418 72.0985C31.6166 72.2726 31.148 72.3141 30.6985 72.2174C30.2489 72.1207 29.8397 71.8904 29.5252 71.5571C27.47 69.475 29.1477 68.8504 27.3022 67.3929C25.4567 65.9355 25.8762 65.1859 25.0373 63.2288L27.1345 59.8974C27.8894 59.6059 25.5406 58.5232 25.247 56.4411C24.9534 54.359 24.8276 50.6945 24.7856 48.8623C24.7042 48.0862 24.5498 47.3194 24.3243 46.572C24.336 44.8964 24.4903 43.2247 24.7856 41.5749C24.7711 41.3392 24.7711 41.1028 24.7856 40.867C23.3596 39.9093 21.1785 40.8671 19.333 38.9932C19.3715 40.4226 19.6699 41.8333 20.2138 43.1574C20.3593 44.8616 20.3593 46.575 20.2138 48.2793C20.009 50.6114 20.1933 52.961 20.7591 55.2335C21.1366 55.8581 20.9688 55.2335 21.2624 56.108C21.3859 56.4587 21.4703 56.8217 21.514 57.1907L21.7238 57.3989Z" fill="#C2C4C6"/>
<path fill-rule="evenodd" clip-rule="evenodd" d="M66.7928 62.0545C67.0842 61.1645 67.4216 60.1339 68.6961 59.0654V58.6906C75.7426 52.9857 74.8199 57.3997 73.6874 61.3141C73.4236 62.1279 73.0421 62.8994 72.5549 63.6044C72.1099 64.2672 71.9764 64.3764 71.9405 64.5116C71.8953 64.6822 72.0057 64.894 71.8419 66.3111C71.6529 67.9459 70.8038 68.7356 70.0995 69.3905C69.7095 69.7532 69.3639 70.0746 69.1995 70.4753C69.1533 70.5878 69.1017 70.7174 69.0449 70.8598C68.5349 72.1401 67.6139 74.4521 66.557 74.6395C65.6475 74.8007 65.216 74.4874 64.7169 74.1252C64.5715 74.0196 64.4204 73.91 64.2501 73.8066V73.4735C63.1177 72.4741 63.4951 67.1023 64.7954 65.1451C64.9956 64.838 65.18 64.6406 65.3794 64.427C65.6396 64.1485 65.9254 63.8425 66.3054 63.2296C66.5233 62.878 66.6527 62.4825 66.7928 62.0545ZM79.8676 40.9124C79.7781 41.1475 79.6879 41.3843 79.6014 41.6174L79.4336 41.7424C77.4623 43.6579 73.268 43.4913 73.268 41.3676V39.4937C74.0924 35.803 73.8154 31.9538 72.471 28.4169C72.2015 27.6965 71.8397 26.9455 71.4971 26.2344C71.1467 25.507 70.8164 24.8213 70.6255 24.2527C70.2182 23.0397 69.9692 22.8039 69.5711 22.4269C69.3542 22.2216 69.0931 21.9743 68.7381 21.5044L68.025 20.505C65.6971 18.5702 62.9802 17.1505 60.0558 16.3408L52.6738 15.0499H49.57C45.9231 14.7694 42.2568 15.2226 38.7906 16.3824C36.7761 17.1662 34.9478 18.3574 33.4218 19.8804C32.9746 20.1552 32.8302 20.2154 32.7085 20.3061C32.5905 20.3941 32.4939 20.5108 32.1635 20.8798L27.34 26.2516C26.8453 26.8894 26.5013 27.6294 26.3334 28.4169C26.2432 31.2383 25.7922 34.0369 24.9912 36.7453V41.1594C24.4616 40.7562 23.7387 40.6703 22.9415 40.5756C21.8447 40.4453 20.6073 40.2983 19.5386 39.2855C19.5386 38.9492 19.5161 38.5198 19.4913 38.0463C19.4331 36.9366 19.3622 35.5848 19.5386 34.6216C19.6386 33.9442 19.7928 33.2758 20 32.6228C20.06 32.4201 20.1304 32.2208 20.2002 32.0229C20.3743 31.5299 20.5452 31.0459 20.5452 30.5407C20.6005 29.875 20.8163 29.2323 21.1744 28.6668C21.483 25.9181 22.2632 23.2422 23.4813 20.7548C23.705 20.3105 23.8203 20.209 23.9562 20.0893C24.1005 19.9622 24.2681 19.8146 24.6137 19.2141C25.2452 18.1924 25.6159 17.9605 26.0166 17.7099C26.3345 17.511 26.6713 17.3003 27.1723 16.6739C27.8892 15.7776 27.9674 15.7491 28.2155 15.6587C28.3594 15.6063 28.5603 15.5331 28.9758 15.2581C30.0242 14.5567 30.7259 13.7446 31.3095 13.069C31.8 12.5013 32.2072 12.03 32.6668 11.8018C33.7887 10.7136 35.2928 10.1014 36.8612 10.0945H37.2806C43.9282 8.96809 50.673 8.50771 57.4134 8.72033C58.6433 8.76244 60.0233 9.51768 61.3691 10.2542C62.6853 10.9745 63.9687 11.6769 65.0471 11.6769C67.3507 11.9664 69.5226 12.9045 71.3064 14.3803C73.0902 15.8561 74.4112 17.808 75.1135 20.0053C75.4146 20.6033 75.5494 21.1631 75.6734 21.6779C75.7739 22.0951 75.8672 22.4827 76.0362 22.8369C76.571 23.6966 76.9938 24.6201 77.2945 25.5853C78.9917 29.9954 80.0508 34.622 80.4403 39.3271C80.2923 39.7971 80.0818 40.3498 79.8676 40.9124ZM25.5907 65.2484C25.4521 64.8455 25.2954 64.3901 25.0751 63.8542H24.9493C22.1364 56.8725 24.5978 58.185 28.0551 60.0285C28.2064 60.1092 28.3597 60.1909 28.5145 60.273C29.6383 60.8588 30.5806 61.7368 31.2408 62.8132C31.5159 63.3175 31.7377 63.8961 31.9654 64.4901C32.1888 65.0731 32.4179 65.6709 32.7088 66.2278C33.3551 67.5156 33.5612 68.9775 33.296 70.392V70.7251C33.2871 70.7543 33.2782 70.7832 33.2694 70.812C32.9892 71.7281 32.771 72.4413 32.0796 72.724C31.6544 72.8981 31.1859 72.9396 30.7363 72.8429C30.2868 72.7462 29.8775 72.5159 29.5631 72.1826C28.345 71.1558 28.2477 70.3791 28.1602 69.6812C28.0881 69.1054 28.0226 68.5832 27.34 68.0184C26.2266 67.0972 25.9798 66.3798 25.5907 65.2484ZM34.8464 72.0574C36.4969 68.1254 39.4586 64.8763 43.2351 62.8545C45.3024 61.5881 46.2858 62.3482 47.2191 63.0696C48.0657 63.724 48.8712 64.3466 50.4074 63.3959C50.522 63.318 50.6523 63.2247 50.7946 63.1226C51.6421 62.5151 52.9191 61.5996 53.8887 61.8135C55.02 62.2358 56.0806 62.8254 57.0344 63.5624C57.3068 63.8359 57.6014 64.0866 57.9153 64.312L59.0058 65.1032C60.9327 67.1344 62.2162 69.6829 62.6968 72.4322C62.956 73.2735 62.956 74.1726 62.6968 75.014C62.5929 75.157 62.4614 75.2782 62.3099 75.3705C62.1584 75.4627 61.99 75.5242 61.8144 75.5513C61.6388 75.5784 61.4596 75.5706 61.287 75.5284C61.1145 75.4862 60.9521 75.4104 60.8093 75.3054C60.3737 74.8441 60.109 74.3778 59.8621 73.9428C59.3957 73.1212 58.9928 72.4113 57.6217 72.0574C55.9879 71.089 54.34 71.0777 52.6532 71.0661C51.4385 71.0578 50.2037 71.0493 48.9394 70.6832C47.5563 70.2894 46.0994 70.2236 44.686 70.4912C43.2727 70.7589 41.9424 71.3524 40.8024 72.224C40.1571 72.4073 39.5853 72.7858 39.1666 73.3066C38.9067 73.5432 38.6915 73.702 38.4806 73.8577C38.2831 74.0034 38.0895 74.1463 37.8664 74.3477H37.4889C37.1953 75.014 33.5462 74.7225 34.8464 72.0574Z" fill="#6D6E71"/>
<path fill-rule="evenodd" clip-rule="evenodd" d="M31.9532 49.0293C32.4182 49.737 33.0258 50.3415 33.7377 50.8047C34.4496 51.2678 35.2503 51.5796 36.0896 51.7204C36.9288 51.8613 37.7883 51.828 38.614 51.6229C39.4396 51.4177 40.2136 51.0451 40.8871 50.5284C42.8165 48.9877 43.907 47.5302 40.8871 45.6147C39.6989 45.0936 38.3672 44.9908 37.1122 45.3232C35.8539 45.4897 31.6596 47.1138 31.9532 49.0293Z" fill="white"/>
<path fill-rule="evenodd" clip-rule="evenodd" d="M33.8832 46.5301C33.8137 47.07 33.8801 47.6186 34.0767 48.1267C34.2732 48.6349 34.5937 49.0867 35.0094 49.4416C35.4251 49.7965 35.923 50.0434 36.4585 50.1603C36.9939 50.2772 37.5503 50.2604 38.0775 50.1113C38.5923 50.0476 39.0827 49.8568 39.504 49.5564C39.9253 49.256 40.2641 48.8556 40.4894 48.3917C40.7146 47.9279 40.8192 47.4153 40.7936 46.901C40.7679 46.3866 40.6128 45.8869 40.3425 45.4474C39.2324 45.1315 38.0552 45.1315 36.9451 45.4474C35.8764 45.6568 34.8446 46.0216 33.8832 46.5301Z" fill="#D5A165"/>
<path fill-rule="evenodd" clip-rule="evenodd" d="M36.0238 45.5734C35.7476 45.9193 35.6003 46.3494 35.6066 46.7909C35.613 47.2323 35.7728 47.658 36.0588 47.9959C36.3449 48.3339 36.7397 48.5633 37.1765 48.6454C37.6133 48.7276 38.0653 48.6574 38.4559 48.4467C38.7329 48.2693 38.9607 48.0259 39.1184 47.7385C39.2761 47.4511 39.3587 47.1291 39.3587 46.8019C39.3587 46.4746 39.2761 46.1525 39.1184 45.8652C38.9607 45.5778 38.7329 45.3343 38.4559 45.157C37.9406 45.0955 37.4197 45.0955 36.9044 45.157C36.5852 45.2342 36.2854 45.376 36.0238 45.5734Z" fill="#231F20"/>
<path fill-rule="evenodd" clip-rule="evenodd" d="M37.3269 45.5729C37.2603 45.6462 37.2192 45.739 37.21 45.8373C37.2008 45.9357 37.2238 46.0344 37.2757 46.1187C37.3276 46.203 37.4055 46.2684 37.4979 46.3051C37.5902 46.3418 37.6921 46.3479 37.7882 46.3224C38.2495 46.0726 37.8301 45.2814 37.3269 45.5729Z" fill="white"/>
<path fill-rule="evenodd" clip-rule="evenodd" d="M54.147 47.9459C54.4825 50.1529 60.4804 52.7348 63.8778 50.2362C64.8845 49.5283 65.8072 48.987 66.0169 47.6544C66.4363 44.6562 62.6614 44.4064 60.019 44.3647C58.5091 44.3647 53.8114 45.8222 54.147 47.9459Z" fill="white"/>
<path fill-rule="evenodd" clip-rule="evenodd" d="M57.1247 45.0321C56.8005 45.5824 56.6512 46.2171 56.6964 46.8531C56.7416 47.489 56.9793 48.0966 57.3782 48.5962C57.7772 49.0958 58.3188 49.4641 58.9322 49.6529C59.5456 49.8417 60.2021 49.8422 60.8157 49.6543C61.3716 49.5807 61.8976 49.3609 62.3392 49.0177C62.7808 48.6744 63.122 48.2202 63.3273 47.702C63.5327 47.1839 63.5947 46.6206 63.5071 46.0707C63.4195 45.5207 63.1854 45.0039 62.829 44.574C61.8941 44.4929 60.9537 44.4929 60.0188 44.574C59.0364 44.582 58.0609 44.7364 57.1247 45.0321Z" fill="#D5A165"/>
<path fill-rule="evenodd" clip-rule="evenodd" d="M58.8031 44.5314C58.4459 44.8004 58.1944 45.1846 58.0915 45.6178C57.9886 46.0511 58.041 46.5064 58.2394 46.9055C58.4379 47.3047 58.7702 47.6227 59.1791 47.805C59.5881 47.9872 60.0482 48.0224 60.4804 47.9044C60.8556 47.8349 61.2032 47.6608 61.4826 47.4026C61.762 47.1444 61.9618 46.8125 62.0585 46.4459C62.1552 46.0792 62.1449 45.6927 62.0288 45.3316C61.9127 44.9706 61.6957 44.6497 61.4029 44.4064H60.0191C59.6101 44.3976 59.2016 44.4395 58.8031 44.5314Z" fill="#231F20"/>
<path fill-rule="evenodd" clip-rule="evenodd" d="M59.4698 44.8646C59.4129 44.8862 59.3613 44.9199 59.3189 44.9633C59.2764 45.0067 59.2439 45.0588 59.2238 45.1159C59.2036 45.173 59.1963 45.2338 59.2022 45.2941C59.2081 45.3543 59.2272 45.4126 59.2581 45.4647C59.289 45.5169 59.331 45.5617 59.3811 45.5962C59.4313 45.6306 59.4884 45.6537 59.5484 45.664C59.6085 45.6743 59.6701 45.6714 59.7289 45.6556C59.7878 45.6398 59.8424 45.6114 59.8891 45.5725C60.3085 45.3227 59.7633 44.5731 59.4698 44.8646Z" fill="white"/>
</svg>
