<svg width="417" height="327" viewBox="0 0 417 327" fill="none" xmlns="http://www.w3.org/2000/svg">
<path d="M58.6973 299.282C58.4629 290.088 57.7122 280.943 56.7264 271.816C54.5056 251.819 54.5312 263.771 53.0158 243.715C52.7906 246.645 52.9781 238.448 52.335 241.311C52.1502 243.421 53.2993 240.585 50.9873 240.341C51.0086 240.457 47.5119 242.078 47.5332 242.194C48.5908 273.908 49.2699 288.246 51.0602 319.922C52.9024 319.17 54.5724 318.051 55.9686 316.633C59.4165 311.631 58.5367 305.158 58.6973 299.282ZM45.7999 138.264C45.7278 137.872 45.6514 137.456 45.5792 137.064C45.4685 137.371 45.3621 137.701 45.2788 138.026L45.3212 138.257C45.5347 138.258 45.7475 138.283 45.9554 138.331L45.7999 138.264ZM51.3808 138.503C53.8952 156.203 54.1132 174.134 54.8895 191.987C55.696 210.263 57.0966 228.526 58.4469 246.774C59.7971 265.022 62.4773 282.716 62.6011 300.783C62.585 308.615 62.6951 318.69 54.6999 322.713C53.146 323.944 51.2797 324.717 49.3107 324.945C48.4961 324.803 47.7675 324.353 47.2763 323.687C46.7851 323.022 46.5691 322.193 46.6731 321.373C46.4347 318.648 46.2698 315.934 46.0775 313.201C45.4507 304.08 44.6119 294.974 44.0354 285.868C43.131 267.967 41.6451 250.15 41.0304 232.268C40.5336 223.075 39.7282 213.891 39.5631 204.685C38.2817 196.035 37.5625 187.31 37.4101 178.566C37.0803 163.978 37.7705 149.384 39.4759 134.893C39.5298 134.6 39.6889 134.337 39.9232 134.153C40.1576 133.969 40.4511 133.877 40.7484 133.895C40.9667 133.109 41.3786 132.39 41.9465 131.803C42.5144 131.217 43.2202 130.783 43.9993 130.54C44.7784 130.297 45.606 130.253 46.4063 130.413C47.2067 130.572 47.9543 130.93 48.5809 131.453C50.4254 133.369 51.4805 135.911 51.5363 138.57L51.3808 138.503Z" fill="#F58429"/>
<path d="M58.771 71.8702C63.9429 79.7498 69.6213 87.9182 66.479 97.8276C64.5697 104.837 58.9045 109.721 54.5779 115.266C52.0017 118.389 50.9743 122.277 49.1652 125.808C47.8943 127.593 46.4828 130.43 44.0182 130.525C43.6965 130.511 43.3812 130.431 43.0919 130.29C37.3139 129.108 35.7119 118.448 37.4115 113.673C39.95 105.283 48.8248 100.071 49.4324 90.914C50.0752 83.636 49.2861 76.3586 50.1913 69.08C50.4807 66.7596 50.5963 62.5856 53.9342 63.4755C54.4655 63.7353 54.9223 64.1257 55.2618 64.61C55.6013 65.0944 55.8123 65.6569 55.8753 66.2451C56.643 68.2154 57.6135 70.1005 58.771 71.8702Z" fill="#FBBD17"/>
<path d="M55.9318 103.538C51.8693 102.472 57.2893 93.5276 58.0088 91.0803C58.4759 89.2802 58.7288 87.4313 58.7621 85.5719C59.0031 84.2865 58.3025 81.3843 59.9835 81.0514C62.5155 81.0632 63.2002 84.3979 63.3575 86.4215C63.9896 90.7682 61.9525 94.7466 59.9253 98.389C58.8433 100.163 58.805 104.108 55.9318 103.538Z" fill="white"/>
<path d="M180.728 178.565C181.796 192.164 183.249 206.168 180.181 219.596C179.132 223.107 177.608 229.616 173.166 229.86C169.275 229.334 169.75 224.259 169.072 221.352C168.22 215.161 167.969 209.121 167.503 202.954C166.226 181.725 165.574 160.484 165.549 139.232C165.579 138.224 165.585 137.221 165.55 136.249C167.393 135.289 168.878 133.76 169.784 131.89C170.94 130.423 171.887 128.803 172.598 127.077C173.611 127.777 174.467 128.679 175.111 129.728C175.756 130.776 176.176 131.947 176.343 133.166C178.162 141.113 178.037 148.869 178.607 156.903C179.079 164.143 180.164 171.342 180.728 178.565Z" fill="#F58429"/>
<path d="M173.743 121.497C173.721 123.413 173.332 125.307 172.597 127.077C171.885 128.804 170.938 130.424 169.783 131.891C168.876 133.761 167.391 135.289 165.548 136.249C164.889 136.496 164.176 136.562 163.483 136.438C157.553 134.951 159.989 126.913 160.306 122.535C160.744 118.888 160.565 115.194 159.776 111.606C158.184 105.67 155.592 99.7504 156.297 93.4632C156.939 88.1744 158.753 83.0954 161.607 78.5968C162.524 77.3542 163.126 75.6924 164.451 74.8521C166.696 74.0813 167.761 76.3677 166.769 78.2445C165.961 80.8992 165.663 83.6831 165.891 86.4488C166.563 93.0907 167.889 99.6499 169.849 106.031C171.734 111.021 173.04 116.21 173.743 121.497Z" fill="#FBBD17"/>
<path d="M163.254 112.994C163.123 111.634 162.968 110.66 162.76 109.529C162.055 105.697 160.03 101.821 161.284 97.8674C161.671 96.5493 162.302 95.3159 163.145 94.2316C163.357 94.1293 163.599 94.1043 163.827 94.161C164.056 94.2177 164.257 94.3525 164.397 94.542C164.536 94.7316 164.605 94.964 164.592 95.199C164.578 95.434 164.483 95.6569 164.322 95.8291C164.05 97.4123 164.018 99.0273 164.224 100.62C164.649 102.929 165.816 104.862 166.274 107.093C166.618 109.029 166.81 110.988 166.85 112.954C166.81 113.4 166.606 113.815 166.277 114.119C165.948 114.424 165.518 114.595 165.07 114.6C164.622 114.605 164.188 114.444 163.853 114.147C163.517 113.85 163.304 113.44 163.254 112.994Z" fill="white"/>
<path d="M230.287 181.101C230.525 195.377 231.297 209.961 229.547 224.197C228.35 232.483 226.985 245.312 215.445 242.517C207.671 241.25 209.7 233.597 209.496 227.811C209.624 219.554 210.452 211.335 210.797 203.085C211.142 194.836 211.012 186.34 211.384 178.109C211.863 165.396 212.89 152.677 213.415 139.955C214.027 129.007 213.476 117.963 215.325 107.122C215.396 106.39 215.661 105.69 216.093 105.095C216.525 104.499 217.108 104.03 217.781 103.735C218.582 107.311 220.746 111.161 223.195 111.761C223.523 111.836 223.863 111.831 224.188 111.746C224.514 111.662 224.813 111.5 225.063 111.274C226.425 111.215 227.737 110.741 228.822 109.915C229.913 114.941 229.421 121.738 229.687 125.651C229.733 144.163 229.933 162.646 230.287 181.101Z" fill="#F58429"/>
<path d="M235.397 91.2595C236.842 97.8196 235.131 105.39 229.483 109.459L228.831 109.937C227.745 110.763 226.434 111.237 225.071 111.296C224.822 111.522 224.522 111.683 224.197 111.768C223.872 111.853 223.531 111.858 223.204 111.783C220.708 111.192 218.591 107.333 217.79 103.757C217.79 103.757 217.756 103.572 217.739 103.48C215.909 100.817 214.706 97.7745 214.218 94.5806C213.411 89.0249 214.548 83.3982 213.807 77.8066C213.031 71.1234 209.633 64.9702 208.113 58.5194C207.688 56.2108 205.755 53.225 207.733 51.2623C211.025 48.9149 212.84 53.8556 214.186 56.114C217.232 61.9476 220.822 67.4805 224.909 72.6389C229.19 78.2718 233.943 84.1283 235.397 91.2595Z" fill="#FBBD17"/>
<path d="M223.036 87.2556C222.643 85.4467 221.97 83.7104 221.04 82.1095C219.291 79.7343 216.69 77.6588 216.444 74.5059C216.369 73.6713 216.492 72.8307 216.805 72.053C217.212 71.0234 218.24 71.5505 218.443 72.3962C219.486 75.4741 222.778 76.6349 224.693 79.0035C226.275 81.1131 227.233 83.6245 227.458 86.2517C227.415 86.7652 227.204 87.2503 226.858 87.6322C226.512 88.014 226.05 88.2713 225.543 88.3645C225.037 88.4577 224.513 88.3815 224.054 88.1477C223.595 87.9139 223.225 87.5355 223.002 87.0709L223.036 87.2556Z" fill="white"/>
<path d="M277.333 240.302C277.312 240.656 277.22 241.003 277.063 241.322C276.906 241.64 276.686 241.924 276.417 242.156C276.148 242.388 275.835 242.563 275.497 242.672C275.159 242.781 274.802 242.821 274.449 242.789C274.397 242.918 274.321 243.037 274.227 243.14C274.396 245.877 274.515 248.6 274.656 251.319C274.668 251.881 274.478 252.429 274.12 252.863C273.761 253.297 273.259 253.588 272.704 253.682C272.378 253.709 272.049 253.659 271.745 253.537C271.441 253.415 271.17 253.224 270.952 252.978C270.588 254.795 270.034 256.569 269.3 258.27C268.312 260.184 266.773 261.757 264.882 262.785C262.99 263.814 260.833 264.251 258.69 264.039C255.678 263.495 255.562 260.008 255.5 257.466C255.394 254.55 255.451 251.485 255.418 248.579C255.078 231.935 254.464 215.485 254.906 198.936C255.053 182.99 256.788 167.11 257.271 151.174C257.754 135.238 258.598 119.451 259.213 103.586C259.644 96.0604 259.169 88.415 260.16 80.9536C259.994 80.6453 259.892 80.3073 259.858 79.9591C261.074 81.7994 262.638 83.3846 264.463 84.6255L264.488 84.764C266.172 87.1751 268.859 85.5595 270.459 83.881C271.923 89.5068 271.517 95.4764 271.957 101.243C272.137 105.076 272.192 108.884 272.252 112.716C272.778 125.096 272.668 137.496 271.922 149.865C271.163 164.038 271.913 177.981 272.186 192.059C272.582 192.829 272.803 193.677 272.833 194.542C274.218 204.669 275.441 214.826 276.389 224.914C276.679 228.178 276.876 231.46 277.07 234.718C277.246 236.714 277.31 238.492 277.333 240.302Z" fill="#F58429"/>
<path d="M273.058 67.5331C274.513 72.8503 274.421 79.3588 270.684 83.6974L270.449 83.9792C268.849 85.6578 266.278 87.2521 264.478 84.8623L264.453 84.7237C262.629 83.4828 261.064 81.8977 259.848 80.0573C259.14 79.0656 258.456 78.0697 257.757 77.1242C252.179 70.1084 249.258 61.3475 249.51 52.3877C249.696 43.4036 253.418 34.7002 252.159 25.6477C251.65 24.0468 252.484 21.9603 254.42 22.1056C257.611 22.3302 260.573 30.2583 261.533 33.0172C263.479 39.0557 262.879 45.6577 265.231 51.5736C267.564 56.9919 271.533 61.7037 273.058 67.5331Z" fill="#FBBD17"/>
<path d="M259.795 66.392C259.474 64.4948 259.003 62.6262 258.386 60.8038C257.411 58.7889 256.574 56.7101 255.881 54.5817C255.534 52.7541 255.925 50.8633 256.967 49.3225C257.222 48.8937 257.591 48.3009 258.153 48.2452C259.581 48.2214 258.82 50.0558 258.839 50.9354C258.71 52.9638 260.34 54.4302 261.412 55.9754C262.387 57.3125 263.185 58.7703 263.785 60.3124C264.458 62.1554 264.815 64.0989 264.842 66.0608C264.788 66.6695 264.519 67.239 264.082 67.6663C263.645 68.0936 263.07 68.3505 262.46 68.3905C261.851 68.4305 261.247 68.251 260.758 67.8844C260.269 67.5179 259.928 66.9885 259.795 66.392Z" fill="white"/>
<path d="M263.256 86.5179C258.672 83.7808 259.577 77.4092 257.498 73.1136C257.456 72.8827 257.294 72.65 257.182 72.4318C257.129 72.3423 257.096 72.2423 257.085 72.1388C257.074 72.0353 257.085 71.9305 257.117 71.8317C257.15 71.7328 257.204 71.6421 257.275 71.5658C257.345 71.4894 257.432 71.4292 257.528 71.3891C257.624 71.349 257.728 71.33 257.832 71.3334C257.936 71.3368 258.038 71.3625 258.131 71.4087C258.225 71.455 258.307 71.5207 258.373 71.6015C258.438 71.6823 258.486 71.7763 258.512 71.8771C259.416 73.5486 260.519 75.1357 261.275 76.9062C262.067 79.2082 263.269 81.3482 264.823 83.2228C265.036 83.0843 265.276 82.9908 265.527 82.9478C265.777 82.9048 266.035 82.9132 266.282 82.9726C266.53 83.032 266.762 83.1411 266.967 83.2933C267.171 83.4455 267.342 83.6376 267.469 83.8579C268.383 86.1005 264.932 87.451 263.256 86.5179Z" fill="#FBBD17"/>
<path d="M325.645 186.36C324.873 196.049 324.349 210.465 316.485 217.018C315.568 217.916 314.45 218.58 313.223 218.955C311.996 219.331 310.696 219.405 309.435 219.173C308.436 218.69 307.628 217.887 307.138 216.892C306.648 215.897 306.504 214.766 306.73 213.68C306.739 209.573 306.937 205.456 307.258 201.363C307.939 193.124 308.891 184.93 309.521 176.675L309.919 171.829C309.638 171.644 309.409 171.393 309.25 171.097C309.091 170.801 309.009 170.47 309.011 170.134C309.251 161.188 310.076 152.564 310.369 143.775C310.603 139.722 310.91 135.68 311.525 131.629C311.725 130.9 311.828 129.64 312.095 128.494C311.677 127.987 311.443 127.354 311.431 126.698C311.419 126.042 311.629 125.4 312.027 124.878C312.698 124.142 313.437 123.47 314.235 122.873C315.28 121.958 316.45 121.197 317.71 120.612C318.389 121.589 319.24 122.435 320.221 123.109C320.222 123.433 320.281 123.753 320.396 124.056C322.351 127.682 326.397 124.766 329.066 121.889C331.19 124.744 330.039 128.87 330.061 132.231C329.672 140.369 328.85 148.492 328.024 156.591C326.945 166.431 326.031 176.385 325.645 186.36Z" fill="#F58429"/>
<path d="M321.274 120.649C322.093 120.268 322.862 119.79 323.566 119.225C322.557 119.175 321.546 119.281 320.569 119.537C320.767 119.93 321.003 120.303 321.274 120.649ZM334.968 104.265C335.305 109.481 333.967 114.668 331.151 119.072C330.538 120.063 329.83 120.992 329.036 121.847C326.367 124.724 322.321 127.64 320.366 124.014C320.251 123.712 320.192 123.391 320.192 123.067C319.21 122.393 318.359 121.547 317.68 120.57C314.476 116.123 315.09 109.471 315.985 104.342C317.251 99.8693 318.92 95.5205 320.971 91.3491C323.206 86.2217 324.509 80.737 324.819 75.1524C324.967 72.3107 324.938 69.4625 324.731 66.6245C324.463 65.1701 324.43 63.4339 325.903 62.6143C327.92 61.3842 329.901 63.0725 330.363 65.064C332.214 70.2645 333.134 75.7508 333.08 81.2708C333.066 85.0919 332.606 88.9474 332.813 92.7996C333.02 96.6517 334.776 100.362 335.038 104.252L334.968 104.265Z" fill="#FBBD17"/>
<path d="M318.845 124.197C306.647 120.163 318.484 103.023 320.282 95.1504C320.305 95.0526 320.347 94.9603 320.406 94.879C320.464 94.7977 320.539 94.729 320.625 94.677C320.71 94.625 320.806 94.5907 320.905 94.5761C321.004 94.5615 321.106 94.567 321.203 94.5922C321.3 94.6174 321.391 94.6618 321.471 94.7228C321.55 94.7838 321.617 94.8602 321.667 94.9474C321.716 95.0346 321.748 95.1308 321.76 95.2305C321.772 95.3301 321.763 95.4311 321.736 95.5275C321.094 98.2707 320.361 101.031 319.688 103.732C318.478 108.442 313.435 123.593 323.513 119.735C323.914 119.583 324.356 119.585 324.755 119.739C325.154 119.893 325.482 120.189 325.677 120.571C325.871 120.952 325.918 121.392 325.808 121.805C325.698 122.219 325.439 122.577 325.082 122.812C324.202 123.476 323.189 123.943 322.113 124.182C321.037 124.421 319.923 124.426 318.845 124.197Z" fill="#FBBD17"/>
<path d="M318.541 110.339C318.16 108.078 318.196 105.766 318.647 103.517C320.064 99.9207 321.726 96.4255 323.621 93.0564C325.356 91.9738 325.611 94.7908 325.533 95.9268C325.655 100.224 322.4 103.806 323 108.111C323.125 109.83 323.43 112.137 321.138 112.391C320.829 112.451 320.512 112.444 320.206 112.369C319.901 112.295 319.615 112.156 319.369 111.961C319.122 111.766 318.92 111.52 318.778 111.24C318.635 110.96 318.554 110.653 318.541 110.339Z" fill="white"/>
<path d="M401.858 189.889C402.174 198.614 402.157 207.352 401.725 216.166C400.818 227.717 401.423 239.444 399.352 250.899C398.189 257.556 396.952 264.586 388.305 262.858C382.694 262.195 380.906 262.595 381.383 256.231C381.195 248.199 381.633 240.457 382.121 232.468C382.823 222.529 383.472 212.553 384.004 202.599C384.219 196.126 384.991 189.684 386.311 183.344L387.053 183.614C388.17 183.981 390.185 184.422 390.585 182.964C391.924 182.486 393.155 181.748 394.208 180.792C395.261 179.837 396.115 178.683 396.721 177.397C400.628 178.397 401.366 183.058 401.858 189.889Z" fill="#F58429"/>
<path d="M397.12 166.848C397.757 168.517 398.043 170.3 397.96 172.085C397.878 173.87 397.429 175.619 396.64 177.222C396.034 178.509 395.18 179.663 394.127 180.618C393.074 181.574 391.843 182.312 390.504 182.79C390.121 184.34 388.106 183.899 386.972 183.439L386.23 183.17C377.078 179.864 369.486 171.929 370.746 161.649C371.412 154.629 374.814 148.204 377.314 141.683C380.098 135.639 382.135 129.277 383.378 122.74C383.65 119.563 383.654 116.369 383.388 113.191C383.445 112.569 383.704 111.982 384.125 111.52C384.547 111.058 385.107 110.747 385.722 110.634C386.337 110.521 386.972 110.612 387.53 110.894C388.088 111.176 388.539 111.632 388.813 112.194C393.446 122.464 390.11 133.913 390.185 144.71C389.982 148.247 390.479 151.789 391.648 155.133C393.321 159.169 395.797 162.771 397.12 166.848Z" fill="#FBBD17"/>
<path d="M375.648 162.751C374.277 157.371 376.323 153.439 378.802 148.878C379.668 147.358 380.002 145.412 381.314 144.24C383.433 143.564 382.587 146.75 382.556 147.878C382.298 151.409 380.398 154.575 380.113 158.088C379.777 160.155 380.868 163.749 378.064 164.336C377.538 164.406 377.004 164.285 376.561 163.994C376.117 163.703 375.793 163.262 375.648 162.751Z" fill="white"/>
</svg>
