<svg width="129" height="130" viewBox="0 0 129 130" fill="none" xmlns="http://www.w3.org/2000/svg">
<path fill-rule="evenodd" clip-rule="evenodd" d="M86.0502 27.0196C86.6303 27.8901 87.267 28.7215 87.9561 29.5086C89.5439 31.8807 90.3973 34.6682 90.4093 37.5227C90.4214 40.3772 89.5917 43.1718 88.0239 45.5573C86.7425 47.4396 85.6315 48.413 82.0581 47.9407C80.9716 46.7646 80.1799 45.3474 79.7481 43.8057L75.5538 43.436C75.0803 42.5884 74.8002 40.873 74.3431 40.1518C68.7179 41.6396 67.6655 40.1929 67.0609 36.4886C60.9586 36.5882 63.844 30.1476 64.9297 27.2352C66.1816 23.5518 71.0381 22.8732 75.8909 22.5765C71.7829 18.7678 64.4274 18.1297 57.1911 18.2388C44.8465 18.6245 40.0877 25.5963 34.4791 30.2216C30.5009 33.7459 27.1049 37.877 24.4169 42.462C22.9312 44.7403 21.6159 47.1253 20.4819 49.5975C17.9745 55.4349 16.8346 61.7682 17.1494 68.1135C17.4642 74.4588 19.2254 80.6481 22.2983 86.2087C35.0034 108.951 44.8914 109.558 66.8807 109.101C78.3217 108.895 85.2163 109.194 94.9537 102.587C99.3013 99.5272 102.988 95.6225 105.793 91.1063C110.548 84.2725 114.756 75.2479 114.356 66.2755C114.061 60.2069 112.322 54.2963 109.282 49.0356C105.916 43.8358 92.0277 28.5903 86.0502 27.0196Z" fill="#B72223"/>
<path fill-rule="evenodd" clip-rule="evenodd" d="M86.0499 27.0213L85.0813 26.9385C84.3609 25.9761 83.4513 25.1713 82.4083 24.5737C81.3653 23.976 80.211 23.5982 79.0164 23.4633C78.1774 22.7384 77.294 22.6623 75.8748 22.6956C71.0633 22.9692 66.2068 23.6477 64.9136 27.3542C63.8856 30.37 60.9425 36.7072 67.0448 36.6077C67.6493 40.312 68.7017 41.7586 74.3269 40.2709C74.7427 41.0152 75.0641 42.7074 75.5377 43.5551L79.7319 43.9247C80.1637 45.4665 80.9555 46.8837 82.042 48.0597C85.6154 48.532 86.7264 47.5587 88.0078 45.6763C89.5702 43.2975 90.399 40.5119 90.391 37.6659C90.3831 34.8199 89.5388 32.039 87.963 29.6689C87.2457 28.8468 86.6053 27.9605 86.0499 27.0213Z" fill="#520000"/>
</svg>
