<svg width="517" height="664" viewBox="0 0 517 664" fill="none" xmlns="http://www.w3.org/2000/svg">
<path d="M84.0694 318.75C84.2075 319.525 84.5328 320.254 85.0168 320.875C85.5008 321.496 86.129 321.99 86.8469 322.313C88.5079 322.844 90.2532 323.062 91.9938 322.955C95.1574 322.99 98.3196 323.009 101.456 322.931C106.314 322.75 111.2 323.265 115.99 322.6C119.164 322.215 122.295 321.531 125.34 320.557C127.296 319.918 129.02 318.534 131.179 318.584C133.121 318.532 135.063 318.655 136.983 318.951C139.528 319.416 142.276 319.929 144.495 318.41C145.262 317.86 146.008 317.278 146.754 316.68C145.193 316.519 143.618 316.392 142.049 316.332C140.853 317.76 138.711 317.143 137.028 317.201C135.21 317.419 133.373 317.419 131.555 317.203C129.972 317.17 128.393 317.018 126.833 316.748C126.108 316.429 125.443 315.99 124.863 315.451C124.227 315.204 123.674 314.783 123.267 314.237C123.011 313.913 122.833 313.536 122.745 313.134C122.657 312.732 122.662 312.315 122.758 311.915C122.855 311.514 123.041 311.141 123.303 310.824C123.565 310.506 123.896 310.252 124.271 310.081L124.109 309.945C123.798 309.761 123.529 309.516 123.315 309.225C123.102 308.933 122.951 308.602 122.869 308.25C121.55 308.384 119.978 308.29 119.252 306.949C119.082 306.638 118.978 306.296 118.947 305.942C118.917 305.589 118.961 305.234 119.076 304.898C119.191 304.563 119.375 304.256 119.616 303.996C119.857 303.736 120.15 303.529 120.476 303.389C121.932 302.927 123.566 303.348 124.971 302.783C125.807 302.696 126.649 302.699 127.484 302.793C129.377 302.85 131.189 302.839 133.064 302.789C136.373 302.613 139.671 302.262 142.943 301.739L143.064 301.595C149.163 298.069 156.003 295.758 162.17 292.334C185.48 282.542 203.876 259.163 230.994 260.428C242.379 261.922 252.805 267.702 263.646 271.216C274.603 275.215 286.415 276.281 297.911 274.309C307.903 269.961 318.203 266.357 328.727 263.527C341.456 258.415 354.372 253.719 368.488 252.81C380.094 251.723 391.961 254.431 403.443 253.638C408.871 253.444 414.282 252.923 419.648 252.077L416.778 247.291C414.492 243.452 404.721 226.669 403.819 225.027C403.632 224.703 397.567 210.411 397.058 209.558C396.408 208.509 384.133 187.017 384.098 187.003C384.064 186.99 379.944 186.307 379.833 186.275C376.982 185.629 374.139 184.808 371.321 183.977C368.503 183.145 365.46 182.126 362.456 181.352C357.687 180.148 352.823 179.363 347.918 179.006C342.883 178.508 337.82 178.353 332.765 178.544C327.931 178.623 323.087 178.678 318.252 179.015C315.036 179.291 311.851 179.857 308.737 180.707C305.06 181.448 301.318 182.013 297.602 182.691C293.578 183.385 289.521 183.87 285.447 184.143C280.262 184.386 275.013 184.286 269.778 184.334C264.814 184.349 259.832 184.442 254.844 184.285C243.086 184.021 231.167 183.455 219.363 185.017C212.625 185.815 205.951 187.079 199.388 188.8C190.49 191.336 181.88 194.789 173.695 199.102C172.861 199.551 172.028 199.999 171.204 200.471C170.381 200.943 169.447 201.475 168.577 201.984L166.692 203.141C163.754 204.99 160.892 206.949 158.086 208.985C156.774 210.225 155.451 211.44 154.092 212.625L152.536 214.027C150.122 216.162 147.623 218.18 145.088 220.168L142.162 222.44L142.049 222.574C140.346 223.715 138.504 225.275 136.526 226.415C135.2 227.598 133.893 228.795 132.601 229.99L132.361 230.278L132.21 230.457L130.611 231.93C129.351 233.106 128.082 234.275 126.803 235.419C125.524 236.564 124.042 237.86 122.625 239.042L121.338 240.104L120.415 240.859C119.377 241.716 118.328 242.55 117.261 243.368C114.049 245.854 110.731 248.169 107.306 250.313L105.734 251.259C104.258 252.147 102.76 252.986 101.261 253.809C100.563 254.187 99.8464 254.55 99.1226 254.922C98.1043 255.445 97.0591 255.945 96.0214 256.436L93.6189 257.481C91.3005 258.474 88.9443 259.384 86.5502 260.211L76.8911 263.554C74.694 264.273 72.4536 264.852 70.1832 265.288C70.0337 265.122 69.8293 265.016 69.6079 264.99C68.8338 264.942 68.0572 265.019 67.3077 265.218C61.3039 266.732 55.1998 268.146 49.6069 271.012C45.1347 272.539 45.1535 276.788 48.6878 279.41C50.3856 280.832 52.0925 282.261 53.828 283.637L53.9268 283.72C54.3131 284.043 54.6994 284.367 55.0767 284.683C58.4778 287.775 61.6369 291.137 65.0004 294.274C69.8841 299.173 75.6094 303.339 79.468 309.152C81.3696 312.162 82.9139 315.383 84.0694 318.75Z" fill="#AACC9A"/>
<path d="M419.648 252.077L416.778 247.291C414.492 243.452 404.721 226.669 403.819 225.027C403.632 224.703 397.567 210.411 397.058 209.558C396.408 208.509 384.133 187.017 384.098 187.003C400.443 174.367 418.903 172.541 472.003 180.707L486.003 254.922C458.677 241.732 444.45 243.69 419.648 252.077Z" fill="#AACC9A"/>
<path d="M100.374 253.788C99.8596 254.057 99.3935 254.411 98.9947 254.833C99.7111 254.47 100.435 254.098 101.133 253.72C102.65 252.912 104.13 252.058 105.606 251.17L107.178 250.224C110.614 248.079 113.932 245.763 117.133 243.279C118.2 242.46 119.249 241.627 120.288 240.77L121.21 240.015L122.497 238.953C123.914 237.771 125.304 236.566 126.675 235.33C128.046 234.094 129.223 233.017 130.483 231.841L132.082 230.368L132.233 230.189L132.473 229.901C133.772 228.697 135.08 227.499 136.398 226.326C135.55 226.823 134.648 227.221 133.709 227.513C132.763 227.796 131.769 227.884 130.788 227.772C130.362 227.702 129.945 227.589 129.543 227.433C128.973 227.218 128.434 226.93 127.937 226.577C126.519 225.494 125.321 224.149 124.409 222.615C123.713 221.179 123.344 219.607 123.328 218.012L123.28 216.444C123.204 215.276 123.254 214.103 123.428 212.946L123.534 212.454C124.393 208.691 125.912 205.11 128.019 201.877C129.249 199.934 130.61 198.076 132.092 196.318L132.634 195.671C134.285 193.845 135.865 191.958 137.589 190.208C140.569 187.416 143.698 184.787 146.963 182.333C148.189 181.435 149.442 180.558 150.697 179.699C152.165 178.712 153.644 177.766 155.163 176.883C152.399 178.058 149.749 179.487 147.249 181.152C143.042 183.917 139.149 187.135 135.641 190.747C132.496 193.986 129.67 197.52 127.203 201.3C126.5 202.377 125.831 203.468 125.19 204.581L124.694 205.465L123.774 207.185C122.508 209.653 121.45 212.223 120.612 214.867C119.722 217.865 119.137 220.936 118.304 223.921C117.955 225.188 117.538 226.436 117.055 227.658C114.85 232.72 112.165 237.559 109.037 242.108C107.329 244.422 105.539 246.651 103.829 248.949C103.272 249.796 102.706 250.637 102.132 251.469C101.593 252.241 101.006 253.033 100.374 253.788Z" fill="#9D9B36"/>
<path d="M107.179 250.224C107.256 250.316 107.36 250.382 107.476 250.413C107.591 250.445 107.714 250.44 107.827 250.399L107.986 250.318C108.291 250.1 108.605 249.889 108.921 249.695L111.363 248.165C112.312 247.581 113.228 246.945 114.105 246.258C117.187 243.964 120.429 241.88 123.379 239.415C124.587 240.564 126.05 238.396 127.078 237.79C129.05 236.201 131.113 234.704 133.131 233.17C134.089 232.444 135.03 231.704 135.962 230.956C136.084 230.84 136.179 230.699 136.241 230.543C136.303 230.386 136.331 230.219 136.323 230.051L136.39 229.97L138.961 227.721C139.717 227.055 140.464 226.382 141.193 225.694C141.624 225.306 142.026 224.863 142.408 224.48C142.6 224.34 142.752 224.152 142.848 223.935C142.944 223.717 142.981 223.478 142.955 223.242C143.714 222.609 144.446 221.954 145.187 221.306C145.928 220.658 146.398 220.242 146.988 219.757C147.865 218.964 149.174 218.333 149.758 217.233C150.627 216.432 151.568 215.692 152.356 214.824C152.435 214.716 152.486 214.591 152.504 214.458C152.521 214.326 152.504 214.191 152.455 214.067C150.041 216.202 147.542 218.22 145.006 220.207L142.081 222.479L141.968 222.614C140.264 223.755 138.423 225.315 136.445 226.455C135.596 226.952 134.694 227.35 133.755 227.642L131.382 229.673L130.873 230.118L127.71 232.818L126.899 233.514C126.246 234.129 125.592 234.728 124.929 235.319C122.287 237.69 119.473 240.011 116.829 242.366L115.907 243.121C113.138 245.387 110.174 247.322 107.262 249.376C107.141 249.479 107.064 249.625 107.048 249.783C107.033 249.941 107.08 250.1 107.179 250.224Z" fill="#194128"/>
<path d="M168.148 202.421C168.105 202.476 168.083 202.545 168.086 202.614C168.09 202.684 168.118 202.75 168.165 202.801C168.213 202.852 168.277 202.884 168.346 202.892C168.415 202.9 168.485 202.883 168.543 202.844L171.203 200.487C172.189 199.601 173.174 198.699 174.113 197.759C178.382 193.372 182.027 188.417 185.906 183.673C191.073 177.502 194.57 170.222 198.778 163.37C200.77 160.133 203.042 157.237 205.199 154.168C205.582 153.71 205.879 153.21 206.216 152.698C208.212 149.601 210.34 146.585 212.187 143.394C212.619 142.641 213.033 141.872 213.447 141.103C214.85 138.541 216.029 135.863 216.971 133.098L218.488 128.256L220.308 122.323C221.205 119.208 221.975 116.079 223.023 112.983L222.362 114.065L222.317 114.119C221.895 115.079 221.482 116.048 221.085 117.014C220.486 118.514 219.922 120.028 219.408 121.554C218.469 125.454 217.163 129.257 215.508 132.912C214.079 136.045 212.46 139.088 210.66 142.024L210.429 142.427C208.575 145.627 206.503 148.705 204.613 151.875C202.723 155.045 200.313 158.161 198.399 161.433L198.323 161.523C195.243 167.027 192.475 172.67 189.058 177.938C186.95 181.002 184.523 183.829 182.245 186.751C179.019 190.604 175.988 194.607 172.489 198.203C171.189 199.482 169.869 200.73 168.549 201.978L168.148 202.421Z" fill="#194128"/>
<path d="M120.966 242.681C120.876 242.565 120.743 242.488 120.596 242.468C120.45 242.449 120.301 242.487 120.183 242.576C119.346 243.174 118.5 243.765 117.672 244.371C113.961 246.978 110.308 249.772 106.15 251.654C105.565 251.897 106.003 252.815 106.564 252.474C107.812 251.732 109.132 251.232 110.344 250.459C113.234 248.84 116.022 247.046 118.692 245.087L120.852 243.457C120.968 243.368 121.045 243.237 121.066 243.092C121.087 242.947 121.052 242.8 120.966 242.681Z" fill="#194128"/>
<path d="M153.018 302.46C153.034 302.238 152.965 302.019 152.824 301.848C152.684 301.676 152.483 301.565 152.262 301.537C149.401 301.279 146.526 301.226 143.657 301.376C140.726 301.484 137.791 301.324 134.89 300.897C130.888 300.391 126.929 299.594 123.043 298.512C120.668 298.174 107.503 293.493 106.962 295.928C106.793 296.55 107.763 296.797 107.89 296.17C111.54 296.063 115.051 297.582 118.526 298.505C124.144 299.953 129.681 301.991 135.444 302.462C139.789 302.946 144.163 303.126 148.533 302.998C149.649 303.016 150.766 303.05 151.77 303.111C152.34 303.252 152.981 303.07 153.018 302.46Z" fill="#194128"/>
<path d="M194.067 249.777C194.088 249.728 194.095 249.675 194.088 249.623C194.082 249.571 194.061 249.521 194.028 249.48C193.996 249.439 193.952 249.407 193.903 249.388C193.854 249.369 193.801 249.364 193.749 249.372C191.384 249.818 189.104 250.631 186.993 251.784C184.139 253.459 181.277 255.326 177.949 255.779C176.106 255.925 174.276 256.213 172.477 256.639C172.267 256.703 172.089 256.845 171.978 257.035C171.867 257.225 171.831 257.45 171.878 257.665C171.92 257.874 172.032 258.062 172.195 258.198C172.358 258.335 172.563 258.412 172.776 258.417C174.427 258.271 176.056 258.259 177.637 258.086C181.877 257.877 185.582 255.569 188.767 253.132C190.495 251.89 192.39 250.94 194.067 249.777Z" fill="white"/>
<path d="M166.288 258.102C166.929 257.646 166.862 256.887 165.928 257.236C164.355 257.691 162.826 258.276 161.232 258.683C158.826 259.175 156.375 259.417 153.919 259.406C150.394 259.606 146.99 260.768 144.079 262.765C143.884 262.906 143.747 263.113 143.692 263.346C143.636 263.58 143.666 263.826 143.776 264.039C143.899 264.277 144.111 264.457 144.365 264.542C144.619 264.627 144.897 264.609 145.138 264.492C146.159 264.003 147.14 263.433 148.199 262.99C150.737 261.784 153.602 261.83 156.371 261.825C160.011 261.788 163.522 260.47 166.288 258.102Z" fill="white"/>
<path d="M162.262 264.372C162.567 264.153 162.788 263.838 162.889 263.476C162.882 263.011 162.368 263.04 162.067 263.2C160.221 263.981 158.306 264.588 156.347 265.013C154.266 265.337 152.167 265.534 150.062 265.603C146.949 266.05 143.938 267.034 141.163 268.512C140.919 268.644 140.734 268.862 140.645 269.124C140.555 269.386 140.567 269.672 140.679 269.925C140.79 270.178 140.993 270.38 141.247 270.491C141.5 270.601 141.786 270.612 142.048 270.521C144.504 269.522 146.673 268.373 149.318 268.097C150.969 267.951 152.571 268.009 154.157 267.793C157.142 267.497 159.968 266.305 162.262 264.372Z" fill="white"/>
<path d="M138.431 265.295C138.477 265.188 138.492 265.072 138.476 264.957C138.46 264.843 138.413 264.735 138.34 264.646C138.267 264.556 138.171 264.488 138.062 264.45C137.953 264.411 137.836 264.403 137.722 264.426C137.651 264.436 137.583 264.461 137.521 264.5C137.46 264.538 137.408 264.589 137.368 264.649C135.992 265.106 134.562 265.378 133.115 265.458C130.637 265.461 128.169 264.832 125.672 265.003C123.148 265.174 120.655 265.652 118.247 266.426C118.122 266.452 118.004 266.503 117.9 266.577C117.797 266.65 117.71 266.745 117.644 266.854C117.579 266.963 117.538 267.085 117.522 267.211C117.507 267.337 117.518 267.465 117.555 267.587C117.592 267.709 117.654 267.821 117.737 267.918C117.82 268.014 117.922 268.092 118.037 268.147C118.152 268.202 118.277 268.232 118.404 268.235C118.531 268.239 118.657 268.216 118.775 268.168C120.171 267.559 121.649 267.159 123.161 266.981C126.785 266.485 130.376 267.963 133.974 267.37C135.378 267.121 136.721 266.607 137.932 265.855C138.144 265.714 138.316 265.521 138.431 265.295Z" fill="white"/>
<path d="M126.81 269.485C127.073 269.262 127.257 268.805 126.95 268.533C126.914 268.496 126.868 268.47 126.818 268.457C126.767 268.445 126.715 268.446 126.665 268.462C126.616 268.478 126.572 268.506 126.538 268.545C126.504 268.584 126.481 268.632 126.473 268.683C124.918 269.062 123.292 268.832 121.699 269.056C120.19 269.215 118.723 269.649 117.371 270.338C116.319 270.991 115.188 271.508 114.006 271.875C113.569 272.014 113.041 272.061 112.797 272.498C112.7 272.677 112.66 272.88 112.681 273.082C112.702 273.284 112.784 273.475 112.916 273.63C113.047 273.784 113.222 273.896 113.418 273.949C113.614 274.002 113.821 273.995 114.013 273.929C116.461 273.305 118.396 271.96 120.714 271.273C122.709 270.605 125.145 270.872 126.81 269.485Z" fill="white"/>
<path d="M112.511 267.799C112.653 266.389 108.985 267.521 108.281 267.833C106.132 269.211 103.755 270.196 101.262 270.742C99.4637 270.971 97.6917 271.37 95.9696 271.935C95.7733 272.082 95.6281 272.287 95.5545 272.521C95.4809 272.755 95.4825 273.006 95.5592 273.239C95.6359 273.472 95.7837 273.675 95.9819 273.819C96.18 273.964 96.4186 274.042 96.6638 274.044C98.5111 273.545 100.389 273.167 102.286 272.914C104.228 272.562 106.066 271.777 107.663 270.616C108.744 269.566 110.046 268.771 111.474 268.29C111.885 268.237 112.428 268.355 112.511 267.799Z" fill="white"/>
<path d="M114.196 277.214C114.219 277.166 114.227 277.113 114.219 277.06C114.212 277.008 114.189 276.959 114.153 276.919C114.118 276.88 114.071 276.851 114.02 276.838C113.968 276.825 113.914 276.827 113.864 276.845C113.433 276.982 112.992 277.088 112.545 277.161C109.057 277.878 105.375 277.439 101.971 278.531C99.4153 279.447 97 280.817 94.4314 281.677C93.5157 281.95 92.5867 282.165 91.6246 282.383C91.3137 282.48 91.0493 282.688 90.8819 282.967C90.7145 283.246 90.6558 283.577 90.717 283.897C90.7783 284.217 90.9552 284.503 91.214 284.7C91.4727 284.898 91.7952 284.993 92.1198 284.968C96.4619 284.6 100.041 282.003 104.012 280.545C106.6 280.11 109.155 279.497 111.659 278.712C112.627 278.456 113.505 277.938 114.196 277.214Z" fill="white"/>
<path d="M300.301 260.557C300.985 259.448 298.795 258.395 298.163 257.636C297.552 257.124 296.941 256.613 296.366 256.131C296.205 256.005 296.005 255.94 295.801 255.949C295.702 255.953 295.605 255.978 295.516 256.022C295.427 256.066 295.348 256.128 295.284 256.204C295.221 256.28 295.173 256.368 295.146 256.464C295.118 256.559 295.111 256.659 295.124 256.757C295.159 256.969 295.271 257.16 295.438 257.295C296.39 258.092 297.333 258.882 298.285 259.679C298.761 260.261 299.638 261.331 300.301 260.557Z" fill="#194128"/>
<path d="M163.994 203.313C162.008 205.211 160.04 207.124 158.029 209.015C160.834 206.978 163.696 205.02 166.635 203.171L168.52 202.014C169.39 201.505 170.259 200.995 171.147 200.5C172.035 200.006 172.804 199.58 173.637 199.132C181.839 194.819 190.467 191.371 199.381 188.842C205.944 187.121 212.619 185.857 219.356 185.059C231.161 183.497 243.097 184.078 254.838 184.327C259.825 184.483 264.8 184.4 269.771 184.375C275.007 184.327 280.233 184.455 285.44 184.185C289.514 183.911 293.572 183.427 297.596 182.733C301.311 182.055 305.036 181.475 308.731 180.748C311.844 179.895 315.029 179.328 318.245 179.057C323.099 178.735 327.925 178.665 332.758 178.586C337.814 178.395 342.877 178.55 347.911 179.048C352.816 179.405 357.681 180.19 362.449 181.394C365.431 182.195 368.362 183.166 371.315 184.019C374.268 184.871 376.96 185.689 379.827 186.317C379.908 186.384 380.049 186.38 380.193 186.409C380.337 186.438 383.592 186.948 383.636 186.969C381.927 184.209 379.522 179.399 377.868 176.593C376.693 174.601 375.312 172.345 374.126 170.313C372.939 168.28 371.164 165.419 370.013 163.416C368.863 161.414 368.309 160.706 367.277 158.818C366.245 156.93 364.812 154.845 363.759 152.909C362.706 150.973 360.707 148.123 359.61 146.166C358.514 144.209 358.018 143.304 356.927 141.413L355.664 139.271C355.164 138.409 355.183 137.784 354.691 136.929C353.569 134.966 351.669 136.615 350.474 134.666L347.071 129.021C345.941 127.158 344.802 125.288 343.697 123.415C342.591 121.542 341.498 119.726 340.404 117.893C338.131 114.014 335.871 110.161 333.625 106.335C333.435 106.302 333.265 106.198 333.15 106.044C332.897 105.694 332.668 105.328 332.462 104.949C332.326 104.728 332.189 104.491 332.051 104.253C331.914 104.016 331.582 103.463 331.34 103.077C330.763 102.105 330.188 101.15 329.658 100.141C329.127 99.1314 328.621 98.3862 328.11 97.5L327.259 96.07C327.159 95.8793 327.043 95.69 326.935 95.5082C324.796 95.3983 322.63 95.5404 320.488 95.3975C313.731 95.0731 307.131 93.5205 300.477 92.3968C293.429 91.1219 286.484 89.3271 279.7 87.0272C274.406 85.1925 269.201 83.1421 263.6 81.9832C260.637 81.2584 257.582 80.977 254.536 81.1481C248.172 82.0696 242.607 85.9977 238.092 90.4232L237.806 90.7646C238.008 90.8847 238.177 91.0549 238.294 91.2589C238.412 91.4629 238.475 91.6938 238.477 91.9292C238.48 92.1647 238.422 92.3968 238.308 92.6032C238.195 92.8097 238.031 92.9834 237.831 93.1078C236.458 94.2365 235.155 95.4463 233.927 96.7306C231.17 100.352 228.752 104.225 226.24 107.974C225.132 109.644 224.024 111.314 222.969 113.013L222.308 114.095L222.263 114.149C221.841 115.109 221.427 116.077 221.031 117.044C220.432 118.544 219.867 120.058 219.354 121.584C218.414 125.484 217.108 129.287 215.453 132.941C214.024 136.075 212.405 139.118 210.605 142.054C209.322 144.158 207.971 146.215 206.553 148.226C203.55 152.468 200.809 156.888 198.344 161.463L198.269 161.552C196.161 165.074 194.255 168.72 192.172 172.248C191.57 173.271 190.952 174.282 190.32 175.281C189.537 176.49 188.728 177.676 187.873 178.825L187.121 179.723C184.255 183.146 181.293 186.502 178.093 189.63L175.562 192.325C174.117 193.85 172.662 195.351 171.143 196.8C168.966 199.072 166.377 201.106 163.994 203.313Z" fill="#9D9B36"/>
<path d="M383.636 186.969C381.927 184.209 379.522 179.399 377.868 176.593C376.693 174.601 375.312 172.345 374.126 170.313C372.939 168.28 371.164 165.419 370.013 163.416C368.863 161.414 368.309 160.706 367.277 158.818C366.245 156.93 364.812 154.845 363.759 152.909C362.706 150.973 360.707 148.123 359.61 146.166C358.514 144.209 358.018 143.304 356.927 141.413L355.664 139.271C355.164 138.409 355.183 137.784 354.691 136.929C353.569 134.966 351.669 136.615 350.474 134.666L347.071 129.021C345.941 127.158 344.802 125.288 343.697 123.415C342.591 121.542 341.498 119.726 340.404 117.893C338.131 114.014 335.871 110.161 333.625 106.335C333.435 106.302 333.265 106.198 333.15 106.044C332.897 105.694 332.668 105.328 332.462 104.949C332.326 104.728 332.189 104.491 332.051 104.253C331.914 104.016 331.582 103.463 331.34 103.077C330.763 102.105 330.188 101.15 329.658 100.141C329.127 99.1314 328.621 98.3862 328.11 97.5L327.259 96.07C327.159 95.8793 327.043 95.69 326.935 95.5082C326.935 95.5082 338.001 98.2694 398.001 97.5C458.001 96.7306 482.001 134.666 482.001 134.666L470.001 188.842C444.858 185.911 427.873 185.008 383.636 186.969Z" fill="#9D9B36"/>
<path d="M53.8403 283.694C53.9163 283.95 54.0659 284.177 54.2704 284.348C54.4749 284.52 54.7252 284.627 54.9901 284.657C55.1753 284.676 55.3621 284.674 55.5467 284.649L55.8258 284.608C57.1677 285.578 58.651 286.362 59.9717 287.376C62.7157 289.514 65.342 291.8 67.8391 294.222C68.3635 294.791 69.0608 295.17 69.8228 295.302C70.887 295.307 71.9319 295.019 72.8429 294.469C75.2313 293.388 77.8095 292.789 80.4298 292.707C86.7099 292.489 92.9693 291.865 99.1688 290.839C104.407 290.005 109.575 288.78 114.63 287.173C120.942 285.108 127.017 282.524 133.194 280.239C142.282 276.922 151.737 274.661 160.392 270.493C169.38 266.237 177.466 260.447 186.215 255.837C190.468 253.814 194.883 252.149 199.413 250.858C203.037 249.716 206.776 248.972 210.561 248.64C217.3 248.384 224.073 249.255 230.759 248.405C237.345 247.609 243.775 245.834 249.837 243.138C252.063 242.183 254.355 241.39 256.696 240.767C263.698 239.34 270.948 239.313 278.069 238.965C287.352 238.974 296.972 240.259 305.691 237.382C310.32 235.709 314.817 233.692 319.146 231.349C322.298 229.484 325.557 227.804 328.905 226.318C332.442 224.925 336.18 224.108 339.976 223.898C343.662 223.585 347.37 223.658 351.04 224.115C361.943 225.694 372.653 229.893 383.47 229.675C390.475 229.297 397.364 227.734 403.845 225.05C405.992 224.314 408.092 223.45 410.136 222.463C410.555 222.185 410.856 221.761 410.982 221.274C411.108 220.787 411.049 220.271 410.817 219.824C410.708 219.563 410.549 219.325 410.347 219.126C410.438 218.969 410.499 218.797 410.527 218.619C410.794 217.498 409.798 216.588 409.22 215.691C408.311 214.184 407.31 212.734 406.223 211.349C406.351 209.79 404.469 209.101 402.71 209.431C400.146 209.5 397.582 209.57 395.016 209.606C393.753 209.618 392.482 209.639 391.208 209.627C379.161 210.237 367.338 205.579 355.166 205.061C331.245 202.698 311.455 217.118 289.292 222.95C259.846 232.57 240.4 218.857 213.298 225.276C189.568 232.577 178.857 251.175 152.317 256.612C139.178 260.479 125.241 259.752 111.958 263.224C97.7904 268.996 84.0829 276.773 68.9647 280.175C64.462 281.156 59.8597 281.606 55.2523 281.515C55.0023 281.535 54.7605 281.613 54.5452 281.742C54.33 281.871 54.1472 282.047 54.0108 282.257C53.8745 282.468 53.7882 282.707 53.7586 282.956C53.729 283.205 53.757 283.458 53.8403 283.694Z" fill="#0DA2AF"/>
<path d="M307.878 227.416C308.222 226.512 307.076 226.056 306.365 226.011C302.714 225.262 300.224 228.144 297.508 229.873C295.257 231.203 292.756 232.053 290.161 232.371C290.01 232.4 289.874 232.48 289.775 232.598C289.677 232.716 289.622 232.864 289.62 233.018C289.621 233.196 289.684 233.367 289.798 233.504C289.912 233.641 290.069 233.735 290.244 233.769C291.261 233.949 292.29 234.049 293.323 234.07C295.513 234.119 297.681 233.624 299.632 232.629C301.391 231.733 302.985 230.103 304.596 229.146C305.396 228.697 306.23 228.312 307.089 227.993C307.253 227.955 307.407 227.884 307.542 227.785C307.678 227.685 307.792 227.56 307.878 227.416Z" fill="white"/>
<path d="M240.558 232.741C240.532 232.352 240.133 232.263 239.824 232.34C239.293 232.354 238.766 232.326 238.231 232.29C234.488 231.815 230.98 230.238 227.171 230.426C223.958 230.411 220.784 231.13 217.892 232.529C216.764 233.049 215.663 233.627 214.594 234.26C214.428 234.365 214.306 234.527 214.249 234.715C214.193 234.903 214.206 235.106 214.286 235.285C214.373 235.483 214.533 235.639 214.732 235.72C214.932 235.802 215.156 235.803 215.356 235.723L217.758 234.678C221.281 233.032 225.191 232.392 229.055 232.829C232.577 233.057 236.079 234.751 239.516 233.748C239.991 233.565 240.585 233.329 240.558 232.741Z" fill="white"/>
<path d="M239.317 240.519C239.73 240.208 239.898 239.478 239.273 239.276C238.544 239.177 237.809 239.128 237.073 239.129C235.538 239.117 234.008 238.966 232.5 238.678C228.76 237.67 225.576 237.221 221.956 238.698C219.855 239.491 218.232 241.065 216.432 242.339C215.447 242.996 214.429 243.603 213.382 244.156C213.201 244.214 213.034 244.307 212.891 244.432C212.747 244.556 212.631 244.708 212.548 244.879C212.485 245.067 212.477 245.27 212.525 245.462C212.573 245.655 212.675 245.829 212.819 245.966C212.963 246.103 213.143 246.195 213.338 246.233C213.533 246.271 213.735 246.252 213.919 246.18C216.902 245.117 219.53 243.237 222.444 242.147C225.022 241.294 227.796 241.237 230.406 241.982C233.453 242.676 236.651 242.151 239.317 240.519Z" fill="white"/>
<path d="M207.952 240.221C207.789 240.104 207.59 240.047 207.389 240.06C207.188 240.074 206.999 240.156 206.852 240.294C205.716 240.519 204.556 240.664 203.386 240.784C199.869 240.896 196.228 240.628 192.814 241.713C190.007 242.604 187.379 243.983 185.049 245.786C183.774 246.689 182.452 247.538 181.082 248.316C180.815 248.385 180.585 248.556 180.444 248.793C180.303 249.03 180.262 249.313 180.329 249.581C180.408 249.818 180.576 250.015 180.797 250.132C181.018 250.248 181.275 250.275 181.516 250.207C182.853 249.759 184.145 249.182 185.372 248.485C188.23 246.768 191.056 244.871 194.383 244.218C197.238 243.674 200.166 243.681 203.031 243.252C204.216 243.023 209.776 242.131 207.952 240.221Z" fill="white"/>
<path d="M382.878 208.751C382.996 208.667 383.089 208.552 383.147 208.419C383.204 208.286 383.224 208.139 383.205 207.995C383.185 207.852 383.126 207.716 383.035 207.603C382.944 207.49 382.824 207.404 382.688 207.354C381.248 207.158 379.793 207.162 378.338 207.074C376.121 207.021 373.84 206.808 371.629 206.638C368.358 206.42 365.13 205.567 361.863 205.016C357.677 204.378 353.448 204.072 349.215 204.099C346.109 204.158 342.991 204.726 339.946 205.004C338.765 205.102 337.579 205.129 336.394 205.086C335.982 205.031 335.406 205.007 335.38 205.567C335.374 205.716 335.424 205.863 335.52 205.978C335.616 206.092 335.752 206.167 335.901 206.186C336.769 206.225 337.633 206.307 338.494 206.355C342.424 206.589 346.249 205.543 350.186 205.86C353.869 206.076 357.535 206.518 361.165 207.182C364.45 208.033 367.778 208.713 371.134 209.218C374.626 209.483 379.822 210.394 382.878 208.751Z" fill="#194128"/>
<path d="M322.783 253.74C323.396 252.206 319.839 252.804 319.138 252.874C315.597 253.454 312.631 255.372 309.485 256.848C307.361 258.003 305.144 258.979 302.857 259.764C302.199 259.927 301.533 260.052 300.861 260.141C300.183 260.184 299.286 260.197 299.368 261.122C299.45 262.046 300.401 261.986 301.052 261.92C302.198 261.972 303.347 261.954 304.49 261.865C309.333 261.228 313.528 258.736 317.608 256.345C318.728 255.755 319.885 255.195 321.086 254.673C321.723 254.514 322.308 254.193 322.783 253.74Z" fill="#194128"/>
<path d="M141.55 190.789L141.276 190.988L141.509 190.71L141.55 190.789ZM124.493 222.716C125.405 224.25 126.603 225.595 128.021 226.678C128.518 227.031 129.057 227.319 129.627 227.534C130.029 227.69 130.446 227.803 130.872 227.873C131.853 227.985 132.847 227.897 133.793 227.614C134.732 227.322 135.634 226.924 136.482 226.427C138.461 225.287 140.284 223.712 142.005 222.586L142.118 222.451L145.044 220.179C147.579 218.191 150.078 216.174 152.492 214.038L154.048 212.636C155.407 211.451 156.7 210.272 158.042 208.997C160.039 207.124 162.007 205.211 164.008 203.295C166.39 201.088 168.95 199.09 171.205 196.761C172.723 195.312 174.186 193.802 175.624 192.286L178.155 189.591C181.345 186.456 184.317 183.107 187.182 179.684L187.934 178.786C188.789 177.637 189.599 176.451 190.382 175.242C191.02 174.249 191.637 173.238 192.234 172.209C194.316 168.681 196.222 165.035 198.33 161.514L198.406 161.424C200.87 156.849 203.612 152.429 206.614 148.188C208.027 146.172 209.378 144.114 210.666 142.015C212.467 139.079 214.086 136.036 215.515 132.902C217.17 129.248 218.476 125.445 219.415 121.545C219.921 120.028 220.45 118.484 221.092 117.005C221.489 116.039 221.902 115.07 222.324 114.11L222.369 114.056L223.03 112.974C224.086 111.276 225.194 109.606 226.301 107.935C228.814 104.186 231.187 100.275 233.988 96.6918C235.217 95.408 236.52 94.1983 237.892 93.0689C238.092 92.9446 238.257 92.7708 238.37 92.5644C238.483 92.358 238.541 92.1259 238.539 91.8904C238.536 91.6549 238.473 91.4241 238.356 91.2201C238.238 91.0161 238.07 90.8458 237.867 90.7257C237.846 90.7148 237.828 90.6994 237.813 90.6806C237.416 90.5451 236.987 90.5347 236.584 90.6507C236.181 90.7667 235.823 91.0037 235.559 91.3295C234.636 92.085 233.731 92.9469 232.859 93.806C230.366 96.2118 228.108 98.8486 226.113 101.681C224.356 103.969 222.785 106.394 221.416 108.934C220.961 109.897 220.515 110.868 220.102 111.837C218.112 114.907 216.609 118.218 214.74 121.344C211.584 126.938 208.38 132.445 205.08 137.919C199.815 146.636 193.403 154.897 184.897 160.749C183.118 162.071 181.339 163.393 179.53 164.66C175.451 167.199 171.209 169.467 166.833 171.449C165.471 172.127 164.098 172.781 162.735 173.442C160.129 174.434 157.613 175.645 155.212 177.061C153.694 177.944 152.178 178.861 150.746 179.877C149.483 180.73 148.23 181.606 147.012 182.512C143.748 184.966 140.619 187.595 137.638 190.387C135.914 192.137 134.334 194.023 132.683 195.85L132.142 196.497C130.659 198.255 129.298 200.112 128.068 202.056C125.961 205.289 124.442 208.87 123.583 212.633L123.477 213.125C123.303 214.282 123.254 215.455 123.329 216.623L123.377 218.19C123.415 219.762 123.796 221.306 124.493 222.716Z" fill="#AACC9A"/>
<path d="M85.3573 323.617C85.3108 323.397 85.3165 323.17 85.3738 322.952C85.431 322.735 85.5384 322.534 85.6872 322.365C85.5891 322.217 85.5208 322.051 85.4858 321.876C85.4733 321.766 85.469 321.655 85.473 321.544L84.0089 318.256L83.7839 318.251C83.6635 318.292 83.5344 318.302 83.4092 318.279C83.2839 318.256 83.1667 318.201 83.069 318.119C82.9714 318.037 82.8965 317.932 82.8518 317.812C82.807 317.693 82.7939 317.564 82.8137 317.439C82.846 317.295 82.9234 317.165 83.0345 317.069C83.1456 316.972 83.2847 316.914 83.4314 316.901L82.6405 315.109C79.2737 310.528 75.9149 305.943 72.5642 301.355C69.2879 298.297 66.0167 295.232 62.7505 292.161L46.8473 277.319L46.1186 274.539L47.3347 272.12C51.0626 270.514 54.7919 268.925 58.5227 267.352L60.7633 266.921C60.8446 266.751 60.9658 266.603 61.1164 266.49C61.2671 266.376 61.4429 266.301 61.6289 266.27C64.9604 265.667 68.2638 264.934 71.5373 264.145C76.821 262.67 81.8943 260.699 87.0215 258.772C90.5121 257.546 93.9172 256.088 97.2141 254.409C98.4088 253.438 99.5857 252.452 100.716 251.412C104.893 248.048 107.656 243.47 110.631 239.04C112.821 235.871 114.736 232.521 116.356 229.026C117.147 226.968 117.843 224.877 118.515 222.797C118.844 219.437 119.719 216.155 121.106 213.077C121.508 210.997 122.149 208.97 123.015 207.036C125.28 202.178 129.003 198.205 132.578 194.246C133.6 193.024 134.707 191.903 135.802 190.833C140.253 186.446 148.083 178.883 155.324 176.969C154.044 177.822 148.341 181.513 147.115 182.412C143.851 184.866 140.721 187.495 137.741 190.287C136.016 192.037 134.437 193.923 132.786 195.749L132.244 196.396C130.762 198.154 129.401 200.012 128.171 201.955C126.063 205.189 124.545 208.77 123.685 212.533L123.579 213.024C123.406 214.182 123.356 215.354 123.432 216.522L123.479 218.09C123.495 219.686 123.865 221.258 124.561 222.693C125.473 224.227 126.671 225.572 128.089 226.656C128.585 227.009 129.125 227.296 129.695 227.511C130.097 227.667 130.514 227.781 130.94 227.85C131.921 227.963 132.915 227.875 133.861 227.591C134.8 227.3 135.702 226.902 136.55 226.405C138.528 225.265 140.352 223.689 142.073 222.564L142.32 222.434C142.771 222.277 143.317 221.954 143.86 221.707L145.139 220.179C147.674 218.192 150.173 216.174 152.587 214.039L154.143 212.637C155.502 211.452 156.795 210.272 158.137 208.997C160.134 207.124 162.101 205.211 164.102 203.296C166.485 201.088 169.044 199.09 171.3 196.761C172.818 195.313 174.281 193.802 175.719 192.286C178.616 189.318 181.677 186.502 184.375 183.352C185.375 182.157 186.376 180.962 187.285 179.675L188.037 178.777C188.891 177.628 189.701 176.442 190.484 175.233L190.687 174.991C191.289 174.089 191.839 173.159 192.363 172.223C194.446 168.695 196.351 165.049 198.46 161.527L198.535 161.437C201 156.863 203.742 152.443 206.743 148.201C208.156 146.185 209.507 144.128 210.796 142.029C212.596 139.093 214.215 136.05 215.644 132.916C217.297 129.261 218.603 125.459 219.544 121.559C220.05 120.042 220.586 118.489 221.221 117.019C220.398 120.776 219.547 124.495 218.598 128.238C218.183 129.755 217.743 131.266 217.243 132.758C216.339 135.666 215.102 138.461 213.557 141.085C211.569 144.555 209.225 147.865 207.07 151.225C206.451 152.194 205.864 153.17 205.308 154.15C203.693 156.955 202.226 159.821 200.812 162.733C199.006 166.477 197.583 170.404 195.515 174.006C191.388 180.985 186.268 187.328 180.317 192.835C178.258 195.038 176.072 197.12 173.821 199.116C167.996 204.248 161.762 208.884 155.921 214.018C152.763 216.914 149.874 220.09 147.288 223.507C144.68 226.601 141.855 229.506 138.835 232.199C131.288 239.388 121.944 244.034 112.869 249.088C112.941 249.148 112.953 249.28 112.903 249.467C109.748 251.41 106.486 253.263 103.394 255.35C100.385 257.648 97.2107 259.719 93.8961 261.548C89.4177 263.778 84.8126 265.744 80.1044 267.436C79.5952 267.697 79.0771 267.951 78.5694 268.229C76.4225 269.331 74.5255 270.864 72.9969 272.731C71.916 274.106 71.3762 275.828 71.4797 277.573C72.2575 278.561 73.0429 279.539 73.8898 280.462C76.3566 282.925 79.2951 284.866 82.5294 286.167C82.6821 286.295 82.9085 286.316 83.0899 286.392L84.1021 286.552C88.5079 287.184 92.8419 287.757 97.2588 288.139C98.8761 288.183 100.487 288.366 102.073 288.685C103.646 288.809 105.194 289.154 106.671 289.708C109.387 290.649 112 291.864 114.469 293.334C122.762 297.098 131.317 300.44 140.31 301.215C141.441 301.284 142.574 301.294 143.706 301.247C149.657 297.917 156.249 295.628 162.226 292.304C185.535 282.512 203.932 259.133 231.049 260.397C242.434 261.892 252.86 267.672 263.701 271.185C274.903 275.308 286.833 274.874 297.934 272.968C302.161 272.244 306.301 272.409 310.208 270.882C316.473 268.563 322.606 265.982 328.774 263.506C341.511 258.385 354.42 253.698 368.536 252.788C380.142 251.702 392.009 254.41 403.491 253.617C408.919 253.423 414.33 252.902 419.696 252.056C419.794 252.23 422.17 251.071 422.314 251.192L437.193 276.163L434.997 277.472C435.144 277.717 430.519 280.996 429.932 281.223C429.345 281.45 428.731 281.745 428.109 282.05C426.912 282.59 425.75 283.204 424.629 283.889C424.054 284.247 423.471 284.615 422.924 285.013C422.402 285.392 421.87 285.834 421.344 286.27C421.319 286.291 421.294 286.311 421.269 286.332L419.947 287.364C419.864 287.362 419.782 287.384 419.711 287.427C418.662 288.077 417.605 288.719 416.617 289.298C414.623 290.456 412.603 291.591 410.677 292.851C408.785 293.355 407.108 294.462 405.9 296.003C404.484 296.497 403.165 297.233 402 298.178C398.706 299.758 395.535 301.582 392.512 303.635C391.332 304.496 390.217 305.427 389.102 306.357C387.08 307.289 385.302 308.676 383.906 310.41C383.13 310.953 382.337 311.481 381.527 312.01C378.132 314.241 374.817 316.63 371.53 319.042C370.762 319.576 369.996 320.126 369.238 320.684L367.332 321.884C366.419 322.464 365.514 323.052 364.629 323.671L364.674 323.617C363.923 324.149 363.173 324.698 362.404 325.215C361.635 325.733 360.893 326.273 360.159 326.82L359.723 327.158C358.792 327.723 357.861 328.288 356.986 328.931C356.116 329.514 355.331 330.213 354.65 331.009L353.719 331.757L352.353 332.86C348.92 334.643 345.82 337.006 343.191 339.843L340.612 341.626C340.457 341.659 340.31 341.723 340.18 341.814L337.936 343.527L335.771 345.091C334.404 346.085 333.072 347.11 331.722 348.103L330.243 349.157C330.077 349.173 329.916 349.227 329.775 349.315C329.087 349.765 328.448 350.285 327.866 350.865L326.388 351.919L323.186 354.174C320.11 356.631 317.032 359.091 313.951 361.554C313.881 361.596 313.812 361.637 313.742 361.679C313.142 362.036 312.549 362.389 311.979 362.76C309.43 364.313 307.107 366.209 305.076 368.396C304.843 368.674 304.609 368.953 304.376 369.231C300.665 372.404 297.076 375.725 293.63 379.166C293.451 379.045 293.239 378.985 293.024 378.995C292.809 379.005 292.603 379.085 292.437 379.221C286.913 383.994 281.62 389.021 276.187 393.885C276.187 393.885 276.135 393.948 276.105 393.984C275.14 393.808 274.254 393.334 273.573 392.628C272.757 392.516 272.006 392.12 271.453 391.51C270.395 390.365 269.415 389.163 268.364 388.008C262.577 381.635 255.87 376.249 249.363 370.679C241.393 363.518 232.726 357.316 224.154 350.965C207.385 338.836 189.363 328.24 169.765 322.009C162.334 319.398 154.633 317.625 146.808 316.725C145.246 316.564 143.32 319.504 141.742 319.436C141.027 320.289 142.119 320.317 141.027 320.289C141.027 320.289 138.956 319.533 138.966 319.557C138.978 321.095 137.522 318.562 136.489 318.629C134.156 318.713 131.83 318.803 129.51 318.898C125.524 320.008 121.597 321.213 117.653 322.402C109.735 322.904 101.777 323.515 93.7789 324.235L91.2621 324.741C90.1692 325.024 89.0476 325.182 87.9188 325.212C87.7365 325.222 87.5539 325.197 87.3815 325.136C87.2091 325.076 87.0504 324.982 86.9146 324.86C86.5496 324.872 86.1923 324.753 85.9069 324.526C85.6215 324.298 85.4266 323.976 85.3573 323.617ZM132.891 230.721L135.031 229.625C135.167 229.556 135.317 229.516 135.47 229.51C135.623 229.504 135.776 229.53 135.917 229.588L136.105 229.364L136.86 228.681C135.47 229.299 134.002 229.725 132.498 229.949C132.325 229.973 132.16 229.988 131.986 229.995C132.071 230.058 132.152 230.126 132.229 230.198C132.394 230.377 132.51 230.596 132.568 230.833L132.891 230.721ZM121.199 240.033C124.083 238.413 126.839 236.672 129.524 234.779C128.989 234.955 128.443 235.095 127.89 235.198C126.148 236.384 124.389 237.554 122.705 238.818L122.493 238.962C121.851 239.418 121.228 239.889 120.613 240.367L121.199 240.033Z" fill="#194128"/>
<path d="M273.573 392.628C274.254 393.334 275.14 393.808 276.105 393.984L158.137 399.938C120.473 385.392 101.9 373.516 87.3815 325.136C87.5539 325.197 87.7365 325.222 87.9188 325.212C89.0476 325.182 90.1692 325.024 91.2621 324.741L93.7789 324.235C101.777 323.515 109.735 322.904 117.653 322.402C121.597 321.213 125.524 320.008 129.51 318.898C131.83 318.803 134.156 318.713 136.489 318.629C137.522 318.562 138.978 321.095 138.966 319.557C138.956 319.533 141.027 320.289 141.027 320.289C142.119 320.317 141.027 320.289 141.742 319.436C143.32 319.504 145.246 316.564 146.808 316.725C154.633 317.625 162.334 319.398 169.765 322.009C189.363 328.24 207.385 338.836 224.154 350.965C232.726 357.316 241.393 363.518 249.363 370.679C255.87 376.249 262.577 381.635 268.364 388.008C269.415 389.163 270.395 390.365 271.453 391.51C272.006 392.12 272.757 392.516 273.573 392.628Z" fill="#194128"/>
<path d="M422.314 251.192C422.17 251.071 419.794 252.23 419.696 252.056L497.003 214.018L517.003 349.315L276.105 393.984L276.187 393.885C281.62 389.021 286.913 383.994 292.437 379.221C292.603 379.085 292.809 379.005 293.024 378.995C293.239 378.985 293.451 379.045 293.63 379.166C297.076 375.725 300.665 372.404 304.376 369.231L305.076 368.396C307.107 366.209 309.43 364.313 311.979 362.76C312.549 362.389 313.142 362.036 313.742 361.679L313.951 361.554C317.032 359.091 320.11 356.631 323.186 354.174L326.388 351.919L327.866 350.865C328.448 350.285 329.087 349.765 329.775 349.315C329.916 349.227 330.077 349.173 330.243 349.157L331.722 348.103C333.072 347.11 334.404 346.085 335.771 345.091L337.936 343.527L340.18 341.814C340.31 341.723 340.457 341.659 340.612 341.626L343.191 339.843C345.82 337.006 348.92 334.643 352.353 332.86L353.719 331.757L354.65 331.009C355.331 330.213 356.116 329.514 356.986 328.931C357.861 328.288 358.792 327.723 359.723 327.158L360.159 326.82C360.893 326.273 361.635 325.733 362.404 325.215C363.173 324.698 363.923 324.149 364.674 323.617L364.629 323.671C365.514 323.052 366.419 322.464 367.332 321.884L369.238 320.684C369.996 320.126 370.762 319.576 371.53 319.042C374.817 316.63 378.132 314.241 381.527 312.01C382.337 311.481 383.13 310.953 383.906 310.41C385.302 308.676 387.08 307.289 389.102 306.357C390.217 305.427 391.332 304.496 392.512 303.635C395.535 301.582 398.706 299.758 402 298.178C403.165 297.233 404.484 296.497 405.9 296.003C407.108 294.462 408.785 293.355 410.677 292.851C412.603 291.591 414.623 290.456 416.617 289.298C417.605 288.719 418.662 288.077 419.711 287.427C419.782 287.384 419.864 287.362 419.947 287.364L421.269 286.332L421.344 286.27C421.87 285.834 422.402 285.392 422.924 285.013C423.471 284.615 424.054 284.247 424.629 283.889C425.75 283.204 426.912 282.59 428.109 282.05C428.731 281.745 429.345 281.45 429.932 281.223C430.519 280.996 435.144 277.717 434.997 277.472L437.193 276.163L422.314 251.192Z" fill="#194128"/>
<path d="M264.683 145.373C262.091 144.741 258.802 144.708 257.191 142.25C256.821 141.633 256.625 140.926 256.625 140.207C256.625 139.487 256.821 138.781 257.191 138.163C260.513 133.346 271.526 134.841 273.353 140.373C273.56 141.08 273.562 141.831 273.359 142.54C273.156 143.248 272.757 143.885 272.207 144.376C270.214 146.22 267.141 145.721 264.683 145.373Z" fill="white"/>
<path d="M258.04 138.911C256.512 138.678 254.9 137.881 254.867 136.137C254.899 135.669 255.073 135.222 255.366 134.855C255.658 134.489 256.056 134.22 256.505 134.084C256.954 133.949 257.433 133.954 257.88 134.098C258.326 134.242 258.718 134.519 259.003 134.891C260.681 136.253 260.631 139.027 258.04 138.911Z" fill="#231F20"/>
<path d="M256.976 147.466C256.146 146.618 256.976 145.721 257.674 145.123C258.282 144.474 258.746 143.705 259.036 142.864C259.568 142.017 260.697 142.615 260.564 143.529C260.564 144.808 258.588 148.961 256.976 147.466Z" fill="#231F20"/>
<path d="M269.666 148.496C268.511 147.191 267.914 145.485 268.005 143.745C268.032 143.651 268.084 143.566 268.156 143.499C268.229 143.433 268.318 143.387 268.414 143.368C268.51 143.349 268.61 143.358 268.702 143.392C268.794 143.426 268.875 143.485 268.935 143.563C269.589 144.784 270.417 145.903 271.394 146.885C271.607 147.114 271.721 147.418 271.71 147.731C271.699 148.045 271.565 148.34 271.336 148.554C271.106 148.768 270.802 148.882 270.489 148.871C270.176 148.86 269.88 148.725 269.666 148.496Z" fill="#231F20"/>
<path d="M289.482 135.091C285.877 134.642 281.177 133.994 281.874 129.21C283.336 122.184 293.419 122.317 296.824 127.666C297.514 128.624 297.834 129.8 297.724 130.975C297.614 132.151 297.082 133.247 296.226 134.061C294.449 135.755 291.741 135.439 289.482 135.091Z" fill="white"/>
<path d="M294.067 129.194C291.642 126.104 297.257 123.496 299.732 124.974C299.986 125.105 300.209 125.29 300.384 125.516C300.559 125.742 300.681 126.005 300.743 126.284C300.805 126.563 300.805 126.852 300.742 127.131C300.679 127.41 300.555 127.672 300.38 127.898C299.455 128.772 298.23 129.26 296.958 129.26C296.556 129.615 296.036 129.806 295.5 129.794C294.964 129.781 294.452 129.567 294.067 129.194Z" fill="#231F20"/>
<path d="M282.041 137.533C281.954 137.373 281.902 137.197 281.887 137.015C281.872 136.834 281.895 136.652 281.955 136.48C282.014 136.308 282.108 136.151 282.232 136.017C282.355 135.884 282.505 135.778 282.672 135.705C283.5 135.137 284.206 134.408 284.748 133.563C284.736 133.366 284.771 133.17 284.85 132.99C284.929 132.809 285.049 132.65 285.201 132.525C285.353 132.401 285.532 132.313 285.724 132.271C285.916 132.229 286.116 132.233 286.306 132.283C286.496 132.332 286.672 132.426 286.819 132.557C286.966 132.688 287.08 132.851 287.152 133.034C287.224 133.218 287.251 133.415 287.231 133.611C287.212 133.807 287.147 133.995 287.04 134.161C286.741 135.772 283.585 139.576 282.041 137.533Z" fill="#231F20"/>
<path d="M293.187 137.267C292.823 136.786 292.511 136.268 292.256 135.722C291.841 134.925 291.775 133.529 292.855 133.23C293.469 133.031 294.001 133.563 294.183 134.111C294.632 134.875 295.662 135.24 295.844 136.187C295.909 136.52 295.856 136.864 295.695 137.162C295.533 137.46 295.274 137.693 294.96 137.82C294.646 137.948 294.297 137.962 293.974 137.861C293.651 137.76 293.372 137.55 293.187 137.267Z" fill="#231F20"/>
<path d="M260.099 112.799C257.059 109.593 261.046 105.69 264.318 104.859C265.762 104.416 267.282 104.276 268.782 104.448C270.283 104.619 271.732 105.099 273.039 105.856C273.642 106.165 274.16 106.619 274.546 107.176C274.932 107.734 275.174 108.378 275.251 109.052C275.329 109.726 275.238 110.408 274.989 111.039C274.739 111.669 274.337 112.228 273.82 112.666C271.943 114.045 269.451 113.945 267.175 114.028C264.9 114.111 261.943 114.61 260.099 112.799Z" fill="white"/>
<path d="M273.639 109.991C273.292 109.688 273.034 109.296 272.893 108.858C272.751 108.42 272.731 107.951 272.835 107.502C272.939 107.054 273.163 106.642 273.483 106.311C273.803 105.979 274.207 105.741 274.652 105.622C275.928 105.259 277.294 105.396 278.473 106.004C278.703 106.173 278.898 106.386 279.045 106.631C279.193 106.876 279.29 107.148 279.332 107.43C279.374 107.713 279.359 108.001 279.288 108.278C279.218 108.555 279.093 108.816 278.921 109.044C278.201 109.652 277.334 110.059 276.407 110.225C275.48 110.391 274.525 110.311 273.639 109.991Z" fill="#231F20"/>
<path d="M259.8 119.709C259.593 119.612 259.412 119.468 259.27 119.288C259.129 119.109 259.031 118.899 258.984 118.675C258.938 118.451 258.943 118.22 259.001 117.999C259.059 117.777 259.168 117.573 259.318 117.401C259.945 116.314 260.314 115.098 260.398 113.846C260.182 113.607 260.058 113.3 260.048 112.979C260.037 112.658 260.14 112.343 260.339 112.091C260.537 111.838 260.819 111.664 261.134 111.599C261.449 111.534 261.776 111.583 262.059 111.736C263.388 112.5 262.474 116.055 262.175 117.334C261.876 118.613 261.361 120.324 259.8 119.709Z" fill="#231F20"/>
<path d="M270.231 119.908C270.065 119.859 269.911 119.775 269.78 119.662C269.648 119.549 269.542 119.41 269.468 119.253C269.395 119.096 269.355 118.925 269.352 118.752C269.349 118.579 269.382 118.407 269.45 118.247C269.915 117.018 270.381 115.772 270.829 114.526C271.194 113.862 270.995 112.982 271.477 112.467C271.587 112.354 271.725 112.273 271.877 112.232C272.029 112.192 272.189 112.192 272.341 112.234C273.802 112.882 272.507 115.44 272.341 116.619C271.925 117.782 272.042 120.24 270.231 119.908Z" fill="#231F20"/>
<path d="M321.026 121.104C318.627 120.861 316.297 120.156 314.166 119.028C313.711 118.785 313.31 118.453 312.985 118.053C312.66 117.652 312.419 117.191 312.275 116.695C312.131 116.2 312.087 115.681 312.147 115.169C312.206 114.657 312.368 114.162 312.621 113.713C314.282 111.138 317.787 110.39 320.661 110.723C323.534 111.055 327.139 113.696 327.305 117.035C327.471 120.373 323.8 121.619 321.026 121.104Z" fill="white"/>
<path d="M325.562 116.022C325.479 115.791 325.479 115.538 325.562 115.307C324.864 112.151 329.332 111.62 331.11 113.347C331.382 113.632 331.577 113.981 331.679 114.362C331.78 114.743 331.784 115.143 331.689 115.526C331.595 115.908 331.406 116.261 331.139 116.551C330.872 116.841 330.536 117.059 330.163 117.184C328.651 117.782 326.259 117.782 325.562 116.022Z" fill="#231F20"/>
<path d="M311.956 121.336C311.092 119.758 313.235 119.227 313.9 118.147C314 118.03 314.064 117.885 314.082 117.732C314.068 117.513 314.097 117.295 314.167 117.088C314.238 116.881 314.348 116.69 314.492 116.525C314.637 116.361 314.812 116.227 315.008 116.13C315.204 116.034 315.417 115.977 315.635 115.962C315.853 115.948 316.072 115.977 316.279 116.048C316.486 116.118 316.677 116.228 316.841 116.373C317.006 116.517 317.14 116.692 317.237 116.888C317.333 117.084 317.39 117.297 317.404 117.516C318.036 119.276 313.252 123.612 311.956 121.336Z" fill="#231F20"/>
<path d="M321.161 124.71C320.581 123.431 320.071 122.123 319.633 120.79C319.488 120.521 319.413 120.22 319.414 119.915C319.415 119.609 319.493 119.309 319.641 119.042C319.788 118.774 320 118.548 320.257 118.383C320.515 118.219 320.809 118.121 321.114 118.1C321.418 118.079 321.723 118.134 322.001 118.261C322.279 118.388 322.52 118.583 322.704 118.827C322.887 119.071 323.006 119.358 323.05 119.66C323.093 119.962 323.061 120.271 322.955 120.557C323.437 122.218 325.546 124.162 323.603 125.54C323.393 125.672 323.158 125.755 322.912 125.784C322.667 125.812 322.418 125.786 322.184 125.706C321.95 125.627 321.737 125.496 321.56 125.324C321.383 125.151 321.247 124.942 321.161 124.71Z" fill="#231F20"/>
<path d="M304.201 170.588C301.809 170.173 293.255 168.014 293.604 164.974C293.09 164.061 292.908 162.999 293.086 161.968C293.265 160.936 293.794 159.997 294.584 159.31C296.288 158.156 298.29 157.521 300.348 157.483C303.506 157.389 306.598 158.405 309.085 160.356C314.517 164.575 310.796 172.067 304.201 170.588Z" fill="white"/>
<path d="M294.118 159.161C293.847 158.307 293.707 157.416 293.703 156.52C293.708 156.118 293.837 155.727 294.073 155.401C294.309 155.075 294.64 154.83 295.021 154.701C295.402 154.572 295.814 154.564 296.2 154.678C296.586 154.793 296.926 155.024 297.175 155.341C297.592 155.982 297.873 156.702 298.001 157.456C298.13 158.21 298.103 158.983 297.922 159.726C297.092 161.752 294.7 160.972 294.118 159.161Z" fill="#231F20"/>
<path d="M293.088 171.701C291.975 170.04 294.45 169.575 295.181 168.495C294.5 167.133 296.975 166.336 297.324 167.781C297.673 169.226 294.583 173.611 293.088 171.701Z" fill="#231F20"/>
<path d="M305.799 174.259C304.487 173.08 302.477 171.585 303.108 169.592C303.155 169.468 303.236 169.36 303.342 169.28C303.448 169.201 303.574 169.153 303.706 169.143C303.849 169.129 303.994 169.158 304.121 169.226C304.248 169.294 304.352 169.398 304.42 169.525C304.769 170.871 306.198 171.369 307.277 172.05C307.422 172.147 307.547 172.272 307.644 172.417C307.74 172.562 307.808 172.725 307.842 172.896C307.876 173.067 307.876 173.244 307.841 173.415C307.807 173.586 307.74 173.749 307.643 173.894C307.546 174.039 307.421 174.163 307.276 174.26C307.131 174.357 306.968 174.424 306.796 174.458C306.625 174.492 306.449 174.492 306.278 174.458C306.107 174.424 305.944 174.356 305.799 174.259Z" fill="#231F20"/>
<path d="M242.923 169.823C237.757 169.092 236.86 163.095 241.976 161.384C243.258 160.236 244.755 159.351 246.379 158.781C248.004 158.211 249.725 157.967 251.444 158.062C255.082 158.062 259.151 161.384 257.324 165.304C255.497 169.225 246.992 170.404 242.923 169.823Z" fill="white"/>
<path d="M240.778 163.129C239.698 162.382 239.649 160.986 239.516 159.807C239.519 159.521 239.587 159.24 239.715 158.984C239.844 158.729 240.029 158.506 240.256 158.333C240.484 158.16 240.748 158.041 241.028 157.986C241.309 157.93 241.598 157.94 241.874 158.013C242.317 158.198 242.715 158.474 243.044 158.824C243.372 159.173 243.623 159.588 243.78 160.042C243.936 160.495 243.996 160.976 243.954 161.454C243.912 161.931 243.769 162.395 243.536 162.814C243.386 163.03 243.192 163.212 242.967 163.347C242.741 163.482 242.489 163.567 242.228 163.597C241.967 163.627 241.703 163.601 241.453 163.52C241.203 163.439 240.972 163.306 240.778 163.129Z" fill="#231F20"/>
<path d="M242.591 174.16C242.354 174.122 242.133 174.017 241.954 173.857C241.775 173.697 241.646 173.489 241.583 173.257C241.52 173.025 241.525 172.78 241.598 172.551C241.67 172.323 241.808 172.12 241.993 171.967C242.445 171.682 242.829 171.3 243.116 170.849C243.403 170.399 243.587 169.89 243.654 169.359C243.507 169.2 243.403 169.005 243.353 168.793C243.303 168.582 243.309 168.361 243.369 168.153C243.429 167.944 243.542 167.754 243.697 167.602C243.852 167.45 244.044 167.34 244.253 167.284C244.463 167.227 244.684 167.226 244.894 167.28C245.105 167.333 245.298 167.441 245.455 167.591C245.612 167.741 245.727 167.929 245.79 168.137C245.853 168.345 245.861 168.566 245.814 168.778C246.246 170.937 244.933 173.877 242.591 174.16Z" fill="#231F20"/>
<path d="M260.53 170.189C258.587 169.607 256.294 169.475 254.683 168.129C254.406 167.931 254.197 167.653 254.083 167.332C253.97 167.012 253.958 166.664 254.048 166.336C254.139 166.008 254.328 165.716 254.59 165.499C254.852 165.282 255.174 165.15 255.513 165.122C255.706 165.101 255.9 165.128 256.079 165.202C256.258 165.276 256.415 165.393 256.536 165.544C256.657 165.695 256.738 165.874 256.771 166.065C256.805 166.255 256.789 166.451 256.726 166.634C258.181 166.935 259.65 167.163 261.128 167.315C261.509 167.394 261.843 167.622 262.056 167.947C262.27 168.273 262.345 168.67 262.266 169.051C262.186 169.432 261.959 169.766 261.634 169.979C261.308 170.193 260.911 170.268 260.53 170.189Z" fill="#231F20"/>
<path d="M233.693 208.086C231.762 206.75 232.721 204.366 232.723 202.384C232.431 199.226 234.316 194.584 237.954 197.242C240.895 199.954 238.898 211.107 233.693 208.086Z" fill="#194128"/>
<path d="M241.18 210.649C240.304 209.319 240.895 207.516 241.277 206.047C241.66 204.139 241.668 201.683 243.319 200.444C248.428 198.227 247.32 206.628 246.291 209.369C245.735 211.688 242.623 212.938 241.18 210.649Z" fill="#194128"/>
<path d="M251.368 207.882C250.942 207.802 250.537 207.633 250.182 207.384C249.827 207.136 249.529 206.814 249.309 206.44C249.089 206.067 248.951 205.651 248.905 205.22C248.859 204.789 248.906 204.353 249.043 203.941C249.34 202.921 249.692 201.922 250.024 200.908C249.918 199.916 250.083 198.915 250.5 198.009C250.918 197.103 251.572 196.327 252.394 195.763C252.792 195.557 253.234 195.448 253.682 195.447C254.13 195.445 254.573 195.55 254.972 195.754C255.372 195.957 255.717 196.252 255.98 196.615C256.243 196.978 256.415 197.399 256.483 197.842C256.706 200.846 255.544 208.479 251.368 207.882Z" fill="#194128"/>
<path d="M344.626 171.985C342.408 170.591 343.277 167.812 344.413 166.015C345.548 164.218 346.739 161.504 349.439 161.837C354.642 162.757 349.143 175.226 344.626 171.985Z" fill="#194128"/>
<path d="M261.107 305.303C261.103 305.263 261.107 305.222 261.119 305.183C261.131 305.145 261.152 305.109 261.179 305.078C261.205 305.048 261.238 305.024 261.275 305.007C261.312 304.989 261.352 304.98 261.392 304.979C261.433 304.979 261.473 304.986 261.511 305.002C261.548 305.017 261.582 305.041 261.61 305.07C261.638 305.099 261.66 305.134 261.673 305.172C261.687 305.21 261.693 305.251 261.69 305.291C261.696 305.372 261.669 305.452 261.617 305.514C261.565 305.577 261.491 305.616 261.41 305.625C261.329 305.619 261.252 305.583 261.196 305.523C261.14 305.463 261.108 305.385 261.107 305.303Z" fill="#194128"/>
<path d="M249.646 203.363C249.588 201.214 249.841 199.068 250.4 196.993C251.083 195.644 252.617 196.499 252.455 197.862C252.376 199.725 251.922 201.562 251.794 203.44C251.763 203.71 251.632 203.958 251.426 204.135C251.221 204.312 250.956 204.405 250.684 204.395C250.413 204.386 250.156 204.274 249.963 204.083C249.771 203.891 249.658 203.634 249.646 203.363Z" fill="#194128"/>
<path d="M248.49 205.062C248.186 201.831 248.755 194.849 253.052 194.849C253.781 194.968 255.065 195.902 254.473 196.695C254.414 196.756 254.344 196.805 254.266 196.838C254.189 196.871 254.105 196.887 254.021 196.887C253.936 196.887 253.853 196.869 253.776 196.835C253.698 196.801 253.629 196.752 253.571 196.691C251.1 196.632 250.178 202.94 250.192 204.889C250.216 205.114 250.148 205.34 250.005 205.516C249.861 205.692 249.654 205.804 249.428 205.827C249.202 205.85 248.977 205.782 248.801 205.639C248.625 205.495 248.513 205.288 248.49 205.062Z" fill="#194128"/>
<path d="M257.72 211.565C257.334 211.433 256.998 211.183 256.761 210.851C256.523 210.518 256.396 210.12 256.396 209.711C256.437 209.1 256.596 208.485 256.696 207.872C257.142 205.939 257.541 203.345 259.512 202.396C259.756 202.315 260.015 202.29 260.27 202.323C260.525 202.357 260.769 202.448 260.983 202.589C261.198 202.73 261.378 202.918 261.509 203.139C261.641 203.36 261.72 203.608 261.742 203.864C261.752 204.649 261.652 205.432 261.446 206.19C260.893 207.975 260.07 212.079 257.72 211.565Z" fill="#194128"/>
<path d="M264.567 207.304C264.212 207.155 263.909 206.906 263.695 206.586C263.481 206.266 263.366 205.89 263.365 205.505C263.467 204.881 263.438 204.33 263.487 203.661C264.003 201.371 265.091 196.884 268.078 197.347C269.958 197.832 269.753 199.887 269.375 201.405C268.892 203.712 267.587 208.152 264.567 207.304Z" fill="#194128"/>
<path d="M274.026 206.864C273.691 206.772 273.387 206.592 273.144 206.344C272.901 206.096 272.728 205.788 272.642 205.451C271.517 204.342 272.457 202.726 272.952 201.513C273.725 199.396 276.026 196.423 278.201 198.808C279.18 200.083 278.319 201.724 277.979 203.081C277.434 204.749 276.177 207.286 274.026 206.864Z" fill="#194128"/>
<path d="M285.388 203.814C284.032 202.738 284.808 200.894 285.242 199.54C285.715 197.148 287.448 191.471 290.722 193.382C292.176 194.581 291.374 196.658 291.031 198.181C290.351 200.456 288.393 205.621 285.388 203.814Z" fill="#194128"/>
<path d="M307.047 182.857C306.231 181.24 307.949 179.656 308.605 178.256C308.247 176.809 309.583 174.225 311.105 173.915C311.544 173.779 312.012 173.768 312.457 173.883C312.901 173.999 313.305 174.237 313.621 174.571C313.937 174.904 314.154 175.319 314.246 175.769C314.339 176.219 314.303 176.686 314.144 177.117C313.376 179.426 309.933 186.271 307.047 182.857Z" fill="#194128"/>
<path d="M304.873 199.466C304.745 198.374 304.897 197.267 305.315 196.25C305.83 193.837 306.889 191.574 308.412 189.632C310.379 187.104 313.726 188.564 313.003 191.758C312.351 194.595 310.269 200.809 306.94 201.061C306.469 201.056 306.012 200.897 305.639 200.609C305.267 200.322 304.998 199.92 304.873 199.466Z" fill="#194128"/>
<path d="M307.739 181.687C306.43 181.343 307.33 179.757 307.631 178.927C308.28 177.324 309.327 175.914 310.674 174.829C310.754 174.743 310.85 174.673 310.957 174.624C311.065 174.575 311.181 174.549 311.299 174.546C311.417 174.543 311.534 174.564 311.644 174.607C311.753 174.65 311.853 174.715 311.937 174.798C311.999 174.895 312.038 175.005 312.051 175.12C312.064 175.235 312.05 175.351 312.01 175.459C311.971 175.568 311.907 175.666 311.823 175.745C311.74 175.825 311.639 175.884 311.529 175.919C310.556 177.14 309.76 178.493 309.164 179.937C308.808 180.591 308.672 181.792 307.739 181.687Z" fill="#194128"/>
<path d="M317.542 181.98C316.829 180.677 318.059 179.322 318.553 178.109C319.302 176.795 319.344 175.152 320.284 173.904C321.26 172.283 323.906 171.42 325.137 173.259C325.995 174.479 325.237 175.994 324.675 177.184C323.638 179.247 320.009 185.125 317.542 181.98Z" fill="#194128"/>
<path d="M335.942 176.885C333.468 176.624 333.693 173.716 334.37 171.963C334.652 171.204 334.811 170.404 334.84 169.594C335.154 167.663 336.588 165.131 338.889 165.803C340.659 166.377 340.7 168.306 340.417 169.827C339.998 172.465 339.326 176.807 335.942 176.885Z" fill="#194128"/>
<path d="M330.135 188.995C328.618 187.454 330.353 185.184 330.852 183.509C331.303 181.47 332.277 178.993 334.46 178.269C334.991 178.142 335.55 178.211 336.034 178.462C336.518 178.713 336.896 179.13 337.098 179.637C337.303 180.322 337.288 181.055 337.054 181.731C336.777 182.86 336.403 183.962 335.935 185.026C335.021 187.133 332.743 191.13 330.135 188.995Z" fill="#194128"/>
<path d="M321.652 191.945C321.349 191.783 321.085 191.557 320.879 191.282C320.673 191.007 320.53 190.69 320.461 190.353C320.391 190.017 320.396 189.669 320.476 189.335C320.555 189 320.707 188.688 320.921 188.419C321.27 187.311 321.715 186.235 322.252 185.205C323.086 183.513 325.009 180.966 327.03 182.554C328.453 183.795 327.343 185.798 326.842 187.271C325.971 189.337 324.475 192.904 321.652 191.945Z" fill="#194128"/>
<path d="M311.547 200.4C310.681 200.104 311.123 199.143 311.377 198.603C311.576 198.184 311.693 197.468 312.26 197.56C313.034 197.615 312.927 198.417 312.707 198.963C312.488 199.508 312.528 200.643 311.547 200.4Z" fill="#194128"/>
<path d="M307.454 185.831C306.504 185.474 307.111 184.588 307.427 183.963C307.742 183.338 307.864 183.025 308.094 182.564C308.118 182.512 308.158 182.468 308.207 182.438C308.256 182.408 308.313 182.393 308.371 182.396C308.899 182.577 308.555 183.447 308.559 183.863C308.428 184.589 308.568 186.06 307.454 185.831Z" fill="#194128"/>
<path d="M321.937 193.903C321.43 193.737 321.448 193.194 321.652 192.812C321.77 192.337 321.972 191.888 322.249 191.485C322.344 191.402 322.464 191.355 322.59 191.352C322.716 191.35 322.838 191.391 322.937 191.469C323.035 191.547 323.104 191.657 323.13 191.78C323.156 191.903 323.138 192.031 323.079 192.142C322.873 192.75 322.892 194.094 321.937 193.903Z" fill="#194128"/>
<path d="M330.59 191.811C330.515 191.799 330.443 191.772 330.378 191.731C330.313 191.691 330.257 191.638 330.213 191.575C330.169 191.513 330.138 191.442 330.122 191.368C330.105 191.293 330.104 191.216 330.118 191.141C330.277 190.287 330.603 189.473 331.078 188.745C331.917 188.407 331.611 189.699 331.517 190.134C331.422 190.57 331.399 191.872 330.59 191.811Z" fill="#194128"/>
<path d="M335.061 178.011C334.214 177.671 334.966 176.701 335.077 176.09C335.197 175.718 335.319 175.334 335.416 174.958C335.418 174.902 335.432 174.846 335.459 174.796C335.485 174.746 335.522 174.702 335.568 174.669C335.613 174.635 335.666 174.612 335.721 174.602C335.777 174.591 335.834 174.593 335.889 174.608C336.433 174.839 336.174 175.699 336.137 176.144C335.967 176.746 336.021 178.167 335.061 178.011Z" fill="#194128"/>
<path d="M344.512 173.688C343.796 173.417 344.296 172.68 344.491 172.213C344.764 171.557 344.951 170.851 345.234 170.209C345.27 170.138 345.327 170.08 345.398 170.044C345.469 170.008 345.55 169.996 345.628 170.008C345.707 170.021 345.779 170.059 345.835 170.115C345.891 170.172 345.927 170.245 345.939 170.324C345.891 170.804 345.79 171.277 345.638 171.735C345.368 172.368 345.381 173.889 344.512 173.688Z" fill="#194128"/>
<path d="M272.298 209.609C271.457 209.306 272.139 208.325 272.305 207.747C272.5 207.351 272.56 206.839 272.904 206.55C273.804 206.27 273.104 208.162 273.105 208.589C273.107 209.017 272.915 209.757 272.298 209.609Z" fill="#194128"/>
<path d="M264.146 211.556C263.337 211.128 264.23 210.24 264.451 209.683C264.643 209.382 264.797 208.873 265.205 208.844C265.613 208.816 265.687 209.386 265.327 209.482C264.943 210.013 265.138 211.801 264.146 211.556Z" fill="#194128"/>
<path d="M257.379 213.444C256.928 213.37 256.924 212.812 257.145 212.48C257.365 212.148 257.788 210.211 258.358 210.719C258.401 210.759 258.43 210.811 258.442 210.868C258.454 210.925 258.448 210.985 258.424 211.038C258.283 211.512 258.169 211.992 258.083 212.478C258.044 212.935 257.952 213.573 257.379 213.444Z" fill="#194128"/>
<path d="M249.819 209.362C248.848 209.204 249.256 208.084 249.454 207.451C249.562 207.075 249.648 206.692 249.712 206.306C249.695 206.219 249.697 206.13 249.718 206.044C249.738 205.958 249.777 205.878 249.831 205.808C249.885 205.738 249.953 205.68 250.031 205.639C250.109 205.598 250.195 205.574 250.284 205.568C251.307 205.628 250.766 206.834 250.749 207.52C250.732 208.205 250.802 209.38 249.819 209.362Z" fill="#194128"/>
<path d="M241.928 213.477C240.969 213.321 241.516 212.223 241.642 211.591C241.77 211.172 241.805 210.596 242.127 210.293C242.45 209.989 243.268 210.574 242.893 211.058C242.61 211.772 242.967 213.516 241.928 213.477Z" fill="#194128"/>
<path d="M233.01 210.242C233.097 209.71 233.184 209.178 233.263 208.692C233.303 208.446 233.343 208.203 233.382 207.964C233.185 207.932 233.177 207.693 233.313 207.585C233.321 207.529 233.344 207.477 233.381 207.435C233.417 207.392 233.465 207.361 233.518 207.345C234.015 207.284 234.027 208.01 234.1 208.366C234.079 209.075 234.729 210.842 233.683 210.921C233.592 210.929 233.5 210.917 233.415 210.886C233.329 210.854 233.251 210.804 233.187 210.74C233.123 210.675 233.074 210.596 233.043 210.51C233.013 210.424 233.001 210.333 233.01 210.242Z" fill="#194128"/>
</svg>
