<svg width="481" height="328" viewBox="0 0 481 328" fill="none" xmlns="http://www.w3.org/2000/svg">
<path d="M42.0168 242.875C41.5328 242.254 41.2075 241.525 41.0694 240.75C39.9139 237.383 38.3696 234.162 36.468 231.152C32.6094 225.339 26.8841 221.173 22.0004 216.274C18.6369 213.137 15.4778 209.775 12.0767 206.683L10.9268 205.72L10.828 205.637C9.09247 204.261 7.38562 202.832 5.68775 201.41C2.15351 198.788 2.13467 194.539 6.60692 193.012C12.1998 190.146 18.3039 188.732 24.3077 187.218C25.0572 187.019 25.8338 186.942 26.6079 186.99C26.8293 187.016 27.0337 187.122 27.1832 187.288C29.4536 186.852 31.694 186.273 33.8911 185.554L43.5502 182.211C45.9443 181.384 48.3005 180.474 50.6189 179.481L53.0214 178.436C54.0591 177.945 55.1043 177.445 56.1226 176.922C56.8464 176.55 57.5628 176.187 58.2612 175.809C59.7602 174.986 61.2577 174.147 62.7343 173.259L64.3056 172.313C67.7306 170.169 71.0491 167.854 74.261 165.368C75.3279 164.55 76.3769 163.716 77.4154 162.859L78.3382 162.104L79.6247 161.042C81.0419 159.86 82.524 158.564 83.8032 157.419C85.0823 156.275 86.3511 155.106 87.6108 153.93L89.2103 152.457L89.3607 152.278L89.6014 151.99C90.8927 150.795 92.2005 149.598 93.5262 148.415C95.5045 147.275 97.3456 145.715 99.0493 144.574L99.1621 144.44L102.088 142.168C104.623 140.18 107.122 138.162 109.536 136.027L111.092 134.625C112.451 133.44 113.774 132.225 115.086 130.985C117.892 128.949 120.754 126.99 123.692 125.141L125.577 123.984C126.447 123.475 127.381 122.943 128.204 122.471C129.027 121.999 129.861 121.551 130.694 121.103L130.695 121.102C138.88 116.789 147.49 113.336 156.388 110.8C162.951 109.079 169.625 107.815 176.363 107.017C188.167 105.455 200.086 106.021 211.844 106.285C216.832 106.442 221.814 106.349 226.778 106.334C232.013 106.286 237.262 106.386 242.447 106.143C246.521 105.87 250.578 105.385 254.602 104.691C258.318 104.013 262.06 103.448 265.737 102.707C268.851 101.857 272.036 101.291 275.252 101.015C280.087 100.678 284.931 100.623 289.765 100.544C294.82 100.353 299.883 100.508 304.918 101.006C309.823 101.363 314.687 102.148 319.456 103.352C322.46 104.126 325.503 105.145 328.321 105.977C331.139 106.808 333.982 107.629 336.833 108.275C336.944 108.307 341.064 108.99 341.098 109.003C357.443 96.3671 375.903 94.5409 429.003 102.707L443.003 176.922C415.677 163.732 401.45 165.69 376.648 174.077C371.282 174.923 365.871 175.444 360.443 175.638C348.961 176.431 337.094 173.723 325.488 174.81C311.372 175.719 298.456 180.415 285.727 185.527C275.203 188.357 264.903 191.961 254.911 196.309C243.415 198.281 231.603 197.215 220.646 193.216C209.805 189.702 199.379 183.922 187.994 182.428C160.876 181.163 142.48 204.542 119.17 214.334C113.003 217.758 106.163 220.069 100.064 223.595L99.9432 223.739C96.6708 224.262 93.3733 224.613 90.0642 224.789C88.189 224.839 86.3768 224.85 84.4839 224.793C83.6491 224.699 82.8066 224.696 81.9712 224.783C80.5658 225.348 78.9317 224.927 77.4756 225.389C77.15 225.529 76.8572 225.736 76.6162 225.996C76.3752 226.256 76.1912 226.563 76.076 226.898L48.9938 244.955C47.2532 245.062 45.5079 244.844 43.8469 244.313C43.129 243.99 42.5008 243.496 42.0168 242.875Z" fill="#AACC9A"/>
<path d="M115.029 131.015C117.04 129.124 119.008 127.211 120.994 125.313C123.377 123.106 125.966 121.072 128.143 118.8C129.662 117.351 131.117 115.85 132.562 114.325L135.093 111.63C138.293 108.502 141.255 105.146 144.121 101.723L144.873 100.825C145.728 99.6761 146.537 98.4899 147.32 97.2811C147.952 96.2825 148.57 95.2713 149.172 94.2476C151.255 90.7196 153.161 87.0743 155.269 83.5523L155.344 83.4625C157.809 78.8878 160.55 74.4675 163.553 70.2264C164.971 68.2155 166.322 66.1579 167.605 64.0537C169.405 61.1178 171.024 58.0746 172.453 54.9412C174.108 51.2868 175.414 47.4841 176.354 43.5839C176.867 42.058 177.432 40.5442 178.031 39.0439C178.427 38.0773 178.841 37.1092 179.263 36.1486L179.308 36.0947L179.969 35.0131C181.024 33.3146 182.132 31.6447 183.24 29.9747L183.24 29.9742C185.752 26.2252 188.17 22.3515 190.927 18.7306C192.155 17.4463 193.458 16.2365 194.831 15.1078C195.031 14.9834 195.195 14.8097 195.308 14.6032C195.422 14.3968 195.48 14.1647 195.477 13.9292C195.475 13.6938 195.412 13.4629 195.294 13.2589C195.177 13.0549 195.008 12.8847 194.806 12.7646L195.092 12.4232C199.607 7.9977 205.172 4.06963 211.536 3.14806C214.582 2.977 217.637 3.25845 220.6 3.98324C226.201 5.14205 231.406 7.19253 236.7 9.02719C243.484 11.3271 250.429 13.1219 257.477 14.3968C264.131 15.5205 270.731 17.0731 277.488 17.3975C279.63 17.5404 281.796 17.3983 283.935 17.5082C283.935 17.5082 295.001 20.2694 355.001 19.5C415.001 18.7306 439.001 56.6662 439.001 56.6662L427.001 110.842C401.858 107.911 384.873 107.008 340.636 108.969C340.592 108.948 337.337 108.438 337.193 108.409C337.049 108.38 336.908 108.384 336.827 108.317C333.96 107.689 331.268 106.871 328.315 106.019C325.362 105.166 322.431 104.195 319.449 103.394C314.681 102.19 309.816 101.405 304.911 101.048C299.877 100.55 294.814 100.395 289.758 100.586L289.265 100.594C284.597 100.67 279.934 100.746 275.245 101.057C272.029 101.328 268.844 101.895 265.731 102.748C262.036 103.475 258.311 104.055 254.596 104.733C250.572 105.427 246.514 105.911 242.44 106.185C237.233 106.455 232.007 106.327 226.771 106.375C221.8 106.4 216.825 106.483 211.838 106.327C200.097 106.078 188.161 105.497 176.356 107.059C169.619 107.857 162.944 109.121 156.381 110.842C147.467 113.371 138.839 116.819 130.637 121.132C129.804 121.58 129.035 122.006 128.147 122.5C127.259 122.995 126.39 123.505 125.52 124.014L123.635 125.171C120.696 127.02 117.834 128.978 115.029 131.015Z" fill="#9D9B36"/>
<path d="M10.8403 205.694C10.9163 205.95 11.0659 206.177 11.2704 206.348C11.4749 206.52 11.7252 206.627 11.9901 206.657C12.1753 206.676 12.3621 206.674 12.5467 206.649L12.8258 206.608C14.1677 207.578 15.651 208.362 16.9717 209.376C19.7157 211.514 22.342 213.8 24.8391 216.222C25.3635 216.791 26.0608 217.17 26.8228 217.302C27.887 217.307 28.9319 217.019 29.8429 216.469C32.2313 215.388 34.8095 214.789 37.4298 214.707C43.7099 214.489 49.9693 213.865 56.1688 212.839C61.4068 212.005 66.5748 210.78 71.6295 209.173C77.9421 207.108 84.0174 204.524 90.1939 202.239C99.2816 198.922 108.737 196.661 117.392 192.493C126.38 188.237 134.466 182.447 143.215 177.837C147.468 175.814 151.883 174.149 156.413 172.858C160.037 171.716 163.776 170.972 167.561 170.64C174.3 170.384 181.073 171.255 187.759 170.405C194.345 169.609 200.775 167.834 206.837 165.138C209.063 164.183 211.355 163.39 213.696 162.767C220.698 161.34 227.948 161.313 235.069 160.965C244.352 160.974 253.972 162.259 262.691 159.382C267.32 157.709 271.817 155.692 276.146 153.349C279.298 151.484 282.557 149.804 285.905 148.318C289.442 146.925 293.18 146.108 296.976 145.898C300.662 145.585 304.37 145.658 308.04 146.115C318.943 147.694 329.653 151.893 340.47 151.675C347.475 151.297 354.364 149.734 360.845 147.05C362.992 146.314 365.092 145.45 367.136 144.463C367.555 144.185 367.856 143.761 367.982 143.274C368.108 142.787 368.049 142.271 367.817 141.824C367.708 141.563 367.549 141.325 367.347 141.126C367.438 140.969 367.499 140.797 367.527 140.619C367.794 139.498 366.798 138.588 366.22 137.691C365.311 136.184 364.31 134.734 363.223 133.349C363.351 131.79 361.469 131.101 359.71 131.431C357.146 131.5 354.582 131.57 352.016 131.606C350.753 131.618 349.482 131.639 348.208 131.627C336.161 132.237 324.338 127.579 312.166 127.061C288.245 124.698 268.455 139.118 246.292 144.95C216.846 154.57 197.4 140.857 170.298 147.276C146.568 154.577 135.857 173.175 109.317 178.612C96.1778 182.479 82.2406 181.752 68.9584 185.224C54.7904 190.996 41.0829 198.773 25.9647 202.175C21.462 203.156 16.8597 203.606 12.2523 203.515C12.0023 203.535 11.7605 203.613 11.5452 203.742C11.33 203.871 11.1472 204.047 11.0108 204.257C10.8745 204.468 10.7882 204.707 10.7586 204.956C10.729 205.205 10.757 205.458 10.8403 205.694Z" fill="#0DA2AF"/>
<path fill-rule="evenodd" clip-rule="evenodd" d="M164.39 162.061C164.59 162.047 164.789 162.104 164.953 162.222C166.668 164.017 161.856 164.912 160.289 165.204C160.189 165.223 160.102 165.239 160.032 165.253C158.766 165.442 157.489 165.546 156.211 165.651C154.595 165.783 152.978 165.915 151.384 166.219C148.437 166.796 145.883 168.351 143.352 169.892C143.025 170.091 142.699 170.289 142.373 170.485C141.146 171.182 139.854 171.759 138.516 172.208C138.276 172.276 138.019 172.248 137.798 172.132C137.577 172.015 137.409 171.818 137.33 171.581C137.263 171.313 137.304 171.03 137.445 170.793C137.586 170.556 137.815 170.385 138.083 170.317C139.453 169.538 140.775 168.689 142.05 167.786C144.379 165.983 147.008 164.604 149.815 163.713C152.479 162.867 155.282 162.844 158.056 162.821C158.837 162.815 159.615 162.809 160.387 162.784C161.557 162.664 162.717 162.52 163.853 162.294C163.999 162.156 164.189 162.074 164.39 162.061ZM196.825 154.34C197.134 154.263 197.533 154.352 197.559 154.741C197.586 155.329 196.992 155.565 196.517 155.748C194.296 156.396 192.048 155.919 189.785 155.438L189.785 155.438C188.546 155.174 187.302 154.91 186.056 154.829C182.192 154.392 178.282 155.032 174.759 156.678L172.357 157.723C172.156 157.803 171.933 157.802 171.733 157.72C171.534 157.639 171.373 157.483 171.287 157.285C171.207 157.106 171.194 156.904 171.25 156.715C171.307 156.527 171.429 156.366 171.595 156.26C172.664 155.627 173.765 155.05 174.893 154.529C177.785 153.13 180.959 152.411 184.171 152.426C186.507 152.311 188.73 152.859 190.963 153.41L190.963 153.41C192.372 153.758 193.784 154.106 195.232 154.29C195.767 154.326 196.294 154.354 196.825 154.34ZM263.365 148.012C264.076 148.057 265.223 148.512 264.879 149.416C264.793 149.56 264.679 149.686 264.543 149.785C264.408 149.884 264.253 149.955 264.09 149.993C263.23 150.312 262.397 150.697 261.597 151.146C260.883 151.57 260.173 152.126 259.45 152.692L259.45 152.692C258.541 153.404 257.613 154.131 256.633 154.63C254.681 155.625 252.513 156.12 250.323 156.07C249.291 156.049 248.261 155.949 247.244 155.769C247.07 155.735 246.912 155.641 246.799 155.505C246.685 155.368 246.622 155.196 246.621 155.018C246.623 154.864 246.678 154.716 246.776 154.598C246.875 154.48 247.011 154.4 247.162 154.371C249.757 154.053 252.258 153.203 254.509 151.874C255.126 151.481 255.731 151.029 256.341 150.573C258.416 149.022 260.544 147.432 263.365 148.012ZM196.318 162.519C196.731 162.208 196.899 161.478 196.274 161.276C195.545 161.177 194.809 161.128 194.074 161.13C192.539 161.117 191.008 160.966 189.501 160.678C185.76 159.671 182.577 159.221 178.957 160.698C177.434 161.273 176.163 162.258 174.893 163.242L174.893 163.242C174.41 163.615 173.928 163.989 173.433 164.339C172.447 164.996 171.43 165.603 170.383 166.157C170.202 166.214 170.035 166.308 169.892 166.432C169.748 166.556 169.632 166.708 169.549 166.879C169.486 167.067 169.478 167.27 169.526 167.462C169.574 167.655 169.676 167.83 169.82 167.966C169.964 168.103 170.144 168.196 170.339 168.233C170.534 168.271 170.735 168.253 170.92 168.18C172.46 167.631 173.906 166.865 175.345 166.101L175.346 166.101C176.694 165.387 178.036 164.675 179.445 164.148C182.022 163.295 184.797 163.237 187.407 163.983C190.454 164.677 193.652 164.151 196.318 162.519Z" fill="white"/>
<path d="M339.878 130.751C339.996 130.667 340.089 130.552 340.147 130.419C340.204 130.286 340.224 130.139 340.205 129.995C340.185 129.852 340.126 129.716 340.035 129.603C339.944 129.49 339.824 129.404 339.688 129.354C338.248 129.158 336.793 129.162 335.338 129.074C333.121 129.021 330.84 128.808 328.629 128.638C325.358 128.42 322.13 127.567 318.863 127.016C314.677 126.378 310.448 126.072 306.215 126.099C303.109 126.158 299.991 126.726 296.946 127.004C295.765 127.102 294.579 127.129 293.394 127.086C292.982 127.031 292.406 127.007 292.38 127.567C292.374 127.716 292.424 127.863 292.52 127.978C292.616 128.092 292.752 128.167 292.901 128.186C293.769 128.225 294.633 128.307 295.494 128.355C299.424 128.589 303.249 127.543 307.186 127.86C310.869 128.076 314.535 128.518 318.165 129.182C321.45 130.033 324.778 130.713 328.134 131.218C331.626 131.483 336.822 132.394 339.878 130.751Z" fill="#194128"/>
<path fill-rule="evenodd" clip-rule="evenodd" d="M257.43 182.172C257.474 181.519 256.678 180.896 255.985 180.354C255.652 180.094 255.344 179.853 255.163 179.636L253.366 178.132C253.206 178.005 253.005 177.94 252.801 177.949C252.702 177.953 252.605 177.978 252.516 178.022C252.427 178.066 252.348 178.128 252.285 178.204C252.221 178.28 252.174 178.369 252.146 178.464C252.119 178.559 252.111 178.659 252.124 178.757C252.16 178.969 252.271 179.16 252.438 179.295L255.286 181.679C255.563 182.018 255.976 182.522 256.403 182.731C256.368 182.839 256.354 182.968 256.368 183.122C256.45 184.046 257.401 183.987 258.052 183.921C259.199 183.972 260.347 183.954 261.491 183.865C266.261 183.238 270.403 180.81 274.425 178.452C274.486 178.416 274.547 178.381 274.608 178.345C275.728 177.755 276.885 177.195 278.086 176.673C278.723 176.514 279.308 176.193 279.783 175.741C280.337 174.354 277.487 174.708 276.415 174.841C276.301 174.856 276.206 174.867 276.139 174.874C273.47 175.311 271.128 176.508 268.789 177.703C268.025 178.094 267.261 178.485 266.485 178.848C264.361 180.004 262.144 180.979 259.857 181.765C259.2 181.927 258.533 182.052 257.861 182.141C257.832 182.143 257.802 182.145 257.772 182.147C257.661 182.153 257.545 182.16 257.43 182.172Z" fill="#194128"/>
<path d="M98.5497 112.789L98.2763 112.988L98.5094 112.71L98.5497 112.789ZM81.493 144.716C82.4051 146.25 83.6028 147.595 85.0212 148.678C85.5176 149.031 86.0575 149.319 86.6274 149.534C87.0292 149.69 87.4462 149.803 87.8717 149.873C88.8529 149.985 89.8468 149.897 90.793 149.614C91.7317 149.322 92.634 148.924 93.4823 148.427C95.4605 147.287 97.2837 145.712 99.0054 144.586L99.1182 144.451L102.044 142.179C104.579 140.191 107.078 138.174 109.492 136.038L111.048 134.636C112.407 133.451 113.7 132.272 115.042 130.997C117.039 129.124 119.007 127.211 121.008 125.295C123.39 123.088 125.95 121.09 128.205 118.761C129.723 117.312 131.186 115.802 132.624 114.286L135.155 111.591C138.345 108.456 141.317 105.107 144.182 101.684L144.934 100.786C145.789 99.6373 146.599 98.4511 147.382 97.2423C148.02 96.2487 148.637 95.2375 149.234 94.2088C151.316 90.6809 153.222 87.0355 155.33 83.5136L155.406 83.4237C157.87 78.849 160.612 74.4288 163.614 70.1876C165.027 68.1717 166.378 66.1141 167.666 64.0149C169.467 61.079 171.086 58.0359 172.515 54.9024C174.17 51.2481 175.476 47.4454 176.415 43.5451C176.921 42.0282 177.45 40.4843 178.092 39.0052C178.489 38.0385 178.902 37.0704 179.324 36.1098L179.369 36.0559L180.03 34.9743C181.086 33.2756 182.194 31.6055 183.301 29.9355C185.814 26.1864 188.187 22.2751 190.988 18.6918C192.217 17.408 193.52 16.1983 194.892 15.0689C195.092 14.9446 195.257 14.7708 195.37 14.5644C195.483 14.358 195.541 14.1259 195.539 13.8904C195.536 13.6549 195.473 13.4241 195.356 13.2201C195.238 13.0161 195.07 12.8458 194.867 12.7257C194.846 12.7148 194.828 12.6994 194.813 12.6806C194.416 12.5451 193.987 12.5347 193.584 12.6507C193.181 12.7667 192.823 13.0037 192.559 13.3295C191.636 14.085 190.731 14.9469 189.859 15.806C187.366 18.2118 185.108 20.8486 183.113 23.6811C181.356 25.9688 179.785 28.3942 178.416 30.9339C177.961 31.8974 177.515 32.8685 177.102 33.8366C175.112 36.9072 173.609 40.2175 171.74 43.344C168.584 48.9381 165.38 54.4452 162.08 59.919C156.815 68.636 150.403 76.8974 141.897 82.7494C140.118 84.0715 138.339 85.3935 136.53 86.6599C132.451 89.1987 128.209 91.4666 123.833 93.449C122.471 94.1269 121.098 94.7808 119.735 95.4423C117.129 96.4342 114.613 97.6449 112.212 99.0614C110.694 99.9445 109.178 100.861 107.746 101.877C106.483 102.73 105.23 103.606 104.012 104.512C100.748 106.966 97.6189 109.595 94.6384 112.387C92.9138 114.137 91.3344 116.023 89.6832 117.85L89.1417 118.497C87.6591 120.255 86.2981 122.112 85.0683 124.056C82.9608 127.289 81.4423 130.87 80.5829 134.633L80.4768 135.125C80.303 136.282 80.2536 137.455 80.3293 138.623L80.3768 140.19C80.4151 141.762 80.7961 143.306 81.493 144.716Z" fill="#AACC9A"/>
<path fill-rule="evenodd" clip-rule="evenodd" d="M44.3815 247.136C44.2835 246.988 42.508 243.719 42.473 243.544L41.0089 240.256L39.6405 237.109C36.2737 232.528 32.9149 227.943 29.5642 223.355C26.2879 220.297 23.0167 217.232 19.7505 214.161L3.84735 199.319L3.1186 196.539L4.33468 194.12C8.06257 192.514 11.7919 190.925 15.5227 189.352L17.7633 188.921C17.8446 188.751 17.9658 188.603 18.1164 188.49C18.2671 188.376 18.4429 188.301 18.6289 188.27C21.9604 187.667 25.2638 186.934 28.5373 186.145C33.821 184.67 38.8943 182.699 44.0215 180.772C47.5121 179.546 50.9172 178.088 54.2141 176.409C55.4088 175.438 56.5857 174.452 57.7161 173.412C61.8925 170.048 64.6556 165.47 67.6313 161.04C69.8213 157.871 71.7364 154.521 73.356 151.026C74.1467 148.968 74.843 146.877 75.5153 144.797C75.8443 141.437 76.7192 138.155 78.1056 135.077C78.5083 132.997 79.1492 130.97 80.0154 129.036C82.2796 124.178 86.0029 120.205 89.5776 116.246C90.6005 115.024 91.7071 113.903 92.8016 112.833C97.2534 108.446 105.083 100.883 112.324 98.9685C111.044 99.8222 105.341 103.513 104.115 104.412C100.851 106.866 97.7215 109.495 94.741 112.287C93.0164 114.037 91.437 115.923 89.7857 117.749L89.2442 118.396C87.7616 120.154 86.4006 122.012 85.1708 123.955C83.0634 127.189 81.5449 130.77 80.6855 134.533L80.5793 135.024C80.4055 136.182 80.3561 137.354 80.4319 138.522L80.4793 140.09C80.4955 141.686 80.8648 143.258 81.5609 144.693C82.473 146.227 83.6707 147.572 85.0891 148.656C85.5855 149.009 86.1253 149.296 86.6952 149.511C87.0971 149.667 87.5141 149.781 87.9395 149.85C88.9208 149.963 89.9147 149.875 90.8608 149.591C91.7996 149.3 92.7019 148.902 93.5502 148.405C95.5284 147.265 97.3516 145.689 99.0733 144.564L99.3196 144.434C99.7715 144.277 100.317 143.954 100.86 143.707L102.139 142.179C104.674 140.192 107.173 138.174 109.587 136.039L111.143 134.637C112.502 133.452 113.795 132.272 115.137 130.997C117.134 129.124 119.101 127.211 121.102 125.296C123.485 123.088 126.044 121.09 128.3 118.761C129.818 117.313 131.281 115.802 132.719 114.286C135.616 111.318 138.677 108.502 141.375 105.352C142.375 104.157 143.376 102.962 144.285 101.675L145.037 100.777C145.891 99.6285 146.701 98.4423 147.484 97.2335L147.687 96.9909C148.289 96.0892 148.839 95.1589 149.363 94.2226C151.446 90.6946 153.351 87.0492 155.46 83.5273L155.535 83.4375C158 78.8631 160.742 74.443 163.743 70.2013C165.156 68.1854 166.507 66.1279 167.796 64.0287C169.596 61.0928 171.215 58.0496 172.644 54.9162C174.297 51.261 175.603 47.4585 176.544 43.5589C177.05 42.0419 177.586 40.489 178.221 39.0189C177.398 42.7762 176.547 46.4945 175.598 50.2381C175.183 51.7552 174.743 53.2663 174.243 54.7578C173.339 57.6664 172.102 60.4608 170.557 63.0854C168.569 66.5551 166.225 69.865 164.07 73.2248C163.451 74.1944 162.864 75.1696 162.308 76.1504C160.693 78.9549 159.226 81.8213 157.812 84.7327C156.006 88.4774 154.583 92.4043 152.515 96.0059C148.388 102.985 143.268 109.328 137.317 114.835C135.258 117.038 133.072 119.12 130.821 121.116C124.996 126.248 118.762 130.884 112.921 136.018C109.763 138.914 106.874 142.09 104.288 145.507C101.68 148.601 98.8555 151.506 95.8351 154.199C88.2883 161.388 78.9778 166.413 69.9027 171.467C69.9527 171.28 69.9746 171.528 69.9027 171.467C66.7481 173.41 63.4857 175.263 60.3938 177.35C57.3852 179.648 54.2107 181.719 50.8961 183.548C46.4177 185.778 41.8126 187.744 37.1044 189.436C36.5952 189.697 36.0771 189.951 35.5694 190.229C33.4225 191.331 31.5255 192.864 29.9969 194.731C28.916 196.106 28.3762 197.828 28.4797 199.573C29.2575 200.561 30.0429 201.539 30.8898 202.462C33.3566 204.925 36.2951 206.866 39.5294 208.167C39.6821 208.295 39.9085 208.316 40.0899 208.392L41.1021 208.552C45.5079 209.184 49.8419 209.757 54.2588 210.139C55.8761 210.183 57.4867 210.366 59.0728 210.685C60.646 210.809 62.1938 211.154 63.6713 211.708C66.3868 212.649 68.9996 213.864 71.4695 215.334C79.7624 219.098 88.3174 222.44 97.3101 223.215C98.4409 223.284 99.5744 223.294 100.706 223.247C106.657 219.917 113.249 217.628 119.226 214.304C142.535 204.512 160.932 181.133 188.049 182.397C199.434 183.892 209.86 189.672 220.701 193.185C231.903 197.308 243.833 196.874 254.934 194.968C259.161 194.244 263.301 194.409 267.208 192.882C273.473 190.563 279.606 187.982 285.774 185.506C298.511 180.385 311.42 175.698 325.536 174.788C337.142 173.702 349.009 176.41 360.491 175.617C365.919 175.423 371.33 174.902 376.696 174.056L454.003 136.018L474.003 271.315L235 314.5L115.137 321.938C77.4725 307.392 58.9005 295.516 44.3815 247.136Z" fill="#194128"/>
<path d="M221.683 67.3725C219.091 66.7413 215.802 66.7081 214.191 64.2497C213.821 63.6326 213.625 62.9263 213.625 62.2066C213.625 61.4868 213.821 60.7806 214.191 60.1635C217.513 55.3463 228.526 56.8413 230.353 62.3727C230.56 63.0801 230.562 63.8315 230.359 64.5399C230.156 65.2483 229.757 65.8848 229.207 66.3759C227.214 68.2197 224.141 67.7214 221.683 67.3725Z" fill="white"/>
<path d="M215.04 60.9106C213.512 60.6781 211.9 59.8808 211.867 58.1366C211.899 57.6687 212.073 57.2217 212.366 56.8551C212.658 56.4885 213.056 56.2197 213.505 56.0844C213.954 55.9492 214.433 55.9539 214.88 56.0979C215.326 56.242 215.718 56.5185 216.003 56.8908C217.681 58.2529 217.631 61.0269 215.04 60.9106Z" fill="#231F20"/>
<path d="M213.976 69.4655C213.146 68.6184 213.976 67.7214 214.674 67.1234C215.282 66.4745 215.746 65.7047 216.036 64.8644C216.568 64.0172 217.697 64.6152 217.564 65.5288C217.564 66.8078 215.588 70.9605 213.976 69.4655Z" fill="#231F20"/>
<path d="M226.666 70.496C225.511 69.1915 224.914 67.4854 225.005 65.7453C225.032 65.6508 225.084 65.5656 225.156 65.499C225.229 65.4325 225.318 65.3873 225.414 65.3684C225.51 65.3494 225.61 65.3576 225.702 65.3919C225.794 65.4261 225.875 65.4852 225.935 65.5625C226.589 66.7836 227.417 67.9028 228.394 68.8847C228.607 69.1138 228.721 69.4184 228.71 69.7314C228.699 70.0445 228.565 70.3404 228.336 70.5541C228.106 70.7677 227.802 70.8817 227.489 70.8707C227.176 70.8598 226.88 70.725 226.666 70.496Z" fill="#231F20"/>
<path d="M246.482 57.0907C242.877 56.6422 238.177 55.9944 238.874 51.2104C240.336 44.1841 250.419 44.3169 253.824 49.6656C254.514 50.6237 254.834 51.7995 254.724 52.9753C254.614 54.1511 254.082 55.2473 253.226 56.0608C251.449 57.7551 248.741 57.4395 246.482 57.0907Z" fill="white"/>
<path d="M251.067 51.1935C248.642 48.1039 254.257 45.496 256.732 46.9744C256.986 47.1047 257.209 47.2897 257.384 47.516C257.559 47.7423 257.681 48.0045 257.743 48.2837C257.805 48.563 257.805 48.8524 257.742 49.1314C257.679 49.4105 257.555 49.6722 257.38 49.8979C256.455 50.7722 255.23 51.2596 253.958 51.26C253.556 51.6153 253.036 51.8059 252.5 51.7936C251.964 51.7813 251.452 51.5669 251.067 51.1935Z" fill="#231F20"/>
<path d="M239.041 59.5325C238.954 59.3726 238.902 59.1965 238.887 59.0154C238.872 58.8343 238.895 58.652 238.955 58.4802C239.014 58.3085 239.108 58.1509 239.232 58.0175C239.355 57.8841 239.505 57.7778 239.672 57.7053C240.5 57.1371 241.206 56.4085 241.748 55.5625C241.736 55.3662 241.771 55.1698 241.85 54.9896C241.929 54.8093 242.049 54.6502 242.201 54.5254C242.353 54.4005 242.532 54.3134 242.724 54.2712C242.916 54.229 243.116 54.2329 243.306 54.2825C243.496 54.3322 243.672 54.4262 243.819 54.5569C243.966 54.6876 244.08 54.8512 244.152 55.0344C244.224 55.2175 244.251 55.4151 244.231 55.6108C244.212 55.8066 244.147 55.9949 244.04 56.1605C243.741 57.7718 240.585 61.5756 239.041 59.5325Z" fill="#231F20"/>
<path d="M250.187 59.2667C249.823 58.7863 249.511 58.2685 249.256 57.7219C248.841 56.9246 248.775 55.5293 249.855 55.2303C250.469 55.031 251.001 55.5625 251.183 56.1107C251.632 56.8748 252.662 57.2402 252.844 58.187C252.909 58.5196 252.856 58.8643 252.695 59.1621C252.533 59.46 252.274 59.6926 251.96 59.8201C251.646 59.9476 251.297 59.9621 250.974 59.8612C250.651 59.7602 250.372 59.5501 250.187 59.2667Z" fill="#231F20"/>
<path d="M217.099 34.799C214.059 31.5931 218.046 27.6895 221.318 26.859C222.762 26.4164 224.282 26.2765 225.782 26.448C227.283 26.6195 228.732 27.0987 230.039 27.8556C230.642 28.1651 231.16 28.6188 231.546 29.1764C231.932 29.734 232.174 30.3782 232.251 31.0519C232.329 31.7257 232.238 32.4081 231.989 33.0385C231.739 33.669 231.337 34.2281 230.82 34.6661C228.943 36.0448 226.451 35.9451 224.175 36.0282C221.9 36.1112 218.943 36.6095 217.099 34.799Z" fill="white"/>
<path d="M230.639 31.9907C230.292 31.6877 230.034 31.2962 229.893 30.8579C229.751 30.4196 229.731 29.9511 229.835 29.5025C229.939 29.0538 230.163 28.6419 230.483 28.3107C230.803 27.9795 231.207 27.7414 231.652 27.6221C232.928 27.259 234.294 27.3956 235.473 28.0041C235.703 28.1731 235.898 28.3862 236.045 28.6311C236.193 28.8759 236.29 29.1475 236.332 29.4303C236.374 29.7131 236.359 30.0013 236.288 30.2783C236.218 30.5553 236.093 30.8155 235.921 31.0439C235.201 31.6516 234.334 32.059 233.407 32.2252C232.48 32.3914 231.525 32.3105 230.639 31.9907Z" fill="#231F20"/>
<path d="M216.8 41.7095C216.593 41.6118 216.412 41.4675 216.27 41.288C216.129 41.1085 216.031 40.8986 215.984 40.6749C215.938 40.4512 215.943 40.2196 216.001 39.9985C216.059 39.7774 216.168 39.5728 216.318 39.4006C216.945 38.3138 217.314 37.0977 217.398 35.8459C217.182 35.6073 217.058 35.3002 217.048 34.9791C217.037 34.6579 217.14 34.3432 217.339 34.0907C217.537 33.8382 217.819 33.6642 218.134 33.5993C218.449 33.5345 218.776 33.583 219.059 33.7363C220.388 34.5004 219.474 38.0551 219.175 39.3341C218.876 40.6132 218.361 42.3241 216.8 41.7095Z" fill="#231F20"/>
<path d="M227.231 41.9082C227.065 41.8589 226.911 41.775 226.78 41.662C226.648 41.5491 226.542 41.4096 226.468 41.2527C226.395 41.0958 226.355 40.9251 226.352 40.7518C226.349 40.5785 226.382 40.4065 226.45 40.2471C226.915 39.0179 227.381 37.7721 227.829 36.5263C228.194 35.8619 227.995 34.9815 228.477 34.4666C228.587 34.3542 228.725 34.2733 228.877 34.2324C229.029 34.1915 229.189 34.1921 229.341 34.234C230.802 34.8818 229.507 37.4399 229.341 38.6193C228.925 39.782 229.042 42.2404 227.231 41.9082Z" fill="#231F20"/>
<path d="M278.026 43.1043C275.627 42.861 273.297 42.1559 271.166 41.028C270.711 40.7848 270.31 40.4531 269.985 40.0525C269.66 39.652 269.419 39.1905 269.275 38.6954C269.131 38.2002 269.087 37.6812 269.147 37.169C269.206 36.6568 269.368 36.1616 269.621 35.7125C271.282 33.1379 274.787 32.3904 277.661 32.7226C280.534 33.0548 284.139 35.6959 284.305 39.0347C284.471 42.3735 280.8 43.6193 278.026 43.1043Z" fill="white"/>
<path d="M282.562 38.0216C282.479 37.7906 282.479 37.5383 282.562 37.3073C281.864 34.1512 286.332 33.6197 288.11 35.3472C288.382 35.6322 288.577 35.9813 288.679 36.3621C288.78 36.7429 288.784 37.1431 288.689 37.5257C288.595 37.9083 288.406 38.2609 288.139 38.5508C287.872 38.8407 287.536 39.0586 287.163 39.1843C285.651 39.7823 283.259 39.7823 282.562 38.0216Z" fill="#231F20"/>
<path d="M268.956 43.3361C268.092 41.7581 270.235 41.2265 270.9 40.1468C271 40.0295 271.064 39.885 271.082 39.7315C271.068 39.5134 271.097 39.2946 271.167 39.0877C271.238 38.8807 271.348 38.6896 271.492 38.5254C271.637 38.3611 271.812 38.2268 272.008 38.1303C272.204 38.0337 272.417 37.9767 272.635 37.9625C272.853 37.9483 273.072 37.9772 273.279 38.0476C273.486 38.118 273.677 38.2284 273.841 38.3727C274.006 38.5169 274.14 38.692 274.237 38.8882C274.333 39.0843 274.39 39.2975 274.404 39.5156C275.036 41.2763 270.252 45.6118 268.956 43.3361Z" fill="#231F20"/>
<path d="M278.161 46.7097C277.581 45.4315 277.071 44.1228 276.633 42.7896C276.488 42.5208 276.413 42.2199 276.414 41.9145C276.415 41.6092 276.493 41.309 276.641 41.0415C276.788 40.774 277 40.5477 277.257 40.3833C277.515 40.2188 277.809 40.1215 278.114 40.1002C278.418 40.0788 278.723 40.1342 279.001 40.2612C279.279 40.3882 279.52 40.5827 279.704 40.8271C279.887 41.0715 280.006 41.3579 280.05 41.6601C280.093 41.9623 280.061 42.2706 279.955 42.557C280.437 44.2181 282.546 46.1616 280.603 47.5403C280.393 47.6718 280.158 47.7549 279.912 47.7836C279.667 47.8124 279.418 47.786 279.184 47.7064C278.95 47.6268 278.737 47.4961 278.56 47.3237C278.383 47.1513 278.247 46.9415 278.161 46.7097Z" fill="#231F20"/>
<path d="M261.201 92.5885C258.809 92.1732 250.255 90.0138 250.604 86.974C250.09 86.0613 249.908 84.9994 250.086 83.9676C250.265 82.9358 250.794 81.997 251.584 81.3097C253.288 80.1556 255.29 79.5208 257.348 79.4825C260.506 79.3886 263.598 80.4055 266.085 82.3562C271.517 86.5754 267.796 94.0669 261.201 92.5885Z" fill="white"/>
<path d="M251.118 81.1611C250.847 80.3067 250.707 79.4163 250.703 78.52C250.708 78.1176 250.837 77.7265 251.073 77.4007C251.309 77.0749 251.64 76.8304 252.021 76.7009C252.402 76.5715 252.814 76.5635 253.2 76.6781C253.586 76.7927 253.926 77.0241 254.175 77.3406C254.592 77.982 254.873 78.7019 255.001 79.456C255.13 80.2101 255.103 80.9825 254.922 81.7258C254.092 83.7524 251.7 82.9717 251.118 81.1611Z" fill="#231F20"/>
<path d="M250.088 93.7011C248.975 92.04 251.45 91.5749 252.181 90.4952C251.5 89.1331 253.975 88.3358 254.324 89.7809C254.673 91.2261 251.583 95.6113 250.088 93.7011Z" fill="#231F20"/>
<path d="M262.799 96.2592C261.487 95.0798 259.477 93.5848 260.108 91.5915C260.155 91.4677 260.236 91.3598 260.342 91.2804C260.448 91.201 260.574 91.1534 260.706 91.143C260.849 91.1292 260.994 91.1581 261.121 91.2261C261.248 91.294 261.352 91.3981 261.42 91.5251C261.769 92.8705 263.198 93.3689 264.277 94.0499C264.422 94.147 264.547 94.2717 264.644 94.4169C264.74 94.5621 264.808 94.7249 264.842 94.8962C264.876 95.0674 264.876 95.2436 264.841 95.4147C264.807 95.5859 264.74 95.7487 264.643 95.8937C264.546 96.0388 264.421 96.1633 264.276 96.2602C264.131 96.3571 263.968 96.4244 263.796 96.4583C263.625 96.4922 263.449 96.4921 263.278 96.458C263.107 96.4238 262.944 96.3562 262.799 96.2592Z" fill="#231F20"/>
<path d="M199.923 91.8226C194.757 91.0917 193.86 85.0952 198.976 83.3842C200.258 82.2357 201.755 81.3512 203.379 80.7812C205.004 80.2111 206.725 79.9668 208.444 80.0621C212.082 80.0621 216.151 83.3843 214.324 87.3044C212.497 91.2246 203.992 92.4039 199.923 91.8226Z" fill="white"/>
<path d="M197.778 85.1292C196.698 84.3817 196.649 82.9864 196.516 81.8071C196.519 81.5212 196.587 81.2398 196.715 80.9844C196.844 80.729 197.029 80.5063 197.256 80.3332C197.484 80.1602 197.748 80.0414 198.028 79.9859C198.309 79.9304 198.598 79.9397 198.874 80.0131C199.317 80.198 199.715 80.4742 200.044 80.8238C200.372 81.1734 200.623 81.5883 200.78 82.0415C200.936 82.4947 200.996 82.9759 200.954 83.4536C200.912 83.9314 200.769 84.3948 200.536 84.8136C200.386 85.0298 200.192 85.2116 199.967 85.3467C199.741 85.4818 199.489 85.5672 199.228 85.5971C198.967 85.627 198.703 85.6007 198.453 85.52C198.203 85.4393 197.972 85.3061 197.778 85.1292Z" fill="#231F20"/>
<path d="M199.591 96.1598C199.354 96.1225 199.133 96.0174 198.954 95.8572C198.775 95.697 198.646 95.4886 198.583 95.2569C198.52 95.0253 198.525 94.7803 198.598 94.5514C198.67 94.3226 198.808 94.1197 198.993 93.9671C199.445 93.682 199.829 93.3003 200.116 92.8494C200.403 92.3985 200.587 91.8896 200.654 91.3593C200.507 91.1997 200.403 91.0048 200.353 90.7934C200.303 90.582 200.309 90.3613 200.369 90.1526C200.429 89.9438 200.542 89.7542 200.697 89.602C200.852 89.4498 201.044 89.3401 201.253 89.2836C201.463 89.2272 201.684 89.2258 201.894 89.2796C202.105 89.3334 202.298 89.4407 202.455 89.5909C202.612 89.7412 202.727 89.9294 202.79 90.1373C202.853 90.3452 202.861 90.5659 202.814 90.7779C203.246 92.9373 201.933 95.8774 199.591 96.1598Z" fill="#231F20"/>
<path d="M217.53 92.1888C215.587 91.6074 213.294 91.4745 211.683 90.129C211.406 89.9311 211.197 89.653 211.083 89.3322C210.97 89.0115 210.958 88.6637 211.048 88.3357C211.139 88.0078 211.328 87.7156 211.59 87.4986C211.852 87.2816 212.174 87.1503 212.513 87.1225C212.706 87.1008 212.9 87.128 213.079 87.2018C213.258 87.2755 213.415 87.3933 213.536 87.5442C213.657 87.6951 213.738 87.8741 213.771 88.0647C213.805 88.2553 213.789 88.4512 213.726 88.6341C215.181 88.9352 216.65 89.1625 218.128 89.3151C218.509 89.3944 218.843 89.6219 219.056 89.9474C219.27 90.2729 219.345 90.6699 219.266 91.051C219.186 91.432 218.959 91.766 218.634 91.9794C218.308 92.1927 217.911 92.2681 217.53 92.1888Z" fill="#231F20"/>
<path fill-rule="evenodd" clip-rule="evenodd" d="M301.414 88.0146C300.284 89.8022 299.419 92.5608 301.592 93.9624C301.56 94.0465 301.527 94.1301 301.493 94.2128C301.463 94.2832 301.427 94.3598 301.389 94.44L301.389 94.44L301.389 94.4402L301.389 94.4403C301.175 94.8917 300.906 95.4581 301.513 95.6882C302.143 95.8338 302.31 95.0762 302.456 94.4068C306.771 95.7585 311.329 84.7007 306.44 83.8366C304.089 83.5462 302.882 85.5681 301.859 87.2821L301.859 87.2822C301.708 87.5359 301.561 87.7829 301.414 88.0146ZM291.924 98.5555C290.552 97.6942 290.802 95.4265 291.368 93.963C291.65 93.2035 291.808 92.4038 291.837 91.5942C292.152 89.6631 293.586 87.131 295.886 87.8028C297.656 88.3764 297.698 90.3062 297.414 91.8269L297.408 91.8643C296.992 94.4896 296.316 98.7542 293.002 98.8826C292.898 99.4852 292.715 100.118 292.058 100.01C291.44 99.7621 291.674 99.1777 291.889 98.6426L291.924 98.5555ZM287.314 106.852C286.686 108.271 285.993 109.838 287.132 110.995C287.327 111.154 287.52 111.28 287.711 111.374C287.43 111.931 287.229 112.525 287.114 113.14C287.1 113.216 287.101 113.293 287.118 113.367C287.134 113.442 287.165 113.513 287.209 113.575C287.253 113.637 287.309 113.69 287.374 113.731C287.439 113.772 287.511 113.799 287.586 113.811C288.261 113.862 288.389 112.965 288.467 112.413C288.483 112.303 288.497 112.206 288.513 112.134L288.521 112.094C288.549 111.969 288.588 111.791 288.615 111.603C290.577 111.639 292.196 108.721 292.931 107.026C293.399 105.962 293.773 104.859 294.05 103.73C294.284 103.054 294.3 102.322 294.094 101.636C293.892 101.13 293.514 100.713 293.03 100.462C292.546 100.21 291.987 100.142 291.457 100.268C289.273 100.992 288.299 103.469 287.848 105.508C287.724 105.926 287.522 106.381 287.314 106.852ZM278.651 113.945C278.348 113.783 278.084 113.557 277.878 113.282C277.672 113.006 277.53 112.689 277.46 112.353C277.39 112.017 277.395 111.669 277.475 111.335C277.554 111 277.707 110.688 277.92 110.419C278.269 109.31 278.714 108.235 279.252 107.205C280.086 105.513 282.009 102.966 284.029 104.553C285.234 105.604 284.623 107.202 284.103 108.561C284.009 108.807 283.918 109.045 283.841 109.271L283.835 109.287C283.128 110.962 282.013 113.607 280.118 114.043C280.108 114.077 280.095 114.11 280.078 114.142C280.032 114.279 279.997 114.453 279.96 114.638C279.831 115.277 279.676 116.051 278.937 115.902C278.43 115.737 278.447 115.193 278.652 114.811C278.719 114.54 278.814 114.278 278.934 114.027C278.841 114.005 278.747 113.977 278.651 113.945ZM267.574 118.204C267.446 117.112 267.598 116.005 268.015 114.988C268.531 112.575 269.59 110.312 271.113 108.371C273.08 105.843 276.427 107.302 275.704 110.496C275.058 113.304 273.014 119.417 269.746 119.79C269.96 120.08 269.862 120.583 269.709 120.962C269.659 121.087 269.622 121.242 269.584 121.405L269.584 121.405C269.455 121.954 269.306 122.587 268.549 122.399C267.683 122.103 268.124 121.143 268.379 120.603C268.419 120.517 268.457 120.418 268.495 120.317C268.591 120.064 268.694 119.793 268.875 119.651C268.685 119.576 268.504 119.475 268.34 119.348C267.967 119.06 267.698 118.659 267.574 118.204ZM274.539 103.98C274.008 103.01 274.553 102.012 275.071 101.064C275.249 100.739 275.423 100.419 275.55 100.109C275.881 99.528 276.074 98.8827 276.267 98.2358C276.511 97.4192 276.756 96.6 277.28 95.904C278.257 94.2826 280.902 93.4201 282.134 95.259C282.968 96.4454 282.275 97.9104 281.719 99.0848L281.672 99.1842C280.635 101.247 277.006 107.125 274.539 103.98ZM264.046 104.857C263.721 104.212 263.798 103.572 264.05 102.948C264 102.459 264.258 101.834 264.467 101.327L264.467 101.327C264.527 101.182 264.583 101.047 264.626 100.927C264.892 100.27 265.225 99.645 265.618 99.0616C265.899 97.697 266.948 96.1499 268.104 95.9147C268.543 95.7781 269.011 95.7672 269.456 95.883C269.9 95.9989 270.304 96.2369 270.62 96.5702C270.936 96.9035 271.153 97.3187 271.245 97.7688C271.338 98.2188 271.302 98.6858 271.143 99.1168C270.506 101.031 268.03 106.066 265.557 105.782C265.555 105.81 265.554 105.837 265.554 105.862C265.529 106.003 265.514 106.171 265.498 106.35L265.498 106.35C265.431 107.094 265.348 108.016 264.449 107.831C263.6 107.512 263.994 106.772 264.312 106.172C264.351 106.1 264.388 106.03 264.422 105.963C264.523 105.761 264.605 105.592 264.677 105.44C264.464 105.295 264.254 105.102 264.046 104.857Z" fill="#194128"/>
<path fill-rule="evenodd" clip-rule="evenodd" d="M242.394 125.813C241.156 124.831 241.695 123.207 242.129 121.902L242.13 121.901C242.171 121.777 242.211 121.657 242.248 121.54C242.721 119.148 244.454 113.471 247.728 115.382C248.986 116.419 248.556 118.113 248.195 119.536L248.195 119.537C248.138 119.759 248.084 119.975 248.037 120.181C247.358 122.456 245.399 127.621 242.394 125.813ZM230.151 128.344C230.394 128.592 230.699 128.771 231.034 128.864C233.185 129.286 234.441 126.748 234.986 125.08C235.054 124.809 235.143 124.526 235.234 124.236C235.597 123.081 235.991 121.828 235.208 120.808C233.033 118.423 230.732 121.395 229.959 123.513C229.896 123.668 229.826 123.829 229.753 123.996C229.258 125.131 228.668 126.483 229.649 127.451C229.735 127.788 229.908 128.096 230.151 128.344ZM229.15 130.174C228.921 130.723 228.649 131.372 229.305 131.609C229.922 131.757 230.114 131.017 230.112 130.589C230.112 130.481 230.156 130.28 230.208 130.044L230.209 130.044C230.363 129.345 230.584 128.34 229.911 128.55C229.679 128.744 229.577 129.04 229.475 129.333C229.425 129.475 229.376 129.617 229.312 129.746C229.276 129.873 229.215 130.02 229.15 130.174ZM222.575 131.303L222.546 131.291C222.514 131.378 222.445 131.452 222.335 131.481C222.204 131.662 222.14 131.991 222.074 132.335C221.946 132.997 221.807 133.717 221.154 133.556C220.546 133.234 220.899 132.653 221.206 132.147C221.308 131.98 221.404 131.821 221.459 131.682C221.502 131.615 221.543 131.537 221.586 131.456C221.693 131.253 221.809 131.033 221.986 130.92C221.88 130.82 221.785 130.708 221.703 130.585C221.489 130.265 221.374 129.889 221.373 129.505C221.437 129.11 221.449 128.745 221.462 128.36L221.462 128.36L221.462 128.36C221.47 128.137 221.477 127.907 221.496 127.661C222.011 125.371 223.099 120.883 226.087 121.346C227.966 121.831 227.762 123.887 227.384 125.404C226.9 127.711 225.595 132.152 222.575 131.303ZM213.766 132.85C213.965 133.128 214.232 133.348 214.54 133.49C214.479 133.644 214.422 133.801 214.37 133.945L214.37 133.945L214.37 133.946C214.283 134.187 214.21 134.391 214.151 134.48C213.93 134.812 213.934 135.37 214.385 135.444C214.958 135.573 215.05 134.935 215.089 134.478C215.141 134.184 215.203 133.892 215.276 133.602C216.957 133.443 217.732 130.708 218.239 128.919C218.315 128.651 218.386 128.403 218.452 128.19C218.658 127.432 218.758 126.649 218.748 125.864C218.726 125.608 218.646 125.36 218.515 125.139C218.384 124.918 218.204 124.73 217.989 124.589C217.774 124.447 217.531 124.357 217.276 124.323C217.021 124.29 216.762 124.315 216.518 124.396C214.726 125.259 214.233 127.482 213.823 129.332C213.782 129.516 213.742 129.697 213.702 129.872C213.669 130.077 213.629 130.281 213.589 130.485L213.589 130.486L213.589 130.486C213.509 130.895 213.429 131.304 213.402 131.711C213.402 132.119 213.529 132.518 213.766 132.85ZM207.751 129.696C207.95 129.779 208.159 129.842 208.372 129.882C212.548 130.48 213.71 122.846 213.488 119.842C213.42 119.399 213.247 118.979 212.984 118.615C212.722 118.252 212.376 117.957 211.977 117.754C211.744 117.635 211.497 117.55 211.243 117.5C210.906 117.162 210.414 116.908 210.057 116.849C205.76 116.849 205.191 123.831 205.495 127.062C205.518 127.288 205.63 127.495 205.806 127.639C205.871 127.692 205.943 127.735 206.019 127.766C206.089 128.001 206.188 128.228 206.313 128.44C206.401 128.588 206.5 128.728 206.61 128.858C206.566 129.057 206.515 129.255 206.459 129.451L206.429 129.547C206.225 130.191 205.9 131.212 206.824 131.362C207.727 131.379 207.741 130.388 207.751 129.696ZM198.186 128.414C197.814 129.808 197.382 131.428 198.185 132.648C198.346 132.904 198.528 133.115 198.725 133.286C198.701 133.392 198.677 133.495 198.648 133.59C198.624 133.709 198.585 133.845 198.545 133.987C198.369 134.602 198.155 135.35 198.934 135.477C199.641 135.503 199.701 134.703 199.757 133.965L199.757 133.964L199.757 133.963L199.757 133.962C199.761 133.911 199.765 133.86 199.769 133.809C201.226 134.118 202.903 133.012 203.297 131.369C204.325 128.628 205.434 120.226 200.324 122.444C199.004 123.435 198.735 125.204 198.484 126.849L198.484 126.849L198.484 126.849C198.421 127.261 198.359 127.665 198.283 128.047C198.252 128.167 198.219 128.29 198.186 128.414ZM189.61 125.906C189.451 127.29 189.29 128.694 190.24 129.696C190.201 129.808 190.245 129.94 190.388 129.963L190.269 130.692L190.016 132.241C190.007 132.332 190.018 132.424 190.049 132.51C190.08 132.596 190.129 132.674 190.193 132.739C190.257 132.804 190.335 132.854 190.421 132.885C190.506 132.917 190.598 132.929 190.689 132.921C191.462 132.863 191.308 131.881 191.184 131.087C191.14 130.807 191.1 130.55 191.106 130.365C191.101 130.342 191.096 130.316 191.092 130.29C196.003 132.542 197.826 121.884 194.96 119.242C191.322 116.583 189.437 121.226 189.729 124.384C189.729 124.874 189.67 125.389 189.61 125.906Z" fill="#194128"/>
</svg>
