<svg width="113" height="65" viewBox="0 0 113 65" fill="none" xmlns="http://www.w3.org/2000/svg">
<path d="M43.4714 1.04926C43.9383 0.708469 44.5053 0.532674 45.0831 0.549535C57.3855 1.36159 69.7316 3.25515 80.8769 8.95282C92.1661 14.8323 101.777 23.4831 108.807 34.0937C110.083 36.6988 113.769 40.0108 111.72 42.9344C110.522 44.4343 108.416 44.3395 106.689 44.6463C101.022 45.5938 95.2598 45.8341 89.5337 45.3616C77.662 44.3852 66.548 39.134 58.2552 30.5829C55.4594 27.4259 53.0041 23.9831 50.9299 20.3115C51.2362 25.7674 50.5124 31.2322 48.7964 36.4202C48.1669 38.2152 47.4082 39.9622 46.5263 41.6475L46.2528 42.1683C42.5662 49.8861 36.0978 55.9244 28.145 59.0721C23.2108 61.505 17.9495 63.2086 12.5257 64.1297C9.95641 64.3549 6.9619 65.1828 4.4905 64.1983C1.34958 63.9187 0.474406 56.958 0.264441 54.4581C-0.545681 43.8758 1.51287 33.2709 6.22331 23.7602C10.43 15.3188 18.2984 9.63707 26.4713 5.5615C31.6586 3.25463 37.1771 1.77993 42.8237 1.1916C43.036 1.12908 43.2524 1.08152 43.4714 1.04926Z" fill="#194128"/>
</svg>
