<svg width="113" height="65" viewBox="0 0 113 65" fill="none" xmlns="http://www.w3.org/2000/svg">
<path d="M43.7097 1.28314C44.1766 0.942356 44.7436 0.766561 45.3214 0.783422C57.6238 1.59547 69.9698 3.48904 81.1152 9.18671C92.4044 15.0662 102.015 23.717 109.046 34.3276C110.321 36.9327 114.008 40.2446 111.959 43.1682C110.761 44.6682 108.655 44.5734 106.928 44.8802C101.261 45.8277 95.4981 46.068 89.772 45.5955C77.9003 44.6191 66.7863 39.3678 58.4935 30.8168C55.6977 27.6598 53.2424 24.217 51.1682 20.5454C51.4744 26.0013 50.7507 31.466 49.0347 36.6541C48.4052 38.449 47.6465 40.1961 46.7646 41.8814L46.4911 42.4022C42.8045 50.1199 36.3361 56.1583 28.3833 59.306C23.449 61.7389 18.1877 63.4425 12.7639 64.3636C10.1947 64.5888 7.20018 65.4166 4.72878 64.4322C1.58786 64.1526 0.712687 57.1919 0.502722 54.692C-0.3074 44.1097 1.75116 33.5048 6.46159 23.9941C10.6682 15.5527 18.5366 9.87096 26.7095 5.79539C31.8969 3.48852 37.4154 2.01382 43.062 1.42549C43.2743 1.36297 43.4907 1.3154 43.7097 1.28314Z" fill="#194128"/>
</svg>
