<svg width="277" height="281" viewBox="0 0 277 281" fill="none" xmlns="http://www.w3.org/2000/svg">
<path fill-rule="evenodd" clip-rule="evenodd" d="M100.315 71.9269C96.2762 86.3877 94.0215 81.3625 81.108 92.8436C71.3271 101.524 59.2105 118.96 57.0038 132.1C55.5355 140.988 55.2483 151.381 57.8489 159.85C61.6246 172.259 64.9989 184.723 72.287 195.405C76.4051 201.452 87.3907 211.024 93.5501 214.156C102.44 218.713 117.403 223.116 126.951 225.771C145.43 230.996 163.709 226.497 177.68 213.871C181.252 210.652 184.67 209.159 188.346 205.818C207.665 188.251 219.25 159.497 218.496 136.497C218.044 123.098 213.952 110.398 205.89 99.6208C194.536 84.3751 194.001 81.9386 171.155 72.8968C161.536 69.0754 150.585 68.2924 141.611 67.7101C140.415 64.6282 139.002 62.4881 137.646 59.9377C135.77 56.5275 136.42 53.9727 131.19 52.5694L130.971 54.0524C133.617 55.5518 136.231 62.5092 133.533 66.785C130.48 71.6756 126.399 73.0649 122.681 75.0336C117.28 77.9498 116.126 76.7807 109.492 77.2493C106.645 77.4567 106.184 79.275 103.324 77.3645C100.921 75.8004 101.354 74.1873 100.473 71.9366L100.315 71.9269Z" fill="#D03435"/>
<path fill-rule="evenodd" clip-rule="evenodd" d="M100.963 70.7249L100.316 71.9268C101.178 74.2242 100.81 75.8093 103.167 77.3547C106.045 79.2186 106.488 77.447 109.334 77.2395C115.969 76.7709 117.104 77.9866 122.523 75.0238C126.195 73.0364 130.294 71.6005 133.376 66.7752C136.092 62.4528 133.46 55.542 130.814 54.0426L131.032 52.5597C129.07 49.7651 129.619 46.7902 126.574 44.2634C122.636 40.9974 119.865 41.0185 116.232 42.3716C114.834 45.4377 114.701 46.5756 116.31 48.6323C118.877 51.9415 119.33 49.7408 119.936 53.6142C118.377 53.8529 119.944 53.9968 118.117 53.4231L111.37 50.2714C107.679 48.9466 105.69 49.4455 103.928 52.7439C101.837 56.7226 99.2853 66.1489 101.028 70.697L100.963 70.7249Z" fill="#530700"/>
</svg>
