<svg width="277" height="280" viewBox="0 0 277 280" fill="none" xmlns="http://www.w3.org/2000/svg">
<path fill-rule="evenodd" clip-rule="evenodd" d="M100.077 71.693C96.0379 86.1538 93.7832 81.1286 80.8697 92.6097C71.0888 101.29 58.9722 118.726 56.7655 131.866C55.2972 140.754 55.01 151.147 57.6106 159.616C61.3863 172.025 64.7606 184.489 72.0487 195.172C76.1669 201.218 87.1524 210.79 93.3118 213.922C102.201 218.479 117.165 222.882 126.712 225.537C145.191 230.762 163.471 226.264 177.442 213.638C181.014 210.418 184.432 208.925 188.107 205.584C207.427 188.017 219.012 159.263 218.258 136.263C217.806 122.864 213.714 110.165 205.652 99.3869C194.298 84.1412 193.763 81.7047 170.917 72.6629C161.298 68.8415 150.347 68.0585 141.373 67.4763C140.177 64.3944 138.764 62.2543 137.408 59.7038C135.532 56.2936 136.182 53.7388 130.951 52.3356L130.733 53.8185C133.379 55.3179 135.993 62.2753 133.295 66.5511C130.241 71.4417 126.161 72.8311 122.442 74.7997C117.042 77.7159 115.888 76.5468 109.253 77.0154C106.407 77.2229 105.945 79.0411 103.086 77.1306C100.683 75.5665 101.116 73.9535 100.235 71.7027L100.077 71.693Z" fill="#D03435"/>
<path fill-rule="evenodd" clip-rule="evenodd" d="M100.724 70.491L100.078 71.6929C100.94 73.9903 100.572 75.5755 102.928 77.1208C105.807 78.9847 106.25 77.2131 109.096 77.0056C115.731 76.537 116.866 77.7527 122.285 74.79C125.956 72.8025 130.056 71.3666 133.137 66.5413C135.854 62.2189 133.222 55.3081 130.576 53.8087L130.794 52.3258C128.832 49.5312 129.381 46.5563 126.336 44.0296C122.398 40.7635 119.627 40.7846 115.994 42.1377C114.596 45.2038 114.462 46.3418 116.071 48.3984C118.638 51.7076 119.092 49.5069 119.698 53.3804C118.139 53.6191 119.706 53.7629 117.879 53.1892L111.132 50.0375C107.44 48.7127 105.452 49.2116 103.69 52.51C101.599 56.4887 99.047 65.9151 100.79 70.4631L100.724 70.491Z" fill="#530700"/>
</svg>
