<svg width="275" height="189" viewBox="0 0 275 189" fill="none" xmlns="http://www.w3.org/2000/svg">
<path fill-rule="evenodd" clip-rule="evenodd" d="M12.1687 122.857C15.1047 120.9 13.4689 120.067 15.9436 119.401C16.7731 119.164 17.6615 119.242 18.4365 119.619C19.2116 119.996 19.8179 120.646 20.1379 121.441C20.4315 122.149 21.3962 131.477 21.3962 131.935C23.4095 126.397 24.0806 121.15 30.2882 123.19C30.8828 119.716 31.9554 116.339 33.4758 113.155C36.7055 110.281 39.1382 113.821 37.6702 119.068C33.4759 134.434 34.1889 136.058 27.3941 132.81C24.2064 145.302 17.076 146.551 15.1886 132.476C12.7978 134.267 12.8398 137.057 8.77125 136.308C2.39587 133.434 8.4357 107.533 9.77788 100.371C10.7426 95.0404 11.3717 92.0422 16.6566 94.3325C17.4535 97.7471 15.3564 103.577 14.5594 107.7C13.5947 112.655 12.8817 117.777 12.2945 122.857H12.1687ZM59.0193 65.3081C60.9906 62.8929 63.5911 58.8119 66.2336 58.3122C70.9732 57.3545 71.3087 62.4764 73.1123 65.2248C75.0836 64.3087 77.8519 61.6436 81.2073 64.1005C82.5613 64.8656 83.5759 66.1082 84.0499 67.5816C84.5238 69.055 84.4225 70.6514 83.7659 72.0541C83.2081 72.3141 82.5995 72.4489 81.9833 72.4489C81.3671 72.4489 80.7585 72.3141 80.2007 72.0541C78.5649 71.1796 79.5296 71.0546 77.9358 69.8054C76.2161 71.1796 74.2867 74.386 70.8893 72.6787C68.4985 71.5127 68.163 68.2647 66.6949 66.0576C64.0106 68.1397 62.249 73.345 59.5226 73.8863C55.3283 74.6775 54.6572 69.264 52.5181 66.8488C51.4276 68.9726 50.1273 73.5532 46.7299 70.7632C44.5489 69.0142 46.3944 65.1415 47.7785 62.8928C53.6506 53.4818 58.2224 64.0588 59.1451 65.3081H59.0193ZM133.175 50.6501C137.873 50.3586 139.341 52.0659 144.626 57.2295C147.226 59.7697 148.023 67.765 146.723 72.3039C145.842 75.4271 144.961 75.8018 142.528 77.3426C131.917 83.922 138.334 78.8001 129.107 81.2153C124.912 82.298 124.535 80.9238 120.718 81.2153C116.901 81.5068 116.775 83.0892 113.713 80.9654C108.303 77.2593 105.954 65.6828 108.429 60.1445C109.267 58.2289 111.742 56.938 113 55.3973C115.391 52.5656 113.588 51.6079 117.53 50.775C124.115 49.3176 124.661 51.2747 133.049 50.775L133.175 50.6501ZM35.4052 72.5538C34.6503 78.8001 30.0365 104.368 40.3126 101.703C42.5356 97.5389 38.8027 94.6656 40.3126 81.6317C42.3259 64.9749 43.3745 49.0677 53.9861 36.8667C55.2864 35.3675 56.7963 34.7013 56.4188 32.1195C56.3959 31.6847 56.2693 31.2615 56.0494 30.8848C55.8295 30.5081 55.5225 30.1886 55.1539 29.9528C54.7853 29.7169 54.3655 29.5714 53.9291 29.5282C53.4927 29.485 53.0522 29.5453 52.6439 29.7042C49.1207 30.9119 43.4583 41.7804 41.1515 46.6108C37.7404 54.8096 35.7685 63.5277 35.3213 72.3872L35.4052 72.5538ZM205.947 79.8411C203.808 77.0095 202.172 67.3485 200.033 65.1415C197.6 68.3063 192.567 77.0927 188.456 69.8887C186.569 66.599 184.262 57.063 182.416 54.9392C179.774 58.0624 177.216 66.8072 172.937 66.3908C168.659 65.9743 168.282 57.3545 167.317 52.7739C166.772 50.0255 165.849 46.9024 165.387 44.737C164.716 41.5722 166.981 39.3652 169.917 40.9475C172.853 42.5299 173.231 52.066 174.363 55.6472C176.544 53.0654 181.41 41.0309 186.275 47.9018C188.84 53.053 190.946 58.4176 192.567 63.9339C195.209 62.0184 199.571 52.9821 204.059 58.6037C206.534 61.6852 207.582 68.4729 209.428 71.5544L209.973 72.2623C214.419 59.7697 220.291 61.7685 224.276 72.9702C224.837 75.6579 225.935 78.2067 227.506 80.4657C236.23 59.6448 239.208 75.8018 242.311 90.1267C250.7 77.9256 253.678 105.368 252.881 106.492C251.078 107.908 248.687 108.657 247.471 105.534C246.632 103.535 247.009 100.912 245.289 98.5383C244.241 100.204 242.689 102.328 239.921 101.162C237.152 99.9958 235.726 88.6692 234.175 82.0065L232.623 83.7138C232.623 83.7138 227.673 95.082 222.724 86.3372C220.501 82.173 219.41 76.1766 217.062 72.0957C215.048 75.1356 211.232 86.7953 205.947 79.8411ZM76.4677 95.9982C79.8232 95.9982 88.2538 89.3771 89.596 87.6698C90.4887 86.2954 91.7534 85.1986 93.2451 84.505C95.3003 87.8364 92.4062 85.8792 96.5166 88.3777C98.9913 89.8768 96.5166 89.2522 100.124 91.9589C107.715 97.9553 103.647 108.949 105.786 114.695C106.625 116.944 107.674 117.319 108.512 119.484C109.687 122.482 108.932 122.566 108.89 125.772C109.561 129.52 110.652 130.269 114.301 129.936C117.404 127.313 117.153 129.062 121.095 129.395C122.941 127.729 123.654 127.105 122.857 123.773C119.837 114.029 115.643 114.779 121.263 103.785C124.115 104.16 123.989 105.867 126.716 103.785C129.442 101.703 137.831 118.943 136.614 118.943C136.614 118.027 139.634 122.774 143.745 121.233C144.745 120.68 145.583 119.879 146.178 118.908C146.774 117.938 147.106 116.831 147.142 115.695C147.007 112.714 147.492 109.737 148.568 106.95C150.959 102.109 151.919 96.6947 151.337 91.3343C151.043 89.044 150.791 86.712 150.498 84.3801C150.747 83.9064 150.971 83.4199 151.169 82.9226L151.504 82.173C153.643 81.2153 157.376 82.881 159.054 83.7138H159.473C160.627 82.3465 162.216 81.4113 163.978 81.0629C165.74 80.7146 167.569 80.974 169.162 81.7983C170.623 83.0047 172.322 83.8945 174.149 84.4109C175.976 84.9272 177.892 85.0586 179.774 84.7965C185.856 84.7965 180.529 85.4628 189.337 89.502C193.909 91.6258 197.097 90.3765 201.627 91.1261C204.395 98.7465 210.854 101.078 212.783 104.285C218.236 113.405 219.998 110.531 222.766 112.613C223.479 113.238 224.36 115.07 225.366 116.153C227.483 118.155 229.74 120.006 232.119 121.691C233.797 123.065 235.307 126.563 237.488 128.479C238.704 129.562 238.327 129.103 239.543 129.728C241.808 130.852 241.473 130.811 243.025 135.058C244.115 138.223 244.199 141.513 248.393 141.305C250.826 139.098 250.239 137.765 250.994 133.892C253.468 136.474 252.42 138.973 254.517 140.347C256.892 140.88 259.366 140.779 261.689 140.055C263.954 138.306 263.661 134.85 264.248 131.227C266.89 129.936 268.442 130.561 267.897 125.814C267.561 123.107 265.758 118.36 269.155 118.776H269.659C270.257 119.205 270.952 119.483 271.683 119.584C272.414 119.686 273.159 119.609 273.853 119.359C275.782 115.653 272.804 108.074 271.588 104.368C269.994 99.4961 269.239 94.7489 267.897 89.7103C267.242 87.3117 266.386 84.9717 265.338 82.7144C263.87 78.9666 263.577 79.7162 261.815 76.9678C256.841 69.2845 251.229 62.0275 245.038 55.2724C243.451 53.5175 241.756 51.8625 239.963 50.317C237.569 47.785 234.83 45.5984 231.826 43.8208C230.861 43.0296 219.536 27.5389 209.344 22.3336C205.863 20.543 206.282 21.6257 202.843 19.0023C197.768 15.0879 182.668 4.38595 176.502 7.05103C173.231 8.46685 176.251 8.38359 170.379 10.424C164.214 13.1494 158.633 17.0226 153.937 21.8339L144.164 31.2866C139.383 36.1587 141.731 37.6995 133.594 39.615C131.215 39.9219 128.86 40.3951 126.548 41.0308C122.983 42.4467 124.744 43.2795 120.257 43.571C114.72 43.9874 111.071 46.2361 105.786 46.4443C102.934 46.4443 99.5365 45.8197 96.6425 45.6115C93.7484 45.4032 91.2737 45.6115 88.2538 45.6115C85.2339 45.6115 67.2822 32.2027 64.472 30.1207C39.306 11.4234 34.1889 46.2361 17.118 70.7215C12.3649 80.3004 8.39549 90.2432 5.24801 100.454C3.82194 105.951 0.298707 109.282 0.760083 116.153C1.85061 131.227 1.76672 123.024 4.57692 130.728C5.37384 132.935 4.19942 141.513 6.33853 147.051C7.84849 150.965 9.40039 150.674 10.5329 152.798C11.6653 154.921 10.9523 156.171 13.1753 159.252C16.4888 163.791 13.1753 169.288 20.8929 170.037C22.4448 173.702 23.1578 174.202 26.3874 172.494C27.7296 168.705 25.7163 164.832 26.3874 159.46C28.6943 158.336 28.8621 159.127 29.9107 155.921C30.5818 153.797 30.8754 151.757 31.6723 149.758C32.7628 147.01 36.5796 141.429 36.8313 139.764C37.3346 136.516 35.8666 138.306 37.796 133.976C38.517 132.414 39.5272 131.002 40.774 129.811C42.8941 125.922 44.1121 121.611 44.3392 117.194C46.4363 96.3729 46.8558 104.077 56.9221 100.537C62.2909 98.6633 59.3968 96.831 66.5691 96.3729C73.7414 95.9149 73.4478 93.9577 76.4677 95.9982Z" fill="#231F20"/>
<path d="M189.667 147.242C189.444 145.393 188.57 143.683 187.199 142.415C184.816 140.387 181.371 140.623 178.995 141.004C175.692 141.447 140.317 147.445 136.295 148.185L136.072 148.215C136.053 148.079 136.037 147.956 136.037 147.956C135.607 146.422 134.728 145.05 133.511 144.015C132.387 143.13 131.072 142.512 129.668 142.211C128.265 141.91 126.81 141.932 125.415 142.276C120.609 143.109 117.729 146.896 116.443 149.089L116.34 149.266L116.132 149.219C112.477 148.549 108.706 148.885 105.226 150.191C100.802 151.798 96.7932 154.363 93.4908 157.701C87.6489 164.007 85.1514 170.93 86.3702 177.193C86.7196 178.967 87.4639 180.64 88.5485 182.091C89.6331 183.541 91.0307 184.732 92.6393 185.577C98.1769 188.6 106.269 186.536 109.491 185.489C113.124 184.299 169.376 165.337 176.741 162.755C183.456 160.412 189.685 157.092 189.776 148.809C189.781 148.313 189.748 147.819 189.678 147.328L189.667 147.242Z" fill="#F47920"/>
<path d="M127.15 153.992C129.145 153.599 130.984 152.411 130.841 150.309C130.741 148.904 129.432 147.624 127.222 147.832C126.089 147.9 125.014 148.359 124.185 149.131C123.612 149.676 123.261 150.411 123.198 151.196C123.126 151.584 123.149 151.983 123.263 152.36C123.377 152.738 123.58 153.083 123.856 153.367C124.311 153.731 124.849 153.979 125.424 154.088C125.998 154.197 126.591 154.164 127.15 153.992Z" fill="white"/>
<path d="M185.351 148.712C185.271 149.045 185.123 149.358 184.916 149.632C184.71 149.906 184.448 150.135 184.148 150.304L183.9 150.337C183.9 150.337 183.91 148.905 183.852 148.474C183.595 146.55 182.852 144.592 179.842 145.246C178.556 145.601 177.435 146.39 176.671 147.478C175.908 148.566 175.55 149.883 175.66 151.203C175.657 151.228 175.66 151.254 175.67 151.277C175.388 152.57 174.818 154.353 174.197 154.525C174.137 154.54 174.075 154.543 174.014 154.531C173.953 154.52 173.896 154.495 173.847 154.459C173.776 154.402 173.717 154.33 173.676 154.249C173.635 154.168 173.611 154.08 173.607 153.989C173.588 153.414 173.621 152.838 173.705 152.269C173.822 151.281 173.858 150.286 173.811 149.293C173.68 146.9 172.193 146.648 170.671 146.99C169.751 147.196 168.929 147.704 168.336 148.433L167.886 149.133C167.886 149.133 167.945 147.87 167.984 147.601L164.654 148.311L164.195 153.28C163.91 153.856 163.453 154.33 162.885 154.636L162.661 154.665L162.63 154.431C162.575 154.189 162.501 153.951 162.408 153.72C162.249 153.19 161.493 151.421 159.717 151.847C155.122 152.928 156.111 158.606 158.769 157.409L159.077 157.255L159.123 157.6C159.094 159.926 158.289 161.276 156.987 161.651C156.89 161.678 156.789 161.682 156.691 161.665C156.592 161.648 156.499 161.609 156.417 161.552C156.262 161.418 156.135 161.254 156.045 161.069C155.955 160.885 155.904 160.685 155.894 160.48C155.744 159.358 156.59 149.731 156.59 149.731L152.299 150.545C152.215 151.422 151.868 155.247 151.87 155.259L151.81 155.756C151.734 156.419 151.679 156.853 151.662 157.295L151.674 157.381C151.252 159.232 150.356 161.323 149.477 161.554C149.396 161.575 149.311 161.578 149.228 161.563C149.145 161.548 149.067 161.516 148.998 161.467C148.919 161.41 148.854 161.336 148.806 161.252C148.757 161.168 148.727 161.074 148.717 160.978L148.677 160.205C148.677 160.205 149.715 151.544 149.79 150.969L144.846 151.808L144.629 153.393C144.398 152.971 144.066 152.612 143.662 152.348C143.257 152.084 142.794 151.923 142.312 151.88C141.83 151.837 141.344 151.912 140.898 152.1C140.451 152.287 140.059 152.581 139.754 152.955C137.948 155.142 137.804 158.023 137.902 160.834L137.916 160.932C137.977 164.313 137.552 166.704 135.263 167.362C134.82 167.523 134.336 167.531 133.888 167.384C134.493 166.831 134.976 166.159 135.305 165.412C135.464 165.144 135.566 164.847 135.606 164.538C135.645 164.23 135.621 163.917 135.535 163.619C135.449 163.321 135.303 163.043 135.105 162.803C134.907 162.562 134.662 162.365 134.385 162.222C133.953 162.051 133.485 161.991 133.023 162.046C132.562 162.102 132.121 162.272 131.742 162.54C131.363 162.808 131.058 163.166 130.854 163.581C130.65 163.996 130.554 164.455 130.574 164.916C130.551 165.842 130.874 166.742 131.482 167.443C130.962 167.959 130.332 168.352 129.639 168.593C129.42 168.663 129.188 168.679 128.963 168.639C128.737 168.6 128.525 168.506 128.344 168.365C127.732 167.757 128.089 165.425 128.15 165.128C128.15 165.128 129.92 155.227 130.015 154.612L123.33 155.86C123.211 156.478 122.826 158.889 122.381 161.133C121.49 165.519 117.976 171.839 113.66 173.685C111.351 174.66 109.477 174.823 108.178 174.282C106.41 173.54 105.136 171.301 105.261 167.896C105.27 166.28 105.528 164.675 106.027 163.137C108.589 154.623 114.927 155.505 114.649 156.17C114.269 156.366 113.906 156.596 113.566 156.855C112.921 157.358 112.407 158.006 112.066 158.746C111.725 159.486 111.568 160.296 111.608 161.109C111.632 161.624 111.767 162.128 112.003 162.588C112.239 163.047 112.571 163.452 112.976 163.774C113.379 164.042 113.836 164.219 114.315 164.291C114.795 164.364 115.285 164.33 115.75 164.193C116.927 163.934 117.963 163.244 118.651 162.261C119.34 161.277 119.63 160.073 119.463 158.888C119.425 158.251 119.253 157.628 118.959 157.061C118.665 156.493 118.256 155.992 117.757 155.59C116.208 154.405 114.527 153.94 111.033 154.559C105.662 155.517 98.0127 160.597 96.9262 169.465C96.7719 170.898 96.9812 172.346 97.5349 173.677C98.0887 175.008 98.9695 176.18 100.097 177.085C102.868 178.897 105.938 179.263 111.026 177.515C115.554 175.929 118.91 172.203 121.191 168.471C121.192 168.525 121.199 168.579 121.212 168.631C120.909 171.182 122.208 173.606 126.214 172.466C128.575 171.709 130.726 170.415 132.496 168.687C133.203 169.07 133.984 169.301 134.787 169.364C135.59 169.427 136.399 169.321 137.159 169.054C138.059 168.728 138.882 168.222 139.577 167.568C140.272 166.913 140.824 166.124 141.2 165.249C142.287 163.082 142.405 159.151 142.473 157.021C142.459 156.374 142.512 155.728 142.632 155.092C142.7 154.774 142.882 154.49 143.144 154.295C143.822 153.878 144.315 154.54 144.249 155.088C144.184 155.637 143.819 158.384 143.819 158.384L143.738 158.821C143.398 160.275 143.283 161.772 143.398 163.26C143.418 163.732 143.54 164.195 143.756 164.616C143.972 165.038 144.276 165.408 144.648 165.703C144.996 165.925 145.392 166.062 145.804 166.103C146.216 166.144 146.632 166.087 147.018 165.937C149.533 165.173 150.971 162.32 151.61 160.678L151.694 160.453L151.826 160.122L152.014 160.674C152.764 162.87 154.682 163.504 157.343 162.708C160.757 161.673 162.572 159.56 162.748 156.348L162.73 156.213L162.854 156.196C163.172 156.017 163.47 155.804 163.742 155.562L163.978 155.342L163.486 160.529L167.426 159.273C167.384 158.965 167.957 152.675 167.957 152.675C168.038 151.585 168.427 149.487 169.189 149.322C169.266 149.303 169.346 149.302 169.423 149.32C169.501 149.338 169.572 149.374 169.632 149.426C169.855 149.617 169.995 149.886 170.024 150.177C170.069 150.96 170.021 151.745 169.882 152.518C169.717 153.728 169.657 154.949 169.702 156.169C169.68 156.464 169.735 156.759 169.862 157.027C169.988 157.294 170.183 157.524 170.426 157.695C170.668 157.866 170.952 157.971 171.248 158.001C171.544 158.031 171.843 157.985 172.116 157.866C173.332 157.502 174.955 156.594 175.91 153.253L176.041 153.575C176.302 154.349 176.859 154.991 177.591 155.363C178.324 155.734 179.175 155.804 179.961 155.559C180.863 155.315 181.681 154.832 182.328 154.161C182.976 153.491 183.427 152.658 183.635 151.753L183.618 151.63L183.742 151.613C184.235 151.413 184.666 151.088 184.992 150.669C185.318 150.251 185.527 149.755 185.597 149.231C185.526 149.053 185.443 148.88 185.351 148.712ZM132.568 166.494C131.448 165.213 132.089 163.483 132.999 163.386C133.908 163.29 134.09 163.704 133.81 164.633C133.543 165.338 133.119 165.975 132.568 166.494ZM159.18 155.571C159.087 155.71 158.968 155.829 158.828 155.921C158.688 156.013 158.532 156.076 158.367 156.107C157.905 156.244 157.748 156.015 157.708 155.907C157.667 155.647 157.697 155.38 157.795 155.135C157.894 154.89 158.057 154.675 158.267 154.514C158.346 154.45 158.441 154.409 158.542 154.396C158.643 154.382 158.746 154.397 158.839 154.438C158.969 154.594 159.066 154.775 159.124 154.97C159.183 155.165 159.202 155.369 159.18 155.571ZM181.498 150.621C181.28 150.48 181.121 150.267 181.048 150.019C180.975 149.77 180.995 149.505 181.102 149.269C181.135 149.197 181.192 149.139 181.265 149.106C181.337 149.073 181.419 149.068 181.495 149.091C181.56 149.599 181.561 150.113 181.498 150.621ZM181.358 147.691L181.368 147.765C181.368 147.765 179.989 148.038 180.152 150.099C180.187 150.459 180.318 150.803 180.53 151.096C180.743 151.39 181.029 151.622 181.362 151.769L181.398 152.041C181.228 152.942 180.983 153.941 180.215 154.157C180.106 154.197 179.989 154.211 179.873 154.198C179.757 154.186 179.646 154.146 179.548 154.083C179.243 153.886 179.102 153.679 178.998 152.902C178.748 151.04 179.046 146.282 180.35 146.019C180.441 146.001 180.535 146.005 180.624 146.03C180.713 146.055 180.795 146.101 180.863 146.163C181.221 146.589 181.399 147.137 181.358 147.691Z" fill="white"/>
<path fill-rule="evenodd" clip-rule="evenodd" d="M182.416 54.9382C184.345 57.062 186.61 66.598 188.456 69.8877C192.65 77.0501 197.599 68.3053 200.032 65.1405C202.171 67.5141 203.807 77.0085 205.946 79.8401C211.231 86.7943 215.048 75.1346 217.061 72.0947C219.41 76.2589 220.5 82.3803 222.723 86.3363C227.673 95.0811 232.496 83.8794 232.622 83.7128L234.174 82.0055C235.684 88.46 236.816 99.8699 239.92 101.161C243.024 102.452 244.115 100.203 245.289 98.5373C247.009 100.911 246.631 103.534 247.47 105.533C248.812 108.656 251.077 107.907 252.881 106.491C253.678 105.367 250.826 77.9246 242.311 90.1257C239.207 75.8009 236.229 59.7271 227.505 80.4648C225.935 78.2057 224.836 75.6569 224.275 72.9692C220.081 61.7675 214.419 59.8937 209.973 72.2613L209.427 71.5534C207.582 68.4719 206.575 61.6843 204.059 58.6028C199.571 52.9811 195.209 62.0174 192.566 63.9329C190.945 58.4166 188.84 53.052 186.275 47.9008C181.409 41.0715 176.544 53.0644 174.363 55.6462C173.23 52.065 172.475 42.3207 169.917 40.9466C167.358 39.5724 164.716 41.5712 165.387 44.736C165.848 46.9014 166.771 50.0245 167.316 52.7729C168.281 57.3535 168.617 65.9317 172.937 66.3898C177.257 66.8478 179.774 58.0614 182.416 54.9382Z" fill="#58595B"/>
<path fill-rule="evenodd" clip-rule="evenodd" d="M74.8756 107.199C73.1966 108.097 71.6684 109.249 70.3457 110.613C68.7099 112.071 68.4163 113.986 66.1514 114.278C63.8864 114.569 62.4604 112.279 63.2573 109.864C64.4317 106.407 73.5753 100.119 75.8403 98.9951C76.2967 98.7343 76.8085 98.5839 77.3343 98.5559C77.8601 98.528 78.3851 98.6232 78.867 98.834C79.3488 99.0448 79.774 99.3653 80.108 99.7694C80.442 100.174 80.6755 100.65 80.7896 101.16C80.8639 103.637 80.7376 106.116 80.4121 108.573C82.0898 107.199 88.0458 94.0814 91.2335 108.573C93.079 106.116 93.1209 100.244 97.1894 101.577C101.258 102.909 98.1541 107.49 97.1894 110.655C96.2247 113.82 94.7148 118.733 91.5271 118.983C87.0811 119.316 87.6683 114.444 86.0325 111.904C83.6417 114.319 81.8382 118.608 77.6438 117.734C73.4495 116.859 74.1206 111.862 74.4142 107.448L74.8756 107.199ZM76.4694 95.9969C73.6592 99.703 54.4492 106.282 52.3101 113.278C50.5904 118.942 56.2108 119.108 60.4471 119.191C60.8946 120.596 61.7749 121.826 62.9639 122.707C64.1528 123.589 65.5904 124.078 67.0741 124.105C69.4649 124.438 70.136 123.772 71.8976 124.855C73.6592 125.937 73.2817 126.479 75.3789 127.145C81.1251 129.019 79.8249 124.813 83.7676 127.728C87.123 130.185 89.388 130.227 91.6529 127.728C97.2313 129.144 95.1342 130.851 100.377 128.436C102.894 127.27 102.768 128.436 105.41 128.103C106.099 128.026 106.745 127.735 107.256 127.27L108.934 125.979C108.934 122.773 109.73 122.689 108.556 119.691C107.717 117.526 106.669 117.151 105.83 114.902C103.691 109.156 107.759 98.2455 100.167 92.1658C96.6861 89.4591 99.0349 90.0837 96.5602 88.5846C92.3659 86.0861 95.3439 88.0433 93.2887 84.7119C91.797 85.4055 90.5323 86.5024 89.6396 87.8767C88.2555 89.3758 79.8249 96.0802 76.4694 95.9969Z" fill="#6D6E71"/>
<path fill-rule="evenodd" clip-rule="evenodd" d="M133.179 50.6482C124.79 51.1063 124.245 49.1491 117.66 50.6482C113.717 51.4811 115.521 52.4388 113.13 55.2705C111.872 56.8112 109.397 58.1021 108.558 60.0176C106.084 65.7226 108.558 77.299 113.843 80.8386C116.905 82.9623 117.786 81.3383 120.848 81.0885C123.909 80.8386 125.042 82.1712 129.236 81.0885C138.38 78.6732 132.046 83.7952 142.658 77.2158C145.175 75.675 146.056 75.3002 146.852 72.1771C148.153 67.6798 147.356 59.6845 144.755 57.1027C139.345 52.0641 137.877 50.3567 133.179 50.6482Z" fill="#47302F"/>
<path fill-rule="evenodd" clip-rule="evenodd" d="M12.1714 122.856C12.7586 117.776 13.4716 112.654 14.4363 107.699C15.2332 103.535 17.3304 97.7463 16.5335 94.3317C11.2486 92.0414 10.6195 95.0396 9.65476 100.37C8.31258 107.532 2.27275 133.433 8.64813 136.307C12.8425 137.056 12.8425 134.266 15.0654 132.476C16.9529 146.551 24.0833 145.385 27.2709 132.809C34.0658 136.057 33.5205 134.433 37.547 119.067C38.9312 113.82 36.4985 110.281 33.3527 113.154C31.8106 116.308 30.7099 119.656 30.0811 123.106C23.8735 121.066 23.2024 126.313 21.1892 131.851C21.1892 131.393 20.2664 122.065 19.9309 121.357C19.6109 120.562 19.0046 119.912 18.2295 119.535C17.4545 119.158 16.5661 119.08 15.7365 119.317C13.4716 120.066 14.9816 120.899 12.1714 122.856Z" fill="#58595B"/>
<path fill-rule="evenodd" clip-rule="evenodd" d="M35.4064 72.5538C34.6514 78.8001 30.0376 104.368 40.3137 101.703C42.5367 97.5389 38.8038 94.6656 40.3137 81.6317C42.327 64.975 43.3756 49.0678 53.9873 36.8667C55.2875 35.3676 56.7974 34.7013 56.4199 32.1195C56.397 31.6847 56.2704 31.2615 56.0505 30.8848C55.8306 30.5081 55.5237 30.1887 55.155 29.9528C54.7864 29.7169 54.3666 29.5714 53.9302 29.5282C53.4939 29.485 53.0534 29.5453 52.6451 29.7043C49.1218 30.9119 43.4595 41.7804 41.1526 46.6109C37.7516 54.867 35.8078 63.6428 35.4064 72.5538Z" fill="#58595B"/>
<path fill-rule="evenodd" clip-rule="evenodd" d="M74.8707 107.199C74.5771 111.613 74.0738 116.568 78.1004 117.484C82.1269 118.4 83.9305 114.069 86.489 111.654C88.1248 114.194 87.5376 119.066 91.9836 118.733C95.1713 118.733 96.4715 114.069 97.6459 110.405C98.8203 106.74 101.211 102.618 97.6459 101.327C94.0807 100.036 93.4516 105.866 91.69 108.323C88.5023 93.9148 82.5463 107.032 80.8686 108.323C81.1942 105.866 81.3204 103.387 81.2461 100.911C81.132 100.4 80.8985 99.9237 80.5645 99.5196C80.2305 99.1154 79.8054 98.795 79.3235 98.5842C78.8417 98.3733 78.3166 98.2781 77.7908 98.306C77.265 98.334 76.7532 98.4845 76.2968 98.7452C73.906 99.8696 64.7205 106.158 63.7138 109.614C62.9169 112.029 63.9655 114.444 66.6079 114.028C69.2503 113.611 68.9567 111.821 70.8022 110.363C72.0018 109.124 73.3714 108.058 74.8707 107.199Z" fill="#58595B"/>
<path fill-rule="evenodd" clip-rule="evenodd" d="M59.0219 65.3074C58.0991 64.0581 53.5273 53.4811 47.6552 62.8921C46.2711 65.1408 44.4256 69.0135 46.6067 70.7624C50.0041 73.5525 51.3043 68.9718 52.3948 66.8481C54.5339 69.2633 55.0792 74.6768 59.3993 73.8856C62.1257 73.3442 63.8873 68.139 66.5717 66.0569C68.1655 68.2639 68.5011 71.512 70.766 72.678C74.1634 74.3853 76.0928 71.1789 77.8125 69.8047C79.4063 71.0539 78.4416 71.1789 80.0774 72.0533C80.6352 72.3133 81.2438 72.4481 81.86 72.4481C82.4762 72.4481 83.0848 72.3133 83.6426 72.0533C84.2992 70.6507 84.4006 69.0542 83.9266 67.5808C83.4526 66.1075 82.438 64.8649 81.084 64.0997C77.7286 61.6429 74.9603 64.0997 72.989 65.2241C71.1854 62.4757 70.8499 57.3538 66.1103 58.3115C63.5937 58.8112 61.119 62.8921 59.0219 65.3074Z" fill="#58595B"/>
<path fill-rule="evenodd" clip-rule="evenodd" d="M129.945 99.9947C129.4 101.369 129.945 100.453 128.687 101.744C128.071 102.409 127.412 103.035 126.716 103.618C123.989 105.866 124.115 104.159 121.263 103.618C115.643 114.778 119.837 114.028 122.857 124.147C125.877 125.355 127.051 126.187 130.239 124.147C131.337 123.463 132.314 122.605 133.133 121.607L135.566 119.317C135.566 119.067 135.817 119.317 135.943 118.983H134.14C132.252 120.982 133.175 120.316 129.945 120.774C127.722 121.107 126.632 121.773 125.415 119.441C124.157 115.819 126.799 114.278 129.861 114.236C129.861 113.82 130.155 113.403 130.323 112.987C126.799 112.279 126.422 110.78 127.429 107.407L129.484 106.824L136.656 107.365C136.368 104.017 136.495 100.647 137.034 97.3296C133.426 97.7877 134.056 99.7032 129.945 99.9947Z" fill="#6D6E71"/>
<path fill-rule="evenodd" clip-rule="evenodd" d="M156.038 100.245C150.501 99.1208 149.788 104.409 154.36 106.45C160.442 109.157 162.204 107.199 162.204 100.911C164.628 101.37 167.119 101.37 169.544 100.911C172.815 93.9572 160.442 82.9638 157.8 88.0441C156.248 91.1672 159.268 92.6663 161.029 93.874C157.59 95.6646 156.248 93.9572 156.038 100.245Z" fill="#58595B"/>
<path fill-rule="evenodd" clip-rule="evenodd" d="M117.569 150.297C118.24 153.504 119.456 156.377 123.399 155.961C125.957 152.796 124.699 152.838 123.399 149.756C122.979 148.09 124.28 146.716 123.021 144.634C118.492 140.97 117.149 145.259 117.569 150.297Z" fill="#231F20"/>
<path fill-rule="evenodd" clip-rule="evenodd" d="M112.372 141.388C111.423 142.542 110.719 143.875 110.301 145.306C109.883 146.737 109.76 148.237 109.94 149.716C110.569 152.548 113.798 153.297 115.602 150.257C117.405 147.217 119.838 136.682 112.372 141.388Z" fill="#231F20"/>
<path fill-rule="evenodd" clip-rule="evenodd" d="M134.14 118.94C135.986 115.068 133.553 113.735 129.946 114.193C126.339 114.651 124.242 115.776 125.5 119.399C126.716 121.73 127.807 121.064 130.03 120.731C133.176 120.19 132.421 120.856 134.14 118.94Z" fill="#231F20"/>
<path fill-rule="evenodd" clip-rule="evenodd" d="M130.45 112.861C137.496 114.277 139.174 106.698 129.611 106.698L127.556 107.281C126.549 110.613 126.884 112.153 130.45 112.861Z" fill="#231F20"/>
<path fill-rule="evenodd" clip-rule="evenodd" d="M114.297 130.309C114.117 134.066 113.469 137.787 112.367 141.386C119.917 138.18 115.974 146.799 115.597 150.464L116.687 149.548C117.065 150.672 116.687 149.548 117.568 150.297C117.568 145.384 118.701 141.969 123.189 144.634C123.818 146.966 123.189 148.09 123.566 149.756C123.902 145.842 124.866 147.341 125.537 144.384C125.537 143.884 125.999 138.263 125.999 137.597C125.121 134.588 123.423 131.878 121.091 129.768C117.988 127.602 115.261 126.561 114.297 130.309ZM130.445 112.861L129.983 114.11C133.339 114.693 134.639 115.193 134.178 118.858H135.981H137.24C137.095 116.778 137.095 114.691 137.24 112.611C137.638 110.801 137.416 108.911 136.61 107.24L129.438 106.698C138.54 106.99 136.61 113.652 130.445 112.861Z" fill="#231F20"/>
<path fill-rule="evenodd" clip-rule="evenodd" d="M169.541 100.953C167.116 101.411 164.626 101.411 162.201 100.953C162.201 107.241 160.44 109.281 154.358 106.491C149.786 104.451 150.499 99.162 156.035 100.286C156.245 93.8734 157.42 95.7057 161.027 93.9567C159.265 92.7491 156.245 91.25 157.797 88.1269C160.44 83.0465 172.813 94.04 169.541 100.994V100.953ZM159.223 83.8794C157.545 83.0466 153.812 81.3809 151.673 82.3386L151.338 83.0882C151.14 83.5855 150.916 84.072 150.667 84.5457C150.96 86.8776 151.212 89.2096 151.506 91.4999C152.088 96.8603 151.128 102.275 148.737 107.116C147.661 109.902 147.176 112.879 147.311 115.86C154.777 114.195 159.894 116.36 162.201 107.241C169.961 106.824 169.961 108.073 172.142 99.9948C177.804 98.6206 181.747 93.3738 173.945 90.2923C169.415 88.5017 162.83 87.0858 159.643 83.9627L159.223 83.8794Z" fill="#6D6E71"/>
<path fill-rule="evenodd" clip-rule="evenodd" d="M155.11 50.3574H155.362C157.167 47.8834 158.386 45.0364 158.927 42.0291C159.263 39.5305 158.927 32.2016 157.292 31.2438C156.956 32.3682 156.159 34.0338 155.907 35.408C155.32 37.9898 155.907 41.3628 155.32 42.9035C153.265 46.693 153.894 47.0677 155.32 50.4407L155.11 50.3574ZM98.5709 50.3574V49.8161C98.5272 49.4472 98.4428 49.0841 98.3193 48.7334C98.0257 47.9006 98.3193 48.4836 97.8159 47.8589C97.2501 45.5864 97.0659 43.2368 97.2707 40.9047C97.4162 39.2005 97.4162 37.487 97.2707 35.7828C96.8545 34.4231 96.5597 33.0296 96.3899 31.6186C95.0385 34.9892 94.4652 38.6177 94.7121 42.2373C94.7611 44.0238 95.2202 45.7755 96.0543 47.3592C96.6134 48.704 97.6003 49.8301 98.8645 50.5657L98.5709 50.3574ZM114.593 67.0142C115.977 67.3057 116.019 67.3057 116.816 68.2218C117.613 69.138 118.033 68.5966 118.788 69.6377C120.549 69.3462 122.143 69.013 120.759 66.6395C119.92 66.1814 117.949 66.0148 117.529 64.8905C116.884 65.0738 116.312 65.4523 115.893 65.9732C115.39 66.4312 115.055 66.5978 114.593 67.0142ZM130.909 67.0142C131.287 68.0136 130.909 67.6389 131.916 68.1386C132.923 67.8447 133.971 67.718 135.02 67.7638C136.11 67.7638 136.823 68.5966 137.536 68.0969C136.278 66.7644 136.446 65.3902 134.349 64.8488C133.761 65.4735 133.719 65.7649 132.839 66.223C131.958 66.6811 131.496 66.6811 130.909 67.0142ZM103.059 20.6251C103.227 19.8376 103.571 19.0975 104.065 18.4598L108.889 13.0879C109.56 12.3384 109.266 12.6299 110.147 12.0885C111.69 10.4759 113.564 9.21188 115.642 8.38238C119.108 7.22259 122.774 6.76936 126.421 7.04984C127.428 7.04984 128.476 7.04984 129.525 7.04984L136.907 8.34077C139.832 9.15047 142.548 10.5701 144.876 12.505L145.589 13.5044C146.596 14.8369 146.848 14.3788 147.477 16.2527C147.854 17.377 148.777 18.9594 149.322 20.4169C150.667 23.9538 150.944 27.803 150.119 31.4937C150.119 34.1171 151.294 42.1956 150.916 43.5282C150.539 44.8607 150.245 46.9844 150.245 48.9833C148.463 49.0675 146.781 49.8277 145.547 51.107C143.66 52.6894 143.828 54.1885 143.157 55.2712C142.486 56.3539 142.108 56.4788 141.647 57.1867C140.346 59.1439 139.969 64.5157 141.101 65.5151V65.8482C140.822 66.4504 140.369 66.9573 139.801 67.3057L139.55 65.3902C139.069 62.6409 137.785 60.0924 135.859 58.0612L134.768 57.27C134.454 57.0446 134.16 56.7939 133.887 56.5205C134.097 55.7709 134.265 56.0208 134.432 55.1879C134.59 53.6954 134.154 52.2009 133.216 51.0237C131.445 47.5683 130.04 43.9399 129.022 40.1968C128.996 39.4805 128.801 38.7801 128.453 38.1521C128.105 37.5241 127.614 36.9859 127.018 36.5808C126.422 36.1758 125.739 35.9152 125.024 35.8199C124.308 35.7247 123.58 35.7976 122.898 36.0326C122.059 36.3657 121.808 37.157 121.64 38.3229C121.766 40.6115 121.766 42.9053 121.64 45.1939C121.053 47.6091 118.913 50.3991 118.997 53.314C118.997 55.1046 119.626 54.8548 120.046 55.8542C116.269 57.8759 113.308 61.1251 111.657 65.057C111.177 64.3498 110.659 63.6687 110.105 63.0166V62.6834C110.371 61.2689 110.164 59.8071 109.518 58.5193C108.931 57.3949 108.595 56.104 108.05 55.1046C107.002 53.1474 103.856 53.314 101.884 51.8149C101.888 51.5499 101.829 51.2877 101.712 51.0492C101.596 50.8107 101.425 50.6024 101.213 50.4407C100.878 48.7334 101.717 43.7364 101.633 41.571C101.551 40.7949 101.397 40.0282 101.171 39.2807C101.183 37.6051 101.337 35.9335 101.633 34.2837C101.633 33.7007 101.884 29.245 101.884 29.1617C102.646 26.3787 103.041 23.5091 103.059 20.6251Z" fill="#F3CCAC"/>
<path fill-rule="evenodd" clip-rule="evenodd" d="M120.094 55.855C123.827 53.4398 124.036 58.3952 127.14 56.2298C127.937 55.6885 129.489 54.3975 130.622 54.6474C131.753 55.0697 132.813 55.6594 133.767 56.3964C133.977 55.6468 134.145 55.8967 134.313 55.0638C134.47 53.5713 134.034 52.0768 133.096 50.8997C131.325 47.4442 129.92 43.8158 128.902 40.0727C128.876 39.3564 128.681 38.6561 128.333 38.028C127.985 37.4 127.494 36.8618 126.898 36.4568C126.303 36.0517 125.619 35.7911 124.904 35.6959C124.188 35.6007 123.46 35.6735 122.778 35.9085C121.939 36.2417 121.688 37.0329 121.52 38.1989C121.646 40.4874 121.646 42.7812 121.52 45.0698C120.933 47.485 118.794 50.275 118.877 53.1899C119.045 55.1055 119.842 54.8556 120.094 55.855Z" fill="#DEB795"/>
<path fill-rule="evenodd" clip-rule="evenodd" d="M138.925 33.8267C139.974 32.9522 143.12 33.8267 143.917 34.368C146.223 35.4091 146.978 32.7856 145.426 31.8279C142.132 30.5426 138.532 30.2387 135.066 30.9534L133.724 31.2449C129.069 31.9528 128.481 35.9088 129.782 36.6167C131.082 37.3246 131.375 36.6167 131.921 35.9088C134.521 33.7017 137.164 35.2841 138.925 33.8267Z" fill="#231F20"/>
<path fill-rule="evenodd" clip-rule="evenodd" d="M130.998 40.9459C131.333 43.1529 137.331 45.7348 140.728 43.2362C141.735 42.5283 142.658 41.987 142.867 40.6544C143.287 37.6562 139.512 37.4064 136.87 37.3647C135.36 37.3647 130.662 38.8222 130.998 40.9459Z" fill="white"/>
<path fill-rule="evenodd" clip-rule="evenodd" d="M105.538 34.1586C105.538 34.9498 106.503 35.1997 107.384 35.0748C108.264 34.9498 109.103 34.3252 109.397 34.3252C110.111 34.5006 110.842 34.5983 111.578 34.6167C113.911 34.1912 116.319 34.512 118.457 35.5328C119.799 36.3657 121.561 35.5328 120.68 33.6173C118.96 30.2443 111.62 29.4531 108.097 31.4519C107.258 32.2015 105.035 32.2848 105.538 34.1586Z" fill="#231F20"/>
<path fill-rule="evenodd" clip-rule="evenodd" d="M117.531 65.1413C117.951 66.2657 119.922 66.4322 120.761 66.8903C122.457 67.14 124.182 67.14 125.878 66.8903C127.548 66.4885 129.3 66.59 130.911 67.1818C131.498 66.8486 132.295 66.7237 132.841 66.3906C133.386 66.0574 133.763 65.641 134.351 65.0164C131.54 63.3507 128.688 64.5167 125.668 63.6422C124.288 63.2426 122.833 63.17 121.42 63.4304C120.007 63.6908 118.675 64.2768 117.531 65.1413Z" fill="#E38D8C"/>
<path fill-rule="evenodd" clip-rule="evenodd" d="M108.804 42.0293C109.269 42.737 109.876 43.3415 110.588 43.8047C111.3 44.2678 112.101 44.5796 112.94 44.7204C113.779 44.8613 114.639 44.828 115.465 44.6229C116.29 44.4177 117.064 44.0451 117.738 43.5284C119.667 41.9877 120.758 40.5302 117.738 38.6147C116.549 38.0936 115.218 37.9908 113.963 38.3232C112.704 38.4897 108.51 40.1138 108.804 42.0293Z" fill="white"/>
<path fill-rule="evenodd" clip-rule="evenodd" d="M120.086 55.8545C116.309 57.8763 113.347 61.1254 111.697 65.0574C110.397 67.7225 114.046 68.014 114.339 67.3477H114.717C115.178 66.9313 115.514 66.7647 116.017 66.3067C116.436 65.7858 117.008 65.4073 117.653 65.224C118.793 64.3524 120.123 63.7589 121.537 63.4912C122.95 63.2236 124.407 63.2894 125.79 63.6832C128.81 64.5577 131.662 63.3917 134.472 65.0574C136.569 65.5987 136.402 66.9729 137.66 68.3054C137.803 68.4104 137.965 68.4862 138.138 68.5284C138.31 68.5706 138.489 68.5784 138.665 68.5513C138.841 68.5242 139.009 68.4627 139.16 68.3705C139.312 68.2782 139.443 68.157 139.547 68.014C139.807 67.1726 139.807 66.2735 139.547 65.4322C139.067 62.6829 137.783 60.1344 135.856 58.1032L134.766 57.312C134.452 57.0866 134.157 56.8359 133.885 56.5624C132.931 55.8254 131.871 55.2358 130.739 54.8135C129.607 54.5636 128.055 55.8545 127.258 56.3959C124.028 58.3947 124.028 53.4393 120.086 55.8545Z" fill="#6D6E71"/>
<path fill-rule="evenodd" clip-rule="evenodd" d="M120.677 72.7604C117.364 71.3029 117.993 66.8472 120.677 66.8889C122.374 67.1385 124.098 67.1385 125.794 66.8889C127.464 66.4871 129.216 66.5886 130.828 67.1804C131.247 68.263 132.296 67.1804 132.296 69.7622C132.296 72.344 122.858 73.6765 120.677 72.7604Z" fill="#6D6E71"/>
<path fill-rule="evenodd" clip-rule="evenodd" d="M98.5744 50.3989C99.3293 56.9783 97.9872 58.1859 100.504 64.224C101.259 66.0562 101.846 68.3882 102.643 70.0539C105.369 75.5922 107.97 80.0063 113.758 81.8802C117.776 83.3762 122.052 84.0696 126.341 83.9206C128.789 84.0529 131.244 83.8569 133.639 83.3376C137.363 82.2075 140.857 80.4311 143.957 78.0908C146.466 75.3043 148.417 72.0676 149.703 68.5548C150.584 66.5143 150.794 64.8486 151.549 62.8082C152.304 60.7677 153.226 59.4768 153.898 57.478C154.969 54.8381 155.4 51.9853 155.156 49.1496C154.328 47.1342 154.328 44.8772 155.156 42.8617C155.575 41.321 155.156 37.9479 155.743 35.3661C155.885 34.7854 156.068 34.2149 156.288 33.6588C153.017 32.3679 151.171 32.3263 150.123 32.9926C150.554 36.4609 150.792 39.9503 150.836 43.4447C150.836 45.3186 150.165 46.901 150.165 48.8998C150.165 48.8998 149.577 55.6041 149.326 55.9373C148.319 57.4364 148.864 56.7284 148.613 58.644C148.361 60.5595 146.557 61.5589 145.97 62.8082C145.383 64.0574 145.089 66.5143 143.328 66.9723C141.566 67.4304 141.776 66.5976 141.021 66.1395C140.741 66.7417 140.289 67.2486 139.721 67.597L139.469 65.6815C139.728 66.5228 139.728 67.4219 139.469 68.2633C139.365 68.4064 139.234 68.5275 139.082 68.6198C138.931 68.712 138.762 68.7735 138.587 68.8006C138.411 68.8277 138.232 68.8199 138.059 68.7777C137.887 68.7355 137.724 68.6597 137.582 68.5548C136.869 69.0545 136.156 68.3049 135.065 68.2216C134.017 68.1759 132.968 68.3025 131.961 68.5964C132.632 68.9295 131.584 69.1794 131.458 70.4703C130.165 71.3171 128.686 71.8424 127.146 72.0019C125.605 72.1613 124.049 71.9502 122.608 71.3864C121.224 70.8034 118.162 72.0943 118.875 70.0539C118.12 69.0128 117.826 69.7624 116.904 68.638C115.981 67.5137 116.065 67.7219 114.681 67.4304H114.303C114.009 68.0967 110.36 67.8052 111.661 65.1401C111.181 64.4329 110.662 63.7517 110.109 63.0996C109.815 64.0574 109.605 64.807 108.892 65.0985C108.467 65.2726 107.999 65.3141 107.549 65.2174C107.1 65.1207 106.69 64.8904 106.376 64.5571C104.321 62.475 105.998 61.8504 104.153 60.3929C102.307 58.9355 102.727 58.1859 101.888 56.2288L103.985 52.8974C104.74 52.6059 102.391 51.5232 102.098 49.4411C101.804 47.359 101.678 43.6945 101.636 41.8623C101.555 41.0862 101.4 40.3194 101.175 39.572C101.187 37.8964 101.341 36.2247 101.636 34.5749C101.622 34.3392 101.622 34.1028 101.636 33.867C100.21 32.9093 98.0291 33.8671 96.1836 31.9932C96.2221 33.4226 96.5205 34.8333 97.0644 36.1574C97.2099 37.8616 97.2099 39.575 97.0644 41.2793C96.8596 43.6114 97.0438 45.961 97.6097 48.2335C97.9871 48.8581 97.8194 48.2335 98.113 49.108C98.2365 49.4587 98.3209 49.8217 98.3646 50.1907L98.5744 50.3989Z" fill="#C2C4C6"/>
<path fill-rule="evenodd" clip-rule="evenodd" d="M145.547 51.0654C143.659 52.6478 143.827 54.1469 143.156 55.2296C142.485 56.3123 142.107 56.4372 141.646 57.1451C140.346 59.1023 139.968 64.4741 141.101 65.4735V65.8066C141.856 66.2647 142.233 66.8477 143.408 66.6395C144.582 66.4313 145.589 63.5996 146.05 62.4753C146.511 61.351 148.399 60.8513 148.692 58.3111C148.986 55.7709 148.399 57.1035 149.406 55.6044C149.893 54.8994 150.274 54.1279 150.538 53.3141C151.67 49.3997 152.593 44.9857 145.547 50.6906V51.0654ZM156.452 33.6174C156.746 32.8263 157.081 31.9934 157.291 31.3271C156.901 26.622 155.842 21.9954 154.145 17.5853C153.844 16.6201 153.422 15.6966 152.887 14.8369C152.509 14.0457 152.509 13.088 151.964 12.0053C151.262 9.80796 149.941 7.8561 148.157 6.3803C146.373 4.90449 144.201 3.96641 141.898 3.6769C139.717 3.6769 136.697 0.803614 134.264 0.720331C127.524 0.507706 120.779 0.968087 114.131 2.09452H113.712C112.143 2.10138 110.639 2.71364 109.517 3.80182C108.511 4.30153 107.756 5.96721 105.826 7.25811C104.694 8.00766 105.155 7.25809 104.023 8.67392C102.89 10.0897 102.597 9.38183 101.464 11.2141C100.793 12.3801 100.793 11.8387 100.332 12.7548C99.1138 15.2422 98.3336 17.9181 98.025 20.6668C97.6669 21.2323 97.4511 21.875 97.3958 22.5407C97.3958 23.2486 97.0603 23.9149 96.8505 24.6228C96.6434 25.2758 96.4892 25.9442 96.3892 26.6216C96.1375 27.9958 96.3892 30.1611 96.3892 31.2855C98.2347 33.0344 100.584 32.2016 101.842 33.1594C101.842 31.7436 101.842 28.9952 101.842 28.7453C102.643 26.0369 103.094 23.2383 103.184 20.4169C103.352 19.6294 103.696 18.8894 104.191 18.2516L109.014 12.8798C109.685 12.1302 109.392 12.4217 110.272 11.8804C111.798 10.3574 113.627 9.16622 115.641 8.38243C119.107 7.22264 122.774 6.76941 126.421 7.04989C127.427 7.04989 128.476 7.04989 129.524 7.04989L136.906 8.34081C139.831 9.15051 142.548 10.5702 144.876 12.505L145.589 13.5044C146.595 14.8369 146.847 14.3789 147.476 16.2527C147.854 17.3771 148.776 18.9595 149.322 20.4169C150.666 23.9538 150.943 27.803 150.119 31.4937C150.119 31.9518 150.119 32.618 150.119 33.3676C150.119 35.4913 154.313 35.6579 156.284 33.7424L156.452 33.6174ZM101.926 55.8542C102.765 57.8947 102.681 58.7691 104.191 60.0184C105.701 61.2677 104.191 62.3087 106.414 64.1826C106.728 64.5159 107.137 64.7462 107.587 64.8429C108.036 64.9396 108.505 64.8981 108.93 64.724C109.643 64.4325 109.853 63.6829 110.147 62.7251V62.392C110.412 60.9775 110.206 59.5156 109.559 58.2278C108.972 57.1035 108.637 55.8126 108.091 54.8132C107.431 53.7368 106.489 52.8588 105.365 52.273C101.674 50.3158 98.8638 48.5669 101.8 55.8542H101.926Z" fill="#6D6E71"/>
<path fill-rule="evenodd" clip-rule="evenodd" d="M133.975 38.0321C133.651 38.5824 133.502 39.2171 133.547 39.8531C133.592 40.489 133.83 41.0966 134.229 41.5962C134.628 42.0958 135.169 42.4641 135.783 42.6529C136.396 42.8417 137.053 42.8422 137.666 42.6543C138.222 42.5807 138.748 42.3609 139.19 42.0177C139.631 41.6744 139.973 41.2202 140.178 40.702C140.383 40.1839 140.445 39.6206 140.358 39.0707C140.27 38.5207 140.036 38.0039 139.68 37.574C138.745 37.4929 137.804 37.4929 136.869 37.574C135.887 37.582 134.911 37.7364 133.975 38.0321Z" fill="#D5A165"/>
<path fill-rule="evenodd" clip-rule="evenodd" d="M135.654 37.5314C135.297 37.8004 135.045 38.1846 134.942 38.6178C134.839 39.0511 134.892 39.5064 135.09 39.9055C135.289 40.3047 135.621 40.6227 136.03 40.805C136.439 40.9872 136.899 41.0224 137.331 40.9044C137.706 40.8349 138.054 40.6608 138.333 40.4026C138.613 40.1444 138.812 39.8125 138.909 39.4459C139.006 39.0792 138.995 38.6927 138.879 38.3316C138.763 37.9706 138.546 37.6497 138.254 37.4064H136.87C136.461 37.3976 136.052 37.4395 135.654 37.5314Z" fill="#231F20"/>
<path fill-rule="evenodd" clip-rule="evenodd" d="M110.734 39.5301C110.664 40.07 110.731 40.6186 110.927 41.1267C111.124 41.6349 111.444 42.0867 111.86 42.4416C112.276 42.7965 112.774 43.0434 113.309 43.1603C113.845 43.2772 114.401 43.2604 114.928 43.1113C115.443 43.0476 115.933 42.8568 116.355 42.5564C116.776 42.256 117.115 41.8556 117.34 41.3917C117.565 40.9279 117.67 40.4153 117.644 39.901C117.618 39.3866 117.463 38.8869 117.193 38.4474C116.083 38.1315 114.906 38.1315 113.796 38.4474C112.727 38.6568 111.695 39.0216 110.734 39.5301Z" fill="#D5A165"/>
<path fill-rule="evenodd" clip-rule="evenodd" d="M112.874 38.5734C112.598 38.9193 112.451 39.3494 112.457 39.7909C112.464 40.2323 112.623 40.658 112.909 40.9959C113.195 41.3339 113.59 41.5633 114.027 41.6454C114.464 41.7276 114.916 41.6574 115.307 41.4467C115.583 41.2693 115.811 41.0259 115.969 40.7385C116.127 40.4511 116.209 40.1291 116.209 39.8019C116.209 39.4746 116.127 39.1525 115.969 38.8652C115.811 38.5778 115.583 38.3343 115.307 38.157C114.791 38.0955 114.27 38.0955 113.755 38.157C113.436 38.2342 113.136 38.376 112.874 38.5734Z" fill="#231F20"/>
<path fill-rule="evenodd" clip-rule="evenodd" d="M112.874 38.5734C112.662 38.815 112.516 39.1064 112.45 39.4199C112.384 39.7334 112.4 40.0584 112.496 40.364C112.546 40.095 112.654 39.8401 112.814 39.6171C112.973 39.3941 113.18 39.2084 113.419 39.0731C113.667 38.91 113.952 38.8104 114.249 38.7834C114.545 38.7563 114.844 38.8026 115.118 38.9181C115.392 39.0336 115.633 39.2146 115.82 39.4451C116.006 39.6756 116.132 39.9484 116.187 40.2391C116.247 39.8452 116.197 39.4424 116.041 39.075C115.886 38.7077 115.631 38.39 115.306 38.157C114.791 38.0955 114.27 38.0955 113.754 38.157C113.435 38.2342 113.135 38.376 112.874 38.5734Z" fill="#231F20"/>
<path fill-rule="evenodd" clip-rule="evenodd" d="M114.178 38.5729C114.111 38.6462 114.07 38.739 114.061 38.8373C114.051 38.9357 114.074 39.0344 114.126 39.1187C114.178 39.203 114.256 39.2684 114.348 39.3051C114.441 39.3418 114.543 39.3479 114.639 39.3224C115.1 39.0726 114.681 38.2814 114.178 38.5729Z" fill="white"/>
<path fill-rule="evenodd" clip-rule="evenodd" d="M136.32 37.8646C136.263 37.8862 136.212 37.9199 136.169 37.9633C136.127 38.0067 136.095 38.0588 136.074 38.1159C136.054 38.173 136.047 38.2338 136.053 38.2941C136.059 38.3543 136.078 38.4126 136.109 38.4647C136.14 38.5169 136.182 38.5617 136.232 38.5962C136.282 38.6306 136.339 38.6537 136.399 38.664C136.459 38.6743 136.521 38.6714 136.58 38.6556C136.638 38.6398 136.693 38.6114 136.74 38.5725C137.159 38.3227 136.614 37.5731 136.32 37.8646Z" fill="white"/>
</svg>
