<svg width="630" height="208" viewBox="0 0 630 208" fill="none" xmlns="http://www.w3.org/2000/svg">
<path d="M11.2389 197.263C18.577 197.215 26.2411 196.442 33.5228 196.966C41.1957 197.516 48.0076 199.757 55.8575 199.796C66.5646 199.845 77.2698 199.594 87.9762 199.523C101.179 199.436 114.321 199.349 127.115 196.558C136.124 194.603 144.882 190.966 154.565 190.752C175.104 190.285 195.585 185.699 216.149 184.661C226.011 184.144 236.029 184.68 245.894 184.614C260.269 184.519 274.702 184.003 289.049 184.209C302.644 184.39 315.894 186.798 328.498 191.768C335.403 194.489 341.193 196.797 348.568 197.8C365.124 200.067 380.465 200.387 397.276 200.276C410.689 200.187 426.1 202.04 439.226 199.367C447.485 197.688 454.856 197.97 463.151 197.193C468.952 196.674 474.412 194.472 480.243 194.013C488.479 193.357 497.353 193.599 505.656 193.935C511.553 194.167 511.107 195.072 515.634 197.388C525.865 202.674 536.996 203.202 548.019 205.475C557.174 207.369 564.22 208.676 573.462 205.367C590.354 199.33 605.731 196.071 623.565 195.953L612.889 196.023C617.458 191.181 621.441 193.079 622.115 185.917C622.508 181.614 621.545 177.019 621.697 172.687C621.902 167.302 624.184 162.174 624.058 156.791C623.968 152.25 622.338 146.818 621.616 142.281C621.146 139.367 618.023 135.508 619.538 132.731C621.826 128.475 628.149 129.516 625.667 122.645C622.174 112.954 595.907 111.233 606.542 100.335C609.888 96.9146 615.139 95.0754 614.652 89.665C614.358 86.1481 612.324 83.2743 612.149 79.5161C611.94 75.2468 612.782 70.6096 611.882 66.4351C611.23 63.3717 609.238 62.242 609.722 58.1485C610.207 54.1453 611.54 51.0989 611.933 46.9158C612.242 43.5453 612.97 39.9014 614.122 36.7659C615.452 33.1782 616.873 29.7703 617.928 25.673C618.955 21.7264 619.575 19.9779 621.871 16.9552C623.182 15.2021 611.19 16.3641 611.687 14.1353L622.363 14.0647C604.529 14.1826 589.182 17.4119 572.259 23.4786C563.018 26.7879 555.972 25.451 546.816 23.5867C535.794 21.3137 524.662 20.7857 514.432 15.4999C509.935 13.1838 510.35 12.2788 504.454 12.0471C496.181 11.7108 487.277 11.4989 479.041 12.1248C473.209 12.5844 467.75 14.7859 461.949 15.3055C453.653 16.0521 446.313 15.7998 438.023 17.4787C424.868 20.1221 409.487 18.2989 396.074 18.3876C379.263 18.4987 363.922 18.179 347.366 15.9125C340.021 14.9084 334.201 12.6311 327.296 9.87973C314.691 4.91038 301.412 2.5019 287.847 2.32089C273.47 2.11517 259.067 2.63143 244.691 2.72646C234.797 2.79186 224.809 2.28645 214.947 2.77269C194.382 3.81089 173.902 8.4275 153.363 8.86402C143.68 9.0784 134.922 12.7153 125.912 14.6696C113.119 17.4308 99.9762 17.5177 86.7739 17.6351C76.0675 17.7058 65.3323 17.9572 54.6552 17.9075C46.8052 17.8692 39.9934 15.6285 32.3205 15.0777C25.0388 14.5544 17.3745 15.2968 10.0366 15.3754C10.0335 14.8942 8.22385 14.1242 8.22047 13.6129C8.23816 16.2895 8.40404 18.6343 7.75911 21.1649C6.55728 25.8947 6.04915 30.9206 6.11679 36.6044C6.18523 42.4085 7.10032 48.8988 6.32609 54.6182C5.86717 57.9897 4.38195 60.7965 4.01365 64.2275C3.61707 67.9294 2.76693 75.8148 4.44347 79.2022C6.24169 82.7994 12.7576 85.7639 15.9028 88.3897C24.6738 95.8205 29.2014 98.2868 23.9797 109.118C20.2709 116.782 17.6476 124.86 12.9424 131.928C11.8109 133.65 9.91548 133.542 9.14627 135.472C8.43603 137.221 8.99306 139.594 9.06534 141.428C9.18518 145.908 9.78681 150.476 8.12989 154.607C5.34865 161.543 2.02733 164.121 2.50144 172.148C2.90785 179.033 9.06563 182.42 6.76776 189.684C6.137 189.808 11.8693 197.079 11.2686 197.203L11.2389 197.263Z" fill="#F6F6F6"/>
<path d="M33.9523 168.786C34.3628 168.98 34.7169 169.275 34.9807 169.645C35.2445 170.014 35.4093 170.445 35.4593 170.896C35.5093 171.347 35.4429 171.804 35.2664 172.222C35.0899 172.64 34.8092 173.006 34.4511 173.285C33.618 173.814 32.6647 174.124 31.6797 174.186C32.4489 174.95 32.9711 175.927 33.1788 176.99C33.3902 177.61 33.3563 178.287 33.084 178.882C32.8116 179.477 32.3216 179.945 31.7146 180.19C31.1077 180.435 30.4299 180.438 29.8209 180.198C29.2118 179.959 28.7177 179.495 28.4402 178.902C27.7222 177.534 27.3972 175.993 27.5012 174.452L27.0122 174.506C25.2613 174.653 23.5049 174.298 21.9483 173.483C21.7165 173.384 21.5087 173.236 21.3386 173.05C21.1685 172.864 21.0401 172.644 20.962 172.404C20.8838 172.164 20.8578 171.911 20.8856 171.66C20.9134 171.409 20.9942 171.168 21.1229 170.951C21.4556 170.488 21.9505 170.168 22.5087 170.055C23.4499 169.737 24.42 169.514 25.4051 169.387C25.1083 168.271 24.9804 167.117 25.0255 165.964C25.0706 165.492 25.2434 165.041 25.5254 164.66C25.8074 164.279 26.1879 163.982 26.626 163.801C27.0641 163.62 27.5433 163.562 28.0119 163.633C28.4805 163.704 28.921 163.902 29.2859 164.204C30.6168 165.492 30.2795 167.361 29.8281 169.095C30.4258 168.681 31.1231 168.434 31.8482 168.38C32.5732 168.325 33.2996 168.465 33.9523 168.786Z" fill="#D6D6D6"/>
<path fill-rule="evenodd" clip-rule="evenodd" d="M82.4644 36.8079C82.5262 36.1305 82.8288 35.4965 83.3142 35.0271C86.4677 32.676 90.2317 38.0334 87.8633 40.8045C86.1224 42.9403 82.8539 41.296 82.2374 38.9826C82.0306 38.2598 82.1122 37.4779 82.4644 36.8079ZM71.9907 40.6838C71.8877 40.1808 71.6733 39.7105 71.3638 39.3094C67.1066 34.4198 60.3984 42.4765 65.0517 46.5082C67.8146 48.8338 72.6262 46.4599 71.8558 42.5902C71.8998 42.4666 71.9338 42.3396 71.9575 42.2105C72.0823 41.7091 72.0936 41.1868 71.9907 40.6838ZM32.0396 68.2982C32.349 68.6993 32.5635 69.1695 32.6665 69.6725C32.7694 70.1755 32.7581 70.6979 32.6333 71.1993C32.6096 71.3284 32.5756 71.4554 32.5316 71.579C33.302 75.4486 28.4904 77.8225 25.7274 75.497C21.0742 71.4653 27.7824 63.4086 32.0396 68.2982ZM35.4732 85.6898C35.535 85.0123 35.8376 84.3783 36.3229 83.9089C39.4765 81.5578 43.2405 86.9152 40.8721 89.6863C39.1312 91.8221 35.8627 90.1779 35.2462 87.8645C35.0394 87.1417 35.121 86.3598 35.4732 85.6898Z" fill="#D23F3F"/>
<path d="M30.5938 42.8449C30.6769 42.6022 30.8131 42.3798 30.9931 42.1931C30.7266 41.6667 30.6716 41.0636 30.839 40.5016C31.0064 39.9396 31.3841 39.4591 31.8982 39.1541C32.4798 38.8718 33.1303 38.7488 33.7799 38.7982C34.7445 38.5737 35.741 38.5034 36.7302 38.59C40.1445 39.0866 44.0572 39.0399 47.1609 40.8085C47.4811 41.0503 47.7321 41.3678 47.8898 41.7303C48.0476 42.0928 48.1067 42.4882 48.0615 42.8785C48.0163 43.2688 47.8683 43.641 47.6318 43.9591C47.3953 44.2773 47.0782 44.5308 46.7109 44.6953C45.3236 45.0323 43.89 45.1586 42.4612 45.0696C43.8946 46.1619 45.9481 47.825 44.8778 49.7677C44.6112 50.2178 44.2004 50.5709 43.7075 50.7736C43.2146 50.9763 42.6665 51.0176 42.146 50.8911C40.2627 50.0771 38.4944 49.0317 36.8845 47.7809C37.4927 49.7643 37.3622 51.8894 36.5159 53.7835C36.2585 54.1144 35.9204 54.3779 35.5318 54.5508C35.1432 54.7236 34.7162 54.8004 34.2889 54.7742C33.8615 54.7479 33.4471 54.6195 33.0826 54.4004C32.7181 54.1813 32.4148 53.8784 32.1998 53.5185C31.4825 51.445 31.0534 49.2889 30.9238 47.1075C30.6181 45.7066 30.5071 44.273 30.5938 42.8449Z" fill="#231F20"/>
<path fill-rule="evenodd" clip-rule="evenodd" d="M580.288 121.365C580.49 121.754 580.78 122.093 581.135 122.353C585.874 125.426 589.747 117.35 584.866 115.067C581.984 113.768 578.429 116.77 579.968 119.773C579.958 119.884 579.958 119.995 579.968 120.106C579.976 120.544 580.085 120.975 580.288 121.365ZM569.733 172.277C569.269 171.532 569.098 170.642 569.252 169.78C569.029 168.829 569.194 167.83 569.712 167C571.308 164.329 576.098 163.374 577.608 166.609C579.707 170.844 572.992 176.251 569.733 172.277ZM576.843 184.004C576.017 183.935 575.24 183.59 574.636 183.026C574.033 182.463 573.639 181.713 573.518 180.899C573.573 180.321 573.545 179.775 573.518 179.238V179.238C573.491 178.706 573.464 178.182 573.518 177.642C573.89 175.47 576.231 174.58 578.177 174.298C578.721 174.262 579.265 174.35 579.769 174.555C580.272 174.76 580.722 175.077 581.083 175.482C581.444 175.887 581.707 176.368 581.852 176.889C581.996 177.41 582.019 177.958 581.917 178.489C582.031 179.198 581.982 179.923 581.774 180.61C581.566 181.298 581.205 181.93 580.718 182.46C580.23 182.99 579.629 183.404 578.958 183.671C578.287 183.939 577.564 184.052 576.843 184.004ZM581.963 168.542C580.191 171.278 580.76 174.557 584.15 175.621C590.23 177.467 596.158 169.02 588.984 166.154C587.706 165.85 586.367 165.914 585.124 166.337C583.881 166.76 582.785 167.525 581.963 168.542ZM517.955 182.553C517.6 182.292 517.31 181.954 517.108 181.564C516.906 181.174 516.796 180.744 516.788 180.306C516.779 180.195 516.779 180.083 516.788 179.972C515.25 176.97 518.804 173.968 521.686 175.267C526.567 177.549 522.694 185.625 517.955 182.553Z" fill="#D23F3F"/>
<path d="M548.507 174.575C548.805 174.812 549.037 175.121 549.182 175.474C549.326 175.826 549.378 176.209 549.333 176.587C549.287 176.965 549.145 177.325 548.921 177.633C548.696 177.941 548.397 178.186 548.051 178.345C547.269 178.617 546.431 178.687 545.615 178.549C546.096 179.32 546.335 180.218 546.3 181.126C546.354 181.673 546.197 182.219 545.86 182.652C545.523 183.086 545.033 183.374 544.491 183.458C543.948 183.541 543.394 183.414 542.943 183.101C542.491 182.788 542.177 182.315 542.064 181.777C541.74 180.522 541.771 179.202 542.152 177.963L541.742 177.914C540.284 177.697 538.918 177.07 537.803 176.106C537.633 175.981 537.491 175.82 537.388 175.636C537.285 175.451 537.223 175.246 537.205 175.036C537.187 174.825 537.214 174.613 537.285 174.414C537.356 174.214 537.468 174.032 537.615 173.88C537.976 173.566 538.441 173.4 538.919 173.414C539.748 173.336 540.583 173.339 541.412 173.425C541.384 172.457 541.501 171.49 541.759 170.557C541.887 170.18 542.114 169.845 542.418 169.588C542.721 169.331 543.089 169.162 543.481 169.098C543.874 169.035 544.276 169.079 544.645 169.227C545.014 169.375 545.336 169.621 545.576 169.938C546.416 171.245 545.781 172.707 545.08 174.035C545.648 173.812 546.264 173.744 546.867 173.839C547.469 173.934 548.036 174.188 548.507 174.575Z" fill="#272D1F"/>
<path d="M585.426 142.355C585.791 142.464 586.122 142.664 586.388 142.937C586.653 143.21 586.844 143.546 586.943 143.914C587.042 144.282 587.044 144.669 586.951 145.038C586.857 145.407 586.671 145.746 586.409 146.023C585.785 146.567 585.034 146.945 584.225 147.121C584.959 147.657 585.516 148.401 585.823 149.257C586.077 149.743 586.134 150.309 585.983 150.837C585.833 151.365 585.486 151.815 585.013 152.095C584.541 152.375 583.979 152.463 583.444 152.341C582.909 152.22 582.44 151.898 582.135 151.441C581.367 150.397 580.902 149.161 580.794 147.869L580.395 147.976C578.962 148.32 577.46 148.248 576.066 147.769C575.862 147.716 575.67 147.619 575.506 147.487C575.341 147.354 575.207 147.187 575.112 146.999C575.017 146.81 574.963 146.603 574.954 146.391C574.946 146.18 574.982 145.969 575.062 145.773C575.279 145.348 575.649 145.02 576.097 144.855C576.838 144.473 577.614 144.164 578.415 143.935C578.027 143.047 577.775 142.106 577.667 141.144C577.645 140.747 577.731 140.351 577.917 140C578.102 139.648 578.38 139.354 578.721 139.148C579.061 138.943 579.451 138.834 579.849 138.834C580.246 138.833 580.636 138.941 580.977 139.146C582.244 140.046 582.201 141.638 582.045 143.133C582.489 142.714 583.036 142.421 583.63 142.284C584.225 142.148 584.845 142.172 585.426 142.355Z" fill="#272D1F"/>
</svg>
