<svg width="343" height="212" viewBox="0 0 343 212" fill="none" xmlns="http://www.w3.org/2000/svg">
<path d="M6.62887 200.956C10.624 200.907 14.7967 200.135 18.7612 200.658C22.9387 201.209 26.6473 203.45 30.9212 203.488C36.7506 203.537 42.579 203.286 48.408 203.215C55.5961 203.128 62.7514 203.041 69.7168 200.25C74.6221 198.296 79.3903 194.659 84.6621 194.444C95.8441 193.978 106.995 189.391 118.191 188.353C123.56 187.837 129.015 188.372 134.385 188.307C142.212 188.212 150.07 187.695 157.881 187.901C165.283 188.082 172.496 190.491 179.359 195.46C183.118 198.181 186.27 200.489 190.286 201.493C199.3 203.759 207.652 204.079 216.805 203.968C224.107 203.879 232.498 205.732 239.644 203.059C244.141 201.38 248.153 201.662 252.67 200.886C255.828 200.366 258.801 198.165 261.976 197.705C266.46 197.049 271.291 197.291 275.812 197.627C279.022 197.859 278.78 198.764 281.244 201.08C286.814 206.366 292.874 206.894 298.876 209.167C303.86 211.061 307.696 212.368 312.728 209.059C321.925 203.022 330.297 199.763 340.006 199.645L334.194 199.716C336.682 194.873 338.85 196.772 339.217 189.609C339.431 185.306 338.907 180.711 338.989 176.379C339.101 170.994 340.343 165.866 340.275 160.484C340.226 155.943 339.338 150.51 338.945 145.973C338.689 143.059 336.989 139.2 337.814 136.423C339.06 132.167 342.502 133.208 341.151 126.337C339.249 116.646 324.948 114.925 330.738 104.028C332.56 100.607 335.419 98.7677 335.154 93.3574C334.994 89.8405 333.886 86.9667 333.791 83.2085C333.677 78.9391 334.135 74.302 333.646 70.1274C333.291 67.0641 332.206 65.9344 332.47 61.8409C332.734 57.8377 333.459 54.7912 333.674 50.6082C333.842 47.2377 334.238 43.5938 334.865 40.4583C335.589 36.8705 336.363 33.4626 336.937 29.3654C337.496 25.4187 337.834 23.6703 339.084 20.6476C339.798 18.8945 333.269 20.0565 333.539 17.8276L339.352 17.7571C329.642 17.8749 321.287 21.1042 312.073 27.171C307.042 30.4803 303.206 29.1434 298.221 27.2791C292.22 25.006 286.159 24.4781 280.589 19.1923C278.141 16.8762 278.367 15.9711 275.157 15.7394C270.653 15.4031 265.805 15.1913 261.321 15.8172C258.146 16.2768 255.174 18.4783 252.015 18.9979C247.499 19.7444 243.503 19.4922 238.989 21.1711C231.827 23.8144 223.453 21.9913 216.15 22.0799C206.997 22.1911 198.645 21.8714 189.631 19.6049C185.632 18.6008 182.464 16.3235 178.704 13.5721C171.842 8.60277 164.612 6.19429 157.227 6.01327C149.399 5.80756 141.557 6.32382 133.731 6.41884C128.344 6.48424 122.906 5.97883 117.537 6.46507C106.34 7.50327 95.1896 12.1199 84.0075 12.5564C78.7357 12.7708 73.9675 16.4076 69.0622 18.362C62.0967 21.1232 54.9414 21.2101 47.7535 21.3274C41.9244 21.3982 36.0797 21.6496 30.2666 21.5999C25.9927 21.5616 22.2841 19.3209 18.1066 18.7701C14.1421 18.2468 9.96935 18.9892 5.97428 19.0678C5.97255 18.5866 4.98732 17.8166 4.98548 17.3053C4.99511 19.9819 5.08542 22.3267 4.73429 24.8573C4.07996 29.5871 3.80331 34.613 3.84014 40.2968C3.87741 46.1009 4.37562 52.5911 3.95409 58.3106C3.70424 61.6821 2.89562 64.4889 2.6951 67.9199C2.47918 71.6218 2.01633 79.5072 2.92911 82.8946C3.90814 86.4918 7.45568 89.4562 9.16807 92.0821C13.9434 99.5129 16.4084 101.979 13.5655 112.811C11.5463 120.474 10.118 128.552 7.55632 135.621C6.94029 137.343 5.90832 137.235 5.48953 139.165C5.10284 140.914 5.40611 143.286 5.44546 145.12C5.51071 149.601 5.83826 154.168 4.93616 158.299C3.42193 165.235 1.61366 167.813 1.87179 175.84C2.09306 182.725 5.44562 186.113 4.19456 193.376C3.85115 193.501 6.97207 200.771 6.64503 200.895L6.62887 200.956Z" fill="#F6F6F6"/>
<path d="M40.8779 176.165C41.2382 176.335 41.5489 176.595 41.7804 176.919C42.012 177.243 42.1565 177.621 42.2004 178.017C42.2443 178.413 42.1861 178.814 42.0312 179.181C41.8763 179.548 41.63 179.869 41.3157 180.114C40.5846 180.578 39.7479 180.85 38.8835 180.905C39.5585 181.575 40.0168 182.432 40.1991 183.366C40.3847 183.909 40.3549 184.503 40.1159 185.026C39.8769 185.548 39.4468 185.959 38.9141 186.174C38.3815 186.389 37.7867 186.391 37.2522 186.181C36.7177 185.971 36.284 185.564 36.0405 185.043C35.4103 183.843 35.1251 182.491 35.2165 181.138L34.7873 181.185C33.2507 181.314 31.7092 181.003 30.3432 180.288C30.1398 180.201 29.9574 180.071 29.8081 179.908C29.6589 179.744 29.5462 179.551 29.4776 179.341C29.409 179.13 29.3862 178.908 29.4106 178.688C29.4349 178.468 29.5059 178.256 29.6189 178.065C29.9108 177.66 30.3451 177.379 30.8351 177.279C31.661 177.001 32.5124 176.804 33.3769 176.693C33.1165 175.714 33.0042 174.701 33.0438 173.689C33.0833 173.275 33.235 172.879 33.4825 172.545C33.73 172.21 34.0639 171.95 34.4483 171.791C34.8328 171.632 35.2533 171.581 35.6646 171.644C36.0759 171.706 36.4624 171.879 36.7827 172.145C37.9507 173.275 37.6546 174.915 37.2585 176.436C37.7831 176.073 38.3951 175.856 39.0313 175.809C39.6676 175.761 40.3051 175.884 40.8779 176.165Z" fill="#D6D6D6"/>
<path fill-rule="evenodd" clip-rule="evenodd" d="M49.4393 35.5813C49.4766 35.1727 49.659 34.7903 49.9518 34.5072C51.8539 33.0891 54.1242 36.3204 52.6957 37.9918C51.6456 39.2801 49.6742 38.2883 49.3023 36.893C49.1776 36.457 49.2269 35.9854 49.4393 35.5813ZM43.1225 37.9189C43.0604 37.6155 42.931 37.3319 42.7444 37.0899C40.1766 34.1407 36.1305 39.0002 38.9371 41.4319C40.6037 42.8346 43.5058 41.4028 43.0411 39.0688C43.0677 38.9942 43.0882 38.9176 43.1025 38.8397C43.1777 38.5373 43.1846 38.2223 43.1225 37.9189ZM19.0256 54.5748C19.2123 54.8167 19.3416 55.1004 19.4037 55.4037C19.4658 55.7071 19.459 56.0222 19.3837 56.3246C19.3694 56.4025 19.3489 56.4791 19.3224 56.5537C19.7871 58.8876 16.8849 60.3195 15.2184 58.9168C12.4118 56.485 16.4579 51.6256 19.0256 54.5748ZM21.0965 65.0648C21.1338 64.6562 21.3163 64.2738 21.609 63.9907C23.5111 62.5726 25.7814 65.804 24.3529 67.4754C23.3028 68.7636 21.3314 67.7719 20.9596 66.3765C20.8349 65.9405 20.8841 65.4689 21.0965 65.0648Z" fill="#D23F3F"/>
<path d="M18.1548 39.2224C18.2049 39.076 18.2871 38.9419 18.3957 38.8293C18.2349 38.5118 18.2018 38.148 18.3027 37.809C18.4037 37.4701 18.6315 37.1803 18.9416 36.9963C19.2924 36.826 19.6848 36.7518 20.0765 36.7816C20.6584 36.6462 21.2594 36.6038 21.8561 36.6561C23.9154 36.9556 26.2753 36.9274 28.1474 37.9941C28.3405 38.14 28.4919 38.3315 28.587 38.5501C28.6822 38.7688 28.7178 39.0073 28.6906 39.2427C28.6633 39.4781 28.5741 39.7026 28.4314 39.8945C28.2888 40.0864 28.0975 40.2393 27.876 40.3385C27.0392 40.5417 26.1745 40.6179 25.3127 40.5643C26.1773 41.2231 27.4159 42.2262 26.7703 43.398C26.6095 43.6695 26.3617 43.8824 26.0644 44.0047C25.7671 44.1269 25.4365 44.1518 25.1226 44.0756C23.9867 43.5845 22.9201 42.954 21.9491 42.1996C22.3159 43.3959 22.2372 44.6777 21.7268 45.8201C21.5715 46.0197 21.3676 46.1787 21.1332 46.2829C20.8988 46.3872 20.6413 46.4335 20.3835 46.4176C20.1258 46.4018 19.8758 46.3244 19.656 46.1922C19.4361 46.0601 19.2532 45.8773 19.1235 45.6603C18.6908 44.4096 18.432 43.1092 18.3539 41.7934C18.1695 40.9485 18.1025 40.0838 18.1548 39.2224Z" fill="#231F20"/>
<path fill-rule="evenodd" clip-rule="evenodd" d="M314.773 141.268C314.92 141.552 315.132 141.798 315.391 141.989C318.846 144.229 321.67 138.34 318.111 136.676C316.01 135.728 313.418 137.917 314.539 140.107C314.533 140.188 314.533 140.269 314.539 140.35C314.545 140.67 314.625 140.983 314.773 141.268ZM307.077 178.393C306.738 177.85 306.613 177.202 306.726 176.572C306.563 175.879 306.684 175.151 307.061 174.545C308.225 172.598 311.718 171.901 312.819 174.26C314.35 177.348 309.453 181.291 307.077 178.393ZM312.262 186.945C311.66 186.895 311.093 186.643 310.653 186.232C310.212 185.821 309.925 185.274 309.837 184.681C309.878 184.259 309.857 183.861 309.837 183.47L309.837 183.469C309.817 183.082 309.798 182.699 309.837 182.306C310.109 180.722 311.815 180.073 313.235 179.867C313.631 179.841 314.028 179.905 314.395 180.055C314.763 180.204 315.09 180.436 315.354 180.731C315.617 181.026 315.809 181.377 315.914 181.757C316.02 182.137 316.036 182.536 315.962 182.923C316.045 183.44 316.009 183.969 315.858 184.47C315.706 184.971 315.443 185.432 315.087 185.819C314.732 186.205 314.293 186.507 313.804 186.702C313.315 186.897 312.788 186.98 312.262 186.945ZM315.995 175.67C314.703 177.665 315.118 180.056 317.59 180.832C322.024 182.178 326.346 176.018 321.115 173.928C320.183 173.707 319.207 173.753 318.3 174.062C317.394 174.37 316.594 174.928 315.995 175.67ZM269.319 185.886C269.06 185.696 268.849 185.449 268.702 185.165C268.554 184.881 268.474 184.567 268.468 184.248C268.461 184.167 268.461 184.085 268.468 184.004C267.346 181.815 269.938 179.626 272.04 180.573C275.599 182.238 272.775 188.127 269.319 185.886Z" fill="#D23F3F"/>
<path d="M291.598 180.069C291.815 180.242 291.985 180.467 292.09 180.724C292.195 180.981 292.233 181.261 292.2 181.536C292.166 181.812 292.063 182.075 291.899 182.299C291.736 182.523 291.517 182.702 291.265 182.818C290.695 183.016 290.084 183.067 289.489 182.967C289.84 183.529 290.014 184.184 289.989 184.846C290.028 185.245 289.913 185.643 289.667 185.959C289.422 186.275 289.065 186.486 288.669 186.546C288.273 186.607 287.869 186.514 287.54 186.286C287.211 186.058 286.982 185.713 286.899 185.321C286.663 184.406 286.685 183.443 286.963 182.54L286.664 182.503C285.601 182.346 284.605 181.889 283.792 181.186C283.668 181.094 283.565 180.977 283.49 180.842C283.415 180.708 283.369 180.559 283.356 180.405C283.343 180.251 283.363 180.097 283.415 179.951C283.466 179.806 283.548 179.673 283.655 179.562C283.918 179.333 284.258 179.212 284.606 179.222C285.211 179.165 285.82 179.168 286.424 179.23C286.404 178.524 286.489 177.819 286.677 177.139C286.77 176.864 286.936 176.62 287.157 176.433C287.379 176.245 287.647 176.122 287.933 176.075C288.219 176.029 288.513 176.061 288.782 176.169C289.051 176.277 289.286 176.456 289.46 176.688C290.073 177.641 289.61 178.707 289.099 179.675C289.513 179.513 289.962 179.463 290.402 179.532C290.841 179.602 291.254 179.787 291.598 180.069Z" fill="#272D1F"/>
<path d="M318.519 156.574C318.786 156.653 319.027 156.799 319.22 156.998C319.414 157.197 319.553 157.443 319.625 157.711C319.697 157.979 319.699 158.261 319.631 158.53C319.563 158.799 319.427 159.047 319.236 159.248C318.781 159.645 318.233 159.921 317.643 160.049C318.179 160.44 318.585 160.982 318.808 161.606C318.993 161.961 319.035 162.374 318.926 162.759C318.816 163.144 318.563 163.472 318.218 163.676C317.874 163.88 317.464 163.945 317.074 163.856C316.683 163.767 316.342 163.532 316.119 163.199C315.559 162.438 315.22 161.537 315.141 160.595L314.85 160.673C313.805 160.923 312.71 160.871 311.694 160.521C311.545 160.483 311.405 160.413 311.285 160.316C311.165 160.219 311.067 160.098 310.998 159.96C310.929 159.822 310.889 159.671 310.883 159.517C310.877 159.363 310.903 159.209 310.961 159.066C311.12 158.756 311.389 158.517 311.717 158.397C312.256 158.118 312.822 157.893 313.406 157.726C313.124 157.078 312.94 156.392 312.861 155.691C312.845 155.401 312.908 155.113 313.043 154.856C313.179 154.6 313.381 154.385 313.629 154.236C313.878 154.086 314.162 154.006 314.452 154.006C314.742 154.006 315.026 154.084 315.275 154.234C316.199 154.89 316.167 156.051 316.054 157.141C316.377 156.835 316.776 156.622 317.21 156.522C317.643 156.422 318.095 156.44 318.519 156.574Z" fill="#272D1F"/>
</svg>
