<svg width="551" height="294" viewBox="0 0 551 294" fill="none" xmlns="http://www.w3.org/2000/svg">
<path d="M8.08591 282.438C14.5532 282.438 21.3121 281.848 27.7264 282.315C34.4853 282.806 40.4755 284.675 47.3934 284.749C56.8294 284.847 66.2653 284.7 75.7012 284.7C87.3371 284.7 98.92 284.7 110.211 282.487C118.163 280.938 125.902 278.012 134.437 277.889C152.54 277.619 170.617 273.98 188.747 273.242C197.441 272.873 206.267 273.365 214.961 273.365C227.63 273.365 240.353 273.021 252.996 273.267C264.976 273.488 276.639 275.529 287.718 279.659C293.788 281.921 298.877 283.839 305.371 284.7C319.949 286.642 333.466 286.986 348.283 286.986C360.104 286.986 373.675 288.584 385.258 286.47C392.547 285.142 399.041 285.413 406.356 284.823C411.472 284.429 416.296 282.659 421.438 282.315C428.7 281.823 436.519 282.069 443.835 282.388C449.03 282.61 448.632 283.347 452.608 285.265C461.594 289.642 471.401 290.133 481.102 292.051C489.159 293.649 495.361 294.756 503.525 292.1C518.448 287.257 532.018 284.675 547.736 284.675H538.327C542.382 280.741 545.881 282.315 546.517 276.463C546.888 272.947 546.066 269.185 546.225 265.644C546.437 261.243 548.478 257.064 548.399 252.662C548.346 248.95 546.941 244.499 546.331 240.787C545.934 238.402 543.204 235.23 544.556 232.968C546.596 229.501 552.163 230.386 550.016 224.756C546.994 216.814 523.855 215.265 533.291 206.414C536.259 203.635 540.898 202.16 540.5 197.734C540.262 194.857 538.486 192.497 538.353 189.424C538.194 185.932 538.963 182.146 538.194 178.728C537.638 176.22 535.888 175.286 536.339 171.942C536.789 168.672 537.982 166.189 538.353 162.771C538.645 160.017 539.307 157.042 540.341 154.485C541.534 151.559 542.806 148.781 543.76 145.437C544.688 142.216 545.245 140.79 547.286 138.331C548.452 136.905 537.876 137.79 538.327 135.971H547.736C532.018 135.971 518.474 138.528 503.525 143.396C495.361 146.052 489.159 144.921 481.102 143.347C471.401 141.429 461.594 140.937 452.608 136.561C448.659 134.643 449.03 133.905 443.835 133.684C436.546 133.365 428.7 133.143 421.438 133.61C416.296 133.955 411.472 135.725 406.356 136.118C399.041 136.684 392.573 136.438 385.258 137.766C373.649 139.856 360.104 138.282 348.283 138.282C333.466 138.282 319.949 137.938 305.371 135.995C298.903 135.135 293.788 133.242 287.718 130.955C276.639 126.824 264.95 124.784 252.996 124.562C240.326 124.316 227.63 124.661 214.961 124.661C206.24 124.661 197.441 124.193 188.747 124.538C170.617 125.275 152.54 128.939 134.437 129.185C125.902 129.308 118.163 132.234 110.211 133.783C98.92 135.971 87.3371 135.971 75.7012 135.995C66.2653 135.995 56.8029 136.143 47.3934 136.045C40.4755 135.971 34.4853 134.102 27.7264 133.61C21.3121 133.143 14.5532 133.709 8.08591 133.733C8.08591 133.34 6.49558 132.701 6.49558 132.283C6.49558 134.471 6.62811 136.389 6.04499 138.454C4.95827 142.314 4.48117 146.42 4.50768 151.067C4.53418 155.813 5.30284 161.124 4.58719 165.795C4.16311 168.549 2.83784 170.836 2.49327 173.639C2.12219 176.663 1.32703 183.105 2.78482 185.883C4.34864 188.834 10.0738 191.292 12.8304 193.456C20.5169 199.578 24.4928 201.619 19.8278 210.446C16.5146 216.691 14.1556 223.28 9.96779 229.034C8.96059 230.435 7.29075 230.337 6.6016 231.911C5.96548 233.337 6.44257 235.279 6.49558 236.779C6.5751 240.442 7.0787 244.18 5.5944 247.548C3.10289 253.203 0.160789 255.293 0.531865 261.858C0.84993 267.489 6.25704 270.292 4.18961 276.217C3.633 276.315 8.64252 282.29 8.11241 282.388L8.08591 282.438Z" fill="white"/>
<path d="M514.784 158.65C508.652 158.65 502.244 158.059 496.162 158.527C489.754 159.018 484.074 160.887 477.515 160.961C468.569 161.059 459.622 160.912 450.675 160.912C439.643 160.912 428.661 160.912 417.955 158.699C410.416 157.15 403.078 154.224 394.986 154.101C377.821 153.83 360.682 150.192 343.493 149.454C335.25 149.085 326.881 149.577 318.638 149.577C306.626 149.577 294.563 149.233 282.576 149.478C271.217 149.7 260.159 151.741 249.654 155.871C243.899 158.133 239.074 160.051 232.917 160.912C219.095 162.854 206.279 163.198 192.231 163.198C181.022 163.198 168.155 164.796 157.173 162.682C150.262 161.354 144.105 161.625 137.169 161.035C132.319 160.641 127.745 158.871 122.87 158.527C115.984 158.035 108.57 158.281 101.634 158.6C96.7085 158.822 97.0854 159.559 93.3158 161.477C84.7965 165.854 75.4981 166.345 66.3002 168.263C58.6605 169.861 52.7799 170.968 45.0396 168.312C30.891 163.469 18.024 160.887 3.12146 160.887H12.0429C8.19788 156.953 4.88062 158.527 4.27747 152.675C3.92566 149.159 4.70471 145.397 4.55396 141.856C4.35291 137.455 2.41779 133.275 2.49316 128.874C2.54346 125.162 3.87537 120.711 4.45337 116.999C4.83032 114.614 7.41882 111.442 6.13715 109.18C4.20209 105.713 -1.07538 106.598 0.960205 100.968C3.82513 93.0259 25.7643 91.4769 16.8177 82.6255C14.0031 79.8471 9.60516 78.3719 9.98215 73.9461C10.2083 71.0694 11.8921 68.709 12.0178 65.6356C12.1685 62.1442 11.4398 58.3578 12.1685 54.9401C12.6963 52.4322 14.3549 51.4979 13.9277 48.154C13.5005 44.8839 12.3696 42.4006 12.0178 38.9829C11.7413 36.2291 11.1131 33.2541 10.133 30.697C9.00208 27.7711 7.79578 24.9927 6.89105 21.6488C6.01147 18.4279 5.48376 17.0018 3.54865 14.5431C2.44293 13.117 12.4701 14.0022 12.0429 12.1827H3.12146C18.024 12.1827 30.8658 14.7398 45.0396 19.6081C52.7799 22.2635 58.6605 21.1325 66.3002 19.5589C75.4981 17.6411 84.7965 17.1493 93.3158 12.7728C97.0603 10.855 96.7085 10.1174 101.634 9.89608C108.545 9.57644 115.984 9.35516 122.87 9.82232C127.745 10.1665 132.319 11.9368 137.169 12.3302C144.105 12.8957 150.237 12.6499 157.173 13.9776C168.18 16.0675 181.022 14.4939 192.231 14.4939C206.279 14.4939 219.095 14.1497 232.917 12.2073C239.049 11.3467 243.899 9.45351 249.654 7.16688C260.159 3.03621 271.242 0.995458 282.576 0.774172C294.588 0.528299 306.626 0.872522 318.638 0.872522C326.906 0.872522 335.25 0.405361 343.493 0.749584C360.682 1.4872 377.821 5.15072 394.986 5.39659C403.078 5.51953 410.416 8.44543 417.955 9.99443C428.661 12.1827 439.643 12.1827 450.675 12.2073C459.622 12.2073 468.594 12.3548 477.515 12.2565C484.074 12.1827 489.754 10.3141 496.162 9.82232C502.244 9.35516 508.652 9.92067 514.784 9.94526C514.784 9.55186 516.292 8.91259 516.292 8.4946C516.292 10.6829 516.166 12.6007 516.719 14.666C517.75 18.5262 518.202 22.6323 518.177 27.2793C518.152 32.0247 517.423 37.3356 518.101 42.0072C518.503 44.7609 519.76 47.0476 520.087 49.8505C520.439 52.8748 521.192 59.3167 519.81 62.095C518.328 65.0455 512.899 67.5042 510.286 69.6679C502.998 75.7902 499.228 77.8309 503.651 86.6578C506.792 92.903 509.029 99.4924 513 105.246C513.955 106.647 515.538 106.549 516.191 108.123C516.795 109.549 516.342 111.491 516.292 112.991C516.217 116.654 515.739 120.392 517.146 123.76C519.509 129.415 522.298 131.505 521.946 138.07C521.645 143.7 516.518 146.503 518.478 152.429C519.006 152.527 514.256 158.502 514.759 158.6L514.784 158.65Z" fill="white"/>
<path d="M477.386 243.522C476.611 242.28 476.326 240.797 476.583 239.359C476.212 237.774 476.487 236.108 477.349 234.725C480.011 230.272 487.997 228.679 490.513 234.073C494.014 241.133 482.819 250.147 477.386 243.522Z" fill="#D23F3F"/>
<path d="M489.24 263.074C487.863 262.958 486.567 262.383 485.561 261.443C484.554 260.504 483.898 259.254 483.697 257.897C483.879 255.978 483.515 254.276 483.697 252.466C484.317 248.846 488.219 247.362 491.464 246.891C492.37 246.831 493.278 246.978 494.117 247.32C494.957 247.662 495.707 248.191 496.309 248.866C496.911 249.54 497.349 250.343 497.59 251.212C497.831 252.081 497.869 252.993 497.7 253.878C497.889 255.06 497.807 256.269 497.461 257.415C497.115 258.561 496.513 259.615 495.7 260.498C494.887 261.382 493.884 262.072 492.766 262.518C491.647 262.964 490.442 263.154 489.24 263.074Z" fill="#D23F3F"/>
<path d="M501.419 249.097C495.767 247.323 494.819 241.857 497.773 237.295C499.143 235.599 500.971 234.323 503.043 233.618C505.116 232.913 507.347 232.807 509.478 233.313C521.438 238.092 511.556 252.175 501.419 249.097Z" fill="#D23F3F"/>
<path d="M391.065 260.653C390.473 260.218 389.99 259.654 389.653 259.005C389.316 258.355 389.133 257.637 389.119 256.906C389.104 256.721 389.104 256.535 389.119 256.35C386.554 251.345 392.48 246.34 397.286 248.506C405.423 252.311 398.966 265.775 391.065 260.653Z" fill="#D23F3F"/>
<path d="M441.998 247.353C442.495 247.748 442.882 248.264 443.123 248.851C443.364 249.439 443.45 250.078 443.374 250.708C443.298 251.338 443.061 251.938 442.687 252.451C442.313 252.964 441.814 253.373 441.237 253.638C439.933 254.092 438.536 254.209 437.175 253.978C437.978 255.263 438.377 256.76 438.319 258.275C438.408 259.186 438.146 260.096 437.584 260.82C437.023 261.543 436.206 262.023 435.302 262.162C434.397 262.301 433.473 262.088 432.721 261.567C431.968 261.046 431.444 260.257 431.256 259.361C430.716 257.268 430.767 255.067 431.402 253.002L430.719 252.919C428.288 252.559 426.011 251.514 424.152 249.906C423.869 249.697 423.633 249.429 423.461 249.121C423.289 248.813 423.185 248.472 423.155 248.121C423.125 247.77 423.171 247.416 423.289 247.084C423.407 246.752 423.595 246.448 423.839 246.194C424.44 245.671 425.216 245.394 426.013 245.418C427.395 245.287 428.788 245.293 430.169 245.436C430.122 243.822 430.318 242.21 430.748 240.654C430.961 240.026 431.34 239.468 431.846 239.04C432.352 238.611 432.965 238.329 433.619 238.223C434.273 238.117 434.944 238.191 435.56 238.437C436.175 238.684 436.711 239.094 437.111 239.622C438.511 241.802 437.453 244.238 436.284 246.453C437.23 246.081 438.259 245.968 439.263 246.127C440.268 246.285 441.212 246.708 441.998 247.353Z" fill="#272D1F"/>
<path d="M496.393 160.292C495.802 159.857 495.318 159.293 494.981 158.643C494.644 157.994 494.461 157.276 494.448 156.545C494.432 156.36 494.432 156.174 494.448 155.989C491.883 150.984 497.808 145.979 502.614 148.145C510.751 151.95 504.294 165.414 496.393 160.292Z" fill="#D23F3F"/>
<path d="M503.55 193.637C504.159 193.818 504.71 194.152 505.153 194.607C505.596 195.062 505.914 195.623 506.079 196.237C506.243 196.85 506.247 197.495 506.092 198.11C505.936 198.725 505.625 199.291 505.189 199.752C504.149 200.659 502.896 201.289 501.547 201.582C502.772 202.476 503.7 203.716 504.211 205.143C504.634 205.955 504.73 206.898 504.479 207.778C504.228 208.658 503.649 209.409 502.862 209.875C502.074 210.342 501.138 210.489 500.245 210.286C499.353 210.083 498.572 209.546 498.063 208.785C496.782 207.045 496.008 204.984 495.827 202.83L495.162 203.008C492.772 203.581 490.269 203.461 487.945 202.662C487.604 202.574 487.286 202.414 487.011 202.192C486.737 201.971 486.513 201.693 486.354 201.378C486.196 201.064 486.106 200.718 486.092 200.366C486.077 200.014 486.138 199.663 486.27 199.336C486.633 198.626 487.249 198.079 487.997 197.804C489.231 197.167 490.525 196.654 491.861 196.271C491.215 194.791 490.795 193.222 490.614 191.618C490.577 190.956 490.721 190.297 491.03 189.711C491.34 189.124 491.803 188.634 492.371 188.291C492.938 187.949 493.588 187.767 494.251 187.766C494.914 187.766 495.564 187.946 496.133 188.287C498.244 189.787 498.172 192.442 497.914 194.934C498.653 194.235 499.565 193.747 500.556 193.519C501.547 193.291 502.58 193.332 503.55 193.637Z" fill="#272D1F"/>
</svg>
