<svg width="526" height="374" viewBox="0 0 526 374" fill="none" xmlns="http://www.w3.org/2000/svg">
<path fill-rule="evenodd" clip-rule="evenodd" d="M31.5324 84.2484L35.2989 85.6931L44.8383 89.4146C48.6047 90.8593 51.7654 92.1647 53.9136 93.0715C55.1608 93.5573 56.381 94.11 57.5688 94.7273C58.2059 95.2441 58.6938 95.9201 58.9822 96.6855C59.263 97.452 59.3284 98.2792 59.171 99.0774C58.9856 99.4292 58.2464 101.692 56.6868 105.77C55.1273 109.848 52.7287 115.776 49.7104 123.311C49.0148 125.147 48.3781 126.699 47.8357 127.987C47.2933 129.274 46.5405 131.305 45.8095 133.123C45.0785 134.94 44.5513 136.37 44.1202 137.447C43.689 138.523 43.2949 139.529 43.2376 139.724C42.2826 142.053 41.5161 143.851 40.9737 145.139C40.7004 145.962 40.2935 146.735 39.769 147.426C39.2803 147.817 38.6835 148.051 38.057 148.097C37.3404 148.104 36.6298 147.959 35.9716 147.673C35.4759 147.504 35.0094 147.258 34.5894 146.945C34.2009 146.654 33.8887 146.273 33.6794 145.836C33.0502 144.344 32.9051 142.696 33.2646 141.123C33.6768 138.742 34.3555 136.416 35.2881 134.188C35.4919 133.801 35.807 133.203 36.0931 132.23C36.3793 131.257 37.094 130.33 37.5301 128.986C38.2715 127.579 39.1709 125.355 40.2759 122.656C41.3809 119.957 42.8228 116.446 44.4919 112.246C46.1611 108.046 47.7175 104.146 49.3125 100.087L33.7168 93.9394L29.3541 104.542C28.0637 107.593 26.7887 110.787 25.4581 114.086C24.1274 117.386 22.8137 120.739 21.404 124.447C20.2789 127.27 19.3778 129.582 18.6669 131.276C18.1676 132.39 17.598 133.471 16.9617 134.513C16.2668 135.677 15.4168 136.741 14.4349 137.677C13.6886 138.436 12.7791 139.017 11.7738 139.376C11.3589 139.562 10.8917 139.676 10.4953 139.827L9.39667 139.248C8.48411 138.837 7.75719 138.101 7.35905 137.186C6.90777 136.143 6.77327 134.994 6.97227 133.88C7.03237 133.544 7.11616 133.213 7.22301 132.889C7.38543 132.525 7.57117 132.173 7.77907 131.833C8.1683 131.094 8.66877 130.144 9.06615 128.96C9.46354 127.776 10.3265 126.567 11.0865 125.125C11.6796 123.999 12.2542 122.908 12.9399 121.606C14.892 116.611 16.7901 111.633 18.6882 106.655C20.5863 101.676 22.0532 97.7741 23.1074 94.9133C24.1617 92.0525 24.8622 89.9493 25.1314 88.9224C25.4651 88.2891 25.512 87.6845 25.6635 87.2249C25.815 86.7653 26.0156 86.5564 26.0712 86.4509C26.2285 86.0264 26.4403 85.6243 26.7014 85.2545C26.8833 84.9369 27.1116 84.6482 27.379 84.3979C27.9088 83.976 28.571 83.7525 29.2512 83.7659C30.1451 83.7775 31.0338 83.9128 31.8918 84.168L31.5324 84.2484ZM74.6982 101.144C75.0207 101.11 75.3467 101.13 75.6633 101.202C76.0546 101.267 76.437 101.378 76.8023 101.533C77.7051 101.935 78.5307 102.491 79.2412 103.177C80.078 103.962 80.8131 104.847 81.4292 105.813C82.0448 106.768 82.5945 107.764 83.0744 108.792C83.46 109.634 83.7557 110.513 83.9568 111.415C84.3894 113.334 84.6174 115.292 84.637 117.257C84.6109 119.864 84.4199 122.465 84.065 125.046C83.6907 127.906 83.2252 130.852 82.5777 133.972C81.9302 137.092 81.0669 140.278 80.1108 143.64C79.7287 144.967 79.2539 146.47 78.6341 148.076C78.0143 149.683 77.3558 151.449 76.5878 153.336C76.0317 154.392 75.5498 155.307 75.3192 156.174L74.3368 158.039C73.8248 158.885 73.2602 159.699 72.6463 160.475C72.1859 161.028 71.6325 161.496 71.0107 161.861C70.7731 161.978 70.518 162.056 70.2551 162.092C69.9883 162.081 69.7241 162.033 69.4705 161.948C69.1776 161.808 68.9228 161.6 68.7281 161.341C68.5334 161.081 68.4045 160.779 68.3527 160.46C68.1724 159.615 68.1398 158.747 68.2565 157.893C68.3908 156.119 68.7352 154.37 69.2824 152.679C69.9288 150.593 70.8332 148.102 72.0679 145.157L73.6024 141.47L71.8304 140.537L71.157 140.182L69.4559 139.286L67.5422 138.278L66.1954 137.569L63.2184 136L61.5881 135.142L60.6667 134.656C60.2775 135.395 59.9172 136.509 59.3562 137.831C58.7953 139.154 58.0103 140.988 57.2237 142.911C56.4371 144.834 55.6537 146.579 55.0911 147.991C54.5286 149.402 54.0434 150.495 53.5566 151.677L52.8299 152.283C52.3707 152.647 51.8239 152.886 51.2428 152.976C50.6798 153.079 50.0977 153.022 49.564 152.81C49.2521 152.689 48.9548 152.532 48.678 152.344C48.3736 152.087 48.1025 151.793 47.8711 151.469L47.4725 150.765L47.2865 150.172C47.5747 148.696 48.0025 147.251 48.5642 145.856C49.3928 143.596 50.5953 140.453 52.2056 136.537C53.8159 132.62 55.4263 128.704 56.8447 125.496C58.2632 122.287 59.5856 119.433 60.7381 117.074C62.8195 112.761 65.3846 108.699 68.3844 104.965C69.1627 103.827 70.1656 102.861 71.3323 102.123C72.499 101.386 73.8053 100.893 75.1721 100.674L74.6982 101.144ZM102.102 116.074C102.8 115.868 103.526 115.765 104.255 115.769C105.266 115.796 106.274 115.892 107.273 116.056C108.432 116.262 109.608 116.522 110.712 116.833C111.815 117.145 112.988 117.583 114.107 118.038L116.978 119.55C121.044 121.947 124.104 125.732 125.585 130.197C126.347 132.344 126.688 134.614 126.59 136.884C126.447 139.181 125.891 141.43 124.948 143.526C124.557 144.53 124.053 145.486 123.446 146.376C122.865 147.163 122.164 147.856 121.369 148.428C120.226 149.234 118.973 149.876 117.649 150.334C115.924 150.938 114.157 151.42 112.362 151.774C111.376 151.929 110.478 152.085 109.618 152.172C108.844 152.233 108.067 152.245 107.291 152.205C106.495 152.144 105.703 152.042 104.918 151.898L101.997 151.169C100.252 150.699 98.8279 150.308 97.7937 150.123C97.2504 149.988 96.6926 149.92 96.1334 149.923C95.9461 150.198 95.7906 150.493 95.67 150.803C95.3364 151.436 94.8545 152.351 94.2428 153.512C93.6312 154.673 92.9324 156.687 92.5366 157.782C92.1409 158.877 91.9435 158.908 91.7686 159.67L90.8135 161.999C90.2204 163.479 89.475 164.894 88.5893 166.221C88.0622 167.087 87.2648 167.756 86.3181 168.126C85.7552 168.306 85.1691 168.406 84.5772 168.423C84.1084 168.453 83.6383 168.375 83.2038 168.194C82.8084 168.019 82.4632 167.747 82.2005 167.404C81.9378 167.062 81.7659 166.659 81.701 166.233C81.536 165.071 81.5759 163.89 81.8186 162.744C82.3256 160.909 82.9684 159.114 83.7418 157.375C84.9056 154.392 86.6101 150.21 88.8369 144.866C91.0638 139.521 92.8224 135.323 94.0216 132.359C95.2209 129.395 95.898 127.594 96.0883 126.975C96.4033 126.377 96.5243 125.631 96.787 124.961L97.6494 122.808C98.1684 121.823 98.6132 120.978 98.9839 120.275C99.1976 119.73 99.4711 119.211 99.7995 118.726C100.16 118.152 100.591 117.624 101.081 117.154C101.485 116.763 101.958 116.449 102.475 116.225L102.102 116.074ZM146.538 132.02C146.873 131.993 147.211 132.019 147.538 132.097C147.889 132.232 148.222 132.407 148.531 132.62C149.44 133.016 150.262 133.587 150.951 134.3C151.758 135.128 152.456 136.055 153.03 137.058C153.628 138.016 154.142 139.024 154.567 140.07C154.95 140.913 155.228 141.799 155.395 142.709C155.771 144.644 155.933 146.614 155.878 148.582C155.793 151.132 155.544 153.673 155.13 156.189C154.685 159.011 154.076 161.972 153.323 165.036C152.569 168.1 151.651 171.302 150.57 174.643C150.117 175.933 149.607 177.417 148.952 179.005C148.297 180.593 147.513 182.338 146.674 184.188C146.143 185.197 145.661 186.112 145.229 186.933C144.943 187.575 144.615 188.198 144.246 188.797C143.737 189.635 143.153 190.426 142.503 191.161C142.019 191.707 141.442 192.164 140.797 192.509C140.547 192.597 140.288 192.657 140.025 192.687C139.758 192.676 139.493 192.628 139.24 192.543C138.947 192.389 138.696 192.167 138.507 191.895C138.319 191.624 138.2 191.311 138.159 190.985C138.033 190.134 138.031 189.269 138.153 188.419C138.345 186.656 138.755 184.924 139.374 183.264C140.056 181.196 141.067 178.762 142.372 175.854C142.947 174.763 143.54 173.637 144.048 172.242L131.077 165.409C130.132 167.203 128.99 169.973 127.349 173.603C126.385 175.433 125.496 177.122 125.039 178.59C124.583 180.057 123.779 180.982 123.399 182.22L122.636 182.808C122.163 183.167 121.605 183.399 121.014 183.481C120.456 183.553 119.888 183.472 119.372 183.246C119.041 183.135 118.73 182.971 118.451 182.76C118.158 182.509 117.899 182.221 117.679 181.905L117.281 181.2C117.207 181.005 117.162 180.799 117.149 180.591C117.47 179.117 117.953 177.683 118.587 176.314C119.469 174.037 120.795 171.005 122.53 167.109C124.265 163.214 126.017 159.372 127.488 156.236C128.959 153.1 130.602 150.325 131.807 148.038C134.016 143.788 136.706 139.807 139.824 136.17C141.42 133.941 143.84 132.436 146.556 131.985L146.538 132.02ZM190.048 152.558L191.42 152.876C191.802 153.038 192.169 153.232 192.519 153.455C194.038 154.146 195.347 155.228 196.309 156.589C197.272 157.949 197.854 159.539 197.995 161.194C198.209 164.077 197.938 166.973 197.194 169.762C196.07 174.308 194.68 178.784 193.031 183.166C192.66 183.87 192.15 185.354 191.163 187.486C190.175 189.618 188.817 192.454 187.144 195.887C185.013 199.934 183.854 202.649 183.03 203.699L182.659 204.402C183.553 204.819 184.376 205.374 185.098 206.047C185.683 206.632 186.112 207.353 186.348 208.143C186.499 208.576 186.581 209.029 186.591 209.485C186.627 209.946 186.583 210.409 186.459 210.854C186.318 211.447 186.146 212.031 185.944 212.605C185.61 213.239 185.361 214.141 184.95 215.094C184.783 215.41 184.616 215.727 184.413 216.114C184.209 216.501 184.005 216.888 183.801 217.275C183.645 217.758 183.407 218.211 183.097 218.612C182.793 218.933 182.394 219.148 181.958 219.226C181.579 219.324 181.183 219.345 180.794 219.287C180.422 219.266 180.058 219.166 179.726 218.994C179.351 218.884 179.001 218.7 178.698 218.453C178.467 218.14 178.263 217.807 178.09 217.458C177.802 216.798 177.758 216.058 177.968 215.371C178.177 214.34 178.508 213.337 178.953 212.384C179.36 211.61 179.675 211.011 179.685 210.477C179.695 209.943 179.87 210.125 179.889 210.09C179.678 209.948 179.452 209.83 179.216 209.735C178.613 209.418 177.798 208.989 176.664 208.391L170.472 205.534L163.069 202.399L155.433 199.275C155.266 199.592 155.081 199.944 154.914 200.26C154.336 201.207 153.648 202.081 152.863 202.866C152.224 203.48 151.475 203.969 150.654 204.309C150.396 204.407 150.122 204.461 149.846 204.468C149.574 204.488 149.3 204.451 149.043 204.359C148.405 204.023 148.077 203.356 147.99 202.232C147.974 200.915 148.118 199.602 148.42 198.322C148.517 197.872 148.645 197.429 148.802 196.995C148.948 196.639 149.128 196.298 149.339 195.975C149.468 195.553 149.676 195.159 149.951 194.814C150.2 194.489 150.524 194.228 150.895 194.053C151.295 193.886 151.711 193.759 152.136 193.673C152.679 193.557 153.231 193.487 153.786 193.463L154.825 193.381C156.104 190.953 157.188 188.468 158.249 186.195C160.751 181.445 162.78 177.164 164.884 173.598C166.613 170.475 168.544 167.469 170.667 164.598C172.662 161.837 174.998 159.337 177.62 157.158C179.722 155.382 182.145 154.02 184.76 153.143C186.363 152.62 188.067 152.472 189.742 152.711L190.048 152.558ZM221.004 167.021L221.571 167.32C221.776 167.384 221.968 167.485 222.138 167.619C222.681 167.866 223.149 168.252 223.495 168.738C223.91 169.263 224.243 169.848 224.483 170.472C224.692 171.093 224.825 171.736 224.877 172.388C224.969 173.245 225.074 174.335 225.139 175.672C225.204 177.01 225.311 178.01 225.45 179.207C225.589 180.404 225.784 181.496 226.031 182.66C226.596 185.025 227.112 187.14 227.597 188.969C228.083 190.798 228.556 192.306 228.946 193.455C229.91 191.626 230.8 189.937 231.838 187.966C232.876 185.996 233.858 184.131 234.525 182.864C234.955 181.977 235.474 181.136 236.074 180.354C236.751 179.552 237.534 178.845 238.403 178.254C238.705 178.021 239.07 177.881 239.452 177.849C239.834 177.817 240.218 177.895 240.558 178.074C240.898 178.253 241.179 178.525 241.369 178.858C241.559 179.192 241.649 179.572 241.628 179.953C241.651 181.047 241.504 182.137 241.193 183.185C241.039 183.712 240.844 184.225 240.61 184.721C240.244 185.516 239.835 186.291 239.387 187.043C238.738 188.275 238.108 189.471 237.533 190.562C236.959 191.653 236.384 192.743 235.865 193.729C235.587 194.256 235.309 194.784 235.068 195.242L234.734 195.875L235.293 195.675C235.404 195.463 236.143 195.178 237.03 194.612L240.868 192.139C242.607 190.987 244.109 190.025 245.429 189.238C246.75 188.45 247.801 187.745 248.613 187.319C249.399 186.87 250.213 186.473 251.05 186.13C251.742 185.83 252.467 185.608 253.21 185.47C253.844 185.33 254.495 185.28 255.144 185.32C255.684 185.356 256.214 185.483 256.712 185.697C256.994 185.819 257.247 186 257.456 186.226C257.664 186.452 257.823 186.718 257.922 187.008C258.059 187.59 257.964 188.201 257.659 188.712C256.42 190.6 254.685 192.111 252.641 193.081C249.216 195.015 245.645 196.68 241.958 198.062C240.697 198.566 239.632 199.039 238.749 199.428C237.865 199.816 237.249 200.211 236.797 200.468C235.955 200.966 235.239 201.65 234.703 202.466L234.425 202.994C234.141 203.57 233.966 204.194 233.909 204.834C233.794 205.778 233.747 206.73 233.767 207.681C233.767 207.681 233.789 208.412 233.773 209.303L233.755 213.204L233.75 217.426L233.829 219.94C233.929 221.297 234.065 222.672 234.22 224.012C234.374 225.352 234.582 226.675 234.828 227.928C235.073 229.181 235.021 229.108 235.097 229.823C235.174 230.537 235.176 231.393 235.158 232.372C235.197 233.235 235.151 234.099 235.021 234.952C234.913 235.635 234.702 236.296 234.395 236.915C234.252 237.225 234.049 237.503 233.795 237.733C233.542 237.962 233.245 238.139 232.921 238.251C232.211 238.387 231.474 238.255 230.853 237.88C230.342 237.607 229.892 237.232 229.531 236.78C229.173 236.29 228.894 235.748 228.702 235.174C228.453 234.368 228.282 233.541 228.192 232.703C228.085 231.703 227.946 230.506 227.883 229.079C227.775 227.135 227.72 225.263 227.682 223.445C227.644 221.626 227.712 219.864 227.761 218.137C227.866 215.361 227.905 213.224 227.932 211.71C227.942 211.176 227.932 210.766 227.903 210.391C227.514 211.13 226.958 212.185 226.253 213.522C225.549 214.859 224.429 217.416 223.199 220.094C222.884 220.692 222.532 221.361 222.142 222.1C221.753 222.839 221.29 223.718 220.863 224.528C220.353 225.636 219.784 226.717 219.158 227.765C218.732 228.459 218.215 229.094 217.621 229.652C217.225 229.995 216.764 230.256 216.265 230.421C215.791 230.561 215.281 230.517 214.836 230.297L214.198 229.961C213.987 229.772 213.794 229.565 213.619 229.342C213.262 228.864 213.01 228.318 212.879 227.738C212.754 227.162 212.759 226.565 212.893 225.993C213.177 224.888 213.562 223.812 214.043 222.778C214.748 221.441 215.479 219.623 216.537 217.529C217.222 216.227 218.001 214.749 218.891 213.06C219.78 211.371 220.651 209.717 221.652 207.817L221.912 207.325C221.993 207.128 222.092 206.94 222.208 206.762L222.653 205.917C221.79 206.204 220.952 206.559 220.147 206.979C218.359 207.881 215.884 209.228 212.629 211.11L205.539 215.286C203.729 216.401 202.444 217.207 201.701 217.759C200.319 218.766 198.798 219.57 197.184 220.145C196.11 220.56 194.916 220.557 193.839 220.136C193.559 220.041 193.296 219.902 193.059 219.725C192.678 219.318 192.458 218.786 192.443 218.231C192.448 217.636 192.6 217.053 192.885 216.532C194.86 214.071 197.35 212.07 200.185 210.668C204.347 208.096 210.327 204.908 218.125 201.105L223.308 198.486L222.627 196.599C221.672 194.028 220.936 191.214 220.125 188.629C219.314 186.043 218.812 183.127 218.328 180.265C217.909 177.937 217.636 175.586 217.508 173.226C217.365 171.801 217.563 170.365 218.086 169.035C218.17 168.796 218.289 168.571 218.438 168.367C218.55 168.156 218.838 168.038 219.074 167.848C219.31 167.657 219.545 167.556 219.779 167.455C219.998 167.355 220.238 167.312 220.479 167.329L221.004 167.021ZM273.792 193.84C274.132 193.826 274.472 193.883 274.791 194.006C275.152 194.148 275.497 194.33 275.819 194.548C276.68 195.027 277.456 195.648 278.111 196.385C278.857 197.252 279.494 198.207 280.009 199.227C280.538 200.225 280.992 201.26 281.366 202.324C281.691 203.192 281.915 204.095 282.032 205.013C282.301 206.97 282.337 208.95 282.139 210.912C281.899 213.455 281.507 215.98 280.963 218.474C280.357 221.256 279.588 224.177 278.638 227.183C277.689 230.189 276.576 233.333 275.264 236.598C274.633 237.794 274.159 239.297 273.397 240.829C272.636 242.36 271.692 244.066 270.747 245.86C270.209 246.881 269.727 247.796 269.319 248.57C268.964 249.18 268.577 249.771 268.16 250.341C267.596 251.159 266.953 251.919 266.24 252.611C265.738 253.141 265.142 253.574 264.481 253.887C264.235 254.002 263.962 254.044 263.691 254.01C263.437 253.963 263.202 253.839 263.018 253.656C262.739 253.488 262.504 253.256 262.335 252.979C262.165 252.702 262.066 252.388 262.045 252.065C261.962 251.202 262.008 250.332 262.182 249.485C262.509 247.754 263.019 246.064 263.706 244.444C264.548 242.415 265.683 240.002 267.129 237.257C267.722 236.131 268.315 235.005 268.89 233.915L267.118 232.981L266.409 232.608L264.743 231.73L262.83 230.722L261.447 229.994L258.617 228.233L256.03 226.871C255.635 227.621 255.097 228.642 254.417 229.932C253.695 231.304 252.823 232.958 251.86 234.787C250.896 236.617 250.006 238.306 249.283 239.678L247.43 243.197C247.149 243.364 246.882 243.554 246.632 243.765C246.13 244.074 245.564 244.267 244.976 244.331C244.414 244.355 243.854 244.231 243.354 243.972C243.025 243.856 242.714 243.693 242.433 243.486L241.734 242.579C241.598 242.349 241.482 242.108 241.389 241.858C241.315 241.662 241.271 241.457 241.257 241.249C241.641 239.8 242.195 238.402 242.908 237.084C244.038 234.938 245.595 231.982 247.579 228.217C249.562 224.452 251.527 220.723 253.139 217.661C254.752 214.6 256.447 211.897 257.848 209.669C260.321 205.566 263.254 201.758 266.589 198.316C268.358 196.203 270.896 194.875 273.652 194.62L273.792 193.84ZM290.436 243.377C290.047 244.116 289.565 245.031 288.972 246.156C288.379 247.282 287.553 248.421 286.688 249.718C285.824 251.016 285.032 252.262 284.422 253.334C283.812 254.406 283.365 255.339 282.957 256.113C282.11 257.405 281.185 258.644 280.188 259.824C279.701 260.542 279.083 261.161 278.365 261.65C277.85 261.962 277.261 262.132 276.657 262.144C276.061 262.122 275.477 261.968 274.947 261.693C274.456 261.407 274.025 261.027 273.68 260.576C273.405 260.097 273.221 259.574 273.136 259.03C273.113 258.073 273.276 257.121 273.616 256.227C274.105 254.919 274.684 253.648 275.35 252.42C275.906 251.365 276.61 250.028 277.692 248.575C278.774 247.122 279.9 245.243 281.222 243.422C281.728 242.46 282.761 240.757 284.321 238.312C285.655 235.779 287.435 232.401 289.855 228.237C294.34 219.722 296.824 215.007 297.269 214.163C297.602 213.529 297.899 212.967 297.909 212.432C297.918 211.898 298.298 211.693 298.409 211.482C298.757 210.675 299.404 210.034 300.216 209.692C301.029 209.35 301.944 209.333 302.772 209.645L303.056 209.795L303.446 210C304.239 210.399 304.867 211.064 305.218 211.878C305.605 212.799 305.747 213.803 305.63 214.792C305.442 215.801 305.123 216.782 304.682 217.708C304.027 218.952 303.193 220.535 302.18 222.459C302.18 222.459 301.995 222.81 301.791 223.197C301.587 223.585 301.42 223.901 301.179 224.359C300.938 224.816 300.716 225.238 300.512 225.625C300.308 226.012 300.197 226.223 300.011 226.575C299.381 227.772 298.714 229.038 298.028 230.34C297.676 231.009 297.379 231.572 297.12 232.064C296.86 232.557 296.638 232.979 296.416 233.401L295.841 234.492L296.302 234.735L297.79 235.519L301.427 237.21L302.738 237.901L304.191 238.666L305.502 239.357L306.424 239.842L307.204 240.253C308.501 237.79 309.78 235.362 311.077 232.899C311.8 231.527 312.542 230.119 313.265 228.747C313.987 227.375 315.118 225.229 315.958 224.322C316.455 223.493 317.113 222.77 317.893 222.195C318.413 221.874 319.007 221.692 319.62 221.667C320.243 221.69 320.852 221.857 321.4 222.155C321.723 222.285 322.032 222.448 322.322 222.64L323.112 223.461C323.338 223.752 323.519 224.074 323.649 224.418C323.745 224.762 323.787 225.117 323.773 225.473C323.755 225.787 323.755 226.102 323.773 226.417C322.884 228.106 321.672 229.805 320.75 231.297C320.398 231.965 320.046 232.634 319.675 233.338C319.304 234.041 318.952 234.71 318.507 235.554C318.062 236.399 317.747 236.997 317.451 237.56C317.154 238.123 316.876 238.651 316.635 239.108C316.228 239.882 315.264 241.712 313.744 244.597C312.224 247.482 310.129 251.458 307.359 256.202C306.414 257.996 305.505 259.72 304.505 261.62C303.263 263.978 302.243 265.913 301.428 267.461C300.612 269.009 300.149 269.889 299.926 270.311C299.648 270.735 299.309 271.117 298.922 271.445C298.615 271.729 298.243 271.934 297.837 272.043C297.297 272.167 296.737 272.178 296.191 272.074C295.607 271.954 295.044 271.748 294.52 271.464C294.179 271.238 293.86 270.98 293.568 270.693C293.317 270.37 293.107 270.018 292.943 269.644C292.786 269.279 292.685 268.892 292.642 268.497C292.598 268.111 292.648 267.721 292.788 267.36L293.66 265.706C297.247 259.326 300.816 252.98 304.439 246.618L302.667 245.684L298.619 244.001L294.571 242.318L292.48 241.217C292.515 241.307 292.527 241.404 292.516 241.5C292.505 241.596 292.47 241.688 292.416 241.768C292.138 242.295 291.712 243.105 291.137 244.195L290.436 243.377ZM335.626 232.795C337.494 232.184 339.478 232 341.432 232.258C343.504 232.57 345.497 233.284 347.298 234.359C347.949 234.708 348.57 235.11 349.154 235.562C349.731 236.002 350.284 236.473 350.81 236.973C352.197 238.416 353.268 240.128 353.956 242.002C354.635 244.015 354.978 246.124 354.969 248.244C354.971 250.653 354.638 253.05 353.98 255.364C353.257 258.039 352.256 260.63 350.994 263.096C350.79 263.483 350.605 263.835 350.419 264.187C349.067 266.488 347.568 268.702 345.933 270.813C344.186 273.034 342.313 275.154 340.324 277.163C340.002 277.465 339.698 277.785 339.412 278.121C339.301 278.332 339.245 278.438 339.245 278.438C338.45 279.385 337.546 280.236 336.551 280.974C335.361 281.894 334.115 282.738 332.819 283.503C330.37 285.015 327.638 286.022 324.786 286.463C322.445 286.804 320.053 286.351 317.993 285.177C316.564 284.371 315.321 283.272 314.348 281.954C313.148 280.202 312.308 278.231 311.878 276.158C311.417 273.769 311.359 271.323 311.706 268.92C312.044 266.192 312.669 263.508 313.57 260.912C314.579 258.051 315.839 255.285 317.336 252.647C319.418 248.782 321.838 245.109 324.568 241.669C326.505 239.139 328.841 236.939 331.485 235.154C331.752 235.008 332.006 234.842 332.246 234.656L332.376 234.409C332.653 234.081 333.017 233.837 333.426 233.704L335.678 232.868L335.626 232.795ZM370.129 249.892C371.272 249.61 372.473 249.652 373.597 250.011C375.092 250.411 376.518 251.041 377.821 251.876C378.75 252.416 379.647 253.009 380.508 253.651C381.306 254.283 382.07 254.955 382.797 255.666C383.439 256.305 384.031 256.992 384.566 257.722C384.99 258.318 385.334 258.968 385.587 259.653C386.345 261.76 386.556 264.02 386.2 266.224C385.744 268.687 384.84 271.044 383.532 273.179C383.347 273.531 383.18 273.848 383.032 274.129C382.883 274.41 382.754 274.657 382.661 274.833C382.149 275.58 381.58 276.287 380.958 276.947C380.48 277.457 379.93 277.894 379.325 278.244C378.735 278.544 378.112 278.774 377.469 278.93C376.67 279.081 375.861 279.181 375.048 279.228C374.596 279.204 374.145 279.272 373.721 279.428L374.562 280.41L375.316 281.212C376.028 281.885 376.625 282.67 377.081 283.535C377.594 284.423 377.992 285.373 378.263 286.361C379.026 289.177 379.234 292.11 378.875 294.998C378.75 296.376 378.461 297.732 378.014 299.04C377.613 300.311 377.062 301.53 376.373 302.67C375.647 303.93 374.657 305.018 373.47 305.861C372.319 306.682 371.003 307.246 369.611 307.514C367.762 307.848 365.869 307.869 364.01 307.575C361.558 307.239 359.142 306.674 356.795 305.887C354.438 305.19 352.118 304.373 349.844 303.439C347.978 302.702 346.17 301.825 344.436 300.815C343.378 300.23 342.404 299.506 341.541 298.66C341.229 298.389 340.976 298.057 340.798 297.685C340.62 297.313 340.521 296.909 340.507 296.498C340.518 296.248 340.571 296.003 340.663 295.771C340.763 295.495 340.9 295.235 341.071 294.997L341.294 294.575C341.465 294.306 341.614 294.024 341.738 293.73C341.942 293.343 342.109 293.026 342.276 292.71C342.443 292.393 342.591 292.112 342.776 291.76C342.999 291.338 343.555 290.282 344.691 288.813C345.827 287.344 347.121 285.059 348.871 282.339C350.62 279.62 352.26 277.023 353.735 274.653C355.209 272.283 356.483 270.123 357.702 268.068C359.37 264.901 360.934 262.533 361.97 260.652C363.007 258.771 363.694 257.38 364.12 256.57C364.269 256.289 364.435 255.972 364.639 255.585C364.843 255.198 365.103 254.706 365.325 254.283C365.943 253.084 366.748 251.991 367.71 251.045C368.407 250.336 369.262 249.801 370.208 249.484L370.129 249.892Z" fill="white"/>
<path d="M265.487 104.241C265.309 103.733 265.003 103.278 264.599 102.919C264.122 102.479 263.587 102.106 263.009 101.812L261.804 101.177L260.811 100.654C260.032 100.244 258.614 99.4969 256.429 98.6604C254.244 97.8239 251.552 96.316 248.112 94.5942L241.237 90.9724L232.483 86.3611L224.877 82.5792L221.759 80.9364C220.862 80.4036 219.803 80.2134 218.781 80.4014C218.317 80.5259 217.889 80.757 217.532 81.0764C217.175 81.3958 216.899 81.7944 216.725 82.2405C216.382 82.8866 216.261 83.6286 216.382 84.3523C216.519 85.0788 216.913 85.7336 217.494 86.1963C217.919 86.4203 224.015 89.6314 235.968 95.3886C239.133 103.304 243.178 98.288 243.056 99.1224L247.663 101.549L255.411 105.406L259.238 107.422C259.825 107.665 260.424 107.876 261.034 108.053C261.485 108.219 261.963 108.303 262.443 108.301C263.083 108.273 263.706 108.093 264.259 107.775C264.79 107.458 265.219 106.999 265.5 106.451C265.668 106.093 265.778 105.711 265.825 105.318C265.764 104.945 265.65 104.583 265.487 104.241Z" fill="white"/>
<path d="M377.471 166.421C377.126 165.841 376.735 165.29 376.302 164.772C375.8 164.162 375.255 163.589 374.67 163.058C373.961 162.452 373.205 161.904 372.41 161.418C371.347 160.858 370.022 159.935 368.322 158.95C366.623 157.965 365.203 157.307 364.305 156.519C363.712 156.174 363.145 155.785 362.609 155.356L361.816 154.713L361.071 154.321C360.405 153.96 359.655 153.782 358.898 153.806C358.14 153.883 357.421 154.175 356.825 154.647C356.356 155.082 355.944 155.575 355.6 156.114C355.174 156.923 354.58 158.049 353.498 159.502C352.416 160.954 352.238 161.894 351.599 162.591C350.96 163.289 350.932 163.858 350.643 163.976C349.389 165.367 348.243 166.852 347.216 168.419C345.765 170.486 343.98 173.187 341.897 176.539C341.527 177.243 341.1 178.052 340.581 179.038C340.062 180.023 339.329 180.985 338.574 182.16C338.463 182.372 338.166 182.935 337.684 183.849C337.202 184.764 336.48 186.136 335.288 187.711C334.096 189.286 333.427 190.642 332.765 191.641C332.102 192.641 331.82 193.436 331.403 193.711C331.125 194.239 330.866 194.731 330.662 195.118C330.458 195.505 330.309 195.787 330.217 195.963C329.639 196.991 329.209 198.096 328.94 199.246C328.728 200.117 328.819 201.036 329.197 201.853C329.651 202.567 330.265 203.167 330.989 203.606C331.946 204.11 333.146 205.012 334.723 205.888L338.444 207.848C340.818 209.099 342.697 210.088 344.008 210.779C344.868 211.249 345.772 211.635 346.706 211.931L347.94 211.996L348.53 211.992C348.881 211.944 349.215 211.811 349.503 211.606C349.773 211.374 350.007 211.104 350.198 210.803C350.383 210.451 350.55 210.135 350.68 209.888C350.772 209.644 350.831 209.387 350.855 209.127C350.862 208.802 350.801 208.478 350.675 208.178C350.525 207.855 350.304 207.569 350.029 207.343L348.434 206.503L345.315 204.86L336.407 199.853C336.963 198.797 338.02 196.792 339.95 193.988C341.88 191.184 344.224 187.249 347.374 182.301C347.541 181.984 347.689 181.703 347.837 181.421L354.925 185.155L360.667 188.18C361.517 188.699 362.438 189.093 363.4 189.35C364.065 189.401 364.732 189.308 365.355 189.076C365.892 188.875 366.338 188.487 366.61 187.984C366.889 187.53 367.052 187.014 367.085 186.481C367.101 185.955 366.988 185.433 366.755 184.959C366.098 184.248 365.321 183.656 364.461 183.211L358.584 179.756L351.626 175.776C351.811 175.424 352.015 175.037 352.219 174.65C352.423 174.263 352.516 174.087 352.868 173.418C353.22 172.75 353.933 171.912 354.724 170.755C355.806 169.302 356.78 167.883 357.699 166.569C358.617 165.255 359.645 163.819 360.306 162.908C360.454 162.627 360.603 162.345 360.751 162.064L367.551 165.915L372.406 168.473L374.78 169.724C375.18 169.922 375.618 170.03 376.063 170.039C376.442 170.081 376.822 169.975 377.124 169.744C377.192 169.662 377.242 169.566 377.272 169.463C377.372 169.353 377.442 169.22 377.476 169.076C377.696 168.695 377.756 168.242 377.642 167.815C377.658 167.345 377.601 166.874 377.471 166.421Z" fill="white"/>
<path d="M426.159 214.77C428.13 211.628 429.77 209.031 431.043 206.959C432.315 204.888 433.109 203.553 433.441 203.008C433.797 202.433 434.113 201.833 434.386 201.214C434.584 200.729 434.702 200.214 434.736 199.69C434.72 198.977 434.549 198.274 434.237 197.629C433.86 197.01 433.35 196.481 432.745 196.079C432.361 195.808 431.944 195.589 431.504 195.426C431.051 195.33 430.585 195.312 430.127 195.375C429.529 195.488 428.97 195.75 428.503 196.137C427.973 196.571 427.527 197.098 427.187 197.691C426.946 198.149 426.723 198.571 426.519 198.958C426.316 199.345 426.112 199.732 425.945 200.049C425.778 200.365 424.722 202.371 423.572 204.552C422.423 206.734 420.638 209.435 418.427 212.945C417.064 215.103 415.608 217.438 414.042 219.894C412.476 222.351 410.469 225.474 408.388 228.737C406.306 232.001 404.65 234.544 403.525 236.335C402.401 238.125 401.646 239.3 401.5 239.493C400.828 240.383 400.532 241.5 400.673 242.608C400.783 243.147 401.012 243.655 401.345 244.095C401.678 244.534 402.105 244.895 402.595 245.149C403.294 245.634 404.13 245.885 404.979 245.865C405.791 245.854 406.568 245.542 407.16 244.992C407.572 244.61 412.17 237.457 420.953 223.535C422.385 220.558 424.21 217.609 426.159 214.77Z" fill="white"/>
<path d="M235.666 95.9487C235.487 96.2437 235.326 96.5492 235.184 96.8636C234.943 97.321 234.721 97.7432 234.498 98.1654C234.291 98.5054 234.105 98.8579 233.942 99.221C233.516 100.03 232.986 101.639 231.943 103.876C230.9 106.114 229.522 109.074 227.719 112.754C226.483 115.099 225.275 117.565 224.095 120.149C222.649 122.894 221.177 126.119 219.45 129.569C217.723 133.019 216.225 135.691 215.42 137.649C214.614 139.608 213.77 140.781 213.677 140.957C213.123 141.923 212.944 143.059 213.171 144.152C213.339 144.674 213.621 145.153 213.997 145.553C214.374 145.954 214.835 146.266 215.348 146.467C216.096 146.887 216.958 147.057 217.808 146.953C218.598 146.802 219.322 146.415 219.885 145.845C220.145 145.353 224.093 137.858 231.27 123.03C232.883 119.969 234.318 116.814 235.824 113.697C237.33 110.58 238.975 107.716 239.876 105.403L241.814 101.21C242.08 100.593 242.295 99.9543 242.457 99.3012L238.417 97.173L235.666 95.9487Z" fill="white"/>
<path fill-rule="evenodd" clip-rule="evenodd" d="M147.245 89.5989C146.875 90.3026 146.393 91.2174 145.818 92.3081C145.243 93.3989 144.576 94.6655 143.853 96.0378C143.131 97.41 142.463 98.6767 141.907 99.7323C141.351 100.788 140.869 101.703 140.461 102.477C139.881 103.802 139.206 105.084 138.441 106.312C138.027 107.092 137.44 107.766 136.723 108.284C136.202 108.615 135.603 108.804 134.984 108.833C134.366 108.862 133.749 108.729 133.196 108.448C132.642 108.216 132.147 107.863 131.748 107.416C131.36 106.98 131.092 106.452 130.971 105.883C130.814 104.95 130.868 103.996 131.129 103.09C131.496 101.8 131.95 100.538 132.486 99.3096C133.095 97.9686 133.782 96.6645 134.544 95.404C135.359 93.8558 136.394 92.0635 137.648 90.027C138.13 89.1122 139.038 87.3881 140.373 84.8548C141.707 82.3214 143.147 78.8997 145.034 74.5446C148.843 65.853 150.881 61.0384 151.095 60.1171C151.428 59.4837 151.458 58.8253 151.574 58.347C151.721 58.0204 151.889 57.7031 152.075 57.397C152.384 56.5879 152.991 55.9276 153.772 55.5494C154.607 55.162 155.56 55.1023 156.441 55.3821L156.76 55.5501L156.867 55.6061C157.746 55.9804 158.486 56.6219 158.98 57.4385C159.456 58.3146 159.703 59.295 159.697 60.2886C159.645 61.3143 159.433 62.3249 159.07 63.2843C158.635 64.5388 157.997 66.1803 157.102 68.1364C157.102 68.1364 156.917 68.4882 156.713 68.8753C156.509 69.2623 156.343 69.579 156.102 70.0364C155.861 70.4938 155.638 70.916 155.453 71.2679C155.267 71.6197 155.138 71.8661 154.952 72.2179C154.341 73.379 153.692 74.6105 153.165 76.0409C152.831 76.6743 152.535 77.2372 152.275 77.7298C152.016 78.2224 151.812 78.6094 151.608 78.9965C151.404 79.3835 151.219 79.7354 151.033 80.0872L151.53 80.3486L153.217 81.0128L157.02 82.3871L158.514 82.9041L160.149 83.4957L161.624 84.0479L162.744 84.4134L163.382 84.7494L163.985 85.0668L167.16 77.7497C167.883 76.3774 168.41 74.947 169.062 73.5374C169.768 71.9929 170.56 70.4893 171.435 69.0336C171.854 68.176 172.453 67.4189 173.193 66.8134C173.716 66.4811 174.317 66.2871 174.938 66.2497C175.588 66.217 176.237 66.3427 176.828 66.6158C177.188 66.762 177.532 66.9434 177.856 67.1572C178.189 67.3786 178.491 67.6435 178.754 67.9449C179.037 68.2149 179.268 68.5346 179.434 68.8877C179.584 69.2052 179.68 69.5445 179.72 69.8923L179.81 70.8387C178.921 72.5276 178.049 74.1813 177.16 75.8702C176.826 76.5035 176.474 77.1721 176.103 77.8758C175.733 78.5795 175.399 79.2129 174.954 80.0573C174.509 80.9018 174.231 81.4296 174.112 82.0859C173.878 82.6104 173.671 83.1466 173.492 83.6922C173.084 84.4663 172.422 86.4101 171.152 89.337C169.882 92.2639 168.054 96.3353 165.836 101.235C164.89 103.029 164.159 104.847 163.302 106.732C162.079 109.055 161.361 111.104 160.6 112.636C159.838 114.167 159.339 115.028 159.098 115.486C158.939 115.938 158.714 116.365 158.431 116.752C158.115 117.042 157.739 117.258 157.328 117.385C156.776 117.54 156.198 117.587 155.626 117.522C154.979 117.419 154.35 117.224 153.758 116.943C153.359 116.821 152.986 116.625 152.66 116.364C152.338 116.066 152.061 115.723 151.837 115.346C151.63 114.983 151.486 114.588 151.411 114.178C151.314 113.81 151.315 113.423 151.414 113.056L152.267 111.437L161.356 91.8626C160.7 91.5786 160.03 91.3305 159.347 91.1195L154.938 89.6059C153.106 89.0451 151.612 88.5281 150.475 88.1088C149.666 87.853 148.871 87.5544 148.094 87.2141C148.094 87.2141 148.342 87.3448 148.101 87.8023C147.86 88.2597 147.415 89.1041 146.841 90.1949L147.245 89.5989Z" fill="white"/>
<path d="M335.829 161.162C336.06 160.626 336.333 160.108 336.644 159.614L337.664 157.679C338.109 156.834 338.498 156.095 338.813 155.497L339.869 153.492L342.839 148.628L342.784 147.7C342.781 147.348 342.721 146.997 342.607 146.663C342.454 146.304 342.249 145.969 341.999 145.668C341.739 145.356 341.451 145.069 341.138 144.81C340.836 144.586 340.501 144.409 340.145 144.287C339.579 143.965 338.944 143.785 338.294 143.762C337.662 143.763 337.04 143.912 336.479 144.199C335.701 144.756 335.049 145.469 334.562 146.291C333.601 147.694 332.726 149.155 331.942 150.664L329.792 154.746C328.513 157.173 327.253 159.566 325.974 161.994L325.158 161.564L324.131 161.023L322.749 160.295L321.225 159.492L319.807 158.745L316.152 157.09L314.061 155.988L314.635 154.897L315.321 153.596C315.581 153.103 315.877 152.54 316.211 151.907C316.897 150.605 317.545 149.373 318.176 148.177C318.359 147.869 318.526 147.552 318.676 147.227C318.861 146.875 319.084 146.453 319.325 145.995C319.566 145.538 319.77 145.151 319.936 144.834C320.085 144.598 320.215 144.351 320.326 144.095C321.22 142.59 322.037 141.04 322.772 139.451C323.193 138.523 323.482 137.541 323.631 136.532C323.685 135.536 323.494 134.541 323.076 133.632C322.659 132.781 321.974 132.089 321.126 131.661L320.736 131.456L320.417 131.288C319.555 130.96 318.607 130.937 317.734 131.223C316.928 131.577 316.276 132.205 315.895 132.996C315.702 133.299 315.535 133.617 315.395 133.946C315.172 134.369 314.965 134.934 314.773 135.642C314.328 136.486 312.113 141.208 307.648 149.598C305.442 153.785 303.681 157.128 302.384 159.591C301.086 162.054 299.964 163.755 299.375 164.614C297.963 166.522 296.786 168.239 295.829 169.713C294.872 171.186 294.097 172.486 293.559 173.507C292.925 174.677 292.388 175.897 291.954 177.156C291.655 178.047 291.528 178.987 291.581 179.926C291.669 180.495 291.899 181.034 292.25 181.492C292.613 181.982 293.083 182.383 293.624 182.665C294.188 182.957 294.807 183.13 295.44 183.172C296.043 183.166 296.635 183.015 297.165 182.733C297.908 182.27 298.541 181.653 299.023 180.925C299.864 179.743 300.633 178.512 301.327 177.239C301.735 176.465 302.217 175.55 302.773 174.494C303.329 173.439 303.978 172.207 305.038 170.968C306.098 169.729 306.658 168.495 307.21 167.617C307.763 166.74 308.267 165.612 308.656 164.873C309.045 164.134 309.638 163.008 309.898 162.515C309.953 162.436 309.987 162.344 309.998 162.248C310.009 162.152 309.997 162.055 309.962 161.965L312.194 163.141L316.491 164.955L320.823 166.787L322.737 167.795C319.382 174.164 315.708 180.364 312.194 186.604C311.898 187.167 311.62 187.695 311.323 188.258C311.187 188.62 311.137 189.009 311.177 189.395C311.26 189.801 311.385 190.198 311.549 190.58C311.739 190.974 311.992 191.335 312.299 191.649C312.571 191.976 312.907 192.245 313.286 192.439C313.856 192.749 314.466 192.98 315.099 193.124C315.665 193.25 316.251 193.251 316.816 193.129C317.243 193.042 317.64 192.85 317.971 192.569C318.338 192.261 318.653 191.895 318.904 191.487C319.145 191.03 319.626 190.115 320.405 188.637C321.183 187.159 322.258 185.119 323.426 182.902L326.243 177.554C328.764 172.768 330.785 168.933 332.323 166.013C333.861 163.092 335.475 161.92 335.829 161.162Z" fill="white"/>
<path d="M281.448 171.49C281.578 170.649 281.648 169.799 281.656 168.947C281.655 168.003 281.67 167.202 281.612 166.452C281.59 165.848 281.529 165.245 281.43 164.648C281.239 163.379 281.048 162.109 280.929 160.788C280.81 159.467 280.726 158.164 280.661 156.826C280.635 156.273 280.65 155.472 280.653 154.35L280.763 150.273C280.789 148.848 280.812 147.601 280.869 146.462L280.898 144.86C280.881 143.93 280.946 143.002 281.092 142.085C281.169 141.449 281.344 140.828 281.609 140.245L281.868 139.752C282.13 139.373 282.424 139.016 282.746 138.686C283.118 138.352 283.518 138.052 283.944 137.789C284.554 137.408 285.187 137.066 285.841 136.766C286.689 136.358 287.735 135.92 288.961 135.398C292.507 134.01 295.946 132.366 299.249 130.479C301.233 129.5 302.92 128.017 304.14 126.178C304.454 125.676 304.561 125.073 304.44 124.493C304.357 124.217 304.215 123.962 304.025 123.745C303.834 123.528 303.599 123.355 303.335 123.237C302.864 123 302.348 122.866 301.822 122.844C301.203 122.832 300.584 122.883 299.976 122.996C299.256 123.149 298.555 123.383 297.888 123.694C297.185 123.997 296.391 124.388 295.559 124.849L292.448 126.716L288.029 129.603L284.298 132.132C283.411 132.698 282.832 133.023 282.579 133.159C281.876 133.544 281.092 133.763 280.288 133.799C279.484 133.836 278.682 133.688 277.942 133.369L276.555 130.93C276.183 129.745 275.781 128.275 275.348 126.518C274.933 124.727 274.47 122.685 274.065 120.359C273.835 119.249 273.694 118.141 273.572 116.997C273.45 115.854 273.417 114.713 273.384 113.572C273.351 112.431 273.285 111.183 273.21 110.379C273.178 109.734 273.057 109.095 272.851 108.482C272.679 107.861 272.385 107.278 271.988 106.769C271.64 106.322 271.202 105.953 270.702 105.687L270.17 105.406L269.638 105.126C269.419 105.137 269.205 105.193 269.009 105.289L268.323 105.647C268.193 105.893 267.869 105.992 267.687 106.166C267.554 106.381 267.437 106.604 267.335 106.835C266.807 108.145 266.574 109.556 266.651 110.969C266.699 113.277 266.908 115.58 267.276 117.861C267.673 120.632 268.196 123.335 268.827 126.005C269.413 128.623 270.136 131.209 270.993 133.754L271.603 135.603L266.564 138.208C259.017 141.963 253.269 145.139 249.234 147.643C246.466 149.039 244.029 151.002 242.079 153.403C241.818 153.92 241.673 154.488 241.655 155.068C241.645 155.604 241.841 156.124 242.201 156.524C242.416 156.685 242.655 156.811 242.91 156.897C243.42 157.118 243.969 157.231 244.523 157.229C245.078 157.227 245.625 157.11 246.131 156.886C247.67 156.347 249.128 155.603 250.465 154.674C251.136 154.174 252.332 153.365 254.197 152.145L260.929 147.96C263.895 146.196 270.715 142.103 272.194 141.443C272.42 141.373 272.659 141.349 272.895 141.373C273.131 141.397 273.361 141.469 273.569 141.583C273.974 141.829 274.288 142.199 274.462 142.638C275.743 145.601 275.998 148.898 275.185 152.009L274.995 154.605C274.874 156.295 274.825 158.022 274.792 159.803C274.76 161.584 274.798 163.402 274.834 165.309C274.881 166.682 274.931 167.877 275.056 168.842C275.138 169.644 275.279 170.439 275.478 171.221C275.62 171.802 275.891 172.345 276.272 172.808C276.569 173.266 276.982 173.638 277.468 173.888C278.072 174.24 278.783 174.358 279.466 174.221C279.775 174.113 280.058 173.943 280.299 173.722C280.54 173.501 280.733 173.234 280.867 172.937C281.117 172.479 281.312 171.993 281.448 171.49Z" fill="white"/>
<path d="M205.542 118.513C206.639 115.225 207.574 112.077 208.309 109.048C209.044 106.019 209.635 103.094 210.026 100.288C210.434 97.7846 210.648 95.2524 210.665 92.7139C210.694 90.7417 210.503 88.7711 210.093 86.8387C209.873 85.9119 209.56 85.009 209.158 84.1438C208.703 83.0622 208.141 82.0281 207.48 81.0569C206.859 80.026 206.113 79.0746 205.259 78.2242C204.503 77.4861 203.632 76.8753 202.68 76.4161L201.617 75.856C201.275 75.7556 200.92 75.705 200.564 75.706C199.174 75.8226 197.824 76.2179 196.595 76.8679C195.366 77.518 194.282 78.4095 193.41 79.4889C190.19 82.9726 187.409 86.8362 185.131 90.9947C183.944 93.2465 182.517 95.9558 180.886 99.0522C179.255 102.148 177.596 105.814 175.751 109.832C173.906 113.85 172.639 116.598 171.74 118.822C171.11 120.178 170.634 121.6 170.321 123.063C170.333 123.281 170.39 123.495 170.488 123.691L170.887 124.395C171.144 124.714 171.426 125.012 171.729 125.288C172.01 125.52 172.336 125.692 172.686 125.792C173.236 126.054 173.843 126.173 174.451 126.138C175.048 126.066 175.621 125.86 176.126 125.537L176.923 124.968C177.479 123.912 178.091 122.751 178.777 121.449C179.462 120.148 180.334 118.494 181.12 116.571C181.907 114.648 182.974 113.052 183.428 111.674C183.883 110.295 184.633 109.387 185.022 108.648L187.751 110.085L190.941 111.765L198.879 115.947C198.305 117.038 197.73 118.129 197.137 119.255C195.968 121.647 194.932 124.103 194.033 126.609C193.452 128.255 193.055 129.96 192.848 131.694C192.72 132.558 192.746 133.44 192.926 134.297C192.981 134.624 193.112 134.934 193.309 135.201C193.506 135.469 193.764 135.687 194.061 135.838C194.278 136.02 194.532 136.154 194.805 136.231C195.081 136.221 195.354 136.167 195.613 136.072C196.274 135.758 196.87 135.326 197.372 134.796C198.029 134.08 198.629 133.314 199.167 132.505C199.533 131.92 199.855 131.308 200.131 130.675C200.538 129.901 201.02 128.987 201.558 127.966C202.485 126.207 203.234 124.354 203.834 122.872C204.48 121.451 205.05 119.995 205.542 118.513Z" fill="white"/>
<path d="M407.237 201.969C407.478 201.511 407.737 201.019 408.052 200.42C408.367 199.822 408.683 199.224 409.072 198.485C409.461 197.746 409.887 196.937 410.221 196.304C410.555 195.67 410.944 194.931 411.277 194.298C412.326 192.738 413.393 191.142 414.406 189.563L414.405 188.619C414.412 188.255 414.358 187.893 414.246 187.546C414.123 187.186 413.929 186.854 413.673 186.57C413.427 186.258 413.158 185.966 412.866 185.696C412.589 185.435 412.288 185.201 411.967 184.997C411.405 184.644 410.761 184.444 410.099 184.418C409.473 184.38 408.85 184.519 408.302 184.82C407.52 185.359 406.851 186.044 406.333 186.839C405.319 188.211 404.385 189.64 403.535 191.119L401.208 195.107C399.948 197.5 398.456 199.815 397.125 202.171L393.864 200.453L392.34 199.65L390.923 198.904L387.379 197.037L385.288 195.935C385.473 195.583 385.677 195.196 385.862 194.844C386.048 194.493 386.307 194 386.53 193.578C386.752 193.156 387.086 192.522 387.438 191.854C388.124 190.552 388.95 189.414 389.539 188.466C389.725 188.114 389.892 187.797 390.04 187.516C390.277 187.116 390.493 186.705 390.689 186.284C390.923 185.839 391.127 185.452 391.3 185.123C391.504 184.736 391.634 184.49 391.689 184.384C392.69 182.484 393.506 180.936 394.136 179.74C394.635 178.841 394.968 177.859 395.119 176.842C395.214 175.863 395.067 174.874 394.689 173.963C394.283 173.096 393.622 172.372 392.795 171.886L392.086 171.513C391.235 171.156 390.288 171.101 389.405 171.359C388.586 171.675 387.913 172.28 387.513 173.06C387.402 173.271 387.235 173.587 387.013 174.01C386.791 174.432 386.513 174.96 386.356 175.686C385.936 176.484 383.402 181.037 378.753 189.346C376.547 193.533 374.467 196.708 372.993 199.078C371.518 201.447 370.431 203.167 369.807 204.007C368.36 205.897 367.131 207.542 366.103 208.978C365.074 210.414 364.318 211.679 363.691 212.697C362.984 213.821 362.364 214.997 361.837 216.215C361.486 217.075 361.323 218 361.358 218.93C361.429 219.488 361.627 220.023 361.938 220.494C362.291 220.994 362.755 221.407 363.293 221.702C363.833 222.031 364.443 222.229 365.072 222.279C365.677 222.304 366.278 222.171 366.814 221.894C367.577 221.463 368.239 220.878 368.76 220.177C369.64 219.018 370.456 217.812 371.206 216.566C371.614 215.792 372.095 214.877 372.864 213.933C373.633 212.99 374.298 211.812 375.143 210.639C375.987 209.465 376.833 208.203 377.514 207.168C378.122 206.326 378.676 205.447 379.173 204.536C379.729 203.48 380.137 202.706 380.415 202.178C380.469 202.099 380.503 202.007 380.514 201.911C380.526 201.815 380.513 201.718 380.478 201.627L382.746 202.822L387.023 204.76L391.28 206.733L393.159 207.723C389.414 213.886 385.723 220.033 381.979 226.196C381.701 226.724 381.423 227.252 381.126 227.815C380.984 228.163 380.94 228.544 380.999 228.916C381.02 229.334 381.129 229.743 381.317 230.117C381.489 230.521 381.717 230.898 381.994 231.238C382.268 231.563 382.604 231.832 382.981 232.028C383.495 232.418 384.07 232.721 384.682 232.924C385.244 233.061 385.826 233.093 386.398 233.019C386.826 232.935 387.224 232.742 387.553 232.459C387.95 232.175 388.29 231.821 388.557 231.414C388.779 230.992 389.279 230.042 390.252 228.711C391.225 227.381 392.318 225.305 393.628 223.163C394.937 221.021 395.658 219.737 396.693 217.945C399.462 213.291 401.659 209.549 403.304 206.684C404.949 203.82 406.865 202.761 407.237 201.969Z" fill="white"/>
<path d="M401.156 288.035C403.146 284.858 404.734 282.188 406.043 280.046C407.353 277.904 408.074 276.621 408.407 275.987C408.781 275.422 409.098 274.821 409.353 274.193C409.556 273.709 409.674 273.194 409.703 272.669C409.729 271.98 409.575 271.295 409.256 270.681C408.957 270.074 408.479 269.571 407.887 269.24C407.549 268.949 407.149 268.738 406.717 268.624C406.29 268.541 405.849 268.554 405.428 268.665C404.842 268.807 404.301 269.094 403.857 269.5C403.37 269.973 402.94 270.5 402.575 271.072C402.316 271.565 402.094 271.987 401.871 272.409C401.667 272.751 401.481 273.103 401.315 273.465C400.87 274.309 400.055 275.858 398.887 278.074C397.719 280.291 395.951 283.046 393.793 286.628C392.569 288.95 390.988 291.264 389.404 293.756C387.82 296.247 385.882 299.497 383.799 302.849C381.716 306.202 380.076 308.799 378.933 310.625C377.791 312.45 377.071 313.644 376.867 314.031C376.234 314.948 375.925 316.049 375.987 317.163C376.08 317.671 376.288 318.151 376.593 318.568C376.898 318.986 377.293 319.33 377.75 319.575C378.425 320.034 379.233 320.254 380.046 320.201C380.836 320.085 381.571 319.737 382.158 319.2C382.534 318.829 387.094 311.492 395.836 297.189C397.504 294.022 399.488 291.201 401.156 288.035Z" fill="white"/>
<path d="M424.505 302.491C426.531 299.333 428.153 296.682 429.463 294.54C430.772 292.398 431.564 291.152 431.88 290.554C432.239 289.965 432.561 289.354 432.843 288.724C433.041 288.238 433.16 287.724 433.193 287.2C433.224 286.511 433.089 285.824 432.801 285.195C432.492 284.576 432.011 284.057 431.415 283.701C431.078 283.433 430.693 283.23 430.28 283.104C429.849 283.019 429.407 283.014 428.975 283.09C428.392 283.228 427.849 283.495 427.386 283.871C426.878 284.345 426.43 284.879 426.051 285.461C425.81 285.918 425.588 286.34 425.365 286.762C425.154 287.115 424.962 287.48 424.791 287.853C424.346 288.698 423.549 290.211 422.381 292.427C421.213 294.644 419.356 297.396 417.18 300.925C415.78 303.154 414.305 305.524 412.721 308.015C411.137 310.507 409.111 313.665 406.992 316.999C404.874 320.333 403.199 322.912 402.056 324.737C400.913 326.563 400.14 327.773 400.012 327.93C399.353 328.849 399.035 329.968 399.113 331.098C399.198 331.603 399.396 332.083 399.692 332.504C399.987 332.924 400.373 333.273 400.822 333.526C401.507 333.961 402.308 334.179 403.118 334.152C403.916 334.084 404.666 333.751 405.247 333.205C405.648 332.787 410.296 325.512 419.19 311.378C420.782 308.441 422.626 305.457 424.505 302.491Z" fill="white"/>
<path d="M438.47 311.737C440.46 308.56 442.118 305.927 443.463 303.804C444.808 301.681 445.565 300.416 445.915 299.837C446.275 299.248 446.597 298.637 446.879 298.007C447.086 297.529 447.216 297.021 447.265 296.502C447.306 295.793 447.165 295.085 446.855 294.443C446.549 293.837 446.082 293.327 445.504 292.968C445.168 292.697 444.783 292.494 444.37 292.37C443.939 292.286 443.496 292.281 443.065 292.357C442.5 292.522 441.973 292.794 441.511 293.157C440.981 293.609 440.53 294.146 440.176 294.746C439.914 295.161 439.685 295.597 439.49 296.048C439.268 296.47 439.083 296.822 438.916 297.138C438.471 297.983 437.674 299.496 436.506 301.712C435.338 303.929 433.446 306.663 431.216 310.208C430.011 312.495 428.324 314.753 426.704 317.226C425.085 319.699 423.059 322.857 420.94 326.191L415.933 333.892C414.645 335.82 413.981 336.909 413.853 337.066C413.203 337.984 412.875 339.09 412.919 340.215C413.003 340.728 413.204 341.215 413.506 341.639C413.809 342.064 414.204 342.414 414.663 342.662C415.33 343.126 416.131 343.358 416.941 343.323C417.731 343.226 418.472 342.896 419.07 342.376C419.471 341.958 424.178 334.714 433.19 320.642C434.516 317.61 436.395 314.644 438.47 311.737Z" fill="white"/>
<path d="M473.282 335.11C475.361 332.024 477.073 329.375 478.435 327.306C479.797 325.236 480.607 323.955 480.958 323.376C481.316 322.786 481.638 322.175 481.921 321.546C482.128 321.068 482.258 320.56 482.307 320.041C482.36 319.361 482.237 318.677 481.95 318.055C481.679 317.423 481.212 316.893 480.617 316.544C480.279 316.254 479.879 316.043 479.448 315.928C479.023 315.85 478.59 315.833 478.161 315.879C477.574 315.991 477.024 316.24 476.555 316.607C476.021 317.058 475.559 317.587 475.184 318.177C474.944 318.635 474.721 319.057 474.499 319.479C474.272 319.823 474.08 320.188 473.924 320.57C473.479 321.414 472.682 322.927 471.267 325.013C469.851 327.099 468.154 329.891 465.818 333.38C464.4 335.555 462.855 337.888 461.2 340.342C459.545 342.796 457.483 345.936 455.223 349.195C452.963 352.455 451.306 354.998 450.128 356.805C448.95 358.611 448.124 359.749 448.013 359.961C447.32 360.845 446.964 361.947 447.008 363.072C447.089 363.581 447.282 364.066 447.575 364.492C447.867 364.918 448.251 365.275 448.698 365.536C449.354 366.011 450.149 366.256 450.957 366.231C451.747 366.153 452.494 365.842 453.103 365.339C453.362 364.846 458.34 357.804 467.594 343.845L473.282 335.11Z" fill="white"/>
<path d="M443.898 297.561C445.059 307.162 446.098 316.819 447.018 326.533L443.898 297.561Z" fill="white"/>
<path d="M441.859 297.387C443.008 306.982 444.028 316.734 444.979 326.359C445.202 328.859 449.31 329.225 449.052 326.707C448.033 317.18 447 307.511 445.951 297.699C445.674 295.216 441.566 294.85 441.859 297.387Z" fill="white"/>
<path d="M446.922 326.977C457.372 325.073 467.717 322.646 477.916 319.706L446.922 326.977Z" fill="white"/>
<path d="M447.492 328.987C458.011 327.066 468.414 324.68 478.487 321.715C480.933 321.026 479.967 317.101 477.502 317.826C467.252 320.697 456.672 322.99 446.507 325.097C443.959 325.552 444.943 329.442 447.492 328.987Z" fill="white"/>
<path d="M380.028 315.922C390.824 310.642 398.833 301.196 409.716 296.006C415.67 293.299 422.159 291.638 427.01 287.586" fill="white"/>
<path d="M381.205 317.98C389.838 313.538 396.522 307.125 404.384 301.827C412.245 296.528 421.577 294.972 428.693 289.37C430.998 287.573 427.498 284.246 425.304 285.833C421.681 288.387 417.696 290.392 413.477 291.784C409.267 293.446 405.246 295.547 401.483 298.051C393.913 303.053 387.172 309.661 378.829 313.896C376.228 315.223 378.605 319.307 381.205 317.98Z" fill="white"/>
<path fill-rule="evenodd" clip-rule="evenodd" d="M89.2762 64.368C88.6014 67.0241 88.0997 66.0856 85.6295 68.1106C83.408 69.9243 81.8327 72.4027 81.1346 75.1822C80.8798 76.8892 81.0131 78.6336 81.5243 80.287C82.2312 82.6283 83.2882 84.8521 84.6597 86.8831C85.8855 88.3319 87.3519 89.5606 88.9944 90.515C91.1608 91.4651 93.3952 92.2514 95.6784 92.8672C97.36 93.441 99.1578 93.5809 100.903 93.2739C102.649 92.9669 104.285 92.2231 105.658 91.1121C106.366 90.5412 106.997 90.2891 107.705 89.7182C109.51 88.1872 110.947 86.2728 111.912 84.114C112.877 81.9553 113.345 79.6066 113.283 77.2389C112.964 74.4986 111.865 71.9017 110.117 69.7542C108.368 67.6067 106.043 65.9981 103.414 65.1181C101.501 64.4419 99.5022 64.0399 97.4784 63.9241C97.2342 63.4093 96.9501 62.914 96.6288 62.4427C96.2285 61.8273 96.3447 61.3491 95.2766 61.0561L95.1654 61.2673C95.5125 61.5466 95.7589 61.9307 95.8673 62.3611C95.9757 62.7915 95.9401 63.2446 95.7658 63.6513C95.2245 64.3214 94.4925 64.8128 93.6647 65.0616C92.6174 65.5887 92.3709 65.369 91.0466 65.3905C90.4915 65.4128 90.4141 65.7316 89.8301 65.379C89.2462 65.0265 89.3912 64.9231 89.2762 64.368Z" fill="#D23F3F"/>
<path fill-rule="evenodd" clip-rule="evenodd" d="M89.3841 64.1544L89.2729 64.3655C89.4436 64.815 89.4202 65.1173 89.8978 65.4139C90.3755 65.7104 90.5591 65.4476 91.1142 65.4253C92.4385 65.4038 92.685 65.6235 93.7323 65.0964C94.5601 64.8476 95.2921 64.3562 95.8334 63.6861C96.0012 63.2784 96.0334 62.8272 95.9254 62.3983C95.8174 61.9694 95.5747 61.5853 95.233 61.3021L95.3442 61.091C94.9423 60.5646 95.0061 60.0139 94.4069 59.5185C94.1279 59.2622 93.7821 59.0896 93.4097 59.0207C93.0373 58.9518 92.6534 58.9894 92.3029 59.1293C92.0248 59.6571 91.9321 59.833 92.3896 60.2538C92.8471 60.6746 92.9566 60.5525 93.1595 61.1987C92.8187 61.244 93.1595 61.1987 92.8406 61.0307L91.4938 60.3213C90.8204 59.9666 90.3701 60.1339 90.055 60.7321C89.4019 61.7437 89.1619 62.9676 89.3841 64.1544Z" fill="#4B0009"/>
<path fill-rule="evenodd" clip-rule="evenodd" d="M456.844 253.993C453.983 252.891 454.99 252.612 452.785 249.922C450.742 247.513 448.124 245.655 445.173 244.519C443.4 243.991 441.539 243.837 439.707 244.067C437.262 244.316 434.877 244.956 432.641 245.963C431.16 246.878 429.889 248.091 428.908 249.526C427.924 251.422 427.121 253.407 426.51 255.454C425.988 257.108 425.911 258.871 426.288 260.569C426.665 262.266 427.483 263.838 428.659 265.127C429.271 265.854 429.545 266.537 430.193 267.284C433.646 271.191 438.415 273.703 443.59 274.34C446.117 274.594 448.657 274.084 450.88 272.877C452.165 272.373 453.318 271.589 454.256 270.582C455.194 269.575 455.892 268.37 456.3 267.057C456.986 265.35 457.387 263.543 457.49 261.705C458.027 261.558 458.551 261.368 459.057 261.137C459.706 260.85 460.239 261.041 460.507 260.103L460.259 259.972C459.915 260.271 459.481 260.448 459.025 260.476C458.568 260.503 458.114 260.38 457.733 260.125C457.026 259.54 456.49 258.776 456.182 257.914C455.611 256.849 455.882 256.678 455.816 255.429C455.79 254.876 455.452 254.743 455.801 254.253C456.15 253.763 456.395 254.071 456.844 253.993Z" fill="#D23F3F"/>
<path fill-rule="evenodd" clip-rule="evenodd" d="M457.091 254.122L456.843 253.992C456.376 254.105 456.074 253.991 455.727 254.392C455.379 254.794 455.715 255.016 455.741 255.569C455.807 256.817 455.536 256.989 456.107 258.054C456.415 258.916 456.951 259.68 457.659 260.265C458.04 260.52 458.493 260.643 458.95 260.615C459.407 260.587 459.84 260.411 460.184 260.112L460.432 260.242C461.027 259.972 461.579 260.128 462.107 259.641C462.382 259.42 462.572 259.112 462.647 258.767C462.722 258.422 462.676 258.062 462.517 257.745C461.915 257.428 461.738 257.334 461.286 257.591C460.834 257.847 461.008 258.118 460.309 258.155C460.421 257.944 460.309 258.155 460.458 257.874C460.606 257.592 460.865 257.099 461.088 256.677C461.31 256.255 461.268 255.648 460.613 255.258C459.577 254.539 458.35 254.144 457.091 254.122Z" fill="#4B0009"/>
</svg>
