<svg width="406" height="566" viewBox="0 0 406 566" fill="none" xmlns="http://www.w3.org/2000/svg">
<path d="M256.734 565.196C270.549 526.661 270.378 479.1 261.866 439.374C259.023 426.106 253.549 412.477 243.43 402.977C230.244 390.599 208.759 387.185 192.018 382.261C158.674 372.454 128.062 370.988 93.2799 372.282C63.7878 373.38 18.1774 379.969 5.0907 344.153C-7.80297 308.865 11.366 267.436 31.1293 238.953C53.1606 207.202 92.9199 188.874 131.198 187.731C163.797 186.758 195.588 196.034 225.944 206.927C253.191 216.705 283.842 232.07 313.753 226.314C353.373 218.689 389.16 206.547 398.497 164.068C405.191 133.617 412.182 100.777 391.655 1.56445" stroke="white" stroke-width="1.28293" stroke-linecap="round" stroke-linejoin="round" stroke-dasharray="4.28 4.28"/>
</svg>
