<svg width="701" height="414" viewBox="0 0 701 414" fill="none" xmlns="http://www.w3.org/2000/svg">
<path d="M664.739 413.188C662.627 388.898 702.394 364.382 699.259 340.203C697.991 330.416 697.572 318.824 689.946 311.504C664.755 287.32 638.323 299.919 614.491 317.396C591.471 334.277 552.88 311.988 549.87 284.895C548.428 271.918 558.898 224.961 558.898 211.911C558.898 191.252 543.831 176.393 524.496 170.287C506.331 164.551 486.125 165.663 467.382 166.866C456.243 167.582 444.241 167.856 433.741 172.093C420.274 177.527 409.515 189.4 399.815 199.747C384.483 216.102 356.3 265.818 337.379 277.768C317.05 290.607 294.264 290.197 271.047 290.027C223.886 289.68 170.171 306.277 147.934 227.591C125.697 148.905 200.32 36.0079 125.055 6.92822C49.7902 -22.1514 1.03906 61.6663 1.03906 61.6663" stroke="white" stroke-width="1.28293" stroke-linecap="round" stroke-linejoin="round" stroke-dasharray="4.28 4.28"/>
</svg>
