<svg width="378" height="420" viewBox="0 0 378 420" fill="none" xmlns="http://www.w3.org/2000/svg">
<path d="M376.457 1.1377C355.952 1.1377 337.571 11.877 320.388 22.3772C291.475 40.0463 263.039 61.3742 244.363 90.0397C233.847 106.181 225.454 123.283 215.379 139.694C201.027 163.068 184.935 184.881 166.152 204.933C147.474 224.873 117.328 244.736 89.5568 247.935C79.8025 249.058 69.5211 248.471 59.7169 248.315C51.8198 248.189 43.7048 246.288 37.0519 241.805C27.3945 235.297 15.917 223.008 10.8232 212.82C3.39604 197.966 -0.784804 181.647 2.27048 165.352C6.76262 141.394 29.7382 123.072 54.0626 121.875C85.4952 120.329 118.178 136.687 132.511 165.352C136.629 173.587 137.27 182.225 137.643 191.296C138.15 203.65 138.116 216.215 137.263 228.548C136.295 242.533 132.95 255.845 130.61 269.602C127.509 287.839 127.097 306.355 127.759 324.815C128.875 355.889 138.441 388.966 165.82 406.59C202.694 430.325 249.458 414.897 288.363 403.976" stroke="white" stroke-width="1.28293" stroke-linecap="round" stroke-linejoin="round" stroke-dasharray="4.28 4.28"/>
</svg>
