<svg width="1020" height="209" viewBox="0 0 1020 209" fill="none" xmlns="http://www.w3.org/2000/svg">
<path d="M6.23412 1.18555C5.6623 12.6221 1.68005 23.6245 1.19745 35.2068C0.471085 52.6397 1.56712 68.2204 7.56456 84.8133C12.9739 99.7791 18.9265 117.89 32.8429 127.007C41.9529 132.976 50.5359 138.82 60.5921 143.163C98.6047 166.255 178.815 145.728 191.734 145.728C222.174 145.728 251.064 132.195 276.503 116.649C287.031 110.215 296.152 101.542 307.293 96.122C319.196 90.3312 334.115 89.7952 347.111 91.3704C374.991 94.7497 403.745 108.859 424.562 127.007C448.841 148.173 473.477 167.47 504.673 177.469C546.343 190.825 603.282 197.179 646.175 184.691C666.389 178.806 680.647 162.932 696.446 150.005C709.018 139.719 720.263 128.312 723.911 111.897C728.026 93.3773 724.702 66.9374 708.515 54.6883C692.385 42.4814 664.793 43.1699 651.877 59.4399C631.08 85.636 625.859 144.578 650.546 170.532C678.35 199.761 727.496 209.769 766.58 207.119C784.433 205.908 804.222 197.928 820.463 190.773C843.503 180.623 868.2 168.655 888.79 154.186C905.202 142.654 923.591 131.545 937.163 116.649C950.499 102.012 961.716 86.421 971.944 69.5132C980.916 54.6817 988.371 36.5291 999.123 22.9478C1003.94 16.8604 1011.22 10.4172 1018.89 8.8831" stroke="white" stroke-width="1.28293" stroke-linecap="round" stroke-linejoin="round" stroke-dasharray="4.28 4.28"/>
</svg>
