<svg width="949" height="1322" viewBox="0 0 949 1322" fill="none" xmlns="http://www.w3.org/2000/svg">
<path d="M600.119 1319.54C632.423 1229.43 632.025 1118.21 612.119 1025.32C605.47 994.29 592.67 962.42 569.008 940.207C538.173 911.26 487.934 903.277 448.785 891.762C370.814 868.83 299.23 865.403 217.897 868.429C148.932 870.995 42.2764 886.404 11.6743 802.651C-18.4763 720.134 26.3484 623.255 72.5632 556.651C124.081 482.405 217.055 439.545 306.563 436.873C382.794 434.598 457.135 456.29 528.119 481.762C591.833 504.626 663.508 540.556 733.452 527.096C826.099 509.265 909.785 480.874 931.619 381.54C947.27 310.333 963.619 233.54 915.619 1.54016" stroke="white" stroke-width="3" stroke-linecap="round" stroke-linejoin="round" stroke-dasharray="10 10"/>
</svg>
