<svg width="375" height="346" viewBox="0 0 375 346" fill="none" xmlns="http://www.w3.org/2000/svg">
<path d="M374.132 50.9645C362.688 57.831 356.955 63.6716 343.227 66.4172C323.318 70.3989 303.422 65.8768 283.992 61.2663C265.781 56.945 246.943 49.2424 231.816 37.8966C220.849 29.6715 215.028 18.9927 202.055 13.096C168.576 -2.12191 127.504 -5.53563 98.7513 21.967C76.6318 43.1248 94.5165 77.3086 114.109 92.1715C132.994 106.498 144.431 142.334 130.706 163.902C118.117 183.684 97.5555 196.695 77.0986 207.208C57.7915 217.129 29.6485 235.45 24.3023 257.429C18.3255 282 27.167 319.212 1.19531 345.184" stroke="white" stroke-width="1.28293" stroke-linecap="round" stroke-linejoin="round" stroke-dasharray="4.29 4.29"/>
</svg>
