<svg width="1634" height="1069" viewBox="0 0 1634 1069" fill="none" xmlns="http://www.w3.org/2000/svg">
<path d="M1348.34 1067.43C1384.71 971.945 1460.64 909.843 1523.45 831.873C1578.8 763.159 1634.92 691.076 1632.12 598.54C1628.72 486.489 1543.4 327.959 1438.12 276.54C1366.2 241.419 1233.1 252.345 1156.78 230.54C1111.37 217.564 1060.17 209.621 1022.12 179.873C983.422 149.621 976.456 109.801 984.117 63.4289C988.475 37.0527 998.288 9.35513 1027.67 4.31781C1098.53 -7.82837 1208.9 27.3808 1165.45 118.984C1123.83 206.739 983.867 229.929 902.784 257.651C802.359 291.987 710.06 394.955 603.117 398.54C496.539 402.113 429.339 340.207 283.228 315.873C137.117 291.54 2.11719 380.54 2.11719 380.54" stroke="white" stroke-width="3" stroke-linecap="round" stroke-linejoin="round" stroke-dasharray="10 10"/>
</svg>
