<svg width="1637" height="969" viewBox="0 0 1637 969" fill="none" xmlns="http://www.w3.org/2000/svg">
<path d="M1553.62 966.54C1548.68 909.742 1641.67 852.412 1634.34 795.872C1631.37 772.987 1630.39 745.88 1612.56 728.761C1553.65 672.21 1491.85 701.672 1436.12 742.539C1382.29 782.014 1292.05 729.895 1285.01 666.539C1281.63 636.194 1306.12 526.39 1306.12 495.873C1306.12 447.563 1270.89 412.818 1225.67 398.54C1183.2 385.126 1135.95 387.725 1092.12 390.54C1066.07 392.213 1038 392.855 1013.45 402.762C981.957 415.47 956.801 443.233 934.117 467.429C898.264 505.672 832.361 621.929 788.117 649.873C740.58 679.896 687.297 678.938 633.006 678.539C522.724 677.728 397.117 716.54 345.117 532.54C293.117 348.54 467.617 84.5402 291.617 16.5402C115.617 -51.4598 1.61719 144.54 1.61719 144.54" stroke="white" stroke-width="3" stroke-linecap="round" stroke-linejoin="round" stroke-dasharray="10 10"/>
</svg>
