<svg width="2384" height="486" viewBox="0 0 2384 486" fill="none" xmlns="http://www.w3.org/2000/svg">
<path d="M14.1184 1.54004C12.7812 28.2833 3.46914 54.0114 2.34063 81.0956C0.642087 121.861 3.20507 158.295 17.2295 197.096C29.8787 232.092 43.7984 274.441 76.3406 295.762C97.6435 309.719 117.714 323.386 141.23 333.54C230.118 387.54 417.683 339.54 447.893 339.54C519.074 339.54 586.631 307.892 646.116 271.54C670.735 256.496 692.065 236.214 718.117 223.54C745.951 209.999 780.838 208.745 811.228 212.429C876.421 220.331 943.66 253.324 992.339 295.762C1049.11 345.257 1106.72 390.381 1179.67 413.762C1277.11 444.994 1410.26 459.852 1510.56 430.651C1557.83 416.889 1591.17 379.768 1628.11 349.54C1657.51 325.488 1683.81 298.814 1692.34 260.429C1701.96 217.122 1694.19 155.295 1656.34 126.651C1618.62 98.1065 1554.1 99.7164 1523.89 137.762C1475.26 199.02 1463.05 336.85 1520.78 397.54C1585.8 465.891 1700.72 489.292 1792.11 483.096C1833.86 480.265 1880.14 461.605 1918.11 444.873C1971.99 421.137 2029.74 393.153 2077.89 359.318C2116.27 332.35 2159.27 306.372 2191.01 271.54C2222.19 237.312 2248.42 200.855 2272.34 161.318C2293.32 126.636 2310.75 84.1876 2335.9 52.4289C2347.17 38.1941 2364.18 23.1273 2382.12 19.54" stroke="white" stroke-width="3" stroke-linecap="round" stroke-linejoin="round" stroke-dasharray="10 10"/>
</svg>
