<svg width="876" height="808" viewBox="0 0 876 808" fill="none" xmlns="http://www.w3.org/2000/svg">
<path d="M873.809 117.535C847.048 133.592 833.64 147.25 801.54 153.67C754.985 162.981 708.46 152.406 663.024 141.625C620.44 131.52 576.389 113.508 541.014 86.9771C515.37 67.7435 501.757 42.7721 471.422 28.9834C393.133 -6.60234 297.092 -14.585 229.856 49.7273C178.132 99.2027 219.953 179.138 265.767 213.894C309.928 247.395 336.674 331.194 304.579 381.63C275.142 427.887 227.06 458.313 179.223 482.895C134.075 506.096 68.2656 548.937 55.764 600.333C41.7878 657.79 62.4628 744.808 1.73047 805.54" stroke="white" stroke-width="3" stroke-linecap="round" stroke-linejoin="round" stroke-dasharray="10.04 10.04"/>
</svg>
