<svg width="699" height="458" viewBox="0 0 699 458" fill="none" xmlns="http://www.w3.org/2000/svg">
<path d="M576.709 456.622C592.264 415.789 624.734 389.231 651.593 355.889C675.265 326.503 699.263 295.678 698.064 256.105C696.612 208.188 660.126 140.394 615.101 118.405C584.348 103.386 527.428 108.058 494.791 98.7333C475.369 93.184 453.474 89.7874 437.202 77.0661C420.655 64.1287 417.676 47.1003 420.952 27.2696C422.816 15.99 427.012 4.14536 439.578 1.99119C469.878 -3.20302 517.077 11.8539 498.498 51.0274C480.699 88.555 420.845 98.4719 386.17 110.327C343.225 125.01 303.754 169.044 258.021 170.577C212.443 172.105 183.706 145.631 121.223 135.225C58.7394 124.819 1.00781 162.88 1.00781 162.88" stroke="white" stroke-width="1.28293" stroke-linecap="round" stroke-linejoin="round" stroke-dasharray="4.28 4.28"/>
</svg>
