<svg width="882" height="981" viewBox="0 0 882 981" fill="none" xmlns="http://www.w3.org/2000/svg">
<path d="M879.617 1.54004C831.669 1.54004 788.684 26.6529 748.505 51.2067C680.895 92.5241 614.4 142.398 570.728 209.429C546.136 247.175 526.511 287.166 502.95 325.54C469.39 380.2 431.759 431.207 387.839 478.096C344.161 524.725 273.667 571.171 208.728 578.651C185.918 581.278 161.876 579.906 138.95 579.54C120.483 579.245 101.507 574.802 85.9499 564.318C63.3669 549.099 36.5277 520.363 24.6164 496.54C7.24872 461.805 -2.52779 423.644 4.6167 385.54C15.1212 329.516 68.8474 286.671 125.728 283.873C199.23 280.259 275.656 318.509 309.172 385.54C318.8 404.797 320.3 424.996 321.172 446.207C322.359 475.095 322.278 504.479 320.283 533.318C318.021 566.021 310.199 597.149 304.728 629.318C297.475 671.965 296.511 715.263 298.061 758.429C300.669 831.092 323.038 908.441 387.061 949.651C473.289 1005.15 582.642 969.077 673.617 943.54" stroke="white" stroke-width="3" stroke-linecap="round" stroke-linejoin="round" stroke-dasharray="10 10"/>
</svg>
