<svg width="581" height="141" viewBox="0 0 581 141" fill="none" xmlns="http://www.w3.org/2000/svg">
<path d="M575.794 63.4609C575.822 63.0998 576.003 62.8082 576.336 62.5859C576.669 62.3359 577.128 62.2109 577.711 62.2109C578.766 62.2109 579.447 62.4054 579.753 62.7943C580.086 63.1832 580.253 63.7248 580.253 64.4193V64.7943C580.086 67.322 579.919 69.5582 579.753 71.5026C579.614 73.4193 579.461 75.1971 579.294 76.8359C579.155 78.4471 579.017 79.9887 578.878 81.4609C578.767 82.9332 578.669 84.4748 578.586 86.0859C578.558 86.5304 578.53 87.1415 578.503 87.9193C578.503 88.697 578.489 89.5582 578.461 90.5026C578.433 91.4193 578.378 92.3637 578.294 93.3359C578.211 94.2804 578.086 95.1415 577.919 95.9193C577.753 96.697 577.53 97.3359 577.253 97.8359C577.003 98.3359 576.669 98.5859 576.253 98.5859C575.614 98.5859 575.016 98.3498 574.461 97.8776C573.905 97.4054 573.628 96.7248 573.628 95.8359C573.628 95.3915 573.641 94.9609 573.669 94.5443C573.697 94.1276 573.725 93.6971 573.753 93.2526C573.975 89.4471 574.169 86.2665 574.336 83.7109C574.503 81.1276 574.642 78.9609 574.753 77.2109C574.892 75.4332 575.003 73.9748 575.086 72.8359C575.197 71.6693 575.28 70.6137 575.336 69.6693C575.419 68.7248 575.489 67.7943 575.544 66.8776C575.628 65.9332 575.711 64.7943 575.794 63.4609ZM572.211 104.753C572.211 104.225 572.322 103.753 572.544 103.336C572.794 102.919 573.1 102.572 573.461 102.294C573.85 101.989 574.28 101.766 574.753 101.628C575.225 101.489 575.697 101.419 576.169 101.419C577.03 101.419 577.767 101.641 578.378 102.086C578.989 102.53 579.294 103.169 579.294 104.003C579.294 104.447 579.253 104.864 579.169 105.253C579.086 105.641 578.905 105.975 578.628 106.253C578.378 106.558 577.989 106.794 577.461 106.961C576.961 107.128 576.28 107.211 575.419 107.211C575.03 107.211 574.642 107.183 574.253 107.128C573.892 107.072 573.558 106.947 573.253 106.753C572.947 106.586 572.697 106.336 572.503 106.003C572.308 105.697 572.211 105.28 572.211 104.753Z" fill="white"/>
<path d="M538.177 86.3776C538.427 87.0165 538.552 87.7248 538.552 88.5026C538.552 89.3637 538.399 90.2804 538.094 91.2526C537.816 92.197 537.413 93.1276 536.885 94.0443C536.358 94.9609 535.719 95.8359 534.969 96.6693C534.247 97.5026 533.455 98.2109 532.594 98.7943C533.01 99.1276 533.385 99.3915 533.719 99.5859C534.052 99.7526 534.399 99.8776 534.76 99.9609C535.149 100.044 535.594 100.1 536.094 100.128C536.594 100.155 537.219 100.169 537.969 100.169C539.219 100.169 540.205 99.9193 540.927 99.4193C541.677 98.9193 542.302 98.3776 542.802 97.7943C543.302 97.1832 543.76 96.6276 544.177 96.1276C544.594 95.6276 545.122 95.3776 545.76 95.3776C545.955 95.3776 546.177 95.4193 546.427 95.5026C546.677 95.5582 546.913 95.6693 547.135 95.8359C547.358 96.0026 547.538 96.2248 547.677 96.5026C547.844 96.7804 547.927 97.1276 547.927 97.5443C547.927 97.9332 547.83 98.322 547.635 98.7109C547.191 99.5443 546.622 100.322 545.927 101.044C545.26 101.739 544.497 102.35 543.635 102.878C542.802 103.378 541.899 103.78 540.927 104.086C539.955 104.391 538.969 104.544 537.969 104.544C535.635 104.544 533.635 104.183 531.969 103.461C530.33 102.711 528.997 101.753 527.969 100.586C526.913 99.3915 526.149 98.0582 525.677 96.5859C525.205 95.1137 524.969 93.6415 524.969 92.1693C524.969 91.0859 525.177 90.0026 525.594 88.9193C525.983 87.8359 526.524 86.8498 527.219 85.9609C527.913 85.072 528.733 84.3498 529.677 83.7943C530.649 83.2387 531.691 82.9609 532.802 82.9609C533.302 82.9609 533.83 83.0443 534.385 83.2109C534.941 83.3776 535.469 83.6137 535.969 83.9193C536.469 84.2248 536.913 84.5859 537.302 85.0026C537.691 85.4193 537.983 85.8776 538.177 86.3776ZM533.052 87.3359C532.469 87.3359 531.941 87.5026 531.469 87.8359C531.024 88.1693 530.649 88.5859 530.344 89.0859C530.066 89.5859 529.844 90.1554 529.677 90.7943C529.538 91.4054 529.469 92.0026 529.469 92.5859C529.469 93.1137 529.524 93.5998 529.635 94.0443C529.747 94.4887 529.927 94.8498 530.177 95.1276C530.844 94.6832 531.427 94.1832 531.927 93.6276C532.427 93.072 532.844 92.5165 533.177 91.9609C533.51 91.4054 533.76 90.8637 533.927 90.3359C534.094 89.7804 534.177 89.2943 534.177 88.8776C534.177 88.4054 534.08 88.0304 533.885 87.7526C533.719 87.4748 533.441 87.3359 533.052 87.3359Z" fill="white"/>
<path d="M507.438 104.503C506.799 104.503 506.285 104.253 505.896 103.753C505.507 103.253 505.285 102.697 505.229 102.086C505.035 99.8637 504.854 97.9748 504.688 96.4193C504.521 94.8359 504.354 93.447 504.188 92.2526C504.021 91.0582 503.854 89.9748 503.688 89.0026C503.493 88.0304 503.285 87.0443 503.062 86.0443C503.035 85.9609 503.007 85.8359 502.979 85.6693C502.951 85.5026 502.938 85.3082 502.938 85.0859C502.938 84.5859 503.118 84.1137 503.479 83.6693C503.84 83.197 504.604 82.9609 505.771 82.9609C506.076 82.9609 506.34 83.0443 506.562 83.2109C506.785 83.3776 506.965 83.7387 507.104 84.2943C507.299 85.1276 507.465 85.9054 507.604 86.6276C507.743 87.322 507.868 88.0026 507.979 88.6693C508.118 89.3359 508.243 90.0165 508.354 90.7109C508.465 91.4054 508.576 92.1693 508.688 93.0026L516.562 91.1693C516.451 89.8637 516.368 88.8082 516.312 88.0026C516.257 87.197 516.201 86.572 516.146 86.1276C516.118 85.6554 516.09 85.322 516.062 85.1276C516.062 84.9332 516.062 84.7804 516.062 84.6693C516.062 84.1415 516.146 83.7387 516.312 83.4609C516.479 83.1554 516.688 82.9332 516.938 82.7943C517.188 82.6554 517.438 82.572 517.688 82.5443C517.965 82.4887 518.201 82.4609 518.396 82.4609C518.59 82.4609 518.799 82.5026 519.021 82.5859C519.271 82.6693 519.493 82.8082 519.688 83.0026C519.91 83.197 520.09 83.4332 520.229 83.7109C520.368 83.9887 520.438 84.3082 520.438 84.6693C520.438 84.8359 520.465 85.322 520.521 86.1276C520.576 86.9332 520.66 87.9054 520.771 89.0443C520.91 90.1554 521.076 91.3498 521.271 92.6276C521.465 93.8776 521.701 95.0443 521.979 96.1276C522.257 97.1832 522.562 98.0582 522.896 98.7526C523.257 99.447 523.66 99.7943 524.104 99.7943C524.215 99.7943 524.382 99.7248 524.604 99.5859C524.854 99.4193 525.104 99.197 525.354 98.9193C525.632 98.6137 525.896 98.2665 526.146 97.8776C526.424 97.4887 526.646 97.0443 526.812 96.5443C526.868 96.3498 527.076 96.1137 527.438 95.8359C527.799 95.5304 528.257 95.3776 528.812 95.3776C529.396 95.3776 529.896 95.5859 530.312 96.0026C530.757 96.4193 530.979 96.947 530.979 97.5859C530.979 97.8082 530.951 97.9887 530.896 98.1276C530.868 98.2665 530.826 98.4054 530.771 98.5443C530.465 99.2665 530.076 99.9748 529.604 100.669C529.132 101.336 528.604 101.933 528.021 102.461C527.437 102.961 526.812 103.378 526.146 103.711C525.479 104.016 524.799 104.169 524.104 104.169C523.187 104.169 522.326 103.905 521.521 103.378C520.743 102.85 520.035 102.169 519.396 101.336C518.785 100.503 518.271 99.572 517.854 98.5443C517.465 97.5165 517.187 96.4887 517.021 95.4609L509.354 97.2943C509.493 98.0443 509.59 98.8359 509.646 99.6693C509.701 100.475 509.729 101.253 509.729 102.003C509.729 102.669 509.507 103.253 509.062 103.753C508.618 104.253 508.076 104.503 507.438 104.503Z" fill="white"/>
<path d="M495.009 91.9608C495.009 91.433 494.967 90.8636 494.884 90.2524C494.829 89.6413 494.676 89.0858 494.426 88.5858C494.176 88.0858 493.815 87.6691 493.342 87.3358C492.87 87.0024 492.245 86.8358 491.467 86.8358C490.94 86.8358 490.384 86.9747 489.801 87.2524C489.245 87.5302 488.717 87.9608 488.217 88.5441C487.745 89.0997 487.356 89.8219 487.051 90.7108C486.745 91.5997 486.592 92.6691 486.592 93.9191C486.592 94.7524 486.759 95.6136 487.092 96.5024C487.426 97.3913 487.926 98.1969 488.592 98.9191C489.287 99.6413 490.148 100.239 491.176 100.711C492.231 101.183 493.454 101.419 494.842 101.419C496.231 101.419 497.398 101.28 498.342 101.002C499.287 100.697 500.12 100.294 500.842 99.7941C501.592 99.2663 502.273 98.6691 502.884 98.0024C503.523 97.3358 504.217 96.6274 504.967 95.8774C505.301 95.5441 505.773 95.3774 506.384 95.3774C506.801 95.3774 507.148 95.4608 507.426 95.6274C507.704 95.7663 507.926 95.9608 508.092 96.2108C508.259 96.433 508.37 96.6691 508.426 96.9191C508.509 97.1413 508.551 97.3358 508.551 97.5024C508.551 97.808 508.495 98.0997 508.384 98.3774C508.273 98.6274 508.148 98.8497 508.009 99.0441C507.342 99.9608 506.509 100.836 505.509 101.669C504.509 102.475 503.412 103.183 502.217 103.794C501.023 104.405 499.759 104.891 498.426 105.252C497.092 105.614 495.759 105.794 494.426 105.794C493.092 105.794 491.704 105.544 490.259 105.044C488.842 104.544 487.523 103.794 486.301 102.794C485.106 101.794 484.12 100.544 483.342 99.0441C482.565 97.5441 482.176 95.808 482.176 93.8358C482.176 92.6969 482.329 91.4747 482.634 90.1691C482.912 88.8358 483.44 87.5997 484.217 86.4608C484.967 85.3219 486.009 84.3774 487.342 83.6274C488.704 82.8774 490.44 82.5024 492.551 82.5024C493.551 82.5024 494.467 82.7386 495.301 83.2108C496.162 83.683 496.884 84.3358 497.467 85.1691C498.079 85.9747 498.551 86.933 498.884 88.0441C499.245 89.1274 499.426 90.2802 499.426 91.5024C499.426 92.308 499.245 92.9469 498.884 93.4191C498.551 93.8635 497.981 94.0858 497.176 94.0858C496.287 94.0858 495.704 93.8635 495.426 93.4191C495.148 92.9747 495.009 92.4886 495.009 91.9608Z" fill="white"/>
<path d="M469.746 94.2526C469.718 93.4748 469.649 92.697 469.538 91.9193C469.454 91.1415 469.274 90.447 468.996 89.8359C468.746 89.197 468.371 88.6832 467.871 88.2943C467.399 87.8776 466.774 87.6693 465.996 87.6693C465.385 87.6693 464.843 87.8359 464.371 88.1693C463.899 88.4748 463.496 88.8637 463.163 89.3359C462.857 89.8082 462.621 90.322 462.454 90.8776C462.288 91.4054 462.204 91.9054 462.204 92.3776C462.204 93.2109 462.357 94.0304 462.663 94.8359C462.996 95.6137 463.413 96.322 463.913 96.9609C464.441 97.572 465.01 98.072 465.621 98.4609C466.232 98.8498 466.829 99.0443 467.413 99.0443C467.691 99.0443 467.968 98.9609 468.246 98.7943C468.524 98.5998 468.774 98.322 468.996 97.9609C469.218 97.572 469.399 97.072 469.538 96.4609C469.677 95.8498 469.746 95.1137 469.746 94.2526ZM472.954 96.7943C472.954 97.2665 472.927 97.6554 472.871 97.9609C472.843 98.2665 472.76 98.7109 472.621 99.2943C472.232 100.489 471.704 101.433 471.038 102.128C470.399 102.794 469.552 103.211 468.496 103.378C467.302 103.6 466.066 103.433 464.788 102.878C463.538 102.294 462.385 101.475 461.329 100.419C460.302 99.3359 459.454 98.0859 458.788 96.6693C458.093 95.2248 457.746 93.7387 457.746 92.2109C457.746 91.0443 457.982 89.9332 458.454 88.8776C458.899 87.822 459.496 86.8915 460.246 86.0859C460.996 85.2804 461.843 84.6415 462.788 84.1693C463.76 83.697 464.76 83.4609 465.788 83.4609C466.816 83.4609 467.746 83.6415 468.579 84.0026C469.441 84.3637 470.218 84.8637 470.913 85.5026C471.607 86.1137 472.232 86.8359 472.788 87.6693C473.343 88.5026 473.857 89.3915 474.329 90.3359C474.607 90.947 474.927 91.7665 475.288 92.7943C475.677 93.7943 476.093 94.7804 476.538 95.7526C476.982 96.697 477.454 97.5304 477.954 98.2526C478.482 98.947 479.024 99.2943 479.579 99.2943C479.996 99.2943 480.357 99.1832 480.663 98.9609C480.996 98.7387 481.288 98.4748 481.538 98.1693C481.816 97.8637 482.066 97.5304 482.288 97.1693C482.51 96.8082 482.746 96.4748 482.996 96.1693C483.468 95.6137 483.968 95.3498 484.496 95.3776C485.052 95.4054 485.468 95.4887 485.746 95.6276C486.274 95.9054 486.621 96.3637 486.788 97.0026C486.982 97.6415 486.871 98.2665 486.454 98.8776C485.982 99.5443 485.468 100.169 484.913 100.753C484.357 101.308 483.774 101.794 483.163 102.211C482.552 102.628 481.927 102.961 481.288 103.211C480.677 103.433 480.066 103.544 479.454 103.544C478.482 103.544 477.677 103.322 477.038 102.878C476.399 102.433 475.843 101.878 475.371 101.211C474.899 100.516 474.482 99.7804 474.121 99.0026C473.76 98.197 473.371 97.4609 472.954 96.7943Z" fill="white"/>
<path d="M415.927 106.544C414.844 106.544 413.844 106.28 412.927 105.752C412.01 105.225 411.149 104.544 410.344 103.711C409.538 102.85 408.844 102.197 408.26 101.752C407.677 101.308 407.26 100.988 407.01 100.794C406.983 101.1 406.969 101.391 406.969 101.669C406.969 101.919 406.969 102.197 406.969 102.502C406.969 102.947 406.983 103.377 407.01 103.794C407.038 104.211 407.052 104.641 407.052 105.086C407.052 105.641 406.83 106.141 406.385 106.586C405.969 107.03 405.469 107.252 404.885 107.252C404.33 107.252 403.899 107.086 403.594 106.752C403.26 106.447 403.024 106.044 402.885 105.544C402.719 105.044 402.622 104.502 402.594 103.919C402.538 103.336 402.51 102.78 402.51 102.252C402.51 99.6967 402.608 97.2523 402.802 94.9189C402.969 92.5578 403.052 90.2245 403.052 87.9189C403.052 86.6967 402.941 85.4884 402.719 84.2939C402.469 83.0717 402.344 81.8634 402.344 80.6689C402.344 80.0301 402.566 79.5162 403.01 79.1273C403.427 78.7384 403.955 78.5439 404.594 78.5439C405.122 78.5439 405.58 78.6967 405.969 79.0023C406.385 79.3078 406.649 79.7106 406.76 80.2106C406.983 81.4051 407.135 82.5856 407.219 83.7523C407.33 84.8912 407.385 86.0578 407.385 87.2523C407.385 87.9467 407.372 88.6551 407.344 89.3773C407.344 90.0717 407.344 90.7662 407.344 91.4606C407.649 91.1273 407.983 90.7245 408.344 90.2523C408.733 89.7523 409.205 89.2245 409.76 88.6689C410.51 87.9189 411.219 87.2245 411.885 86.5856C412.58 85.919 413.247 85.3495 413.885 84.8773C414.552 84.3773 415.177 83.9884 415.76 83.7106C416.344 83.4328 416.913 83.2939 417.469 83.2939C418.163 83.2939 418.719 83.5301 419.135 84.0023C419.552 84.4745 419.76 84.9745 419.76 85.5023C419.76 85.9189 419.635 86.3078 419.385 86.6689C419.163 87.0023 418.858 87.2662 418.469 87.4606C417.719 87.8217 416.899 88.3495 416.01 89.0439C415.122 89.7384 414.233 90.5162 413.344 91.3773C412.455 92.2384 411.594 93.1273 410.76 94.0439C409.927 94.9328 409.163 95.7662 408.469 96.5439C409.108 96.9328 409.788 97.3773 410.51 97.8773C411.26 98.3773 412.052 99.0856 412.885 100.002C413.358 100.53 413.76 100.947 414.094 101.252C414.455 101.53 414.747 101.738 414.969 101.877C415.219 101.988 415.413 102.058 415.552 102.086C415.719 102.113 415.844 102.127 415.927 102.127C416.233 102.127 416.594 102.03 417.01 101.836C417.455 101.641 417.955 101.322 418.51 100.877C419.094 100.405 419.747 99.7939 420.469 99.0439C421.191 98.2939 421.997 97.3634 422.885 96.2523C423.108 95.9745 423.385 95.7662 423.719 95.6273C424.08 95.4606 424.413 95.3773 424.719 95.3773C425.33 95.3773 425.844 95.5856 426.26 96.0023C426.677 96.4189 426.885 96.9467 426.885 97.5856C426.885 97.8356 426.844 98.0856 426.76 98.3356C426.677 98.5856 426.552 98.8078 426.385 99.0023C424.302 101.641 422.427 103.544 420.76 104.711C419.094 105.905 417.483 106.516 415.927 106.544Z" fill="white"/>
<path d="M396.478 86.3776C396.728 87.0165 396.853 87.7248 396.853 88.5026C396.853 89.3637 396.7 90.2804 396.395 91.2526C396.117 92.197 395.714 93.1276 395.186 94.0443C394.658 94.9609 394.02 95.8359 393.27 96.6693C392.547 97.5026 391.756 98.2109 390.895 98.7943C391.311 99.1276 391.686 99.3915 392.02 99.5859C392.353 99.7526 392.7 99.8776 393.061 99.9609C393.45 100.044 393.895 100.1 394.395 100.128C394.895 100.155 395.52 100.169 396.27 100.169C397.52 100.169 398.506 99.9193 399.228 99.4193C399.978 98.9193 400.603 98.3776 401.103 97.7943C401.603 97.1832 402.061 96.6276 402.478 96.1276C402.895 95.6276 403.422 95.3776 404.061 95.3776C404.256 95.3776 404.478 95.4193 404.728 95.5026C404.978 95.5582 405.214 95.6693 405.436 95.8359C405.658 96.0026 405.839 96.2248 405.978 96.5026C406.145 96.7804 406.228 97.1276 406.228 97.5443C406.228 97.9332 406.131 98.322 405.936 98.7109C405.492 99.5443 404.922 100.322 404.228 101.044C403.561 101.739 402.797 102.35 401.936 102.878C401.103 103.378 400.2 103.78 399.228 104.086C398.256 104.391 397.27 104.544 396.27 104.544C393.936 104.544 391.936 104.183 390.27 103.461C388.631 102.711 387.297 101.753 386.27 100.586C385.214 99.3915 384.45 98.0582 383.978 96.5859C383.506 95.1137 383.27 93.6415 383.27 92.1693C383.27 91.0859 383.478 90.0026 383.895 88.9193C384.283 87.8359 384.825 86.8498 385.52 85.9609C386.214 85.072 387.033 84.3498 387.978 83.7943C388.95 83.2387 389.992 82.9609 391.103 82.9609C391.603 82.9609 392.131 83.0443 392.686 83.2109C393.242 83.3776 393.77 83.6137 394.27 83.9193C394.77 84.2248 395.214 84.5859 395.603 85.0026C395.992 85.4193 396.283 85.8776 396.478 86.3776ZM391.353 87.3359C390.77 87.3359 390.242 87.5026 389.77 87.8359C389.325 88.1693 388.95 88.5859 388.645 89.0859C388.367 89.5859 388.145 90.1554 387.978 90.7943C387.839 91.4054 387.77 92.0026 387.77 92.5859C387.77 93.1137 387.825 93.5998 387.936 94.0443C388.047 94.4887 388.228 94.8498 388.478 95.1276C389.145 94.6832 389.728 94.1832 390.228 93.6276C390.728 93.072 391.145 92.5165 391.478 91.9609C391.811 91.4054 392.061 90.8637 392.228 90.3359C392.395 89.7804 392.478 89.2943 392.478 88.8776C392.478 88.4054 392.381 88.0304 392.186 87.7526C392.02 87.4748 391.742 87.3359 391.353 87.3359Z" fill="white"/>
<path d="M333.133 94.7523C332.661 94.7523 332.202 94.8912 331.758 95.1689C331.341 95.4189 330.952 95.7523 330.591 96.1689C330.23 96.5578 329.911 96.9884 329.633 97.4606C329.355 97.9328 329.133 98.3634 328.966 98.7523C328.744 99.2801 328.549 99.8495 328.383 100.461C328.216 101.044 327.994 101.586 327.716 102.086C327.438 102.586 327.077 103.002 326.633 103.336C326.216 103.669 325.633 103.836 324.883 103.836C324.216 103.836 323.619 103.641 323.091 103.252C322.563 102.836 322.299 102.35 322.299 101.794C322.299 100.877 322.341 99.9606 322.424 99.0439C322.536 98.1273 322.591 97.1828 322.591 96.2106C322.591 95.6828 322.563 95.1273 322.508 94.5439C322.48 93.9606 322.397 93.4467 322.258 93.0023C322.147 92.5301 321.98 92.1412 321.758 91.8356C321.563 91.5301 321.313 91.3773 321.008 91.3773C320.036 91.3773 319.188 91.5856 318.466 92.0023C317.772 92.3912 317.119 92.9328 316.508 93.6273C315.924 94.2939 315.341 95.0856 314.758 96.0023C314.202 96.8912 313.577 97.8356 312.883 98.8356C312.633 99.1967 312.327 99.4467 311.966 99.5856C311.633 99.6967 311.341 99.7523 311.091 99.7523C310.674 99.7523 310.299 99.6551 309.966 99.4606C309.605 99.2384 309.341 98.9606 309.174 98.6273C308.98 98.2939 308.883 97.9328 308.883 97.5439C308.883 97.1273 309.008 96.7245 309.258 96.3356C310.036 94.9745 310.813 93.7245 311.591 92.5856C312.397 91.4467 313.258 90.4745 314.174 89.6689C315.119 88.8356 316.161 88.1967 317.299 87.7523C318.466 87.2801 319.827 87.0439 321.383 87.0439C322.327 87.0439 323.119 87.2106 323.758 87.5439C324.397 87.8495 324.911 88.2801 325.299 88.8356C325.688 89.3634 325.98 89.9884 326.174 90.7106C326.397 91.4328 326.577 92.2106 326.716 93.0439C327.661 92.2939 328.716 91.6689 329.883 91.1689C331.077 90.6412 332.341 90.3773 333.674 90.3773C334.619 90.3773 335.48 90.5578 336.258 90.9189C337.036 91.2801 337.758 91.7662 338.424 92.3773C339.091 92.9606 339.716 93.6551 340.299 94.4606C340.883 95.2662 341.466 96.1134 342.049 97.0023C342.716 98.0301 343.313 98.7662 343.841 99.2106C344.397 99.6551 344.924 99.8773 345.424 99.8773C346.147 99.8773 346.827 99.5439 347.466 98.8773C348.133 98.2106 348.786 97.3773 349.424 96.3773C349.647 96.0439 349.924 95.7939 350.258 95.6273C350.591 95.4606 350.938 95.3773 351.299 95.3773C351.744 95.3773 352.105 95.4606 352.383 95.6273C352.661 95.7939 352.883 95.9884 353.049 96.2106C353.216 96.4328 353.327 96.6828 353.383 96.9606C353.438 97.2106 353.466 97.419 353.466 97.5856C353.466 97.7523 353.452 97.9328 353.424 98.1273C353.397 98.2939 353.355 98.4051 353.299 98.4606C352.911 99.2106 352.466 99.9328 351.966 100.627C351.466 101.322 350.897 101.947 350.258 102.502C349.619 103.03 348.897 103.461 348.091 103.794C347.286 104.127 346.397 104.294 345.424 104.294C344.23 104.294 343.202 104.058 342.341 103.586C341.508 103.113 340.772 102.53 340.133 101.836C339.494 101.113 338.924 100.35 338.424 99.5439C337.924 98.7106 337.411 97.9467 336.883 97.2523C336.383 96.5301 335.827 95.9328 335.216 95.4606C334.633 94.9884 333.938 94.7523 333.133 94.7523Z" fill="white"/>
<path d="M255.306 81.9608C255.556 81.8774 255.806 81.8219 256.056 81.7941C256.306 81.7663 256.542 81.7524 256.764 81.7524C257.403 81.7524 257.862 82.058 258.139 82.6691C258.417 83.2524 258.556 84.1136 258.556 85.2524C258.556 85.6691 258.542 86.2247 258.514 86.9191C258.514 87.6135 258.514 88.3219 258.514 89.0441C258.514 89.7663 258.5 90.4747 258.473 91.1691C258.473 91.8358 258.473 92.3497 258.473 92.7108C258.473 93.7108 258.584 94.6969 258.806 95.6691C259.056 96.6135 259.417 97.4608 259.889 98.2108C260.389 98.933 260.987 99.5163 261.681 99.9608C262.403 100.405 263.25 100.627 264.223 100.627C265.25 100.627 266.112 100.377 266.806 99.8774C267.528 99.3774 268.125 98.7247 268.598 97.9191C269.07 97.1136 269.431 96.1969 269.681 95.1691C269.959 94.1413 270.181 93.0997 270.348 92.0441C270.542 90.9608 270.695 89.933 270.806 88.9608C270.945 87.9608 271.098 87.0858 271.264 86.3358C271.348 85.9469 271.598 85.5719 272.014 85.2108C272.431 84.8497 272.973 84.6691 273.639 84.6691C273.778 84.6691 273.959 84.683 274.181 84.7108C274.403 84.7108 274.612 84.7385 274.806 84.7941C275.028 84.8219 275.223 84.8774 275.389 84.9608C275.556 85.0441 275.681 85.1552 275.764 85.2941C276.07 85.8219 276.32 86.5302 276.514 87.4191C276.737 88.308 276.945 89.2663 277.139 90.2941C277.334 91.3219 277.542 92.3636 277.764 93.4191C278.014 94.4747 278.306 95.433 278.639 96.2941C278.973 97.1274 279.389 97.8219 279.889 98.3774C280.389 98.9052 281 99.1691 281.723 99.1691C282.084 99.1691 282.417 99.0997 282.723 98.9608C283.028 98.7941 283.334 98.5858 283.639 98.3358C283.973 98.058 284.306 97.7247 284.639 97.3358C285 96.9469 285.431 96.5163 285.931 96.0441C286.181 95.7941 286.431 95.6274 286.681 95.5441C286.959 95.433 287.223 95.3774 287.473 95.3774C287.889 95.3774 288.237 95.4469 288.514 95.5858C288.82 95.7247 289.056 95.9052 289.223 96.1274C289.417 96.3497 289.542 96.5997 289.598 96.8774C289.681 97.1274 289.723 97.3774 289.723 97.6274C289.723 97.9608 289.639 98.2941 289.473 98.6274C289.306 98.9608 288.987 99.4052 288.514 99.9608C288.07 100.516 287.487 101.072 286.764 101.627C286.042 102.183 285.195 102.669 284.223 103.086C283.278 103.475 282.209 103.669 281.014 103.669C279.931 103.669 279.028 103.461 278.306 103.044C277.584 102.6 276.959 102.03 276.431 101.336C275.931 100.641 275.487 99.8913 275.098 99.0858C274.737 98.2524 274.375 97.433 274.014 96.6274C273.625 97.6274 273.139 98.6274 272.556 99.6274C272 100.6 271.334 101.489 270.556 102.294C269.778 103.072 268.889 103.711 267.889 104.211C266.917 104.683 265.848 104.933 264.681 104.961C262.237 104.989 260.306 104.558 258.889 103.669C257.5 102.78 256.459 101.614 255.764 100.169C255.042 98.7247 254.584 97.0997 254.389 95.2941C254.195 93.4608 254.098 91.6274 254.098 89.7941C254.098 89.0441 254.112 88.308 254.139 87.5858C254.139 86.8358 254.139 86.1135 254.139 85.4191C254.139 85.2247 254.153 84.9469 254.181 84.5858C254.181 84.2247 254.223 83.8774 254.306 83.5441C254.389 83.183 254.514 82.8497 254.681 82.5441C254.82 82.2385 255.028 82.0441 255.306 81.9608Z" fill="white"/>
<path d="M206.061 88.5856C205.589 88.5856 205.075 88.919 204.52 89.5856C203.964 90.2245 203.367 91.0439 202.728 92.0439C202.117 93.0439 201.478 94.1551 200.811 95.3773C200.145 96.5717 199.464 97.7245 198.77 98.8356C198.631 99.0301 198.408 99.2384 198.103 99.4606C197.797 99.6551 197.408 99.7523 196.936 99.7523C196.242 99.7523 195.714 99.5162 195.353 99.0439C194.964 98.5717 194.77 98.0578 194.77 97.5023C194.77 97.1134 194.881 96.7384 195.103 96.3773C195.381 95.9051 195.756 95.2662 196.228 94.4606C196.7 93.6273 197.228 92.7384 197.811 91.7939C198.395 90.8495 199.033 89.8912 199.728 88.9189C200.422 87.9467 201.131 87.0717 201.853 86.2939C202.603 85.5162 203.367 84.8773 204.145 84.3773C204.95 83.8773 205.742 83.6273 206.52 83.6273C207.242 83.6273 207.853 83.8495 208.353 84.2939C208.853 84.7106 209.256 85.2662 209.561 85.9606C209.867 86.6273 210.089 87.3773 210.228 88.2106C210.367 89.0162 210.436 89.8078 210.436 90.5856C210.436 91.0578 210.408 91.5023 210.353 91.9189C210.325 92.3356 210.27 92.6967 210.186 93.0023C210.52 92.4745 210.908 91.6967 211.353 90.6689C211.797 89.6412 212.325 88.6273 212.936 87.6273C213.547 86.5995 214.242 85.7106 215.02 84.9606C215.797 84.2106 216.672 83.8356 217.645 83.8356C218.7 83.8356 219.631 84.0717 220.436 84.5439C221.27 84.9884 221.992 85.5717 222.603 86.2939C223.242 87.0162 223.783 87.8356 224.228 88.7523C224.672 89.6412 225.033 90.544 225.311 91.4606C225.617 92.3495 225.853 93.1828 226.02 93.9606C226.214 94.7384 226.367 95.3773 226.478 95.8773C226.839 94.5995 227.2 93.1967 227.561 91.6689C227.922 90.1412 228.381 88.7245 228.936 87.4189C229.52 86.1134 230.242 85.0162 231.103 84.1273C231.992 83.2384 233.103 82.7939 234.436 82.7939C235.853 82.7939 237.103 83.1828 238.186 83.9606C239.27 84.7106 240.256 85.669 241.145 86.8356C242.033 88.0023 242.853 89.2523 243.603 90.5856C244.381 91.919 245.172 93.169 245.978 94.3356C246.783 95.5023 247.645 96.4745 248.561 97.2523C249.478 98.0023 250.533 98.3773 251.728 98.3773C252.2 98.3773 252.714 98.2106 253.27 97.8773C253.853 97.5439 254.381 97.0301 254.853 96.3356C255.297 95.6967 255.908 95.3773 256.686 95.3773C257.325 95.3773 257.839 95.5995 258.228 96.0439C258.645 96.4884 258.853 97.0023 258.853 97.5856C258.853 98.0023 258.728 98.419 258.478 98.8356C257.811 99.8912 256.992 100.808 256.02 101.586C255.047 102.363 253.825 102.752 252.353 102.752C250.547 102.752 248.95 102.377 247.561 101.627C246.2 100.85 244.992 99.9051 243.936 98.7939C242.881 97.6551 241.95 96.419 241.145 95.0856C240.367 93.7523 239.645 92.5301 238.978 91.4189C238.339 90.2801 237.714 89.3356 237.103 88.5856C236.52 87.8078 235.895 87.4189 235.228 87.4189C234.756 87.4189 234.311 87.7384 233.895 88.3773C233.478 88.9884 233.075 89.8078 232.686 90.8356C232.297 91.8356 231.922 92.9745 231.561 94.2523C231.2 95.5023 230.853 96.7523 230.52 98.0023C230.214 99.2523 229.908 100.447 229.603 101.586C229.297 102.697 229.006 103.627 228.728 104.377C228.589 104.766 228.381 105.141 228.103 105.502C227.853 105.863 227.45 106.044 226.895 106.044C226.533 106.044 226.214 105.975 225.936 105.836C225.686 105.697 225.436 105.461 225.186 105.127C224.964 104.85 224.7 104.238 224.395 103.294C224.117 102.35 223.783 101.252 223.395 100.002C223.033 98.7523 222.645 97.4328 222.228 96.0439C221.811 94.6551 221.367 93.3912 220.895 92.2523C220.45 91.0856 219.978 90.1273 219.478 89.3773C219.006 88.5995 218.533 88.2106 218.061 88.2106C217.783 88.2106 217.408 88.5995 216.936 89.3773C216.492 90.1273 215.978 91.0856 215.395 92.2523C214.839 93.4189 214.214 94.6689 213.52 96.0023C212.853 97.3356 212.145 98.5856 211.395 99.7523C210.672 100.919 209.922 101.891 209.145 102.669C208.395 103.419 207.645 103.794 206.895 103.794C206.117 103.794 205.52 103.669 205.103 103.419C204.714 103.169 204.52 102.683 204.52 101.961C204.52 101.377 204.631 100.683 204.853 99.8773C205.103 99.0439 205.367 98.1551 205.645 97.2106C205.922 96.2384 206.172 95.2384 206.395 94.2106C206.645 93.1551 206.77 92.0995 206.77 91.0439C206.77 90.4051 206.714 89.8356 206.603 89.3356C206.52 88.8356 206.339 88.5856 206.061 88.5856Z" fill="white"/>
<path d="M164.779 81.9608C165.029 81.8774 165.279 81.8219 165.529 81.7941C165.779 81.7663 166.015 81.7524 166.237 81.7524C166.876 81.7524 167.334 82.058 167.612 82.6691C167.89 83.2524 168.029 84.1136 168.029 85.2524C168.029 85.6691 168.015 86.2247 167.987 86.9191C167.987 87.6135 167.987 88.3219 167.987 89.0441C167.987 89.7663 167.973 90.4747 167.945 91.1691C167.945 91.8358 167.945 92.3497 167.945 92.7108C167.945 93.7108 168.056 94.6969 168.279 95.6691C168.529 96.6135 168.89 97.4608 169.362 98.2108C169.862 98.933 170.459 99.5163 171.154 99.9608C171.876 100.405 172.723 100.627 173.695 100.627C174.723 100.627 175.584 100.377 176.279 99.8774C177.001 99.3774 177.598 98.7247 178.07 97.9191C178.543 97.1136 178.904 96.1969 179.154 95.1691C179.431 94.1413 179.654 93.0997 179.82 92.0441C180.015 90.9608 180.168 89.933 180.279 88.9608C180.418 87.9608 180.57 87.0858 180.737 86.3358C180.82 85.9469 181.07 85.5719 181.487 85.2108C181.904 84.8497 182.445 84.6691 183.112 84.6691C183.251 84.6691 183.431 84.683 183.654 84.7108C183.876 84.7108 184.084 84.7385 184.279 84.7941C184.501 84.8219 184.695 84.8774 184.862 84.9608C185.029 85.0441 185.154 85.1552 185.237 85.2941C185.543 85.8219 185.793 86.5302 185.987 87.4191C186.209 88.308 186.418 89.2663 186.612 90.2941C186.806 91.3219 187.015 92.3636 187.237 93.4191C187.487 94.4747 187.779 95.433 188.112 96.2941C188.445 97.1274 188.862 97.8219 189.362 98.3774C189.862 98.9052 190.473 99.1691 191.195 99.1691C191.556 99.1691 191.89 99.0997 192.195 98.9608C192.501 98.7941 192.806 98.5858 193.112 98.3358C193.445 98.058 193.779 97.7247 194.112 97.3358C194.473 96.9469 194.904 96.5163 195.404 96.0441C195.654 95.7941 195.904 95.6274 196.154 95.5441C196.431 95.433 196.695 95.3774 196.945 95.3774C197.362 95.3774 197.709 95.4469 197.987 95.5858C198.293 95.7247 198.529 95.9052 198.695 96.1274C198.89 96.3497 199.015 96.5997 199.07 96.8774C199.154 97.1274 199.195 97.3774 199.195 97.6274C199.195 97.9608 199.112 98.2941 198.945 98.6274C198.779 98.9608 198.459 99.4052 197.987 99.9608C197.543 100.516 196.959 101.072 196.237 101.627C195.515 102.183 194.668 102.669 193.695 103.086C192.751 103.475 191.681 103.669 190.487 103.669C189.404 103.669 188.501 103.461 187.779 103.044C187.056 102.6 186.431 102.03 185.904 101.336C185.404 100.641 184.959 99.8913 184.57 99.0858C184.209 98.2524 183.848 97.433 183.487 96.6274C183.098 97.6274 182.612 98.6274 182.029 99.6274C181.473 100.6 180.806 101.489 180.029 102.294C179.251 103.072 178.362 103.711 177.362 104.211C176.39 104.683 175.32 104.933 174.154 104.961C171.709 104.989 169.779 104.558 168.362 103.669C166.973 102.78 165.931 101.614 165.237 100.169C164.515 98.7247 164.056 97.0997 163.862 95.2941C163.668 93.4608 163.57 91.6274 163.57 89.7941C163.57 89.0441 163.584 88.308 163.612 87.5858C163.612 86.8358 163.612 86.1135 163.612 85.4191C163.612 85.2247 163.626 84.9469 163.654 84.5858C163.654 84.2247 163.695 83.8774 163.779 83.5441C163.862 83.183 163.987 82.8497 164.154 82.5441C164.293 82.2385 164.501 82.0441 164.779 81.9608Z" fill="white"/>
<path d="M152.387 74.5858C152.859 76.558 152.998 78.5719 152.804 80.6275C152.609 82.6553 152.165 84.6692 151.471 86.6692C150.804 88.6692 149.929 90.6136 148.846 92.5025C147.79 94.3914 146.623 96.1414 145.346 97.7525C145.568 98.3914 145.901 99.1692 146.346 100.086C146.79 101.002 147.318 101.877 147.929 102.711C148.568 103.544 149.262 104.225 150.012 104.752C150.79 105.308 151.623 105.516 152.512 105.377C152.762 105.35 153.012 105.294 153.262 105.211C153.54 105.155 153.79 105.044 154.012 104.877C154.262 104.739 154.457 104.558 154.596 104.336C154.762 104.114 154.859 103.808 154.887 103.419C154.943 102.891 154.915 102.35 154.804 101.794C154.721 101.211 154.609 100.586 154.471 99.9192C154.248 98.9192 154.332 98.1969 154.721 97.7525C154.943 97.4192 155.234 97.2247 155.596 97.1692C155.957 97.1136 156.346 97.1136 156.762 97.1692C157.484 97.3636 158.137 97.5997 158.721 97.8775C159.332 98.1553 159.984 98.3219 160.679 98.3775C161.457 98.4608 162.109 98.3497 162.637 98.0442C163.165 97.7386 163.707 97.1692 164.262 96.3358C164.457 96.0581 164.693 95.8358 164.971 95.6692C165.248 95.5025 165.54 95.4053 165.846 95.3775C166.151 95.3497 166.443 95.3775 166.721 95.4608C167.026 95.5442 167.29 95.6831 167.512 95.8775C168.012 96.3497 168.262 96.8914 168.262 97.5025C168.262 98.0858 168.109 98.5719 167.804 98.9608C166.748 100.294 165.512 101.252 164.096 101.836C162.707 102.419 161.137 102.558 159.387 102.252C159.332 102.641 159.318 103.058 159.346 103.502C159.401 103.919 159.401 104.308 159.346 104.669C159.29 105.586 159.068 106.364 158.679 107.002C158.29 107.641 157.776 108.155 157.137 108.544C156.498 108.961 155.762 109.252 154.929 109.419C154.096 109.614 153.207 109.711 152.262 109.711C150.929 109.711 149.762 109.489 148.762 109.044C147.79 108.6 146.929 108.03 146.179 107.336C145.429 106.641 144.776 105.864 144.221 105.002C143.665 104.169 143.165 103.35 142.721 102.544C141.748 100.794 140.887 98.6831 140.137 96.2108C139.387 93.7386 138.859 91.1692 138.554 88.5025C138.221 85.8358 138.165 83.2247 138.387 80.6692C138.582 78.0858 139.165 75.8219 140.137 73.8775C140.471 73.1831 140.887 72.5442 141.387 71.9608C141.859 71.3497 142.387 70.8358 142.971 70.4192C143.582 70.0025 144.221 69.6969 144.887 69.5025C145.582 69.2803 146.304 69.2247 147.054 69.3358C147.915 69.4192 148.651 69.6275 149.262 69.9608C149.873 70.2664 150.373 70.6553 150.762 71.1275C151.179 71.5719 151.512 72.0997 151.762 72.7108C152.012 73.2942 152.221 73.9192 152.387 74.5858ZM142.679 83.5858C142.734 85.1692 142.846 86.7803 143.012 88.4192C143.179 90.0303 143.429 91.5025 143.762 92.8358C144.29 92.2247 144.832 91.3636 145.387 90.2525C145.943 89.1136 146.443 87.8636 146.887 86.5025C147.332 85.1414 147.693 83.7386 147.971 82.2942C148.248 80.8497 148.401 79.5164 148.429 78.2942C148.429 77.683 148.387 77.0719 148.304 76.4608C148.221 75.8219 148.068 75.2664 147.846 74.7942C147.651 74.2942 147.373 73.9331 147.012 73.7108C146.679 73.4886 146.262 73.4747 145.762 73.6692C145.151 73.8914 144.637 74.4053 144.221 75.2108C143.804 75.9886 143.471 76.8914 143.221 77.9192C142.998 78.9469 142.832 79.9886 142.721 81.0442C142.637 82.0719 142.623 82.9192 142.679 83.5858Z" fill="white"/>
<path d="M127.461 94.2526C127.433 93.4748 127.364 92.697 127.253 91.9193C127.169 91.1415 126.989 90.447 126.711 89.8359C126.461 89.197 126.086 88.6832 125.586 88.2943C125.114 87.8776 124.489 87.6693 123.711 87.6693C123.1 87.6693 122.558 87.8359 122.086 88.1693C121.614 88.4748 121.211 88.8637 120.878 89.3359C120.572 89.8082 120.336 90.322 120.169 90.8776C120.003 91.4054 119.919 91.9054 119.919 92.3776C119.919 93.2109 120.072 94.0304 120.378 94.8359C120.711 95.6137 121.128 96.322 121.628 96.9609C122.155 97.572 122.725 98.072 123.336 98.4609C123.947 98.8498 124.544 99.0443 125.128 99.0443C125.405 99.0443 125.683 98.9609 125.961 98.7943C126.239 98.5998 126.489 98.322 126.711 97.9609C126.933 97.572 127.114 97.072 127.253 96.4609C127.391 95.8498 127.461 95.1137 127.461 94.2526ZM130.669 96.7943C130.669 97.2665 130.641 97.6554 130.586 97.9609C130.558 98.2665 130.475 98.7109 130.336 99.2943C129.947 100.489 129.419 101.433 128.753 102.128C128.114 102.794 127.266 103.211 126.211 103.378C125.016 103.6 123.78 103.433 122.503 102.878C121.253 102.294 120.1 101.475 119.044 100.419C118.016 99.3359 117.169 98.0859 116.503 96.6693C115.808 95.2248 115.461 93.7387 115.461 92.2109C115.461 91.0443 115.697 89.9332 116.169 88.8776C116.614 87.822 117.211 86.8915 117.961 86.0859C118.711 85.2804 119.558 84.6415 120.503 84.1693C121.475 83.697 122.475 83.4609 123.503 83.4609C124.53 83.4609 125.461 83.6415 126.294 84.0026C127.155 84.3637 127.933 84.8637 128.628 85.5026C129.322 86.1137 129.947 86.8359 130.503 87.6693C131.058 88.5026 131.572 89.3915 132.044 90.3359C132.322 90.947 132.641 91.7665 133.003 92.7943C133.391 93.7943 133.808 94.7804 134.253 95.7526C134.697 96.697 135.169 97.5304 135.669 98.2526C136.197 98.947 136.739 99.2943 137.294 99.2943C137.711 99.2943 138.072 99.1832 138.378 98.9609C138.711 98.7387 139.003 98.4748 139.253 98.1693C139.53 97.8637 139.78 97.5304 140.003 97.1693C140.225 96.8082 140.461 96.4748 140.711 96.1693C141.183 95.6137 141.683 95.3498 142.211 95.3776C142.766 95.4054 143.183 95.4887 143.461 95.6276C143.989 95.9054 144.336 96.3637 144.503 97.0026C144.697 97.6415 144.586 98.2665 144.169 98.8776C143.697 99.5443 143.183 100.169 142.628 100.753C142.072 101.308 141.489 101.794 140.878 102.211C140.266 102.628 139.641 102.961 139.003 103.211C138.391 103.433 137.78 103.544 137.169 103.544C136.197 103.544 135.391 103.322 134.753 102.878C134.114 102.433 133.558 101.878 133.086 101.211C132.614 100.516 132.197 99.7804 131.836 99.0026C131.475 98.197 131.086 97.4609 130.669 96.7943Z" fill="white"/>
<path d="M98.5977 97.5439C98.5977 96.2939 98.3199 95.0856 97.7643 93.9189C97.2366 92.7245 96.5282 91.6689 95.6393 90.7523C94.7227 89.8078 93.6671 89.0578 92.4727 88.5023C91.2782 87.9467 90.0143 87.6689 88.681 87.6689C88.3199 87.6689 87.931 87.6828 87.5143 87.7106C87.0699 87.7106 86.6532 87.7662 86.2643 87.8773C85.8754 87.9884 85.5421 88.1689 85.2643 88.4189C84.9588 88.6689 84.7643 89.0162 84.681 89.4606C84.0699 89.8217 83.5143 90.3078 83.0143 90.9189C82.4865 91.5023 82.0282 92.1551 81.6393 92.8773C81.2504 93.5717 80.9449 94.3078 80.7227 95.0856C80.5004 95.8356 80.3615 96.5578 80.306 97.2523C79.6949 97.3912 79.1949 97.4606 78.806 97.4606C78.0282 97.4606 77.2921 97.3217 76.5977 97.0439C75.9032 96.7384 75.1532 96.3078 74.3477 95.7523C73.9865 95.5023 73.5699 95.3773 73.0977 95.3773C72.7088 95.3773 72.3754 95.4606 72.0977 95.6273C71.8199 95.7662 71.5977 95.9467 71.431 96.1689C71.2643 96.3634 71.1393 96.5856 71.056 96.8356C70.9727 97.0856 70.931 97.3078 70.931 97.5023C70.931 98.1412 71.1115 98.6828 71.4727 99.1273C71.8338 99.5717 72.306 99.9467 72.8893 100.252C73.4727 100.53 74.1254 100.752 74.8477 100.919C75.5699 101.086 76.2921 101.225 77.0143 101.336C77.7366 101.419 78.431 101.475 79.0977 101.502C79.7365 101.53 80.2782 101.558 80.7227 101.586C81.3615 103.197 82.306 104.447 83.556 105.336C84.7782 106.225 86.5421 106.669 88.8477 106.669C90.5143 106.669 91.9588 106.377 93.181 105.794C94.4032 105.238 95.4171 104.516 96.2227 103.627C97.0282 102.738 97.6254 101.766 98.0143 100.711C98.4032 99.6273 98.5977 98.5717 98.5977 97.5439ZM85.0977 100.836C86.5143 100.502 87.6949 100.141 88.6393 99.7523C89.556 99.3634 90.306 98.9467 90.8893 98.5023C91.4449 98.0578 91.8338 97.5995 92.056 97.1273C92.2782 96.6551 92.3893 96.1412 92.3893 95.5856C92.3893 95.0856 92.3615 94.6134 92.306 94.1689C92.2227 93.6967 92.0004 93.1412 91.6393 92.5023C92.5282 93.0301 93.181 93.7662 93.5977 94.7106C94.0143 95.6273 94.2227 96.5717 94.2227 97.5439C94.2227 98.4606 94.0143 99.2245 93.5977 99.8356C93.181 100.447 92.6949 100.933 92.1393 101.294C91.556 101.655 90.9588 101.919 90.3477 102.086C89.7365 102.225 89.2365 102.294 88.8477 102.294C88.0143 102.294 87.2782 102.169 86.6393 101.919C86.0004 101.641 85.4865 101.28 85.0977 100.836ZM84.3477 97.0023C84.4032 96.5578 84.5004 96.0995 84.6393 95.6273C84.7782 95.1551 84.9727 94.7106 85.2227 94.2939C85.4449 93.8773 85.6949 93.5023 85.9727 93.1689C86.2504 92.8356 86.5421 92.5856 86.8477 92.4189C86.9865 92.5578 87.2088 92.7523 87.5143 93.0023C87.7921 93.2245 87.931 93.669 87.931 94.3356C87.931 94.7245 87.8199 95.0717 87.5977 95.3773C87.3754 95.6828 87.0977 95.9467 86.7643 96.1689C86.4032 96.3912 86.0143 96.5856 85.5977 96.7523C85.181 96.8912 84.7643 96.9745 84.3477 97.0023Z" fill="white"/>
<path d="M105.391 107.098C103.908 107.06 102.468 106.589 101.253 105.742C100.814 105.415 100.524 104.928 100.447 104.389C100.369 103.85 100.51 103.302 100.84 102.866C100.996 102.649 101.194 102.464 101.423 102.323C101.651 102.182 101.906 102.088 102.172 102.046C102.438 102.004 102.709 102.015 102.971 102.078C103.232 102.141 103.478 102.256 103.695 102.414C104.197 102.746 104.788 102.924 105.391 102.924C105.995 102.924 106.585 102.746 107.088 102.414C107.283 102.252 107.442 102.051 107.556 101.825C107.67 101.599 107.736 101.352 107.75 101.1C107.957 99.826 107.75 96.7037 102.66 89.9662C102.429 89.6265 102.305 89.2259 102.305 88.8158C102.305 88.4058 102.429 88.0052 102.66 87.6655C102.873 87.313 103.189 87.0335 103.566 86.8646C103.944 86.6957 104.364 86.6455 104.771 86.7206C105.985 86.9432 107.239 86.7088 108.288 86.0633C108.288 86.0633 108.991 85.447 108.867 83.927C108.833 83.3886 109.014 82.8584 109.37 82.451C109.726 82.0436 110.229 81.7917 110.771 81.7496C111.044 81.7214 111.32 81.7485 111.582 81.8292C111.844 81.91 112.087 82.0427 112.296 82.2194C112.505 82.3961 112.675 82.613 112.797 82.8571C112.919 83.1012 112.99 83.3674 113.005 83.6394C113.14 84.638 113.033 85.6539 112.695 86.6038C112.357 87.5537 111.797 88.4103 111.06 89.1034C110.253 89.8325 109.269 90.342 108.205 90.5824C110.721 93.7621 112.039 97.7149 111.93 101.757C111.832 102.577 111.56 103.368 111.132 104.076C110.704 104.784 110.13 105.394 109.447 105.865C108.265 106.701 106.842 107.133 105.391 107.098Z" fill="white"/>
<path fill-rule="evenodd" clip-rule="evenodd" d="M48.1732 99.3389C48.4509 99.2278 48.7009 99.0472 48.9232 98.7972C49.0898 98.6028 49.2982 98.2972 49.5482 97.8805C49.8259 97.4639 50.0898 97.0333 50.3398 96.5889C50.5898 96.1166 50.7982 95.6583 50.9648 95.2139C51.1593 94.7694 51.2843 94.4083 51.3398 94.1305C51.3398 97.4916 51.3537 100.756 51.3815 103.922C51.4371 107.061 51.4648 110.228 51.4648 113.422C51.4648 117.672 51.4509 121.881 51.4232 126.047V138.797C51.4232 139.242 51.6037 139.533 51.9648 139.672C52.326 139.839 52.7148 139.922 53.1315 139.922C53.9371 139.922 54.6037 139.714 55.1315 139.297C55.6871 138.908 55.9648 138.408 55.9648 137.797V131.214V125.172C55.9926 123.2 56.0065 121.172 56.0065 119.089V112.422C56.0343 110.033 56.0482 107.422 56.0482 104.589V95.0889L55.9232 88.4222V87.5055C55.9232 86.8111 55.8815 86.2694 55.7982 85.8805C55.7426 85.4639 55.6176 85.1444 55.4232 84.9222C55.2565 84.7 55.0204 84.5611 54.7148 84.5055C54.4371 84.4222 54.0759 84.3805 53.6315 84.3805C53.2426 84.3805 52.7982 84.4361 52.2982 84.5472C51.8259 84.6583 51.4232 85.0333 51.0898 85.6722C50.6732 86.45 50.2843 87.2139 49.9232 87.9639C49.5898 88.6861 49.2148 89.45 48.7982 90.2555C48.4093 91.0611 47.9371 91.95 47.3815 92.9222C46.8537 93.8666 46.2009 94.9361 45.4232 96.1305C45.2009 96.4639 45.0898 96.8666 45.0898 97.3389C45.0898 97.8944 45.2843 98.3944 45.6732 98.8389C46.0621 99.2833 46.6037 99.5055 47.2982 99.5055C47.6037 99.5055 47.8954 99.45 48.1732 99.3389Z" fill="white"/>
<path fill-rule="evenodd" clip-rule="evenodd" d="M352.513 99.3003C352.791 99.1892 353.041 99.0086 353.263 98.7586C353.43 98.5642 353.638 98.2586 353.888 97.842C354.166 97.4253 354.43 96.9947 354.68 96.5503C354.93 96.0781 355.138 95.6197 355.305 95.1753C355.499 94.7308 355.624 94.3697 355.68 94.092C355.68 97.4531 355.694 100.717 355.721 103.884C355.777 107.023 355.805 110.189 355.805 113.384C355.805 117.634 355.791 121.842 355.763 126.009V138.759C355.763 139.203 355.944 139.495 356.305 139.634C356.666 139.8 357.055 139.884 357.471 139.884C358.277 139.884 358.944 139.675 359.471 139.259C360.027 138.87 360.305 138.37 360.305 137.759V131.175V125.134C360.332 123.161 360.346 121.134 360.346 119.05V112.384C360.374 109.995 360.388 107.384 360.388 104.55V95.0503L360.263 88.3836V87.467C360.263 86.7725 360.221 86.2308 360.138 85.842C360.082 85.4253 359.957 85.1058 359.763 84.8836C359.596 84.6614 359.36 84.5225 359.055 84.467C358.777 84.3836 358.416 84.342 357.971 84.342C357.582 84.342 357.138 84.3975 356.638 84.5086C356.166 84.6197 355.763 84.9947 355.43 85.6336C355.013 86.4114 354.624 87.1753 354.263 87.9253C353.93 88.6475 353.555 89.4114 353.138 90.217C352.749 91.0225 352.277 91.9114 351.721 92.8836C351.194 93.8281 350.541 94.8975 349.763 96.092C349.541 96.4253 349.43 96.8281 349.43 97.3003C349.43 97.8558 349.624 98.3558 350.013 98.8003C350.402 99.2447 350.944 99.467 351.638 99.467C351.944 99.467 352.235 99.4114 352.513 99.3003Z" fill="white"/>
<path fill-rule="evenodd" clip-rule="evenodd" d="M425.579 99.5918C425.857 99.4807 426.107 99.3001 426.329 99.0501C426.496 98.8557 426.704 98.5501 426.954 98.1335C427.232 97.7168 427.496 97.2862 427.746 96.8418C427.996 96.3696 428.204 95.9112 428.371 95.4668C428.566 95.0224 428.691 94.6612 428.746 94.3835C428.746 97.7446 428.76 101.008 428.788 104.175C428.843 107.314 428.871 110.481 428.871 113.675C428.871 117.925 428.857 122.133 428.829 126.3V139.05C428.829 139.495 429.01 139.786 429.371 139.925C429.732 140.092 430.121 140.175 430.538 140.175C431.343 140.175 432.01 139.967 432.538 139.55C433.093 139.161 433.371 138.661 433.371 138.05V131.467V125.425C433.399 123.453 433.413 121.425 433.413 119.342V112.675C433.441 110.286 433.454 107.675 433.454 104.842V95.3418L433.329 88.6751V87.7585C433.329 87.064 433.288 86.5224 433.204 86.1335C433.149 85.7168 433.024 85.3974 432.829 85.1751C432.663 84.9529 432.427 84.814 432.121 84.7585C431.843 84.6751 431.482 84.6335 431.038 84.6335C430.649 84.6335 430.204 84.689 429.704 84.8001C429.232 84.9112 428.829 85.2862 428.496 85.9251C428.079 86.7029 427.691 87.4668 427.329 88.2168C426.996 88.939 426.621 89.7029 426.204 90.5085C425.816 91.314 425.343 92.2029 424.788 93.1751C424.26 94.1196 423.607 95.189 422.829 96.3835C422.607 96.7168 422.496 97.1196 422.496 97.5918C422.496 98.1474 422.691 98.6474 423.079 99.0918C423.468 99.5362 424.01 99.7585 424.704 99.7585C425.01 99.7585 425.302 99.7029 425.579 99.5918Z" fill="white"/>
<path d="M57.092 101.546C57.2537 100.767 57.7142 100.083 58.376 99.6391C59.0378 99.1955 59.8487 99.0273 60.6365 99.1701C63.024 99.3009 66.0359 98.6847 67.1225 96.3109C68.2091 93.9371 67.5655 91.2703 65.4244 90.1356C63.2832 89.0008 61.633 90.2818 59.9756 90.8217C58.6615 91.2847 57.4838 92.0631 56.5462 93.0884C56.5854 93.3795 56.5322 93.6749 56.3941 93.9333C56.2561 94.1917 56.0401 94.4002 55.7763 94.5294C55.5125 94.6585 55.2142 94.702 54.9233 94.6537C54.6324 94.6054 54.3635 94.4677 54.1542 94.2599C52.2311 91.3121 56.7568 88.3784 59.0151 87.136C60.5631 85.9936 62.4414 85.3785 64.3736 85.3813C66.3058 85.3841 68.1899 86.0047 69.7483 87.1516C71.4045 88.7455 72.5153 90.8171 72.9221 93.0703C73.3288 95.3235 73.0107 97.6429 72.0131 99.6968C70.2976 104.12 56.8489 108.905 57.092 101.546Z" fill="white"/>
<path d="M361.436 101.507C361.597 100.728 362.058 100.044 362.72 99.6005C363.382 99.1569 364.192 98.9887 364.98 99.1315C367.368 99.2623 370.38 98.6462 371.466 96.2723C372.553 93.8985 371.909 91.2317 369.768 90.097C367.627 88.9623 365.977 90.2433 364.319 90.7831C363.005 91.2461 361.828 92.0246 360.89 93.0498C360.929 93.3409 360.876 93.6363 360.738 93.8948C360.6 94.1532 360.384 94.3616 360.12 94.4908C359.856 94.62 359.558 94.6634 359.267 94.6151C358.976 94.5668 358.707 94.4291 358.498 94.2214C356.575 91.2736 361.101 88.3399 363.359 87.0974C364.907 85.955 366.785 85.3399 368.717 85.3427C370.65 85.3455 372.534 85.9661 374.092 87.113C375.748 88.707 376.859 90.7786 377.266 93.0318C377.673 95.2849 377.354 97.6043 376.357 99.6582C374.641 104.081 361.193 108.866 361.436 101.507Z" fill="white"/>
<path d="M434.502 101.799C434.664 101.02 435.124 100.336 435.786 99.892C436.448 99.4484 437.259 99.2802 438.047 99.423C440.434 99.5538 443.446 98.9377 444.533 96.5638C445.619 94.19 444.976 91.5232 442.835 90.3885C440.693 89.2538 439.043 90.5348 437.386 91.0746C436.072 91.5376 434.894 92.3161 433.956 93.3413C433.996 93.6324 433.942 93.9278 433.804 94.1863C433.666 94.4447 433.45 94.6531 433.186 94.7823C432.923 94.9115 432.624 94.9549 432.333 94.9066C432.043 94.8583 431.774 94.7206 431.564 94.5129C429.641 91.5651 434.167 88.6314 436.425 87.3889C437.973 86.2465 439.852 85.6314 441.784 85.6342C443.716 85.637 445.6 86.2576 447.158 87.4045C448.815 88.9985 449.925 91.0701 450.332 93.3233C450.739 95.5764 450.421 97.8958 449.423 99.9497C447.708 104.373 434.259 109.158 434.502 101.799Z" fill="white"/>
<path d="M28.793 94.7523C28.3207 94.7523 27.8624 94.8912 27.418 95.1689C27.0013 95.4189 26.6124 95.7523 26.2513 96.1689C25.8902 96.5578 25.5707 96.9884 25.293 97.4606C25.0152 97.9328 24.793 98.3634 24.6263 98.7523C24.4041 99.2801 24.2096 99.8495 24.043 100.461C23.8763 101.044 23.6541 101.586 23.3763 102.086C23.0985 102.586 22.7374 103.002 22.293 103.336C21.8763 103.669 21.293 103.836 20.543 103.836C19.8763 103.836 19.2791 103.641 18.7513 103.252C18.2235 102.836 17.9596 102.35 17.9596 101.794C17.9596 100.877 18.0013 99.9606 18.0846 99.0439C18.1957 98.1273 18.2513 97.1828 18.2513 96.2106C18.2513 95.6828 18.2235 95.1273 18.168 94.5439C18.1402 93.9606 18.0569 93.4467 17.918 93.0023C17.8069 92.5301 17.6402 92.1412 17.418 91.8356C17.2235 91.5301 16.9735 91.3773 16.668 91.3773C15.6957 91.3773 14.8485 91.5856 14.1263 92.0023C13.4319 92.3912 12.7791 92.9328 12.168 93.6273C11.5846 94.2939 11.0013 95.0856 10.418 96.0023C9.86241 96.8912 9.23741 97.8356 8.54297 98.8356C8.29297 99.1967 7.98741 99.4467 7.6263 99.5856C7.29297 99.6967 7.0013 99.7523 6.7513 99.7523C6.33464 99.7523 5.95964 99.6551 5.6263 99.4606C5.26519 99.2384 5.0013 98.9606 4.83464 98.6273C4.64019 98.2939 4.54297 97.9328 4.54297 97.5439C4.54297 97.1273 4.66797 96.7245 4.91797 96.3356C5.69575 94.9745 6.47352 93.7245 7.2513 92.5856C8.05686 91.4467 8.91797 90.4745 9.83464 89.6689C10.7791 88.8356 11.8207 88.1967 12.9596 87.7523C14.1263 87.2801 15.4874 87.0439 17.043 87.0439C17.9874 87.0439 18.7791 87.2106 19.418 87.5439C20.0569 87.8495 20.5707 88.2801 20.9596 88.8356C21.3485 89.3634 21.6402 89.9884 21.8346 90.7106C22.0569 91.4328 22.2374 92.2106 22.3763 93.0439C23.3207 92.2939 24.3763 91.6689 25.543 91.1689C26.7374 90.6412 28.0013 90.3773 29.3346 90.3773C30.2791 90.3773 31.1402 90.5578 31.918 90.9189C32.6957 91.2801 33.418 91.7662 34.0846 92.3773C34.7513 92.9606 35.3763 93.6551 35.9596 94.4606C36.543 95.2662 37.1263 96.1134 37.7096 97.0023C38.3763 98.0301 38.9735 98.7662 39.5013 99.2106C40.0569 99.6551 40.5846 99.8773 41.0846 99.8773C41.8069 99.8773 42.4874 99.5439 43.1263 98.8773C43.793 98.2106 44.4457 97.3773 45.0846 96.3773C45.3069 96.0439 45.5846 95.7939 45.918 95.6273C46.2513 95.4606 46.5985 95.3773 46.9596 95.3773C47.4041 95.3773 47.7652 95.4606 48.043 95.6273C48.3208 95.7939 48.543 95.9884 48.7096 96.2106C48.8763 96.4328 48.9874 96.6828 49.043 96.9606C49.0985 97.2106 49.1263 97.419 49.1263 97.5856C49.1263 97.7523 49.1124 97.9328 49.0846 98.1273C49.0569 98.2939 49.0152 98.4051 48.9596 98.4606C48.5707 99.2106 48.1263 99.9328 47.6263 100.627C47.1263 101.322 46.5569 101.947 45.918 102.502C45.2791 103.03 44.5569 103.461 43.7513 103.794C42.9457 104.127 42.0569 104.294 41.0846 104.294C39.8902 104.294 38.8624 104.058 38.0013 103.586C37.168 103.113 36.4319 102.53 35.793 101.836C35.1541 101.113 34.5846 100.35 34.0846 99.5439C33.5846 98.7106 33.0707 97.9467 32.543 97.2523C32.043 96.5301 31.4874 95.9328 30.8763 95.4606C30.293 94.9884 29.5985 94.7523 28.793 94.7523Z" fill="white"/>
<path d="M385.201 35.2109C384.923 35.1276 384.728 34.8637 384.617 34.4193C384.534 33.9748 384.492 33.6276 384.492 33.3776C384.492 32.9609 384.617 32.6276 384.867 32.3776C385.145 32.1276 385.451 31.947 385.784 31.8359C386.145 31.7248 386.506 31.6554 386.867 31.6276C387.256 31.5998 387.562 31.5859 387.784 31.5859C389.089 31.5859 390.645 31.5998 392.451 31.6276C394.256 31.6554 396.131 31.6832 398.076 31.7109C400.02 31.7109 401.923 31.7248 403.784 31.7526C405.645 31.7804 407.27 31.7943 408.659 31.7943C409.103 31.7943 409.437 32.0165 409.659 32.4609C409.881 32.9054 409.992 33.322 409.992 33.7109C409.992 35.0443 408.687 35.7109 406.076 35.7109C405.437 35.7109 404.659 35.7109 403.742 35.7109C402.853 35.7109 401.881 35.7109 400.826 35.7109C399.77 35.6832 398.687 35.6693 397.576 35.6693C396.492 35.6415 395.464 35.6276 394.492 35.6276C393.52 35.5998 392.631 35.5859 391.826 35.5859C391.048 35.5582 390.437 35.5304 389.992 35.5026C389.076 35.447 388.173 35.4193 387.284 35.4193C386.423 35.4193 385.728 35.3498 385.201 35.2109Z" fill="white"/>
<path d="M345.333 26.3776C345.583 27.0165 345.708 27.7248 345.708 28.5026C345.708 29.3637 345.556 30.2804 345.25 31.2526C344.972 32.1971 344.569 33.1276 344.042 34.0443C343.514 34.9609 342.875 35.8359 342.125 36.6693C341.403 37.5026 340.611 38.2109 339.75 38.7943C340.167 39.1276 340.542 39.3915 340.875 39.5859C341.208 39.7526 341.556 39.8776 341.917 39.9609C342.306 40.0443 342.75 40.0998 343.25 40.1276C343.75 40.1554 344.375 40.1693 345.125 40.1693C346.375 40.1693 347.361 39.9193 348.083 39.4193C348.833 38.9193 349.458 38.3776 349.958 37.7943C350.458 37.1832 350.917 36.6276 351.333 36.1276C351.75 35.6276 352.278 35.3776 352.917 35.3776C353.111 35.3776 353.333 35.4193 353.583 35.5026C353.833 35.5582 354.069 35.6693 354.292 35.8359C354.514 36.0026 354.694 36.2248 354.833 36.5026C355 36.7804 355.083 37.1276 355.083 37.5443C355.083 37.9332 354.986 38.322 354.792 38.7109C354.347 39.5443 353.778 40.3221 353.083 41.0443C352.417 41.7387 351.653 42.3498 350.792 42.8776C349.958 43.3776 349.056 43.7804 348.083 44.0859C347.111 44.3915 346.125 44.5443 345.125 44.5443C342.792 44.5443 340.792 44.1832 339.125 43.4609C337.486 42.7109 336.153 41.7526 335.125 40.5859C334.069 39.3915 333.306 38.0582 332.833 36.5859C332.361 35.1137 332.125 33.6415 332.125 32.1693C332.125 31.0859 332.333 30.0026 332.75 28.9193C333.139 27.8359 333.681 26.8498 334.375 25.9609C335.069 25.072 335.889 24.3498 336.833 23.7943C337.806 23.2387 338.847 22.9609 339.958 22.9609C340.458 22.9609 340.986 23.0443 341.542 23.2109C342.097 23.3776 342.625 23.6137 343.125 23.9193C343.625 24.2248 344.069 24.5859 344.458 25.0026C344.847 25.4193 345.139 25.8776 345.333 26.3776ZM340.208 27.3359C339.625 27.3359 339.097 27.5026 338.625 27.8359C338.181 28.1693 337.806 28.5859 337.5 29.0859C337.222 29.5859 337 30.1554 336.833 30.7943C336.694 31.4054 336.625 32.0026 336.625 32.5859C336.625 33.1137 336.681 33.5998 336.792 34.0443C336.903 34.4887 337.083 34.8498 337.333 35.1276C338 34.6832 338.583 34.1832 339.083 33.6276C339.583 33.0721 340 32.5165 340.333 31.9609C340.667 31.4054 340.917 30.8637 341.083 30.3359C341.25 29.7804 341.333 29.2943 341.333 28.8776C341.333 28.4054 341.236 28.0304 341.042 27.7526C340.875 27.4748 340.597 27.3359 340.208 27.3359Z" fill="white"/>
<path d="M302.436 31.4609C302.436 31.3498 302.45 31.0859 302.478 30.6693C302.506 30.2526 302.52 29.8221 302.52 29.3776C302.547 28.9054 302.575 28.4609 302.603 28.0443C302.631 27.6276 302.645 27.3498 302.645 27.2109C302.645 26.6276 302.853 26.1137 303.27 25.6693C303.686 25.2248 304.214 25.0026 304.853 25.0026C305.464 25.0026 305.978 25.2248 306.395 25.6693C306.811 26.1137 307.02 26.5304 307.02 26.9193C307.02 27.2526 307.006 27.5998 306.978 27.9609C306.978 28.2943 306.978 28.6415 306.978 29.0026C306.978 29.9748 307.033 31.072 307.145 32.2943C307.256 33.5165 307.395 34.6693 307.561 35.7526C307.756 36.8359 307.978 37.7526 308.228 38.5026C308.478 39.2526 308.742 39.6276 309.02 39.6276C309.353 39.6276 309.645 39.447 309.895 39.0859C310.172 38.7248 310.408 38.2665 310.603 37.7109C310.825 37.1554 311.02 36.5443 311.186 35.8776C311.353 35.1832 311.506 34.5026 311.645 33.8359C311.811 33.1693 311.964 32.5582 312.103 32.0026C312.242 31.447 312.381 31.0165 312.52 30.7109C312.52 30.572 312.506 30.3498 312.478 30.0443C312.478 29.7387 312.478 29.4193 312.478 29.0859C312.478 28.7248 312.478 28.3915 312.478 28.0859C312.478 27.7526 312.478 27.4887 312.478 27.2943C312.478 26.6554 312.686 26.1276 313.103 25.7109C313.547 25.2943 314.075 25.0859 314.686 25.0859C315.158 25.0859 315.631 25.2526 316.103 25.5859C316.603 25.8915 316.853 26.4609 316.853 27.2943C316.853 27.6554 316.881 28.1693 316.936 28.8359C316.992 29.5026 317.061 30.2387 317.145 31.0443C317.228 31.822 317.325 32.6137 317.436 33.4193C317.547 34.2248 317.658 34.9609 317.77 35.6276C317.908 36.2943 318.033 36.8498 318.145 37.2943C318.283 37.7109 318.422 37.9193 318.561 37.9193C319.033 37.9193 319.464 37.7109 319.853 37.2943C320.242 36.8498 320.603 36.2804 320.936 35.5859C321.27 34.8915 321.561 34.1137 321.811 33.2526C322.061 32.3637 322.27 31.4748 322.436 30.5859C322.603 29.6971 322.728 28.8498 322.811 28.0443C322.895 27.2109 322.936 26.5026 322.936 25.9193C322.936 25.3637 323.117 24.8637 323.478 24.4193C323.867 23.947 324.422 23.7109 325.145 23.7109C325.617 23.7109 326.089 23.8776 326.561 24.2109C327.061 24.5443 327.311 25.1137 327.311 25.9193C327.311 28.9748 327.408 31.3915 327.603 33.1693C327.797 34.947 328.033 36.2943 328.311 37.2109C328.617 38.1276 328.95 38.7109 329.311 38.9609C329.7 39.2109 330.089 39.3359 330.478 39.3359C330.672 39.3359 330.908 39.2387 331.186 39.0443C331.492 38.8221 331.797 38.5582 332.103 38.2526C332.408 37.9471 332.728 37.6137 333.061 37.2526C333.422 36.8637 333.77 36.5026 334.103 36.1693C334.214 36.0859 334.395 35.9332 334.645 35.7109C334.895 35.4887 335.297 35.3776 335.853 35.3776C335.992 35.3776 336.186 35.4054 336.436 35.4609C336.686 35.5165 336.922 35.6276 337.145 35.7943C337.395 35.9609 337.603 36.1971 337.77 36.5026C337.936 36.7804 338.02 37.1415 338.02 37.5859C338.02 37.8915 337.964 38.1832 337.853 38.4609C337.742 38.7387 337.533 39.0304 337.228 39.3359C336.811 39.7248 336.353 40.1832 335.853 40.7109C335.353 41.2109 334.797 41.6971 334.186 42.1693C333.603 42.6137 332.978 43.0026 332.311 43.3359C331.645 43.6415 330.936 43.7943 330.186 43.7943C329.27 43.7943 328.478 43.5443 327.811 43.0443C327.172 42.5443 326.631 41.9332 326.186 41.2109C325.742 40.4887 325.395 39.7109 325.145 38.8776C324.895 38.0165 324.686 37.2248 324.52 36.5026C324.297 37.1693 323.992 37.8776 323.603 38.6276C323.242 39.3498 322.797 40.0165 322.27 40.6276C321.742 41.2109 321.131 41.7109 320.436 42.1276C319.742 42.5165 318.978 42.7109 318.145 42.7109C317.2 42.7109 316.45 42.2665 315.895 41.3776C315.339 40.4609 314.895 39.322 314.561 37.9609C314.061 39.1276 313.589 40.0998 313.145 40.8776C312.7 41.6554 312.256 42.2804 311.811 42.7526C311.367 43.1971 310.922 43.5165 310.478 43.7109C310.033 43.9054 309.547 44.0026 309.02 44.0026C307.853 44.0026 306.797 43.5582 305.853 42.6693C304.908 41.7804 304.158 40.2804 303.603 38.1693C303.52 38.2526 303.395 38.3915 303.228 38.5859C303.061 38.7526 302.867 38.9332 302.645 39.1276C302.422 39.2943 302.172 39.447 301.895 39.5859C301.645 39.697 301.381 39.7526 301.103 39.7526C300.908 39.7526 300.686 39.7248 300.436 39.6693C300.186 39.5859 299.95 39.4609 299.728 39.2943C299.478 39.1276 299.283 38.9054 299.145 38.6276C298.978 38.3498 298.895 38.0026 298.895 37.5859C298.895 37.0582 299.047 36.5998 299.353 36.2109C299.936 35.4609 300.45 34.7109 300.895 33.9609C301.339 33.1832 301.853 32.3498 302.436 31.4609Z" fill="white"/>
<path d="M285.04 17.7523C285.234 16.9745 285.623 16.3773 286.207 15.9606C286.79 15.5162 287.512 15.2939 288.373 15.2939C288.845 15.2939 289.248 15.3912 289.582 15.5856C289.915 15.7523 290.193 15.9745 290.415 16.2523C290.637 16.5023 290.804 16.7801 290.915 17.0856C291.026 17.3912 291.082 17.6551 291.082 17.8773C291.054 18.6828 290.804 19.3634 290.332 19.9189C289.859 20.4467 289.04 20.7384 287.873 20.7939C287.04 20.8495 286.345 20.6551 285.79 20.2106C285.207 19.7384 284.957 18.9189 285.04 17.7523ZM284.873 31.3356C284.818 30.9745 284.832 30.6412 284.915 30.3356C284.998 30.0301 285.137 29.7801 285.332 29.5856C285.526 29.3634 285.748 29.1967 285.998 29.0856C286.22 28.9467 286.443 28.8495 286.665 28.7939C286.776 28.7662 286.957 28.7662 287.207 28.7939C287.429 28.7939 287.665 28.8356 287.915 28.9189C288.165 29.0023 288.401 29.1551 288.623 29.3773C288.873 29.5995 289.054 29.9051 289.165 30.2939C289.332 30.8217 289.47 31.5856 289.582 32.5856C289.693 33.5578 289.873 34.5578 290.123 35.5856C290.401 36.6134 290.79 37.5717 291.29 38.4606C291.79 39.3495 292.498 39.9606 293.415 40.2939C294.026 40.5162 294.623 40.5162 295.207 40.2939C295.79 40.0439 296.332 39.6967 296.832 39.2523C297.359 38.8078 297.832 38.3217 298.248 37.7939C298.665 37.2384 298.998 36.7662 299.248 36.3773C299.47 36.0162 299.748 35.7662 300.082 35.6273C300.415 35.4606 300.762 35.3773 301.123 35.3773C301.568 35.3773 301.984 35.5023 302.373 35.7523C302.845 36.0578 303.137 36.5301 303.248 37.1689C303.387 37.7801 303.276 38.3356 302.915 38.8356C302.415 39.5578 301.887 40.2662 301.332 40.9606C300.776 41.6273 300.165 42.2384 299.498 42.7939C298.832 43.3495 298.095 43.8217 297.29 44.2106C296.484 44.5717 295.595 44.7801 294.623 44.8356C292.734 44.9467 291.22 44.6134 290.082 43.8356C288.943 43.0578 288.04 42.0162 287.373 40.7106C286.679 39.3773 286.165 37.8912 285.832 36.2523C285.47 34.6134 285.151 32.9745 284.873 31.3356Z" fill="white"/>
<path d="M267.133 44.5026C266.494 44.5026 265.98 44.2526 265.591 43.7526C265.202 43.2526 264.98 42.697 264.924 42.0859C264.73 39.8637 264.549 37.9748 264.383 36.4193C264.216 34.8359 264.049 33.447 263.883 32.2526C263.716 31.0582 263.549 29.9748 263.383 29.0026C263.188 28.0304 262.98 27.0443 262.758 26.0443C262.73 25.9609 262.702 25.8359 262.674 25.6693C262.647 25.5026 262.633 25.3082 262.633 25.0859C262.633 24.5859 262.813 24.1137 263.174 23.6693C263.536 23.197 264.299 22.9609 265.466 22.9609C265.772 22.9609 266.036 23.0443 266.258 23.2109C266.48 23.3776 266.661 23.7387 266.799 24.2943C266.994 25.1276 267.161 25.9054 267.299 26.6276C267.438 27.322 267.563 28.0026 267.674 28.6693C267.813 29.3359 267.938 30.0165 268.049 30.7109C268.161 31.4054 268.272 32.1693 268.383 33.0026L276.258 31.1693C276.147 29.8637 276.063 28.8082 276.008 28.0026C275.952 27.197 275.897 26.572 275.841 26.1276C275.813 25.6554 275.786 25.322 275.758 25.1276C275.758 24.9332 275.758 24.7804 275.758 24.6693C275.758 24.1415 275.841 23.7387 276.008 23.4609C276.174 23.1554 276.383 22.9332 276.633 22.7943C276.883 22.6554 277.133 22.572 277.383 22.5443C277.661 22.4887 277.897 22.4609 278.091 22.4609C278.286 22.4609 278.494 22.5026 278.716 22.5859C278.966 22.6693 279.188 22.8082 279.383 23.0026C279.605 23.197 279.786 23.4332 279.924 23.7109C280.063 23.9887 280.133 24.3082 280.133 24.6693C280.133 24.8359 280.161 25.322 280.216 26.1276C280.272 26.9332 280.355 27.9054 280.466 29.0443C280.605 30.1554 280.772 31.3498 280.966 32.6276C281.161 33.8776 281.397 35.0443 281.674 36.1276C281.952 37.1832 282.258 38.0582 282.591 38.7526C282.952 39.447 283.355 39.7943 283.799 39.7943C283.911 39.7943 284.077 39.7248 284.299 39.5859C284.549 39.4193 284.799 39.1971 285.049 38.9193C285.327 38.6137 285.591 38.2665 285.841 37.8776C286.119 37.4887 286.341 37.0443 286.508 36.5443C286.563 36.3498 286.772 36.1137 287.133 35.8359C287.494 35.5304 287.952 35.3776 288.508 35.3776C289.091 35.3776 289.591 35.5859 290.008 36.0026C290.452 36.4193 290.674 36.947 290.674 37.5859C290.674 37.8082 290.647 37.9887 290.591 38.1276C290.563 38.2665 290.522 38.4054 290.466 38.5443C290.161 39.2665 289.772 39.9748 289.299 40.6693C288.827 41.3359 288.299 41.9332 287.716 42.4609C287.133 42.9609 286.508 43.3776 285.841 43.7109C285.174 44.0165 284.494 44.1693 283.799 44.1693C282.883 44.1693 282.022 43.9054 281.216 43.3776C280.438 42.8498 279.73 42.1693 279.091 41.3359C278.48 40.5026 277.966 39.5721 277.549 38.5443C277.161 37.5165 276.883 36.4887 276.716 35.4609L269.049 37.2943C269.188 38.0443 269.286 38.8359 269.341 39.6693C269.397 40.4748 269.424 41.2526 269.424 42.0026C269.424 42.6693 269.202 43.2526 268.758 43.7526C268.313 44.2526 267.772 44.5026 267.133 44.5026Z" fill="white"/>
<path d="M232.612 31.4609C232.612 31.3498 232.626 31.0859 232.654 30.6693C232.681 30.2526 232.695 29.8221 232.695 29.3776C232.723 28.9054 232.751 28.4609 232.779 28.0443C232.806 27.6276 232.82 27.3498 232.82 27.2109C232.82 26.6276 233.029 26.1137 233.445 25.6693C233.862 25.2248 234.39 25.0026 235.029 25.0026C235.64 25.0026 236.154 25.2248 236.57 25.6693C236.987 26.1137 237.195 26.5304 237.195 26.9193C237.195 27.2526 237.181 27.5998 237.154 27.9609C237.154 28.2943 237.154 28.6415 237.154 29.0026C237.154 29.9748 237.209 31.072 237.32 32.2943C237.431 33.5165 237.57 34.6693 237.737 35.7526C237.931 36.8359 238.154 37.7526 238.404 38.5026C238.654 39.2526 238.918 39.6276 239.195 39.6276C239.529 39.6276 239.82 39.447 240.07 39.0859C240.348 38.7248 240.584 38.2665 240.779 37.7109C241.001 37.1554 241.195 36.5443 241.362 35.8776C241.529 35.1832 241.681 34.5026 241.82 33.8359C241.987 33.1693 242.14 32.5582 242.279 32.0026C242.418 31.447 242.556 31.0165 242.695 30.7109C242.695 30.572 242.681 30.3498 242.654 30.0443C242.654 29.7387 242.654 29.4193 242.654 29.0859C242.654 28.7248 242.654 28.3915 242.654 28.0859C242.654 27.7526 242.654 27.4887 242.654 27.2943C242.654 26.6554 242.862 26.1276 243.279 25.7109C243.723 25.2943 244.251 25.0859 244.862 25.0859C245.334 25.0859 245.806 25.2526 246.279 25.5859C246.779 25.8915 247.029 26.4609 247.029 27.2943C247.029 27.6554 247.056 28.1693 247.112 28.8359C247.168 29.5026 247.237 30.2387 247.32 31.0443C247.404 31.822 247.501 32.6137 247.612 33.4193C247.723 34.2248 247.834 34.9609 247.945 35.6276C248.084 36.2943 248.209 36.8498 248.32 37.2943C248.459 37.7109 248.598 37.9193 248.737 37.9193C249.209 37.9193 249.64 37.7109 250.029 37.2943C250.418 36.8498 250.779 36.2804 251.112 35.5859C251.445 34.8915 251.737 34.1137 251.987 33.2526C252.237 32.3637 252.445 31.4748 252.612 30.5859C252.779 29.6971 252.904 28.8498 252.987 28.0443C253.07 27.2109 253.112 26.5026 253.112 25.9193C253.112 25.3637 253.293 24.8637 253.654 24.4193C254.043 23.947 254.598 23.7109 255.32 23.7109C255.793 23.7109 256.265 23.8776 256.737 24.2109C257.237 24.5443 257.487 25.1137 257.487 25.9193C257.487 28.9748 257.584 31.3915 257.779 33.1693C257.973 34.947 258.209 36.2943 258.487 37.2109C258.793 38.1276 259.126 38.7109 259.487 38.9609C259.876 39.2109 260.265 39.3359 260.654 39.3359C260.848 39.3359 261.084 39.2387 261.362 39.0443C261.668 38.8221 261.973 38.5582 262.279 38.2526C262.584 37.9471 262.904 37.6137 263.237 37.2526C263.598 36.8637 263.945 36.5026 264.279 36.1693C264.39 36.0859 264.57 35.9332 264.82 35.7109C265.07 35.4887 265.473 35.3776 266.029 35.3776C266.168 35.3776 266.362 35.4054 266.612 35.4609C266.862 35.5165 267.098 35.6276 267.32 35.7943C267.57 35.9609 267.779 36.1971 267.945 36.5026C268.112 36.7804 268.195 37.1415 268.195 37.5859C268.195 37.8915 268.14 38.1832 268.029 38.4609C267.918 38.7387 267.709 39.0304 267.404 39.3359C266.987 39.7248 266.529 40.1832 266.029 40.7109C265.529 41.2109 264.973 41.6971 264.362 42.1693C263.779 42.6137 263.154 43.0026 262.487 43.3359C261.82 43.6415 261.112 43.7943 260.362 43.7943C259.445 43.7943 258.654 43.5443 257.987 43.0443C257.348 42.5443 256.806 41.9332 256.362 41.2109C255.918 40.4887 255.57 39.7109 255.32 38.8776C255.07 38.0165 254.862 37.2248 254.695 36.5026C254.473 37.1693 254.168 37.8776 253.779 38.6276C253.418 39.3498 252.973 40.0165 252.445 40.6276C251.918 41.2109 251.306 41.7109 250.612 42.1276C249.918 42.5165 249.154 42.7109 248.32 42.7109C247.376 42.7109 246.626 42.2665 246.07 41.3776C245.515 40.4609 245.07 39.322 244.737 37.9609C244.237 39.1276 243.765 40.0998 243.32 40.8776C242.876 41.6554 242.431 42.2804 241.987 42.7526C241.543 43.1971 241.098 43.5165 240.654 43.7109C240.209 43.9054 239.723 44.0026 239.195 44.0026C238.029 44.0026 236.973 43.5582 236.029 42.6693C235.084 41.7804 234.334 40.2804 233.779 38.1693C233.695 38.2526 233.57 38.3915 233.404 38.5859C233.237 38.7526 233.043 38.9332 232.82 39.1276C232.598 39.2943 232.348 39.447 232.07 39.5859C231.82 39.697 231.556 39.7526 231.279 39.7526C231.084 39.7526 230.862 39.7248 230.612 39.6693C230.362 39.5859 230.126 39.4609 229.904 39.2943C229.654 39.1276 229.459 38.9054 229.32 38.6276C229.154 38.3498 229.07 38.0026 229.07 37.5859C229.07 37.0582 229.223 36.5998 229.529 36.2109C230.112 35.4609 230.626 34.7109 231.07 33.9609C231.515 33.1832 232.029 32.3498 232.612 31.4609Z" fill="white"/>
<path d="M216.309 34.2526C216.281 33.4748 216.211 32.697 216.1 31.9193C216.017 31.1415 215.836 30.447 215.559 29.8359C215.309 29.197 214.934 28.6832 214.434 28.2943C213.961 27.8776 213.336 27.6693 212.559 27.6693C211.947 27.6693 211.406 27.8359 210.934 28.1693C210.461 28.4748 210.059 28.8637 209.725 29.3359C209.42 29.8082 209.184 30.3221 209.017 30.8776C208.85 31.4054 208.767 31.9054 208.767 32.3776C208.767 33.2109 208.92 34.0304 209.225 34.8359C209.559 35.6137 209.975 36.322 210.475 36.9609C211.003 37.572 211.572 38.072 212.184 38.4609C212.795 38.8498 213.392 39.0443 213.975 39.0443C214.253 39.0443 214.531 38.9609 214.809 38.7943C215.086 38.5998 215.336 38.322 215.559 37.9609C215.781 37.572 215.961 37.072 216.1 36.4609C216.239 35.8498 216.309 35.1137 216.309 34.2526ZM219.517 36.7943C219.517 37.2665 219.489 37.6554 219.434 37.9609C219.406 38.2665 219.322 38.7109 219.184 39.2943C218.795 40.4887 218.267 41.4332 217.6 42.1276C216.961 42.7943 216.114 43.2109 215.059 43.3776C213.864 43.5998 212.628 43.4332 211.35 42.8776C210.1 42.2943 208.947 41.4748 207.892 40.4193C206.864 39.3359 206.017 38.0859 205.35 36.6693C204.656 35.2248 204.309 33.7387 204.309 32.2109C204.309 31.0443 204.545 29.9332 205.017 28.8776C205.461 27.8221 206.059 26.8915 206.809 26.0859C207.559 25.2804 208.406 24.6415 209.35 24.1693C210.322 23.697 211.322 23.4609 212.35 23.4609C213.378 23.4609 214.309 23.6415 215.142 24.0026C216.003 24.3637 216.781 24.8637 217.475 25.5026C218.17 26.1137 218.795 26.8359 219.35 27.6693C219.906 28.5026 220.42 29.3915 220.892 30.3359C221.17 30.9471 221.489 31.7665 221.85 32.7943C222.239 33.7943 222.656 34.7804 223.1 35.7526C223.545 36.6971 224.017 37.5304 224.517 38.2526C225.045 38.9471 225.586 39.2943 226.142 39.2943C226.559 39.2943 226.92 39.1832 227.225 38.9609C227.559 38.7387 227.85 38.4748 228.1 38.1693C228.378 37.8637 228.628 37.5304 228.85 37.1693C229.072 36.8082 229.309 36.4748 229.559 36.1693C230.031 35.6137 230.531 35.3498 231.059 35.3776C231.614 35.4054 232.031 35.4887 232.309 35.6276C232.836 35.9054 233.184 36.3637 233.35 37.0026C233.545 37.6415 233.434 38.2665 233.017 38.8776C232.545 39.5443 232.031 40.1693 231.475 40.7526C230.92 41.3082 230.336 41.7943 229.725 42.2109C229.114 42.6276 228.489 42.9609 227.85 43.2109C227.239 43.4332 226.628 43.5443 226.017 43.5443C225.045 43.5443 224.239 43.3221 223.6 42.8776C222.961 42.4332 222.406 41.8776 221.934 41.2109C221.461 40.5165 221.045 39.7804 220.684 39.0026C220.322 38.1971 219.934 37.4609 219.517 36.7943Z" fill="white"/>
<path fill-rule="evenodd" clip-rule="evenodd" d="M176.142 39.5859C176.42 39.4748 176.67 39.2943 176.892 39.0443C177.059 38.8498 177.267 38.5443 177.517 38.1276C177.795 37.7109 178.059 37.2804 178.309 36.8359C178.559 36.3637 178.767 35.9054 178.934 35.4609C179.128 35.0165 179.253 34.6554 179.309 34.3776C179.309 37.7387 179.322 41.0026 179.35 44.1693C179.406 47.3082 179.434 50.4748 179.434 53.6693C179.434 57.9193 179.42 62.1276 179.392 66.2943V79.0443C179.392 79.4887 179.572 79.7804 179.934 79.9193C180.295 80.0859 180.684 80.1693 181.1 80.1693C181.906 80.1693 182.572 79.9609 183.1 79.5443C183.656 79.1554 183.934 78.6554 183.934 78.0443V71.4609V65.4193C183.961 63.447 183.975 61.4193 183.975 59.3359V52.6693C184.003 50.2804 184.017 47.6693 184.017 44.8359V35.3359L183.892 28.6693V27.7526C183.892 27.0582 183.85 26.5165 183.767 26.1276C183.711 25.7109 183.586 25.3915 183.392 25.1693C183.225 24.947 182.989 24.8082 182.684 24.7526C182.406 24.6693 182.045 24.6276 181.6 24.6276C181.211 24.6276 180.767 24.6832 180.267 24.7943C179.795 24.9054 179.392 25.2804 179.059 25.9193C178.642 26.697 178.253 27.4609 177.892 28.2109C177.559 28.9332 177.184 29.697 176.767 30.5026C176.378 31.3082 175.906 32.197 175.35 33.1693C174.822 34.1137 174.17 35.1832 173.392 36.3776C173.17 36.7109 173.059 37.1137 173.059 37.5859C173.059 38.1415 173.253 38.6415 173.642 39.0859C174.031 39.5304 174.572 39.7526 175.267 39.7526C175.572 39.7526 175.864 39.697 176.142 39.5859Z" fill="white"/>
<path d="M185.065 41.7931C185.226 41.0138 185.687 40.3298 186.349 39.8862C187.01 39.4425 187.821 39.2743 188.609 39.4172C190.997 39.548 194.009 38.9318 195.095 36.558C196.182 34.1841 195.538 31.5173 193.397 30.3826C191.256 29.2479 189.606 30.5289 187.948 31.0687C186.634 31.5318 185.456 32.3102 184.519 33.3355C184.558 33.6265 184.505 33.922 184.367 34.1804C184.229 34.4388 184.013 34.6472 183.749 34.7764C183.485 34.9056 183.187 34.9491 182.896 34.9008C182.605 34.8524 182.336 34.7148 182.127 34.507C180.204 31.5592 184.73 28.6255 186.988 27.3831C188.536 26.2407 190.414 25.6256 192.346 25.6284C194.278 25.6312 196.163 26.2518 197.721 27.3987C199.377 28.9926 200.488 31.0642 200.895 33.3174C201.301 35.5706 200.983 37.89 199.986 39.9439C198.27 44.3669 184.822 49.152 185.065 41.7931Z" fill="white"/>
<path d="M124.69 28.5856C124.218 28.5856 123.704 28.9189 123.148 29.5856C122.593 30.2245 121.996 31.0439 121.357 32.0439C120.746 33.0439 120.107 34.1551 119.44 35.3773C118.773 36.5717 118.093 37.7245 117.398 38.8356C117.26 39.0301 117.037 39.2384 116.732 39.4606C116.426 39.6551 116.037 39.7523 115.565 39.7523C114.871 39.7523 114.343 39.5162 113.982 39.0439C113.593 38.5717 113.398 38.0578 113.398 37.5023C113.398 37.1134 113.51 36.7384 113.732 36.3773C114.01 35.9051 114.385 35.2662 114.857 34.4606C115.329 33.6273 115.857 32.7384 116.44 31.7939C117.023 30.8495 117.662 29.8912 118.357 28.9189C119.051 27.9467 119.76 27.0717 120.482 26.2939C121.232 25.5162 121.996 24.8773 122.773 24.3773C123.579 23.8773 124.371 23.6273 125.148 23.6273C125.871 23.6273 126.482 23.8495 126.982 24.2939C127.482 24.7106 127.885 25.2662 128.19 25.9606C128.496 26.6273 128.718 27.3773 128.857 28.2106C128.996 29.0162 129.065 29.8078 129.065 30.5856C129.065 31.0578 129.037 31.5023 128.982 31.9189C128.954 32.3356 128.898 32.6967 128.815 33.0023C129.148 32.4745 129.537 31.6967 129.982 30.6689C130.426 29.6412 130.954 28.6273 131.565 27.6273C132.176 26.5995 132.871 25.7106 133.648 24.9606C134.426 24.2106 135.301 23.8356 136.273 23.8356C137.329 23.8356 138.26 24.0717 139.065 24.5439C139.898 24.9884 140.621 25.5717 141.232 26.2939C141.871 27.0162 142.412 27.8356 142.857 28.7523C143.301 29.6412 143.662 30.5439 143.94 31.4606C144.246 32.3495 144.482 33.1828 144.648 33.9606C144.843 34.7384 144.996 35.3773 145.107 35.8773C145.468 34.5995 145.829 33.1967 146.19 31.6689C146.551 30.1412 147.01 28.7245 147.565 27.4189C148.148 26.1134 148.871 25.0162 149.732 24.1273C150.621 23.2384 151.732 22.7939 153.065 22.7939C154.482 22.7939 155.732 23.1828 156.815 23.9606C157.898 24.7106 158.885 25.6689 159.773 26.8356C160.662 28.0023 161.482 29.2523 162.232 30.5856C163.01 31.9189 163.801 33.1689 164.607 34.3356C165.412 35.5023 166.273 36.4745 167.19 37.2523C168.107 38.0023 169.162 38.3773 170.357 38.3773C170.829 38.3773 171.343 38.2106 171.898 37.8773C172.482 37.5439 173.01 37.0301 173.482 36.3356C173.926 35.6967 174.537 35.3773 175.315 35.3773C175.954 35.3773 176.468 35.5995 176.857 36.0439C177.273 36.4884 177.482 37.0023 177.482 37.5856C177.482 38.0023 177.357 38.4189 177.107 38.8356C176.44 39.8912 175.621 40.8078 174.648 41.5856C173.676 42.3634 172.454 42.7523 170.982 42.7523C169.176 42.7523 167.579 42.3773 166.19 41.6273C164.829 40.8495 163.621 39.9051 162.565 38.7939C161.51 37.6551 160.579 36.4189 159.773 35.0856C158.996 33.7523 158.273 32.5301 157.607 31.4189C156.968 30.2801 156.343 29.3356 155.732 28.5856C155.148 27.8078 154.523 27.4189 153.857 27.4189C153.385 27.4189 152.94 27.7384 152.523 28.3773C152.107 28.9884 151.704 29.8078 151.315 30.8356C150.926 31.8356 150.551 32.9745 150.19 34.2523C149.829 35.5023 149.482 36.7523 149.148 38.0023C148.843 39.2523 148.537 40.4467 148.232 41.5856C147.926 42.6967 147.635 43.6273 147.357 44.3773C147.218 44.7662 147.01 45.1412 146.732 45.5023C146.482 45.8634 146.079 46.0439 145.523 46.0439C145.162 46.0439 144.843 45.9745 144.565 45.8356C144.315 45.6967 144.065 45.4606 143.815 45.1273C143.593 44.8495 143.329 44.2384 143.023 43.2939C142.746 42.3495 142.412 41.2523 142.023 40.0023C141.662 38.7523 141.273 37.4328 140.857 36.0439C140.44 34.6551 139.996 33.3912 139.523 32.2523C139.079 31.0856 138.607 30.1273 138.107 29.3773C137.635 28.5995 137.162 28.2106 136.69 28.2106C136.412 28.2106 136.037 28.5995 135.565 29.3773C135.121 30.1273 134.607 31.0856 134.023 32.2523C133.468 33.4189 132.843 34.6689 132.148 36.0023C131.482 37.3356 130.773 38.5856 130.023 39.7523C129.301 40.9189 128.551 41.8912 127.773 42.6689C127.023 43.4189 126.273 43.7939 125.523 43.7939C124.746 43.7939 124.148 43.6689 123.732 43.4189C123.343 43.1689 123.148 42.6828 123.148 41.9606C123.148 41.3773 123.26 40.6828 123.482 39.8773C123.732 39.0439 123.996 38.1551 124.273 37.2106C124.551 36.2384 124.801 35.2384 125.023 34.2106C125.273 33.1551 125.398 32.0995 125.398 31.0439C125.398 30.4051 125.343 29.8356 125.232 29.3356C125.148 28.8356 124.968 28.5856 124.69 28.5856Z" fill="white"/>
<path d="M104.263 31.9608C104.263 31.433 104.221 30.8636 104.138 30.2524C104.082 29.6413 103.93 29.0858 103.68 28.5858C103.43 28.0858 103.069 27.6691 102.596 27.3358C102.124 27.0024 101.499 26.8358 100.721 26.8358C100.194 26.8358 99.638 26.9747 99.0547 27.2524C98.4991 27.5302 97.9714 27.9608 97.4714 28.5441C96.9991 29.0997 96.6102 29.8219 96.3047 30.7108C95.9991 31.5997 95.8464 32.6691 95.8464 33.9191C95.8464 34.7524 96.013 35.6136 96.3464 36.5024C96.6797 37.3913 97.1797 38.1969 97.8464 38.9191C98.5408 39.6413 99.4019 40.2386 100.43 40.7108C101.485 41.183 102.707 41.4191 104.096 41.4191C105.485 41.4191 106.652 41.2802 107.596 41.0024C108.541 40.6969 109.374 40.2941 110.096 39.7941C110.846 39.2663 111.527 38.6691 112.138 38.0024C112.777 37.3358 113.471 36.6274 114.221 35.8774C114.555 35.5441 115.027 35.3774 115.638 35.3774C116.055 35.3774 116.402 35.4608 116.68 35.6274C116.957 35.7663 117.18 35.9608 117.346 36.2108C117.513 36.433 117.624 36.6691 117.68 36.9191C117.763 37.1413 117.805 37.3358 117.805 37.5024C117.805 37.808 117.749 38.0997 117.638 38.3774C117.527 38.6274 117.402 38.8497 117.263 39.0441C116.596 39.9608 115.763 40.8358 114.763 41.6691C113.763 42.4747 112.666 43.183 111.471 43.7941C110.277 44.4052 109.013 44.8913 107.68 45.2524C106.346 45.6136 105.013 45.7941 103.68 45.7941C102.346 45.7941 100.957 45.5441 99.513 45.0441C98.0963 44.5441 96.7769 43.7941 95.5547 42.7941C94.3602 41.7941 93.3741 40.5441 92.5964 39.0441C91.8186 37.5441 91.4297 35.808 91.4297 33.8358C91.4297 32.6969 91.5825 31.4747 91.888 30.1691C92.1658 28.8358 92.6936 27.5997 93.4714 26.4608C94.2214 25.3219 95.263 24.3774 96.5964 23.6274C97.9575 22.8774 99.6936 22.5024 101.805 22.5024C102.805 22.5024 103.721 22.7386 104.555 23.2108C105.416 23.683 106.138 24.3358 106.721 25.1691C107.332 25.9747 107.805 26.933 108.138 28.0441C108.499 29.1274 108.68 30.2802 108.68 31.5024C108.68 32.308 108.499 32.9469 108.138 33.4191C107.805 33.8636 107.235 34.0858 106.43 34.0858C105.541 34.0858 104.957 33.8636 104.68 33.4191C104.402 32.9747 104.263 32.4886 104.263 31.9608Z" fill="white"/>
<path d="M61.7279 21.9608C61.9779 21.8774 62.2279 21.8219 62.4779 21.7941C62.7279 21.7663 62.964 21.7524 63.1862 21.7524C63.8251 21.7524 64.2834 22.058 64.5612 22.6691C64.839 23.2524 64.9779 24.1136 64.9779 25.2524C64.9779 25.6691 64.964 26.2247 64.9362 26.9191C64.9362 27.6136 64.9362 28.3219 64.9362 29.0441C64.9362 29.7663 64.9223 30.4747 64.8945 31.1691C64.8945 31.8358 64.8945 32.3497 64.8945 32.7108C64.8945 33.7108 65.0056 34.6969 65.2279 35.6691C65.4779 36.6136 65.839 37.4608 66.3112 38.2108C66.8112 38.933 67.4084 39.5163 68.1029 39.9608C68.8251 40.4052 69.6723 40.6274 70.6445 40.6274C71.6723 40.6274 72.5334 40.3774 73.2279 39.8774C73.9501 39.3774 74.5473 38.7247 75.0195 37.9191C75.4918 37.1136 75.8529 36.1969 76.1029 35.1691C76.3806 34.1413 76.6029 33.0997 76.7695 32.0441C76.964 30.9608 77.1168 29.933 77.2279 28.9608C77.3668 27.9608 77.5195 27.0858 77.6862 26.3358C77.7695 25.9469 78.0195 25.5719 78.4362 25.2108C78.8529 24.8497 79.3945 24.6691 80.0612 24.6691C80.2001 24.6691 80.3806 24.683 80.6029 24.7108C80.8251 24.7108 81.0334 24.7386 81.2279 24.7941C81.4501 24.8219 81.6445 24.8774 81.8112 24.9608C81.9779 25.0441 82.1029 25.1552 82.1862 25.2941C82.4918 25.8219 82.7418 26.5302 82.9362 27.4191C83.1584 28.308 83.3668 29.2663 83.5612 30.2941C83.7556 31.3219 83.964 32.3636 84.1862 33.4191C84.4362 34.4747 84.7279 35.433 85.0612 36.2941C85.3945 37.1274 85.8112 37.8219 86.3112 38.3774C86.8112 38.9052 87.4223 39.1691 88.1445 39.1691C88.5056 39.1691 88.839 39.0997 89.1445 38.9608C89.4501 38.7941 89.7556 38.5858 90.0612 38.3358C90.3945 38.058 90.7279 37.7247 91.0612 37.3358C91.4223 36.9469 91.8529 36.5163 92.3529 36.0441C92.6029 35.7941 92.8529 35.6274 93.1029 35.5441C93.3806 35.433 93.6445 35.3774 93.8945 35.3774C94.3112 35.3774 94.6584 35.4469 94.9362 35.5858C95.2418 35.7247 95.4779 35.9052 95.6445 36.1274C95.839 36.3497 95.964 36.5997 96.0195 36.8774C96.1029 37.1274 96.1445 37.3774 96.1445 37.6274C96.1445 37.9608 96.0612 38.2941 95.8945 38.6274C95.7279 38.9608 95.4084 39.4052 94.9362 39.9608C94.4918 40.5163 93.9084 41.0719 93.1862 41.6274C92.464 42.183 91.6168 42.6691 90.6445 43.0858C89.7001 43.4747 88.6306 43.6691 87.4362 43.6691C86.3529 43.6691 85.4501 43.4608 84.7279 43.0441C84.0056 42.5997 83.3806 42.0302 82.8529 41.3358C82.3529 40.6413 81.9084 39.8913 81.5195 39.0858C81.1584 38.2524 80.7973 37.433 80.4362 36.6274C80.0473 37.6274 79.5612 38.6274 78.9779 39.6274C78.4223 40.5997 77.7556 41.4886 76.9779 42.2941C76.2001 43.0719 75.3112 43.7108 74.3112 44.2108C73.339 44.683 72.2695 44.933 71.1029 44.9608C68.6584 44.9886 66.7279 44.558 65.3112 43.6691C63.9223 42.7802 62.8806 41.6136 62.1862 40.1691C61.464 38.7247 61.0056 37.0997 60.8112 35.2941C60.6168 33.4608 60.5195 31.6274 60.5195 29.7941C60.5195 29.0441 60.5334 28.308 60.5612 27.5858C60.5612 26.8358 60.5612 26.1136 60.5612 25.4191C60.5612 25.2247 60.5751 24.9469 60.6029 24.5858C60.6029 24.2247 60.6445 23.8774 60.7279 23.5441C60.8112 23.183 60.9362 22.8497 61.1029 22.5441C61.2418 22.2386 61.4501 22.0441 61.7279 21.9608ZM63.1029 13.4608C63.1029 13.4052 63.089 13.3636 63.0612 13.3358C63.0612 13.308 63.0612 13.2663 63.0612 13.2108C63.0612 12.7386 63.2556 12.4052 63.6445 12.2108C64.0334 11.9886 64.5056 11.8774 65.0612 11.8774C65.6168 11.8774 66.1584 12.1274 66.6862 12.6274C67.214 13.0997 67.7556 13.6413 68.3112 14.2524C68.8668 14.8358 69.464 15.3774 70.1029 15.8774C70.7695 16.3497 71.5056 16.5858 72.3112 16.5858C73.1445 16.5858 73.839 16.3774 74.3945 15.9608C74.9501 15.5441 75.4779 15.0719 75.9779 14.5441C76.4779 13.9886 77.0056 13.4469 77.5612 12.9191C78.1168 12.3913 78.8112 12.0024 79.6445 11.7524C80.2834 11.7524 80.7695 11.8774 81.1029 12.1274C81.464 12.3774 81.6445 12.7663 81.6445 13.2941C81.4501 13.8774 81.089 14.5858 80.5612 15.4191C80.0612 16.2247 79.4084 17.0163 78.6029 17.7941C77.7973 18.5441 76.8529 19.1969 75.7695 19.7524C74.6862 20.2802 73.4918 20.5441 72.1862 20.5441C71.1029 20.5441 70.0473 20.2663 69.0195 19.7108C68.0195 19.1552 67.1029 18.5024 66.2695 17.7524C65.4362 17.0024 64.7279 16.2247 64.1445 15.4191C63.589 14.6136 63.2418 13.9608 63.1029 13.4608Z" fill="white"/>
<path d="M48.0938 34.2526C48.066 33.4748 47.9965 32.697 47.8854 31.9193C47.8021 31.1415 47.6215 30.447 47.3438 29.8359C47.0938 29.197 46.7188 28.6832 46.2188 28.2943C45.7465 27.8776 45.1215 27.6693 44.3438 27.6693C43.7326 27.6693 43.191 27.8359 42.7188 28.1693C42.2465 28.4748 41.8437 28.8637 41.5104 29.3359C41.2049 29.8082 40.9688 30.3221 40.8021 30.8776C40.6354 31.4054 40.5521 31.9054 40.5521 32.3776C40.5521 33.2109 40.7049 34.0304 41.0104 34.8359C41.3437 35.6137 41.7604 36.322 42.2604 36.9609C42.7882 37.572 43.3576 38.072 43.9688 38.4609C44.5799 38.8498 45.1771 39.0443 45.7604 39.0443C46.0382 39.0443 46.316 38.9609 46.5938 38.7943C46.8715 38.5998 47.1215 38.322 47.3438 37.9609C47.566 37.572 47.7465 37.072 47.8854 36.4609C48.0243 35.8498 48.0938 35.1137 48.0938 34.2526ZM51.3021 36.7943C51.3021 37.2665 51.2743 37.6554 51.2188 37.9609C51.191 38.2665 51.1076 38.7109 50.9688 39.2943C50.5799 40.4887 50.0521 41.4332 49.3854 42.1276C48.7465 42.7943 47.8993 43.2109 46.8438 43.3776C45.6493 43.5998 44.4132 43.4332 43.1354 42.8776C41.8854 42.2943 40.7326 41.4748 39.6771 40.4193C38.6493 39.3359 37.8021 38.0859 37.1354 36.6693C36.441 35.2248 36.0938 33.7387 36.0938 32.2109C36.0938 31.0443 36.3299 29.9332 36.8021 28.8776C37.2465 27.8221 37.8438 26.8915 38.5938 26.0859C39.3438 25.2804 40.191 24.6415 41.1354 24.1693C42.1076 23.697 43.1076 23.4609 44.1354 23.4609C45.1632 23.4609 46.0937 23.6415 46.9271 24.0026C47.7882 24.3637 48.566 24.8637 49.2604 25.5026C49.9549 26.1137 50.5799 26.8359 51.1354 27.6693C51.691 28.5026 52.2049 29.3915 52.6771 30.3359C52.9549 30.9471 53.2743 31.7665 53.6354 32.7943C54.0243 33.7943 54.441 34.7804 54.8854 35.7526C55.3299 36.6971 55.8021 37.5304 56.3021 38.2526C56.8299 38.9471 57.3715 39.2943 57.9271 39.2943C58.3438 39.2943 58.7049 39.1832 59.0104 38.9609C59.3438 38.7387 59.6354 38.4748 59.8854 38.1693C60.1632 37.8637 60.4132 37.5304 60.6354 37.1693C60.8576 36.8082 61.0938 36.4748 61.3438 36.1693C61.816 35.6137 62.316 35.3498 62.8438 35.3776C63.3993 35.4054 63.816 35.4887 64.0938 35.6276C64.6215 35.9054 64.9688 36.3637 65.1354 37.0026C65.3299 37.6415 65.2188 38.2665 64.8021 38.8776C64.3299 39.5443 63.816 40.1693 63.2604 40.7526C62.7049 41.3082 62.1215 41.7943 61.5104 42.2109C60.8993 42.6276 60.2743 42.9609 59.6354 43.2109C59.0243 43.4332 58.4132 43.5443 57.8021 43.5443C56.8299 43.5443 56.0243 43.3221 55.3854 42.8776C54.7465 42.4332 54.191 41.8776 53.7188 41.2109C53.2465 40.5165 52.8299 39.7804 52.4688 39.0026C52.1076 38.1971 51.7187 37.4609 51.3021 36.7943Z" fill="white"/>
<path d="M7.30769 50.1197C7.30108 41.7372 8.01564 33.3567 8.19625 24.9403C8.00498 19.7262 8.41462 14.5093 9.41721 9.39102C10.8249 6.70184 14.6453 9.4057 12.8077 11.7217C12.5507 24.4566 13.4238 37.3118 13.7354 49.9105C13.7395 50.7412 13.4179 51.54 12.8387 52.1376C12.2594 52.7351 11.4681 53.0846 10.6324 53.1118C9.79667 53.139 8.98219 52.8418 8.36158 52.2833C7.74097 51.7248 7.36296 50.9488 7.30769 50.1197Z" fill="white"/>
<path d="M25.7201 45.377C25.5261 40.431 25.4362 35.5059 25.4225 30.5604C21.5461 32.1731 17.5886 33.5874 13.5655 34.7976C12.6115 35.1862 11.5783 35.3461 10.5493 35.2643C10.1191 35.1853 9.73202 34.9538 9.46012 34.6129C9.18822 34.2719 9.05003 33.8449 9.07125 33.4111C9.09247 32.9773 9.27163 32.5664 9.57544 32.2548C9.87925 31.9433 10.287 31.7523 10.7227 31.7175C13.6003 30.3274 16.568 29.0271 19.4456 27.637C20.7631 26.8279 22.9819 26.5586 23.19 24.8097C24.567 18.9923 25.5632 13.0913 26.1723 7.14387C26.1362 6.10906 26.4299 5.09026 27.0114 4.23267C27.2883 3.9123 27.6533 3.67923 28.0619 3.56187C28.4706 3.44452 28.905 3.44797 29.3124 3.57182C29.7197 3.69568 30.0823 3.93453 30.3559 4.2593C30.6294 4.58406 30.802 4.98065 30.8526 5.40063C30.2004 16.6949 30.2693 28.3493 30.5185 39.6461C30.2549 42.2076 32.1615 46.8898 28.4935 47.5476C27.8378 47.6197 27.1792 47.4325 26.6601 47.0262C26.1411 46.62 25.8034 46.0275 25.7201 45.377Z" fill="white"/>
</svg>
