<svg width="257" height="182" viewBox="0 0 257 182" fill="none" xmlns="http://www.w3.org/2000/svg">
<path d="M59.6691 92.4565C53.8411 91.0369 46.444 90.9621 42.8201 85.433C41.987 84.045 41.5469 82.4567 41.5469 80.8379C41.5469 79.2191 41.987 77.6307 42.8201 76.2428C50.2919 65.4087 75.0608 68.771 79.1703 81.2115C79.6343 82.8025 79.6386 84.4924 79.1824 86.0857C78.7262 87.679 77.8284 89.1105 76.5928 90.215C72.1097 94.3618 65.1982 93.2411 59.6691 92.4565Z" fill="white"/>
<path d="M44.7292 77.9232C41.2922 77.4002 37.6685 75.607 37.5938 71.6843C37.6662 70.6319 38.0572 69.6266 38.7152 68.8021C39.3731 67.9776 40.2665 67.373 41.2765 67.0688C42.2865 66.7646 43.3653 66.7752 44.3692 67.0991C45.373 67.4231 46.2545 68.0451 46.8961 68.8824C50.6693 71.9458 50.5572 78.1847 44.7292 77.9232Z" fill="#231F20"/>
<path d="M42.3361 97.1644C40.4681 95.2591 42.3362 93.2418 43.9053 91.8968C45.272 90.4372 46.3156 88.706 46.9686 86.816C48.164 84.9107 50.7046 86.2556 50.4057 88.3104C50.4057 91.187 45.9599 100.527 42.3361 97.1644Z" fill="#231F20"/>
<path d="M70.8812 99.483C68.283 96.549 66.9414 92.7119 67.1453 88.7983C67.2054 88.5858 67.3231 88.3942 67.4855 88.2445C67.6478 88.0949 67.8484 87.9932 68.0651 87.9506C68.2817 87.9081 68.506 87.9264 68.7129 88.0035C68.9198 88.0805 69.1013 88.2134 69.2374 88.3873C70.7071 91.1336 72.5697 93.6508 74.7664 95.8591C75.2469 96.3744 75.5033 97.0594 75.4787 97.7635C75.4542 98.4676 75.151 99.1331 74.6357 99.6137C74.1205 100.094 73.4354 100.35 72.7313 100.326C72.0272 100.301 71.3617 99.9982 70.8812 99.483Z" fill="#231F20"/>
<path d="M115.454 69.3339C107.347 68.3252 96.7747 66.8682 98.3438 56.1088C101.631 40.306 124.308 40.6048 131.967 52.6344C133.52 54.7892 134.239 57.4337 133.992 60.0782C133.744 62.7227 132.547 65.188 130.622 67.0176C126.625 70.8282 120.535 70.1184 115.454 69.3339Z" fill="white"/>
<path d="M125.763 56.0688C120.309 49.12 132.936 43.2547 138.503 46.5796C139.075 46.8728 139.576 47.2888 139.969 47.7978C140.363 48.3069 140.639 48.8965 140.778 49.5245C140.917 50.1525 140.916 50.8035 140.775 51.431C140.633 52.0586 140.355 52.6471 139.96 53.1548C137.88 55.1212 135.126 56.2173 132.264 56.2182C131.361 57.0174 130.19 57.4461 128.984 57.4184C127.779 57.3907 126.629 56.9086 125.763 56.0688Z" fill="#231F20"/>
<path d="M98.7181 74.825C98.5238 74.4654 98.4063 74.0694 98.3731 73.662C98.3398 73.2546 98.3915 72.8448 98.5249 72.4584C98.6584 72.0721 98.8707 71.7177 99.1483 71.4177C99.4259 71.1177 99.7629 70.8785 100.138 70.7155C102.001 69.4377 103.589 67.7989 104.808 65.8963C104.781 65.4547 104.86 65.0131 105.037 64.6077C105.214 64.2022 105.484 63.8445 105.826 63.5637C106.168 63.2829 106.571 63.087 107.003 62.992C107.435 62.8971 107.884 62.9058 108.312 63.0175C108.74 63.1292 109.135 63.3406 109.466 63.6345C109.796 63.9284 110.053 64.2964 110.214 64.7084C110.375 65.1204 110.436 65.5647 110.393 66.0049C110.349 66.4451 110.202 66.8688 109.963 67.2412C109.291 70.865 102.192 79.4202 98.7181 74.825Z" fill="#231F20"/>
<path d="M123.784 74.2277C122.965 73.1473 122.264 71.9826 121.692 70.7533C120.758 68.9601 120.609 65.8219 123.037 65.1495C124.419 64.7012 125.615 65.8966 126.026 67.1295C127.035 68.848 129.351 69.6699 129.762 71.7994C129.907 72.5473 129.788 73.3225 129.425 73.9925C129.062 74.6624 128.478 75.1854 127.772 75.4722C127.066 75.759 126.282 75.7917 125.555 75.5647C124.828 75.3377 124.202 74.8651 123.784 74.2277Z" fill="#231F20"/>
<path d="M49.3623 19.197C42.5256 11.9868 51.4919 3.20742 58.8516 1.33948C62.0992 0.34408 65.5173 0.0293906 68.8921 0.415079C72.2668 0.800768 75.5258 1.87856 78.4651 3.58103C79.8222 4.27709 80.9865 5.29741 81.8546 6.55146C82.7227 7.80551 83.2677 9.25444 83.4414 10.7697C83.6151 12.285 83.4119 13.8198 82.8501 15.2377C82.2883 16.6557 81.3852 17.9131 80.2208 18.8982C75.9993 21.999 70.3954 21.7748 65.2772 21.9616C60.1591 22.1484 53.5091 23.2692 49.3623 19.197Z" fill="white"/>
<path d="M79.815 12.8813C79.0348 12.1999 78.4545 11.3193 78.1361 10.3336C77.8176 9.34786 77.7732 8.29415 78.0072 7.28509C78.2413 6.27602 78.7452 5.34954 79.465 4.60465C80.1848 3.85975 81.0934 3.3244 82.0938 3.05593C84.9631 2.23936 88.0356 2.54666 90.6863 3.91522C91.2047 4.29537 91.6424 4.77463 91.9742 5.32525C92.3059 5.87586 92.5252 6.48684 92.619 7.12279C92.7129 7.75875 92.6796 8.40705 92.521 9.03002C92.3624 9.65298 92.0816 10.2383 91.6951 10.7519C90.0761 12.1186 88.1258 13.0348 86.0404 13.4086C83.9549 13.7825 81.8078 13.6006 79.815 12.8813Z" fill="#231F20"/>
<path d="M48.6929 34.739C48.2282 34.5192 47.8208 34.1948 47.5026 33.791C47.1845 33.3873 46.9641 32.9153 46.8592 32.4121C46.7542 31.9088 46.7673 31.3882 46.8975 30.8909C47.0277 30.3936 47.2715 29.9333 47.6096 29.5461C49.0196 27.1018 49.8502 24.3668 50.0378 21.5513C49.5536 21.0146 49.2747 20.3241 49.2504 19.6017C49.2262 18.8794 49.4581 18.1717 49.9053 17.6038C50.3524 17.0359 50.986 16.6445 51.6939 16.4986C52.4018 16.3527 53.1384 16.4618 53.7737 16.8067C56.7624 18.5252 54.7077 26.52 54.0352 29.3966C53.3627 32.2732 52.2046 36.1212 48.6929 34.739Z" fill="#231F20"/>
<path d="M72.1499 35.187C71.7762 35.076 71.4302 34.8874 71.1346 34.6333C70.8389 34.3792 70.6004 34.0654 70.4345 33.7126C70.2687 33.3598 70.1793 32.9759 70.1723 32.5862C70.1653 32.1964 70.2409 31.8096 70.394 31.4511C71.44 28.6865 72.4861 25.8846 73.4948 23.0826C74.3167 21.5883 73.8685 19.6083 74.9519 18.4502C75.1994 18.1974 75.51 18.0155 75.8516 17.9236C76.1933 17.8316 76.5534 17.8328 76.8944 17.9271C80.182 19.3841 77.268 25.1374 76.8944 27.7899C75.9604 30.405 76.2221 35.9341 72.1499 35.187Z" fill="#231F20"/>
<path d="M213.101 165.875C206.264 158.665 215.23 149.886 222.59 148.018C225.838 147.022 229.256 146.708 232.63 147.093C236.005 147.479 239.264 148.557 242.203 150.259C243.56 150.955 244.725 151.976 245.593 153.23C246.461 154.484 247.006 155.933 247.18 157.448C247.353 158.963 247.15 160.498 246.588 161.916C246.027 163.334 245.124 164.591 243.959 165.576C239.738 168.677 234.134 168.453 229.016 168.64C223.897 168.827 217.247 169.947 213.101 165.875Z" fill="white"/>
<path d="M243.549 159.56C242.769 158.878 242.189 157.997 241.87 157.012C241.552 156.026 241.508 154.972 241.742 153.963C241.976 152.954 242.48 152.028 243.199 151.283C243.919 150.538 244.828 150.003 245.828 149.734C248.697 148.918 251.77 149.225 254.421 150.593C254.939 150.974 255.377 151.453 255.709 152.003C256.04 152.554 256.26 153.165 256.353 153.801C256.447 154.437 256.414 155.085 256.255 155.708C256.097 156.331 255.816 156.916 255.429 157.43C253.81 158.797 251.86 159.713 249.775 160.087C247.689 160.461 245.542 160.279 243.549 159.56Z" fill="#231F20"/>
<path d="M212.431 181.417C211.966 181.197 211.559 180.872 211.241 180.469C210.923 180.065 210.702 179.593 210.597 179.09C210.492 178.587 210.506 178.066 210.636 177.569C210.766 177.071 211.01 176.611 211.348 176.224C212.758 173.78 213.588 171.045 213.776 168.229C213.292 167.692 213.013 167.002 212.989 166.279C212.964 165.557 213.196 164.849 213.644 164.282C214.091 163.714 214.724 163.322 215.432 163.176C216.14 163.03 216.877 163.14 217.512 163.484C220.501 165.203 218.446 173.198 217.773 176.074C217.101 178.951 215.943 182.799 212.431 181.417Z" fill="#231F20"/>
<path d="M235.888 181.865C235.515 181.754 235.168 181.565 234.873 181.311C234.577 181.057 234.339 180.743 234.173 180.39C234.007 180.038 233.918 179.654 233.911 179.264C233.904 178.874 233.979 178.487 234.132 178.129C235.178 175.364 236.224 172.562 237.233 169.76C238.055 168.266 237.607 166.286 238.69 165.128C238.938 164.875 239.248 164.693 239.59 164.601C239.932 164.509 240.292 164.511 240.633 164.605C243.92 166.062 241.006 171.815 240.633 174.468C239.699 177.083 239.96 182.612 235.888 181.865Z" fill="#231F20"/>
<path d="M186.395 37.8759C180.999 37.3285 175.76 35.7428 170.966 33.2061C169.943 32.659 169.04 31.9132 168.31 31.0122C167.58 30.1113 167.037 29.0735 166.713 27.9598C166.389 26.8461 166.292 25.679 166.425 24.5269C166.559 23.3749 166.922 22.2612 167.492 21.2512C171.228 15.4606 179.11 13.7794 185.574 14.5266C192.037 15.2738 200.144 21.2139 200.517 28.723C200.891 36.2322 192.634 39.0341 186.395 37.8759Z" fill="white"/>
<path d="M196.595 26.4443C196.409 25.9249 196.409 25.3573 196.595 24.8379C195.025 17.7397 205.075 16.5442 209.072 20.4295C209.684 21.0706 210.125 21.8556 210.353 22.712C210.581 23.5685 210.589 24.4686 210.377 25.329C210.164 26.1895 209.738 26.9825 209.138 27.6345C208.538 28.2866 207.783 28.7767 206.943 29.0594C203.543 30.4044 198.164 30.4044 196.595 26.4443Z" fill="#231F20"/>
<path d="M165.998 38.3982C164.055 34.8491 168.874 33.6536 170.369 31.2253C170.595 30.9615 170.738 30.6364 170.779 30.2913C170.748 29.8007 170.813 29.3086 170.971 28.8431C171.129 28.3777 171.378 27.9479 171.702 27.5785C172.026 27.209 172.42 26.9071 172.861 26.6899C173.302 26.4727 173.782 26.3445 174.273 26.3126C174.763 26.2807 175.255 26.3458 175.721 26.504C176.186 26.6623 176.616 26.9107 176.985 27.2351C177.355 27.5594 177.657 27.9534 177.874 28.3945C178.091 28.8355 178.219 29.315 178.251 29.8056C179.671 33.7657 168.912 43.5164 165.998 38.3982Z" fill="#231F20"/>
<path d="M186.698 45.9853C185.395 43.1104 184.248 40.1672 183.261 37.1686C182.936 36.564 182.766 35.8874 182.77 35.2006C182.773 34.5138 182.948 33.8387 183.279 33.2371C183.61 32.6354 184.087 32.1264 184.666 31.7566C185.245 31.3867 185.907 31.1679 186.592 31.1199C187.277 31.0719 187.963 31.1964 188.588 31.4821C189.213 31.7677 189.756 32.2053 190.168 32.7549C190.58 33.3045 190.847 33.9486 190.946 34.6282C191.045 35.3079 190.972 36.0015 190.733 36.6456C191.817 40.3815 196.561 44.7525 192.19 47.8533C191.719 48.1489 191.189 48.3359 190.637 48.4005C190.085 48.4651 189.526 48.4058 189 48.2269C188.473 48.0479 187.994 47.7539 187.596 47.3661C187.198 46.9783 186.891 46.5066 186.698 45.9853Z" fill="#231F20"/>
<path d="M148.551 149.169C143.171 148.235 123.931 143.379 124.716 136.542C123.562 134.489 123.151 132.101 123.552 129.78C123.954 127.46 125.143 125.348 126.92 123.803C130.752 121.207 135.256 119.779 139.884 119.693C146.988 119.482 153.942 121.769 159.534 126.156C171.751 135.645 163.382 152.494 148.551 149.169Z" fill="white"/>
<path d="M125.879 123.468C125.27 121.546 124.955 119.543 124.945 117.527C124.955 116.623 125.246 115.743 125.777 115.01C126.308 114.277 127.053 113.727 127.91 113.436C128.767 113.145 129.693 113.127 130.561 113.385C131.428 113.643 132.194 114.163 132.753 114.875C133.691 116.318 134.323 117.937 134.612 119.633C134.902 121.329 134.841 123.066 134.435 124.738C132.567 129.296 127.187 127.54 125.879 123.468Z" fill="#231F20"/>
<path d="M123.559 151.672C121.056 147.937 126.623 146.89 128.266 144.462C126.735 141.399 132.301 139.605 133.086 142.856C133.87 146.106 126.921 155.969 123.559 151.672Z" fill="#231F20"/>
<path d="M152.141 157.425C149.19 154.773 144.67 151.411 146.089 146.927C146.195 146.649 146.377 146.406 146.615 146.228C146.853 146.049 147.137 145.942 147.434 145.919C147.757 145.888 148.082 145.953 148.367 146.105C148.653 146.258 148.887 146.492 149.041 146.778C149.825 149.804 153.038 150.925 155.466 152.457C155.793 152.675 156.073 152.955 156.291 153.282C156.508 153.608 156.66 153.975 156.736 154.36C156.812 154.745 156.812 155.141 156.735 155.526C156.659 155.911 156.507 156.277 156.288 156.603C156.07 156.93 155.79 157.21 155.463 157.428C155.136 157.645 154.77 157.797 154.385 157.873C154 157.949 153.604 157.949 153.219 157.872C152.834 157.796 152.468 157.644 152.141 157.425Z" fill="#231F20"/>
<path d="M10.7357 147.448C-0.882888 145.804 -2.9003 132.318 8.60625 128.47C11.491 125.887 14.8563 123.897 18.5101 122.615C22.1639 121.333 26.0346 120.784 29.9009 120.998C38.0825 120.998 47.2354 128.47 43.1259 137.286C39.0164 146.103 19.8887 148.756 10.7357 147.448Z" fill="white"/>
<path d="M5.91353 132.393C3.4852 130.712 3.37309 127.574 3.07422 124.921C3.08112 124.278 3.23497 123.646 3.52365 123.071C3.81233 122.497 4.22841 121.996 4.74014 121.607C5.25187 121.217 5.84559 120.95 6.47629 120.825C7.10699 120.701 7.75797 120.722 8.37935 120.887C9.37452 121.302 10.2705 121.924 11.0089 122.71C11.7473 123.496 12.3114 124.429 12.6641 125.449C13.0168 126.468 13.1502 127.55 13.0556 128.625C12.961 129.699 12.6406 130.741 12.1152 131.683C11.7791 132.17 11.3428 132.578 10.8358 132.882C10.3288 133.186 9.76266 133.378 9.17537 133.445C8.58809 133.513 7.99336 133.454 7.43079 133.272C6.86821 133.091 6.35082 132.791 5.91353 132.393Z" fill="#231F20"/>
<path d="M9.98751 157.202C9.45404 157.118 8.95603 156.882 8.55372 156.522C8.1514 156.161 7.86194 155.693 7.71984 155.172C7.57775 154.651 7.5892 154.1 7.75291 153.585C7.91661 153.07 8.22565 152.614 8.64265 152.271C9.6597 151.63 10.522 150.771 11.168 149.757C11.8139 148.743 12.2274 147.598 12.3785 146.405C12.047 146.047 11.8136 145.608 11.7011 145.133C11.5886 144.657 11.6007 144.161 11.7362 143.692C11.8717 143.222 12.126 142.796 12.4745 142.453C12.8231 142.111 13.2541 141.864 13.7259 141.737C14.1977 141.61 14.6944 141.607 15.1677 141.728C15.641 141.849 16.0751 142.09 16.428 142.428C16.7808 142.766 17.0404 143.19 17.1818 143.657C17.3232 144.125 17.3417 144.621 17.2352 145.098C18.2065 149.955 15.2551 156.567 9.98751 157.202Z" fill="#231F20"/>
<path d="M50.3377 148.271C45.9667 146.964 40.8111 146.665 37.1873 143.639C36.5649 143.193 36.0943 142.568 35.839 141.847C35.5837 141.125 35.5562 140.343 35.7599 139.605C35.9637 138.868 36.3888 138.211 36.9782 137.723C37.5676 137.235 38.2926 136.939 39.0553 136.877C39.4876 136.828 39.9252 136.889 40.3274 137.055C40.7296 137.221 41.0833 137.486 41.3555 137.825C41.6278 138.164 41.8097 138.567 41.8843 138.996C41.959 139.424 41.9241 139.865 41.7826 140.276C45.0547 140.954 48.3588 141.465 51.6826 141.808C52.5397 141.986 53.2909 142.498 53.7708 143.23C54.2507 143.962 54.42 144.855 54.2417 145.712C54.0633 146.569 53.5519 147.32 52.8197 147.8C52.0876 148.28 51.1948 148.449 50.3377 148.271Z" fill="#231F20"/>
</svg>
