<svg width="6244" height="3228" viewBox="0 0 6244 3228" fill="none" xmlns="http://www.w3.org/2000/svg">
<path fill-rule="evenodd" clip-rule="evenodd" d="M215.684 901.926C217.895 901.819 220.025 901.058 221.805 899.741C224.191 897.974 225.777 895.332 226.215 892.395C226.653 889.459 225.906 886.468 224.139 884.082C222.822 882.303 221.006 880.954 218.922 880.207C216.838 879.459 214.579 879.347 212.431 879.883C210.283 880.419 208.342 881.581 206.854 883.22C205.366 884.86 204.397 886.904 204.071 889.093C203.744 891.283 204.074 893.521 205.019 895.523C205.965 897.525 207.482 899.202 209.381 900.342C211.279 901.482 213.472 902.033 215.684 901.926ZM255.64 915.157C254.587 915.937 253.327 916.387 252.018 916.45C250.71 916.513 249.412 916.187 248.289 915.513C247.165 914.838 246.267 913.846 245.708 912.661C245.149 911.477 244.953 910.153 245.147 908.857C245.34 907.561 245.913 906.352 246.793 905.382C247.674 904.412 248.822 903.724 250.094 903.407C251.365 903.09 252.701 903.156 253.934 903.599C255.168 904.041 256.242 904.839 257.022 905.892C258.067 907.304 258.509 909.073 258.25 910.811C257.991 912.548 257.052 914.112 255.64 915.157ZM115.981 1085.04C116.848 1084.67 117.585 1084.05 118.1 1083.26C118.772 1082.19 119.002 1080.91 118.741 1079.68C118.48 1078.44 117.748 1077.36 116.701 1076.66C115.911 1076.15 114.985 1075.88 114.042 1075.89C113.099 1075.9 112.18 1076.19 111.402 1076.73C110.625 1077.26 110.023 1078.01 109.673 1078.89C109.323 1079.77 109.24 1080.73 109.436 1081.65C109.631 1082.57 110.096 1083.41 110.771 1084.07C111.447 1084.73 112.302 1085.18 113.229 1085.35C114.157 1085.52 115.114 1085.41 115.981 1085.04ZM250.68 1094.57C249.89 1095.81 248.749 1096.79 247.402 1097.38C246.056 1097.97 244.564 1098.14 243.117 1097.88C241.67 1097.62 240.332 1096.94 239.274 1095.92C238.216 1094.9 237.485 1093.59 237.174 1092.15C236.863 1090.71 236.985 1089.22 237.526 1087.85C238.067 1086.48 239.002 1085.31 240.212 1084.47C241.423 1083.64 242.854 1083.18 244.324 1083.16C245.794 1083.14 247.236 1083.56 248.469 1084.36C250.109 1085.43 251.261 1087.1 251.675 1089.01C252.09 1090.92 251.732 1092.92 250.68 1094.57ZM289.995 1097.3C289.272 1098.41 288.233 1099.28 287.013 1099.79C285.792 1100.3 284.446 1100.44 283.148 1100.18C281.85 1099.92 280.659 1099.28 279.729 1098.33C278.8 1097.39 278.174 1096.19 277.933 1094.89C277.692 1093.59 277.846 1092.24 278.377 1091.03C278.907 1089.82 279.788 1088.79 280.907 1088.08C282.026 1087.38 283.332 1087.02 284.655 1087.06C285.978 1087.1 287.258 1087.54 288.331 1088.32C289.056 1088.77 289.678 1089.38 290.159 1090.09C290.64 1090.8 290.969 1091.6 291.125 1092.44C291.281 1093.29 291.262 1094.15 291.067 1094.99C290.873 1095.83 290.508 1096.61 289.995 1097.3ZM266.592 1174.26C267.796 1173.74 268.819 1172.88 269.534 1171.78C270.491 1170.31 270.825 1168.51 270.461 1166.79C270.097 1165.08 269.064 1163.57 267.592 1162.61C266.493 1161.9 265.208 1161.53 263.898 1161.54C262.588 1161.56 261.312 1161.97 260.232 1162.71C259.152 1163.45 258.316 1164.49 257.83 1165.71C257.343 1166.93 257.229 1168.26 257.5 1169.54C257.772 1170.82 258.418 1172 259.355 1172.91C260.293 1173.82 261.481 1174.44 262.769 1174.68C264.057 1174.92 265.388 1174.77 266.592 1174.26ZM195.393 1127.83C195.007 1128.43 194.454 1128.89 193.804 1129.17C193.154 1129.45 192.435 1129.53 191.74 1129.4C191.044 1129.27 190.403 1128.94 189.896 1128.44C189.39 1127.95 189.041 1127.32 188.895 1126.62C188.748 1125.93 188.81 1125.21 189.072 1124.56C189.335 1123.9 189.786 1123.33 190.37 1122.93C190.953 1122.53 191.642 1122.31 192.349 1122.31C193.057 1122.3 193.751 1122.5 194.344 1122.88C195.139 1123.4 195.697 1124.21 195.893 1125.14C196.09 1126.07 195.91 1127.04 195.393 1127.83Z" fill="#6F8DCE"/>
<path fill-rule="evenodd" clip-rule="evenodd" d="M4412.78 1715.08C4414.82 1714.2 4416.55 1712.75 4417.76 1710.89C4419.37 1708.4 4419.94 1705.37 4419.32 1702.47C4418.71 1699.56 4416.96 1697.02 4414.47 1695.4C4412.62 1694.2 4410.44 1693.57 4408.23 1693.59C4406.02 1693.62 4403.86 1694.3 4402.04 1695.56C4400.21 1696.81 4398.8 1698.58 4397.98 1700.63C4397.15 1702.69 4396.96 1704.94 4397.42 1707.11C4397.88 1709.27 4398.97 1711.25 4400.55 1712.8C4402.14 1714.35 4404.15 1715.39 4406.32 1715.79C4408.5 1716.2 4410.75 1715.95 4412.78 1715.08ZM4454.84 1713.52C4454.13 1714.61 4453.11 1715.48 4451.9 1715.99C4450.7 1716.51 4449.37 1716.66 4448.08 1716.42C4446.79 1716.18 4445.6 1715.56 4444.67 1714.65C4443.73 1713.73 4443.08 1712.56 4442.81 1711.28C4442.54 1710 4442.65 1708.66 4443.14 1707.45C4443.63 1706.23 4444.46 1705.19 4445.54 1704.44C4446.62 1703.7 4447.9 1703.3 4449.21 1703.28C4450.52 1703.27 4451.8 1703.64 4452.9 1704.35C4454.38 1705.31 4455.41 1706.81 4455.77 1708.53C4456.14 1710.25 4455.8 1712.04 4454.84 1713.52ZM4174.3 1797.04C4175.16 1796.67 4175.9 1796.05 4176.42 1795.26C4177.09 1794.19 4177.32 1792.91 4177.06 1791.68C4176.8 1790.44 4176.06 1789.36 4175.02 1788.66C4174.23 1788.15 4173.3 1787.88 4172.36 1787.89C4171.42 1787.9 4170.5 1788.19 4169.72 1788.73C4168.94 1789.26 4168.34 1790.01 4167.99 1790.89C4167.64 1791.77 4167.56 1792.73 4167.75 1793.65C4167.95 1794.57 4168.41 1795.42 4169.09 1796.07C4169.76 1796.73 4170.62 1797.18 4171.55 1797.35C4172.47 1797.52 4173.43 1797.41 4174.3 1797.04ZM4309 1806.57C4308.21 1807.81 4307.07 1808.79 4305.72 1809.38C4304.37 1809.97 4302.88 1810.14 4301.43 1809.88C4299.99 1809.62 4298.65 1808.94 4297.59 1807.92C4296.53 1806.9 4295.8 1805.59 4295.49 1804.15C4295.18 1802.71 4295.3 1801.22 4295.84 1799.85C4296.38 1798.48 4297.32 1797.31 4298.53 1796.47C4299.74 1795.64 4301.17 1795.18 4302.64 1795.16C4304.11 1795.14 4305.55 1795.56 4306.79 1796.36C4308.43 1797.43 4309.58 1799.1 4309.99 1801.01C4310.41 1802.92 4310.05 1804.92 4309 1806.57ZM4348.31 1809.3C4347.59 1810.41 4346.55 1811.28 4345.33 1811.79C4344.11 1812.3 4342.76 1812.44 4341.46 1812.18C4340.17 1811.92 4338.98 1811.28 4338.05 1810.33C4337.12 1809.39 4336.49 1808.19 4336.25 1806.89C4336.01 1805.59 4336.16 1804.24 4336.69 1803.03C4337.22 1801.82 4338.1 1800.79 4339.22 1800.08C4340.34 1799.38 4341.65 1799.02 4342.97 1799.06C4344.29 1799.1 4345.57 1799.54 4346.65 1800.32C4347.37 1800.78 4347.99 1801.38 4348.48 1802.09C4348.96 1802.8 4349.28 1803.6 4349.44 1804.44C4349.6 1805.29 4349.58 1806.16 4349.38 1806.99C4349.19 1807.83 4348.82 1808.61 4348.31 1809.3ZM4324.91 1886.26C4326.11 1885.74 4327.14 1884.88 4327.85 1883.78C4328.81 1882.31 4329.14 1880.51 4328.78 1878.8C4328.41 1877.08 4327.38 1875.57 4325.91 1874.62C4324.81 1873.9 4323.52 1873.53 4322.21 1873.55C4320.9 1873.56 4319.63 1873.97 4318.55 1874.71C4317.47 1875.45 4316.63 1876.49 4316.15 1877.71C4315.66 1878.93 4315.55 1880.26 4315.82 1881.54C4316.09 1882.82 4316.73 1884 4317.67 1884.91C4318.61 1885.83 4319.8 1886.44 4321.09 1886.68C4322.37 1886.92 4323.7 1886.77 4324.91 1886.26ZM4253.71 1839.83C4253.32 1840.43 4252.77 1840.89 4252.12 1841.17C4251.47 1841.45 4250.75 1841.53 4250.06 1841.4C4249.36 1841.27 4248.72 1840.94 4248.21 1840.44C4247.71 1839.95 4247.36 1839.32 4247.21 1838.62C4247.06 1837.93 4247.13 1837.21 4247.39 1836.56C4247.65 1835.9 4248.1 1835.33 4248.69 1834.93C4249.27 1834.53 4249.96 1834.32 4250.67 1834.31C4251.37 1834.3 4252.07 1834.5 4252.66 1834.88C4253.46 1835.4 4254.01 1836.21 4254.21 1837.14C4254.41 1838.07 4254.23 1839.04 4253.71 1839.83Z" fill="white"/>
<path d="M666.954 105.64L676.616 176.879L743.29 188.24L678.951 204.059L663.557 266.062L653.683 200.98L592.211 193.017L655.7 176.773L666.954 105.64Z" fill="#6F8DCE"/>
<path fill-rule="evenodd" clip-rule="evenodd" d="M381.565 128.023C382.725 126.863 384.298 126.212 385.938 126.212C387.578 126.212 389.151 126.863 390.311 128.023C391.471 129.183 392.123 130.756 392.123 132.397C392.123 134.037 391.471 135.61 390.311 136.77C389.151 137.93 387.578 138.581 385.938 138.581C384.298 138.581 382.725 137.93 381.565 136.77C380.405 135.61 379.753 134.037 379.753 132.397C379.753 130.756 380.405 129.183 381.565 128.023ZM349.762 162.142C344.853 156.694 337.098 167.051 342.301 171.37C348.093 177.31 356.732 166.756 349.762 162.142ZM395.853 173.186C394.174 173.186 392.563 173.853 391.376 175.041C390.189 176.228 389.521 177.839 389.521 179.518C389.521 181.198 390.189 182.808 391.376 183.996C392.563 185.183 394.174 185.85 395.853 185.85C397.533 185.85 399.143 185.183 400.331 183.996C401.518 182.808 402.186 181.198 402.186 179.518C402.186 177.839 401.518 176.228 400.331 175.041C399.143 173.853 397.533 173.186 395.853 173.186ZM517.734 149.429C509.88 139.661 526.962 129.647 528.729 143.587C528.981 144.952 528.791 146.362 528.188 147.611C527.584 148.861 526.598 149.886 525.372 150.537C524.146 151.188 522.745 151.432 521.372 151.232C519.998 151.033 518.724 150.401 517.734 149.429Z" fill="#6F8DCE"/>
<path d="M481.252 216.062L487.274 260.469L528.836 267.551L488.73 277.412L479.134 316.062L472.979 275.492L434.66 270.529L474.237 260.403L481.252 216.062Z" fill="#6F8DCE"/>
<path d="M245.646 245.955C249.278 236.481 233.473 231.229 232.785 242.274C232.54 248.704 243.241 252.483 245.646 245.955Z" fill="#6F8DCE"/>
<path d="M6122.12 945.64L6129.74 1001.83L6182.33 1010.79L6131.58 1023.27L6119.44 1072.17L6111.65 1020.84L6063.17 1014.56L6113.25 1001.75L6122.12 945.64Z" fill="#E2EBF7"/>
<path d="M6181.92 852.011L6186.99 889.393L6221.97 895.354L6188.21 903.655L6180.13 936.191L6174.95 902.04L6142.7 897.861L6176.01 889.338L6181.92 852.011Z" fill="#E2EBF7"/>
<path d="M2392.22 545.789L2398.21 589.975L2439.57 597.021L2399.66 606.833L2390.11 645.29L2383.99 604.923L2345.86 599.984L2385.24 589.909L2392.22 545.789Z" fill="#E2EBF7"/>
<path d="M1888.87 167.91L1896.94 227.416L1952.64 236.905L1898.9 250.119L1886.04 301.91L1877.79 247.547L1826.44 240.896L1879.47 227.328L1888.87 167.91Z" fill="#E2EBF7"/>
<path d="M5413.07 43.479L5418.09 80.5196L5452.76 86.4263L5419.3 94.6514L5411.3 126.889L5406.17 93.0505L5374.2 88.9104L5407.21 80.4644L5413.07 43.479Z" fill="#E2EBF7"/>
<path d="M5312.88 -39.9314L5317.9 -2.89078L5352.57 3.01585L5319.12 11.241L5311.11 43.479L5305.98 9.64011L5274.02 5.49995L5307.03 -2.94598L5312.88 -39.9314Z" fill="#E2EBF7"/>
<path fill-rule="evenodd" clip-rule="evenodd" d="M2985.4 578.427C2985.43 579.692 2985.08 580.936 2984.4 582C2983.71 583.064 2982.73 583.898 2981.56 584.395C2980.4 584.893 2979.12 585.031 2977.87 584.791C2976.63 584.551 2975.49 583.945 2974.6 583.051C2973.7 582.156 2973.09 581.015 2972.86 579.773C2972.62 578.531 2972.75 577.245 2973.25 576.082C2973.75 574.919 2974.58 573.932 2975.65 573.248C2976.71 572.563 2977.95 572.213 2979.22 572.242C2980.86 572.242 2982.43 572.894 2983.59 574.054C2984.75 575.214 2985.4 576.787 2985.4 578.427ZM2928.4 595.364C2930.84 595.364 2932.82 593.386 2932.82 590.946C2932.82 588.506 2930.84 586.528 2928.4 586.528C2925.96 586.528 2923.98 588.506 2923.98 590.946C2923.98 593.386 2925.96 595.364 2928.4 595.364ZM2975.38 619.958C2975.38 624.513 2971.69 628.206 2967.14 628.206C2962.58 628.206 2958.89 624.513 2958.89 619.958C2958.89 615.404 2962.58 611.711 2967.14 611.711C2971.69 611.711 2975.38 615.404 2975.38 619.958ZM2895.12 655.746C2895.12 657.814 2894.51 659.836 2893.36 661.556C2892.21 663.275 2890.58 664.615 2888.67 665.407C2886.76 666.198 2884.65 666.405 2882.62 666.002C2880.6 665.598 2878.73 664.602 2877.27 663.14C2875.81 661.678 2874.81 659.814 2874.41 657.786C2874.01 655.758 2874.21 653.655 2875 651.745C2875.8 649.834 2877.14 648.201 2878.86 647.052C2880.57 645.903 2882.6 645.29 2884.66 645.29C2887.44 645.29 2890.1 646.391 2892.06 648.352C2894.02 650.313 2895.12 652.973 2895.12 655.746ZM3201.85 1108.93C3202.27 1107.91 3202.47 1106.81 3202.45 1105.7C3202.47 1104.59 3202.27 1103.49 3201.85 1102.46C3201.44 1101.43 3200.82 1100.5 3200.04 1099.72C3199.25 1098.93 3198.32 1098.32 3197.29 1097.9C3196.26 1097.49 3195.16 1097.28 3194.06 1097.3C3191.83 1097.3 3189.69 1098.19 3188.12 1099.76C3186.55 1101.34 3185.66 1103.47 3185.66 1105.7C3185.66 1107.92 3186.55 1110.06 3188.12 1111.63C3189.69 1113.21 3191.83 1114.09 3194.06 1114.09C3195.16 1114.11 3196.26 1113.91 3197.29 1113.49C3198.32 1113.08 3199.25 1112.46 3200.04 1111.68C3200.82 1110.9 3201.44 1109.96 3201.85 1108.93ZM3160.92 1100.54C3160.92 1101.4 3160.58 1102.23 3159.97 1102.84C3159.36 1103.44 3158.54 1103.78 3157.68 1103.78C3156.82 1103.78 3155.99 1103.44 3155.39 1102.84C3154.78 1102.23 3154.44 1101.4 3154.44 1100.54C3154.44 1099.68 3154.78 1098.86 3155.39 1098.25C3155.99 1097.65 3156.82 1097.3 3157.68 1097.3C3158.54 1097.3 3159.36 1097.65 3159.97 1098.25C3160.58 1098.86 3160.92 1099.68 3160.92 1100.54ZM3114.61 1151.39C3116.12 1149.9 3116.99 1147.88 3117.03 1145.76C3116.99 1143.63 3116.12 1141.61 3114.61 1140.12C3113.09 1138.64 3111.05 1137.8 3108.93 1137.8C3106.82 1137.8 3104.8 1138.64 3103.31 1140.13C3101.82 1141.63 3100.98 1143.65 3100.98 1145.76C3100.98 1147.87 3101.82 1149.89 3103.31 1151.38C3104.8 1152.87 3106.82 1153.71 3108.93 1153.71C3111.05 1153.71 3113.09 1152.88 3114.61 1151.39ZM2961.54 827.613C2965.77 827.613 2969.2 824.184 2969.2 819.955C2969.2 815.725 2965.77 812.296 2961.54 812.296C2957.31 812.296 2953.89 815.725 2953.89 819.955C2953.89 824.184 2957.31 827.613 2961.54 827.613ZM2959.43 846.824C2959.85 846.194 2960.08 845.454 2960.08 844.696C2960.08 843.681 2959.67 842.707 2958.96 841.989C2958.24 841.271 2957.26 840.867 2956.25 840.867C2955.49 840.867 2954.75 841.092 2954.12 841.513C2953.49 841.934 2953 842.531 2952.71 843.231C2952.42 843.931 2952.34 844.701 2952.49 845.444C2952.64 846.186 2953 846.869 2953.54 847.404C2954.08 847.94 2954.76 848.304 2955.5 848.452C2956.24 848.6 2957.01 848.524 2957.71 848.234C2958.41 847.944 2959.01 847.453 2959.43 846.824ZM2876.86 820.691C2876.88 821.438 2876.75 822.182 2876.48 822.878C2876.2 823.574 2875.79 824.208 2875.27 824.744C2874.75 825.279 2874.13 825.704 2873.44 825.995C2872.75 826.285 2872.01 826.435 2871.26 826.435C2870.44 826.567 2869.6 826.52 2868.8 826.296C2868 826.072 2867.26 825.677 2866.62 825.138C2865.99 824.599 2865.48 823.928 2865.13 823.173C2864.78 822.418 2864.6 821.596 2864.6 820.764C2864.6 819.933 2864.78 819.111 2865.13 818.356C2865.48 817.601 2865.99 816.93 2866.62 816.391C2867.26 815.852 2868 815.457 2868.8 815.233C2869.6 815.009 2870.44 814.962 2871.26 815.095C2872.75 815.095 2874.17 815.684 2875.22 816.734C2876.27 817.783 2876.86 819.207 2876.86 820.691ZM3046.97 787.407C3046.97 789.441 3045.32 791.089 3043.28 791.089C3041.25 791.089 3039.6 789.441 3039.6 787.407C3039.6 785.374 3041.25 783.726 3043.28 783.726C3045.32 783.726 3046.97 785.374 3046.97 787.407ZM3039.45 840.868C3041.89 840.868 3043.87 838.89 3043.87 836.45C3043.87 834.01 3041.89 832.031 3039.45 832.031C3037.01 832.031 3035.03 834.01 3035.03 836.45C3035.03 838.89 3037.01 840.868 3039.45 840.868ZM2749.95 963.546C2749.95 970.297 2744.47 975.769 2737.72 975.769C2730.97 975.769 2725.5 970.297 2725.5 963.546C2725.5 956.795 2730.97 951.322 2737.72 951.322C2744.47 951.322 2749.95 956.795 2749.95 963.546ZM2923.99 955.298C2923.95 956.366 2923.5 957.378 2922.73 958.12C2921.96 958.861 2920.93 959.275 2919.86 959.275C2918.81 959.275 2917.8 958.856 2917.05 958.11C2916.31 957.364 2915.89 956.353 2915.89 955.298C2915.89 954.244 2916.31 953.232 2917.05 952.487C2917.8 951.741 2918.81 951.322 2919.86 951.322C2920.93 951.321 2921.96 951.735 2922.73 952.477C2923.5 953.219 2923.95 954.23 2923.99 955.298ZM2954.9 924.802C2955.76 923.946 2956.24 922.784 2956.24 921.574C2956.24 920.974 2956.12 920.38 2955.89 919.826C2955.66 919.273 2955.33 918.769 2954.9 918.345C2954.48 917.921 2953.98 917.585 2953.42 917.356C2952.87 917.126 2952.28 917.008 2951.68 917.008C2950.47 917.008 2949.3 917.489 2948.45 918.345C2947.59 919.201 2947.11 920.363 2947.11 921.574C2947.11 922.784 2947.59 923.946 2948.45 924.802C2949.3 925.658 2950.47 926.139 2951.68 926.139C2952.89 926.139 2954.05 925.658 2954.9 924.802Z" fill="white"/>
<path fill-rule="evenodd" clip-rule="evenodd" d="M4771.5 133.003C4772.19 131.94 4772.54 130.695 4772.51 129.431C4772.51 127.79 4771.86 126.217 4770.7 125.057C4769.54 123.897 4767.96 123.245 4766.32 123.245C4765.06 123.216 4763.82 123.567 4762.75 124.251C4761.69 124.936 4760.85 125.923 4760.36 127.086C4759.86 128.249 4759.72 129.534 4759.96 130.776C4760.2 132.018 4760.81 133.16 4761.7 134.054C4762.59 134.949 4763.74 135.555 4764.98 135.794C4766.22 136.034 4767.51 135.896 4768.67 135.399C4769.83 134.901 4770.82 134.067 4771.5 133.003ZM4719.93 141.949C4719.93 144.39 4717.95 146.368 4715.51 146.368C4713.07 146.368 4711.09 144.39 4711.09 141.949C4711.09 139.509 4713.07 137.531 4715.51 137.531C4717.95 137.531 4719.93 139.509 4719.93 141.949ZM4754.24 179.209C4758.8 179.209 4762.49 175.517 4762.49 170.962C4762.49 166.407 4758.8 162.714 4754.24 162.714C4749.69 162.714 4745.99 166.407 4745.99 170.962C4745.99 175.517 4749.69 179.209 4754.24 179.209ZM5068.96 379.938C5069.37 378.91 5069.57 377.81 5069.55 376.702C5069.57 375.594 5069.37 374.493 5068.96 373.466C5068.54 372.438 5067.92 371.505 5067.14 370.721C5066.36 369.938 5065.42 369.32 5064.4 368.905C5063.37 368.491 5062.27 368.287 5061.16 368.307C5058.93 368.307 5056.8 369.192 5055.22 370.766C5053.65 372.34 5052.77 374.475 5052.77 376.702C5052.77 378.928 5053.65 381.063 5055.22 382.638C5056.8 384.212 5058.93 385.096 5061.16 385.096C5062.27 385.116 5063.37 384.913 5064.4 384.498C5065.42 384.083 5066.36 383.466 5067.14 382.682C5067.92 381.899 5068.54 380.965 5068.96 379.938ZM5028.02 371.548C5028.02 372.407 5027.68 373.231 5027.07 373.839C5026.47 374.446 5025.64 374.788 5024.78 374.788C5023.92 374.788 5023.1 374.446 5022.49 373.839C5021.88 373.231 5021.54 372.407 5021.54 371.548C5021.54 370.688 5021.88 369.864 5022.49 369.256C5023.1 368.649 5023.92 368.307 5024.78 368.307C5025.64 368.307 5026.47 368.649 5027.07 369.256C5027.68 369.864 5028.02 370.688 5028.02 371.548ZM4756.31 370.958C4756.31 375.187 4752.88 378.616 4748.65 378.616C4744.42 378.616 4740.99 375.187 4740.99 370.958C4740.99 366.728 4744.42 363.3 4748.65 363.3C4752.88 363.3 4756.31 366.728 4756.31 370.958ZM4747.18 395.7C4747.18 396.457 4746.96 397.197 4746.54 397.827C4746.12 398.457 4745.52 398.948 4744.82 399.238C4744.12 399.527 4743.35 399.603 4742.61 399.455C4741.86 399.308 4741.18 398.943 4740.65 398.408C4740.11 397.872 4739.74 397.19 4739.6 396.447C4739.45 395.704 4739.53 394.934 4739.81 394.235C4740.1 393.535 4740.6 392.937 4741.23 392.516C4741.86 392.095 4742.6 391.871 4743.35 391.871C4744.37 391.871 4745.34 392.274 4746.06 392.992C4746.78 393.71 4747.18 394.684 4747.18 395.7ZM4663.58 373.881C4663.85 373.185 4663.98 372.441 4663.96 371.694C4663.96 370.21 4663.37 368.787 4662.32 367.737C4661.28 366.688 4659.85 366.098 4658.37 366.098C4657.55 365.965 4656.71 366.012 4655.9 366.236C4655.1 366.46 4654.36 366.855 4653.73 367.394C4653.09 367.934 4652.59 368.604 4652.24 369.359C4651.89 370.114 4651.71 370.936 4651.71 371.768C4651.71 372.6 4651.89 373.422 4652.24 374.177C4652.59 374.932 4653.09 375.602 4653.73 376.141C4654.36 376.681 4655.1 377.076 4655.9 377.3C4656.71 377.524 4657.55 377.571 4658.37 377.438C4659.11 377.438 4659.85 377.289 4660.54 376.998C4661.23 376.708 4661.86 376.282 4662.38 375.747C4662.9 375.212 4663.31 374.577 4663.58 373.881ZM4830.39 342.093C4832.42 342.093 4834.07 340.444 4834.07 338.411C4834.07 336.377 4832.42 334.729 4830.39 334.729C4828.36 334.729 4826.71 336.377 4826.71 338.411C4826.71 340.444 4828.36 342.093 4830.39 342.093ZM4830.97 387.453C4830.97 389.893 4828.99 391.871 4826.55 391.871C4824.11 391.871 4822.13 389.893 4822.13 387.453C4822.13 385.013 4824.11 383.035 4826.55 383.035C4828.99 383.035 4830.97 385.013 4830.97 387.453ZM4711.09 506.302C4711.05 507.37 4710.6 508.381 4709.83 509.123C4709.06 509.865 4708.04 510.279 4706.97 510.278C4705.91 510.278 4704.9 509.859 4704.16 509.114C4703.41 508.368 4702.99 507.356 4702.99 506.302C4702.99 505.247 4703.41 504.236 4704.16 503.49C4704.9 502.744 4705.91 502.326 4706.97 502.326C4708.04 502.325 4709.06 502.739 4709.83 503.481C4710.6 504.222 4711.05 505.234 4711.09 506.302ZM4742.01 475.805C4742.87 474.949 4743.35 473.788 4743.35 472.577C4743.35 471.977 4743.23 471.384 4743 470.83C4742.77 470.276 4742.43 469.773 4742.01 469.349C4741.59 468.925 4741.08 468.588 4740.53 468.359C4739.97 468.13 4739.38 468.011 4738.78 468.011C4737.57 468.011 4736.41 468.492 4735.55 469.349C4734.7 470.205 4734.22 471.366 4734.22 472.577C4734.22 473.788 4734.7 474.949 4735.55 475.805C4736.41 476.661 4737.57 477.142 4738.78 477.142C4739.99 477.142 4741.15 476.661 4742.01 475.805Z" fill="white"/>
<path fill-rule="evenodd" clip-rule="evenodd" d="M5789.22 783.424C5790.33 782.319 5790.95 780.821 5790.95 779.258C5790.95 777.696 5790.33 776.198 5789.22 775.093C5788.12 773.988 5786.62 773.367 5785.06 773.367C5783.5 773.367 5782 773.988 5780.89 775.093C5779.79 776.198 5779.17 777.696 5779.17 779.258C5779.17 780.821 5779.79 782.319 5780.89 783.424C5782 784.529 5783.5 785.149 5785.06 785.149C5786.62 785.149 5788.12 784.529 5789.22 783.424ZM5950 918.725C5950 921.328 5947.89 923.438 5945.29 923.438C5942.69 923.438 5940.58 921.328 5940.58 918.725C5940.58 916.123 5942.69 914.013 5945.29 914.013C5947.89 914.013 5950 916.123 5950 918.725ZM5870.92 922.702C5870.92 923.795 5870.48 924.844 5869.71 925.618C5868.93 926.391 5867.89 926.825 5866.79 926.825C5866.2 926.94 5865.58 926.921 5864.99 926.77C5864.4 926.619 5863.86 926.341 5863.39 925.954C5862.92 925.567 5862.54 925.081 5862.29 924.532C5862.03 923.982 5861.89 923.383 5861.89 922.775C5861.89 922.168 5862.03 921.568 5862.29 921.019C5862.54 920.47 5862.92 919.984 5863.39 919.597C5863.86 919.21 5864.4 918.931 5864.99 918.781C5865.58 918.63 5866.2 918.611 5866.79 918.725C5867.86 918.725 5868.89 919.139 5869.66 919.881C5870.43 920.622 5870.88 921.634 5870.92 922.702ZM5840.12 1039.55C5840.44 1039.07 5840.62 1038.5 5840.62 1037.92C5840.62 1037.14 5840.3 1036.39 5839.75 1035.84C5839.2 1035.28 5838.45 1034.97 5837.67 1034.97C5837.09 1034.97 5836.52 1035.15 5836.03 1035.47C5835.55 1035.79 5835.17 1036.25 5834.95 1036.79C5834.73 1037.33 5834.67 1037.92 5834.78 1038.49C5834.89 1039.06 5835.18 1039.59 5835.59 1040C5836 1040.41 5836.52 1040.69 5837.1 1040.81C5837.67 1040.92 5838.26 1040.86 5838.8 1040.64C5839.34 1040.42 5839.8 1040.04 5840.12 1039.55ZM5645.74 893.1C5649.32 893.1 5652.22 890.199 5652.22 886.62C5652.22 883.041 5649.32 880.14 5645.74 880.14C5642.16 880.14 5639.26 883.041 5639.26 886.62C5639.26 890.199 5642.16 893.1 5645.74 893.1ZM5748.45 891.151C5749.64 889.94 5750.3 888.313 5750.3 886.62C5750.3 884.927 5749.64 883.3 5748.45 882.089C5747.27 880.878 5745.66 880.179 5743.97 880.14C5742.25 880.14 5740.6 880.823 5739.38 882.038C5738.17 883.253 5737.49 884.901 5737.49 886.62C5737.49 888.339 5738.17 889.987 5739.38 891.202C5740.6 892.417 5742.25 893.1 5743.97 893.1C5745.66 893.062 5747.27 892.362 5748.45 891.151ZM5870.92 858.491C5870.95 859.808 5870.58 861.103 5869.87 862.213C5869.16 863.322 5868.14 864.194 5866.93 864.718C5865.72 865.242 5864.38 865.395 5863.09 865.156C5861.79 864.917 5860.6 864.298 5859.66 863.377C5858.72 862.456 5858.07 861.276 5857.8 859.987C5857.53 858.697 5857.66 857.357 5858.15 856.138C5858.65 854.918 5859.5 853.874 5860.59 853.139C5861.69 852.404 5862.97 852.012 5864.29 852.011C5866.02 852.011 5867.69 852.689 5868.92 853.9C5870.16 855.111 5870.88 856.759 5870.92 858.491ZM5924.48 791.613C5925.76 789.7 5926.44 787.45 5926.44 785.149C5926.44 783.621 5926.14 782.109 5925.55 780.697C5924.97 779.285 5924.11 778.003 5923.03 776.923C5921.95 775.842 5920.67 774.985 5919.26 774.4C5917.85 773.816 5916.33 773.515 5914.8 773.515C5912.5 773.515 5910.25 774.197 5908.34 775.476C5906.43 776.754 5904.94 778.571 5904.06 780.697C5903.18 782.823 5902.94 785.162 5903.39 787.419C5903.84 789.676 5904.95 791.749 5906.58 793.376C5908.2 795.003 5910.28 796.111 5912.53 796.56C5914.79 797.009 5917.13 796.779 5919.26 795.898C5921.38 795.018 5923.2 793.526 5924.48 791.613Z" fill="white"/>
<path fill-rule="evenodd" clip-rule="evenodd" d="M4105.91 142.236L4099.65 96.0637L4092.35 142.167L4051.21 152.695L4091.05 157.856L4097.45 200.037L4107.42 159.851L4149.12 149.599L4105.91 142.236ZM3444.85 105.847C3442.61 105.847 3440.45 106.738 3438.87 108.326C3437.28 109.913 3436.39 112.066 3436.39 114.31C3436.39 116.555 3437.28 118.708 3438.87 120.295C3440.45 121.882 3442.61 122.774 3444.85 122.774C3447.1 122.774 3449.25 121.882 3450.84 120.295C3452.42 118.708 3453.31 116.555 3453.31 114.31C3453.31 112.066 3452.42 109.913 3450.84 108.326C3449.25 106.738 3447.1 105.847 3444.85 105.847ZM3809.27 142.728C3801.43 134.678 3785.6 145.687 3794.34 154.977C3803.08 164.266 3818.36 152.775 3809.27 142.728ZM3515.27 184.366C3507.43 176.316 3491.6 187.325 3500.34 196.615C3509.08 205.904 3524.36 194.413 3515.27 184.366ZM3899.76 132.131C3890.68 124.149 3873.82 133.921 3883.31 145.137C3892.46 153.119 3909.25 143.348 3899.76 132.131ZM3923.23 227.402C3924.49 226.009 3926.23 225.138 3928.11 224.959C3929.98 225.138 3931.72 226.009 3932.99 227.402C3934.26 228.796 3934.96 230.611 3934.96 232.493C3934.96 234.376 3934.26 236.191 3932.99 237.584C3931.72 238.978 3929.98 239.849 3928.11 240.028C3926.23 239.849 3924.49 238.978 3923.23 237.584C3921.96 236.191 3921.26 234.376 3921.26 232.493C3921.26 230.611 3921.96 228.796 3923.23 227.402ZM4185.06 201.587C4178.18 196.013 4173.98 206.885 4178.18 211.908C4184.58 217.551 4189.19 206.197 4185.06 201.587Z" fill="white"/>
<path d="M1621.98 1704.79L1627.72 1747.12L1667.41 1753.81L1629.17 1763.21L1620.03 1800.06L1614.09 1761.45L1577.62 1756.65L1615.36 1747L1621.98 1704.79Z" fill="#E2EBF7"/>
<path fill-rule="evenodd" clip-rule="evenodd" d="M2308.66 2391.36C2307.95 2391.46 2307.3 2391.8 2306.83 2392.34C2306.36 2392.88 2306.1 2393.57 2306.1 2394.28C2306.1 2395 2306.36 2395.69 2306.83 2396.23C2307.3 2396.77 2307.95 2397.11 2308.66 2397.2C2309.37 2397.11 2310.02 2396.77 2310.5 2396.23C2310.97 2395.69 2311.23 2395 2311.23 2394.28C2311.23 2393.57 2310.97 2392.88 2310.5 2392.34C2310.02 2391.8 2309.37 2391.46 2308.66 2391.36ZM2273.52 2435.84C2271.5 2428.33 2260.66 2432.4 2260.66 2438.93C2261.34 2448.89 2275.48 2444.23 2273.52 2435.84ZM2329.67 2443.98C2327.86 2440.65 2323.63 2437.06 2320.2 2440.55C2313.42 2448.6 2333.35 2456.11 2329.67 2443.98ZM2350.83 2815.47C2349.4 2815.47 2348.02 2816.04 2347.01 2817.05C2346 2818.06 2345.43 2819.43 2345.43 2820.87C2345.43 2822.3 2346 2823.67 2347.01 2824.68C2348.02 2825.7 2349.4 2826.27 2350.83 2826.27C2352.26 2826.27 2353.63 2825.7 2354.65 2824.68C2355.66 2823.67 2356.23 2822.3 2356.23 2820.87C2356.23 2819.43 2355.66 2818.06 2354.65 2817.05C2353.63 2816.04 2352.26 2815.47 2350.83 2815.47ZM2407.52 2776.54C2400.01 2769.87 2392.4 2781.45 2398.34 2787.83C2405.9 2794.46 2413.26 2782.68 2407.52 2776.54ZM2474.82 2737.52C2473.2 2737.66 2471.7 2738.4 2470.61 2739.6C2469.51 2740.79 2468.9 2742.35 2468.9 2743.97C2468.9 2745.59 2469.51 2747.16 2470.61 2748.35C2471.7 2749.55 2473.2 2750.29 2474.82 2750.43C2476.43 2750.29 2477.94 2749.55 2479.03 2748.35C2480.13 2747.16 2480.73 2745.59 2480.73 2743.97C2480.73 2742.35 2480.13 2740.79 2479.03 2739.6C2477.94 2738.4 2476.43 2737.66 2474.82 2737.52ZM2372.62 2687.45C2366.24 2681.61 2354.31 2688.73 2361.09 2696.53C2366.93 2702.32 2379.35 2694.67 2372.62 2687.45Z" fill="white"/>
<path d="M2430.1 2572.79L2434.57 2605.72L2465.44 2610.93L2435.7 2618.24L2428.58 2646.91L2423.97 2616.86L2395.59 2613.13L2424.95 2605.62L2430.1 2572.79Z" fill="#C5D3EC"/>
<path fill-rule="evenodd" clip-rule="evenodd" d="M4879.07 1895.39C4879.07 1899.47 4877.86 1903.46 4875.6 1906.85C4873.33 1910.24 4870.11 1912.88 4866.35 1914.44C4862.58 1916 4858.43 1916.41 4854.43 1915.62C4850.43 1914.82 4846.76 1912.86 4843.88 1909.97C4840.99 1907.09 4839.03 1903.42 4838.23 1899.42C4837.44 1895.42 4837.85 1891.27 4839.41 1887.5C4840.97 1883.74 4843.61 1880.52 4847 1878.25C4850.39 1875.98 4854.38 1874.78 4858.46 1874.78C4863.92 1874.78 4869.17 1876.95 4873.04 1880.81C4876.9 1884.68 4879.07 1889.93 4879.07 1895.39ZM4847.11 1955.67C4847.14 1957.14 4846.73 1958.58 4845.94 1959.81C4845.15 1961.04 4844.01 1962 4842.66 1962.58C4841.32 1963.16 4839.84 1963.33 4838.4 1963.06C4836.96 1962.79 4835.64 1962.11 4834.59 1961.08C4833.55 1960.06 4832.83 1958.75 4832.53 1957.31C4832.24 1955.88 4832.37 1954.39 4832.93 1953.04C4833.48 1951.69 4834.42 1950.53 4835.64 1949.71C4836.85 1948.89 4838.28 1948.46 4839.74 1948.46C4841.67 1948.46 4843.52 1949.21 4844.9 1950.56C4846.28 1951.91 4847.07 1953.75 4847.11 1955.67ZM4639.18 2141.85C4639.95 2140.7 4640.36 2139.34 4640.36 2137.96C4640.36 2136.1 4639.62 2134.31 4638.31 2133C4637 2131.68 4635.21 2130.95 4633.35 2130.95C4631.97 2130.95 4630.61 2131.36 4629.46 2132.13C4628.3 2132.9 4627.41 2133.99 4626.88 2135.27C4626.34 2136.55 4626.21 2137.96 4626.48 2139.32C4626.75 2140.68 4627.41 2141.93 4628.4 2142.91C4629.38 2143.89 4630.63 2144.56 4631.99 2144.83C4633.35 2145.1 4634.75 2144.96 4636.04 2144.43C4637.32 2143.9 4638.41 2143 4639.18 2141.85ZM4459.01 2159.7C4459.01 2162.61 4458.15 2165.46 4456.53 2167.88C4454.91 2170.3 4452.61 2172.19 4449.92 2173.3C4447.23 2174.42 4444.27 2174.71 4441.41 2174.14C4438.55 2173.57 4435.93 2172.17 4433.87 2170.11C4431.81 2168.05 4430.41 2165.43 4429.84 2162.57C4429.27 2159.71 4429.56 2156.75 4430.68 2154.06C4431.79 2151.37 4433.68 2149.07 4436.1 2147.45C4438.52 2145.83 4441.37 2144.97 4444.28 2144.97C4448.19 2144.97 4451.93 2146.52 4454.7 2149.28C4457.46 2152.04 4459.01 2155.79 4459.01 2159.7ZM4609.73 2082.81C4611.14 2080.66 4611.87 2078.14 4611.84 2075.57C4611.84 2073.87 4611.51 2072.19 4610.85 2070.63C4610.2 2069.06 4609.24 2067.65 4608.04 2066.45C4606.83 2065.26 4605.4 2064.32 4603.83 2063.69C4602.26 2063.05 4600.58 2062.73 4598.88 2062.75C4596.31 2062.75 4593.8 2063.52 4591.67 2064.95C4589.53 2066.38 4587.87 2068.41 4586.9 2070.79C4585.92 2073.17 4585.67 2075.78 4586.18 2078.3C4586.7 2080.81 4587.95 2083.12 4589.77 2084.93C4591.6 2086.74 4593.92 2087.96 4596.45 2088.44C4598.97 2088.93 4601.58 2088.65 4603.95 2087.64C4606.31 2086.64 4608.33 2084.96 4609.73 2082.81Z" fill="white"/>
<path d="M4721.48 1248.08C4721.48 1249.95 4720.93 1251.77 4719.89 1253.32C4718.86 1254.87 4717.38 1256.08 4715.66 1256.79C4713.94 1257.51 4712.04 1257.69 4710.22 1257.33C4708.39 1256.96 4706.71 1256.07 4705.39 1254.75C4704.07 1253.43 4703.17 1251.75 4702.81 1249.92C4702.45 1248.09 4702.63 1246.2 4703.35 1244.48C4704.06 1242.75 4705.27 1241.28 4706.82 1240.25C4708.37 1239.21 4710.19 1238.66 4712.05 1238.66C4714.55 1238.66 4716.95 1239.65 4718.72 1241.42C4720.49 1243.19 4721.48 1245.58 4721.48 1248.08Z" fill="white"/>
<path d="M4720.81 933.479L4728.88 992.985L4784.57 1002.47L4730.83 1015.69L4717.97 1067.48L4709.73 1013.12L4658.38 1006.47L4711.41 992.897L4720.81 933.479Z" fill="#E2EBF7"/>
<path fill-rule="evenodd" clip-rule="evenodd" d="M5485.94 68.8639C5485.94 74.4762 5481.39 79.0258 5475.78 79.0258C5470.16 79.0258 5465.61 74.4762 5465.61 68.8639C5465.61 63.2517 5470.16 58.7021 5475.78 58.7021C5481.39 58.7021 5485.94 63.2517 5485.94 68.8639ZM5547.95 143.155C5549.09 141.435 5549.71 139.414 5549.71 137.346C5549.71 134.573 5548.61 131.913 5546.65 129.952C5544.68 127.991 5542.02 126.889 5539.25 126.889C5537.18 126.889 5535.16 127.503 5533.44 128.652C5531.72 129.801 5530.38 131.434 5529.59 133.344C5528.8 135.255 5528.59 137.357 5529 139.386C5529.4 141.414 5530.4 143.277 5531.86 144.74C5533.32 146.202 5535.18 147.198 5537.21 147.601C5539.24 148.005 5541.34 147.798 5543.25 147.006C5545.16 146.215 5546.8 144.875 5547.95 143.155ZM5484.61 169.599C5484.61 172.121 5482.57 174.165 5480.04 174.165C5477.52 174.165 5475.48 172.121 5475.48 169.599C5475.48 167.078 5477.52 165.034 5480.04 165.034C5482.57 165.034 5484.61 167.078 5484.61 169.599ZM5395.21 168.273C5395.21 169.133 5394.87 169.957 5394.26 170.565C5393.65 171.172 5392.83 171.513 5391.97 171.513C5391.11 171.513 5390.29 171.172 5389.68 170.565C5389.07 169.957 5388.73 169.133 5388.73 168.273C5388.71 167.836 5388.78 167.399 5388.93 166.988C5389.09 166.578 5389.32 166.203 5389.63 165.887C5389.93 165.57 5390.29 165.318 5390.69 165.146C5391.1 164.974 5391.53 164.886 5391.97 164.886C5392.41 164.886 5392.84 164.974 5393.24 165.146C5393.65 165.318 5394.01 165.57 5394.31 165.887C5394.62 166.203 5394.85 166.578 5395.01 166.988C5395.16 167.399 5395.23 167.836 5395.21 168.273ZM5501.25 218.051C5501.25 222.606 5497.56 226.298 5493 226.298C5488.45 226.298 5484.76 222.606 5484.76 218.051C5484.76 213.496 5488.45 209.804 5493 209.804C5497.56 209.804 5501.25 213.496 5501.25 218.051ZM5451.77 209.509C5451.77 211.17 5451.28 212.793 5450.35 214.173C5449.43 215.553 5448.12 216.629 5446.59 217.265C5445.05 217.9 5443.36 218.066 5441.74 217.743C5440.11 217.419 5438.61 216.619 5437.44 215.445C5436.26 214.271 5435.46 212.775 5435.14 211.147C5434.82 209.519 5434.98 207.831 5435.62 206.297C5436.25 204.763 5437.33 203.452 5438.71 202.529C5440.09 201.607 5441.71 201.115 5443.37 201.115C5445.6 201.115 5447.74 201.999 5449.31 203.573C5450.88 205.148 5451.77 207.283 5451.77 209.509Z" fill="white"/>
<path fill-rule="evenodd" clip-rule="evenodd" d="M5794.63 332.63C5794.63 334.727 5794 336.777 5792.84 338.521C5791.67 340.264 5790.02 341.623 5788.08 342.426C5786.14 343.229 5784.01 343.439 5781.95 343.029C5779.9 342.62 5778.01 341.61 5776.52 340.127C5775.04 338.644 5774.03 336.755 5773.62 334.698C5773.21 332.641 5773.42 330.509 5774.23 328.572C5775.03 326.634 5776.39 324.978 5778.13 323.813C5779.88 322.648 5781.93 322.026 5784.02 322.026C5786.83 322.026 5789.53 323.143 5791.52 325.132C5793.51 327.12 5794.63 329.817 5794.63 332.63ZM5911.55 429.13C5913.07 427.587 5913.92 425.511 5913.92 423.349C5913.92 421.712 5913.43 420.112 5912.52 418.752C5911.6 417.393 5910.31 416.336 5908.79 415.717C5907.28 415.097 5905.61 414.943 5904.01 415.273C5902.4 415.603 5900.93 416.403 5899.78 417.572C5898.64 418.74 5897.86 420.223 5897.56 421.832C5897.26 423.442 5897.45 425.105 5898.09 426.609C5898.74 428.113 5899.82 429.39 5901.2 430.279C5902.57 431.167 5904.18 431.626 5905.82 431.596C5907.98 431.558 5910.04 430.672 5911.55 429.13ZM5815.69 448.992C5816.9 447.776 5817.59 446.128 5817.59 444.409C5817.59 442.691 5816.9 441.043 5815.69 439.827C5814.47 438.612 5812.83 437.929 5811.11 437.929C5809.39 437.929 5807.74 438.612 5806.52 439.827C5805.31 441.043 5804.63 442.691 5804.63 444.409C5804.63 446.128 5805.31 447.776 5806.52 448.992C5807.74 450.207 5809.39 450.889 5811.11 450.889C5812.83 450.889 5814.47 450.207 5815.69 448.992ZM5731.42 393.355C5732.68 391.466 5733.36 389.245 5733.36 386.973C5733.36 383.926 5732.15 381.005 5729.99 378.85C5727.84 376.696 5724.92 375.486 5721.87 375.486C5719.6 375.486 5717.38 376.16 5715.49 377.422C5713.6 378.684 5712.13 380.478 5711.26 382.577C5710.39 384.676 5710.16 386.986 5710.6 389.214C5711.05 391.442 5712.14 393.489 5713.75 395.096C5715.35 396.702 5717.4 397.796 5719.63 398.24C5721.86 398.683 5724.17 398.455 5726.27 397.586C5728.37 396.717 5730.16 395.244 5731.42 393.355Z" fill="white"/>
<path d="M3983.87 2907.91L3991.99 2967.77L4048.01 2977.32L3993.95 2990.61L3981.01 3042.71L3972.72 2988.02L3921.06 2981.33L3974.41 2967.68L3983.87 2907.91Z" fill="#E2EBF7"/>
<path d="M5765.81 2994.55L5770.21 3026.98L5800.55 3032.15L5771.27 3039.35L5764.27 3067.56L5759.77 3037.94L5731.8 3034.32L5760.69 3026.93L5765.81 2994.55Z" fill="#E2EBF7"/>
<path fill-rule="evenodd" clip-rule="evenodd" d="M3393.45 3077.91C3393.45 3083.2 3389.17 3087.48 3383.88 3087.48C3378.59 3087.48 3374.31 3083.2 3374.31 3077.91C3374.31 3072.62 3378.59 3068.34 3383.88 3068.34C3389.17 3068.34 3393.45 3072.62 3393.45 3077.91ZM3306.16 3114.22C3306.91 3113.11 3307.3 3111.8 3307.3 3110.46C3307.3 3108.66 3306.59 3106.94 3305.32 3105.67C3304.05 3104.4 3302.33 3103.68 3300.53 3103.68C3299.19 3103.68 3297.88 3104.08 3296.76 3104.83C3295.65 3105.57 3294.78 3106.63 3294.27 3107.87C3293.76 3109.1 3293.62 3110.47 3293.88 3111.78C3294.15 3113.09 3294.79 3114.3 3295.74 3115.25C3296.69 3116.2 3297.89 3116.84 3299.21 3117.1C3300.52 3117.36 3301.88 3117.23 3303.12 3116.72C3304.36 3116.2 3305.42 3115.34 3306.16 3114.22ZM3394.79 3150.37C3394.79 3153.28 3393.92 3156.13 3392.3 3158.55C3390.69 3160.97 3388.39 3162.86 3385.7 3163.98C3383 3165.09 3380.04 3165.38 3377.19 3164.81C3374.33 3164.24 3371.71 3162.84 3369.65 3160.78C3367.59 3158.72 3366.18 3156.1 3365.61 3153.24C3365.05 3150.39 3365.34 3147.42 3366.45 3144.73C3367.57 3142.04 3369.46 3139.74 3371.88 3138.12C3374.3 3136.51 3377.15 3135.64 3380.06 3135.64C3383.97 3135.64 3387.71 3137.19 3390.47 3139.96C3393.24 3142.72 3394.79 3146.46 3394.79 3150.37ZM4212.58 3165.1C4212.58 3170.38 4208.3 3174.67 4203.01 3174.67C4197.72 3174.67 4193.44 3170.38 4193.44 3165.1C4193.44 3159.81 4197.72 3155.52 4203.01 3155.52C4208.3 3155.52 4212.58 3159.81 4212.58 3165.1Z" fill="white"/>
<path d="M113.298 2129.33L132.828 2153.21L159.764 2142.4L139.785 2162.63L148.077 2188.76L129.852 2167.18L105.581 2178.07L125.154 2157.87L113.298 2129.33Z" fill="#E2EBF7"/>
<path d="M242.943 617.964L257.546 635.823L277.687 627.736L262.748 642.864L268.948 662.404L255.321 646.264L237.174 654.407L251.809 639.306L242.943 617.964Z" fill="#6F8DCE"/>
<path fill-rule="evenodd" clip-rule="evenodd" d="M1178.66 1161.36C1177.95 1161.46 1177.3 1161.8 1176.83 1162.34C1176.36 1162.88 1176.1 1163.57 1176.1 1164.28C1176.1 1165 1176.36 1165.69 1176.83 1166.23C1177.3 1166.77 1177.95 1167.11 1178.66 1167.21C1179.37 1167.11 1180.02 1166.77 1180.5 1166.23C1180.97 1165.69 1181.23 1165 1181.23 1164.28C1181.23 1163.57 1180.97 1162.88 1180.5 1162.34C1180.02 1161.8 1179.37 1161.46 1178.66 1161.36ZM1143.52 1205.84C1141.5 1198.33 1130.66 1202.4 1130.66 1208.93C1131.34 1218.89 1145.48 1214.23 1143.52 1205.84ZM1199.67 1213.98C1197.86 1210.65 1193.63 1207.06 1190.2 1210.55C1183.42 1218.6 1203.35 1226.11 1199.67 1213.98ZM1220.83 1585.47C1219.4 1585.47 1218.02 1586.04 1217.01 1587.05C1216 1588.06 1215.43 1589.43 1215.43 1590.87C1215.43 1592.3 1216 1593.67 1217.01 1594.68C1218.02 1595.7 1219.4 1596.27 1220.83 1596.27C1222.26 1596.27 1223.63 1595.7 1224.65 1594.68C1225.66 1593.67 1226.23 1592.3 1226.23 1590.87C1226.23 1589.43 1225.66 1588.06 1224.65 1587.05C1223.63 1586.04 1222.26 1585.47 1220.83 1585.47ZM1277.52 1546.54C1270.01 1539.87 1262.4 1551.45 1268.34 1557.83C1275.9 1564.46 1283.26 1552.68 1277.52 1546.54ZM1344.82 1507.52C1343.2 1507.66 1341.7 1508.4 1340.61 1509.6C1339.51 1510.79 1338.9 1512.35 1338.9 1513.97C1338.9 1515.59 1339.51 1517.16 1340.61 1518.35C1341.7 1519.55 1343.2 1520.29 1344.82 1520.43C1346.43 1520.29 1347.94 1519.55 1349.03 1518.35C1350.13 1517.16 1350.73 1515.59 1350.73 1513.97C1350.73 1512.35 1350.13 1510.79 1349.03 1509.6C1347.94 1508.4 1346.43 1507.66 1344.82 1507.52ZM1242.62 1457.45C1236.24 1451.61 1224.31 1458.73 1231.09 1466.53C1236.93 1472.32 1249.35 1464.67 1242.62 1457.45Z" fill="white"/>
<path d="M1300.1 1342.79L1304.57 1375.72L1335.44 1380.93L1305.7 1388.24L1298.58 1416.91L1293.97 1386.87L1265.59 1383.13L1294.95 1375.62L1300.1 1342.79Z" fill="#E2EBF7"/>
<path fill-rule="evenodd" clip-rule="evenodd" d="M2241.72 970.522C2242.68 969.565 2243.97 969.027 2245.33 969.027C2246.68 969.027 2247.98 969.565 2248.94 970.522C2249.9 971.48 2250.43 972.778 2250.43 974.132C2250.43 975.486 2249.9 976.785 2248.94 977.742C2247.98 978.699 2246.68 979.237 2245.33 979.237C2243.97 979.237 2242.68 978.699 2241.72 977.742C2240.76 976.785 2240.22 975.486 2240.22 974.132C2240.22 972.778 2240.76 971.48 2241.72 970.522ZM2217.94 987.876C2213.67 978.549 2203.85 988.759 2209.45 995.141C2214.45 999.706 2220.1 993.275 2217.94 987.876ZM2214.21 1095.62C2212.83 1090.71 2208.56 1083.94 2202.62 1087.42C2196.68 1090.91 2200.17 1097.68 2203.36 1101.71C2204.35 1102.73 2205.65 1103.39 2207.05 1103.6C2208.46 1103.81 2209.89 1103.54 2211.13 1102.85C2212.37 1102.15 2213.35 1101.06 2213.9 1099.76C2214.46 1098.45 2214.57 1096.99 2214.21 1095.62ZM2312.14 1089.29H2313.85C2322.84 1089.04 2321.56 1104.7 2312.14 1101.66C2310.49 1101.66 2308.92 1101.01 2307.76 1099.85C2306.6 1098.69 2305.95 1097.11 2305.95 1095.47C2305.95 1093.83 2306.6 1092.26 2307.76 1091.1C2308.92 1089.94 2310.49 1089.29 2312.14 1089.29Z" fill="white"/>
<path fill-rule="evenodd" clip-rule="evenodd" d="M1167.2 212.743C1167.15 211.39 1167.64 210.072 1168.56 209.08C1169.48 208.087 1170.76 207.501 1172.11 207.45C1173.46 207.399 1174.78 207.888 1175.77 208.809C1176.77 209.73 1177.35 211.007 1177.4 212.36C1177.45 213.713 1176.97 215.031 1176.05 216.023C1175.12 217.016 1173.85 217.602 1172.49 217.653C1171.14 217.704 1169.82 217.215 1168.83 216.294C1167.84 215.373 1167.25 214.096 1167.2 212.743ZM1163.75 241.979C1154.01 238.767 1154.82 252.908 1163.3 253.145C1170.05 252.579 1169.18 244.067 1163.75 241.979ZM1240.21 317.987C1235.67 315.656 1227.8 314.18 1226.32 320.905C1224.84 327.629 1232.17 329.681 1237.29 330.079C1238.71 330.05 1240.08 329.552 1241.19 328.661C1242.3 327.771 1243.08 326.539 1243.41 325.157C1243.75 323.776 1243.61 322.323 1243.03 321.025C1242.45 319.728 1241.46 318.66 1240.21 317.987ZM1302.16 241.885L1303.33 240.626C1309.26 233.873 1319.87 245.458 1311.23 250.298C1310.11 251.5 1308.57 252.211 1306.93 252.272C1305.29 252.334 1303.69 251.742 1302.49 250.626C1301.29 249.511 1300.58 247.963 1300.52 246.324C1300.45 244.685 1301.05 243.088 1302.16 241.885Z" fill="white"/>
<path fill-rule="evenodd" clip-rule="evenodd" d="M391.506 2743.71C391.535 2744.97 391.185 2746.21 390.5 2747.28C389.816 2748.34 388.829 2749.18 387.666 2749.67C386.503 2750.17 385.217 2750.31 383.975 2750.07C382.733 2749.83 381.592 2749.22 380.697 2748.33C379.803 2747.43 379.197 2746.29 378.957 2745.05C378.717 2743.81 378.855 2742.52 379.353 2741.36C379.85 2740.2 380.685 2739.21 381.748 2738.53C382.812 2737.84 384.056 2737.49 385.321 2737.52C386.961 2737.52 388.534 2738.17 389.694 2739.33C390.854 2740.49 391.506 2742.06 391.506 2743.71ZM334.505 2760.64C336.945 2760.64 338.923 2758.66 338.923 2756.22C338.923 2753.78 336.945 2751.81 334.505 2751.81C332.065 2751.81 330.086 2753.78 330.086 2756.22C330.086 2758.66 332.065 2760.64 334.505 2760.64ZM381.485 2785.24C381.485 2789.79 377.793 2793.48 373.238 2793.48C368.683 2793.48 364.991 2789.79 364.991 2785.24C364.991 2780.68 368.683 2776.99 373.238 2776.99C377.793 2776.99 381.485 2780.68 381.485 2785.24ZM301.223 2821.02C301.223 2823.09 300.609 2825.11 299.46 2826.83C298.311 2828.55 296.678 2829.89 294.768 2830.68C292.857 2831.48 290.755 2831.68 288.726 2831.28C286.698 2830.88 284.835 2829.88 283.373 2828.42C281.91 2826.96 280.914 2825.09 280.511 2823.06C280.108 2821.04 280.315 2818.93 281.106 2817.02C281.897 2815.11 283.237 2813.48 284.957 2812.33C286.676 2811.18 288.698 2810.57 290.766 2810.57C293.54 2810.57 296.199 2811.67 298.16 2813.63C300.121 2815.59 301.223 2818.25 301.223 2821.02ZM687.953 2994.21C688.368 2993.19 688.571 2992.08 688.552 2990.98C688.571 2989.87 688.368 2988.77 687.953 2987.74C687.538 2986.71 686.921 2985.78 686.137 2985C685.354 2984.21 684.42 2983.6 683.393 2983.18C682.365 2982.77 681.265 2982.56 680.157 2982.58C677.93 2982.58 675.795 2983.47 674.221 2985.04C672.647 2986.62 671.762 2988.75 671.762 2990.98C671.762 2993.2 672.647 2995.34 674.221 2996.91C675.795 2998.49 677.93 2999.37 680.157 2999.37C681.265 2999.39 682.365 2999.19 683.393 2998.77C684.42 2998.36 685.354 2997.74 686.137 2996.96C686.921 2996.17 687.538 2995.24 687.953 2994.21ZM647.019 2985.82C647.019 2986.68 646.677 2987.51 646.069 2988.11C645.462 2988.72 644.638 2989.06 643.779 2989.06C642.919 2989.06 642.095 2988.72 641.487 2988.11C640.88 2987.51 640.539 2986.68 640.539 2985.82C640.539 2984.96 640.88 2984.14 641.487 2983.53C642.095 2982.92 642.919 2982.58 643.779 2982.58C644.638 2982.58 645.462 2982.92 646.069 2983.53C646.677 2984.14 647.019 2984.96 647.019 2985.82ZM600.708 3036.67C602.223 3035.18 603.094 3033.16 603.132 3031.04C603.094 3028.91 602.223 3026.89 600.708 3025.4C599.194 3023.92 597.155 3023.08 595.032 3023.08C592.923 3023.08 590.9 3023.92 589.409 3025.41C587.918 3026.9 587.08 3028.93 587.08 3031.04C587.08 3033.14 587.918 3035.17 589.409 3036.66C590.9 3038.15 592.923 3038.99 595.032 3038.99C597.155 3038.99 599.194 3038.15 600.708 3036.67ZM367.645 2992.89C371.875 2992.89 375.303 2989.46 375.303 2985.23C375.303 2981 371.875 2977.57 367.645 2977.57C363.416 2977.57 359.987 2981 359.987 2985.23C359.987 2989.46 363.416 2992.89 367.645 2992.89ZM365.533 3012.1C365.954 3011.47 366.178 3010.73 366.178 3009.97C366.178 3008.96 365.775 3007.99 365.057 3007.27C364.339 3006.55 363.365 3006.15 362.349 3006.15C361.592 3006.15 360.852 3006.37 360.222 3006.79C359.592 3007.21 359.101 3007.81 358.812 3008.51C358.522 3009.21 358.446 3009.98 358.594 3010.72C358.741 3011.46 359.106 3012.15 359.642 3012.68C360.177 3013.22 360.859 3013.58 361.602 3013.73C362.345 3013.88 363.115 3013.8 363.815 3013.51C364.514 3013.22 365.112 3012.73 365.533 3012.1ZM282.96 2985.97C282.98 2986.72 282.85 2987.46 282.577 2988.16C282.305 2988.85 281.896 2989.49 281.374 2990.02C280.853 2990.56 280.229 2990.98 279.54 2991.27C278.851 2991.56 278.111 2991.71 277.364 2991.71C276.543 2991.85 275.703 2991.8 274.901 2991.57C274.1 2991.35 273.357 2990.96 272.724 2990.42C272.09 2989.88 271.582 2989.21 271.233 2988.45C270.884 2987.7 270.704 2986.87 270.704 2986.04C270.704 2985.21 270.884 2984.39 271.233 2983.63C271.582 2982.88 272.09 2982.21 272.724 2981.67C273.357 2981.13 274.1 2980.73 274.901 2980.51C275.703 2980.29 276.543 2980.24 277.364 2980.37C278.848 2980.37 280.272 2980.96 281.321 2982.01C282.371 2983.06 282.96 2984.48 282.96 2985.97ZM453.067 2952.69C453.067 2954.72 451.419 2956.37 449.385 2956.37C447.352 2956.37 445.704 2954.72 445.704 2952.69C445.704 2950.65 447.352 2949 449.385 2949C451.419 2949 453.067 2950.65 453.067 2952.69ZM445.55 3006.15C447.99 3006.15 449.968 3004.17 449.968 3001.73C449.968 2999.29 447.99 2997.31 445.55 2997.31C443.11 2997.31 441.131 2999.29 441.131 3001.73C441.131 3004.17 443.11 3006.15 445.55 3006.15ZM156.049 3128.82C156.049 3135.57 150.576 3141.05 143.825 3141.05C137.075 3141.05 131.602 3135.57 131.602 3128.82C131.602 3122.07 137.075 3116.6 143.825 3116.6C150.576 3116.6 156.049 3122.07 156.049 3128.82ZM330.089 3120.58C330.05 3121.64 329.599 3122.66 328.83 3123.4C328.061 3124.14 327.034 3124.55 325.965 3124.55C324.91 3124.55 323.899 3124.13 323.153 3123.39C322.408 3122.64 321.989 3121.63 321.989 3120.58C321.989 3119.52 322.408 3118.51 323.153 3117.76C323.899 3117.02 324.91 3116.6 325.965 3116.6C327.034 3116.6 328.061 3117.01 328.83 3117.76C329.599 3118.5 330.05 3119.51 330.089 3120.58ZM361.006 3090.08C361.862 3089.22 362.343 3088.06 362.343 3086.85C362.343 3086.25 362.225 3085.66 361.996 3085.1C361.766 3084.55 361.43 3084.05 361.006 3083.62C360.582 3083.2 360.079 3082.86 359.525 3082.63C358.971 3082.4 358.377 3082.29 357.778 3082.29C356.567 3082.29 355.406 3082.77 354.549 3083.62C353.693 3084.48 353.212 3085.64 353.212 3086.85C353.212 3088.06 353.693 3089.22 354.549 3090.08C355.406 3090.94 356.567 3091.42 357.778 3091.42C358.989 3091.42 360.15 3090.94 361.006 3090.08Z" fill="#6F8DCE"/>
<path d="M335.296 1828.91L343.366 1888.42L399.059 1897.91L345.317 1911.12L332.458 1962.91L324.211 1908.55L272.863 1901.9L325.896 1888.33L335.296 1828.91Z" fill="#E2EBF7"/>
<path fill-rule="evenodd" clip-rule="evenodd" d="M6004.2 1822.37C5995.09 1828.13 6006.44 1839.62 6013.55 1833.21C6019.75 1827.25 6010.83 1818.73 6004.2 1822.37ZM5530.4 1836.88C5525.1 1840.49 5531.89 1845.91 5536.35 1843.64C5541.48 1840.44 5534.36 1834.77 5530.4 1836.88ZM5483.41 1875.89C5471.27 1878.25 5485.75 1892.81 5489.67 1882.29C5489.9 1881.42 5489.9 1880.5 5489.67 1879.63C5489.44 1878.75 5488.99 1877.95 5488.36 1877.31C5487.73 1876.66 5486.94 1876.19 5486.07 1875.95C5485.2 1875.7 5484.28 1875.68 5483.41 1875.89ZM6078.9 2177.37C6077.97 2177.18 6077.01 2177.19 6076.08 2177.39C6075.14 2177.59 6074.26 2177.97 6073.49 2178.52C6072.71 2179.08 6072.06 2179.78 6071.57 2180.59C6071.07 2181.41 6070.75 2182.31 6070.62 2183.26C6067.33 2191 6082.01 2195.17 6083.19 2186.78C6083.59 2185.89 6083.79 2184.92 6083.78 2183.95C6083.78 2182.97 6083.57 2182 6083.16 2181.11C6082.75 2180.23 6082.17 2179.43 6081.43 2178.79C6080.7 2178.14 6079.83 2177.66 6078.9 2177.37ZM6149.07 2000.73C6139.43 2002.36 6143.31 2015.63 6152.36 2013.89C6161.41 2012.15 6157.92 1999.34 6149.07 2000.73Z" fill="white"/>
<path d="M6061.67 2996.35C6052.04 2997.98 6055.91 3011.25 6064.97 3009.51C6074.02 3007.77 6070.53 2994.96 6061.67 2996.35Z" fill="white"/>
<path d="M6113.06 1892.43C6104.7 1890.09 6100.52 1904.62 6109 1906.9C6117.49 1909.18 6121.52 1894.81 6113.06 1892.43Z" fill="white"/>
<path d="M5856.99 2822.37C5847.88 2828.13 5859.24 2839.62 5866.34 2833.2C5872.55 2827.25 5863.62 2818.73 5856.99 2822.37Z" fill="white"/>
<path fill-rule="evenodd" clip-rule="evenodd" d="M2891.51 2223.24C2891.51 2225.55 2889.64 2227.42 2887.34 2227.42C2885.03 2227.42 2883.16 2225.55 2883.16 2223.24C2883.16 2220.93 2885.03 2219.06 2887.34 2219.06C2889.64 2219.06 2891.51 2220.93 2891.51 2223.24ZM3008.42 2279.13C3015.42 2279.13 3021.09 2273.46 3021.09 2266.47C3021.09 2259.47 3015.42 2253.8 3008.42 2253.8C3001.43 2253.8 2995.76 2259.47 2995.76 2266.47C2995.76 2273.46 3001.43 2279.13 3008.42 2279.13ZM2990.16 2464.4C2990.16 2467.31 2989.3 2470.16 2987.68 2472.58C2986.06 2475.01 2983.76 2476.89 2981.07 2478.01C2978.38 2479.12 2975.42 2479.41 2972.56 2478.85C2969.71 2478.28 2967.08 2476.88 2965.02 2474.82C2962.96 2472.76 2961.56 2470.13 2960.99 2467.27C2960.42 2464.42 2960.71 2461.46 2961.83 2458.77C2962.94 2456.07 2964.83 2453.77 2967.25 2452.16C2969.67 2450.54 2972.52 2449.67 2975.44 2449.67C2979.34 2449.67 2983.09 2451.23 2985.85 2453.99C2988.61 2456.75 2990.16 2460.5 2990.16 2464.4ZM2898.27 2424.1C2899.71 2422.84 2900.66 2421.09 2900.92 2419.19C2900.66 2417.28 2899.71 2415.54 2898.27 2414.28C2896.82 2413.01 2894.96 2412.32 2893.04 2412.32C2891.12 2412.32 2889.26 2413.01 2887.81 2414.28C2886.36 2415.54 2885.42 2417.28 2885.16 2419.19C2885.42 2421.09 2886.36 2422.84 2887.81 2424.1C2889.26 2425.37 2891.12 2426.06 2893.04 2426.06C2894.96 2426.06 2896.82 2425.37 2898.27 2424.1ZM2927.57 2541.43C2927.59 2542.36 2927.42 2543.29 2927.08 2544.15C2926.73 2545.02 2926.21 2545.81 2925.55 2546.47C2924.89 2547.13 2924.1 2547.65 2923.23 2548C2922.37 2548.35 2921.44 2548.51 2920.5 2548.49C2918.63 2548.49 2916.83 2547.75 2915.51 2546.42C2914.18 2545.1 2913.43 2543.3 2913.43 2541.43C2913.47 2539.56 2914.23 2537.79 2915.55 2536.47C2916.86 2535.15 2918.64 2534.39 2920.5 2534.36C2922.38 2534.36 2924.18 2535.1 2925.5 2536.43C2926.83 2537.75 2927.57 2539.55 2927.57 2541.43Z" fill="white"/>
<path fill-rule="evenodd" clip-rule="evenodd" d="M732.74 1899.87C734.968 1899.28 737.258 1900.6 737.855 1902.83C738.452 1905.06 737.13 1907.35 734.902 1907.94C732.674 1908.54 730.383 1907.22 729.786 1904.99C729.189 1902.76 730.511 1900.47 732.74 1899.87ZM756.471 1772.48C754.661 1765.73 747.716 1761.72 740.959 1763.53C734.203 1765.34 730.193 1772.28 732.004 1779.04C733.814 1785.8 740.759 1789.81 747.515 1787.99C754.272 1786.18 758.282 1779.24 756.471 1772.48ZM940.154 1742.17C942.967 1741.42 945.941 1741.51 948.699 1742.45C951.457 1743.39 953.876 1745.12 955.649 1747.43C957.422 1749.74 958.471 1752.53 958.661 1755.43C958.852 1758.34 958.176 1761.24 956.72 1763.76C955.263 1766.28 953.091 1768.31 950.479 1769.6C947.867 1770.89 944.931 1771.38 942.043 1771C939.155 1770.62 936.445 1769.39 934.255 1767.47C932.065 1765.55 930.494 1763.02 929.74 1760.21C928.729 1756.43 929.258 1752.41 931.211 1749.03C933.164 1745.65 936.381 1743.18 940.154 1742.17ZM925.012 1841.36C923.416 1840.29 921.487 1839.83 919.58 1840.08C917.808 1840.82 916.366 1842.18 915.52 1843.91C914.674 1845.63 914.483 1847.61 914.98 1849.46C915.478 1851.32 916.631 1852.94 918.226 1854.01C919.822 1855.08 921.751 1855.54 923.658 1855.3C925.43 1854.55 926.872 1853.19 927.718 1851.46C928.564 1849.74 928.755 1847.76 928.258 1845.91C927.76 1844.05 926.607 1842.44 925.012 1841.36ZM1030.75 1782.69C1031.65 1782.43 1032.59 1782.35 1033.52 1782.47C1034.44 1782.58 1035.34 1782.88 1036.15 1783.34C1036.96 1783.81 1037.66 1784.44 1038.22 1785.18C1038.78 1785.93 1039.19 1786.78 1039.41 1787.69C1039.9 1789.5 1039.64 1791.43 1038.7 1793.05C1037.77 1794.68 1036.22 1795.86 1034.41 1796.35C1032.6 1796.79 1030.69 1796.52 1029.08 1795.59C1027.46 1794.66 1026.27 1793.14 1025.75 1791.35C1025.27 1789.54 1025.52 1787.61 1026.46 1785.99C1027.4 1784.36 1028.94 1783.18 1030.75 1782.69Z" fill="white"/>
<path d="M4678.23 1760.46L4672.91 1776L4685.36 1785.15L4670.6 1781.79L4661.1 1792.88L4665.75 1778.57L4654.01 1770.65L4668.64 1773.84L4678.23 1760.46Z" fill="#E2EBF7"/>
<path d="M5021.99 2166.6L5024.2 2182.88L5039.44 2185.47L5024.74 2189.09L5021.22 2203.26L5018.96 2188.38L5004.91 2186.56L5019.42 2182.85L5021.99 2166.6Z" fill="#E2EBF7"/>
</svg>
