<svg width="2670" height="1380" viewBox="0 0 2670 1380" fill="none" xmlns="http://www.w3.org/2000/svg">
<path fill-rule="evenodd" clip-rule="evenodd" d="M92.0195 385.674C92.9653 385.628 93.8762 385.303 94.6371 384.739C95.6575 383.984 96.3359 382.854 96.5232 381.598C96.7104 380.342 96.3911 379.063 95.6355 378.043C95.072 377.282 94.2956 376.705 93.4043 376.386C92.5131 376.066 91.5471 376.018 90.6284 376.247C89.7098 376.476 88.8798 376.973 88.2434 377.674C87.6071 378.375 87.1929 379.249 87.0533 380.186C86.9136 381.122 87.0548 382.079 87.459 382.935C87.8632 383.792 88.5122 384.509 89.324 384.996C90.1357 385.484 91.0738 385.719 92.0195 385.674ZM109.107 391.332C108.656 391.665 108.117 391.858 107.558 391.885C106.998 391.912 106.443 391.772 105.963 391.484C105.482 391.196 105.098 390.771 104.859 390.265C104.62 389.758 104.536 389.192 104.619 388.638C104.702 388.083 104.947 387.566 105.323 387.151C105.7 386.737 106.191 386.443 106.735 386.307C107.278 386.171 107.85 386.2 108.377 386.389C108.904 386.578 109.364 386.919 109.697 387.37C110.144 387.973 110.333 388.73 110.223 389.473C110.112 390.216 109.71 390.885 109.107 391.332ZM49.3826 463.982C49.7533 463.823 50.0686 463.557 50.2885 463.219C50.576 462.764 50.6744 462.214 50.5627 461.687C50.451 461.16 50.1381 460.697 49.6905 460.398C49.3524 460.178 48.9565 460.063 48.5532 460.068C48.1498 460.073 47.7571 460.198 47.4245 460.426C47.0919 460.654 46.8344 460.976 46.6847 461.35C46.535 461.725 46.4997 462.136 46.5834 462.53C46.667 462.925 46.8658 463.286 47.1545 463.567C47.4433 463.849 47.8092 464.039 48.2058 464.113C48.6023 464.186 49.0119 464.141 49.3826 463.982ZM106.985 468.056C106.647 468.586 106.159 469.004 105.584 469.256C105.008 469.508 104.37 469.584 103.751 469.473C103.132 469.362 102.56 469.07 102.108 468.634C101.655 468.197 101.343 467.636 101.21 467.022C101.076 466.407 101.129 465.767 101.36 465.182C101.592 464.598 101.991 464.095 102.509 463.738C103.027 463.381 103.638 463.186 104.267 463.178C104.896 463.169 105.513 463.347 106.04 463.69C106.741 464.146 107.234 464.861 107.411 465.678C107.588 466.496 107.435 467.35 106.985 468.056ZM123.798 469.224C123.489 469.698 123.045 470.069 122.523 470.288C122.001 470.507 121.425 470.565 120.87 470.454C120.315 470.343 119.806 470.068 119.408 469.665C119.011 469.262 118.743 468.749 118.64 468.192C118.537 467.636 118.603 467.061 118.83 466.542C119.056 466.023 119.433 465.584 119.912 465.282C120.39 464.979 120.949 464.827 121.514 464.845C122.08 464.863 122.628 465.05 123.086 465.382C123.396 465.578 123.663 465.836 123.868 466.14C124.074 466.443 124.215 466.787 124.281 467.147C124.348 467.508 124.34 467.879 124.257 468.236C124.173 468.593 124.017 468.929 123.798 469.224ZM113.79 502.133C114.305 501.912 114.743 501.544 115.048 501.074C115.458 500.444 115.6 499.677 115.444 498.943C115.289 498.208 114.847 497.565 114.217 497.155C113.748 496.85 113.198 496.69 112.638 496.697C112.078 496.704 111.532 496.877 111.07 497.194C110.608 497.511 110.251 497.958 110.043 498.478C109.835 498.999 109.786 499.569 109.902 500.117C110.018 500.665 110.294 501.166 110.695 501.558C111.096 501.949 111.604 502.212 112.155 502.315C112.706 502.417 113.275 502.354 113.79 502.133ZM83.3421 482.281C83.1772 482.534 82.9407 482.733 82.6627 482.853C82.3846 482.972 82.0775 483.006 81.7801 482.951C81.4826 482.895 81.2083 482.753 80.9917 482.542C80.7751 482.331 80.6261 482.06 80.5633 481.764C80.5006 481.468 80.5271 481.16 80.6393 480.879C80.7516 480.598 80.9447 480.357 81.1941 480.186C81.4436 480.014 81.7382 479.921 82.0407 479.917C82.3432 479.913 82.6401 480 82.8937 480.164C83.2338 480.386 83.4721 480.733 83.5562 481.13C83.6403 481.527 83.5633 481.941 83.3421 482.281Z" fill="#6F8DCE"/>
<path fill-rule="evenodd" clip-rule="evenodd" d="M1886.88 733.411C1887.75 733.037 1888.49 732.415 1889 731.621C1889.7 730.556 1889.94 729.261 1889.67 728.018C1889.41 726.776 1888.66 725.69 1887.6 724.998C1886.81 724.481 1885.88 724.212 1884.93 724.224C1883.98 724.236 1883.06 724.528 1882.28 725.064C1881.5 725.6 1880.9 726.355 1880.54 727.234C1880.19 728.113 1880.11 729.077 1880.31 730.003C1880.5 730.93 1880.97 731.777 1881.65 732.438C1882.32 733.099 1883.18 733.544 1884.11 733.718C1885.05 733.891 1886.01 733.784 1886.88 733.411ZM1904.86 732.744C1904.56 733.214 1904.12 733.582 1903.61 733.803C1903.09 734.024 1902.52 734.087 1901.97 733.985C1901.42 733.882 1900.91 733.619 1900.51 733.228C1900.11 732.836 1899.83 732.335 1899.72 731.787C1899.6 731.239 1899.65 730.669 1899.86 730.148C1900.07 729.628 1900.42 729.181 1900.89 728.864C1901.35 728.547 1901.89 728.374 1902.45 728.367C1903.01 728.36 1903.56 728.52 1904.03 728.825C1904.66 729.235 1905.1 729.877 1905.26 730.612C1905.42 731.347 1905.27 732.114 1904.86 732.744ZM1784.89 768.463C1785.26 768.304 1785.58 768.039 1785.8 767.701C1786.08 767.245 1786.18 766.696 1786.07 766.169C1785.96 765.642 1785.65 765.179 1785.2 764.879C1784.86 764.659 1784.46 764.545 1784.06 764.55C1783.66 764.555 1783.26 764.679 1782.93 764.907C1782.6 765.136 1782.34 765.458 1782.19 765.832C1782.04 766.207 1782.01 766.617 1782.09 767.012C1782.17 767.406 1782.37 767.767 1782.66 768.049C1782.95 768.331 1783.32 768.52 1783.71 768.594C1784.11 768.668 1784.52 768.622 1784.89 768.463ZM1842.49 772.537C1842.16 773.068 1841.67 773.485 1841.09 773.738C1840.52 773.99 1839.88 774.065 1839.26 773.955C1838.64 773.844 1838.07 773.552 1837.62 773.115C1837.16 772.679 1836.85 772.118 1836.72 771.503C1836.58 770.889 1836.64 770.249 1836.87 769.664C1837.1 769.08 1837.5 768.577 1838.02 768.22C1838.53 767.863 1839.15 767.668 1839.78 767.659C1840.4 767.651 1841.02 767.829 1841.55 768.172C1842.25 768.628 1842.74 769.342 1842.92 770.16C1843.1 770.978 1842.94 771.832 1842.49 772.537ZM1859.31 773.705C1859 774.179 1858.55 774.55 1858.03 774.769C1857.51 774.989 1856.93 775.047 1856.38 774.936C1855.82 774.825 1855.31 774.55 1854.92 774.147C1854.52 773.744 1854.25 773.231 1854.15 772.674C1854.04 772.117 1854.11 771.543 1854.34 771.024C1854.56 770.505 1854.94 770.066 1855.42 769.764C1855.9 769.461 1856.46 769.309 1857.02 769.327C1857.59 769.345 1858.14 769.531 1858.59 769.863C1858.9 770.059 1859.17 770.318 1859.38 770.621C1859.58 770.925 1859.72 771.268 1859.79 771.629C1859.86 771.99 1859.85 772.36 1859.76 772.718C1859.68 773.075 1859.53 773.411 1859.31 773.705ZM1849.3 806.615C1849.81 806.394 1850.25 806.025 1850.56 805.556C1850.97 804.926 1851.11 804.159 1850.95 803.424C1850.8 802.689 1850.36 802.046 1849.73 801.637C1849.26 801.331 1848.71 801.172 1848.15 801.179C1847.59 801.186 1847.04 801.359 1846.58 801.676C1846.12 801.993 1845.76 802.44 1845.55 802.96C1845.34 803.48 1845.29 804.051 1845.41 804.599C1845.53 805.147 1845.8 805.648 1846.2 806.039C1846.6 806.431 1847.11 806.694 1847.66 806.796C1848.21 806.899 1848.78 806.836 1849.3 806.615ZM1818.85 786.762C1818.68 787.016 1818.45 787.215 1818.17 787.334C1817.89 787.454 1817.59 787.488 1817.29 787.432C1816.99 787.377 1816.72 787.235 1816.5 787.024C1816.28 786.812 1816.13 786.542 1816.07 786.246C1816.01 785.95 1816.03 785.642 1816.15 785.361C1816.26 785.08 1816.45 784.838 1816.7 784.667C1816.95 784.496 1817.25 784.403 1817.55 784.399C1817.85 784.395 1818.15 784.481 1818.4 784.646C1818.74 784.867 1818.98 785.214 1819.06 785.611C1819.15 786.008 1819.07 786.422 1818.85 786.762Z" fill="white"/>
<path d="M349.576 106.332L341.975 124.886L356.495 136.927L338.75 131.776L326.385 144.605L333.076 127.509L319.339 117.013L336.939 121.943L349.576 106.332Z" fill="#6F8DCE"/>
<path fill-rule="evenodd" clip-rule="evenodd" d="M162.959 54.721C163.455 54.2249 164.128 53.9463 164.829 53.9463C165.531 53.9463 166.203 54.2249 166.699 54.721C167.195 55.217 167.474 55.8897 167.474 56.5912C167.474 57.2927 167.195 57.9654 166.699 58.4614C166.203 58.9574 165.531 59.2361 164.829 59.2361C164.128 59.2361 163.455 58.9574 162.959 58.4614C162.463 57.9654 162.184 57.2927 162.184 56.5912C162.184 55.8897 162.463 55.217 162.959 54.721ZM149.359 69.3117C147.26 66.9816 143.943 71.4108 146.168 73.258C148.645 75.798 152.339 71.2848 149.359 69.3117ZM169.069 74.0346C168.351 74.0346 167.662 74.3199 167.155 74.8277C166.647 75.3355 166.362 76.0243 166.362 76.7425C166.362 77.4606 166.647 78.1494 167.155 78.6572C167.662 79.165 168.351 79.4503 169.069 79.4503C169.788 79.4503 170.476 79.165 170.984 78.6572C171.492 78.1494 171.777 77.4606 171.777 76.7425C171.777 76.0243 171.492 75.3355 170.984 74.8277C170.476 74.3199 169.788 74.0346 169.069 74.0346ZM221.191 63.8748C217.832 59.6976 225.137 55.4154 225.893 61.3769C226 61.9605 225.919 62.5633 225.661 63.0977C225.403 63.6321 224.981 64.0703 224.457 64.3488C223.933 64.6272 223.334 64.7314 222.746 64.6462C222.159 64.5609 221.614 64.2908 221.191 63.8748Z" fill="#6F8DCE"/>
<path d="M277.589 124.37L280.164 143.361L297.938 146.389L280.787 150.606L276.683 167.134L274.051 149.785L257.664 147.663L274.589 143.332L277.589 124.37Z" fill="#6F8DCE"/>
<path d="M104.834 105.153C106.387 101.102 99.6277 98.8558 99.3338 103.579C99.2289 106.329 103.805 107.945 104.834 105.153Z" fill="#6F8DCE"/>
<path d="M2617.86 404.368L2621.12 428.398L2643.61 432.229L2621.91 437.565L2616.71 458.479L2613.38 436.527L2592.65 433.841L2614.06 428.362L2617.86 404.368Z" fill="#E2EBF7"/>
<path d="M2643.43 364.328L2645.6 380.314L2660.56 382.863L2646.12 386.413L2642.67 400.327L2640.45 385.722L2626.66 383.936L2640.91 380.29L2643.43 364.328Z" fill="#E2EBF7"/>
<path d="M1022.8 233.375L1025.36 252.271L1043.05 255.284L1025.98 259.48L1021.9 275.926L1019.28 258.663L1002.98 256.551L1019.82 252.243L1022.8 233.375Z" fill="#E2EBF7"/>
<path d="M807.547 71.7783L810.998 97.2257L834.814 101.284L811.832 106.934L806.333 129.082L802.806 105.835L780.848 102.99L803.527 97.1878L807.547 71.7783Z" fill="#E2EBF7"/>
<path d="M2314.64 18.5664L2316.79 34.4065L2331.61 36.9324L2317.31 40.4498L2313.88 54.2362L2311.69 39.7653L2298.02 37.9947L2312.14 34.3829L2314.64 18.5664Z" fill="#E2EBF7"/>
<path d="M2271.79 -17.1035L2273.94 -1.2634L2288.77 1.26252L2274.46 4.77993L2271.04 18.5663L2268.84 4.09533L2255.18 2.32483L2269.29 -1.287L2271.79 -17.1035Z" fill="#E2EBF7"/>
<path fill-rule="evenodd" clip-rule="evenodd" d="M1276.47 247.332C1276.48 247.873 1276.33 248.405 1276.04 248.86C1275.75 249.315 1275.33 249.672 1274.83 249.885C1274.33 250.097 1273.78 250.156 1273.25 250.054C1272.72 249.951 1272.23 249.692 1271.85 249.31C1271.47 248.927 1271.21 248.439 1271.1 247.908C1271 247.377 1271.06 246.827 1271.27 246.33C1271.49 245.832 1271.84 245.41 1272.3 245.117C1272.75 244.825 1273.28 244.675 1273.83 244.687C1274.53 244.687 1275.2 244.966 1275.7 245.462C1276.19 245.958 1276.47 246.631 1276.47 247.332ZM1252.09 254.575C1253.14 254.575 1253.98 253.729 1253.98 252.686C1253.98 251.642 1253.14 250.796 1252.09 250.796C1251.05 250.796 1250.2 251.642 1250.2 252.686C1250.2 253.729 1251.05 254.575 1252.09 254.575ZM1272.18 265.093C1272.18 267.041 1270.61 268.62 1268.66 268.62C1266.71 268.62 1265.13 267.041 1265.13 265.093C1265.13 263.145 1266.71 261.566 1268.66 261.566C1270.61 261.566 1272.18 263.145 1272.18 265.093ZM1237.86 280.397C1237.86 281.282 1237.6 282.146 1237.11 282.881C1236.62 283.617 1235.92 284.19 1235.1 284.528C1234.28 284.867 1233.38 284.955 1232.52 284.783C1231.65 284.61 1230.85 284.184 1230.23 283.559C1229.6 282.934 1229.18 282.137 1229 281.27C1228.83 280.402 1228.92 279.503 1229.26 278.686C1229.6 277.869 1230.17 277.171 1230.91 276.679C1231.64 276.188 1232.51 275.926 1233.39 275.926C1234.58 275.926 1235.71 276.397 1236.55 277.235C1237.39 278.074 1237.86 279.211 1237.86 280.397ZM1369.03 474.199C1369.21 473.76 1369.3 473.289 1369.29 472.815C1369.3 472.342 1369.21 471.871 1369.03 471.432C1368.85 470.992 1368.59 470.593 1368.26 470.258C1367.92 469.923 1367.52 469.659 1367.08 469.481C1366.64 469.304 1366.17 469.217 1365.7 469.226C1364.75 469.226 1363.83 469.604 1363.16 470.277C1362.49 470.95 1362.11 471.863 1362.11 472.815C1362.11 473.768 1362.49 474.681 1363.16 475.354C1363.83 476.027 1364.75 476.405 1365.7 476.405C1366.17 476.414 1366.64 476.327 1367.08 476.149C1367.52 475.972 1367.92 475.708 1368.26 475.373C1368.59 475.038 1368.85 474.639 1369.03 474.199ZM1351.53 470.611C1351.53 470.979 1351.38 471.331 1351.12 471.591C1350.86 471.851 1350.51 471.997 1350.14 471.997C1349.77 471.997 1349.42 471.851 1349.16 471.591C1348.9 471.331 1348.76 470.979 1348.76 470.611C1348.76 470.244 1348.9 469.891 1349.16 469.632C1349.42 469.372 1349.77 469.226 1350.14 469.226C1350.51 469.226 1350.86 469.372 1351.12 469.632C1351.38 469.891 1351.53 470.244 1351.53 470.611ZM1331.72 492.355C1332.37 491.719 1332.74 490.854 1332.76 489.946C1332.74 489.039 1332.37 488.174 1331.72 487.538C1331.07 486.902 1330.2 486.545 1329.3 486.545C1328.39 486.545 1327.53 486.904 1326.89 487.542C1326.25 488.179 1325.89 489.044 1325.89 489.946C1325.89 490.848 1326.25 491.713 1326.89 492.351C1327.53 492.989 1328.39 493.347 1329.3 493.347C1330.2 493.347 1331.07 492.991 1331.72 492.355ZM1266.27 353.894C1268.08 353.894 1269.54 352.428 1269.54 350.62C1269.54 348.811 1268.08 347.345 1266.27 347.345C1264.46 347.345 1262.99 348.811 1262.99 350.62C1262.99 352.428 1264.46 353.894 1266.27 353.894ZM1265.36 362.11C1265.54 361.841 1265.64 361.524 1265.64 361.2C1265.64 360.766 1265.47 360.349 1265.16 360.042C1264.85 359.735 1264.44 359.563 1264 359.563C1263.68 359.563 1263.36 359.659 1263.09 359.839C1262.82 360.019 1262.61 360.274 1262.49 360.574C1262.36 360.873 1262.33 361.202 1262.4 361.52C1262.46 361.837 1262.61 362.129 1262.84 362.358C1263.07 362.587 1263.36 362.743 1263.68 362.806C1264 362.869 1264.33 362.837 1264.63 362.713C1264.93 362.589 1265.18 362.379 1265.36 362.11ZM1230.05 350.934C1230.06 351.254 1230 351.572 1229.89 351.87C1229.77 352.167 1229.6 352.439 1229.37 352.668C1229.15 352.896 1228.88 353.078 1228.59 353.203C1228.29 353.327 1227.98 353.391 1227.66 353.391C1227.31 353.447 1226.95 353.427 1226.61 353.332C1226.26 353.236 1225.94 353.067 1225.67 352.836C1225.4 352.606 1225.19 352.319 1225.04 351.996C1224.89 351.673 1224.81 351.322 1224.81 350.966C1224.81 350.61 1224.89 350.259 1225.04 349.936C1225.19 349.613 1225.4 349.326 1225.67 349.096C1225.94 348.865 1226.26 348.696 1226.61 348.6C1226.95 348.505 1227.31 348.484 1227.66 348.541C1228.29 348.541 1228.9 348.793 1229.35 349.242C1229.8 349.691 1230.05 350.3 1230.05 350.934ZM1302.8 336.701C1302.8 337.571 1302.09 338.275 1301.22 338.275C1300.35 338.275 1299.65 337.571 1299.65 336.701C1299.65 335.831 1300.35 335.127 1301.22 335.127C1302.09 335.127 1302.8 335.831 1302.8 336.701ZM1299.58 359.563C1300.63 359.563 1301.47 358.717 1301.47 357.673C1301.47 356.63 1300.63 355.784 1299.58 355.784C1298.54 355.784 1297.69 356.63 1297.69 357.673C1297.69 358.717 1298.54 359.563 1299.58 359.563ZM1175.78 412.025C1175.78 414.912 1173.44 417.252 1170.55 417.252C1167.66 417.252 1165.32 414.912 1165.32 412.025C1165.32 409.138 1167.66 406.798 1170.55 406.798C1173.44 406.798 1175.78 409.138 1175.78 412.025ZM1250.21 408.498C1250.19 408.955 1250 409.387 1249.67 409.705C1249.34 410.022 1248.9 410.199 1248.44 410.199C1247.99 410.199 1247.56 410.019 1247.24 409.701C1246.92 409.382 1246.74 408.949 1246.74 408.498C1246.74 408.047 1246.92 407.615 1247.24 407.296C1247.56 406.977 1247.99 406.798 1248.44 406.798C1248.9 406.797 1249.34 406.975 1249.67 407.292C1250 407.609 1250.19 408.041 1250.21 408.498ZM1263.43 395.457C1263.79 395.09 1264 394.594 1264 394.076C1264 393.82 1263.95 393.566 1263.85 393.329C1263.75 393.092 1263.61 392.877 1263.43 392.695C1263.25 392.514 1263.03 392.37 1262.79 392.272C1262.56 392.174 1262.3 392.124 1262.05 392.124C1261.53 392.124 1261.03 392.329 1260.67 392.695C1260.3 393.062 1260.09 393.558 1260.09 394.076C1260.09 394.594 1260.3 395.09 1260.67 395.457C1261.03 395.823 1261.53 396.028 1262.05 396.028C1262.56 396.028 1263.06 395.823 1263.43 395.457Z" fill="white"/>
<path fill-rule="evenodd" clip-rule="evenodd" d="M2040.28 56.8504C2040.57 56.3955 2040.72 55.8634 2040.71 55.3226C2040.71 54.6211 2040.43 53.9483 2039.94 53.4522C2039.44 52.9561 2038.77 52.6775 2038.07 52.6775C2037.52 52.665 2036.99 52.8148 2036.54 53.1075C2036.08 53.4003 2035.73 53.8225 2035.51 54.3198C2035.3 54.8172 2035.24 55.3668 2035.34 55.8979C2035.45 56.4291 2035.71 56.9173 2036.09 57.2998C2036.47 57.6823 2036.96 57.9415 2037.49 58.044C2038.02 58.1465 2038.57 58.0875 2039.07 57.8748C2039.57 57.6621 2039.99 57.3053 2040.28 56.8504ZM2018.22 60.6761C2018.22 61.7196 2017.38 62.5655 2016.33 62.5655C2015.29 62.5655 2014.45 61.7196 2014.45 60.6761C2014.45 59.6326 2015.29 58.7867 2016.33 58.7867C2017.38 58.7867 2018.22 59.6326 2018.22 60.6761ZM2032.9 76.6099C2034.85 76.6099 2036.43 75.0309 2036.43 73.083C2036.43 71.1352 2034.85 69.5561 2032.9 69.5561C2030.95 69.5561 2029.37 71.1352 2029.37 73.083C2029.37 75.0309 2030.95 76.6099 2032.9 76.6099ZM2167.48 162.45C2167.66 162.01 2167.75 161.54 2167.74 161.066C2167.75 160.592 2167.66 160.122 2167.48 159.682C2167.31 159.243 2167.04 158.844 2166.71 158.509C2166.37 158.174 2165.97 157.909 2165.53 157.732C2165.09 157.555 2164.62 157.468 2164.15 157.476C2163.2 157.476 2162.28 157.854 2161.61 158.528C2160.94 159.201 2160.56 160.114 2160.56 161.066C2160.56 162.018 2160.94 162.931 2161.61 163.604C2162.28 164.278 2163.2 164.656 2164.15 164.656C2164.62 164.664 2165.09 164.577 2165.53 164.4C2165.97 164.223 2166.37 163.959 2166.71 163.623C2167.04 163.288 2167.31 162.889 2167.48 162.45ZM2149.98 158.862C2149.98 159.229 2149.83 159.582 2149.57 159.842C2149.31 160.101 2148.96 160.247 2148.59 160.247C2148.23 160.247 2147.87 160.101 2147.61 159.842C2147.35 159.582 2147.21 159.229 2147.21 158.862C2147.21 158.494 2147.35 158.142 2147.61 157.882C2147.87 157.622 2148.23 157.476 2148.59 157.476C2148.96 157.476 2149.31 157.622 2149.57 157.882C2149.83 158.142 2149.98 158.494 2149.98 158.862ZM2033.78 158.61C2033.78 160.418 2032.32 161.885 2030.51 161.885C2028.7 161.885 2027.23 160.418 2027.23 158.61C2027.23 156.801 2028.7 155.335 2030.51 155.335C2032.32 155.335 2033.78 156.801 2033.78 158.61ZM2029.88 169.19C2029.88 169.514 2029.78 169.831 2029.6 170.1C2029.42 170.369 2029.17 170.579 2028.87 170.703C2028.57 170.827 2028.24 170.86 2027.92 170.796C2027.61 170.733 2027.31 170.577 2027.08 170.348C2026.86 170.119 2026.7 169.828 2026.64 169.51C2026.57 169.192 2026.61 168.863 2026.73 168.564C2026.85 168.265 2027.06 168.009 2027.33 167.829C2027.6 167.649 2027.92 167.553 2028.24 167.553C2028.68 167.553 2029.09 167.725 2029.4 168.033C2029.71 168.34 2029.88 168.756 2029.88 169.19ZM1994.13 159.86C1994.25 159.562 1994.3 159.244 1994.29 158.925C1994.29 158.29 1994.04 157.681 1993.59 157.232C1993.14 156.784 1992.53 156.531 1991.9 156.531C1991.55 156.475 1991.19 156.495 1990.85 156.59C1990.5 156.686 1990.19 156.855 1989.91 157.086C1989.64 157.316 1989.43 157.603 1989.28 157.926C1989.13 158.249 1989.05 158.6 1989.05 158.956C1989.05 159.312 1989.13 159.663 1989.28 159.986C1989.43 160.309 1989.64 160.596 1989.91 160.826C1990.19 161.057 1990.5 161.226 1990.85 161.322C1991.19 161.417 1991.55 161.438 1991.9 161.381C1992.22 161.381 1992.54 161.317 1992.83 161.193C1993.12 161.069 1993.39 160.887 1993.61 160.658C1993.84 160.429 1994.01 160.157 1994.13 159.86ZM2065.46 146.266C2066.33 146.266 2067.04 145.561 2067.04 144.691C2067.04 143.822 2066.33 143.117 2065.46 143.117C2064.59 143.117 2063.89 143.822 2063.89 144.691C2063.89 145.561 2064.59 146.266 2065.46 146.266ZM2065.71 165.664C2065.71 166.707 2064.87 167.553 2063.82 167.553C2062.78 167.553 2061.93 166.707 2061.93 165.664C2061.93 164.62 2062.78 163.774 2063.82 163.774C2064.87 163.774 2065.71 164.62 2065.71 165.664ZM2014.45 216.488C2014.43 216.945 2014.24 217.378 2013.91 217.695C2013.58 218.012 2013.14 218.189 2012.68 218.189C2012.23 218.189 2011.8 218.01 2011.48 217.691C2011.16 217.372 2010.98 216.939 2010.98 216.488C2010.98 216.037 2011.16 215.605 2011.48 215.286C2011.8 214.967 2012.23 214.788 2012.68 214.788C2013.14 214.788 2013.58 214.965 2013.91 215.282C2014.24 215.599 2014.43 216.032 2014.45 216.488ZM2027.67 203.447C2028.03 203.081 2028.24 202.584 2028.24 202.066C2028.24 201.81 2028.19 201.556 2028.09 201.319C2027.99 201.082 2027.85 200.867 2027.67 200.686C2027.49 200.504 2027.27 200.361 2027.03 200.262C2026.8 200.164 2026.54 200.114 2026.29 200.114C2025.77 200.114 2025.27 200.32 2024.91 200.686C2024.54 201.052 2024.33 201.548 2024.33 202.066C2024.33 202.584 2024.54 203.081 2024.91 203.447C2025.27 203.813 2025.77 204.019 2026.29 204.019C2026.81 204.019 2027.3 203.813 2027.67 203.447Z" fill="white"/>
<path fill-rule="evenodd" clip-rule="evenodd" d="M2475.5 334.998C2475.97 334.525 2476.24 333.885 2476.24 333.216C2476.24 332.548 2475.97 331.908 2475.5 331.435C2475.03 330.963 2474.39 330.697 2473.72 330.697C2473.05 330.697 2472.41 330.963 2471.94 331.435C2471.46 331.908 2471.2 332.548 2471.2 333.216C2471.2 333.885 2471.46 334.525 2471.94 334.998C2472.41 335.47 2473.05 335.736 2473.72 335.736C2474.39 335.736 2475.03 335.47 2475.5 334.998ZM2544.25 392.858C2544.25 393.971 2543.35 394.874 2542.24 394.874C2541.13 394.874 2540.22 393.971 2540.22 392.858C2540.22 391.745 2541.13 390.843 2542.24 390.843C2543.35 390.843 2544.25 391.745 2544.25 392.858ZM2510.43 394.559C2510.43 395.027 2510.25 395.475 2509.92 395.806C2509.59 396.137 2509.14 396.322 2508.67 396.322C2508.42 396.371 2508.15 396.363 2507.9 396.299C2507.65 396.234 2507.42 396.115 2507.21 395.95C2507.01 395.784 2506.85 395.576 2506.74 395.342C2506.63 395.107 2506.58 394.85 2506.58 394.59C2506.58 394.331 2506.63 394.074 2506.74 393.839C2506.85 393.604 2507.01 393.397 2507.21 393.231C2507.42 393.066 2507.65 392.947 2507.9 392.882C2508.15 392.818 2508.42 392.81 2508.67 392.858C2509.13 392.858 2509.57 393.035 2509.9 393.352C2510.22 393.67 2510.42 394.102 2510.43 394.559ZM2497.26 444.53C2497.4 444.323 2497.48 444.079 2497.48 443.83C2497.48 443.496 2497.34 443.176 2497.11 442.94C2496.87 442.703 2496.55 442.571 2496.22 442.571C2495.97 442.571 2495.72 442.645 2495.52 442.783C2495.31 442.921 2495.15 443.118 2495.05 443.348C2494.96 443.578 2494.93 443.832 2494.98 444.076C2495.03 444.32 2495.15 444.545 2495.33 444.721C2495.5 444.897 2495.73 445.017 2495.97 445.066C2496.22 445.114 2496.47 445.089 2496.7 444.994C2496.93 444.899 2497.13 444.737 2497.26 444.53ZM2414.14 381.9C2415.67 381.9 2416.91 380.659 2416.91 379.129C2416.91 377.598 2415.67 376.358 2414.14 376.358C2412.61 376.358 2411.37 377.598 2411.37 379.129C2411.37 380.659 2412.61 381.9 2414.14 381.9ZM2458.06 381.066C2458.57 380.548 2458.85 379.853 2458.85 379.129C2458.85 378.405 2458.57 377.709 2458.06 377.191C2457.56 376.673 2456.87 376.374 2456.14 376.358C2455.41 376.358 2454.71 376.65 2454.19 377.169C2453.67 377.689 2453.37 378.394 2453.37 379.129C2453.37 379.864 2453.67 380.569 2454.19 381.088C2454.71 381.608 2455.41 381.9 2456.14 381.9C2456.87 381.883 2457.56 381.584 2458.06 381.066ZM2510.43 367.1C2510.45 367.663 2510.29 368.217 2509.99 368.691C2509.68 369.165 2509.25 369.538 2508.73 369.763C2508.21 369.987 2507.64 370.052 2507.09 369.95C2506.53 369.848 2506.02 369.583 2505.62 369.189C2505.22 368.795 2504.94 368.291 2504.83 367.739C2504.71 367.188 2504.76 366.615 2504.98 366.093C2505.19 365.572 2505.55 365.125 2506.02 364.811C2506.49 364.497 2507.04 364.329 2507.6 364.329C2508.34 364.329 2509.05 364.618 2509.58 365.136C2510.11 365.654 2510.42 366.359 2510.43 367.1ZM2533.34 338.5C2533.89 337.682 2534.18 336.72 2534.18 335.736C2534.18 335.082 2534.05 334.435 2533.8 333.832C2533.55 333.228 2533.18 332.68 2532.72 332.218C2532.26 331.756 2531.71 331.389 2531.11 331.139C2530.5 330.889 2529.86 330.76 2529.2 330.76C2528.22 330.76 2527.26 331.052 2526.44 331.599C2525.62 332.145 2524.98 332.923 2524.61 333.832C2524.23 334.741 2524.13 335.741 2524.32 336.706C2524.51 337.671 2524.99 338.558 2525.68 339.254C2526.38 339.95 2527.27 340.424 2528.23 340.616C2529.2 340.807 2530.2 340.709 2531.11 340.332C2532.02 339.956 2532.79 339.318 2533.34 338.5Z" fill="white"/>
<path fill-rule="evenodd" clip-rule="evenodd" d="M1755.64 60.7988L1752.97 41.0537L1749.85 60.7694L1732.25 65.2716L1749.29 67.4786L1752.02 85.517L1756.29 68.332L1774.12 63.9474L1755.64 60.7988ZM1472.95 45.2373C1471.99 45.2373 1471.07 45.6186 1470.39 46.2974C1469.71 46.9762 1469.33 47.8968 1469.33 48.8567C1469.33 49.8167 1469.71 50.7373 1470.39 51.4161C1471.07 52.0948 1471.99 52.4762 1472.95 52.4762C1473.91 52.4762 1474.83 52.0948 1475.51 51.4161C1476.19 50.7373 1476.57 49.8167 1476.57 48.8567C1476.57 47.8968 1476.19 46.9762 1475.51 46.2974C1474.83 45.6186 1473.91 45.2373 1472.95 45.2373ZM1628.79 61.0095C1625.44 57.5666 1618.67 62.2748 1622.4 66.2474C1626.14 70.22 1632.67 65.3058 1628.79 61.0095ZM1503.06 78.8156C1499.71 75.3728 1492.94 80.081 1496.68 84.0535C1500.41 88.0261 1506.95 83.1119 1503.06 78.8156ZM1667.49 56.4778C1663.6 53.0643 1656.39 57.2429 1660.45 62.0394C1664.37 65.4528 1671.55 61.2743 1667.49 56.4778ZM1677.52 97.2196C1678.06 96.6238 1678.81 96.2512 1679.61 96.1745C1680.41 96.2512 1681.15 96.6238 1681.7 97.2196C1682.24 97.8154 1682.54 98.5916 1682.54 99.3967C1682.54 100.202 1682.24 100.978 1681.7 101.574C1681.15 102.17 1680.41 102.542 1679.61 102.619C1678.81 102.542 1678.06 102.17 1677.52 101.574C1676.98 100.978 1676.68 100.202 1676.68 99.3967C1676.68 98.5916 1676.98 97.8154 1677.52 97.2196ZM1789.49 86.1798C1786.55 83.7962 1784.75 88.4456 1786.55 90.5937C1789.29 93.0067 1791.26 88.1513 1789.49 86.1798Z" fill="white"/>
<path d="M693.414 729.011L695.87 747.116L712.842 749.976L696.49 753.997L692.578 769.755L690.041 753.241L674.445 751.191L690.581 747.062L693.414 729.011Z" fill="#E2EBF7"/>
<path fill-rule="evenodd" clip-rule="evenodd" d="M987.069 1022.62C986.765 1022.66 986.487 1022.81 986.285 1023.04C986.083 1023.27 985.971 1023.56 985.971 1023.87C985.971 1024.18 986.083 1024.47 986.285 1024.7C986.487 1024.93 986.765 1025.08 987.069 1025.12C987.372 1025.08 987.651 1024.93 987.853 1024.7C988.054 1024.47 988.166 1024.18 988.166 1023.87C988.166 1023.56 988.054 1023.27 987.853 1023.04C987.651 1022.81 987.372 1022.66 987.069 1022.62ZM972.039 1041.64C971.178 1038.43 966.539 1040.17 966.539 1042.96C966.833 1047.22 972.878 1045.23 972.039 1041.64ZM996.053 1045.12C995.276 1043.7 993.471 1042.16 992.001 1043.65C989.105 1047.1 997.627 1050.31 996.053 1045.12ZM1005.1 1203.98C1004.49 1203.98 1003.9 1204.23 1003.47 1204.66C1003.03 1205.09 1002.79 1205.68 1002.79 1206.29C1002.79 1206.91 1003.03 1207.49 1003.47 1207.93C1003.9 1208.36 1004.49 1208.6 1005.1 1208.6C1005.71 1208.6 1006.3 1208.36 1006.73 1207.93C1007.17 1207.49 1007.41 1206.91 1007.41 1206.29C1007.41 1205.68 1007.17 1205.09 1006.73 1204.66C1006.3 1204.23 1005.71 1203.98 1005.1 1203.98ZM1029.34 1187.34C1026.13 1184.48 1022.88 1189.44 1025.42 1192.17C1028.65 1195 1031.8 1189.96 1029.34 1187.34ZM1058.12 1170.65C1057.43 1170.71 1056.79 1171.03 1056.32 1171.54C1055.85 1172.05 1055.59 1172.72 1055.59 1173.41C1055.59 1174.1 1055.85 1174.77 1056.32 1175.28C1056.79 1175.79 1057.43 1176.11 1058.12 1176.17C1058.81 1176.11 1059.46 1175.79 1059.93 1175.28C1060.39 1174.77 1060.65 1174.1 1060.65 1173.41C1060.65 1172.72 1060.39 1172.05 1059.93 1171.54C1059.46 1171.03 1058.81 1170.71 1058.12 1170.65ZM1014.42 1149.24C1011.69 1146.74 1006.59 1149.78 1009.49 1153.12C1011.99 1155.6 1017.3 1152.32 1014.42 1149.24Z" fill="white"/>
<path d="M1039 1100.2L1040.91 1114.29L1054.11 1116.51L1041.39 1119.64L1038.35 1131.9L1036.38 1119.05L1024.24 1117.46L1036.79 1114.25L1039 1100.2Z" fill="#C5D3EC"/>
<path fill-rule="evenodd" clip-rule="evenodd" d="M2086.28 810.522C2086.28 812.266 2085.77 813.971 2084.8 815.421C2083.83 816.871 2082.45 818.001 2080.84 818.668C2079.23 819.336 2077.46 819.51 2075.75 819.17C2074.04 818.83 2072.47 817.99 2071.23 816.757C2070 815.524 2069.16 813.953 2068.82 812.242C2068.48 810.532 2068.65 808.759 2069.32 807.148C2069.99 805.537 2071.12 804.16 2072.57 803.191C2074.02 802.222 2075.72 801.705 2077.47 801.705C2079.81 801.705 2082.05 802.634 2083.7 804.288C2085.36 805.941 2086.28 808.184 2086.28 810.522ZM2072.61 836.301C2072.63 836.926 2072.45 837.541 2072.11 838.067C2071.78 838.593 2071.29 839.007 2070.71 839.255C2070.14 839.503 2069.5 839.574 2068.89 839.46C2068.27 839.346 2067.71 839.051 2067.26 838.613C2066.81 838.175 2066.51 837.614 2066.38 837.002C2066.25 836.389 2066.31 835.753 2066.55 835.174C2066.79 834.595 2067.19 834.099 2067.71 833.75C2068.23 833.402 2068.84 833.215 2069.46 833.215C2070.29 833.215 2071.08 833.538 2071.67 834.115C2072.26 834.692 2072.6 835.477 2072.61 836.301ZM1983.7 915.918C1984.03 915.425 1984.2 914.845 1984.2 914.252C1984.2 913.457 1983.89 912.695 1983.32 912.132C1982.76 911.57 1982 911.254 1981.2 911.254C1980.61 911.254 1980.03 911.43 1979.54 911.76C1979.04 912.089 1978.66 912.557 1978.43 913.105C1978.21 913.653 1978.15 914.256 1978.26 914.837C1978.38 915.419 1978.66 915.953 1979.08 916.372C1979.5 916.792 1980.04 917.077 1980.62 917.193C1981.2 917.309 1981.8 917.249 1982.35 917.022C1982.9 916.795 1983.37 916.411 1983.7 915.918ZM1906.65 923.549C1906.65 924.794 1906.28 926.012 1905.59 927.048C1904.89 928.083 1903.91 928.891 1902.76 929.367C1901.61 929.844 1900.34 929.969 1899.12 929.726C1897.9 929.483 1896.78 928.883 1895.9 928.002C1895.01 927.121 1894.41 925.999 1894.17 924.777C1893.93 923.556 1894.05 922.289 1894.53 921.139C1895.01 919.988 1895.81 919.004 1896.85 918.312C1897.89 917.62 1899.1 917.251 1900.35 917.251C1902.02 917.251 1903.62 917.914 1904.8 919.095C1905.98 920.276 1906.65 921.878 1906.65 923.549ZM1971.1 890.668C1971.7 889.748 1972.02 888.67 1972.01 887.572C1972.01 886.847 1971.86 886.129 1971.58 885.46C1971.3 884.791 1970.89 884.184 1970.38 883.675C1969.86 883.165 1969.25 882.763 1968.58 882.491C1967.91 882.22 1967.19 882.084 1966.46 882.092C1965.36 882.092 1964.29 882.419 1963.38 883.031C1962.46 883.643 1961.75 884.512 1961.34 885.528C1960.92 886.545 1960.81 887.662 1961.03 888.739C1961.25 889.816 1961.79 890.803 1962.57 891.576C1963.35 892.348 1964.34 892.871 1965.42 893.078C1966.5 893.285 1967.62 893.166 1968.63 892.737C1969.64 892.307 1970.5 891.587 1971.1 890.668Z" fill="white"/>
<path d="M2018.89 533.706C2018.89 534.503 2018.65 535.282 2018.21 535.945C2017.77 536.608 2017.14 537.124 2016.4 537.429C2015.66 537.735 2014.85 537.814 2014.07 537.659C2013.29 537.503 2012.57 537.119 2012.01 536.556C2011.45 535.992 2011.06 535.274 2010.91 534.492C2010.75 533.71 2010.83 532.9 2011.14 532.163C2011.44 531.427 2011.96 530.797 2012.62 530.354C2013.28 529.911 2014.06 529.675 2014.86 529.675C2015.93 529.675 2016.95 530.099 2017.71 530.855C2018.46 531.611 2018.89 532.637 2018.89 533.706Z" fill="white"/>
<path d="M2018.61 399.167L2022.06 424.614L2045.87 428.672L2022.89 434.323L2017.39 456.471L2013.86 433.223L1991.91 430.379L2014.59 424.576L2018.61 399.167Z" fill="#E2EBF7"/>
<path fill-rule="evenodd" clip-rule="evenodd" d="M2345.8 29.4218C2345.8 31.8218 2343.86 33.7674 2341.46 33.7674C2339.06 33.7674 2337.11 31.8218 2337.11 29.4218C2337.11 27.0218 2339.06 25.0762 2341.46 25.0762C2343.86 25.0762 2345.8 27.0218 2345.8 29.4218ZM2372.32 61.1917C2372.81 60.4564 2373.07 59.5919 2373.07 58.7075C2373.07 57.5215 2372.6 56.3842 2371.76 55.5456C2370.92 54.707 2369.79 54.2359 2368.6 54.2359C2367.72 54.2359 2366.85 54.4981 2366.12 54.9895C2365.38 55.4808 2364.81 56.1792 2364.47 56.9963C2364.13 57.8133 2364.04 58.7124 2364.22 59.5798C2364.39 60.4472 2364.81 61.244 2365.44 61.8694C2366.06 62.4947 2366.86 62.9206 2367.73 63.0931C2368.6 63.2657 2369.5 63.1771 2370.31 62.8387C2371.13 62.5002 2371.83 61.9271 2372.32 61.1917ZM2345.23 72.5004C2345.23 73.5786 2344.36 74.4527 2343.28 74.4527C2342.2 74.4527 2341.33 73.5786 2341.33 72.5004C2341.33 71.4221 2342.2 70.548 2343.28 70.548C2344.36 70.548 2345.23 71.4221 2345.23 72.5004ZM2307 71.9335C2307 72.3009 2306.86 72.6534 2306.6 72.9132C2306.34 73.173 2305.98 73.319 2305.62 73.319C2305.25 73.319 2304.9 73.173 2304.64 72.9132C2304.38 72.6534 2304.23 72.3009 2304.23 71.9335C2304.22 71.7463 2304.25 71.5593 2304.32 71.3839C2304.38 71.2084 2304.49 71.0481 2304.61 70.9127C2304.74 70.7773 2304.9 70.6696 2305.07 70.5961C2305.24 70.5225 2305.43 70.4847 2305.62 70.4849C2305.8 70.4847 2305.99 70.5225 2306.16 70.5961C2306.33 70.6696 2306.49 70.7773 2306.62 70.9127C2306.75 71.0481 2306.85 71.2084 2306.92 71.3839C2306.98 71.5593 2307.01 71.7463 2307 71.9335ZM2352.35 93.2205C2352.35 95.1683 2350.77 96.7474 2348.82 96.7474C2346.88 96.7474 2345.3 95.1683 2345.3 93.2205C2345.3 91.2726 2346.88 89.6936 2348.82 89.6936C2350.77 89.6936 2352.35 91.2726 2352.35 93.2205ZM2331.19 89.5676C2331.19 90.2776 2330.98 90.9717 2330.58 91.562C2330.19 92.1524 2329.63 92.6125 2328.97 92.8842C2328.32 93.1559 2327.6 93.227 2326.9 93.0885C2326.2 92.95 2325.56 92.6081 2325.06 92.106C2324.56 91.604 2324.22 90.9643 2324.08 90.268C2323.94 89.5716 2324.01 88.8498 2324.28 88.1938C2324.56 87.5378 2325.02 86.9772 2325.61 86.5827C2326.2 86.1883 2326.89 85.9777 2327.6 85.9777C2328.55 85.9777 2329.47 86.3559 2330.14 87.0292C2330.81 87.7024 2331.19 88.6155 2331.19 89.5676Z" fill="white"/>
<path fill-rule="evenodd" clip-rule="evenodd" d="M2477.81 142.219C2477.81 143.116 2477.55 143.993 2477.05 144.738C2476.55 145.484 2475.84 146.065 2475.01 146.409C2474.18 146.752 2473.27 146.842 2472.39 146.667C2471.51 146.492 2470.7 146.06 2470.07 145.426C2469.44 144.791 2469 143.983 2468.83 143.104C2468.65 142.224 2468.74 141.312 2469.09 140.484C2469.43 139.655 2470.01 138.947 2470.76 138.449C2471.5 137.951 2472.38 137.685 2473.28 137.685C2474.48 137.685 2475.63 138.162 2476.48 139.013C2477.33 139.863 2477.81 141.016 2477.81 142.219ZM2527.81 183.487C2528.46 182.827 2528.82 181.939 2528.82 181.015C2528.82 180.314 2528.62 179.63 2528.23 179.049C2527.84 178.468 2527.28 178.016 2526.63 177.751C2525.98 177.486 2525.27 177.42 2524.59 177.561C2523.9 177.702 2523.27 178.044 2522.78 178.544C2522.29 179.043 2521.96 179.678 2521.83 180.366C2521.7 181.054 2521.78 181.765 2522.06 182.409C2522.33 183.052 2522.8 183.598 2523.38 183.978C2523.97 184.358 2524.66 184.554 2525.36 184.542C2526.29 184.525 2527.17 184.146 2527.81 183.487ZM2486.82 191.98C2487.34 191.461 2487.63 190.756 2487.63 190.021C2487.63 189.286 2487.34 188.581 2486.82 188.061C2486.3 187.542 2485.59 187.25 2484.86 187.25C2484.12 187.25 2483.42 187.542 2482.9 188.061C2482.38 188.581 2482.09 189.286 2482.09 190.021C2482.09 190.756 2482.38 191.461 2482.9 191.98C2483.42 192.5 2484.12 192.792 2484.86 192.792C2485.59 192.792 2486.3 192.5 2486.82 191.98ZM2450.78 168.188C2451.32 167.38 2451.61 166.43 2451.61 165.459C2451.61 164.156 2451.09 162.906 2450.17 161.985C2449.25 161.064 2448 160.546 2446.7 160.546C2445.73 160.546 2444.78 160.834 2443.97 161.374C2443.16 161.914 2442.53 162.681 2442.16 163.579C2441.79 164.476 2441.69 165.464 2441.88 166.417C2442.07 167.37 2442.54 168.245 2443.22 168.932C2443.91 169.619 2444.79 170.087 2445.74 170.277C2446.69 170.466 2447.68 170.369 2448.58 169.997C2449.48 169.625 2450.24 168.996 2450.78 168.188Z" fill="white"/>
<path d="M1703.46 1243.52L1706.93 1269.12L1730.89 1273.2L1707.77 1278.88L1702.24 1301.16L1698.69 1277.78L1676.6 1274.92L1699.41 1269.08L1703.46 1243.52Z" fill="#E2EBF7"/>
<path d="M2465.49 1280.57L2467.37 1294.43L2480.34 1296.64L2467.82 1299.72L2464.83 1311.79L2462.91 1299.12L2450.94 1297.57L2463.3 1294.41L2465.49 1280.57Z" fill="#E2EBF7"/>
<path fill-rule="evenodd" clip-rule="evenodd" d="M1450.97 1316.22C1450.97 1318.48 1449.14 1320.31 1446.87 1320.31C1444.61 1320.31 1442.78 1318.48 1442.78 1316.22C1442.78 1313.95 1444.61 1312.12 1446.87 1312.12C1449.14 1312.12 1450.97 1313.95 1450.97 1316.22ZM1413.64 1331.74C1413.96 1331.27 1414.13 1330.71 1414.13 1330.13C1414.13 1329.37 1413.82 1328.63 1413.28 1328.09C1412.73 1327.54 1412 1327.24 1411.23 1327.24C1410.66 1327.24 1410.1 1327.41 1409.62 1327.73C1409.14 1328.04 1408.77 1328.5 1408.55 1329.03C1408.33 1329.56 1408.28 1330.14 1408.39 1330.7C1408.5 1331.26 1408.78 1331.78 1409.18 1332.18C1409.59 1332.59 1410.1 1332.86 1410.66 1332.98C1411.23 1333.09 1411.81 1333.03 1412.34 1332.81C1412.87 1332.59 1413.32 1332.22 1413.64 1331.74ZM1451.54 1347.2C1451.54 1348.45 1451.17 1349.67 1450.48 1350.7C1449.78 1351.74 1448.8 1352.54 1447.65 1353.02C1446.5 1353.5 1445.23 1353.62 1444.01 1353.38C1442.79 1353.14 1441.67 1352.54 1440.79 1351.66C1439.91 1350.77 1439.31 1349.65 1439.06 1348.43C1438.82 1347.21 1438.94 1345.94 1439.42 1344.79C1439.9 1343.64 1440.71 1342.66 1441.74 1341.97C1442.78 1341.27 1443.99 1340.9 1445.24 1340.9C1446.91 1340.9 1448.51 1341.57 1449.69 1342.75C1450.87 1343.93 1451.54 1345.53 1451.54 1347.2ZM1801.26 1353.5C1801.26 1355.76 1799.43 1357.59 1797.17 1357.59C1794.91 1357.59 1793.07 1355.76 1793.07 1353.5C1793.07 1351.24 1794.91 1349.41 1797.17 1349.41C1799.43 1349.41 1801.26 1351.24 1801.26 1353.5Z" fill="white"/>
<path d="M48.2372 910.562L56.5891 920.776L68.1082 916.151L59.5644 924.803L63.1105 935.979L55.3166 926.748L44.9374 931.406L53.3077 922.768L48.2372 910.562Z" fill="#E2EBF7"/>
<path d="M103.678 264.24L109.923 271.877L118.536 268.419L112.148 274.888L114.799 283.244L108.972 276.342L101.211 279.825L107.47 273.367L103.678 264.24Z" fill="#6F8DCE"/>
<path fill-rule="evenodd" clip-rule="evenodd" d="M503.83 504.62C503.527 504.66 503.248 504.808 503.046 505.038C502.844 505.268 502.733 505.563 502.733 505.869C502.733 506.175 502.844 506.471 503.046 506.7C503.248 506.93 503.527 507.079 503.83 507.118C504.134 507.079 504.412 506.93 504.614 506.7C504.816 506.471 504.928 506.175 504.928 505.869C504.928 505.563 504.816 505.268 504.614 505.038C504.412 504.808 504.134 504.66 503.83 504.62ZM488.8 523.638C487.94 520.427 483.301 522.169 483.301 524.961C483.595 529.222 489.64 527.228 488.8 523.638ZM512.815 527.123C512.038 525.695 510.233 524.163 508.763 525.653C505.866 529.096 514.389 532.308 512.815 527.123ZM521.862 685.984C521.249 685.984 520.662 686.227 520.229 686.66C519.796 687.094 519.553 687.681 519.553 688.293C519.553 688.906 519.796 689.493 520.229 689.926C520.662 690.359 521.249 690.602 521.862 690.602C522.474 690.602 523.061 690.359 523.495 689.926C523.928 689.493 524.171 688.906 524.171 688.293C524.171 687.681 523.928 687.094 523.495 686.66C523.061 686.227 522.474 685.984 521.862 685.984ZM546.107 669.338C542.895 666.483 539.641 671.437 542.181 674.166C545.414 677 548.563 671.962 546.107 669.338ZM574.886 652.65C574.195 652.711 573.552 653.028 573.084 653.539C572.616 654.05 572.356 654.718 572.356 655.411C572.356 656.104 572.616 656.772 573.084 657.283C573.552 657.794 574.195 658.111 574.886 658.171C575.576 658.111 576.219 657.794 576.687 657.283C577.156 656.772 577.416 656.104 577.416 655.411C577.416 654.718 577.156 654.05 576.687 653.539C576.219 653.028 575.576 652.711 574.886 652.65ZM531.182 631.239C528.453 628.741 523.352 631.785 526.249 635.122C528.747 637.599 534.058 634.325 531.182 631.239Z" fill="white"/>
<path d="M555.765 574.204L557.675 588.289L570.878 590.514L558.158 593.642L555.114 605.901L553.141 593.054L541.008 591.459L553.561 588.247L555.765 574.204Z" fill="#E2EBF7"/>
<path fill-rule="evenodd" clip-rule="evenodd" d="M958.438 415.009C958.847 414.599 959.403 414.369 959.982 414.369C960.561 414.369 961.116 414.599 961.525 415.009C961.935 415.418 962.165 415.973 962.165 416.552C962.165 417.131 961.935 417.686 961.525 418.096C961.116 418.505 960.561 418.735 959.982 418.735C959.403 418.735 958.847 418.505 958.438 418.096C958.029 417.686 957.799 417.131 957.799 416.552C957.799 415.973 958.029 415.418 958.438 415.009ZM948.269 422.43C946.442 418.441 942.244 422.807 944.637 425.536C946.778 427.488 949.192 424.739 948.269 422.43ZM946.673 468.505C946.086 466.406 944.259 463.509 941.719 465C939.179 466.49 940.67 469.387 942.034 471.108C942.456 471.545 943.012 471.83 943.613 471.918C944.214 472.007 944.828 471.893 945.358 471.596C945.888 471.298 946.304 470.834 946.542 470.275C946.78 469.716 946.826 469.093 946.673 468.505ZM988.551 465.797H989.285C993.127 465.692 992.581 472.389 988.551 471.087C987.849 471.087 987.177 470.808 986.68 470.312C986.184 469.816 985.906 469.144 985.906 468.442C985.906 467.741 986.184 467.068 986.68 466.572C987.177 466.076 987.849 465.797 988.551 465.797Z" fill="white"/>
<path fill-rule="evenodd" clip-rule="evenodd" d="M346.748 579.278C346.993 579.702 347.059 580.206 346.933 580.678C346.806 581.151 346.497 581.554 346.073 581.799C345.649 582.044 345.145 582.11 344.672 581.984C344.199 581.857 343.796 581.547 343.552 581.124C343.307 580.7 343.24 580.196 343.367 579.723C343.494 579.25 343.803 578.847 344.227 578.602C344.651 578.358 345.155 578.291 345.628 578.418C346.1 578.545 346.504 578.854 346.748 579.278ZM342.913 569.35C346.57 568.731 343.923 564.347 341.171 565.704C339.108 567.026 340.826 569.599 342.913 569.35ZM305.636 557.965C307.479 557.944 310.244 557.087 309.583 554.687C308.922 552.286 306.23 552.87 304.526 553.607C304.076 553.856 303.722 554.247 303.519 554.719C303.315 555.191 303.273 555.717 303.4 556.214C303.527 556.712 303.815 557.154 304.22 557.471C304.624 557.788 305.122 557.961 305.636 557.965ZM298.684 592.755L298.524 593.355C297.769 596.515 292.42 594.604 294.365 591.598C294.518 591.025 294.893 590.537 295.406 590.24C295.92 589.944 296.53 589.863 297.103 590.017C297.676 590.17 298.164 590.545 298.461 591.059C298.757 591.572 298.838 592.183 298.684 592.755Z" fill="white"/>
<path fill-rule="evenodd" clip-rule="evenodd" d="M498.929 90.9504C498.907 90.3718 499.116 89.8083 499.51 89.3838C499.904 88.9593 500.45 88.7086 501.029 88.6869C501.607 88.6652 502.171 88.8742 502.595 89.2679C503.02 89.6617 503.27 90.2079 503.292 90.7865C503.314 91.3651 503.105 91.9286 502.711 92.3531C502.317 92.7776 501.771 93.0283 501.193 93.05C500.614 93.0717 500.05 92.8628 499.626 92.469C499.201 92.0752 498.951 91.529 498.929 90.9504ZM497.454 103.453C493.288 102.079 493.634 108.127 497.262 108.228C500.149 107.986 499.775 104.346 497.454 103.453ZM530.149 135.957C528.211 134.96 524.845 134.329 524.21 137.205C523.576 140.081 526.713 140.958 528.903 141.128C529.51 141.116 530.097 140.903 530.57 140.522C531.044 140.141 531.378 139.614 531.52 139.023C531.663 138.433 531.606 137.811 531.358 137.256C531.109 136.702 530.685 136.245 530.149 135.957ZM556.644 103.413L557.143 102.874C559.679 99.9866 564.217 104.941 560.522 107.01C560.045 107.525 559.383 107.828 558.682 107.855C557.981 107.881 557.298 107.628 556.784 107.151C556.27 106.674 555.966 106.012 555.94 105.311C555.913 104.61 556.166 103.927 556.644 103.413Z" fill="white"/>
<path fill-rule="evenodd" clip-rule="evenodd" d="M167.209 1173.3C167.221 1173.84 167.071 1174.37 166.778 1174.82C166.486 1175.28 166.064 1175.64 165.566 1175.85C165.069 1176.06 164.519 1176.12 163.988 1176.02C163.457 1175.92 162.969 1175.66 162.586 1175.27C162.204 1174.89 161.944 1174.4 161.842 1173.87C161.739 1173.34 161.799 1172.79 162.011 1172.29C162.224 1171.8 162.581 1171.37 163.036 1171.08C163.491 1170.79 164.023 1170.64 164.563 1170.65C165.265 1170.65 165.938 1170.93 166.434 1171.43C166.93 1171.92 167.209 1172.59 167.209 1173.3ZM142.832 1180.54C143.876 1180.54 144.722 1179.69 144.722 1178.65C144.722 1177.61 143.876 1176.76 142.832 1176.76C141.789 1176.76 140.943 1177.61 140.943 1178.65C140.943 1179.69 141.789 1180.54 142.832 1180.54ZM162.923 1191.06C162.923 1193 161.344 1194.58 159.396 1194.58C157.448 1194.58 155.869 1193 155.869 1191.06C155.869 1189.11 157.448 1187.53 159.396 1187.53C161.344 1187.53 162.923 1189.11 162.923 1191.06ZM128.6 1206.36C128.6 1207.25 128.337 1208.11 127.846 1208.85C127.355 1209.58 126.656 1210.15 125.839 1210.49C125.022 1210.83 124.123 1210.92 123.256 1210.75C122.388 1210.57 121.591 1210.15 120.966 1209.52C120.341 1208.9 119.915 1208.1 119.742 1207.23C119.57 1206.37 119.658 1205.47 119.997 1204.65C120.335 1203.83 120.908 1203.13 121.644 1202.64C122.379 1202.15 123.244 1201.89 124.128 1201.89C125.314 1201.89 126.451 1202.36 127.29 1203.2C128.128 1204.04 128.6 1205.18 128.6 1206.36ZM293.982 1280.42C294.159 1279.98 294.246 1279.51 294.238 1279.04C294.246 1278.57 294.159 1278.1 293.982 1277.66C293.804 1277.22 293.54 1276.82 293.205 1276.48C292.87 1276.15 292.471 1275.88 292.031 1275.71C291.592 1275.53 291.121 1275.44 290.648 1275.45C289.696 1275.45 288.783 1275.83 288.109 1276.5C287.436 1277.17 287.058 1278.09 287.058 1279.04C287.058 1279.99 287.436 1280.9 288.109 1281.58C288.783 1282.25 289.696 1282.63 290.648 1282.63C291.121 1282.64 291.592 1282.55 292.031 1282.37C292.471 1282.2 292.87 1281.93 293.205 1281.6C293.54 1281.26 293.804 1280.86 293.982 1280.42ZM276.476 1276.84C276.476 1277.2 276.33 1277.56 276.07 1277.82C275.811 1278.08 275.458 1278.22 275.091 1278.22C274.723 1278.22 274.371 1278.08 274.111 1277.82C273.851 1277.56 273.705 1277.2 273.705 1276.84C273.705 1276.47 273.851 1276.12 274.111 1275.86C274.371 1275.6 274.723 1275.45 275.091 1275.45C275.458 1275.45 275.811 1275.6 276.07 1275.86C276.33 1276.12 276.476 1276.47 276.476 1276.84ZM256.672 1298.58C257.32 1297.94 257.692 1297.08 257.709 1296.17C257.692 1295.26 257.32 1294.4 256.672 1293.76C256.024 1293.13 255.153 1292.77 254.245 1292.77C253.343 1292.77 252.478 1293.13 251.84 1293.77C251.202 1294.4 250.844 1295.27 250.844 1296.17C250.844 1297.07 251.202 1297.94 251.84 1298.58C252.478 1299.21 253.343 1299.57 254.245 1299.57C255.153 1299.57 256.024 1299.22 256.672 1298.58ZM157.005 1279.86C158.813 1279.86 160.28 1278.39 160.28 1276.58C160.28 1274.77 158.813 1273.31 157.005 1273.31C155.196 1273.31 153.73 1274.77 153.73 1276.58C153.73 1278.39 155.196 1279.86 157.005 1279.86ZM156.101 1288.07C156.281 1287.8 156.377 1287.49 156.377 1287.16C156.377 1286.73 156.205 1286.31 155.898 1286.01C155.591 1285.7 155.174 1285.53 154.74 1285.53C154.416 1285.53 154.099 1285.62 153.83 1285.8C153.561 1285.98 153.351 1286.24 153.227 1286.54C153.103 1286.84 153.071 1287.17 153.134 1287.48C153.197 1287.8 153.353 1288.09 153.582 1288.32C153.811 1288.55 154.103 1288.71 154.42 1288.77C154.738 1288.83 155.067 1288.8 155.367 1288.68C155.666 1288.55 155.921 1288.34 156.101 1288.07ZM120.79 1276.9C120.798 1277.22 120.743 1277.54 120.626 1277.83C120.51 1278.13 120.335 1278.4 120.112 1278.63C119.888 1278.86 119.622 1279.04 119.327 1279.17C119.033 1279.29 118.716 1279.35 118.397 1279.35C118.045 1279.41 117.686 1279.39 117.343 1279.3C117.001 1279.2 116.683 1279.03 116.412 1278.8C116.141 1278.57 115.924 1278.28 115.775 1277.96C115.626 1277.64 115.548 1277.29 115.548 1276.93C115.548 1276.57 115.626 1276.22 115.775 1275.9C115.924 1275.58 116.141 1275.29 116.412 1275.06C116.683 1274.83 117.001 1274.66 117.343 1274.56C117.686 1274.47 118.045 1274.45 118.397 1274.51C119.031 1274.51 119.64 1274.76 120.089 1275.21C120.538 1275.65 120.79 1276.26 120.79 1276.9ZM193.535 1262.66C193.535 1263.53 192.83 1264.24 191.96 1264.24C191.091 1264.24 190.386 1263.53 190.386 1262.66C190.386 1261.8 191.091 1261.09 191.96 1261.09C192.83 1261.09 193.535 1261.8 193.535 1262.66ZM190.32 1285.53C191.363 1285.53 192.209 1284.68 192.209 1283.64C192.209 1282.59 191.363 1281.75 190.32 1281.75C189.276 1281.75 188.43 1282.59 188.43 1283.64C188.43 1284.68 189.276 1285.53 190.32 1285.53ZM66.5172 1337.99C66.5172 1340.88 64.1769 1343.22 61.2899 1343.22C58.403 1343.22 56.0625 1340.88 56.0625 1337.99C56.0625 1335.1 58.403 1332.76 61.2899 1332.76C64.1769 1332.76 66.5172 1335.1 66.5172 1337.99ZM140.944 1334.46C140.928 1334.92 140.735 1335.35 140.406 1335.67C140.077 1335.99 139.637 1336.16 139.18 1336.16C138.729 1336.16 138.297 1335.98 137.978 1335.66C137.659 1335.35 137.48 1334.91 137.48 1334.46C137.48 1334.01 137.659 1333.58 137.978 1333.26C138.297 1332.94 138.729 1332.76 139.18 1332.76C139.637 1332.76 140.077 1332.94 140.406 1333.26C140.735 1333.57 140.928 1334.01 140.944 1334.46ZM154.165 1321.42C154.532 1321.05 154.737 1320.56 154.737 1320.04C154.737 1319.78 154.687 1319.53 154.589 1319.29C154.491 1319.06 154.347 1318.84 154.165 1318.66C153.984 1318.48 153.769 1318.33 153.532 1318.24C153.295 1318.14 153.041 1318.09 152.785 1318.09C152.267 1318.09 151.77 1318.29 151.404 1318.66C151.038 1319.03 150.833 1319.52 150.833 1320.04C150.833 1320.56 151.038 1321.05 151.404 1321.42C151.77 1321.79 152.267 1321.99 152.785 1321.99C153.303 1321.99 153.799 1321.79 154.165 1321.42Z" fill="#6F8DCE"/>
<path d="M143.172 782.091L146.623 807.538L170.439 811.596L147.457 817.247L141.958 839.395L138.431 816.147L116.473 813.303L139.152 807.5L143.172 782.091Z" fill="#E2EBF7"/>
<path fill-rule="evenodd" clip-rule="evenodd" d="M2567.43 779.296C2563.54 781.757 2568.39 786.673 2571.43 783.928C2574.08 781.381 2570.27 777.737 2567.43 779.296ZM2364.82 785.497C2362.55 787.042 2365.45 789.361 2367.36 788.392C2369.55 787.024 2366.51 784.599 2364.82 785.497ZM2344.72 802.183C2339.53 803.191 2345.72 809.419 2347.4 804.919C2347.5 804.546 2347.5 804.153 2347.4 803.78C2347.3 803.406 2347.11 803.065 2346.84 802.789C2346.57 802.513 2346.23 802.312 2345.86 802.206C2345.49 802.1 2345.09 802.092 2344.72 802.183ZM2599.38 931.108C2598.98 931.028 2598.57 931.03 2598.17 931.115C2597.77 931.2 2597.39 931.365 2597.06 931.601C2596.73 931.837 2596.45 932.138 2596.24 932.486C2596.03 932.834 2595.89 933.222 2595.84 933.625C2594.43 936.936 2600.71 938.72 2601.21 935.133C2601.38 934.751 2601.47 934.338 2601.47 933.92C2601.46 933.502 2601.37 933.089 2601.2 932.709C2601.03 932.329 2600.77 931.989 2600.46 931.713C2600.15 931.438 2599.78 931.231 2599.38 931.108ZM2629.38 855.569C2625.26 856.266 2626.92 861.941 2630.79 861.196C2634.66 860.451 2633.17 854.974 2629.38 855.569Z" fill="white"/>
<path d="M2592.01 1281.34C2587.89 1282.04 2589.55 1287.71 2593.42 1286.97C2597.29 1286.22 2595.8 1280.74 2592.01 1281.34Z" fill="white"/>
<path d="M2613.99 809.257C2610.41 808.253 2608.62 814.467 2612.25 815.442C2615.88 816.416 2617.61 810.272 2613.99 809.257Z" fill="white"/>
<path d="M2504.48 1206.94C2500.59 1209.4 2505.44 1214.31 2508.48 1211.57C2511.14 1209.02 2507.32 1205.38 2504.48 1206.94Z" fill="white"/>
<path fill-rule="evenodd" clip-rule="evenodd" d="M1236.32 950.723C1236.32 951.709 1235.52 952.509 1234.53 952.509C1233.55 952.509 1232.75 951.709 1232.75 950.723C1232.75 949.736 1233.55 948.937 1234.53 948.937C1235.52 948.937 1236.32 949.736 1236.32 950.723ZM1286.31 974.625C1289.3 974.625 1291.73 972.201 1291.73 969.209C1291.73 966.218 1289.3 963.793 1286.31 963.793C1283.32 963.793 1280.9 966.218 1280.9 969.209C1280.9 972.201 1283.32 974.625 1286.31 974.625ZM1278.5 1053.85C1278.5 1055.1 1278.14 1056.32 1277.44 1057.35C1276.75 1058.39 1275.77 1059.2 1274.62 1059.67C1273.47 1060.15 1272.2 1060.27 1270.98 1060.03C1269.76 1059.79 1268.63 1059.19 1267.75 1058.31C1266.87 1057.43 1266.27 1056.3 1266.03 1055.08C1265.79 1053.86 1265.91 1052.59 1266.39 1051.44C1266.86 1050.29 1267.67 1049.31 1268.71 1048.62C1269.74 1047.93 1270.96 1047.56 1272.21 1047.56C1273.88 1047.56 1275.48 1048.22 1276.66 1049.4C1277.84 1050.58 1278.5 1052.18 1278.5 1053.85ZM1239.21 1036.62C1239.83 1036.08 1240.23 1035.33 1240.34 1034.52C1240.23 1033.71 1239.83 1032.96 1239.21 1032.42C1238.59 1031.88 1237.79 1031.58 1236.97 1031.58C1236.15 1031.58 1235.35 1031.88 1234.73 1032.42C1234.12 1032.96 1233.71 1033.71 1233.6 1034.52C1233.71 1035.33 1234.12 1036.08 1234.73 1036.62C1235.35 1037.16 1236.15 1037.46 1236.97 1037.46C1237.79 1037.46 1238.59 1037.16 1239.21 1036.62ZM1251.74 1086.79C1251.75 1087.19 1251.68 1087.59 1251.53 1087.96C1251.38 1088.33 1251.15 1088.67 1250.87 1088.95C1250.59 1089.23 1250.25 1089.45 1249.88 1089.6C1249.51 1089.75 1249.11 1089.82 1248.72 1089.82C1247.91 1089.82 1247.15 1089.5 1246.58 1088.93C1246.01 1088.36 1245.69 1087.59 1245.69 1086.79C1245.71 1086 1246.03 1085.24 1246.6 1084.67C1247.16 1084.11 1247.92 1083.79 1248.72 1083.77C1249.52 1083.77 1250.29 1084.09 1250.85 1084.66C1251.42 1085.22 1251.74 1085.99 1251.74 1086.79Z" fill="white"/>
<path fill-rule="evenodd" clip-rule="evenodd" d="M311.825 792.615C312.629 792.399 313.456 792.877 313.672 793.681C313.887 794.486 313.41 795.313 312.605 795.529C311.801 795.744 310.974 795.267 310.758 794.462C310.542 793.657 311.02 792.83 311.825 792.615ZM320.394 746.613C319.74 744.174 317.233 742.726 314.793 743.379C312.353 744.033 310.905 746.541 311.559 748.981C312.213 751.421 314.72 752.868 317.16 752.215C319.6 751.561 321.048 749.053 320.394 746.613ZM386.723 735.667C387.739 735.395 388.813 735.43 389.809 735.768C390.805 736.106 391.678 736.732 392.318 737.566C392.958 738.401 393.337 739.406 393.406 740.456C393.475 741.506 393.231 742.552 392.705 743.463C392.179 744.374 391.395 745.108 390.451 745.573C389.508 746.039 388.448 746.214 387.405 746.076C386.362 745.939 385.383 745.496 384.593 744.802C383.802 744.109 383.234 743.196 382.962 742.18C382.597 740.818 382.788 739.366 383.494 738.145C384.199 736.923 385.36 736.032 386.723 735.667ZM381.255 771.487C380.679 771.1 379.982 770.934 379.293 771.021C378.653 771.29 378.133 771.782 377.827 772.405C377.522 773.028 377.453 773.741 377.632 774.412C377.812 775.082 378.228 775.665 378.805 776.052C379.381 776.439 380.077 776.605 380.766 776.518C381.406 776.249 381.927 775.757 382.232 775.134C382.537 774.51 382.607 773.797 382.427 773.127C382.247 772.457 381.831 771.874 381.255 771.487ZM419.438 750.3C419.762 750.205 420.101 750.177 420.436 750.218C420.771 750.258 421.094 750.366 421.387 750.535C421.679 750.703 421.934 750.929 422.136 751.199C422.338 751.469 422.484 751.777 422.564 752.105C422.74 752.759 422.648 753.455 422.309 754.042C421.971 754.628 421.413 755.056 420.759 755.231C420.106 755.392 419.416 755.294 418.833 754.958C418.25 754.621 417.82 754.072 417.633 753.426C417.458 752.772 417.55 752.075 417.888 751.489C418.227 750.903 418.784 750.475 419.438 750.3Z" fill="white"/>
<path d="M2000.4 752.819L1998.12 759.466L2003.44 763.38L1997.13 761.942L1993.07 766.683L1995.06 760.566L1990.04 757.176L1996.3 758.54L2000.4 752.819Z" fill="#E2EBF7"/>
<path d="M2147.4 926.5L2148.35 933.462L2154.86 934.572L2148.57 936.118L2147.07 942.178L2146.11 935.817L2140.1 935.039L2146.3 933.452L2147.4 926.5Z" fill="#E2EBF7"/>
</svg>
