<svg width="274" height="329" viewBox="0 0 274 329" fill="none" xmlns="http://www.w3.org/2000/svg">
<g clip-path="url(#clip0_792_4675)">
<path fill-rule="evenodd" clip-rule="evenodd" d="M155.7 226.061C159.038 227.789 160.505 235.263 166.562 235.442C168.012 234.134 169.068 232.44 169.61 230.553C170.268 227.994 170.103 229.504 169.509 228.275C168.522 228.877 169.395 227.802 168.485 229.286C167.9 230.895 167.163 232.442 166.284 233.907C161.542 233.331 159.961 226.522 156.37 224.461C152.665 224.896 152.121 228.198 149.326 227.776C148.099 227.37 147.072 226.505 146.455 225.357C145.393 223.681 145.912 223.258 144.015 222.311C144.179 225.076 146.329 228.442 148.378 229.12C151.526 230.157 153.992 226.983 155.75 226.023L155.7 226.061ZM109.782 201.398C106.267 201.066 104.85 204.688 101.297 204.355C98.0342 204.048 97.503 200.246 95.075 198.89C94.9106 201.45 97.7813 205.072 100.272 205.699C103.662 206.569 106.241 203.395 109.428 202.806C110.452 207.631 111.73 208.489 112.982 210.741C116.232 211.612 117.003 211.1 118.963 209.167C120.291 207.887 121.808 206.377 121.062 204.47C119.482 205.187 120.101 205.609 118.268 207.798C113.209 213.762 111.742 204.329 109.782 201.398ZM181.055 203.958C182.079 206.62 185.645 213.698 189.502 213.493C194.839 213.224 194.093 201.002 193.296 199.747C192.474 200.502 193.056 199.632 192.562 200.848C191.551 203.293 193.346 213.877 188.136 211.752C185.291 210.588 183.773 204.624 181.004 202.307C177.349 202.768 173.126 209.154 168.877 206.953C165.222 205.046 163.818 198.851 160.707 197.776C160.846 201.002 166.588 207.503 168.295 208.386C173.442 211.1 177.311 204.713 181.055 203.958ZM69.1888 177.273C64.1305 175.904 64.2569 178.246 61.968 174.381C60.7034 172.141 62.1704 173.715 60.1976 172.73C60.2988 178.041 63.1314 177.747 68.0254 178.54C69.2141 181.177 69.7832 186.859 74.0196 186.015C76.2326 185.579 74.3484 186.258 75.2083 185.17C75.1153 185.077 75.0087 184.999 74.8922 184.939C73.147 184.12 73.7919 184.683 71.9204 184.21C70.7842 181.995 69.8691 179.672 69.1888 177.273ZM125.868 177.964C122.201 178.348 120.67 183.263 117.117 182.021C113.892 180.895 113.867 176.608 110.592 174.893C110.693 177.452 114.385 182.405 116.232 183.288C120.354 185.259 122.555 180.588 125.299 179.743C127.12 182.085 128.131 187.794 131.622 188.024C134.834 188.216 136.68 185.157 137.451 182.649C137.995 180.831 137.793 180.588 137.325 179.922C134.657 182.367 136.06 186.322 131.407 186.539C128.169 184.504 128.321 180.217 125.855 177.964L125.868 177.964ZM82.0118 161.211C84.9962 175.699 87.3989 169.479 92.2044 169.952C91.8756 172.934 85.8182 172.832 83.9087 171.117C81.9991 169.402 81.6704 165.23 80.6207 162.44C76.827 162.209 72.5021 166.279 69.5303 161.301L68.6198 158.639C68.6148 158.443 68.6481 158.249 68.7175 158.067C68.7869 157.884 68.8913 157.718 69.0244 157.576C71.2122 159.202 70.3775 162.516 74.3231 162.197C77.8639 161.915 78.1801 160.11 82.0118 161.211ZM78.5215 150.87C78.648 151.702 77.7375 153.916 82.7579 154.415C85.0855 154.495 87.403 154.765 89.6879 155.221C98.2365 157.423 93.4816 162.9 111.995 157C118.002 154.825 119.254 156.066 124.262 155.465C126.133 152.354 127.752 155.196 129.775 159.509C136.313 168.148 131.28 164.782 143.484 172.512C164.033 185.541 185.215 181.996 200.668 190.609C204.361 192.67 209.369 195.127 212.05 197.584C213.77 199.146 219.144 205.66 220.788 206.3C213.34 216.757 213.201 223.821 227.781 225.127L222.875 225.434C221.876 232.179 220.093 232.972 218.411 238.655C217.235 242.622 216.994 250.57 214.781 252.733L211.557 248.33C210.482 246.5 209.976 245.003 208.205 244.017C205.853 242.737 196.824 242.226 193.688 242.187C189.059 242.187 181.447 249.124 180.233 251.684C179.019 254.243 180.106 256.624 180.574 258.505C177.628 257.225 173.29 258.198 170.091 257.136C167.561 256.304 165.159 254.576 162.427 253.296C148.706 247.383 142.851 253.655 134.265 246.551C132.077 244.747 132.621 245.668 130.041 244.734C126.336 243.454 129.333 237.848 110.946 235.353C101.626 234.073 100.095 232.652 95.4038 227.379C90.9904 222.413 92.7988 228.442 84.8824 215.694C79.7229 207.401 78.0536 211.663 70.719 207.042C65.9388 204.035 65.1042 197.239 57.8202 197.021L61.2219 195.037C66.4826 192.017 66.217 187.358 63.3464 185.554C55.9991 180.818 50.7005 188.549 49.5371 189.483C49.7647 185.643 45.0225 182.802 44.4787 177.222C44.3589 174.332 44.8281 171.448 45.8571 168.749C46.4009 167.342 49.0692 163.553 46.9826 162.568C47.9184 161.953 50.7764 161.48 52.1548 160.84C53.7339 160.161 55.1812 159.203 56.4291 158.011C58.7054 155.823 61.6772 152.585 60.3873 148.118C66.7229 148.515 74.146 152.367 78.5595 150.921L78.5215 150.87Z" fill="#593D8E"/>
<path fill-rule="evenodd" clip-rule="evenodd" d="M214.844 252.797C215.919 255.42 217.74 258.479 219.131 261.269C220.623 264.264 222.128 266.504 223.507 269.665C226.036 275.399 225.922 282.95 228.793 288.863C231.366 294.712 233.637 300.693 235.596 306.781C237.556 312.489 241.11 322.011 235.508 325.748C233.661 327.028 229.994 330.612 226.086 328.116C223.216 326.26 225.619 321.717 225.239 317.57C224.455 308.905 217.108 288.005 212.391 281.184C209.331 276.768 205.195 269.486 201.756 266.555C202.508 269.362 203.454 272.112 204.588 274.785L211.872 300.318C213.213 305.552 214.768 313.948 213.731 319.938C213.023 324.033 210.532 324.52 206.738 324.494C191.032 324.353 201.907 313.756 201.907 313.73C204.753 307.088 200.263 287.11 193.321 278.867C187.466 271.918 184.469 265.16 180.675 258.569C180.207 256.687 179.17 254.179 180.334 251.747C181.497 249.316 189.186 242.2 193.789 242.251C196.95 242.251 205.954 242.788 208.306 244.081C210.077 245.066 210.583 246.564 211.657 248.394L214.844 252.797Z" fill="#B26021"/>
<path fill-rule="evenodd" clip-rule="evenodd" d="M137.121 128.959L137.31 127.858C130.595 126.412 128.926 120.87 121.87 120.448C121.434 120.303 120.973 120.251 120.516 120.294C119.909 121.574 122.54 119.129 121.212 118.106C120.339 117.44 117.051 117.094 120.795 115.968C126.865 114.138 121.996 113.767 119.012 113.677C121.541 109.838 125.094 113.997 127.282 113.089C126.65 110.849 126.017 111.489 124.209 110.618L122.944 109.761C123.774 109.324 124.721 109.168 125.645 109.315C126.569 109.463 127.422 109.906 128.079 110.58C129.015 111.502 127.952 110.926 129.723 112.321C134.515 116.16 131.999 114.804 134.541 117.197C141.875 124.057 142.495 120.729 149.185 120.78C152.332 120.748 155.463 121.237 158.454 122.227L161.211 122.227C160.048 120.077 158.682 121.484 154.066 117.798C150.639 115.098 150.879 115.072 150.639 109.761C153.712 109.147 156.962 107.816 156.962 103.822C155.242 104.168 152.081 111.937 146.769 106.51C145.276 105.108 143.963 103.522 142.862 101.787C142.417 100.773 142.082 99.7134 141.863 98.6263C141.559 96.5785 142.356 96.4633 140.94 95.273C138.208 98.9334 142.837 104.731 145.391 107.227C146.619 108.157 147.758 109.203 148.793 110.35C145.619 111.182 142.078 115.853 141.762 119.846C133.656 117.286 132.796 109.889 126.258 107.918L124.399 107.163L121.87 105.345C120.264 103.797 121.225 99.1254 120.605 97.1544L118.809 92.291C115.749 88.2851 108.693 91.2031 112.98 86.6724C109.54 81.0155 113.65 83.4088 110.539 79.9788C109.274 78.5198 112.233 78.0975 111.184 76.0241L112.221 75.6401C123.994 76.664 127.712 81.2843 134.983 84.7527C139.232 86.7748 136.602 87.3892 142.571 87.9139C153.472 88.8738 157.847 90.256 161.262 100.162C162.665 104.27 162.653 104.232 164.916 106.92C168.444 111.092 182.621 126.117 171.328 132.517C166.168 135.448 149.627 134.884 144.67 132.747C142.432 131.864 139.587 129.752 137.121 128.959Z" fill="#F6D3B5"/>
<path fill-rule="evenodd" clip-rule="evenodd" d="M95.4908 142.704C94.2748 144.672 93.7782 147.009 94.0871 149.308C95.9334 148.694 95.3516 145.942 96.6162 143.562C97.7164 141.45 99.0569 140.81 99.588 138.097C97.805 138.634 96.8818 140.17 95.4781 142.704L95.4908 142.704ZM120.681 139.325C120.214 139.07 120.479 139.044 119.682 138.993C119.34 139.005 119 139.061 118.671 139.159C105.645 141.501 110.577 134.795 105.658 134.04C105.658 135.972 108.718 140.081 110.716 140.772C113.431 141.117 116.18 141.083 118.886 140.669C120.669 140.132 120.011 140.273 120.669 139.261L120.681 139.325ZM95.8828 133.669C92.9489 133.669 94.0618 132.555 91.7982 131.813C91.5326 134.193 93.4295 135.281 96.2242 135.102C98.6902 134.948 100.144 134.296 100.473 132.018C98.4499 132.363 98.2855 133.656 95.8828 133.669ZM137.121 128.959C135.781 130.239 136.097 130.111 135.439 132.261C133.34 139.146 130.381 143.933 127.852 149.871C126.764 152.431 126.246 154.799 124.336 155.477C119.784 158.037 118.14 155.106 112.07 157.013C93.5053 162.849 98.3108 157.435 89.7622 155.234C87.4773 154.778 85.1598 154.508 82.8322 154.428C77.7738 153.929 78.7223 151.714 78.5958 150.883C77.7485 142.64 88.2446 127.845 89.9771 119.705L90.445 118.349L94.5297 115.853C118.494 120.064 119.695 118.809 122.351 121.51C124.347 121.724 126.236 122.535 127.776 123.839C130.406 125.938 133.188 129.061 137.121 128.959Z" fill="#F6D3B5"/>
<path fill-rule="evenodd" clip-rule="evenodd" d="M227.778 225.178C213.159 223.898 213.336 216.807 220.785 206.351C222.757 204.815 223.731 202.895 225.565 201.104C233.152 193.693 241.195 196.893 247.885 194.461C252.652 192.721 257.344 191.121 262.073 189.188C263.996 188.395 267.372 186.372 268.788 186.052C277.641 184.094 271.482 200.297 266.183 204.981C259.43 210.958 249.086 207.81 239.45 217.55C236.364 220.749 233.81 225.203 227.778 225.178Z" fill="#B26021"/>
<path fill-rule="evenodd" clip-rule="evenodd" d="M60.5007 148.233C61.7653 152.7 58.8188 155.912 56.5425 158.126C55.2946 159.318 53.8473 160.276 52.2682 160.955C50.9278 161.595 48.0318 162.068 47.096 162.683C41.1272 162.171 36.4482 166.049 31.7566 168.199C26.1165 170.758 22.1962 175.302 19.3509 177.286C18.1166 177.895 16.9289 178.597 15.7974 179.385C14.6972 180.434 12.206 186.769 6.08535 184.504C4.42874 183.903 1.2546 181.036 0.660247 179.295C-1.50221 173.049 6.78087 172.691 11.0931 169.274C25.0036 158.19 17.5299 164.282 30.9978 157.525C37.7128 154.21 54.418 142.41 60.5007 148.233Z" fill="#B26021"/>
<path fill-rule="evenodd" clip-rule="evenodd" d="M57.8807 197.137C55.3515 198.724 51.7853 202.704 49.0285 204.969C47.5623 206.24 46.1769 207.604 44.8807 209.052C41.8583 212.226 38.3048 214.171 38.1025 218.843C37.976 221.569 37.4069 223.271 35.5733 224.679C33.1958 226.573 29.0859 230.745 24.4575 227.136C18.691 222.657 25.583 219.048 27.189 217.115C28.1248 215.989 28.5295 210.524 31.8301 204.432C36.0159 196.753 43.4896 197.866 49.5344 189.598C50.799 188.664 55.9964 180.934 63.3437 185.669C66.2143 187.525 66.4799 192.132 61.2192 195.153L57.8807 197.137Z" fill="#B26021"/>
<path fill-rule="evenodd" clip-rule="evenodd" d="M104.849 75.3714C104.495 77.6368 108.288 75.3714 109.072 77.4576L109.502 87.0565C109.73 87.4532 110.046 87.9396 110.173 88.1571L110.678 89.0402C112.264 91.1929 113.423 93.6353 114.093 96.233L114.371 98.7927C112.008 97.3579 109.826 95.6389 107.871 93.6733C105.747 91.6767 102.105 92.3934 99.6386 90.4608C85.9304 84.6375 82.1746 81.5019 78.912 75.0003C77.5841 74.13 74.3341 71.1607 73.8536 69.8809C73.8536 69.8809 78.3808 71.4679 79.4051 71.7878C87.6691 74.2281 96.2405 75.4353 104.849 75.3714Z" fill="#F6D3B5"/>
<path fill-rule="evenodd" clip-rule="evenodd" d="M137.121 128.959C133.188 128.959 130.394 125.9 127.776 123.839C126.247 122.565 124.383 121.773 122.414 121.561C119.885 121.036 109.869 121.971 118.987 115.443C117.343 115.443 117.899 115.443 116.913 114.586L117.115 112.871L117.406 112.602C118.175 112.273 118.836 111.732 119.316 111.041C120.011 109.991 119.645 109.761 120.58 108.762C121.845 107.393 123.932 107.713 126.296 107.995C132.809 109.94 133.669 117.44 141.788 119.897C145.91 120 148.111 119.091 153.308 119.564C152.397 117.453 150.931 117.401 150.02 115.482C149.451 114.304 149.805 111.386 148.755 110.362C147.721 109.216 146.582 108.17 145.354 107.239C142.825 104.68 138.171 98.946 140.902 95.2856C142.319 96.4759 141.522 96.5655 141.825 98.6388C142.045 99.726 142.38 100.786 142.825 101.8C143.926 103.534 145.239 105.121 146.732 106.523C152.043 111.949 155.205 104.181 156.925 103.835C156.925 107.828 153.725 109.159 150.602 109.774C150.779 115.034 150.602 115.059 154.004 117.773C158.67 121.459 159.985 120.051 161.148 122.201L158.392 122.201C155.4 121.211 152.269 120.722 149.122 120.755C142.432 120.755 141.813 124.031 134.478 117.171C131.949 114.778 134.478 116.07 129.66 112.295C127.89 110.9 128.952 111.476 128.016 110.554C127.359 109.88 126.506 109.437 125.582 109.29C124.658 109.142 123.712 109.298 122.882 109.735L124.147 110.593C125.93 111.463 126.587 110.823 127.219 113.063C125.032 113.971 121.516 109.761 118.949 113.651C121.933 113.741 127.169 114.176 121.111 116.006C117.533 117.081 120.024 117.222 121.111 118.08C123.539 119.948 120.226 119.603 123.274 120.076C129.357 121.023 130.861 126.476 137.184 127.832L137.121 128.959Z" fill="#6B402D"/>
<path fill-rule="evenodd" clip-rule="evenodd" d="M31.5906 32.9698L28.5302 32.4194C26.0643 34.416 25.6723 35.1199 26.7851 38.3707C23.6616 40.9304 21.4485 36.3614 20.4621 34.9279C18.932 32.6242 16.4787 30.5381 17.6421 26.6217C20.5633 23.2557 22.5361 26.1738 26.7978 26.8393C31.0594 27.5048 34.2209 28.2855 31.5906 32.9698Z" fill="#6F6F6E"/>
<path fill-rule="evenodd" clip-rule="evenodd" d="M37.3681 57.6583C37.6635 55.8484 37.3472 53.9907 36.4703 52.3853C35.7594 52.8905 35.1963 53.5803 34.8402 54.3821C34.4842 55.184 34.3483 56.0681 34.4469 56.9415L35.9392 57.2871C36.4315 57.3648 36.9118 57.5068 37.3681 57.7095L37.3681 57.6583ZM43.1473 50.6319C41.1493 49.2624 41.4401 48.1746 38.9995 47.6498C39.088 50.3631 41.0102 52.2189 40.1502 54.5866C38.2281 53.3068 39.2144 52.3469 36.6094 51.2846C37.3428 47.2659 38.3672 44.4374 41.6677 43.8615C42.8926 45.8884 43.4133 48.2713 43.1473 50.6319ZM35.6736 60.1668C34.4849 60.1668 34.194 59.8468 33.3088 59.0277C32.6006 53.0508 34.7884 53.7675 35.838 48.7889C37.6084 46.2292 37.4819 42.8376 41.3263 42.3896C43.0082 43.004 43.2105 43.6695 43.8555 45.7685C44.5385 47.6464 44.7046 49.6769 44.336 51.643L41.7057 52.3725L41.8195 55.2905C38.0257 57.8502 40.1376 54.0107 38.4304 59.0533C38.2913 59.0533 37.0014 59.3605 36.9002 59.4117L35.9392 60.0132C35.8316 60.0503 35.7295 60.102 35.6356 60.1668L35.6736 60.1668Z" fill="#6B402D"/>
<path fill-rule="evenodd" clip-rule="evenodd" d="M82.0622 161.262C85.0467 175.75 87.4494 169.53 92.2549 170.004C91.9261 172.986 85.8687 172.883 83.9591 171.168C82.0496 169.453 81.7208 165.281 80.6712 162.491C76.8774 162.261 72.5525 166.33 69.5807 161.352L68.6702 158.69C68.6653 158.494 68.6985 158.3 68.7679 158.118C68.8374 157.935 68.9417 157.769 69.0749 157.627C71.2626 159.253 70.428 162.568 74.3735 162.248C77.9144 161.966 78.2305 160.162 82.0622 161.262ZM109.883 201.398C111.843 204.329 113.348 213.762 118.369 207.798C120.202 205.609 119.633 205.238 121.163 204.47C121.91 206.377 120.392 207.874 119.064 209.167C117.104 211.1 116.333 211.612 113.083 210.741C111.818 208.489 110.554 207.631 109.529 202.806C106.342 203.395 103.763 206.569 100.374 205.699C97.8443 205.071 95.0117 201.437 95.1761 198.89C97.5535 200.246 98.1352 204.009 101.398 204.355C104.951 204.688 106.368 201.066 109.883 201.398ZM155.699 226.061C153.942 227.021 151.476 230.195 148.327 229.158C146.278 228.48 144.128 225.114 143.964 222.349C145.861 223.297 145.342 223.719 146.405 225.396C147.045 226.563 148.112 227.431 149.376 227.814C152.171 228.237 152.715 224.935 156.42 224.5C160.05 226.56 161.592 233.369 166.335 233.945C167.22 232.469 167.962 230.908 168.548 229.286C169.458 227.802 168.548 228.877 169.572 228.275C170.166 229.555 170.331 228.045 169.673 230.553C169.141 232.436 168.099 234.13 166.663 235.442C160.606 235.263 159.139 227.763 155.801 226.061L155.699 226.061ZM125.868 178.015C128.397 180.268 128.182 184.555 131.419 186.59C136.098 186.424 134.669 182.418 137.338 179.974C137.805 180.639 138.008 180.882 137.464 182.7C136.693 185.259 134.846 188.267 131.634 188.075C128.131 187.845 127.12 182.137 125.311 179.794C122.554 180.639 120.367 185.311 116.244 183.34C114.423 182.457 110.705 177.542 110.604 174.944C113.879 176.659 113.905 180.946 117.129 182.073C120.683 183.352 122.188 178.399 125.88 178.015L125.868 178.015ZM181.105 204.009C177.311 204.764 173.517 211.151 168.345 208.437C166.689 207.554 160.947 201.053 160.758 197.828C163.818 198.903 165.272 205.097 168.927 207.004C173.176 209.205 177.4 202.819 181.054 202.358C183.824 204.675 185.341 210.639 188.187 211.803C193.397 213.928 191.601 203.344 192.613 200.899C193.106 199.619 192.524 200.554 193.346 199.799C194.092 201.078 194.839 213.275 189.553 213.544C185.759 213.749 182.129 206.671 181.105 204.009ZM69.2393 177.324C64.1809 175.955 64.3074 178.297 62.0185 174.432C60.7539 172.192 62.2208 173.766 60.248 172.781C60.3492 178.092 63.1819 177.798 68.0759 178.591C69.2646 181.228 69.8336 186.91 74.07 186.066C76.2831 185.631 74.3988 186.309 75.2587 185.221C75.1658 185.128 75.0591 185.05 74.9426 184.991C73.1975 184.172 73.8424 184.735 71.9708 184.261C70.8346 182.047 69.9196 179.723 69.2393 177.324Z" fill="#0F0C08"/>
<path fill-rule="evenodd" clip-rule="evenodd" d="M120.68 139.325C120.022 140.336 120.68 140.196 118.897 140.733C116.191 141.147 113.442 141.181 110.727 140.836C108.717 140.144 105.669 136.036 105.669 134.104C110.588 134.795 105.669 141.501 118.682 139.223C119.011 139.125 119.351 139.069 119.693 139.057C120.477 139.044 120.212 139.069 120.68 139.325Z" fill="#6B402D"/>
<path fill-rule="evenodd" clip-rule="evenodd" d="M107.756 104.001C106.15 104.449 100.244 106.792 99.2074 104.104C100.99 103.118 104.266 103.733 106.251 102.824C107.743 102.299 106.58 102.824 108.022 101.941C109.463 101.058 108.186 101.378 109.805 101.391C109.678 102.376 110.222 102.107 108.679 103.336L107.756 104.001Z" fill="#6B402D"/>
<path fill-rule="evenodd" clip-rule="evenodd" d="M94.0879 149.308C93.779 147.008 94.2757 144.672 95.4916 142.704C96.8953 140.144 97.8185 138.634 99.6016 138.097C99.0704 140.81 97.73 141.45 96.6298 143.562C95.4031 145.942 95.9342 148.694 94.0879 149.308Z" fill="#6B402D"/>
<path fill-rule="evenodd" clip-rule="evenodd" d="M91.7976 131.813C94.0612 132.555 92.9483 133.694 95.8822 133.668C98.2849 133.668 98.4114 132.388 100.473 132.017C100.144 134.295 98.6896 134.948 96.2236 135.102C93.4289 135.281 91.532 134.193 91.7976 131.813Z" fill="#6B402D"/>
<path fill-rule="evenodd" clip-rule="evenodd" d="M44.6164 56.4423C45.3625 58.3236 47.1456 53.5882 49.093 53.8826C49.2195 53.7802 62.3712 70.687 64.1417 71.8005L86.6767 86.4547C88.8518 88.1697 108.971 98.6773 109.047 100.2C108.946 104.923 118.785 97.0135 113.258 107.879C114.008 108.757 114.829 109.571 115.712 110.311C117.381 111.591 117.381 110.964 117.406 112.589L117.115 112.858C114.384 112.973 112.5 116.557 109.907 116.8C108.706 116.915 108.263 115.802 107.669 116.134L95.8576 113.421C93.0502 113.421 94.1504 111.297 92.0638 111.719L93.3284 101.391C94.593 91.4846 86.5249 96.7063 75.6241 91.1518L61.7136 83.1783C56.3644 79.454 55.4666 76.0496 51.4452 72.1588C48.916 69.5991 43.3771 63.3535 42.3022 60.013L42.378 59.3475C42.9092 58.0677 43.3644 55.188 44.5531 56.3911L44.6164 56.4423ZM43.1494 50.6317C43.4079 48.2682 42.8782 45.8851 41.6446 43.8613C38.3693 44.4373 37.345 47.2657 36.5862 51.2845C39.1913 52.3467 38.2049 53.2682 40.1271 54.5865C40.987 52.2188 39.0648 50.363 38.9763 47.6497C41.417 48.1744 41.1261 49.2623 43.1241 50.6317L43.1494 50.6317ZM37.4082 57.6581C36.9374 57.4698 36.4442 57.345 35.9413 57.287L34.4491 56.9926C34.3504 56.1192 34.4863 55.235 34.8424 54.4332C35.1984 53.6314 35.7616 52.9415 36.4724 52.4363C37.338 54.0271 37.654 55.8649 37.3703 57.6581L37.4082 57.6581Z" fill="#F6D3B5"/>
<path fill-rule="evenodd" clip-rule="evenodd" d="M86.966 21.4511C84.9697 21.9032 83.0053 22.4889 81.0857 23.2045C78.9738 23.7677 76.7987 24.1004 74.6742 24.6124C68.7972 25.9267 63.295 28.5841 58.5886 32.3811C55.8192 34.608 53.8211 39.5226 52.1013 42.7735C50.9125 45.026 49.433 45.9859 48.9018 48.1232L61.7121 60.141C67.9339 66.4123 75.6226 70.2262 82.6791 75.2304C89.4067 79.9915 99.7258 87.1459 101.382 88.4385C103.836 90.3583 105.771 91.6765 107.895 93.6731C109.85 95.6388 112.032 97.3577 114.395 98.7925L114.117 96.2328C113.447 93.6351 112.288 91.1928 110.702 89.04L110.197 88.1569C110.07 87.9394 109.754 87.453 109.526 87.0563C101.762 70.6998 96.324 52.7051 91.4933 35.1967C90.0769 30.0773 88.4077 26.3786 86.9913 21.4383L86.966 21.4511ZM41.3143 42.2999C37.5205 42.7863 37.5964 46.1395 35.826 48.6992C36.5974 45.5379 34.1441 44.7188 32.4242 43.1446L28.1499 39.1387C27.8836 38.8852 27.6575 38.5916 27.4797 38.2684L26.7841 38.2684C25.6713 35.0176 26.0633 34.3136 28.5293 32.3171L31.5896 32.8674L31.4125 33.0722C34.2958 34.352 38.7345 39.7786 41.3775 41.5704L44.5769 41.788C49.6353 30.8196 52.3795 26.7113 63.4193 21.0672C70.147 17.6372 76.0652 17.4836 84.538 14.5655C87.7248 13.4649 88.9894 13.1705 89.002 9.10059C86.2199 9.97088 86.8775 11.2507 82.7802 10.2269C80.6304 7.91033 80.6178 5.47861 83.6275 3.75081C86.0555 2.35577 87.7121 0.0136479 91.8726 1.31909C94.073 2.01021 95.6664 5.44021 95.932 8.25588C96.4505 14.0792 94.9456 14.0024 93.7316 17.3812C93.3649 18.6611 101.496 42.6967 102.445 46.4722C106.428 62.4703 114.749 81.4889 120.554 97.1671C121.907 101.288 124.588 103.963 126.27 107.931C123.905 107.649 121.818 107.329 120.554 108.699C119.643 109.684 120.01 109.978 119.289 110.977C118.811 111.673 118.15 112.218 117.379 112.551C117.379 110.925 117.379 111.617 115.685 110.273C114.802 109.532 113.981 108.719 113.232 107.841C106.15 100.597 94.7433 92.8028 86.6752 86.4163L64.1402 71.89C56.4515 66.8474 45.4748 52.3595 42.4398 59.3987L42.3639 60.0642C40.9729 61.0625 39.7462 63.3278 38.5701 64.5309C33.5118 69.6503 26.8853 73.3619 25.3678 76.3567C19.6013 87.6706 26.6324 95.4905 24.6849 105.461C30.2744 109.62 84.6012 111.757 96.4884 111.706C102.28 112.129 111.449 113.088 117.101 112.858L116.899 114.573C117.885 115.418 117.329 115.392 118.973 115.431C116.342 117.005 119.15 122.227 114.977 120.256C105.543 119.641 96.2987 119.117 86.7384 118.451C69.9826 117.299 55.288 118.157 37.2676 115.687C31.6728 115.038 26.1347 113.96 20.7014 112.461C17.6791 113.498 18.324 115.213 13.8474 113.895C12.0643 111.463 11.6849 109.761 14.7452 107.585C21.7511 102.606 15.289 95.9896 16.3133 82.9991C17.6538 65.8875 32.4242 64.5181 33.2588 59.0276C34.144 59.8467 34.4349 60.2306 35.6236 60.1666C35.7071 60.0668 35.8052 59.9804 35.9145 59.9106L36.8756 59.3091C36.9767 59.3091 38.2666 58.9764 38.4057 58.9508C40.1129 53.9337 38.0011 57.7733 41.7948 55.188L41.681 52.2699L44.3114 51.5404C44.68 49.5744 44.5139 47.5439 43.8308 45.6659C43.1479 43.5286 42.9962 42.9014 41.3143 42.2871L41.3143 42.2999Z" fill="#C2C4C6"/>
<path fill-rule="evenodd" clip-rule="evenodd" d="M111.856 63.123L111.666 63.2254C110.877 61.3933 110.534 59.3961 110.667 57.4021C110.831 55.8279 112.083 51.3228 113.361 51.0028C113.361 51.7579 113.664 52.9098 113.651 53.7033C113.651 55.3799 112.842 57.4021 112.88 58.426C113.626 61.1008 113.171 61.2416 111.856 63.0974L111.856 63.123ZM148.529 72.5043L148.643 72.1331C148.738 71.9206 148.847 71.7153 148.972 71.5188C149.3 71.0453 149.085 71.378 149.427 71.0581C150.148 70.3414 150.565 67.8456 150.843 66.8602C151.066 65.7995 151.374 64.7593 151.766 63.7501C152.252 62.9311 152.675 62.0753 153.031 61.1904L153.157 61.1904C153.828 62.0991 153.044 66.5402 152.614 68.012C152.311 69.1107 151.747 70.1172 150.97 70.9429C150.376 71.6825 149.566 72.2115 148.655 72.4531C148.655 72.4531 148.655 72.4531 148.554 72.4531L148.529 72.5043ZM135.554 80.3242C134.606 80.3242 134.568 80.2602 133.923 80.6953C133.278 81.1305 133.063 80.6953 132.418 81.2329C131.33 80.7849 130.331 80.3114 131.609 79.0699C132.228 78.9292 133.518 79.1595 133.973 78.5324C134.349 78.7426 134.656 79.0582 134.859 79.4411C135.112 79.8251 135.301 79.9914 135.554 80.3242ZM124.982 77.5341C124.603 78.0973 124.805 77.9181 124.173 78.0717C123.564 77.7202 122.902 77.4737 122.213 77.3421C121.479 77.2014 120.948 77.5469 120.518 77.1246C121.543 76.5102 121.656 75.6271 123.047 75.6527C123.364 76.1135 123.326 76.3055 123.819 76.7406C124.312 77.1758 124.641 77.2398 124.957 77.5341L124.982 77.5341ZM124.881 55.6615C125.817 56.9413 127.752 56.3142 129.117 58.1188C129.396 58.5028 129.636 59.0531 130.382 58.8995C131.33 58.6947 131.558 56.135 128.65 54.932L127.802 54.5352C126.082 53.6905 122.579 52.8842 120.961 53.3705C119.823 53.7033 119.899 55.4311 121.543 55.1751C122.187 55.0727 124.337 54.9576 124.868 55.6615L124.881 55.6615ZM146.48 61.3824C147.087 60.3073 145.797 59.9362 145.077 59.2579C143.256 57.5301 138.374 56.6982 136.743 58.5667C135.921 59.4882 136.907 60.3969 137.881 60.1026C139.437 59.8273 141.038 60.0233 142.484 60.6657C142.97 60.776 143.466 60.8403 143.964 60.8577C144.128 60.8577 144.748 61.472 145.14 61.6384C145.532 61.8048 146.215 61.856 146.48 61.3824ZM150.084 53.4345C150.101 52.9182 149.997 52.4051 149.781 51.9371L147.454 47.8288C147.151 47.2529 147.29 47.4704 146.796 46.9969C146.303 46.5233 145.608 44.77 143.875 43.8101C140.271 41.8135 140.499 42.1591 137.084 41.2504C136.427 41.0712 135.82 40.7896 135.099 40.5976L130.129 40.1753C128.125 40.1997 126.146 40.6351 124.312 41.4551C124.11 41.5959 123.945 41.7879 123.692 41.9671C122.832 42.5942 122.744 42.2998 122.048 43.3493C121.631 43.9765 120.784 44.7956 120.189 45.717C117.799 49.403 118.672 49.3902 117.989 52.3339C117.61 53.9593 115.599 58.7331 115.637 59.629C115.57 60.788 115.435 61.9419 115.232 63.0846C116.362 63.4243 117.329 64.171 117.951 65.1836C118.95 66.4634 118.609 67.3721 118.862 68.1784C119.001 68.652 119.342 69.0999 119.544 69.6118C120.088 71.0325 119.544 74.4113 118.634 74.7312L118.634 74.9488C118.727 75.3805 118.947 75.7733 119.266 76.0751L119.696 74.936C120.448 73.2916 121.685 71.9234 123.237 71.0197C123.566 70.8917 123.705 70.8533 124.046 70.6997C124.29 70.6205 124.523 70.5131 124.742 70.3798C124.742 69.8934 124.552 70.0086 124.59 69.4839C124.662 69.0253 124.825 68.5861 125.068 68.1925C125.311 67.7988 125.63 67.4589 126.007 67.1929C127.632 65.3465 129.053 63.3251 130.243 61.1648C130.485 60.6486 130.837 60.1934 131.275 59.8325C131.712 59.4716 132.224 59.2141 132.772 59.0787C133.498 59.045 134.22 59.2132 134.859 59.565C135.377 59.8978 135.415 60.4225 135.339 61.1776C135.213 62.5727 134.353 64.0573 134.365 65.4395C134.365 67.0393 135.339 69.0999 134.846 70.8917C134.555 71.9924 134.214 71.7236 133.771 72.2867C135.428 73.7842 137.932 77.0094 137.881 79.3515C138.285 79.0005 138.707 78.6715 139.146 78.366L139.146 78.1484C139.182 77.1981 139.549 76.2915 140.183 75.5887C140.726 74.9872 141.144 74.3089 141.65 73.7202C142.636 72.6963 144.533 73.2722 146.164 72.7219C146.201 72.5535 146.278 72.3968 146.388 72.2652C146.498 72.1337 146.638 72.0312 146.796 71.9668C147.29 70.9685 147.505 67.7561 147.884 66.4378C148.053 65.9649 148.27 65.5104 148.529 65.0812C148.786 64.0539 148.942 63.0037 148.997 61.9455C149.073 61.5616 149.604 58.7843 149.629 58.7331C149.275 57.7476 150.008 54.4328 150.084 53.3705L150.084 53.4345Z" fill="#F6D3B5"/>
<path fill-rule="evenodd" clip-rule="evenodd" d="M133.718 72.3126C131.682 70.2008 130.785 73.2213 129.103 71.3655C128.673 70.9047 127.838 69.8553 127.079 69.8297C126.294 69.9007 125.523 70.0861 124.79 70.38L124.689 70.38C124.689 69.8937 124.5 70.0088 124.537 69.4841C124.609 69.0255 124.772 68.5863 125.015 68.1927C125.259 67.7991 125.578 67.4591 125.954 67.1932C127.58 65.3468 129 63.3253 130.19 61.1651C130.432 60.6488 130.784 60.1937 131.222 59.8328C131.659 59.4719 132.171 59.2143 132.719 59.0789C133.446 59.0453 134.167 59.2135 134.806 59.5653C135.324 59.898 135.362 60.4228 135.287 61.1779C135.16 62.5729 134.3 64.0575 134.313 65.4398C134.313 67.0396 135.287 69.1002 134.793 70.8919C134.502 72.0182 134.199 71.7494 133.718 72.3126Z" fill="#E6C09D"/>
<path fill-rule="evenodd" clip-rule="evenodd" d="M124.88 55.5976C124.349 54.8937 122.199 55.0089 121.554 55.1113C119.91 55.3672 119.834 53.6394 120.972 53.3067C122.591 52.8203 126.031 53.6266 127.814 54.4713L128.661 54.8681C131.57 56.0711 131.342 58.6308 130.394 58.8356C129.635 58.9892 129.395 58.4389 129.129 58.0549C127.751 56.2503 125.816 56.8135 124.88 55.5976Z" fill="#272C1E"/>
<path fill-rule="evenodd" clip-rule="evenodd" d="M128.94 61.3058C128.371 62.5856 124.109 63.2128 122.263 61.1266C121.719 60.5123 121.226 60.0259 121.302 59.1556C121.466 57.2486 123.97 57.7094 125.677 58.1317C126.613 58.3749 129.484 60.0515 128.94 61.3058Z" fill="white"/>
<path fill-rule="evenodd" clip-rule="evenodd" d="M146.479 61.3185C146.213 61.792 145.682 61.8048 145.138 61.5745C144.595 61.3441 144.127 60.845 143.962 60.7938C143.464 60.7764 142.969 60.7121 142.483 60.6018C141.037 59.9593 139.435 59.7634 137.88 60.0386C136.906 60.333 135.92 59.4243 136.742 58.5028C138.373 56.6854 143.254 57.4661 145.075 59.1939C145.796 59.8467 147.086 60.2434 146.479 61.3185Z" fill="#272C1E"/>
<path fill-rule="evenodd" clip-rule="evenodd" d="M133.973 78.4684C133.517 79.0956 132.228 78.8652 131.608 79.006C130.468 78.8795 129.352 78.5864 128.295 78.1357C127.272 77.6076 126.125 77.3772 124.981 77.4702C124.665 77.1758 124.172 76.9582 123.843 76.6767C123.514 76.3951 123.388 76.0495 123.072 75.5888C125.158 75.0001 126.866 76.2031 128.927 76.1647C130.52 76.1263 133.416 77.1502 133.973 78.4684Z" fill="#E69090"/>
<path fill-rule="evenodd" clip-rule="evenodd" d="M143.152 65.6317C142.709 66.6684 139.017 67.4235 137.145 65.1069C136.096 63.8271 135.628 62.7264 138.005 62.0993C138.871 61.9618 139.758 62.1098 140.534 62.5216C141.167 62.8032 143.62 64.5054 143.152 65.6317Z" fill="white"/>
<path fill-rule="evenodd" clip-rule="evenodd" d="M133.719 72.3123C135.375 73.8097 137.879 77.0349 137.828 79.3771C138.271 81.2456 135.868 80.8233 135.767 80.3625L135.552 80.2602C135.299 79.9274 135.11 79.761 134.857 79.3771C134.654 78.9941 134.347 78.6786 133.971 78.4684C133.415 77.1885 130.519 76.1262 128.913 76.1646C126.814 76.1646 125.119 75 123.058 75.5887C121.642 75.5887 121.528 76.4462 120.529 77.0605C120.31 77.1375 120.07 77.1305 119.856 77.0409C119.642 76.9512 119.467 76.7852 119.365 76.5742C119.298 76.0192 119.4 75.4567 119.656 74.9616C120.408 73.3172 121.645 71.949 123.197 71.0452C123.526 70.9173 123.665 70.8789 124.006 70.7253C124.25 70.646 124.483 70.5387 124.702 70.4053L124.803 70.4053C125.536 70.1114 126.307 69.9261 127.092 69.855C127.851 69.855 128.685 70.9301 129.115 71.3908C130.785 73.221 131.67 70.2005 133.719 72.3123Z" fill="#6F6F6E"/>
<path fill-rule="evenodd" clip-rule="evenodd" d="M130.76 82.6281C133.137 82.2954 133.415 79.4413 131.607 79.0061C130.467 78.8797 129.351 78.5865 128.294 78.1358C127.271 77.6078 126.124 77.3773 124.98 77.4703C124.563 78.0846 124.019 77.3039 123.716 78.827C123.185 80.7595 129.141 82.8841 130.76 82.6281Z" fill="#6F6F6E"/>
<path fill-rule="evenodd" clip-rule="evenodd" d="M148.504 72.5045C146.999 76.4336 147.682 77.3807 145.153 80.7211C144.381 81.7194 143.648 83.0632 142.851 83.9591C140.246 86.9028 137.907 89.2193 133.847 89.4241C130.988 89.6652 128.11 89.3834 125.349 88.5922C123.753 88.2502 122.2 87.7264 120.721 87.0308C118.192 85.0598 116.826 84.6886 114.841 82.0777C113.576 80.4139 112.931 77.2655 112.564 75.2433C112.311 73.8483 112.425 72.786 112.261 71.4038C112.096 70.0216 111.666 69.0489 111.54 67.705C111.3 66.8347 111.338 63.2512 112.008 62.3425C112.678 61.4338 112.956 60.6531 112.88 58.5029C112.88 57.479 113.627 55.4569 113.652 53.7803C113.645 53.3991 113.615 53.0188 113.563 52.6412C115.877 52.398 117.091 52.6412 117.673 53.2683C116.855 55.3297 116.167 57.4414 115.612 59.5908C115.545 60.7498 115.41 61.9037 115.207 63.0464C115.207 63.0464 114.575 67.2955 114.676 67.5515C115.106 68.6265 114.866 68.1274 114.676 69.3432C114.512 70.8151 115.574 71.4678 115.776 72.2101C115.979 72.9524 115.776 74.6418 116.902 75.1282C117.61 75.4353 117.939 75.1282 118.508 74.9746C118.601 75.4063 118.821 75.7991 119.14 76.1009L119.57 74.9618C119.314 75.4569 119.212 76.0194 119.279 76.5744C119.381 76.7854 119.555 76.9514 119.77 77.0411C119.984 77.1307 120.224 77.1377 120.443 77.0607C120.847 77.4831 121.404 77.1375 122.137 77.2783C122.826 77.4098 123.488 77.6564 124.097 78.0078L124.097 78.1102C123.617 78.2126 124.249 78.5326 124.097 79.3901C124.82 80.137 125.701 80.7082 126.674 81.0607C127.646 81.4132 128.685 81.5377 129.712 81.425C130.673 81.297 132.469 82.5897 132.317 81.2074C132.962 80.6955 133.051 81.2075 133.822 80.6699C134.593 80.1324 134.505 80.2604 135.453 80.2988L135.668 80.4011C135.77 80.8619 138.198 81.2842 137.73 79.4157C138.134 79.0646 138.556 78.7356 138.994 78.4302C138.994 79.0701 138.994 79.5564 139.487 79.8636C139.74 80.0294 140.034 80.1177 140.335 80.1177C140.635 80.1177 140.93 80.0294 141.182 79.8636C142.826 78.9293 141.84 78.2766 143.281 77.5599C144.546 76.9583 144.546 76.4208 145.418 75.2945L144.558 72.9012C144.103 72.5941 145.823 72.3253 146.304 71.071C146.784 69.8168 147.454 67.5898 147.77 66.4892C147.94 66.0162 148.156 65.5617 148.415 65.1325C148.672 64.1053 148.829 63.0551 148.883 61.9969C148.883 61.9201 148.883 61.7665 148.972 61.549C150.034 61.1778 151.324 62.0737 152.766 61.2802C152.498 62.1676 152.069 62.9967 151.501 63.7247C151.109 64.7339 150.8 65.7741 150.578 66.8347C150.3 67.8202 149.882 70.3159 149.162 71.0326C148.82 71.3526 149.035 71.0326 148.706 71.4934C148.582 71.6899 148.472 71.8952 148.377 72.1077L148.504 72.5045Z" fill="#D2CABF"/>
<path fill-rule="evenodd" clip-rule="evenodd" d="M117.951 65.1451C118.95 66.425 118.608 67.3337 118.861 68.14C119 68.6135 119.342 69.0615 119.544 69.5734C120.088 70.994 119.544 74.3728 118.633 74.6928L118.633 74.9104C118.064 75.064 117.736 75.3711 117.027 75.064C115.902 74.5776 116.079 72.8114 115.902 72.1459C115.725 71.4804 114.637 70.7509 114.802 69.279C114.941 67.9992 115.181 68.5623 114.802 67.4873C114.592 66.974 114.468 66.4291 114.435 65.8746C114.283 63.3149 114.435 60.3329 118.052 65.0811L117.951 65.1451ZM113.562 52.5898C114.473 54.0872 117.192 54.676 117.622 53.3705C117.773 52.9226 117.9 52.5258 117.963 52.2442C118.646 49.3006 117.773 49.3134 120.164 45.6274C120.745 44.7059 121.605 43.8868 122.022 43.2597C122.718 42.2102 122.807 42.5046 123.666 41.8775C123.919 41.6983 124.084 41.5063 124.286 41.3655C126.12 40.5455 128.099 40.1101 130.103 40.0857L135.073 40.508C135.743 40.7 136.401 40.9816 137.058 41.1607C140.473 42.095 140.245 41.7495 143.849 43.7204C145.582 44.6803 146.113 46.2801 146.771 46.9073C147.428 47.5344 147.125 47.1632 147.428 47.7392L149.755 51.8475C149.971 52.3154 150.075 52.8285 150.058 53.3449C149.983 54.4072 149.249 57.722 149.654 58.7843C149.654 58.7843 149.274 60.6401 149.11 61.5488C150.172 61.1776 151.462 62.0735 152.904 61.28C152.904 61.28 152.904 61.28 152.904 61.1904C152.904 60.4353 153.473 59.1554 153.536 58.2979C153.571 57.8721 153.571 57.444 153.536 57.0181L153.536 55.6486C153.536 54.5096 153.536 54.9703 153.435 54.3688C153.645 52.6154 153.542 50.8381 153.131 49.1214C152.98 48.4687 152.916 48.8142 152.638 47.9823C152.196 46.7025 151.778 46.7025 151.374 45.9858C150.855 45.0003 151.032 45.4738 150.425 44.8211C149.376 43.6948 149.161 42.5558 148.554 42.0694C147.965 41.1747 147.06 40.5426 146.024 40.3032L145.797 40.0985C144.128 38.8826 134.959 36.3997 132.974 35.9517C131.368 35.5806 129.003 36.7325 127.561 36.5021C124.008 35.9262 121.883 37.5772 119.759 39.9961C119.24 40.5848 119.101 41.1863 118.735 41.5831C118.252 42.0303 117.827 42.5378 117.47 43.0933C116.61 43.5541 113.676 49.6461 113.335 51.0412C113.335 51.4763 113.461 52.0523 113.537 52.6026L113.562 52.5898ZM145.582 75.3199C144.722 76.4462 144.646 76.9837 143.445 77.5853C142.003 78.302 142.989 78.9547 141.345 79.889C141.093 80.0548 140.799 80.143 140.498 80.143C140.197 80.143 139.903 80.0548 139.651 79.889C139.221 79.5818 139.208 79.0955 139.158 78.4556L139.158 78.238C139.194 77.2877 139.562 76.381 140.195 75.6783C140.738 75.0768 141.156 74.3984 141.662 73.8097C142.267 73.2436 143.015 72.8582 143.824 72.6962C146.492 71.9283 148.49 71.2884 145.582 75.3199Z" fill="#6F6F6E"/>
<path fill-rule="evenodd" clip-rule="evenodd" d="M127.447 59.0148C128.117 60.7554 126.094 62.112 124.348 61.2545C124.009 61.1392 123.707 60.9313 123.476 60.6536C123.246 60.3759 123.096 60.0393 123.042 59.6807C122.988 59.3221 123.034 58.9555 123.173 58.6212C123.312 58.287 123.539 57.998 123.83 57.7861C124.452 57.8595 125.069 57.9749 125.676 58.1317C126.307 58.3342 126.904 58.632 127.447 59.0148Z" fill="#DDA863"/>
<path fill-rule="evenodd" clip-rule="evenodd" d="M126.447 58.4387C127.446 59.7185 126.03 60.832 124.828 60.2433C124.611 60.1399 124.427 59.9761 124.299 59.771C124.17 59.5659 124.102 59.328 124.102 59.085C124.102 58.8421 124.17 58.6041 124.299 58.399C124.427 58.1939 124.611 58.0301 124.828 57.9268L125.726 58.1315C125.976 58.2097 126.217 58.3126 126.447 58.4387Z" fill="#000003"/>
<path fill-rule="evenodd" clip-rule="evenodd" d="M142.266 63.7758C142.21 64.1266 142.07 64.4583 141.859 64.7418C141.647 65.0253 141.37 65.2521 141.052 65.4024C140.734 65.5526 140.384 65.6218 140.034 65.6037C139.683 65.5857 139.342 65.481 139.041 65.2988C138.725 65.1958 138.44 65.0116 138.216 64.7642C137.991 64.5169 137.833 64.2147 137.758 63.8873C137.683 63.5599 137.693 63.2184 137.787 62.8961C137.881 62.5737 138.056 62.2816 138.295 62.048C139.059 62.0224 139.819 62.1849 140.508 62.5216C141.15 62.8531 141.742 63.2754 142.266 63.7758Z" fill="#DDA863"/>
<path fill-rule="evenodd" clip-rule="evenodd" d="M141.055 62.829C141.15 63.0972 141.153 63.3895 141.065 63.6599C140.977 63.9303 140.802 64.1632 140.569 64.3218C140.335 64.4804 140.056 64.5557 139.775 64.5356C139.495 64.5156 139.229 64.4014 139.019 64.2112C138.866 64.0644 138.754 63.8788 138.695 63.6736C138.636 63.4685 138.632 63.2511 138.684 63.0439C138.735 62.8366 138.84 62.647 138.988 62.4945C139.136 62.3421 139.321 62.2322 139.525 62.1763C139.861 62.2684 140.191 62.3839 140.512 62.5218C140.7 62.6114 140.881 62.714 141.055 62.829Z" fill="#000003"/>
<path fill-rule="evenodd" clip-rule="evenodd" d="M141.053 62.829C141.159 63.0066 141.215 63.2102 141.215 63.4177C141.215 63.6252 141.159 63.8288 141.053 64.0065C141.059 63.8286 141.029 63.6513 140.963 63.486C140.898 63.3207 140.799 63.1711 140.673 63.0466C140.536 62.9062 140.368 62.7999 140.184 62.7361C139.999 62.6722 139.802 62.6526 139.608 62.6786C139.415 62.7046 139.23 62.7757 139.068 62.8861C138.906 62.9966 138.772 63.1435 138.675 63.3153C138.704 63.0592 138.803 62.8164 138.962 62.6149C139.121 62.4134 139.333 62.2614 139.573 62.1763C139.91 62.2684 140.239 62.3839 140.56 62.5218C140.73 62.6134 140.895 62.716 141.053 62.829Z" fill="#000003"/>
<path fill-rule="evenodd" clip-rule="evenodd" d="M140.194 62.6239C140.22 62.6508 140.24 62.6826 140.254 62.7174C140.267 62.7522 140.274 62.7894 140.273 62.8268C140.273 62.8643 140.265 62.9012 140.25 62.9356C140.236 62.9699 140.214 63.001 140.188 63.0271C140.161 63.0531 140.13 63.0736 140.095 63.0874C140.061 63.1012 140.024 63.108 139.987 63.1074C139.95 63.1068 139.914 63.0988 139.88 63.084C139.846 63.0691 139.815 63.0476 139.789 63.0207C139.524 62.7775 139.916 62.4064 140.194 62.6239Z" fill="white"/>
<path fill-rule="evenodd" clip-rule="evenodd" d="M125.966 58.5669C125.994 58.591 126.018 58.6209 126.035 58.6549C126.051 58.6888 126.061 58.7259 126.062 58.7637C126.064 58.8016 126.057 58.8393 126.043 58.8745C126.03 58.9097 126.008 58.9415 125.982 58.9678C125.955 58.9941 125.922 59.0144 125.887 59.0273C125.852 59.0402 125.815 59.0454 125.777 59.0426C125.74 59.0398 125.704 59.029 125.671 59.011C125.638 58.993 125.609 58.9681 125.586 58.9381C125.346 58.6693 125.7 58.2598 125.966 58.5669Z" fill="white"/>
</g>
<defs>
<clipPath id="clip0_792_4675">
<rect width="273" height="328" fill="white" transform="matrix(-1 8.74228e-08 8.74228e-08 1 273.305 0.973633)"/>
</clipPath>
</defs>
</svg>
