<svg width="97" height="95" viewBox="0 0 97 95" fill="none" xmlns="http://www.w3.org/2000/svg">
<path fill-rule="evenodd" clip-rule="evenodd" d="M25.5692 9.67391C26.6121 9.59199 27.6484 9.44168 28.6716 9.22395C31.5169 8.99463 34.3666 9.60919 36.8645 10.9908C39.3623 12.3724 41.3974 14.4598 42.7153 16.9918C43.7337 19.0285 44.0416 20.4731 41.8865 23.3624C40.3299 23.7374 38.7065 23.7374 37.15 23.3624L34.7817 26.8437C33.8107 26.8437 32.1766 26.2516 31.3241 26.299C29.8794 31.9354 28.1032 32.1486 24.5745 30.8698C21.6853 36.2457 17.4698 30.5856 15.4568 28.2174C12.8517 25.3281 14.6279 20.7574 16.7356 16.3761C11.4071 18.1049 7.26264 24.215 3.82867 30.5856C-1.85513 41.5506 1.91039 49.1053 3.21292 56.2574C4.34944 61.4493 6.2997 66.4288 8.99146 71.0116C10.2558 73.4198 11.6965 75.7312 13.3017 77.9269C17.1748 82.9628 22.1479 87.0468 27.841 89.8666C33.534 92.6864 39.7963 94.1675 46.1493 94.1968C72.2001 94.1968 77.5523 85.8605 87.8779 66.4409C93.2775 56.3521 96.9009 50.4789 95.8826 38.756C95.3315 33.4681 93.7206 28.3455 91.1461 23.694C87.499 16.2103 81.6731 8.13454 73.6447 4.10851C68.2031 1.40578 62.1948 0.0417394 56.1197 0.129867C49.9385 0.53247 29.8557 5.2216 25.5692 9.67391Z" fill="#B72223"/>
<path fill-rule="evenodd" clip-rule="evenodd" d="M25.5708 9.67442L25.0261 10.4796C23.8346 10.6391 22.6884 11.0408 21.6579 11.6598C20.6275 12.2789 19.7347 13.1024 19.0344 14.0794C17.9924 14.4583 17.495 15.1925 16.8319 16.4477C14.7242 20.7816 12.948 25.3523 15.553 28.2889C17.6845 30.6572 21.7815 36.3173 24.6708 30.9413C28.1995 32.2202 29.9757 32.007 31.4203 26.3706C32.2729 26.3706 33.907 26.9153 34.878 26.9153L37.2462 23.434C38.8028 23.8089 40.4262 23.8089 41.9827 23.434C44.1378 20.5447 43.83 19.1 42.8116 17.0634C41.4969 14.5392 39.4693 12.4571 36.9808 11.076C34.4923 9.69494 31.6528 9.07578 28.8152 9.29549C27.7476 9.5208 26.6616 9.64764 25.5708 9.67442Z" fill="#520000"/>
</svg>
