<svg width="772" height="479" viewBox="0 0 772 479" fill="none" xmlns="http://www.w3.org/2000/svg">
<g clip-path="url(#clip0_1149_3305)">
<path fill-rule="evenodd" clip-rule="evenodd" d="M57.4237 373.332C71.9772 369.625 75.6971 393.553 61.3812 395.224C58.4912 395.718 55.5229 395.051 53.1219 393.369C50.7208 391.686 49.0812 389.123 48.5596 386.238C48.038 383.353 48.6766 380.379 50.3366 377.962C51.9965 375.545 54.5435 373.881 57.4237 373.332ZM532.066 277.229C548.561 270.398 558.329 294.423 542.064 301.021C540.486 301.817 538.754 302.259 536.987 302.317C535.22 302.375 533.462 302.047 531.835 301.357C530.208 300.666 528.752 299.628 527.566 298.317C526.381 297.006 525.496 295.452 524.973 293.763C522.12 285.01 525.354 280.028 532.066 277.229ZM691.188 243.037C693.707 242.337 696.39 242.516 698.794 243.544C701.199 244.572 703.181 246.389 704.415 248.694C704.914 249.998 705.152 251.388 705.114 252.784C705.076 254.18 704.764 255.555 704.194 256.83C703.624 258.105 702.809 259.255 701.795 260.215C700.78 261.174 699.586 261.925 698.282 262.423C683.457 267.395 681.109 246.978 691.258 243.068L691.188 243.037ZM639.79 243.265C627.568 245.703 613.699 249.758 601.825 251.511L581.762 254.856C573.381 256.406 567.6 255.336 559.066 255.724C522.757 245.594 501.572 268.563 473.197 274.245C457.928 277.296 442.661 279.214 428.204 283.552L405.562 287.216C383.439 289.458 361.789 295.073 341.366 303.866C334.102 305.835 326.726 307.365 319.278 308.45C304.243 311.354 261.174 319.084 252.688 322.561C242.94 326.608 216.542 324.855 203.102 326.539C184.134 327.433 171.263 337.059 154.84 342.788C138.417 348.516 142.081 349.061 128.546 349.736C119.139 350.197 109.072 354.395 100.924 354.2C91.6436 362.279 54.7599 357.102 40.3608 365.541L33.4984 369.617C28.4303 374.285 20.006 374.429 15.4834 380.978C10.9608 387.528 13.8614 400.125 19.7085 403.493C29.2359 408.968 61.5942 408.006 71.9779 403.571C79.0408 400.551 84.6297 396.41 92.2761 393.776C122.051 383.552 143.585 386.787 173.968 386.581C151.789 363.817 188.232 341.111 193.838 366.554C196.251 377.421 193.503 380.562 189.527 386.642C195.774 386.137 201.817 384.175 207.169 380.912C214.43 375.754 216.181 378.511 224.855 376.21C231.327 374.606 235.049 371.354 241.04 368.947C246.2 366.799 251.979 365.431 257.731 363.464C269.789 359.23 276.692 354.122 290.82 350.898C302.755 348.163 315.221 346.213 326.939 342.835C339.876 339.078 351.473 338.042 364.44 334.97C377.407 331.899 388.043 329.719 399.983 326.315C413.516 322.446 426.359 323.227 438.743 319.769C466.499 312.088 486.394 305.641 514.313 306.435C528.197 306.504 542.044 304.979 555.581 301.892C572.189 297.254 562.536 294.034 589.183 290.059C610.267 286.875 643.59 276.135 662.585 273.866C679.784 271.761 730.868 282.484 722.954 246.222C719.051 228.346 708.373 227.986 697.343 227.848L692.527 229.225C691.284 229.468 690.018 229.575 688.674 229.857C686.372 230.377 684.107 231.049 681.894 231.869C657.511 240.931 662.85 237.351 639.86 243.296L639.79 243.265Z" fill="#623C2D"/>
<path fill-rule="evenodd" clip-rule="evenodd" d="M656.594 239.552C652.923 240.258 648.303 241.145 639.858 243.295C633.188 226.536 643.663 215.125 659.274 214.034C660.998 213.916 662.628 213.8 664.171 213.69C683.954 212.28 689.347 211.895 693.342 223.54C694.475 226.795 693.717 227.402 693.789 227.525C693.848 227.627 694.463 227.404 697.126 228.045L692.31 229.423C691.738 229.534 691.161 229.617 690.574 229.702C689.886 229.801 689.183 229.902 688.457 230.054C686.155 230.574 683.89 231.246 681.677 232.066C666.405 237.667 662.897 238.341 656.594 239.552ZM203.004 326.664C208.097 326.011 215.097 325.85 222.348 325.683L222.349 325.683C234.134 325.413 246.585 325.127 252.591 322.686C259.666 319.787 290.791 313.93 309.654 310.381C313.412 309.674 316.683 309.058 319.181 308.576C326.628 307.491 334.004 305.96 341.268 303.991C361.691 295.198 383.341 289.583 405.464 287.341L428.106 283.677C438.055 280.749 448.326 278.912 458.726 277.052C463.496 276.198 468.293 275.341 473.099 274.37C482.737 272.44 491.545 268.516 500.398 264.572C517.61 256.904 534.991 249.16 558.968 255.849C559.261 247.578 555.797 238.216 549.244 235.582C539.153 231.534 506.289 237.528 485.306 241.355L485.305 241.355C479.471 242.419 474.556 243.316 471.304 243.782C456.357 245.927 437.44 249.995 422.735 253.76C418.475 254.825 413.085 256.612 407.38 258.503C396.935 261.966 385.434 265.779 377.876 266.152C360.592 267.145 343.417 269.546 326.524 273.332C311.514 276.224 301.39 277.408 291.185 278.602L291.185 278.602L291.185 278.602C282.45 279.623 273.656 280.652 261.687 282.764C252.915 284.303 245.746 284.583 239.664 284.821C233.104 285.077 227.81 285.284 223.134 286.966C206.758 292.967 204.624 311.003 203.004 326.664ZM33.3878 369.779L40.2501 365.703C47.4667 361.473 66.1635 360.294 84.1867 359.157C102.125 358.025 119.395 356.935 124.017 352.923L130.938 344.294C133.448 343.68 132.269 343.61 129.576 343.452C124.118 343.13 112.438 342.443 112.622 336.111C112.671 334.207 112.779 332.332 112.883 330.519C113.737 315.719 114.35 305.097 80.1462 317.401C70.2751 320.967 64.1378 322.383 59.8104 323.382C50.2798 325.582 49.5285 325.755 37.0041 342.407C31.9377 349.173 32.6403 355.54 33.2757 361.299C33.607 364.301 33.92 367.137 33.3878 369.779Z" fill="#835B3B"/>
<path fill-rule="evenodd" clip-rule="evenodd" d="M57.4267 373.334C54.5465 373.883 51.9995 375.547 50.3396 377.964C48.6796 380.381 48.0411 383.355 48.5626 386.24C49.0842 389.126 50.7239 391.688 53.1249 393.371C55.526 395.054 58.4942 395.72 61.3842 395.226C75.7001 393.555 71.9802 369.628 57.4267 373.334ZM691.191 243.039C681.057 246.914 683.355 267.35 698.215 262.393C699.519 261.895 700.713 261.145 701.728 260.186C702.742 259.226 703.557 258.076 704.127 256.801C704.697 255.526 705.009 254.151 705.047 252.755C705.085 251.359 704.848 249.969 704.348 248.665C703.114 246.36 701.132 244.543 698.727 243.515C696.323 242.486 693.64 242.308 691.121 243.008L691.191 243.039ZM532.069 277.231C525.357 280.03 522.123 285.013 524.976 293.765C525.499 295.454 526.384 297.008 527.569 298.319C528.755 299.631 530.211 300.668 531.838 301.359C533.465 302.05 535.223 302.377 536.99 302.319C538.757 302.261 540.489 301.819 542.067 301.023C558.332 294.426 548.596 270.33 532.069 277.231ZM173.858 386.742C180.406 389.668 183.728 387.875 189.416 386.803C193.393 380.724 196.141 377.582 193.728 366.715C188.122 341.273 151.679 363.978 173.858 386.742Z" fill="#592E28"/>
<path fill-rule="evenodd" clip-rule="evenodd" d="M219.765 288.108L220.356 288.666C225.065 283.158 228.373 276.593 229.997 269.531C230.995 264.382 231.352 249.789 228.266 245.447C227.969 245.029 227.64 244.705 227.276 244.495C227.157 244.763 227.028 245.045 226.892 245.338C225.748 247.809 224.102 251.095 223.255 253.496C221.554 259.373 222.205 267.226 220.967 270.748C215.533 279.244 216.949 280.212 219.625 288.045L219.765 288.108ZM81.0362 281.543L81.0369 281.375L81.0428 280.118C80.9206 279.284 80.7413 278.46 80.5062 277.651C79.8519 275.636 80.2387 277.028 79.4004 275.519C77.6112 272.283 78.7777 263.183 78.855 259.437C79.1924 255.518 79.2104 251.578 78.9089 247.656C78.0657 244.322 77.5042 240.923 77.2304 237.495L76.8101 237.308C73.4989 239.735 71.5787 255.976 71.5134 261.576C71.4267 265.72 72.3476 269.822 74.1971 273.53C75.4982 276.723 77.7801 279.42 80.7135 281.231C80.7135 281.231 80.8968 281.313 81.0369 281.375C81.0589 281.385 81.0798 281.394 81.0988 281.403L81.0362 281.543Z" fill="#F4CCAD"/>
<path d="M220.967 270.748C222.205 267.226 221.554 259.373 223.255 253.496C224.102 251.095 225.748 247.809 226.892 245.338L209.654 243.974C210.345 233.024 213.393 234.007 208.912 218.646C207.802 214.831 205.663 211.061 204.862 208.435C203.504 204.047 202.875 204.984 200.525 201.875C199.868 200.994 199.453 200.136 198.925 199.438C195.548 195.241 185.14 190.423 179.858 188.61L161.938 184.805C159.36 184.745 156.782 185.064 154.219 184.969C141.247 184.383 142.433 183.611 127.612 186.694C120.532 188.152 116.99 193.166 113.981 194.636C111.763 195.746 112.492 195.147 110.83 196.799L98.278 208.626C97.0465 210.033 96.1451 211.697 95.6397 213.497L95.6867 213.392C94.8188 217.121 93.8954 229.438 91.1318 232.615L76.8101 237.308L77.2304 237.495C77.5042 240.923 78.0657 244.322 78.9089 247.656C79.2104 251.578 79.1924 255.518 78.855 259.437C78.7777 263.183 77.6112 272.283 79.4004 275.519C80.2387 277.028 79.8519 275.636 80.5062 277.651C80.7413 278.46 80.9206 279.284 81.0428 280.118L81.0369 281.375L81.0988 281.403L87.1894 311.104L103.439 328.81L121.676 341.25L147.496 350.75L194.134 330.5L219.625 288.045C216.949 280.212 215.533 279.244 220.967 270.748Z" fill="#F4CCAD"/>
<path fill-rule="evenodd" clip-rule="evenodd" d="M133.185 296.651C142.612 291.536 142.544 302.975 150.463 298.32C152.42 297.136 156.421 294.387 159.165 295.108C161.853 296.22 164.374 297.699 166.654 299.504L166.969 299.645C167.673 298.069 168.039 298.568 168.315 296.633C168.561 294.959 168.465 293.252 168.034 291.615C167.603 289.978 166.845 288.446 165.806 287.11C162.06 278.946 159.185 270.409 157.228 261.642C156.953 259.587 156.21 257.622 155.058 255.899C153.906 254.175 152.374 252.738 150.58 251.698C148.059 250.813 145.347 250.616 142.725 251.13C140.555 251.757 139.843 253.539 139.308 256.241C138.305 261.212 139.773 267.33 138.23 272.102C136.494 277.586 130.959 283.768 130.771 290.489C130.77 294.816 132.193 294.359 133.185 296.651Z" fill="#E0B795"/>
<path fill-rule="evenodd" clip-rule="evenodd" d="M181.912 248.048C184.56 246.164 191.994 248.897 194.134 249.937C199.702 252.425 201.734 246.653 198.094 244.27C192.932 240.872 179.739 239.935 172.797 240.993L169.384 241.485C157.944 242.549 156.022 251.647 159.153 253.383C161.635 254.786 163.072 253.075 164.488 252.069C171.129 247.264 177.365 251.268 181.912 248.048Z" fill="#231F20"/>
<path fill-rule="evenodd" clip-rule="evenodd" d="M99.9543 244.833C100.398 246.754 102.228 247.361 104.417 247.163C106.606 246.965 108.731 245.688 109.28 245.681C111.041 246.116 112.834 246.411 114.641 246.564C120.877 246.618 126.322 246.279 131.41 249.56C134.677 251.65 138.997 249.504 137.049 245.399C133.248 237.358 115.299 234.842 107.011 238.912C104.098 240.635 98.9579 240.481 99.9543 244.833Z" fill="#231F20"/>
<path fill-rule="evenodd" clip-rule="evenodd" d="M125.797 317.8C126.769 320.419 131.535 321.035 133.593 322.165C137.679 322.899 141.846 323.064 145.977 322.656C150.123 321.932 154.39 322.383 158.293 323.957C159.704 323.243 161.672 323.072 163.157 322.475C164.612 321.723 165.918 320.712 167.01 319.491C160.491 315.277 153.223 317.533 145.859 315.209C140.437 313.333 129.158 313.756 125.797 317.8Z" fill="#E38D8C"/>
<path fill-rule="evenodd" clip-rule="evenodd" d="M133.188 296.652C125.801 300.116 113.602 308.614 111.28 316.819C107.799 322.826 116.532 323.871 117.517 322.42L118.354 322.332C119.602 321.419 120.428 321.074 121.739 320.021C122.841 318.834 124.279 318.011 125.86 317.661C129.221 313.617 140.466 313.179 146.074 315.013C153.392 317.442 160.531 315.002 167.226 319.295C172.251 320.742 171.684 323.891 174.692 327.126C175.365 327.593 176.185 327.8 176.999 327.708C177.813 327.616 178.566 327.231 179.117 326.624C179.973 324.763 180.213 322.677 179.803 320.671C178.895 314.174 175.992 308.121 171.494 303.347C170.479 302.515 170.02 302.226 168.986 301.344C168.22 300.797 167.514 300.172 166.878 299.478L166.563 299.338C164.283 297.532 161.762 296.053 159.074 294.942C156.365 294.235 152.329 296.969 150.372 298.154C142.468 303.151 142.615 291.537 133.188 296.652Z" fill="#6D6E71"/>
<path fill-rule="evenodd" clip-rule="evenodd" d="M132.737 335.647C124.647 332.033 126.774 321.724 133.593 322.165C137.678 322.899 141.846 323.064 145.977 322.656C150.123 321.932 154.389 322.383 158.293 323.958C159.125 326.514 161.832 324.405 161.514 330.102C161.293 337.271 137.924 338.048 132.737 335.647Z" fill="#6D6E71"/>
<path fill-rule="evenodd" clip-rule="evenodd" d="M81.0339 281.544C82.1612 296.794 78.7524 299.346 84.1656 313.654C85.7774 317.945 86.99 323.318 88.7971 327.36C94.8749 340.368 100.673 350.898 114.758 355.763C124.567 359.698 135.009 361.815 145.576 362.011C150.043 362.074 159.914 362.829 163.484 361.609C174.674 357.533 179.639 357.609 189.366 350.695C195.543 346.271 201.191 335.981 204.611 329.359C206.988 324.791 207.681 320.984 209.73 316.396C211.78 311.808 214.278 308.849 216.176 304.32C217.91 301.565 221.588 289.009 220.216 285.119C218.574 280.52 218.629 278.234 221.237 270.703C222.522 267.076 221.824 259.328 223.526 253.451C223.948 252.146 224.448 250.869 225.025 249.625C217.137 246.311 212.608 246.01 209.887 247.399C210.604 255.451 210.807 263.54 210.494 271.617C209.483 275.713 208.734 279.869 208.254 284.06C208.254 284.06 206.005 299.439 205.248 300.194C202.609 303.468 203.986 301.983 203.18 306.327C202.227 311.657 197.777 312.778 196.285 315.178C194.792 317.578 193.698 323.601 189.288 324.068C186.433 324.347 185.583 322.959 183.782 321.818C183.008 323.222 181.815 324.349 180.368 325.04L180.006 320.677C180.417 322.684 180.177 324.77 179.321 326.631C178.77 327.237 178.017 327.623 177.203 327.715C176.389 327.807 175.569 327.6 174.896 327.132C173.001 328.176 171.396 326.409 168.651 326.065C166.114 325.823 163.556 325.969 161.063 326.498L160.891 326.883C162.502 327.603 159.884 328.198 159.496 331.134C156.167 332.95 152.471 333.993 148.684 334.184C144.896 334.376 141.114 333.712 137.618 332.24C134.326 330.77 126.657 333.267 128.672 328.664C126.967 326.179 126.079 327.883 123.919 325.196C122.159 323.023 121.988 323.031 118.585 322.183L117.748 322.271C117.044 323.847 108.03 322.677 111.512 316.67C110.413 314.986 109.213 313.369 107.918 311.83C106.964 313.966 106.505 315.652 104.677 316.264C103.631 316.624 102.502 316.668 101.43 316.391C100.359 316.114 99.3922 315.528 98.6515 314.706C93.8125 309.645 98.0015 308.45 93.6707 304.414C90.0746 301.085 90.4016 299.131 88.5766 294.282L94.0939 286.917C96.023 286.266 90.307 283.544 89.923 278.668C89.5391 273.791 89.532 265.344 89.5751 261.204C89.5891 257.975 89.0161 258.223 88.7559 255.796C88.9502 251.952 89.5026 248.134 90.4059 244.392L90.6077 242.718C87.4498 240.383 81.7527 242.039 77.4613 237.727C76.7976 240.623 78.434 244.295 79.1406 247.509C79.4421 251.431 79.4241 255.371 79.0867 259.291C79.0094 263.037 77.8429 272.137 79.6321 275.372C80.4704 276.881 80.0523 275.56 80.7379 277.505C80.973 278.314 81.1523 279.138 81.2745 279.971L81.0339 281.544Z" fill="#C2C4C6"/>
<path fill-rule="evenodd" clip-rule="evenodd" d="M196.11 288.591C191.227 291.997 191.482 295.471 189.755 298.019C188.755 299.505 187.09 300.693 185.852 302.241C182.386 306.616 180.862 318.959 183.573 321.262L183.52 322.037C185.356 323.193 186.172 324.565 189.027 324.287C193.437 323.82 194.707 317.498 196.023 315.397C197.34 313.297 201.825 311.814 202.918 306.546C203.725 302.202 202.347 303.687 204.986 300.412C206.254 298.843 207.278 297.091 208.022 295.215C211.276 286.334 213.987 276.034 196.11 288.591ZM224.791 249.688C225.636 247.797 226.481 245.906 227.138 244.435C227.374 239.205 223.518 214.922 221.035 212.3C220.402 209.994 219.451 207.788 218.208 205.744C217.374 203.943 217.519 201.739 216.305 199.096C211.379 188.494 205.689 180.448 192.595 178.631C187.257 177.885 180.158 171.395 174.145 170.935C166.653 170.403 131.83 169.171 124.64 171.63L123.63 172.103C119.685 171.841 115.792 173.112 112.761 175.65C110.266 176.72 108.195 180.416 103.353 183.168C100.487 184.786 101.592 183.347 98.7629 186.201C96.5582 188.409 95.1536 187.697 92.1316 191.64C90.2883 194.262 90.4193 192.934 89.1728 195.066C85.8994 200.634 83.653 206.746 82.5406 213.108C81.4893 214.991 81.8819 213.36 80.6631 217.311L79.0806 221.981C78.4662 223.473 77.9875 225.017 77.6502 226.594C76.9432 229.681 77.5761 234.753 76.8117 237.31L76.6709 237.625C80.9622 241.937 86.4842 240.203 89.8172 242.616C90.1546 239.322 90.8413 232.613 90.8339 232.442C93.274 229.331 94.26 216.874 95.233 213.191C95.7384 211.391 96.6397 209.727 97.8712 208.32L110.423 196.493C112.085 194.841 111.356 195.44 113.574 194.33C116.583 192.86 120.126 187.846 127.205 186.388C142.026 183.305 140.84 184.077 153.812 184.663C156.375 184.758 158.954 184.44 161.532 184.499L179.451 188.304C184.733 190.117 195.142 194.935 198.518 199.132C199.046 199.83 199.461 200.688 200.118 201.569C202.468 204.678 203.097 203.741 204.455 208.129C205.256 210.755 207.395 214.525 208.506 218.34C212.986 233.701 209.938 232.718 209.247 243.668C209.178 245.07 209.182 246.474 209.259 247.875C209.409 252.899 219.592 253.709 224.371 249.5L224.791 249.688ZM88.4515 294.478C90.3891 299.545 89.9495 301.281 93.5456 304.61C97.8764 308.645 93.6874 309.841 98.5264 314.902C99.2671 315.724 100.233 316.31 101.305 316.587C102.377 316.864 103.506 316.82 104.552 316.459C106.38 315.848 106.944 314.209 107.793 312.026L107.877 311.181C108.689 307.903 108.332 304.445 106.867 301.403C105.634 298.71 104.919 295.702 103.701 293.351C102.152 290.743 99.9368 288.593 97.2831 287.123C88.7177 281.658 82.3818 277.315 88.4515 294.478Z" fill="#6D6E71"/>
<path fill-rule="evenodd" clip-rule="evenodd" d="M107.102 263.362C107.554 267.429 119.774 274.023 128.783 267.965C133.805 264.621 136.616 261.339 128.906 256.593C126.027 255.218 122.784 254.8 119.651 255.399C117.052 255.666 106.62 258.988 107.102 263.362Z" fill="white"/>
<path fill-rule="evenodd" clip-rule="evenodd" d="M112.152 257.889C110.865 262.649 115.903 267.547 121.969 266.476C123.188 266.453 124.381 266.116 125.43 265.495C126.48 264.875 127.351 263.994 127.958 262.936C128.566 261.879 128.89 260.683 128.897 259.464C128.905 258.245 128.597 257.044 128.003 255.98C125.39 255.111 122.605 254.89 119.887 255.337C117.2 255.811 114.594 256.671 112.152 257.889Z" fill="#D9A468"/>
<path fill-rule="evenodd" clip-rule="evenodd" d="M117.453 255.886C116.722 256.694 116.304 257.738 116.276 258.828C116.248 259.918 116.611 260.982 117.299 261.828C117.987 262.674 118.956 263.245 120.029 263.439C121.102 263.632 122.209 263.435 123.149 262.883C123.843 262.53 124.43 261.998 124.852 261.344C125.273 260.69 125.514 259.936 125.55 259.158C125.586 258.381 125.416 257.607 125.056 256.917C124.696 256.227 124.161 255.644 123.503 255.227C122.215 255.197 120.927 255.253 119.647 255.395C118.906 255.512 118.173 255.675 117.453 255.886Z" fill="#231F20"/>
<path fill-rule="evenodd" clip-rule="evenodd" d="M120.674 256.106C120.529 256.156 120.398 256.237 120.289 256.344C120.18 256.451 120.095 256.581 120.042 256.724C119.989 256.867 119.968 257.021 119.981 257.173C119.994 257.325 120.041 257.472 120.118 257.604C120.194 257.736 120.299 257.85 120.425 257.937C120.551 258.024 120.694 258.081 120.845 258.106C120.995 258.131 121.15 258.122 121.297 258.081C121.444 258.039 121.579 257.965 121.694 257.864C122.856 257.333 121.933 255.45 120.674 256.106Z" fill="white"/>
<path fill-rule="evenodd" clip-rule="evenodd" d="M161.662 263.578C162.26 268.634 176.63 275.306 185.325 269.948C187.918 268.376 190.171 267.282 190.871 264.024C192.29 257.18 183.058 256.122 176.535 255.771C172.706 255.783 161.033 258.592 161.662 263.578Z" fill="white"/>
<path fill-rule="evenodd" clip-rule="evenodd" d="M169.298 257.203C165.117 262.519 170.825 269.396 177.833 268.284C179.148 268.244 180.426 267.843 181.528 267.126C182.629 266.408 183.513 265.402 184.082 264.216C184.65 263.031 184.882 261.712 184.752 260.403C184.622 259.095 184.134 257.848 183.343 256.797C181.058 256.376 178.745 256.116 176.424 256.017C174.002 256.043 171.598 256.443 169.298 257.203Z" fill="#D9A468"/>
<path fill-rule="evenodd" clip-rule="evenodd" d="M173.425 256.232C168.59 259.533 172.365 265 177.242 264.239C178.147 264.186 179.015 263.861 179.731 263.305C180.448 262.75 180.979 261.991 181.255 261.127C181.532 260.264 181.541 259.337 181.28 258.469C181.02 257.601 180.503 256.832 179.797 256.263C178.641 256.125 177.488 256.072 176.421 256.016C175.418 255.999 174.416 256.071 173.425 256.232Z" fill="#231F20"/>
<path fill-rule="evenodd" clip-rule="evenodd" d="M175.022 257.071C174.911 257.135 174.814 257.219 174.735 257.321C174.657 257.422 174.599 257.537 174.566 257.661C174.532 257.784 174.523 257.913 174.539 258.04C174.555 258.167 174.596 258.289 174.66 258.401C174.723 258.512 174.808 258.609 174.909 258.688C175.01 258.766 175.126 258.824 175.249 258.857C175.373 258.891 175.501 258.9 175.628 258.884C175.755 258.868 175.878 258.827 175.989 258.763C177.1 258.251 176.231 256.435 175.022 257.071Z" fill="white"/>
<path fill-rule="evenodd" clip-rule="evenodd" d="M67.3393 269.796C75.5271 271.819 83.8529 273.236 92.2489 274.035C115.226 276.486 140.818 276.282 160.422 276.974L165.824 277.203C178.678 277.862 189.188 278.693 201.863 279.944C203.961 280.126 206.067 280.184 208.172 280.116C214.723 279.934 225.322 281.224 227.981 275.648C229.284 272.903 230.276 270.02 230.938 267.054C233.64 253.389 224.956 216.405 218.57 203.428C217.686 201.646 217.846 199.407 216.581 196.783L216.073 195.758C208.006 193.093 199.729 191.11 191.33 189.83C189.341 189.487 187.421 189.176 185.486 188.899C161.004 185.398 146.343 188.216 120.831 187.489L115.69 187.335C106.717 187.108 98.3676 186.99 89.3569 186.284C88.2702 187.113 87.3173 188.104 86.5315 189.222C84.5675 191.832 84.718 190.555 83.3858 192.69C79.9967 198.188 77.6642 204.27 76.5084 210.624C75.4064 212.526 75.8496 210.875 74.6152 214.861L72.9471 219.535C72.6029 220.306 64.7591 256.67 64.6184 258.96C64.6804 262.733 65.6115 266.441 67.3393 269.796Z" fill="white"/>
<path fill-rule="evenodd" clip-rule="evenodd" d="M93.9805 186.46C91.022 193.912 88.5383 201.545 86.5445 209.311C80.2679 232.764 75.3222 260.761 76.0953 267.87C76.26 269.288 76.421 270.62 76.5939 271.831L74.9666 271.524C74.7817 270.434 74.6632 269.288 74.5409 268.057C73.6047 260.749 78.6405 232.457 84.9991 208.915C86.9832 201.24 89.4537 193.7 92.3956 186.34L93.9805 186.46ZM93.971 274.217L95.8731 271.37C105.461 257.337 109.18 225.599 111.979 201.937C112.616 196.466 113.238 191.408 113.826 187.176L115.407 187.21C114.791 191.598 114.186 196.621 113.532 202.127C110.694 226.065 106.932 257.994 97.1995 272.257L95.7466 274.38L93.971 274.217ZM129.93 187.522C131.073 204.334 127.898 220.938 124.725 236.787C121.703 249.578 120.084 262.66 119.898 275.802L118.298 275.717C118.434 262.491 120.009 249.319 122.992 236.433C125.905 220.51 129.084 203.991 128.088 187.414L129.684 187.413L129.93 187.522ZM140.978 276.481C146.503 269.287 149.289 256.751 150.677 243.676C151.86 230.874 152.275 218.012 151.92 205.161C151.825 199.447 151.754 193.87 151.9 189.313L151.993 187.129L153.571 187.077L153.465 189.383C153.351 193.869 153.212 199.352 153.481 205.144C153.836 218.057 153.435 230.98 152.281 243.847C150.792 256.583 148.171 268.939 142.922 276.551L140.978 276.481ZM181.625 188.226L182.294 190.961C183.622 196.587 184.277 202.352 184.243 208.132C183.798 214.487 182.832 220.694 181.886 226.95C180.654 234.195 179.803 241.499 179.335 248.833C179.169 252.498 178.138 261.952 176.933 270.572C176.597 273.111 176.223 275.548 175.856 277.779L174.271 277.659C174.638 275.428 175.009 272.905 175.36 270.332C176.549 261.746 177.584 252.378 177.77 248.764C178.228 241.373 179.077 234.011 180.313 226.71C181.259 220.453 182.21 214.282 182.643 208.047C182.678 202.416 182.041 196.801 180.747 191.32L179.935 188.059L181.625 188.226ZM198.172 279.641C200.865 264.963 202.515 237.385 203.64 219.067C204.075 212.077 204.413 206.43 204.695 203.448L205.637 193.534L205.729 192.482L207.274 192.879C207.18 193.089 207.071 193.334 207.206 193.689C206.94 196.259 206.595 199.759 206.264 203.602C205.966 206.62 205.644 212.232 205.225 219.187C204.143 237.314 202.532 264.616 199.722 279.745L198.188 279.606L198.172 279.641ZM228.776 237.186C227.891 241.706 226.831 246.526 225.77 251.345C223.577 261.331 221.342 271.507 220.399 279.824L218.809 279.996C219.745 271.508 222.008 261.176 224.228 251.034C225.572 244.829 226.92 238.709 228.017 233.15L228.776 237.186Z" fill="#A93A3A"/>
<path fill-rule="evenodd" clip-rule="evenodd" d="M666.113 193.646L666.704 194.205C671.412 188.682 674.735 182.115 676.395 175.05C677.438 169.424 677.763 152.429 673.624 150.034C672.513 152.52 670.551 156.349 669.603 159.034C667.901 164.912 668.552 172.764 667.315 176.287C661.896 184.747 663.312 185.716 665.973 193.584L666.113 193.646ZM527.399 187.046L527.399 186.92L527.39 185.656C527.274 184.811 527.1 183.976 526.87 183.155C526.2 181.175 526.621 182.582 525.748 181.057C523.959 177.821 525.176 168.702 525.203 164.975C525.555 161.045 525.578 157.093 525.272 153.159C524.42 149.845 523.864 146.462 523.613 143.049L523.158 142.846C519.831 145.309 517.926 161.515 517.845 167.15C517.752 171.284 518.679 175.378 520.545 179.069C521.835 182.342 524.193 185.083 527.236 186.847C527.236 186.847 527.309 186.88 527.399 186.92C527.473 186.953 527.558 186.991 527.622 187.02L527.399 187.046Z" fill="#F4CCAD"/>
<path d="M669.603 159.034C670.551 156.349 672.513 152.52 673.624 150.034L655.955 149.618C656.708 138.527 659.756 139.511 655.291 124.115C654.165 120.335 652.027 116.564 651.241 113.903C649.902 109.566 649.238 110.487 646.888 107.379C646.247 106.462 645.816 105.64 645.288 104.942C641.912 100.745 631.538 95.9419 626.221 94.1129L608.302 90.3084C605.759 90.2645 603.145 90.5672 600.582 90.4727C587.611 89.8868 588.796 89.114 573.975 92.1973C566.896 93.6558 563.354 98.6692 560.344 100.139C558.126 101.249 558.855 100.651 557.193 102.303L544.657 114.095C543.421 115.514 542.514 117.189 542.003 119.001L542.034 118.931C541.166 122.66 540.243 134.977 537.433 138.258L523.158 142.846L523.613 143.049C523.864 146.462 524.42 149.845 525.272 153.159C525.578 157.093 525.555 161.045 525.203 164.975C525.176 168.702 523.959 177.821 525.748 181.057C526.621 182.582 526.2 181.175 526.87 183.155C527.1 183.976 527.274 184.811 527.39 185.656L527.399 186.92L527.622 187.02L533.506 207.258L537.433 224.936L572.195 253.5L596.819 257.5L633.496 245.25L665.973 193.584C663.312 185.716 661.896 184.747 667.315 176.287C668.552 172.764 667.901 164.912 669.603 159.034Z" fill="#F4CCAD"/>
<path fill-rule="evenodd" clip-rule="evenodd" d="M579.588 202.172C588.964 197.076 588.911 208.48 596.815 203.86C598.772 202.676 602.773 199.927 605.517 200.649C608.214 201.742 610.737 203.223 613.006 205.044L613.321 205.185C614.041 203.574 614.39 204.108 614.667 202.173C614.913 200.499 614.817 198.792 614.386 197.155C613.955 195.519 613.197 193.986 612.158 192.65C608.411 184.495 605.547 175.962 603.615 167.198C603.327 165.14 602.576 163.175 601.418 161.45C600.261 159.725 598.727 158.285 596.932 157.238C594.413 156.341 591.699 156.145 589.077 156.67C586.922 157.262 586.23 159.095 585.66 161.781C584.692 166.768 586.141 172.835 584.597 177.607C582.846 183.126 577.327 189.273 577.158 196.045C577.122 200.356 578.623 199.724 579.588 202.172Z" fill="#E0B795"/>
<path fill-rule="evenodd" clip-rule="evenodd" d="M628.267 153.59C630.915 151.707 638.349 154.439 640.504 155.444C645.995 158.107 648.09 152.195 644.449 149.813C639.287 146.414 626.11 145.443 619.152 146.535L615.755 146.992C604.314 148.057 602.377 157.19 605.509 158.925C608.006 160.293 609.427 158.617 610.843 157.611C617.485 152.806 623.704 156.845 628.267 153.59Z" fill="#231F20"/>
<path fill-rule="evenodd" clip-rule="evenodd" d="M546.324 150.34C546.752 152.295 548.582 152.903 550.771 152.704C552.309 152.552 555.085 151.229 555.634 151.222C557.411 151.66 559.221 151.949 561.046 152.085C567.231 152.16 572.691 151.785 577.779 155.066C581.047 157.156 585.35 155.045 583.403 150.941C579.637 142.914 561.653 140.383 553.365 144.453C550.277 146.098 545.452 146.085 546.324 150.34Z" fill="#231F20"/>
<path fill-rule="evenodd" clip-rule="evenodd" d="M572.199 223.322C573.121 225.96 577.887 226.577 579.945 227.707C584.09 228.479 588.324 228.659 592.519 228.241C596.666 227.519 600.932 227.97 604.836 229.542C606.212 228.813 608.179 228.641 609.715 228.025C611.179 227.288 612.488 226.275 613.568 225.041C606.858 220.783 599.781 223.083 592.401 220.794C586.789 218.875 575.494 219.332 572.199 223.322Z" fill="#E38D8C"/>
<path fill-rule="evenodd" clip-rule="evenodd" d="M579.595 202.171C572.157 205.654 559.958 214.152 557.672 222.373C554.155 228.364 562.924 229.425 563.873 227.958L564.726 227.835C565.974 226.923 566.785 226.613 568.111 225.525C569.237 224.353 570.682 223.537 572.267 223.18C575.578 219.156 586.857 218.734 592.431 220.551C599.764 222.945 606.888 220.54 613.598 224.798C618.607 226.28 618.04 229.43 621.049 232.664C621.724 233.124 622.542 233.326 623.354 233.234C624.166 233.142 624.918 232.762 625.474 232.163C626.34 230.305 626.581 228.215 626.159 226.209C625.264 219.709 622.359 213.652 617.85 208.885C616.835 208.054 616.411 207.78 615.358 206.848C614.582 206.32 613.87 205.706 613.235 205.017L612.92 204.876C610.65 203.055 608.127 201.574 605.431 200.48C602.722 199.774 598.685 202.508 596.728 203.692C588.972 208.545 588.971 197.076 579.595 202.171Z" fill="#6D6E71"/>
<path fill-rule="evenodd" clip-rule="evenodd" d="M579.093 241.188C571.003 237.574 573.13 227.265 579.948 227.707C584.094 228.479 588.327 228.659 592.523 228.241C596.669 227.519 600.935 227.97 604.839 229.542C605.637 232.083 608.344 229.974 608.025 235.671C607.649 242.813 584.28 243.589 579.093 241.188Z" fill="#6D6E71"/>
<path fill-rule="evenodd" clip-rule="evenodd" d="M527.397 187.048C528.525 202.298 525.1 204.885 530.529 219.158C532.125 223.484 533.353 228.822 535.16 232.864C541.223 245.907 547.021 256.437 561.028 261.477C570.838 265.419 581.29 267.525 591.861 267.69C596.328 267.753 606.184 268.543 609.769 267.288C620.943 263.247 625.908 263.323 635.651 256.375C641.813 251.986 647.495 241.711 650.881 235.073C653.257 230.505 653.95 226.698 656 222.11C658.049 217.522 660.548 214.563 662.461 209.999C664.195 207.245 667.857 194.723 666.502 190.798C665.146 186.874 664.914 183.913 667.523 176.382C668.807 172.755 668.109 165.007 669.811 159.13C670.237 157.813 670.743 156.524 671.325 155.269L671.247 155.444C663.437 151.955 658.83 151.83 656.109 153.219C656.827 161.27 657.03 169.359 656.717 177.436C655.706 181.519 654.963 185.664 654.493 189.844C654.493 189.844 652.227 205.259 651.486 205.978C648.831 209.287 650.209 207.802 649.402 212.147C648.449 217.477 644.035 218.613 642.507 220.998C640.98 223.382 639.92 229.42 635.511 229.887C632.656 230.166 631.805 228.778 630.004 227.637C629.231 229.041 628.037 230.168 626.59 230.859L626.229 226.496C626.651 228.503 626.41 230.592 625.543 232.45C624.988 233.049 624.236 233.43 623.424 233.522C622.612 233.614 621.794 233.412 621.118 232.952C619.223 233.996 617.634 232.193 614.924 231.865C612.37 231.636 609.795 231.789 607.286 232.317L607.129 232.668C608.74 233.387 606.157 233.998 605.719 236.953C602.39 238.769 598.694 239.812 594.906 240.004C591.119 240.195 587.336 239.531 583.841 238.06C580.549 236.589 572.879 239.086 574.894 234.483C573.189 231.999 572.302 233.703 570.142 231.015C567.981 228.328 568.21 228.85 564.823 227.967L563.97 228.09C563.266 229.666 554.252 228.496 557.769 222.505C556.672 220.806 555.459 219.183 554.141 217.649C553.187 219.785 552.728 221.471 550.9 222.083C549.852 222.433 548.726 222.473 547.656 222.196C546.587 221.92 545.62 221.339 544.874 220.525C540.07 215.48 544.259 214.285 539.893 210.234C536.348 206.885 536.624 204.95 534.799 200.102L540.332 192.701C542.246 192.085 536.545 189.329 536.161 184.452C535.777 179.575 535.755 171.163 535.813 166.988C535.733 165.172 535.453 163.37 534.978 161.615C535.178 157.759 535.736 153.93 536.644 150.176C536.738 149.966 536.727 149.331 536.83 148.537C533.672 146.202 527.975 147.858 523.684 143.546C523.036 146.407 524.707 150.095 525.379 153.294C525.685 157.227 525.662 161.18 525.309 165.11C525.283 168.837 524.065 177.956 525.855 181.192C526.728 182.716 526.275 181.379 526.976 183.289C527.206 184.11 527.38 184.946 527.497 185.79L527.397 187.048Z" fill="#C2C4C6"/>
<path fill-rule="evenodd" clip-rule="evenodd" d="M642.579 194.14C637.68 197.581 637.935 201.056 636.208 203.604C635.208 205.089 633.543 206.278 632.305 207.826C628.874 212.216 627.331 224.508 630.025 226.846L629.973 227.621C631.809 228.778 632.625 230.15 635.48 229.871C639.889 229.405 641.16 223.082 642.476 220.982C643.793 218.881 648.278 217.398 649.371 212.131C650.178 207.786 648.8 209.271 651.455 205.962C652.735 204.416 653.755 202.673 654.475 200.8C657.729 191.918 660.456 181.583 642.579 194.14ZM671.259 155.238C672.089 153.382 672.949 151.455 673.591 150.02C673.827 144.79 669.971 120.507 667.487 117.885C666.855 115.579 665.904 113.372 664.661 111.329C663.827 109.528 663.972 107.324 662.758 104.681C657.832 94.0781 652.142 86.0325 639.048 84.2158C633.71 83.4694 626.626 76.944 620.598 76.5195C613.122 75.9521 578.283 74.7554 571.127 77.2303L570.083 77.6879C566.148 77.4391 562.268 78.7147 559.249 81.25C556.704 82.3395 554.648 86.0004 549.79 88.7873C546.924 90.4059 548.064 88.9826 545.2 91.8201C542.995 94.028 541.607 93.2815 538.569 97.2598C536.706 99.8306 536.822 98.5378 535.575 100.67C532.302 106.238 530.055 112.349 528.943 118.712C527.892 120.595 528.284 118.964 527.065 122.915L525.483 127.585C524.87 129.077 524.391 130.621 524.052 132.198C523.346 135.285 523.994 140.322 523.249 142.93L523.108 143.245C527.4 147.557 532.922 145.823 536.255 148.236C536.592 144.942 537.314 138.248 537.271 138.061C539.711 134.95 540.697 122.493 541.67 118.811C542.181 116.999 543.088 115.324 544.324 113.905L556.86 102.113C558.523 100.461 557.793 101.059 560.011 99.9495C563.021 98.4792 566.563 93.4659 573.642 92.0074C588.463 88.9242 587.278 89.6969 600.25 90.2827C602.812 90.3773 605.426 90.0746 607.969 90.1185L625.889 93.923C631.205 95.752 641.579 100.555 644.955 104.752C645.484 105.45 645.914 106.272 646.555 107.189C648.905 110.297 649.569 109.376 650.908 113.713C651.694 116.375 653.833 120.145 654.959 123.925C659.423 139.321 656.376 138.338 655.622 149.428C655.566 150.495 655.563 152.006 655.633 153.634C655.783 158.658 665.966 159.469 670.745 155.26C670.745 155.26 670.745 155.26 670.824 155.085L671.259 155.238ZM534.694 199.969C536.632 205.036 536.243 206.752 539.788 210.101C544.154 214.152 539.965 215.347 544.769 220.392C545.516 221.206 546.482 221.787 547.552 222.063C548.621 222.34 549.748 222.3 550.795 221.95C552.623 221.338 553.187 219.7 554.036 217.516L554.12 216.671C554.932 213.394 554.575 209.936 553.11 206.894C551.877 204.2 551.162 201.192 549.944 198.842C548.401 196.228 546.184 194.078 543.526 192.613C535.066 187.195 528.73 182.852 534.694 199.969Z" fill="#6D6E71"/>
<path fill-rule="evenodd" clip-rule="evenodd" d="M553.487 168.917C553.904 172.969 566.124 179.562 575.132 173.504C580.155 170.161 582.966 166.879 575.256 162.132C572.388 160.762 569.156 160.349 566.035 160.954C563.437 161.221 552.986 164.492 553.487 168.917Z" fill="white"/>
<path fill-rule="evenodd" clip-rule="evenodd" d="M558.691 163.47C557.389 168.266 562.427 173.163 568.508 172.057C569.725 172.04 570.917 171.707 571.966 171.09C573.015 170.473 573.886 169.594 574.493 168.539C575.1 167.484 575.422 166.289 575.428 165.072C575.434 163.855 575.123 162.657 574.526 161.596C571.919 160.699 569.127 160.478 566.411 160.954C563.729 161.414 561.128 162.261 558.691 163.47Z" fill="#D9A468"/>
<path fill-rule="evenodd" clip-rule="evenodd" d="M563.805 161.426C563.074 162.235 562.656 163.279 562.628 164.369C562.6 165.459 562.962 166.523 563.651 167.369C564.339 168.215 565.307 168.786 566.38 168.98C567.454 169.173 568.56 168.976 569.501 168.424C570.202 168.081 570.799 167.557 571.229 166.905C571.659 166.253 571.907 165.498 571.946 164.719C571.986 163.939 571.816 163.163 571.454 162.471C571.093 161.779 570.552 161.196 569.889 160.784C568.602 160.737 567.312 160.793 566.033 160.952C565.276 161.034 564.53 161.193 563.805 161.426Z" fill="#231F20"/>
<path fill-rule="evenodd" clip-rule="evenodd" d="M567.029 161.648C566.885 161.698 566.753 161.779 566.644 161.886C566.535 161.993 566.451 162.123 566.398 162.266C566.345 162.409 566.324 162.562 566.337 162.715C566.35 162.867 566.396 163.014 566.473 163.146C566.55 163.278 566.655 163.392 566.78 163.479C566.906 163.565 567.05 163.623 567.2 163.648C567.351 163.673 567.505 163.664 567.652 163.622C567.799 163.581 567.935 163.507 568.05 163.406C569.212 162.875 568.218 160.961 567.029 161.648Z" fill="white"/>
<path fill-rule="evenodd" clip-rule="evenodd" d="M608.004 169.116C608.602 174.172 622.972 180.844 631.667 175.486C634.244 173.949 636.513 172.82 637.213 169.561C638.616 162.752 629.322 161.835 622.877 161.308C619.049 161.32 607.391 164.094 608.004 169.116Z" fill="white"/>
<path fill-rule="evenodd" clip-rule="evenodd" d="M615.658 162.704C611.461 168.055 617.168 174.932 624.177 173.82C625.491 173.78 626.769 173.379 627.871 172.662C628.973 171.945 629.857 170.938 630.426 169.753C630.994 168.567 631.226 167.248 631.096 165.939C630.965 164.631 630.478 163.384 629.687 162.334C627.407 161.901 625.101 161.628 622.783 161.518C620.361 161.544 617.958 161.944 615.658 162.704Z" fill="#D9A468"/>
<path fill-rule="evenodd" clip-rule="evenodd" d="M619.781 161.773C614.961 165.039 618.736 170.506 623.598 169.78C624.503 169.727 625.37 169.402 626.087 168.846C626.803 168.291 627.334 167.532 627.611 166.668C627.887 165.805 627.896 164.879 627.636 164.01C627.375 163.142 626.858 162.373 626.152 161.805L622.792 161.522C621.782 161.502 620.773 161.587 619.781 161.773Z" fill="#231F20"/>
<path fill-rule="evenodd" clip-rule="evenodd" d="M621.378 162.612C621.267 162.676 621.169 162.76 621.091 162.862C621.013 162.963 620.955 163.078 620.921 163.202C620.887 163.325 620.878 163.454 620.894 163.581C620.911 163.708 620.952 163.831 621.015 163.942C621.078 164.053 621.163 164.15 621.264 164.229C621.366 164.307 621.481 164.365 621.605 164.398C621.728 164.432 621.857 164.441 621.984 164.425C622.111 164.409 622.233 164.368 622.344 164.304C623.455 163.792 622.586 161.976 621.378 162.612Z" fill="white"/>
<path fill-rule="evenodd" clip-rule="evenodd" d="M515.225 179.8C523.423 181.777 531.745 183.193 540.135 184.039C563.112 186.49 588.704 186.286 608.308 186.978C610.267 187.013 612.039 187.09 613.675 187.191C626.545 187.815 637.039 188.681 649.714 189.932C651.812 190.104 653.918 190.161 656.023 190.104C662.574 189.922 673.188 191.177 675.847 185.601C677.243 182.847 678.304 179.936 679.007 176.93C681.674 163.249 672.99 126.265 666.62 113.252C665.771 111.487 665.88 109.267 664.616 106.643L664.107 105.618C656.058 102.947 647.798 100.957 639.415 99.6701L633.571 98.7397C609.038 95.2574 594.393 98.0411 568.865 97.3493L563.724 97.1952C554.752 96.9676 546.418 96.8153 537.407 96.1086C536.341 96.9605 535.391 97.9485 534.581 99.0474C532.617 101.657 532.784 100.345 531.486 102.496C528.095 107.99 525.751 114.065 524.574 120.413C523.571 121.629 522.917 123.093 522.681 124.651L521.048 129.341C520.688 130.146 512.86 166.476 512.719 168.766C512.662 172.591 513.521 176.374 515.225 179.8Z" fill="white"/>
</g>
<defs>
<clipPath id="clip0_1149_3305">
<rect width="772" height="479" fill="white"/>
</clipPath>
</defs>
</svg>
