<svg width="782" height="743" viewBox="0 0 782 743" fill="none" xmlns="http://www.w3.org/2000/svg">
<path fill-rule="evenodd" clip-rule="evenodd" d="M64.4276 474.333C78.9811 470.626 82.701 494.554 68.3851 496.224C65.4951 496.719 62.5268 496.052 60.1258 494.369C57.7247 492.686 56.0851 490.124 55.5635 487.239C55.0419 484.353 55.6805 481.379 57.3405 478.962C59.0004 476.545 61.5474 474.882 64.4276 474.333ZM539.07 378.229C555.565 371.399 565.333 395.424 549.068 402.021C547.49 402.817 545.757 403.26 543.991 403.318C542.224 403.376 540.466 403.048 538.839 402.357C537.212 401.666 535.755 400.629 534.57 399.318C533.385 398.006 532.5 396.452 531.977 394.764C529.124 386.011 532.358 381.028 539.07 378.229ZM698.192 344.038C700.711 343.337 703.394 343.516 705.798 344.544C708.203 345.573 710.185 347.389 711.419 349.695C711.918 350.999 712.156 352.388 712.118 353.784C712.08 355.18 711.768 356.555 711.198 357.83C710.628 359.105 709.813 360.255 708.798 361.215C707.784 362.175 706.59 362.925 705.285 363.423C690.461 368.395 688.113 347.979 698.262 344.069L698.192 344.038ZM646.794 344.266C634.572 346.703 620.703 350.758 608.829 352.511L588.765 355.857C580.385 357.406 574.604 356.336 566.07 356.725C529.76 346.595 508.576 369.563 480.201 375.245C464.932 378.297 449.665 380.214 435.208 384.552L412.565 388.216C390.442 390.458 368.793 396.073 348.37 404.867C341.105 406.835 333.73 408.366 326.282 409.451C311.247 412.355 268.177 420.084 259.692 423.561C249.944 427.608 223.546 425.856 210.106 427.539C191.138 428.434 178.267 438.06 161.844 443.788C145.421 449.517 149.085 450.061 135.55 450.736C126.143 451.197 116.075 455.396 107.928 455.201C98.6475 463.28 61.7638 458.103 47.3647 466.542L40.5023 470.618C35.4342 475.286 27.0099 475.429 22.4873 481.979C17.9648 488.529 20.8653 501.126 26.7124 504.494C36.2398 509.969 68.5981 509.007 78.9819 504.571C86.0447 501.551 91.6337 497.41 99.28 494.777C129.055 484.552 150.589 487.787 180.972 487.581C158.793 464.817 195.236 442.112 200.842 467.554C203.255 478.421 200.507 481.563 196.53 487.642C202.778 487.138 208.821 485.175 214.172 481.912C221.434 476.754 223.185 479.511 231.859 477.21C238.331 475.607 242.053 472.354 248.044 469.947C253.204 467.799 258.983 466.432 264.735 464.464C276.793 460.231 283.696 455.123 297.824 451.898C309.759 449.164 322.225 447.213 333.943 443.836C346.88 440.079 358.476 439.042 371.444 435.971C384.411 432.9 395.047 430.72 406.987 427.315C420.52 423.447 433.363 424.227 445.747 420.769C473.503 413.088 493.398 406.642 521.317 407.436C535.201 407.504 549.048 405.98 562.585 402.892C579.193 398.255 569.54 395.035 596.187 391.059C617.271 387.875 650.594 377.136 669.589 374.867C686.788 372.762 737.872 383.485 729.958 347.222C726.055 329.346 715.377 328.987 704.347 328.849L699.531 330.226C698.288 330.469 697.022 330.576 695.678 330.857C693.376 331.378 691.111 332.05 688.897 332.869C664.515 341.932 669.854 338.351 646.864 344.297L646.794 344.266Z" fill="#623C2D"/>
<path fill-rule="evenodd" clip-rule="evenodd" d="M210.005 427.664C223.375 425.949 249.89 427.628 259.591 423.686C268.077 420.209 311.146 412.48 326.181 409.576C333.629 408.491 341.005 406.96 348.269 404.992C368.692 396.198 390.342 390.583 412.465 388.341L435.107 384.677C449.619 380.406 464.816 378.457 480.1 375.37C508.475 369.688 529.66 346.72 565.969 356.849C566.262 348.578 562.798 339.216 556.244 336.583C543.348 331.409 493.253 342.638 478.305 344.782C463.357 346.927 444.441 350.995 429.736 354.76C417.676 357.775 396.562 366.575 384.877 367.152C367.593 368.145 350.418 370.546 333.524 374.332C305.668 379.7 294.639 379.184 268.688 383.765C250.455 386.962 239.146 384.724 230.135 387.967C213.758 393.968 211.625 412.003 210.005 427.664Z" fill="#835B3B"/>
<path fill-rule="evenodd" clip-rule="evenodd" d="M40.3925 470.779L47.2548 466.703C61.6539 458.264 121.756 461.967 131.021 453.923L137.943 445.294C145.537 443.435 119.352 446.567 119.627 437.111C120.07 419.664 125.543 404.591 87.1509 418.401C55.5397 429.822 62.22 419.194 44.0088 443.407C36.301 453.701 41.9457 463.071 40.3925 470.779Z" fill="#835B3B"/>
<path fill-rule="evenodd" clip-rule="evenodd" d="M646.859 344.296C669.801 338.455 664.51 341.931 688.677 333.066C690.891 332.247 693.156 331.574 695.458 331.054C696.802 330.772 698.068 330.666 699.311 330.423L704.127 329.046C698.21 327.621 702.403 330.46 700.343 324.54C696.036 311.987 690.106 313.413 666.275 315.034C650.664 316.125 640.188 327.536 646.859 344.296Z" fill="#835B3B"/>
<path fill-rule="evenodd" clip-rule="evenodd" d="M64.4306 474.334C61.5504 474.883 59.0034 476.547 57.3435 478.964C55.6836 481.381 55.045 484.355 55.5666 487.24C56.0882 490.126 57.7278 492.688 60.1288 494.371C62.5299 496.054 65.4981 496.72 68.3881 496.226C82.7041 494.555 78.9841 470.628 64.4306 474.334ZM698.195 344.039C688.061 347.914 690.359 368.35 705.219 363.393C706.523 362.895 707.717 362.145 708.731 361.186C709.746 360.226 710.561 359.076 711.131 357.801C711.701 356.526 712.013 355.151 712.051 353.755C712.089 352.359 711.851 350.969 711.352 349.665C710.118 347.36 708.136 345.543 705.731 344.515C703.327 343.486 700.644 343.308 698.125 344.008L698.195 344.039ZM539.073 378.231C532.361 381.03 529.127 386.013 531.98 394.765C532.503 396.454 533.388 398.008 534.573 399.319C535.758 400.631 537.215 401.668 538.842 402.359C540.469 403.05 542.227 403.377 543.994 403.319C545.76 403.261 547.493 402.819 549.071 402.023C565.336 395.426 555.599 371.33 539.073 378.231ZM180.861 487.742C187.41 490.668 190.732 488.875 196.42 487.803C200.397 481.724 203.145 478.582 200.731 467.715C195.125 442.273 158.683 464.978 180.861 487.742Z" fill="#592E28"/>
<path fill-rule="evenodd" clip-rule="evenodd" d="M226.769 389.109L227.36 389.667C232.069 384.158 235.377 377.594 237.001 370.531C238.095 364.886 238.419 347.891 234.28 345.496C233.154 348.017 231.207 351.811 230.259 354.496C228.558 360.374 229.208 368.226 227.971 371.749C222.537 380.244 223.953 381.213 226.629 389.046L226.769 389.109ZM88.0401 382.544L88.0467 381.118C87.9245 380.285 87.7452 379.461 87.5102 378.652C86.8559 376.637 87.2426 378.028 86.4043 376.519C84.6151 373.283 85.7816 364.184 85.8589 360.437C86.1963 356.518 86.2143 352.578 85.9128 348.656C85.0696 345.322 84.5081 341.924 84.2343 338.496L83.8141 338.308C80.5028 340.736 78.5827 356.977 78.5173 362.577C78.4306 366.72 79.3515 370.822 81.201 374.531C82.5021 377.723 84.784 380.42 87.7174 382.231C87.7174 382.231 87.9626 382.341 88.1027 382.403L88.0401 382.544ZM125.358 423.33C128.76 424.178 128.931 424.17 130.691 426.343C132.851 429.03 133.739 427.326 135.444 429.81C139.806 429.449 143.729 428.849 140.597 423.164C138.539 422.035 133.774 421.418 132.801 418.799C131.22 419.149 129.782 419.972 128.68 421.159C127.369 422.212 126.543 422.557 125.295 423.47L125.358 423.33ZM165.485 424.914C166.239 427.268 165.723 426.449 167.8 427.629C170.293 427.1 172.851 426.954 175.388 427.196C178.133 427.54 179.801 429.168 181.633 428.264C178.625 425.029 179.192 421.88 174.166 420.433C173.074 421.653 171.768 422.665 170.313 423.416C168.863 424.029 166.896 424.2 165.449 424.899L165.485 424.914ZM188.917 349.05C184.369 352.269 178.071 348.406 171.492 353.07C170.077 354.076 168.64 355.787 166.158 354.384C163.026 352.649 164.948 343.551 176.389 342.486L179.801 341.994C186.759 340.902 199.937 341.874 205.098 345.272C208.739 347.655 206.644 353.566 201.138 350.939C198.967 349.969 191.565 347.166 188.917 349.05ZM106.961 345.834C105.964 341.482 110.93 341.558 114.123 339.96C122.41 335.89 140.36 338.405 144.161 346.447C146.108 350.552 141.684 352.651 138.521 350.608C133.433 347.326 127.988 347.666 121.753 347.611C119.946 347.459 118.153 347.163 116.392 346.729C115.738 346.689 112.962 348.011 111.528 348.211C110.095 348.411 107.51 347.802 107.066 345.881L106.961 345.834ZM102.644 314.498C103.149 312.698 104.05 311.034 105.282 309.627L117.834 297.8C119.496 296.148 118.766 296.746 120.985 295.636C123.994 294.166 127.536 289.153 134.616 287.694C149.437 284.611 148.251 285.384 161.223 285.97C163.785 286.064 166.364 285.746 168.942 285.805L186.862 289.61C192.143 291.423 202.552 296.242 205.929 300.439C206.457 301.137 206.872 301.994 207.528 302.876C209.879 305.984 210.508 305.047 211.866 309.435C212.667 312.062 214.806 315.832 215.916 319.647C220.397 335.008 217.349 334.024 216.658 344.975C216.253 351.053 218.168 369.806 217.22 372.869C216.208 376.965 215.46 381.121 214.98 385.312C210.653 385.278 206.464 386.829 203.202 389.671C198.319 393.077 198.573 396.551 196.847 399.099C195.847 400.585 194.182 401.773 192.944 403.321C189.477 407.696 187.954 420.039 190.664 422.342L190.612 423.117C189.839 424.521 188.645 425.648 187.198 426.339L186.837 421.976C185.929 415.48 183.026 409.426 178.528 404.652C177.513 403.821 177.054 403.532 176.02 402.65C175.254 402.103 174.548 401.478 173.912 400.784C174.616 399.208 174.981 399.707 175.258 397.772C175.504 396.098 175.408 394.391 174.977 392.754C174.546 391.117 173.788 389.585 172.749 388.249C169.003 380.084 166.128 371.548 164.171 362.781C163.896 360.726 163.153 358.761 162.001 357.037C160.848 355.314 159.317 353.877 157.523 352.837C155.002 351.951 152.29 351.755 149.668 352.269C147.498 352.896 146.786 354.678 146.251 357.38C145.248 362.351 146.716 368.469 145.172 373.24C143.437 378.725 137.902 384.906 137.714 391.628C137.62 395.787 139.09 395.225 140.035 397.622C132.648 401.086 120.45 409.584 118.128 417.789C117.029 416.105 115.829 414.489 114.535 412.949L114.618 412.104C115.431 408.827 115.074 405.369 113.609 402.327C112.376 399.633 111.661 396.625 110.443 394.274C108.06 389.639 100.762 389.613 95.6397 385.939C95.6791 385.32 95.5682 384.701 95.3163 384.135C95.0644 383.569 94.6791 383.072 94.1933 382.688C93.5039 378.683 96.1314 367.253 96.1916 362.323C96.2056 359.094 95.6326 359.342 95.3724 356.916C95.5666 353.071 96.119 349.253 97.0224 345.511C97.1847 344.113 98.2677 333.885 98.1358 333.616C100.899 330.439 101.823 318.122 102.691 314.393L102.644 314.498Z" fill="#F4CCAD"/>
<path fill-rule="evenodd" clip-rule="evenodd" d="M140.189 397.652C149.616 392.537 149.548 403.975 157.467 399.321C159.424 398.137 163.425 395.387 166.169 396.109C168.857 397.22 171.378 398.699 173.658 400.505L173.973 400.646C174.677 399.07 175.042 399.569 175.319 397.634C175.565 395.959 175.469 394.252 175.038 392.616C174.607 390.979 173.849 389.447 172.81 388.111C169.064 379.946 166.189 371.41 164.232 362.643C163.957 360.588 163.214 358.623 162.062 356.899C160.909 355.175 159.378 353.739 157.584 352.699C155.063 351.813 152.351 351.617 149.729 352.13C147.559 352.757 146.847 354.54 146.312 357.241C145.309 362.213 146.777 368.33 145.233 373.102C143.498 378.586 137.963 384.768 137.775 391.49C137.774 395.817 139.197 395.36 140.189 397.652Z" fill="#E0B795"/>
<path fill-rule="evenodd" clip-rule="evenodd" d="M188.916 349.048C191.564 347.165 198.998 349.897 201.138 350.938C206.706 353.425 208.738 347.654 205.098 345.271C199.936 341.873 186.743 340.936 179.801 341.993L176.388 342.485C164.948 343.55 163.026 352.648 166.157 354.383C168.639 355.786 170.076 354.075 171.492 353.069C178.133 348.264 184.369 352.268 188.916 349.048Z" fill="#231F20"/>
<path fill-rule="evenodd" clip-rule="evenodd" d="M168.666 364.578C169.264 369.635 183.634 376.307 192.329 370.949C194.922 369.377 197.175 368.283 197.874 365.024C199.294 358.18 190.062 357.123 183.539 356.771C179.71 356.783 168.037 359.592 168.666 364.578Z" fill="white"/>
<path fill-rule="evenodd" clip-rule="evenodd" d="M106.958 345.834C107.402 347.755 109.232 348.362 111.421 348.164C113.61 347.965 115.735 346.688 116.284 346.681C118.045 347.116 119.838 347.411 121.645 347.564C127.881 347.619 133.326 347.279 138.414 350.56C141.681 352.65 146 350.505 144.053 346.4C140.252 338.358 122.303 335.843 114.015 339.912C111.102 341.636 105.962 341.482 106.958 345.834Z" fill="#231F20"/>
<path fill-rule="evenodd" clip-rule="evenodd" d="M132.801 418.8C133.773 421.419 138.539 422.036 140.597 423.165C144.683 423.899 148.85 424.064 152.981 423.657C157.127 422.933 161.394 423.383 165.297 424.958C166.708 424.244 168.675 424.072 170.16 423.475C171.616 422.724 172.922 421.713 174.014 420.492C167.495 416.277 160.227 418.534 152.863 416.21C147.441 414.334 136.162 414.756 132.801 418.8Z" fill="#E38D8C"/>
<path fill-rule="evenodd" clip-rule="evenodd" d="M114.106 364.363C114.558 368.43 126.778 375.023 135.787 368.965C140.809 365.622 143.62 362.34 135.91 357.593C133.031 356.218 129.788 355.8 126.655 356.399C124.056 356.667 113.624 359.988 114.106 364.363Z" fill="white"/>
<path fill-rule="evenodd" clip-rule="evenodd" d="M140.191 397.653C132.804 401.116 120.606 409.614 118.284 417.82C114.803 423.826 123.536 424.871 124.52 423.42L125.358 423.332C126.606 422.42 127.432 422.074 128.743 421.022C129.845 419.835 131.283 419.012 132.864 418.662C136.225 414.618 147.47 414.18 153.078 416.013C160.396 418.442 167.535 416.002 174.23 420.295C179.255 421.742 178.688 424.892 181.696 428.126C182.369 428.594 183.189 428.801 184.003 428.709C184.817 428.616 185.57 428.231 186.121 427.625C186.977 425.763 187.217 423.678 186.806 421.671C185.899 415.175 182.996 409.121 178.498 404.347C177.483 403.516 177.024 403.227 175.989 402.345C175.224 401.798 174.517 401.173 173.882 400.479L173.567 400.338C171.287 398.533 168.766 397.053 166.078 395.942C163.369 395.236 159.333 397.97 157.375 399.154C149.471 404.151 149.618 392.538 140.191 397.653Z" fill="#6D6E71"/>
<path fill-rule="evenodd" clip-rule="evenodd" d="M139.741 436.648C131.651 433.034 133.778 422.725 140.597 423.166C144.682 423.9 148.85 424.065 152.981 423.657C157.127 422.933 161.393 423.384 165.297 424.959C166.129 427.515 168.836 425.406 168.517 431.103C168.297 438.272 144.928 439.049 139.741 436.648Z" fill="#6D6E71"/>
<path fill-rule="evenodd" clip-rule="evenodd" d="M88.0378 382.545C89.1651 397.794 85.7563 400.347 91.1695 414.654C92.7813 418.945 93.9939 424.318 95.801 428.36C101.879 441.368 107.677 451.899 121.762 456.763C131.571 460.699 142.013 462.816 152.58 463.011C157.047 463.074 166.918 463.829 170.488 462.609C181.677 458.534 186.643 458.61 196.369 451.696C202.547 447.272 208.195 436.982 211.615 430.36C213.992 425.792 214.685 421.984 216.734 417.396C218.784 412.809 221.282 409.85 223.18 405.32C224.914 402.566 228.592 390.009 227.22 386.12C225.578 381.521 225.633 379.235 228.241 371.704C229.526 368.076 228.828 360.329 230.53 354.451C230.951 353.147 231.452 351.869 232.029 350.626C224.141 347.312 219.612 347.011 216.891 348.4C217.608 356.451 217.811 364.54 217.498 372.618C216.486 376.713 215.738 380.869 215.258 385.061C215.258 385.061 213.009 400.44 212.252 401.194C209.613 404.468 210.99 402.983 210.184 407.328C209.231 412.658 204.781 413.779 203.288 416.179C201.796 418.579 200.702 424.602 196.292 425.068C193.437 425.347 192.587 423.959 190.786 422.818C190.012 424.223 188.818 425.349 187.372 426.04L187.01 421.678C187.421 423.685 187.181 425.77 186.325 427.631C185.774 428.238 185.021 428.623 184.207 428.715C183.393 428.808 182.572 428.601 181.9 428.133C180.005 429.177 178.4 427.41 175.655 427.065C173.118 426.823 170.56 426.969 168.067 427.499L167.895 427.884C169.506 428.604 166.888 429.198 166.5 432.134C163.171 433.951 159.475 434.993 155.688 435.185C151.9 435.376 148.118 434.712 144.622 433.241C141.33 431.77 133.661 434.267 135.675 429.664C133.97 427.18 133.083 428.884 130.923 426.196C129.163 424.024 128.991 424.031 125.589 423.183L124.752 423.271C124.048 424.847 115.034 423.677 118.516 417.671C117.416 415.986 116.217 414.37 114.922 412.83C113.968 414.967 113.509 416.652 111.681 417.264C110.635 417.624 109.506 417.669 108.434 417.392C107.362 417.115 106.396 416.529 105.655 415.706C100.816 410.646 105.005 409.45 100.675 405.415C97.0785 402.086 97.4055 400.131 95.5805 395.283L101.098 387.917C103.027 387.267 97.3109 384.545 96.9269 379.668C96.543 374.791 96.5359 366.344 96.579 362.204C96.593 358.975 96.02 359.224 95.7598 356.797C95.9541 352.952 96.5065 349.134 97.4098 345.393L97.6116 343.718C94.4537 341.383 88.7566 343.039 84.4653 338.727C83.8015 341.624 85.4379 345.295 86.1445 348.51C86.446 352.432 86.428 356.372 86.0906 360.291C86.0133 364.037 84.8468 373.137 86.636 376.373C87.4743 377.882 87.0562 376.561 87.7418 378.505C87.9769 379.314 88.1562 380.138 88.2784 380.972L88.0378 382.545Z" fill="#C2C4C6"/>
<path fill-rule="evenodd" clip-rule="evenodd" d="M203.118 389.591C198.235 392.997 198.489 396.472 196.763 399.02C195.763 400.505 194.098 401.694 192.86 403.242C189.393 407.616 187.87 419.959 190.58 422.262L190.528 423.037C192.364 424.194 193.179 425.566 196.035 425.287C200.444 424.821 201.714 418.498 203.031 416.398C204.348 414.297 208.833 412.814 209.926 407.547C210.733 403.202 209.355 404.687 211.994 401.413C213.262 399.843 214.286 398.091 215.03 396.216C218.284 387.334 220.995 377.034 203.118 389.591ZM231.799 350.689C232.644 348.798 233.488 346.906 234.146 345.435C234.382 340.205 230.526 315.923 228.042 313.301C227.41 310.995 226.458 308.788 225.216 306.745C224.382 304.944 224.526 302.74 223.312 300.097C218.387 289.494 212.697 281.449 199.603 279.632C194.265 278.885 187.165 272.395 181.153 271.936C173.661 271.403 138.838 270.171 131.647 272.631L130.638 273.104C126.693 272.842 122.8 274.112 119.769 276.65C117.274 277.72 115.203 281.416 110.36 284.168C107.495 285.787 108.6 284.348 105.771 287.201C103.566 289.409 102.161 288.698 99.1394 292.641C97.2961 295.262 97.4271 293.934 96.1806 296.066C92.9072 301.635 90.6608 307.746 89.5484 314.109C88.4971 315.992 88.8897 314.361 87.6709 318.312L86.0884 322.982C85.474 324.473 84.9953 326.017 84.658 327.594C83.951 330.681 84.5839 335.753 83.8195 338.311L83.6787 338.626C87.97 342.938 93.492 341.204 96.825 343.617C97.1624 340.323 97.8492 333.614 97.8417 333.442C100.282 330.331 101.268 317.874 102.241 314.192C102.746 312.392 103.648 310.728 104.879 309.321L117.431 297.494C119.093 295.842 118.364 296.44 120.582 295.331C123.591 293.86 127.133 288.847 134.213 287.388C149.034 284.305 147.848 285.078 160.82 285.664C163.383 285.758 165.961 285.44 168.54 285.5L186.459 289.304C191.741 291.117 202.149 295.936 205.526 300.133C206.054 300.831 206.469 301.689 207.126 302.57C209.476 305.678 210.105 304.741 211.463 309.129C212.264 311.756 214.403 315.526 215.513 319.341C219.994 334.702 216.946 333.718 216.255 344.669C216.186 346.07 216.19 347.474 216.267 348.875C216.417 353.899 226.599 354.71 231.378 350.501L231.799 350.689ZM95.4593 395.479C97.3969 400.545 96.9573 402.282 100.553 405.611C104.884 409.646 100.695 410.841 105.534 415.902C106.275 416.724 107.241 417.311 108.313 417.588C109.384 417.865 110.514 417.82 111.56 417.46C113.388 416.848 113.952 415.209 114.801 413.026L114.885 412.181C115.697 408.904 115.34 405.446 113.875 402.404C112.642 399.71 111.927 396.702 110.709 394.351C109.16 391.743 106.945 389.593 104.291 388.123C95.7255 382.658 89.3896 378.315 95.4593 395.479Z" fill="#6D6E71"/>
<path fill-rule="evenodd" clip-rule="evenodd" d="M176.302 358.203C172.121 363.519 177.829 370.396 184.837 369.284C186.151 369.244 187.429 368.844 188.531 368.126C189.633 367.409 190.517 366.402 191.086 365.217C191.654 364.031 191.886 362.712 191.756 361.404C191.626 360.095 191.138 358.848 190.347 357.798C188.061 357.377 185.749 357.116 183.428 357.017C181.006 357.044 178.602 357.444 176.302 358.203Z" fill="#D9A468"/>
<path fill-rule="evenodd" clip-rule="evenodd" d="M180.429 357.232C175.594 360.533 179.369 366.001 184.246 365.239C185.151 365.186 186.019 364.861 186.735 364.306C187.452 363.75 187.983 362.991 188.259 362.128C188.536 361.265 188.545 360.338 188.284 359.47C188.024 358.602 187.507 357.833 186.801 357.264C185.644 357.125 184.492 357.073 183.425 357.016C182.422 356.999 181.419 357.072 180.429 357.232Z" fill="#231F20"/>
<path fill-rule="evenodd" clip-rule="evenodd" d="M119.156 358.889C117.869 363.65 122.907 368.547 128.973 367.476C130.192 367.454 131.384 367.116 132.434 366.496C133.484 365.876 134.355 364.994 134.962 363.937C135.57 362.88 135.893 361.684 135.901 360.464C135.909 359.245 135.601 358.045 135.007 356.98C132.394 356.112 129.609 355.891 126.891 356.337C124.204 356.812 121.598 357.671 119.156 358.889Z" fill="#D9A468"/>
<path fill-rule="evenodd" clip-rule="evenodd" d="M124.457 356.886C123.726 357.695 123.308 358.739 123.28 359.829C123.252 360.919 123.615 361.983 124.303 362.829C124.991 363.674 125.96 364.246 127.033 364.439C128.106 364.633 129.213 364.436 130.153 363.884C130.846 363.53 131.434 362.999 131.855 362.345C132.277 361.69 132.518 360.936 132.554 360.159C132.59 359.381 132.419 358.608 132.06 357.917C131.7 357.227 131.164 356.644 130.507 356.228C129.219 356.198 127.931 356.254 126.651 356.396C125.91 356.512 125.177 356.676 124.457 356.886Z" fill="#231F20"/>
<path fill-rule="evenodd" clip-rule="evenodd" d="M124.456 356.888C123.915 357.413 123.528 358.075 123.336 358.804C123.144 359.532 123.154 360.299 123.365 361.022C123.526 360.39 123.824 359.8 124.238 359.295C124.652 358.791 125.172 358.383 125.762 358.102C126.383 357.738 127.082 357.527 127.802 357.488C128.521 357.448 129.239 357.581 129.896 357.875C130.554 358.168 131.132 358.615 131.582 359.177C132.033 359.739 132.343 360.4 132.486 361.106C132.677 360.165 132.596 359.189 132.253 358.291C131.91 357.394 131.319 356.613 130.548 356.039C129.261 356.01 127.973 356.066 126.692 356.207C125.932 356.385 125.185 356.612 124.456 356.888Z" fill="#231F20"/>
<path fill-rule="evenodd" clip-rule="evenodd" d="M127.674 357.106C127.529 357.157 127.398 357.238 127.289 357.345C127.18 357.452 127.095 357.581 127.042 357.725C126.989 357.868 126.968 358.021 126.981 358.173C126.994 358.325 127.041 358.473 127.118 358.605C127.194 358.737 127.299 358.85 127.425 358.937C127.551 359.024 127.694 359.082 127.845 359.107C127.995 359.132 128.15 359.123 128.297 359.081C128.444 359.039 128.579 358.965 128.694 358.865C129.856 358.334 128.933 356.451 127.674 357.106Z" fill="white"/>
<path fill-rule="evenodd" clip-rule="evenodd" d="M182.026 358.072C181.915 358.135 181.818 358.22 181.739 358.321C181.661 358.422 181.603 358.538 181.57 358.661C181.536 358.785 181.527 358.914 181.543 359.04C181.559 359.167 181.6 359.29 181.664 359.401C181.727 359.512 181.812 359.61 181.913 359.688C182.014 359.766 182.13 359.824 182.253 359.858C182.376 359.891 182.505 359.901 182.632 359.884C182.759 359.868 182.882 359.827 182.993 359.764C184.104 359.252 183.235 357.435 182.026 358.072Z" fill="white"/>
<path fill-rule="evenodd" clip-rule="evenodd" d="M673.117 294.647L673.708 295.205C678.416 289.682 681.739 283.116 683.399 276.051C684.442 270.425 684.767 253.429 680.628 251.034C679.517 253.521 677.554 257.349 676.607 260.034C674.905 265.912 675.556 273.765 674.319 277.287C668.9 285.747 670.316 286.716 672.977 294.584L673.117 294.647ZM534.403 288.047L534.394 286.657C534.278 285.812 534.103 284.976 533.873 284.155C533.203 282.175 533.625 283.582 532.752 282.058C530.963 278.822 532.18 269.703 532.207 265.976C532.559 262.046 532.582 258.093 532.276 254.16C531.423 250.846 530.868 247.463 530.617 244.05L530.162 243.847C526.835 246.309 524.93 262.515 524.849 268.15C524.756 272.285 525.683 276.378 527.549 280.069C528.839 283.342 531.197 286.083 534.24 287.848C534.24 287.848 534.485 287.957 534.625 288.02L534.403 288.047ZM571.721 328.833C575.107 329.716 575.294 329.673 577.039 331.881C578.783 334.089 580.086 332.865 581.791 335.349C586.154 334.987 590.077 334.387 586.945 328.703C584.887 327.573 580.121 326.957 579.199 324.318C577.614 324.675 576.169 325.49 575.043 326.662C573.717 327.75 572.906 328.06 571.658 328.973L571.721 328.833ZM611.867 330.468C612.587 332.806 612.086 331.953 614.148 333.168C616.658 332.639 619.232 332.486 621.786 332.715C624.496 333.044 626.164 334.671 627.981 333.802C624.972 330.568 625.539 327.418 620.53 325.936C619.449 327.17 618.141 328.183 616.676 328.92C615.211 329.567 613.243 329.739 611.797 330.437L611.867 330.468ZM635.264 254.588C630.717 257.808 624.419 253.944 617.84 258.609C616.424 259.615 615.003 261.291 612.506 259.923C609.374 258.187 611.311 249.054 622.752 247.99L626.149 247.533C633.107 246.44 646.284 247.412 651.446 250.81C655.087 253.193 652.992 259.105 647.501 256.442C645.33 255.472 637.912 252.704 635.264 254.588ZM553.324 251.338C552.312 247.021 557.277 247.096 560.47 245.498C568.758 241.428 586.742 243.96 590.509 251.986C592.456 256.091 588.047 258.154 584.885 256.111C579.797 252.83 574.336 253.205 568.151 253.131C566.326 252.994 564.516 252.705 562.739 252.267C562.085 252.227 559.31 253.55 557.876 253.75C555.687 253.948 553.858 253.341 553.429 251.385L553.324 251.338ZM549.007 220.001C549.518 218.19 550.425 216.514 551.661 215.095L564.197 203.303C565.859 201.651 565.13 202.249 567.348 201.14C570.357 199.67 573.9 194.656 580.979 193.198C595.8 190.115 594.614 190.887 607.586 191.473C610.149 191.568 612.763 191.265 615.306 191.309L633.225 195.113C638.542 196.942 648.916 201.745 652.292 205.942C652.82 206.64 653.251 207.463 653.892 208.379C656.242 211.488 656.906 210.566 658.245 214.903C659.03 217.565 661.169 221.335 662.295 225.115C666.76 240.511 663.712 239.528 662.959 250.618C662.554 256.697 664.469 275.449 663.52 278.513C662.509 282.596 661.766 286.74 661.296 290.92C656.972 290.901 652.788 292.449 649.518 295.279C644.62 298.72 644.874 302.195 643.148 304.742C642.148 306.228 640.483 307.417 639.245 308.964C635.813 313.355 634.27 325.647 636.965 327.985L636.913 328.76C636.139 330.165 634.946 331.291 633.499 331.982L633.137 327.62C632.242 321.12 629.337 315.062 624.828 310.296C623.813 309.464 623.39 309.191 622.336 308.258C621.561 307.731 620.848 307.117 620.213 306.427C620.933 304.816 621.282 305.351 621.558 303.416C621.804 301.741 621.709 300.034 621.278 298.397C620.846 296.761 620.088 295.228 619.049 293.892C615.302 285.737 612.439 277.205 610.507 268.44C610.219 266.383 609.468 264.417 608.31 262.692C607.152 260.967 605.618 259.527 603.823 258.48C601.305 257.584 598.59 257.387 595.969 257.912C593.814 258.504 593.121 260.337 592.551 263.023C591.584 268.01 593.033 274.077 591.489 278.849C589.737 284.368 584.218 290.515 584.05 297.287C583.921 301.431 585.39 300.869 586.387 303.247C578.949 306.73 566.75 315.227 564.464 323.448C563.366 321.749 562.154 320.127 560.836 318.593L560.919 317.748C561.731 314.47 561.374 311.013 559.91 307.97C558.676 305.277 557.962 302.269 556.743 299.918C554.361 295.283 547.063 295.257 541.94 291.582C541.987 290.959 541.882 290.334 541.632 289.762C541.383 289.189 540.998 288.686 540.51 288.296C539.805 284.326 542.467 272.912 542.508 267.931C542.427 266.115 542.147 264.314 541.673 262.559C541.873 258.703 542.43 254.873 543.339 251.12C543.485 249.757 544.584 239.493 544.436 239.259C547.247 235.977 548.17 223.661 549.038 219.931L549.007 220.001Z" fill="#F4CCAD"/>
<path fill-rule="evenodd" clip-rule="evenodd" d="M586.592 303.172C595.968 298.077 595.915 309.48 603.818 304.861C605.776 303.677 609.777 300.927 612.521 301.649C615.218 302.743 617.741 304.224 620.01 306.045L620.325 306.186C621.045 304.575 621.394 305.109 621.671 303.174C621.917 301.499 621.821 299.792 621.39 298.156C620.959 296.519 620.201 294.987 619.161 293.651C615.415 285.495 612.551 276.963 610.619 268.198C610.331 266.141 609.58 264.176 608.422 262.45C607.265 260.725 605.73 259.285 603.936 258.239C601.417 257.342 598.703 257.146 596.081 257.671C593.926 258.262 593.234 260.095 592.664 262.781C591.696 267.769 593.145 273.835 591.601 278.607C589.85 284.126 584.331 290.273 584.162 297.045C584.126 301.357 585.627 300.725 586.592 303.172Z" fill="#E0B795"/>
<path fill-rule="evenodd" clip-rule="evenodd" d="M635.267 254.591C637.915 252.707 645.349 255.44 647.504 256.445C652.995 259.108 655.09 253.196 651.449 250.813C646.287 247.415 633.11 246.443 626.152 247.536L622.755 247.993C611.314 249.057 609.377 258.19 612.509 259.925C615.006 261.293 616.427 259.618 617.843 258.612C624.485 253.807 630.704 257.846 635.267 254.591Z" fill="#231F20"/>
<path fill-rule="evenodd" clip-rule="evenodd" d="M615.008 270.116C615.606 275.172 629.976 281.844 638.671 276.487C641.248 274.949 643.517 273.82 644.217 270.562C645.62 263.753 636.326 262.835 629.881 262.309C626.053 262.321 614.394 265.095 615.008 270.116Z" fill="white"/>
<path fill-rule="evenodd" clip-rule="evenodd" d="M553.328 251.34C553.756 253.296 555.586 253.903 557.775 253.705C559.313 253.552 562.089 252.229 562.638 252.223C564.415 252.66 566.225 252.949 568.05 253.086C574.234 253.16 579.695 252.785 584.783 256.066C588.051 258.156 592.354 256.046 590.407 251.941C586.641 243.915 568.657 241.384 560.369 245.453C557.281 247.099 552.456 247.085 553.328 251.34Z" fill="#231F20"/>
<path fill-rule="evenodd" clip-rule="evenodd" d="M579.203 324.322C580.125 326.961 584.891 327.578 586.949 328.707C591.094 329.479 595.328 329.659 599.523 329.242C603.67 328.52 607.935 328.97 611.839 330.543C613.216 329.813 615.183 329.642 616.718 329.025C618.183 328.288 619.492 327.275 620.572 326.042C613.862 321.784 606.785 324.083 599.405 321.795C593.793 319.876 582.498 320.333 579.203 324.322Z" fill="#E38D8C"/>
<path fill-rule="evenodd" clip-rule="evenodd" d="M560.487 269.918C560.904 273.969 573.124 280.563 582.132 274.505C587.155 271.161 589.966 267.879 582.256 263.133C579.388 261.763 576.156 261.35 573.035 261.954C570.437 262.222 559.986 265.493 560.487 269.918Z" fill="white"/>
<path fill-rule="evenodd" clip-rule="evenodd" d="M586.595 303.172C579.157 306.655 566.958 315.153 564.672 323.374C561.155 329.365 569.924 330.425 570.873 328.959L571.726 328.836C572.974 327.923 573.785 327.613 575.111 326.525C576.237 325.353 577.682 324.538 579.267 324.181C582.578 320.156 593.857 319.734 599.431 321.552C606.764 323.946 613.888 321.541 620.598 325.799C625.607 327.281 625.04 330.43 628.049 333.665C628.724 334.125 629.542 334.327 630.354 334.235C631.166 334.143 631.918 333.763 632.474 333.163C633.34 331.305 633.581 329.216 633.159 327.21C632.264 320.71 629.359 314.652 624.85 309.886C623.835 309.054 623.411 308.781 622.358 307.848C621.582 307.321 620.87 306.707 620.235 306.017L619.92 305.877C617.65 304.055 615.127 302.575 612.431 301.481C609.722 300.774 605.685 303.509 603.728 304.693C595.972 309.546 595.971 298.076 586.595 303.172Z" fill="#6D6E71"/>
<path fill-rule="evenodd" clip-rule="evenodd" d="M586.093 342.189C578.003 338.574 580.13 328.266 586.948 328.707C591.094 329.479 595.327 329.659 599.523 329.242C603.669 328.52 607.935 328.97 611.839 330.543C612.637 333.084 615.344 330.974 615.025 336.671C614.649 343.813 591.28 344.59 586.093 342.189Z" fill="#6D6E71"/>
<path fill-rule="evenodd" clip-rule="evenodd" d="M534.401 288.049C535.528 303.298 532.104 305.886 537.533 320.158C539.129 324.484 540.357 329.822 542.164 333.864C548.226 346.907 554.025 357.438 568.032 362.477C577.842 366.419 588.293 368.525 598.865 368.69C603.332 368.753 613.188 369.543 616.773 368.289C627.947 364.248 632.912 364.324 642.655 357.375C648.816 352.986 654.499 342.711 657.885 336.074C660.261 331.506 660.954 327.698 663.004 323.111C665.053 318.523 667.552 315.564 669.465 310.999C671.199 308.245 674.861 295.723 673.506 291.799C672.15 287.874 671.918 284.914 674.526 277.383C675.811 273.756 675.113 266.008 676.815 260.13C677.241 258.814 677.747 257.525 678.329 256.27L678.251 256.445C670.441 252.956 665.834 252.83 663.113 254.219C663.831 262.271 664.034 270.36 663.721 278.437C662.71 282.52 661.967 286.665 661.496 290.845C661.496 290.845 659.231 306.259 658.49 306.978C655.835 310.287 657.213 308.802 656.406 313.147C655.453 318.477 651.038 319.614 649.511 321.998C647.984 324.382 646.924 330.421 642.515 330.888C639.659 331.166 638.809 329.778 637.008 328.638C636.235 330.042 635.041 331.169 633.594 331.86L633.233 327.497C633.654 329.503 633.414 331.592 632.547 333.45C631.992 334.05 631.24 334.43 630.428 334.522C629.616 334.614 628.798 334.412 628.122 333.952C626.227 334.996 624.638 333.194 621.928 332.865C619.374 332.636 616.799 332.789 614.29 333.318L614.133 333.668C615.744 334.388 613.161 334.998 612.723 337.953C609.394 339.77 605.698 340.812 601.91 341.004C598.122 341.196 594.34 340.531 590.845 339.06C587.553 337.589 579.883 340.087 581.898 335.483C580.193 332.999 579.306 334.703 577.145 332.016C574.985 329.328 575.214 329.85 571.827 328.968L570.974 329.091C570.27 330.666 561.256 329.496 564.773 323.505C563.676 321.806 562.463 320.184 561.145 318.65C560.19 320.786 559.732 322.471 557.904 323.083C556.856 323.434 555.73 323.473 554.66 323.197C553.591 322.92 552.624 322.34 551.878 321.525C547.074 316.48 551.263 315.285 546.897 311.234C543.352 307.886 543.628 305.951 541.803 301.102L547.336 293.701C549.249 293.086 543.549 290.329 543.165 285.452C542.781 280.576 542.758 272.163 542.817 267.988C542.736 266.172 542.457 264.371 541.982 262.616C542.182 258.76 542.74 254.93 543.648 251.177C543.742 250.967 543.731 250.332 543.834 249.537C540.676 247.202 534.979 248.858 530.688 244.547C530.04 247.408 531.711 251.095 532.383 254.294C532.689 258.228 532.666 262.18 532.313 266.11C532.286 269.837 531.069 278.956 532.859 282.192C533.732 283.717 533.279 282.38 533.98 284.29C534.21 285.111 534.384 285.946 534.501 286.791L534.401 288.049Z" fill="#C2C4C6"/>
<path fill-rule="evenodd" clip-rule="evenodd" d="M649.582 295.141C644.684 298.582 644.938 302.056 643.212 304.604C642.212 306.09 640.547 307.278 639.309 308.826C635.878 313.216 634.335 325.509 637.029 327.847L636.977 328.622C638.813 329.778 639.628 331.151 642.484 330.872C646.893 330.405 648.164 324.083 649.48 321.982C650.797 319.882 655.282 318.399 656.375 313.131C657.182 308.786 655.804 310.272 658.459 306.962C659.739 305.417 660.759 303.673 661.479 301.8C664.733 292.919 667.46 282.584 649.582 295.141ZM678.263 256.238C679.093 254.382 679.953 252.456 680.595 251.02C680.831 245.79 676.975 221.507 674.491 218.886C673.859 216.579 672.907 214.373 671.665 212.329C670.831 210.528 670.975 208.324 669.762 205.681C664.836 195.079 659.146 187.033 646.052 185.216C640.714 184.47 633.63 177.944 627.602 177.52C620.126 176.953 585.287 175.756 578.131 178.231L577.087 178.688C573.152 178.44 569.272 179.715 566.253 182.251C563.708 183.34 561.652 187.001 556.794 189.788C553.928 191.406 555.068 189.983 552.204 192.821C549.999 195.029 548.61 194.282 545.573 198.26C543.71 200.831 543.826 199.538 542.579 201.67C539.306 207.239 537.059 213.35 535.947 219.713C534.896 221.596 535.288 219.965 534.069 223.915L532.487 228.586C531.874 230.078 531.395 231.621 531.056 233.198C530.349 236.285 530.998 241.322 530.253 243.93L530.112 244.245C534.403 248.557 539.925 246.823 543.258 249.236C543.596 245.942 544.318 239.249 544.275 239.062C546.715 235.951 547.701 223.494 548.674 219.811C549.185 218 550.092 216.324 551.328 214.905L563.864 203.113C565.526 201.461 564.797 202.06 567.015 200.95C570.025 199.48 573.567 194.466 580.646 193.008C595.467 189.925 594.282 190.697 607.254 191.283C609.816 191.378 612.43 191.075 614.973 191.119L632.893 194.924C638.209 196.753 648.583 201.555 651.959 205.752C652.487 206.45 652.918 207.273 653.559 208.189C655.909 211.298 656.573 210.376 657.912 214.714C658.698 217.375 660.836 221.145 661.962 224.925C666.427 240.321 663.38 239.338 662.626 250.428C662.569 251.495 662.567 253.007 662.637 254.635C662.787 259.659 672.97 260.469 677.749 256.261C677.749 256.261 677.749 256.261 677.827 256.085L678.263 256.238ZM541.698 300.969C543.636 306.036 543.247 307.753 546.792 311.101C551.158 315.152 546.969 316.348 551.773 321.393C552.52 322.207 553.486 322.787 554.555 323.064C555.625 323.34 556.752 323.301 557.799 322.95C559.627 322.339 560.191 320.7 561.04 318.517L561.124 317.672C561.936 314.395 561.579 310.937 560.114 307.894C558.881 305.201 558.166 302.193 556.948 299.842C555.404 297.229 553.188 295.078 550.53 293.614C542.07 288.196 535.734 283.853 541.698 300.969Z" fill="#6D6E71"/>
<path fill-rule="evenodd" clip-rule="evenodd" d="M622.661 263.704C618.464 269.055 624.172 275.932 631.181 274.82C632.495 274.78 633.773 274.38 634.875 273.662C635.977 272.945 636.861 271.939 637.429 270.753C637.998 269.567 638.23 268.248 638.1 266.94C637.969 265.632 637.482 264.384 636.691 263.334C634.411 262.901 632.104 262.629 629.787 262.518C627.365 262.545 624.962 262.945 622.661 263.704Z" fill="#D9A468"/>
<path fill-rule="evenodd" clip-rule="evenodd" d="M626.785 262.773C621.965 266.039 625.74 271.507 630.602 270.78C631.507 270.727 632.374 270.402 633.091 269.847C633.807 269.291 634.338 268.532 634.615 267.669C634.891 266.806 634.9 265.879 634.64 265.011C634.379 264.143 633.862 263.374 633.156 262.805L629.796 262.522C628.786 262.503 627.777 262.587 626.785 262.773Z" fill="#231F20"/>
<path fill-rule="evenodd" clip-rule="evenodd" d="M565.695 264.471C564.392 269.266 569.43 274.164 575.512 273.058C576.729 273.041 577.921 272.707 578.97 272.09C580.019 271.473 580.89 270.594 581.497 269.539C582.104 268.484 582.426 267.29 582.432 266.072C582.438 264.855 582.127 263.658 581.53 262.597C578.923 261.7 576.131 261.479 573.415 261.954C570.733 262.414 568.132 263.262 565.695 264.471Z" fill="#D9A468"/>
<path fill-rule="evenodd" clip-rule="evenodd" d="M570.809 262.427C570.077 263.236 569.66 264.28 569.632 265.37C569.603 266.46 569.966 267.524 570.655 268.369C571.343 269.215 572.311 269.786 573.384 269.98C574.457 270.174 575.564 269.977 576.505 269.425C577.206 269.082 577.803 268.557 578.233 267.905C578.663 267.254 578.91 266.499 578.95 265.719C578.99 264.939 578.82 264.163 578.458 263.471C578.097 262.779 577.556 262.197 576.893 261.784C575.606 261.737 574.316 261.794 573.037 261.952C572.28 262.034 571.534 262.193 570.809 262.427Z" fill="#231F20"/>
<path fill-rule="evenodd" clip-rule="evenodd" d="M570.803 262.426C570.263 262.951 569.876 263.613 569.683 264.342C569.491 265.07 569.501 265.837 569.712 266.56C569.871 265.927 570.168 265.336 570.583 264.831C570.997 264.326 571.519 263.919 572.109 263.64C572.735 263.278 573.437 263.069 574.159 263.03C574.881 262.992 575.601 263.126 576.261 263.421C576.921 263.716 577.502 264.163 577.955 264.726C578.408 265.29 578.721 265.952 578.869 266.66C579.059 265.719 578.979 264.742 578.636 263.845C578.292 262.948 577.701 262.167 576.931 261.593C575.643 261.546 574.354 261.602 573.075 261.761C572.296 261.902 571.535 262.125 570.803 262.426Z" fill="#231F20"/>
<path fill-rule="evenodd" clip-rule="evenodd" d="M574.029 262.648C573.885 262.699 573.753 262.78 573.644 262.887C573.535 262.994 573.451 263.123 573.398 263.267C573.345 263.41 573.324 263.563 573.337 263.715C573.35 263.867 573.396 264.015 573.473 264.147C573.55 264.279 573.655 264.392 573.78 264.479C573.906 264.566 574.05 264.624 574.2 264.649C574.351 264.674 574.505 264.665 574.652 264.623C574.799 264.581 574.935 264.507 575.05 264.407C576.212 263.876 575.218 261.961 574.029 262.648Z" fill="white"/>
<path fill-rule="evenodd" clip-rule="evenodd" d="M628.382 263.613C628.271 263.676 628.173 263.761 628.095 263.862C628.016 263.963 627.959 264.079 627.925 264.202C627.891 264.326 627.882 264.455 627.898 264.582C627.915 264.708 627.955 264.831 628.019 264.942C628.082 265.053 628.167 265.151 628.268 265.229C628.369 265.307 628.485 265.365 628.608 265.399C628.732 265.433 628.861 265.442 628.988 265.425C629.115 265.409 629.237 265.368 629.348 265.305C630.459 264.793 629.59 262.976 628.382 263.613Z" fill="white"/>
<path fill-rule="evenodd" clip-rule="evenodd" d="M522.225 280.8C530.423 282.777 538.745 284.194 547.135 285.039C570.112 287.49 595.704 287.286 615.308 287.978C617.267 288.013 619.039 288.091 620.675 288.191C633.545 288.816 644.039 289.681 656.714 290.933C658.812 291.104 660.918 291.162 663.023 291.104C669.574 290.922 680.188 292.177 682.847 286.601C684.243 283.848 685.304 280.937 686.007 277.93C688.674 264.25 679.99 227.265 673.62 214.253C672.771 212.487 672.88 210.267 671.616 207.644L671.107 206.619C663.058 203.947 654.798 201.958 646.415 200.671L640.571 199.74C616.038 196.258 601.393 199.042 575.865 198.35L570.724 198.196C561.752 197.968 553.418 197.816 544.407 197.109C543.341 197.961 542.391 198.949 541.581 200.048C539.617 202.657 539.784 201.345 538.486 203.496C535.095 208.99 532.751 215.066 531.574 221.414C530.571 222.629 529.917 224.094 529.681 225.652L528.048 230.341C527.688 231.147 519.86 267.476 519.719 269.766C519.662 273.591 520.521 277.375 522.225 280.8Z" fill="white"/>
<path fill-rule="evenodd" clip-rule="evenodd" d="M74.3432 370.796C82.5311 372.819 90.8568 374.236 99.2528 375.035C122.23 377.486 147.822 377.282 167.426 377.974L172.828 378.203C185.682 378.862 196.192 379.693 208.867 380.944C210.965 381.126 213.071 381.184 215.176 381.116C221.727 380.934 232.326 382.224 234.985 376.648C236.288 373.903 237.28 371.02 237.942 368.054C240.644 354.389 231.96 317.405 225.574 304.428C224.69 302.646 224.85 300.407 223.585 297.783L223.077 296.758C215.01 294.093 206.733 292.11 198.334 290.83C196.345 290.487 194.425 290.176 192.49 289.899C168.008 286.398 153.347 289.216 127.835 288.489L122.694 288.335C113.721 288.108 105.372 287.99 96.3608 287.284C95.2741 288.113 94.3212 289.104 93.5354 290.222C91.5714 292.832 91.7219 291.555 90.3897 293.69C87.0006 299.188 84.6681 305.27 83.5123 311.624C82.4103 313.526 82.8536 311.875 81.6191 315.861L79.951 320.535C79.6068 321.306 71.763 357.67 71.6223 359.96C71.6843 363.733 72.6154 367.441 74.3432 370.796Z" fill="white"/>
<path fill-rule="evenodd" clip-rule="evenodd" d="M100.984 287.46C98.0259 294.912 95.5423 302.545 93.5484 310.311C87.2718 333.764 82.3262 361.761 83.0992 368.87C83.2639 370.288 83.4249 371.62 83.5978 372.831L81.9705 372.524C81.7856 371.434 81.6671 370.288 81.5448 369.057C80.6086 361.749 85.6444 333.457 92.003 309.915C93.9871 302.24 96.4577 294.7 99.3995 287.34L100.984 287.46ZM100.975 375.217L102.877 372.37C112.465 358.337 116.184 326.599 118.983 302.937C119.62 297.466 120.241 292.408 120.83 288.176L122.411 288.21C121.795 292.598 121.19 297.621 120.536 303.127C117.698 327.065 113.936 358.994 104.203 373.257L102.75 375.38L100.975 375.217ZM136.933 288.522C138.077 305.334 134.902 321.938 131.729 337.787C128.706 350.578 127.088 363.66 126.902 376.802L125.302 376.717C125.438 363.491 127.013 350.319 129.996 337.433C132.909 321.51 136.088 304.991 135.092 288.414L136.688 288.413L136.933 288.522ZM147.982 377.481C153.507 370.287 156.293 357.751 157.681 344.676C158.864 331.874 159.279 319.012 158.923 306.161C158.829 300.447 158.758 294.87 158.903 290.313L158.997 288.129L160.575 288.077L160.469 290.383C160.355 294.869 160.216 300.352 160.485 306.144C160.84 319.057 160.439 331.98 159.285 344.847C157.796 357.583 155.175 369.939 149.926 377.551L147.982 377.481ZM188.629 289.226L189.298 291.961C190.626 297.587 191.28 303.352 191.247 309.132C190.802 315.487 189.836 321.694 188.889 327.95C187.658 335.195 186.807 342.499 186.339 349.833C186.172 353.498 185.142 362.952 183.937 371.572C183.601 374.111 183.226 376.548 182.86 378.779L181.275 378.659C181.642 376.428 182.013 373.905 182.364 371.332C183.553 362.746 184.588 353.378 184.774 349.764C185.232 342.373 186.081 335.011 187.317 327.71C188.263 321.453 189.214 315.282 189.646 309.047C189.682 303.416 189.045 297.801 187.751 292.32L186.939 289.059L188.629 289.226ZM205.176 380.641C207.869 365.963 209.519 338.385 210.644 320.067C211.078 313.077 211.417 307.43 211.699 304.448L212.641 294.534L212.733 293.482L214.278 293.879C214.184 294.089 214.075 294.334 214.21 294.689C213.944 297.259 213.599 300.759 213.268 304.602C212.97 307.62 212.648 313.232 212.229 320.187C211.147 338.314 209.536 365.616 206.726 380.745L205.192 380.606L205.176 380.641ZM235.78 338.186C234.895 342.706 233.835 347.526 232.774 352.345C230.581 362.331 228.346 372.507 227.403 380.824L225.813 380.996C226.749 372.508 229.012 362.176 231.232 352.034C232.576 345.829 233.924 339.709 235.021 334.15L235.78 338.186Z" fill="#A93A3A"/>
</svg>
