<svg width="881" height="537" viewBox="0 0 881 537" fill="none" xmlns="http://www.w3.org/2000/svg">
<path d="M446.147 117.528C463.885 117.967 481.21 122.218 498.812 124.434C516.684 127.169 534.078 132.465 552.129 134.722C570.983 136.808 590.045 136.882 608.848 139.686C622.873 142.06 636.663 145.916 650.001 151.192C650.001 151.192 650.001 151.192 650.068 151.373C649.891 151.707 649.771 152.071 649.715 152.449C649.593 153.657 649.94 154.879 650.68 155.849C651.42 156.818 652.493 157.456 653.665 157.624C657.471 159.188 661.192 160.949 665.054 162.452C673.788 166.486 683.597 167.656 691.91 172.585C706.43 179.925 718.254 191.301 733.108 197.942C750.913 206.504 769.655 212.787 786.604 223.308C804.548 236.428 814.37 257.799 829.809 273.649C839.483 283.14 852.618 288.108 860.027 299.584C868.436 311.103 877.259 330.29 869.675 343.652C867.082 346.685 864.277 349.517 861.282 352.127C850.77 358.376 832.337 356.794 820.36 355.515C805.98 354.132 792.984 357.59 778.551 358.53C770.365 358.987 762.901 356.049 754.769 355.581C743.672 355.62 732.567 354.589 721.598 352.5C713.36 350.766 705.033 349.604 696.675 349.023C695.148 348.718 693.608 348.501 692.062 348.372C687.339 347.388 682.555 346.819 677.762 346.671C674.825 346.187 673.289 347.368 674.814 350.018C675.118 350.542 675.547 350.977 676.06 351.28C676.573 351.584 677.15 351.743 677.734 351.743C678.495 352.378 679.457 352.689 680.417 352.61C683.445 352.485 686.422 352.543 689.404 352.723C691.948 353.308 694.464 354.032 696.94 354.893C706.385 359.068 715.587 363.837 724.492 369.173L712.011 367.38C700.254 365.581 688.404 364.747 676.572 364.886C653.129 366.939 629.847 370.314 606.829 374.996C573.065 382.421 540.078 393.141 506.758 402.955C492.858 406.397 478.668 408.609 464.34 409.568C453.406 410.376 442.462 408.8 431.629 409.241L430.724 408.709L429.584 408.716L426.001 408.51C425.95 406.224 425.898 403.939 425.881 401.64C425.644 391.234 425.455 380.851 425.322 370.406C425.304 363.17 425.342 355.872 425.206 348.638C425.255 338.044 425.047 327.503 424.895 316.9C424.811 311.952 424.644 306.992 424.456 302.082C424.268 297.172 424.157 292.151 423.79 287.183C422.398 268.737 421.189 250.251 420.163 231.725C419.746 195.623 419.143 159.549 419.3 123.4C421.071 122.75 422.772 122.125 424.578 121.461C425.518 120.929 426.538 120.555 427.599 120.351C428.233 120.077 428.882 119.839 429.543 119.637C430.081 119.297 430.684 119.076 431.314 118.987C434.565 118.067 437.921 117.552 441.312 117.453L441.486 117.389C442.957 117.425 444.593 117.482 446.147 117.528Z" fill="#AACC9A"/>
<path d="M445.758 420.109C462.837 421.463 479.157 419.948 495.937 419.97C512.927 419.633 529.215 417.349 546.424 417.383C564.425 417.621 582.816 419.371 600.7 419.07C614.011 418.636 626.957 417.08 639.331 414.428C639.331 414.428 639.331 414.428 639.378 414.299C639.176 414.035 639.026 413.754 638.935 413.467C638.703 412.559 638.922 411.685 639.545 411.035C640.168 410.386 641.143 410.014 642.258 410.001C645.784 409.2 649.209 408.245 652.794 407.496C660.842 405.329 670.199 405.389 677.756 402.518C691.075 398.445 701.411 391.121 715.119 387.598C731.494 382.93 748.989 380.041 764.352 373.837C780.428 365.798 787.885 350.866 801.286 340.564C809.724 334.435 821.932 331.991 827.996 324.175C835.022 316.422 841.721 303.016 833.136 292.38C830.345 289.883 827.37 287.515 824.232 285.295C813.494 279.661 795.852 279.089 784.412 278.904C770.664 278.569 757.793 274.772 743.773 272.707C735.828 271.593 728.903 273.066 721.097 272.644C710.383 271.564 699.762 271.278 689.372 271.789C681.585 272.296 673.658 272.37 665.646 272.01C664.201 272.092 662.735 272.107 661.255 272.056C656.79 272.339 652.226 272.308 647.614 271.964C644.825 272.046 643.23 271.023 644.452 269.201C644.695 268.841 645.068 268.558 645.535 268.382C646.001 268.206 646.543 268.142 647.106 268.197C647.781 267.798 648.68 267.659 649.614 267.808C652.548 268.187 655.416 268.426 658.278 268.575C660.678 268.382 663.037 268.082 665.346 267.678C674.067 265.474 682.497 262.805 690.587 259.688L678.71 259.837C667.533 260.059 656.174 259.556 644.741 258.332C621.918 254.588 599.126 249.878 576.466 244.224C543.174 235.514 510.319 224.434 477.229 213.994C463.487 210.123 449.581 207.137 435.661 205.068C425.031 203.434 414.617 203.567 404.119 202.214L403.296 202.523L402.195 202.409L398.756 202.223C398.923 203.915 399.09 205.606 399.291 207.311C400.048 215.012 400.848 222.701 401.709 230.441C402.377 235.81 403.105 241.231 403.659 246.587C404.709 254.455 405.507 262.259 406.364 270.115C406.752 273.78 407.06 277.445 407.344 281.072C407.627 284.698 407.996 288.415 408.112 292.067C408.516 305.627 409.099 319.234 409.863 332.887C412.88 359.643 415.714 386.362 419.289 413.208C421.06 413.858 422.761 414.483 424.567 415.147C425.525 415.631 426.544 416.005 427.587 416.257C428.226 416.52 428.875 416.759 429.532 416.971C430.083 417.274 430.686 417.495 431.303 417.622C434.528 418.612 437.816 419.312 441.098 419.707L441.272 419.77C442.688 419.883 444.263 419.996 445.758 420.109Z" fill="#AACC9A"/>
<path fill-rule="evenodd" clip-rule="evenodd" d="M543.37 260.588L534.8 280.427L186.726 350.269C163.257 334.158 140.819 315.873 119.588 295.557C112.655 288.709 105.794 281.674 98.9163 274.621C80.6967 255.94 62.3588 237.137 42.2664 221.36C36.6812 224.317 31.2533 227.815 25.8428 231.374C24.9233 231.807 23.9268 232.611 22.9129 233.428C21.1312 234.864 19.2958 236.344 17.7303 235.937C17.313 235.812 16.9246 235.578 16.5898 235.25C16.2549 234.922 15.9807 234.506 15.7847 234.03C12.2157 228.055 32.383 217.398 41.5148 212.573C43.3128 211.623 44.6829 210.899 45.3599 210.481C62.8109 202.584 79.9808 193.142 97.2806 183.628C98.8795 182.749 100.48 181.869 102.081 180.99C168.159 143.251 238.581 111.151 312.693 100.825C366.132 94.1218 413.309 92.681 459.006 114.489C459.267 114.577 459.529 114.663 459.792 114.748C460.501 114.98 461.215 115.213 461.914 115.492L462.964 116.35C463.392 116.712 463.82 117.073 464.274 117.408C465.027 118.002 465.769 118.585 466.511 119.167C468.498 120.727 470.478 122.28 472.634 124.035C475.594 126.446 478.57 129.18 481.291 131.685C482.47 132.771 483.66 133.836 484.85 134.9C486.404 136.291 487.957 137.681 489.484 139.115C491.333 140.944 493.204 142.693 495.081 144.446C496.55 145.819 498.023 147.195 499.491 148.616C502.973 151.887 506.596 154.918 510.346 157.698C513.327 159.857 516.415 161.785 519.593 163.473C524.41 166.086 529.383 168.25 534.351 170.396C539.736 172.849 545.176 174.959 550.734 176.789C555.564 178.432 560.536 179.435 565.574 179.783C569.695 180.007 573.834 179.925 577.969 179.537C576.472 182.964 574.815 186.61 573.325 189.715C571.835 192.821 570.367 195.929 568.948 199.013C567.529 202.096 566.167 205.067 564.806 208.273C564.156 209.803 563.471 211.317 562.781 212.842C562.025 214.512 561.263 216.196 560.534 217.931C559.139 221.25 557.594 224.935 556.364 227.978C555.133 231.02 554.021 233.781 552.693 237.136C551.807 239.372 550.901 241.606 549.995 243.84C549.541 244.958 549.088 246.076 548.637 247.194C546.853 251.627 545.098 256.092 543.37 260.588ZM534.351 170.396C534.508 170.464 534.665 170.531 534.823 170.599L534.299 170.372C534.316 170.38 534.334 170.388 534.351 170.396ZM487.715 398.288L488.074 398.146L488.357 398.085L487.715 398.288Z" fill="#9D9B36"/>
<path d="M483.194 152.994C486.085 153.258 488.896 154.087 491.468 155.433C493.333 155.976 495.051 156.937 496.489 158.243C504.694 161.517 513.086 164.3 521.622 166.578C525.357 167.374 529.109 168.114 532.863 168.854C548.201 171.878 563.562 174.907 577.864 181.796C587.142 185.857 595.948 190.926 604.735 195.984C611.286 199.755 617.827 203.52 624.545 206.857C630.837 209.321 637.381 211.082 644.06 212.108C649.055 213.29 653.995 215.309 664.873 221.466L695.733 239.412L622.792 272.624L609.001 252C608.799 252.032 608.594 252.028 608.394 251.99C607.989 252.218 607.529 252.33 607.065 252.312C605.853 252.171 604.651 251.95 603.468 251.653C596.988 250.894 590.574 249.659 584.276 247.96C571.397 245.241 559.21 239.942 546.986 234.626C539.676 231.448 533.841 230.967 524.861 225.622C515.881 220.276 481.42 191.713 481.42 191.713L380.201 152.553C419.584 151.324 438.934 146.07 483.194 152.994Z" fill="#0DA2AF"/>
<path d="M644.146 226.921C644.393 223.186 639.938 224.075 637.84 222.921C631.192 219.953 626.495 211.907 618.694 211.61C615.383 211.237 612.784 211.825 609.656 211.589C605.633 210.87 601.786 209.387 598.321 207.22C597.955 207.055 597.558 206.97 597.157 206.969C596.755 206.968 596.358 207.051 595.991 207.214C595.624 207.377 595.295 207.615 595.026 207.913C594.757 208.211 594.554 208.562 594.429 208.943C594.146 209.726 594.141 210.583 594.416 211.369C594.69 212.156 595.227 212.823 595.936 213.26C599.029 214.94 602.316 216.236 605.724 217.116C610.813 218.804 616.136 216.562 621.155 218.113C625.556 219.572 628.758 223.496 632.77 225.781C635.484 227.424 638.501 228.502 641.641 228.952C642.243 229.015 642.844 228.836 643.314 228.455C643.784 228.074 644.083 227.522 644.146 226.921Z" fill="white"/>
<path d="M611.679 234.623C612.341 233.201 610.725 232.551 610.013 231.704C604.439 227.108 597.715 226.442 591.115 225.055C586.497 223.38 582.119 221.107 578.092 218.293C575.352 217.003 567.213 212.548 565.926 217.35C565.723 218.098 565.804 218.894 566.151 219.586C566.499 220.279 567.089 220.819 567.81 221.104C574.8 223.041 579.769 228.886 586.267 231.5C593.844 234.661 602.123 232.942 609.881 234.866C609.987 235.022 610.134 235.145 610.306 235.221C610.478 235.298 610.668 235.325 610.855 235.3C611.041 235.275 611.217 235.198 611.363 235.078C611.508 234.959 611.618 234.801 611.679 234.623Z" fill="white"/>
<path d="M572.656 200.271C568.386 194.161 560.655 194.917 554.877 191.627C550.036 188.12 544.908 185.028 539.548 182.383C535.892 180.989 531.961 180.47 528.068 180.865C527.605 180.915 527.161 181.079 526.777 181.344C526.393 181.609 526.082 181.966 525.872 182.382C525.662 182.798 525.559 183.26 525.574 183.726C525.589 184.192 525.72 184.647 525.956 185.05C527.563 187.338 530.734 186.635 533.038 187.399C546.388 191.101 548.853 200.009 564.832 199.928C566.851 200.079 568.832 200.556 570.699 201.339C571.103 201.566 571.546 201.713 572.005 201.772C572.161 201.737 572.306 201.666 572.428 201.564C572.551 201.462 572.648 201.333 572.711 201.187C572.775 201.04 572.803 200.881 572.793 200.722C572.783 200.563 572.737 200.408 572.656 200.271Z" fill="white"/>
</svg>
