<svg width="873" height="384" viewBox="0 0 873 384" fill="none" xmlns="http://www.w3.org/2000/svg">
<path fill-rule="evenodd" clip-rule="evenodd" d="M480.453 58.6182C469.066 56.7145 457.695 54.8134 446.149 54.5283C445.631 54.5128 445.105 54.4962 444.578 54.4795C443.523 54.4462 442.468 54.4129 441.487 54.3892L441.314 54.4529C437.923 54.5523 434.567 55.067 431.315 55.9863C430.685 56.0759 430.083 56.2972 429.545 56.6369C428.884 56.8386 428.235 57.0771 427.6 57.3513C426.539 57.5546 425.52 57.9291 424.579 58.4611L419.302 60.4002C419.185 87.1381 419.485 113.836 419.818 140.534C419.383 140.506 418.948 140.478 418.514 140.45C413.715 140.141 408.927 139.833 404.121 139.214L403.298 139.523L402.197 139.409L398.758 139.223C398.924 140.914 399.091 142.606 399.293 144.31C400.049 152.012 400.85 159.701 401.711 167.441C401.874 168.753 402.041 170.068 402.207 171.385C402.724 175.455 403.241 179.539 403.66 183.587C404.52 190.027 405.21 196.423 405.903 202.841C406.056 204.264 406.21 205.688 406.366 207.114C406.753 210.779 407.062 214.445 407.345 218.071C407.413 218.94 407.486 219.813 407.559 220.689C407.79 223.474 408.025 226.289 408.113 229.067C408.517 242.627 409.101 256.233 409.865 269.886C410.46 275.166 411.048 280.443 411.636 285.721C414.028 307.191 416.42 328.659 419.29 350.208L424.568 352.147C425.526 352.631 426.545 353.005 427.589 353.256C428.227 353.52 428.876 353.758 429.533 353.971C430.085 354.274 430.687 354.495 431.304 354.621C434.529 355.612 437.817 356.312 441.1 356.706L441.273 356.77C442.219 356.845 443.234 356.921 444.25 356.996C444.756 357.033 445.262 357.071 445.76 357.108C456.877 357.99 467.672 357.656 478.483 357.321C484.28 357.142 490.081 356.962 495.938 356.97C503.683 356.816 511.282 356.258 518.888 355.699C527.969 355.032 537.061 354.364 546.425 354.383C554.063 354.484 561.772 354.857 569.482 355.23C579.943 355.737 590.406 356.243 600.701 356.07C614.013 355.636 626.958 354.08 639.333 351.427L639.38 351.299C639.177 351.035 639.027 350.753 638.937 350.467C638.705 349.559 638.924 348.685 639.547 348.035C640.169 347.386 641.145 347.014 642.26 347C643.748 346.663 645.218 346.297 646.689 345.931C648.705 345.431 650.723 344.929 652.796 344.496C656.264 343.562 659.975 343.041 663.681 342.522C668.574 341.836 673.457 341.152 677.757 339.518C683.93 337.63 689.463 335.044 694.987 332.462C701.382 329.472 707.766 326.488 715.12 324.598C720.829 322.97 726.673 321.559 732.516 320.149C743.434 317.513 754.346 314.878 764.353 310.836C772.375 306.825 778.251 301.098 783.79 295.085C787.007 294.756 790.167 294.343 793.303 293.932C802.254 292.762 811.015 291.616 820.361 292.515C832.338 293.794 850.771 295.375 861.283 289.126C864.278 286.517 867.083 283.685 869.677 280.652C877.26 267.289 868.438 248.103 860.028 236.583C855.567 229.673 849.029 225.122 842.42 220.522C838.055 217.484 833.659 214.424 829.81 210.649C823.55 204.222 818.213 196.887 812.884 189.563C805.07 178.824 797.273 168.108 786.606 160.308C775.565 153.454 763.764 148.399 751.956 143.341C745.637 140.634 739.316 137.927 733.109 134.942C725.14 131.379 718.042 126.453 710.933 121.518C704.791 117.255 698.641 112.987 691.912 109.584C687.181 106.78 681.966 105.192 676.74 103.601C672.783 102.396 668.82 101.19 665.056 99.4513C662.824 98.5828 660.639 97.6281 658.457 96.6749C656.864 95.9789 655.273 95.2837 653.667 94.6235C652.495 94.4562 651.421 93.8182 650.681 92.8487C649.941 91.8793 649.594 90.6572 649.716 89.4493C649.773 89.0704 649.892 88.7063 650.07 88.373L650.003 88.1917C636.665 82.9159 622.874 79.0603 608.85 76.6858C598.025 75.0719 587.115 74.3622 576.208 73.6528C568.169 73.1298 560.131 72.607 552.13 71.7222C542.308 70.494 532.679 68.3657 523.063 66.24C515.007 64.4594 506.96 62.6806 498.814 61.4342C492.67 60.6607 486.559 59.6391 480.453 58.6182Z" fill="#AACC9A"/>
<path fill-rule="evenodd" clip-rule="evenodd" d="M534.351 107.396C534.508 107.464 534.665 107.531 534.823 107.599L534.299 107.372C534.316 107.38 534.334 107.388 534.351 107.396ZM487.715 335.288L488.074 335.146L488.357 335.085L487.715 335.288Z" fill="#9D9B36"/>
<path fill-rule="evenodd" clip-rule="evenodd" d="M472.328 349.52C472.278 349.676 472.218 349.827 472.147 349.971C473.241 349.635 474.411 349.218 475.369 348.84L472.328 349.52ZM487.715 335.288L488.074 335.146L488.357 335.085L487.715 335.288Z" fill="#9D9B36"/>
<path fill-rule="evenodd" clip-rule="evenodd" d="M534.8 217.427L543.37 197.588C545.098 193.092 546.853 188.627 548.637 184.194C549.088 183.076 549.541 181.958 549.995 180.84C550.901 178.606 551.807 176.372 552.693 174.136C554.021 170.781 555.133 168.02 556.364 164.978C557.594 161.935 559.139 158.25 560.534 154.931C561.262 153.198 562.023 151.517 562.777 149.849L562.781 149.842C563.471 148.317 564.156 146.803 564.806 145.273C566.167 142.067 567.529 139.096 568.948 136.013C570.367 132.929 571.835 129.821 573.325 126.715C574.815 123.61 576.472 119.964 577.969 116.537C573.834 116.925 569.695 117.007 565.574 116.783C560.536 116.435 555.564 115.432 550.734 113.789C545.176 111.959 539.736 109.849 534.351 107.396C529.383 105.25 524.41 103.086 519.593 100.473C516.415 98.7855 513.327 96.8571 510.346 94.6981C506.596 91.9184 502.973 88.8868 499.491 85.6157C498.023 84.1955 496.551 82.82 495.082 81.4478L495.081 81.4464C493.204 79.6927 491.333 77.9444 489.484 76.1154C487.957 74.6811 486.404 73.2912 484.85 71.9002C483.66 70.8358 482.47 69.7708 481.291 68.6848C478.57 66.1797 475.594 63.4461 472.634 61.0355C470.478 59.2797 468.498 57.7266 466.511 56.1668L466.494 56.1537C465.758 55.5763 465.021 54.9979 464.274 54.4078C463.82 54.0731 463.392 53.7116 462.964 53.3501L461.914 52.4918C461.215 52.2134 460.501 51.98 459.792 51.7485L459.789 51.7475C459.527 51.662 459.266 51.5767 459.006 51.4895C413.309 29.681 366.132 31.1218 312.693 37.8247C238.581 48.1513 168.159 80.2513 102.081 117.99C100.48 118.869 98.8795 119.749 97.2806 120.628C79.9808 130.142 62.8109 139.584 45.3599 147.481C44.6829 147.899 43.3128 148.623 41.5148 149.573C32.383 154.398 12.2157 165.055 15.7847 171.03C15.9807 171.506 16.2549 171.922 16.5898 172.25C16.9246 172.578 17.313 172.812 17.7303 172.937C19.2958 173.344 21.1312 171.864 22.9129 170.428C23.9268 169.611 24.9233 168.807 25.8428 168.374C31.2533 164.815 36.6813 161.317 42.2664 158.36C62.3588 174.137 80.6967 192.94 98.9163 211.621L98.9186 211.624C105.796 218.675 112.656 225.709 119.588 232.557C140.819 252.873 163.257 271.158 186.726 287.269C210.389 303.54 236.386 312.868 261.024 326.365C267.18 329.659 273.251 333.354 279.195 337.184C284.574 338.914 289.907 340.874 295.252 342.718C301.719 344.9 308.376 346.282 314.983 347.951C322.756 349.976 330.64 351.396 338.592 352.203C343.486 353.324 348.459 353.954 353.465 354.089C359.746 356.78 366.089 359.302 372.466 361.71C389.824 367.449 407.764 370.469 425.893 370.705C433.008 370.399 440.121 369.629 447.206 368.398C456.332 366.327 465.445 363.407 474.534 360.251C477.902 359.029 481.215 357.552 484.457 355.828C485.928 352.194 487.441 348.593 488.929 345.019C490.417 341.446 492.203 337.403 493.895 333.614L492.009 334.286C495.299 325.998 498.523 317.675 501.79 309.385C503.853 304.111 505.889 298.864 507.88 293.612C507.912 293.264 507.945 292.916 508.161 292.586C508.783 290.603 509.383 288.617 509.983 286.632L509.987 286.617L513.31 275.76C514.287 272.46 515.508 269.271 516.524 266.062L521.261 252.413C523.376 246.326 525.821 240.415 528.131 234.462C530.441 228.509 532.378 222.843 534.8 217.427ZM472.328 349.52C472.278 349.676 472.218 349.827 472.147 349.971C473.241 349.635 474.411 349.218 475.369 348.84L472.328 349.52ZM487.715 335.288L488.074 335.146L488.357 335.085L487.715 335.288Z" fill="#9D9B36"/>
<path d="M483.194 89.9937C486.085 90.258 488.896 91.0866 491.468 92.4326C493.333 92.9756 495.051 93.9367 496.489 95.2427C504.694 98.5171 513.086 101.3 521.622 103.578C525.357 104.374 529.109 105.114 532.863 105.854C548.201 108.878 563.562 111.907 577.864 118.796C587.142 122.857 595.948 127.926 604.735 132.984C611.286 136.755 617.827 140.52 624.545 143.857C630.837 146.321 637.381 148.082 644.06 149.108C649.055 150.29 653.995 152.309 664.873 158.466L695.733 176.412L622.792 209.624L609.001 189C608.799 189.032 608.594 189.028 608.394 188.99C607.989 189.218 607.529 189.33 607.065 189.312C605.853 189.171 604.651 188.95 603.468 188.653C596.988 187.894 590.574 186.659 584.276 184.96C571.397 182.241 559.21 176.942 546.986 171.626C539.676 168.448 533.841 167.967 524.861 162.622C515.881 157.276 481.42 128.713 481.42 128.713L380.201 89.5527C419.584 88.3239 438.934 83.0695 483.194 89.9937Z" fill="#0DA2AF"/>
<path fill-rule="evenodd" clip-rule="evenodd" d="M561.812 131.167C565.898 132.296 569.966 133.419 572.658 137.271C572.738 137.408 572.785 137.563 572.795 137.722C572.804 137.881 572.776 138.04 572.713 138.186C572.65 138.333 572.553 138.462 572.43 138.564C572.307 138.666 572.162 138.737 572.007 138.772C571.548 138.713 571.104 138.566 570.701 138.339C568.834 137.556 566.853 137.079 564.834 136.927C555.386 136.976 550.663 133.882 545.621 130.579C542.135 128.295 538.497 125.912 533.04 124.398C532.278 124.146 531.422 124.054 530.558 123.961C528.81 123.773 527.033 123.581 525.957 122.049C525.721 121.647 525.59 121.192 525.576 120.726C525.561 120.26 525.663 119.798 525.874 119.382C526.084 118.966 526.395 118.609 526.779 118.344C527.162 118.079 527.606 117.914 528.07 117.865C531.963 117.47 535.894 117.989 539.55 119.383C544.91 122.028 550.037 125.12 554.878 128.627C557.014 129.842 559.416 130.506 561.812 131.167ZM644.148 163.921C644.318 161.347 642.255 160.969 640.27 160.605C639.374 160.441 638.494 160.28 637.842 159.921C635.227 158.753 632.913 156.8 630.594 154.841C627.018 151.822 623.428 148.79 618.696 148.61C616.909 148.409 615.33 148.487 613.763 148.565C612.426 148.632 611.098 148.698 609.658 148.589C605.635 147.87 601.787 146.387 598.323 144.219C597.957 144.055 597.56 143.97 597.158 143.969C596.757 143.968 596.36 144.051 595.992 144.214C595.625 144.377 595.297 144.615 595.028 144.913C594.759 145.211 594.555 145.562 594.431 145.943C594.148 146.726 594.143 147.583 594.418 148.369C594.692 149.155 595.229 149.823 595.938 150.259C599.031 151.94 602.318 153.236 605.726 154.116C608.317 154.976 610.969 154.816 613.611 154.657C616.157 154.504 618.693 154.352 621.157 155.113C623.795 155.987 626.002 157.748 628.211 159.51L628.211 159.51C629.688 160.688 631.165 161.866 632.772 162.781C635.485 164.424 638.503 165.502 641.643 165.952C642.244 166.014 642.846 165.836 643.316 165.455C643.786 165.074 644.085 164.522 644.148 163.921ZM611.68 171.623C612.169 170.574 611.418 169.945 610.705 169.348C610.451 169.135 610.202 168.926 610.015 168.704C605.29 164.808 599.737 163.736 594.135 162.655L594.135 162.655C593.129 162.46 592.121 162.266 591.116 162.055C586.499 160.38 582.12 158.106 578.094 155.293C577.867 155.187 577.603 155.058 577.309 154.915L577.309 154.915C574.053 153.329 567.108 149.946 565.927 154.35C565.725 155.098 565.805 155.894 566.153 156.586C566.5 157.279 567.091 157.819 567.812 158.104C571.677 159.175 574.924 161.441 578.154 163.695C580.765 165.517 583.364 167.331 586.269 168.5C590.607 170.31 595.176 170.52 599.745 170.73C603.156 170.887 606.567 171.043 609.882 171.866C609.988 172.022 610.136 172.145 610.308 172.221C610.48 172.298 610.67 172.325 610.856 172.3C611.043 172.275 611.219 172.198 611.365 172.078C611.51 171.959 611.619 171.801 611.68 171.623Z" fill="white"/>
</svg>
