<svg width="89" height="100" viewBox="0 0 89 100" fill="none" xmlns="http://www.w3.org/2000/svg">
<path d="M14.1394 80.4023C13.6007 80.1925 13.1471 79.8096 12.85 79.3138C6.90512 68.5125 1.8478 57.0918 0.642083 44.6327C-0.487945 31.9545 1.621 19.1969 6.77112 7.55691C8.27826 5.07849 9.08209 0.188641 12.649 0.339358C14.5581 0.54031 15.613 2.36562 16.802 3.65507C20.6538 7.91838 23.9613 12.6434 26.6487 17.7218C32.223 28.2488 33.788 40.4409 31.0529 52.0344C29.8998 56.0907 28.3226 60.0142 26.3473 63.7399C30.7784 60.5421 35.7719 58.2072 41.067 56.8573C42.9183 56.4204 44.7988 56.1182 46.6937 55.953L47.2799 55.9028C55.7678 54.8498 64.34 57.0452 71.2769 62.0486C75.9852 64.8944 80.2553 68.4086 83.9537 72.4814C85.5278 74.5244 87.8388 76.6009 88.3412 79.2133C89.7981 82.0099 84.4059 86.4978 82.4131 88.0217C73.9349 94.4063 63.892 98.3865 53.3419 99.543C43.9641 100.548 34.938 96.9809 27.1008 92.292C22.3624 89.1652 18.1465 85.3109 14.6083 80.8711C14.4412 80.726 14.2846 80.5693 14.1394 80.4023Z" fill="#194128"/>
</svg>
