<svg width="39" height="25" viewBox="0 0 39 25" fill="none" xmlns="http://www.w3.org/2000/svg">
<mask id="mask0_792_3760" style="mask-type:alpha" maskUnits="userSpaceOnUse" x="1" y="1" width="37" height="22">
<path fill-rule="evenodd" clip-rule="evenodd" d="M2.07899 15.5179C3.50199 20.8804 21.2454 27.3274 32.346 17.4782C38.5024 12.0338 41.7092 7.0998 30.3661 2.22575C26.6759 0.640236 22.0498 1.28168 17.5852 2.38388C14.1002 3.27667 0.569608 9.73533 2.07899 15.5179Z" fill="white"/>
</mask>
<g mask="url(#mask0_792_3760)">
<path fill-rule="evenodd" clip-rule="evenodd" d="M2.07899 15.5179C3.50199 20.8804 21.2454 27.3274 32.346 17.4782C38.5024 12.0338 41.7092 7.0998 30.3661 2.22575C26.6759 0.640236 22.0498 1.28168 17.5852 2.38388C14.1002 3.27667 0.569608 9.73533 2.07899 15.5179Z" fill="white"/>
<path fill-rule="evenodd" clip-rule="evenodd" d="M7.87263 7.1831C7.03546 13.8247 14.7818 19.4116 22.7651 17.0092C31.8564 14.2427 32.2958 6.90064 28.9692 1.78538C26.2648 -1.31189 20.5724 -2.02194 16.8898 -0.874363C13.4371 0.228068 8.553 1.78538 7.87263 7.1831Z" fill="#D9A468"/>
<path fill-rule="evenodd" clip-rule="evenodd" d="M14.6629 3.4853C10.843 8.47598 16.9391 16.0229 23.7533 11.7782C28.2518 8.98427 26.4791 3.44003 22.799 1.44927C21.4415 0.714881 19.4124 0.996281 17.7008 1.44925C16.701 1.72576 15.3156 2.6326 14.6629 3.4853Z" fill="#231F20"/>
<path fill-rule="evenodd" clip-rule="evenodd" d="M19.1085 3.16957C18.9627 3.28143 18.8402 3.42094 18.7483 3.58009C18.6564 3.73924 18.5968 3.91491 18.5727 4.09712C18.5487 4.27933 18.5608 4.4645 18.6084 4.64203C18.6559 4.81957 18.7379 4.98599 18.8498 5.13182C18.9616 5.27765 19.1011 5.40001 19.2603 5.49193C19.4194 5.58386 19.5951 5.64355 19.7773 5.66757C19.9595 5.69159 20.1447 5.67949 20.3222 5.63196C20.4998 5.58442 20.6661 5.50238 20.812 5.39052C22.2921 4.42135 20.6699 2.05019 19.1085 3.16957Z" fill="white"/>
</g>
</svg>
