<svg width="299" height="314" viewBox="0 0 299 314" fill="none" xmlns="http://www.w3.org/2000/svg">
<path fill-rule="evenodd" clip-rule="evenodd" d="M82.4687 208.122C97.4489 209.131 92.9882 212.362 106.858 222.667C117.349 230.475 136.886 238.787 150.201 238.272C159.202 237.9 169.435 236.064 177.197 231.794C188.577 225.57 200.093 219.728 209.067 210.418C214.149 205.154 221.283 192.45 223.095 185.782C225.746 176.151 227.01 160.604 227.665 150.716C229.017 131.56 220.891 114.579 205.684 103.473C201.805 100.631 199.647 97.5883 195.628 94.6705C174.495 79.3329 143.984 73.8461 121.619 79.2683C108.593 82.4392 96.9932 89.0316 88.0831 99.1197C75.469 113.34 73.1926 114.36 68.9924 138.568C67.2099 148.764 68.6734 159.645 69.9309 168.55C67.1571 170.348 65.3495 172.168 63.1286 174.014C60.1719 176.546 57.5382 176.429 57.2296 181.836L58.7259 181.748C59.6551 178.852 65.9344 174.876 70.67 176.647C76.08 178.641 78.2712 182.353 80.9558 185.592C84.9105 190.285 84.0009 191.653 85.8108 198.054C86.5935 200.798 88.4677 200.88 87.1795 204.068C86.1376 206.74 84.4701 206.644 82.4459 207.965L82.4687 208.122Z" fill="#D03435"/>
<path fill-rule="evenodd" clip-rule="evenodd" d="M81.1602 207.734L82.4687 208.122C84.5424 206.811 86.1692 206.848 87.2023 204.226C88.441 201.028 86.6163 200.955 85.8336 198.211C84.0237 191.811 84.9827 190.452 80.9786 185.75C78.2851 182.56 76.0444 178.839 70.6927 176.804C65.9077 175.025 59.6778 179.009 58.7487 181.905L57.2523 181.994C54.9158 184.483 51.8915 184.552 50.0377 188.047C47.6422 192.568 48.2271 195.277 50.2916 198.558C53.5781 199.302 54.7194 199.201 56.4053 197.207C59.1225 194.02 56.8755 194.025 60.5444 192.642C61.0955 194.12 60.9172 192.556 60.7277 194.462L59.0159 201.71C58.4707 205.593 59.364 207.439 62.9522 208.492C67.2733 209.729 77.0217 210.308 81.1196 207.675L81.1602 207.734Z" fill="#530700"/>
</svg>
