<svg width="197" height="188" viewBox="0 0 197 188" fill="none" xmlns="http://www.w3.org/2000/svg">
<path fill-rule="evenodd" clip-rule="evenodd" d="M39.4687 145.122C54.4489 146.131 49.9882 149.362 63.8583 159.667C74.3487 167.475 93.8864 175.787 107.201 175.272C116.202 174.9 126.435 173.064 134.197 168.794C145.577 162.57 157.093 156.728 166.067 147.418C171.149 142.154 178.283 129.45 180.095 122.782C182.746 113.151 184.01 97.6037 184.665 87.7157C186.017 68.56 177.891 51.5795 162.684 40.4727C158.805 37.6311 156.647 34.5883 152.628 31.6705C131.495 16.3329 100.984 10.8461 78.6192 16.2683C65.5928 19.4392 53.9932 26.0316 45.0831 36.1197C32.469 50.3403 30.1926 51.3603 25.9924 75.5683C24.2099 85.764 25.6734 96.6455 26.9309 105.55C24.1571 107.348 22.3495 109.168 20.1286 111.014C17.1719 113.546 14.5382 113.429 14.2296 118.836L15.7259 118.748C16.6551 115.852 22.9344 111.876 27.67 113.647C33.08 115.641 35.2712 119.353 37.9558 122.592C41.9105 127.285 41.0009 128.653 42.8108 135.054C43.5935 137.798 45.4677 137.88 44.1795 141.068C43.1376 143.74 41.4701 143.644 39.4459 144.965L39.4687 145.122Z" fill="#D03435"/>
<path fill-rule="evenodd" clip-rule="evenodd" d="M38.1602 144.734L39.4687 145.122C41.5424 143.811 43.1692 143.848 44.2023 141.226C45.441 138.028 43.6163 137.955 42.8336 135.211C41.0237 128.811 41.9827 127.452 37.9786 122.75C35.2851 119.56 33.0444 115.839 27.6927 113.804C22.9077 112.025 16.6778 116.009 15.7487 118.905L14.2523 118.994C11.9158 121.483 8.89149 121.552 7.03773 125.047C4.64217 129.568 5.2271 132.277 7.29163 135.558C10.5781 136.302 11.7194 136.201 13.4053 134.207C16.1225 131.02 13.8755 131.025 17.5444 129.642C18.0955 131.12 17.9172 129.556 17.7277 131.462L16.0159 138.71C15.4707 142.593 16.364 144.439 19.9522 145.492C24.2733 146.729 34.0217 147.308 38.1196 144.675L38.1602 144.734Z" fill="#530700"/>
</svg>
