<svg width="42" height="27" viewBox="0 0 42 27" fill="none" xmlns="http://www.w3.org/2000/svg">
<mask id="mask0_792_3767" style="mask-type:alpha" maskUnits="userSpaceOnUse" x="0" y="2" width="41" height="23">
<path fill-rule="evenodd" clip-rule="evenodd" d="M1.12298 15.5617C2.88459 22.2723 23.4989 28.6443 34.3635 20.1012C37.6017 17.5664 40.4698 15.6603 40.693 11.3825C41.4661 1.98799 28.6852 2.14615 19.7795 2.80248C14.795 3.16787 -0.567492 9.10607 1.12298 15.5617Z" fill="white"/>
</mask>
<g mask="url(#mask0_792_3767)">
<path fill-rule="evenodd" clip-rule="evenodd" d="M1.12298 15.5617C2.88459 22.2723 23.4989 28.6443 34.3635 20.1012C37.6017 17.5664 40.4698 15.6603 40.693 11.3825C41.4661 1.98799 28.6852 2.14615 19.7795 2.80248C14.795 3.16787 -0.567492 9.10607 1.12298 15.5617Z" fill="white"/>
<path fill-rule="evenodd" clip-rule="evenodd" d="M8.41353 5.7124C3.67379 13.6183 12.6118 21.8064 21.9454 19.0889C31.8599 16.2227 31.631 7.82452 27.4253 2.71913C24.2591 2.54816 21.0848 2.5951 17.925 2.8596C14.6299 3.33048 11.4238 4.29208 8.41353 5.7124Z" fill="#D9A468"/>
<path d="M17.925 2.8596C21.0848 2.5951 24.2591 2.54816 27.4253 2.71913C27.4253 2.71913 22.5968 -2.22966 15.0755 0.437744C7.55417 3.10515 8.41353 5.7124 8.41353 5.7124C11.4238 4.29208 14.6299 3.33048 17.925 2.8596Z" fill="#D9A468"/>
<path fill-rule="evenodd" clip-rule="evenodd" d="M13.8362 3.64048C7.83404 8.9517 13.9587 15.5209 20.4248 13.6867C27.3753 11.6889 26.1459 5.3334 22.5354 2.55136C22.5354 2.55136 20.7473 1.44059 17.8015 1.79845C14.8557 2.15632 13.8362 3.64048 13.8362 3.64048Z" fill="#231F20"/>
<path fill-rule="evenodd" clip-rule="evenodd" d="M16.1726 4.47091C16.0082 4.56456 15.8657 4.69233 15.7548 4.8456C15.6438 4.99888 15.5669 5.1741 15.5293 5.35955C15.4916 5.545 15.4941 5.73639 15.5366 5.9208C15.579 6.10521 15.6604 6.27839 15.7753 6.42873C15.8902 6.57907 16.036 6.70307 16.2028 6.79242C16.3696 6.88176 16.5536 6.93439 16.7424 6.94673C16.9313 6.95908 17.1205 6.93088 17.2976 6.86402C17.4746 6.79715 17.6352 6.69318 17.7688 6.55908C19.2105 5.6886 17.6698 3.42881 16.1726 4.47091Z" fill="white"/>
</g>
</svg>
