<svg width="109" height="45" viewBox="0 0 109 45" fill="none" xmlns="http://www.w3.org/2000/svg">
<path d="M107.851 14.1564C107.84 12.2804 107.159 10.4693 105.931 9.04379C103.777 6.74322 100.303 6.58708 97.8813 6.69814C94.5248 6.76523 58.436 8.73979 54.3265 9.02245L54.0993 9.02699C54.0966 8.88919 54.0941 8.76391 54.0941 8.76391C53.8389 7.1797 53.1152 5.70665 52.015 4.53182C50.9902 3.51764 49.7447 2.75033 48.3743 2.28888C47.0039 1.82742 45.5451 1.68411 44.1101 1.86995C39.2053 2.15597 35.8914 5.61857 34.3544 7.66706L34.2315 7.83243L34.0281 7.76131C30.4467 6.67463 26.6338 6.58181 23.0025 7.4929C18.3918 8.59679 14.0869 10.708 10.4016 13.6727C3.83664 19.3183 0.548502 25.9637 1.05525 32.3703C1.20296 34.1857 1.75727 35.9453 2.67764 37.5206C3.598 39.0959 4.86118 40.4471 6.37497 41.4755C11.5731 45.1314 19.907 43.9873 23.2512 43.3064C27.0227 42.5292 85.4829 29.956 93.1483 28.2111C100.135 26.6302 106.748 24.0166 107.782 15.7369C107.844 15.2418 107.868 14.7427 107.853 14.244L107.851 14.1564Z" fill="#F47920"/>
<path d="M44.5123 13.793C46.554 13.6268 48.5289 12.6474 48.6254 10.5275C48.6854 9.11006 47.5207 7.67954 45.2855 7.63649C44.1437 7.57512 43.016 7.91247 42.0982 8.59002C41.4629 9.0706 41.0276 9.76618 40.875 10.5445C40.7591 10.9247 40.736 11.3268 40.8075 11.7176C40.8789 12.1084 41.0429 12.4767 41.286 12.7922C41.6999 13.2087 42.2106 13.5178 42.7732 13.6923C43.3358 13.8669 43.933 13.9014 44.5123 13.793Z" fill="white"/>
<path d="M103.367 15.1362C103.249 15.4604 103.065 15.757 102.827 16.0076C102.589 16.2582 102.301 16.4573 101.982 16.5926L101.73 16.5976C101.73 16.5976 101.903 15.1654 101.894 14.727C101.855 12.7726 101.335 10.7277 98.2481 11.04C96.9207 11.2489 95.7083 11.9113 94.8203 12.913C93.9322 13.9147 93.4243 15.1927 93.3841 16.5263C93.3776 16.551 93.3781 16.577 93.3856 16.6015C92.9564 17.8633 92.1829 19.5832 91.5411 19.6838C91.4796 19.6927 91.4168 19.6877 91.3575 19.6694C91.2982 19.6511 91.2437 19.6198 91.1981 19.5778C91.1336 19.5126 91.0836 19.4345 91.0514 19.3488C91.0192 19.2631 91.0056 19.1716 91.0115 19.0803C91.0583 18.5027 91.1567 17.9303 91.3055 17.3699C91.5358 16.3949 91.6849 15.4026 91.7511 14.4033C91.8923 11.9942 90.4322 11.5722 88.8703 11.7413C87.9266 11.8423 87.0451 12.2575 86.3691 12.9192L85.8393 13.569C85.8393 13.569 86.0414 12.3117 86.1119 12.0471L82.6976 12.3785L81.6724 17.2993C81.322 17.843 80.8099 18.265 80.207 18.5067L79.9799 18.5112L79.9751 18.2732C79.9475 18.0243 79.9004 17.7781 79.8341 17.5366C79.7348 16.9871 79.1801 15.1308 77.3542 15.3553C72.6316 15.9134 72.9747 21.7092 75.7718 20.8136L76.0976 20.6943L76.1046 21.0451C75.8102 23.3695 74.8508 24.6294 73.5046 24.8568C73.4051 24.8722 73.3033 24.8654 73.2067 24.837C73.1101 24.8086 73.021 24.7592 72.9459 24.6925C72.8055 24.5405 72.6976 24.3617 72.6286 24.1671C72.5596 23.9725 72.531 23.766 72.5446 23.5601C72.5218 22.4201 74.4645 12.8814 74.4645 12.8814L70.0781 13.2072C69.8935 14.0757 69.1108 17.8637 69.111 17.8762L68.9946 18.3673C68.8436 19.022 68.7385 19.4502 68.6716 19.8902L68.6733 19.9779C68.0404 21.7827 66.9062 23.773 65.9999 23.904C65.916 23.916 65.8304 23.9096 65.7492 23.8852C65.668 23.8608 65.5932 23.8191 65.53 23.763C65.458 23.6963 65.4007 23.6155 65.362 23.5256C65.3232 23.4358 65.3038 23.3388 65.305 23.2411L65.3526 22.4631C65.3526 22.4631 67.3781 13.9129 67.5183 13.3461L62.4745 13.6224L62.0765 15.1844C61.8936 14.7355 61.602 14.3384 61.2276 14.0281C60.8531 13.7179 60.4073 13.5042 59.9297 13.4059C59.4521 13.3076 58.9574 13.3278 58.4895 13.4647C58.0216 13.6016 57.5949 13.8509 57.2471 14.1906C55.1913 16.1742 54.7184 19.0412 54.4971 21.8654L54.4991 21.9657C54.1755 25.356 53.4776 27.701 51.1124 28.0992C50.6506 28.2096 50.1647 28.1619 49.7337 27.9638C50.4021 27.4794 50.9616 26.8622 51.3764 26.1513C51.5658 25.9013 51.702 25.6156 51.7766 25.3116C51.8512 25.0077 51.8628 24.6919 51.8106 24.3834C51.7583 24.0749 51.6434 23.7802 51.4728 23.5173C51.3022 23.2543 51.0795 23.0286 50.8182 22.8538C50.4056 22.6341 49.944 22.5205 49.4757 22.5235C49.0074 22.5265 48.5472 22.6461 48.1373 22.8712C47.7275 23.0963 47.381 23.4197 47.1295 23.8121C46.878 24.2044 46.7296 24.653 46.6977 25.1169C46.5687 26.0404 46.7899 26.9784 47.3184 27.7489C46.7394 28.2062 46.0641 28.5281 45.3427 28.6907C45.1162 28.7359 44.882 28.7253 44.6606 28.6598C44.4393 28.5943 44.2375 28.4759 44.0729 28.3151C43.5291 27.6366 44.1523 25.3432 44.2475 25.0531C44.2475 25.0531 47.1462 15.345 47.3108 14.7401L40.4787 15.2276C40.2888 15.8329 39.6293 18.2023 38.9283 20.397C37.5371 24.6859 33.3005 30.6108 28.7705 31.9671C26.3485 32.6798 24.454 32.6299 23.2157 31.9403C21.5306 30.9964 20.5109 28.6105 21.0237 25.2165C21.2159 23.6007 21.657 22.0237 22.3314 20.5407C25.8656 12.3113 32.1084 13.916 31.755 14.5497C31.3516 14.703 30.9626 14.8911 30.5923 15.1118C29.8899 15.5416 29.3014 16.1321 28.8762 16.834C28.451 17.536 28.2013 18.3288 28.1482 19.1461C28.1144 19.6649 28.192 20.1849 28.3758 20.6717C28.5596 21.1585 28.8455 21.6009 29.2145 21.9697C29.5867 22.2841 30.0243 22.5131 30.496 22.6401C30.9677 22.7672 31.4619 22.7893 31.9433 22.7047C33.1506 22.5796 34.2661 22.007 35.067 21.1012C35.8679 20.1954 36.2953 19.0231 36.2638 17.8183C36.2974 17.1759 36.1964 16.5335 35.967 15.9319C35.7377 15.3303 35.3852 14.7826 34.9316 14.3233C33.5158 12.9605 31.8868 12.3037 28.3188 12.5254C22.8346 12.8731 14.6 17.0858 12.5027 25.8379C12.185 27.2548 12.2296 28.7279 12.6323 30.123C13.035 31.5182 13.7831 32.7909 14.8083 33.8253C17.3756 35.9547 20.4069 36.6711 25.6979 35.5001C30.4103 34.4284 34.1935 31.0817 36.9012 27.6062C36.8965 27.6604 36.8976 27.715 36.9045 27.769C36.311 30.2874 37.3345 32.8613 41.4739 32.177C43.9229 31.6878 46.2231 30.6376 48.1914 29.11C48.8555 29.5739 49.6106 29.8935 50.4076 30.0482C51.2046 30.2029 52.0255 30.1891 52.8168 30.0077C53.7544 29.7842 54.6358 29.3717 55.406 28.7957C56.1763 28.2198 56.8191 27.4927 57.2943 26.6597C58.6294 24.6152 59.1949 20.6937 59.5059 18.5695C59.5655 17.9208 59.6923 17.2799 59.8842 16.657C59.9887 16.3462 60.2033 16.0837 60.488 15.918C61.2133 15.5776 61.6316 16.2962 61.5036 16.8376C61.3756 17.3791 60.6975 20.0872 60.6975 20.0872L60.5673 20.5159C60.0609 21.9324 59.7756 23.4173 59.7211 24.9193C59.6876 25.3946 59.7571 25.8715 59.925 26.3178C60.0929 26.7642 60.3553 27.1695 60.6943 27.5066C61.0172 27.7689 61.3981 27.9514 61.8058 28.0391C62.2136 28.1268 62.6364 28.1172 63.0398 28.0112C65.6433 27.533 67.4072 24.8408 68.2342 23.2703L68.3435 23.055L68.5139 22.7383L68.639 23.3123C69.1391 25.5958 70.9865 26.4487 73.7412 25.955C77.2754 25.3078 79.3328 23.3993 79.8748 20.2052L79.8721 20.0674L79.9983 20.0649C80.3369 19.9216 80.6591 19.7429 80.9596 19.5318L81.2209 19.3386L80.1369 24.4736L84.2233 23.665C84.2171 23.3519 85.5064 17.1224 85.5064 17.1224C85.712 16.0405 86.3399 13.9851 87.121 13.9068C87.2003 13.8957 87.2811 13.9039 87.3564 13.9308C87.4318 13.9577 87.4994 14.0024 87.5533 14.0611C87.7541 14.2778 87.8636 14.5626 87.8596 14.8571C87.8155 15.6458 87.6786 16.4266 87.4516 17.1838C87.1482 18.3759 86.9487 19.5916 86.8552 20.8177C86.7995 21.1104 86.8209 21.4124 86.9173 21.6945C87.0137 21.9766 87.1819 22.2291 87.4056 22.4276C87.6293 22.6261 87.9008 22.7639 88.1939 22.8276C88.487 22.8912 88.7917 22.8786 89.0785 22.791C90.3363 22.5653 92.0639 21.8415 93.4005 18.6064L93.4955 18.9429C93.6682 19.7482 94.1521 20.4541 94.8433 20.9089C95.5345 21.3638 96.3779 21.5313 97.1923 21.3755C98.1228 21.2338 98.9969 20.8433 99.721 20.2459C100.445 19.6486 100.992 18.867 101.303 17.9848L101.3 17.8595L101.427 17.857C101.943 17.7129 102.411 17.4361 102.785 17.0545C103.158 16.6729 103.424 16.2 103.554 15.6839C103.503 15.4977 103.44 15.3148 103.367 15.1362ZM48.5137 26.9229C47.5388 25.5137 48.3767 23.8551 49.2983 23.8618C50.2199 23.8684 50.3549 24.3044 49.9689 25.2019C49.6212 25.8775 49.1237 26.4659 48.5137 26.9229ZM76.3924 19.0215C76.2838 19.1498 76.1505 19.2551 76.0002 19.3313C75.85 19.4075 75.6858 19.453 75.5176 19.4651C75.0396 19.5499 74.9084 19.3019 74.8809 19.1896C74.8693 18.9243 74.9299 18.6608 75.0562 18.4267C75.1826 18.1926 75.3702 17.9966 75.5991 17.8593C75.6854 17.8044 75.7853 17.7743 75.8877 17.7722C75.9902 17.7702 76.0912 17.7963 76.1796 17.8477C76.2918 18.0195 76.3685 18.2118 76.405 18.4133C76.4415 18.6149 76.4373 18.8216 76.3924 19.0215ZM99.2935 16.6087C99.0915 16.4428 98.956 16.2105 98.9115 15.954C98.867 15.6974 98.9165 15.4335 99.051 15.2099C99.0916 15.1413 99.1562 15.0898 99.2324 15.0652C99.3087 15.0406 99.3914 15.0445 99.4649 15.0763C99.4715 15.5921 99.4139 16.1068 99.2935 16.6087ZM99.487 13.6597L99.4886 13.7348C99.4886 13.7348 98.0771 13.8508 98.0051 15.9326C97.9996 16.2968 98.0911 16.6559 98.2703 16.9737C98.4496 17.2914 98.7102 17.5565 99.0258 17.742L99.0314 18.0176C98.7587 18.9004 98.3994 19.8726 97.6067 20.0012C97.4926 20.0287 97.3736 20.0295 97.2592 20.0035C97.1447 19.9775 97.0379 19.9255 96.9472 19.8515C96.6649 19.619 96.5468 19.3957 96.531 18.6065C96.4932 16.7148 97.3329 11.9857 98.6687 11.8713C98.7617 11.864 98.8551 11.8786 98.9413 11.9139C99.0276 11.9492 99.1042 12.0042 99.165 12.0744C99.4756 12.5413 99.591 13.1097 99.487 13.6597Z" fill="white"/>
</svg>
