<svg width="737" height="285" viewBox="0 0 737 285" fill="none" xmlns="http://www.w3.org/2000/svg">
<path d="M733.598 273.716C719.587 273.716 706.45 268.612 692.355 268.148C684.123 267.883 675.44 267.485 667.265 268.413C662.359 268.976 656.045 269.507 651.337 271.362C645.417 273.682 639.863 278.322 634.055 280.874C623.681 285.415 614.857 282.73 604.257 281.968C588.132 280.808 574.854 282.2 560.533 272.655C546.127 263.077 529.861 268.313 513.623 268.181C494.115 268.048 475.085 271.13 455.69 270.965C436.407 270.832 417.124 270.998 397.842 270.865C388.257 270.799 379.236 271.097 369.792 273.086C357.303 275.737 343.602 273.616 330.944 273.782C323.671 273.848 316.905 272.622 309.688 271.561C299.511 270.037 289.306 271.76 279.101 271.064C261.622 269.904 245.468 263.375 227.539 265.728C204.084 268.811 182.292 281.272 158.809 284.354C152.522 285.183 146.433 285.149 140.175 284.122C127.911 282.133 114.774 283.26 102.849 279.283C85.8501 273.616 66.6519 270.633 48.9197 270.832C39.081 270.932 28.4811 269.241 18.7834 270.766C14.4701 271.429 7.8734 272.556 4.77237 276.433C4.91332 266.623 5.56172 259.531 8.88827 250.715C10.7771 245.744 11.4537 240.243 11.9047 234.94C12.1584 231.957 13.2297 230.134 13.6244 228.046C14.8648 221.683 14.4983 216.314 16.5563 210.017C18.3605 204.416 19.5163 199.743 19.1499 193.645C18.6988 186.586 16.1052 183.106 11.9047 178.201C10.0159 176.014 3.95482 171.971 2.65803 169.386C1.10752 166.27 2.37612 161.432 2.93994 158.151C3.58834 154.439 3.98302 148.672 5.11067 145.192C6.57661 140.619 10.326 137.736 11.4819 132.731C12.5531 128.124 12.7505 121.165 11.4255 116.459C7.95797 104.163 2.17877 94.9497 2.4043 81.4942C2.60164 68.6684 2.54526 55.5775 0.712834 42.8842C0.12082 38.841 0.93837 16.6692 4.77237 11.93C7.90159 8.0524 14.4701 6.92558 18.7834 6.26275C28.4811 4.73823 39.081 6.42846 48.9197 6.32903C66.6519 6.13018 85.8501 9.11293 102.849 14.7801C114.774 18.7571 127.94 17.6303 140.175 19.6188C146.433 20.6462 152.522 20.6462 158.809 19.8508C182.292 16.7686 204.084 4.30739 227.539 1.22522C245.468 -1.12783 261.622 5.40107 279.101 6.56102C289.306 7.22386 299.483 5.53364 309.688 7.05815C316.905 8.11868 323.699 9.34492 330.944 9.27863C343.574 9.14607 357.303 11.234 369.792 8.58266C379.236 6.59417 388.257 6.2959 397.842 6.36218C417.124 6.49475 436.407 6.29589 455.69 6.4616C475.085 6.59417 494.115 3.512 513.623 3.67771C529.861 3.81027 546.127 -1.42611 560.533 8.15182C574.854 17.6635 588.16 16.3047 604.257 17.4646C614.857 18.2269 623.681 20.9113 634.055 16.3709C639.863 13.819 645.445 9.17921 651.337 6.8593C656.045 5.03651 662.359 4.4731 667.265 3.9097C675.468 2.98173 684.123 3.37944 692.355 3.64457C706.479 4.10855 719.616 9.2455 733.598 9.21236C733.598 37.0845 739.49 71.7837 733.711 98.7278C732.837 102.804 730.187 109.366 727.819 112.647C725.169 116.359 719.503 117.552 719.165 122.822C718.573 131.836 727.847 134.189 730.751 140.089C734.557 147.844 729.172 160.139 728.75 167.894C728.017 181.482 731.089 194.209 731.287 207.465C731.456 219.231 732.048 229.935 733.514 241.369C734.895 252.14 733.598 262.713 733.57 273.716H733.598Z" fill="white"/>
<path d="M648.798 59.676C648.066 59.1382 647.468 58.4406 647.051 57.6372C646.634 56.8337 646.408 55.9458 646.391 55.042C646.372 54.8131 646.372 54.5831 646.391 54.3542C643.219 48.1635 650.548 41.9728 656.492 44.6518C666.556 49.3582 658.57 66.0115 648.798 59.676Z" fill="#D23F3F"/>
<path d="M687.293 201.49C686.552 201.295 685.863 200.939 685.278 200.448C684.692 199.957 684.224 199.343 683.906 198.65C683.589 197.957 683.43 197.203 683.442 196.442C683.454 195.681 683.636 194.932 683.974 194.249C682.734 188.312 690.757 183.135 695.497 187.226C701.222 192.693 694.731 203.626 687.293 201.49Z" fill="#D23F3F"/>
<path d="M576.954 57.6937C569.005 54.0734 573.089 41.1852 581.694 42.923C592.233 45.7468 587.055 61.7123 576.954 57.6937Z" fill="#D23F3F"/>
<path d="M627.209 49.8755C627.705 50.2706 628.093 50.7864 628.334 51.3738C628.575 51.9611 628.661 52.6004 628.585 53.2306C628.509 53.8608 628.272 54.4609 627.898 54.9737C627.524 55.4866 627.025 55.8951 626.448 56.1602C625.144 56.614 623.747 56.731 622.386 56.5003C623.189 57.7859 623.587 59.2829 623.53 60.7975C623.619 61.7084 623.357 62.6189 622.795 63.342C622.234 64.065 621.417 64.5456 620.512 64.6846C619.608 64.8237 618.684 64.6108 617.932 64.0897C617.179 63.5686 616.655 62.779 616.467 61.8832C615.927 59.7907 615.978 57.5897 616.613 55.5241L615.93 55.4414C613.499 55.0811 611.222 54.036 609.363 52.4284C609.08 52.219 608.844 51.9515 608.672 51.6437C608.5 51.3359 608.396 50.9949 608.366 50.6436C608.336 50.2923 608.382 49.9387 608.5 49.6064C608.618 49.2742 608.806 48.9709 609.05 48.7169C609.651 48.1938 610.427 47.9165 611.224 47.9404C612.606 47.8097 613.999 47.8157 615.38 47.9584C615.333 46.3444 615.529 44.7326 615.959 43.1765C616.172 42.5486 616.551 41.9905 617.057 41.5621C617.563 41.1337 618.176 40.8513 618.83 40.7452C619.484 40.6391 620.155 40.7133 620.771 40.9599C621.386 41.2065 621.922 41.6161 622.322 42.1448C623.722 44.3243 622.664 46.7608 621.495 48.9759C622.441 48.6037 623.47 48.4909 624.474 48.649C625.479 48.8071 626.423 49.2306 627.209 49.8755Z" fill="#D6D6D6"/>
<path d="M703.971 147.221C704.273 147.779 704.427 148.405 704.418 149.04C704.409 149.675 704.238 150.297 703.92 150.847C703.603 151.396 703.15 151.856 702.605 152.181C702.059 152.506 701.44 152.686 700.805 152.703C699.428 152.609 698.097 152.169 696.936 151.423C697.17 152.92 696.949 154.453 696.302 155.824C696.027 156.697 695.428 157.431 694.628 157.876C693.829 158.321 692.889 158.443 692.002 158.216C691.115 157.989 690.349 157.431 689.861 156.656C689.374 155.882 689.201 154.95 689.38 154.052C689.704 151.915 690.614 149.911 692.009 148.26L691.413 147.916C689.318 146.631 687.633 144.776 686.554 142.568C686.376 142.264 686.264 141.926 686.226 141.575C686.189 141.225 686.227 140.87 686.337 140.535C686.448 140.201 686.629 139.893 686.867 139.634C687.106 139.375 687.398 139.169 687.722 139.031C688.48 138.786 689.303 138.835 690.026 139.17C691.349 139.592 692.628 140.144 693.843 140.817C694.433 139.314 695.244 137.908 696.251 136.646C696.693 136.151 697.261 135.787 697.894 135.591C698.527 135.396 699.202 135.376 699.846 135.535C700.489 135.694 701.077 136.026 701.546 136.494C702.016 136.962 702.348 137.55 702.509 138.193C702.941 140.747 701.013 142.573 699.068 144.152C700.085 144.181 701.075 144.48 701.937 145.02C702.798 145.559 703.501 146.319 703.971 147.221Z" fill="#D6D6D6"/>
<path d="M684.804 47.8704C685.413 48.0516 685.964 48.3857 686.407 48.8408C686.85 49.2958 687.168 49.8567 687.333 50.4699C687.497 51.0831 687.501 51.7281 687.346 52.3435C687.19 52.9589 686.879 53.5241 686.443 53.9853C685.402 54.8926 684.15 55.5222 682.801 55.8158C684.026 56.7092 684.954 57.9496 685.465 59.3763C685.888 60.188 685.984 61.1309 685.733 62.0111C685.482 62.8913 684.903 63.6419 684.116 64.1084C683.328 64.5749 682.392 64.7219 681.499 64.5191C680.607 64.3164 679.826 63.7793 679.317 63.0183C678.036 61.2781 677.262 59.2171 677.08 57.0637L676.416 57.2418C674.026 57.8142 671.523 57.6942 669.199 56.8958C668.858 56.8074 668.54 56.6471 668.265 56.4257C667.991 56.2043 667.767 55.9268 667.608 55.6119C667.45 55.297 667.36 54.9519 667.346 54.5996C667.331 54.2473 667.392 53.8959 667.524 53.5691C667.887 52.8595 668.503 52.3127 669.251 52.0378C670.485 51.4008 671.779 50.887 673.114 50.5039C672.469 49.024 672.049 47.4558 671.868 45.8513C671.831 45.1895 671.975 44.5301 672.284 43.944C672.594 43.3578 673.057 42.8671 673.624 42.5245C674.192 42.182 674.842 42.0006 675.505 41.9999C676.168 41.9992 676.818 42.1791 677.387 42.5204C679.498 44.0205 679.426 46.6756 679.168 49.167C679.907 48.4687 680.819 47.9804 681.81 47.7524C682.8 47.5245 683.834 47.5652 684.804 47.8704Z" fill="#D6D6D6"/>
<path d="M693.79 237.866C693.426 238.386 692.936 238.805 692.365 239.083C691.794 239.36 691.161 239.486 690.528 239.45C689.894 239.413 689.28 239.215 688.745 238.874C688.209 238.533 687.77 238.06 687.47 237.501C686.935 236.229 686.73 234.842 686.875 233.469C685.642 234.351 684.173 234.843 682.658 234.88C681.755 235.027 680.829 234.822 680.072 234.307C679.316 233.793 678.785 233.007 678.589 232.113C678.393 231.219 678.548 230.284 679.02 229.5C679.493 228.717 680.248 228.144 681.131 227.9C683.185 227.23 685.385 227.142 687.486 227.646L687.526 226.959C687.733 224.511 688.633 222.172 690.12 220.216C690.311 219.92 690.564 219.668 690.86 219.477C691.156 219.286 691.49 219.16 691.839 219.108C692.188 219.057 692.543 219.08 692.882 219.177C693.221 219.274 693.536 219.442 693.805 219.67C694.365 220.237 694.69 220.994 694.716 221.791C694.934 223.162 695.015 224.552 694.96 225.94C696.567 225.792 698.188 225.885 699.768 226.217C700.408 226.39 700.989 226.734 701.449 227.211C701.908 227.689 702.228 228.283 702.375 228.93C702.522 229.576 702.49 230.25 702.283 230.88C702.076 231.51 701.7 232.071 701.198 232.503C699.111 234.037 696.613 233.135 694.328 232.107C694.759 233.028 694.937 234.047 694.842 235.059C694.747 236.072 694.384 237.041 693.79 237.866Z" fill="#D6D6D6"/>
</svg>
