<svg width="727" height="650" viewBox="0 0 727 650" fill="none" xmlns="http://www.w3.org/2000/svg">
<path fill-rule="evenodd" clip-rule="evenodd" d="M50.4237 381.332C64.9772 377.625 68.6971 401.553 54.3812 403.224C51.4912 403.718 48.5229 403.051 46.1219 401.369C43.7208 399.686 42.0812 397.123 41.5596 394.238C41.038 391.353 41.6766 388.379 43.3366 385.962C44.9965 383.545 47.5435 381.881 50.4237 381.332ZM525.066 285.229C541.561 278.398 551.329 302.423 535.064 309.021C533.486 309.817 531.754 310.259 529.987 310.317C528.22 310.375 526.462 310.047 524.835 309.357C523.208 308.666 521.752 307.628 520.566 306.317C519.381 305.006 518.496 303.452 517.973 301.763C515.12 293.01 518.354 288.028 525.066 285.229ZM684.188 251.037C686.707 250.337 689.39 250.516 691.794 251.544C694.199 252.572 696.181 254.389 697.415 256.694C697.914 257.998 698.152 259.388 698.114 260.784C698.076 262.18 697.764 263.555 697.194 264.83C696.624 266.105 695.809 267.255 694.795 268.215C693.78 269.174 692.586 269.925 691.282 270.423C676.457 275.395 674.109 254.978 684.258 251.068L684.188 251.037ZM632.79 251.265C620.568 253.703 606.699 257.758 594.825 259.511L574.762 262.856C566.381 264.406 560.6 263.336 552.066 263.724C515.757 253.594 494.572 276.563 466.197 282.245C450.928 285.296 435.661 287.214 421.204 291.552L398.562 295.216C376.439 297.458 354.789 303.073 334.366 311.866C327.102 313.835 319.726 315.365 312.278 316.45C297.243 319.354 254.174 327.084 245.688 330.561C235.94 334.608 209.542 332.855 196.102 334.539C177.134 335.433 164.263 345.059 147.84 350.788C131.417 356.516 135.081 357.061 121.546 357.736C112.139 358.197 102.072 362.395 93.9244 362.2C84.6436 370.279 47.7599 365.102 33.3608 373.541L26.4984 377.617C21.4303 382.285 13.006 382.429 8.48343 388.978C3.96085 395.528 6.86141 408.125 12.7085 411.493C22.2359 416.968 54.5942 416.006 64.9779 411.571C72.0408 408.551 77.6297 404.41 85.2761 401.776C115.051 391.552 136.585 394.787 166.968 394.581C144.789 371.817 181.232 349.111 186.838 374.554C189.251 385.421 186.503 388.562 182.527 394.642C188.774 394.137 194.817 392.175 200.169 388.912C207.43 383.754 209.181 386.511 217.855 384.21C224.327 382.606 228.049 379.354 234.04 376.947C239.2 374.799 244.979 373.431 250.731 371.464C262.789 367.23 269.692 362.122 283.82 358.898C295.755 356.163 308.221 354.213 319.939 350.835C332.876 347.078 344.473 346.042 357.44 342.97C370.407 339.899 381.043 337.719 392.983 334.315C406.516 330.446 419.359 331.227 431.743 327.769C459.499 320.088 479.394 313.641 507.313 314.435C521.197 314.504 535.044 312.979 548.581 309.892C565.189 305.254 555.536 302.034 582.183 298.059C603.267 294.875 636.59 284.135 655.585 281.866C672.784 279.761 723.868 290.484 715.954 254.222C712.051 236.346 701.373 235.986 690.343 235.848L685.527 237.225C684.284 237.468 683.018 237.575 681.674 237.857C679.372 238.377 677.107 239.049 674.894 239.869C650.511 248.931 655.85 245.351 632.86 251.296L632.79 251.265Z" fill="#623C2D"/>
<path fill-rule="evenodd" clip-rule="evenodd" d="M649.594 247.552C645.923 248.258 641.303 249.145 632.858 251.295C626.188 234.536 636.663 223.125 652.274 222.034C653.998 221.916 655.628 221.8 657.171 221.69C676.954 220.28 682.347 219.895 686.342 231.54C687.475 234.795 686.717 235.402 686.789 235.525C686.848 235.627 687.463 235.404 690.126 236.045L685.31 237.423C684.738 237.534 684.161 237.617 683.574 237.702C682.886 237.801 682.183 237.902 681.457 238.054C679.155 238.574 676.89 239.246 674.677 240.066C659.405 245.667 655.897 246.341 649.594 247.552ZM196.004 334.664C201.097 334.011 208.097 333.85 215.348 333.683L215.349 333.683C227.134 333.413 239.585 333.127 245.591 330.686C252.666 327.787 283.791 321.93 302.654 318.381C306.412 317.674 309.683 317.058 312.181 316.576C319.628 315.491 327.004 313.96 334.268 311.991C354.691 303.198 376.341 297.583 398.464 295.341L421.106 291.677C431.055 288.749 441.326 286.912 451.726 285.052C456.496 284.198 461.293 283.341 466.099 282.37C475.737 280.44 484.545 276.516 493.398 272.572C510.61 264.904 527.991 257.16 551.968 263.849C552.261 255.578 548.797 246.216 542.244 243.582C532.153 239.534 499.289 245.528 478.306 249.355L478.305 249.355C472.471 250.419 467.556 251.316 464.304 251.782C449.357 253.927 430.44 257.995 415.735 261.76C411.475 262.825 406.085 264.612 400.38 266.503C389.935 269.966 378.434 273.779 370.876 274.152C353.592 275.145 336.417 277.546 319.524 281.332C304.514 284.224 294.39 285.408 284.185 286.602L284.185 286.602L284.185 286.602C275.45 287.623 266.656 288.652 254.687 290.764C245.915 292.303 238.746 292.583 232.664 292.821C226.104 293.077 220.81 293.284 216.134 294.966C199.758 300.967 197.624 319.003 196.004 334.664ZM26.3878 377.779L33.2501 373.703C40.4667 369.473 59.1635 368.294 77.1867 367.157C95.1245 366.025 112.395 364.935 117.017 360.923L123.938 352.294C126.448 351.68 125.269 351.61 122.576 351.452C117.118 351.13 105.438 350.443 105.622 344.111C105.671 342.207 105.779 340.332 105.883 338.519C106.737 323.719 107.35 313.097 73.1462 325.401C63.2751 328.967 57.1378 330.383 52.8104 331.382C43.2798 333.582 42.5285 333.755 30.0041 350.407C24.9377 357.173 25.6403 363.54 26.2757 369.299C26.607 372.301 26.92 375.137 26.3878 377.779Z" fill="#835B3B"/>
<path fill-rule="evenodd" clip-rule="evenodd" d="M50.4267 381.334C47.5465 381.883 44.9995 383.547 43.3396 385.964C41.6796 388.381 41.0411 391.355 41.5626 394.24C42.0842 397.126 43.7239 399.688 46.1249 401.371C48.526 403.054 51.4942 403.72 54.3842 403.226C68.7001 401.555 64.9802 377.628 50.4267 381.334ZM684.191 251.039C674.057 254.914 676.355 275.35 691.215 270.393C692.519 269.895 693.713 269.145 694.728 268.186C695.742 267.226 696.557 266.076 697.127 264.801C697.697 263.526 698.009 262.151 698.047 260.755C698.085 259.359 697.848 257.969 697.348 256.665C696.114 254.36 694.132 252.543 691.727 251.515C689.323 250.486 686.64 250.308 684.121 251.008L684.191 251.039ZM525.069 285.231C518.357 288.03 515.123 293.013 517.976 301.765C518.499 303.454 519.384 305.008 520.569 306.319C521.755 307.631 523.211 308.668 524.838 309.359C526.465 310.05 528.223 310.377 529.99 310.319C531.757 310.261 533.489 309.819 535.067 309.023C551.332 302.426 541.596 278.33 525.069 285.231ZM166.858 394.742C173.406 397.668 176.728 395.875 182.416 394.803C186.393 388.724 189.141 385.582 186.728 374.715C181.122 349.273 144.679 371.978 166.858 394.742Z" fill="#592E28"/>
<path fill-rule="evenodd" clip-rule="evenodd" d="M659.113 201.646L659.704 202.205C664.412 196.682 667.735 190.115 669.395 183.05C670.438 177.424 670.763 160.429 666.624 158.034C665.513 160.52 663.551 164.349 662.603 167.034C660.901 172.912 661.552 180.764 660.315 184.287C654.896 192.747 656.312 193.716 658.973 201.584L659.113 201.646ZM520.399 195.046L520.399 194.92L520.39 193.656C520.274 192.811 520.1 191.976 519.87 191.155C519.2 189.175 519.621 190.582 518.748 189.057C516.959 185.821 518.176 176.702 518.203 172.975C518.555 169.045 518.578 165.093 518.272 161.159C517.42 157.845 516.864 154.462 516.613 151.049L516.158 150.846C512.831 153.309 510.926 169.515 510.845 175.15C510.752 179.284 511.679 183.378 513.545 187.069C514.835 190.342 517.193 193.083 520.236 194.847C520.236 194.847 520.309 194.88 520.399 194.92C520.473 194.953 520.558 194.991 520.622 195.02L520.399 195.046Z" fill="#F4CCAD"/>
<path d="M662.603 167.034C663.551 164.349 665.513 160.52 666.624 158.034L648.955 157.618C649.708 146.527 652.756 147.511 648.291 132.115C647.165 128.335 645.027 124.564 644.241 121.903C642.902 117.566 642.238 118.487 639.888 115.379C639.247 114.462 638.816 113.64 638.288 112.942C634.912 108.745 624.538 103.942 619.221 102.113L601.302 98.3084C598.759 98.2645 596.145 98.5672 593.582 98.4727C580.611 97.8868 581.796 97.114 566.975 100.197C559.896 101.656 556.354 106.669 553.344 108.139C551.126 109.249 551.855 108.651 550.193 110.303L537.657 122.095C536.421 123.514 535.514 125.189 535.003 127.001L535.034 126.931C534.166 130.66 533.243 142.977 530.433 146.258L516.158 150.846L516.613 151.049C516.864 154.462 517.42 157.845 518.272 161.159C518.578 165.093 518.555 169.045 518.203 172.975C518.176 176.702 516.959 185.821 518.748 189.057C519.621 190.582 519.2 189.175 519.87 191.155C520.1 191.976 520.274 192.811 520.39 193.656L520.399 194.92L520.622 195.02L526.506 215.258L530.433 232.936L565.195 261.5L589.819 265.5L626.496 253.25L658.973 201.584C656.312 193.716 654.896 192.747 660.315 184.287C661.552 180.764 660.901 172.912 662.603 167.034Z" fill="#F4CCAD"/>
<path fill-rule="evenodd" clip-rule="evenodd" d="M572.588 210.172C581.964 205.076 581.911 216.48 589.815 211.86C591.772 210.676 595.773 207.927 598.517 208.649C601.214 209.742 603.737 211.223 606.006 213.044L606.321 213.185C607.041 211.574 607.39 212.108 607.667 210.173C607.913 208.499 607.817 206.792 607.386 205.155C606.955 203.519 606.197 201.986 605.158 200.65C601.411 192.495 598.547 183.962 596.615 175.198C596.327 173.14 595.576 171.175 594.418 169.45C593.261 167.725 591.727 166.285 589.932 165.238C587.413 164.341 584.699 164.145 582.077 164.67C579.922 165.262 579.23 167.095 578.66 169.781C577.692 174.768 579.141 180.835 577.597 185.607C575.846 191.126 570.327 197.273 570.158 204.045C570.122 208.356 571.623 207.724 572.588 210.172Z" fill="#E0B795"/>
<path fill-rule="evenodd" clip-rule="evenodd" d="M621.267 161.59C623.915 159.707 631.349 162.439 633.504 163.444C638.995 166.107 641.09 160.195 637.449 157.813C632.287 154.414 619.11 153.443 612.152 154.535L608.755 154.992C597.314 156.057 595.377 165.19 598.509 166.925C601.006 168.293 602.427 166.617 603.843 165.611C610.485 160.806 616.704 164.845 621.267 161.59Z" fill="#231F20"/>
<path fill-rule="evenodd" clip-rule="evenodd" d="M539.324 158.34C539.752 160.295 541.582 160.903 543.771 160.704C545.309 160.552 548.085 159.229 548.634 159.222C550.411 159.66 552.221 159.949 554.046 160.085C560.231 160.16 565.691 159.785 570.779 163.066C574.047 165.156 578.35 163.045 576.403 158.941C572.637 150.914 554.653 148.383 546.365 152.453C543.277 154.098 538.452 154.085 539.324 158.34Z" fill="#231F20"/>
<path fill-rule="evenodd" clip-rule="evenodd" d="M565.199 231.322C566.121 233.96 570.887 234.577 572.945 235.707C577.09 236.479 581.324 236.659 585.519 236.241C589.666 235.519 593.932 235.97 597.836 237.542C599.212 236.813 601.179 236.641 602.715 236.025C604.179 235.288 605.488 234.275 606.568 233.041C599.858 228.783 592.781 231.083 585.401 228.794C579.789 226.875 568.494 227.332 565.199 231.322Z" fill="#E38D8C"/>
<path fill-rule="evenodd" clip-rule="evenodd" d="M572.595 210.171C565.157 213.654 552.958 222.152 550.672 230.373C547.155 236.364 555.924 237.425 556.873 235.958L557.726 235.835C558.974 234.923 559.785 234.613 561.111 233.525C562.237 232.353 563.682 231.537 565.267 231.18C568.578 227.156 579.857 226.734 585.431 228.551C592.764 230.945 599.888 228.54 606.598 232.798C611.607 234.28 611.04 237.43 614.049 240.664C614.724 241.124 615.542 241.326 616.354 241.234C617.166 241.142 617.918 240.762 618.474 240.163C619.34 238.305 619.581 236.215 619.159 234.209C618.264 227.709 615.359 221.652 610.85 216.885C609.835 216.054 609.411 215.78 608.358 214.848C607.582 214.32 606.87 213.706 606.235 213.017L605.92 212.876C603.65 211.055 601.127 209.574 598.431 208.48C595.722 207.774 591.685 210.508 589.728 211.692C581.972 216.545 581.971 205.076 572.595 210.171Z" fill="#6D6E71"/>
<path fill-rule="evenodd" clip-rule="evenodd" d="M572.093 249.188C564.003 245.574 566.13 235.265 572.948 235.707C577.094 236.479 581.327 236.659 585.523 236.241C589.669 235.519 593.935 235.97 597.839 237.542C598.637 240.083 601.344 237.974 601.025 243.671C600.649 250.813 577.28 251.589 572.093 249.188Z" fill="#6D6E71"/>
<path fill-rule="evenodd" clip-rule="evenodd" d="M520.397 195.048C521.525 210.298 518.1 212.885 523.529 227.158C525.125 231.484 526.353 236.822 528.16 240.864C534.223 253.907 540.021 264.437 554.028 269.477C563.838 273.419 574.29 275.525 584.861 275.69C589.328 275.753 599.184 276.543 602.769 275.288C613.943 271.247 618.908 271.323 628.651 264.375C634.813 259.986 640.495 249.711 643.881 243.073C646.257 238.505 646.95 234.698 649 230.11C651.049 225.522 653.548 222.563 655.461 217.999C657.195 215.245 660.857 202.723 659.502 198.798C658.146 194.874 657.914 191.913 660.523 184.382C661.807 180.755 661.109 173.007 662.811 167.13C663.237 165.813 663.743 164.524 664.325 163.269L664.247 163.444C656.437 159.955 651.83 159.83 649.109 161.219C649.827 169.27 650.03 177.359 649.717 185.436C648.706 189.519 647.963 193.664 647.493 197.844C647.493 197.844 645.227 213.259 644.486 213.978C641.831 217.287 643.209 215.802 642.402 220.147C641.449 225.477 637.035 226.613 635.507 228.998C633.98 231.382 632.92 237.42 628.511 237.887C625.656 238.166 624.805 236.778 623.004 235.637C622.231 237.041 621.037 238.168 619.59 238.859L619.229 234.496C619.651 236.503 619.41 238.592 618.543 240.45C617.988 241.049 617.236 241.43 616.424 241.522C615.612 241.614 614.794 241.412 614.118 240.952C612.223 241.996 610.634 240.193 607.924 239.865C605.37 239.636 602.795 239.789 600.286 240.317L600.129 240.668C601.74 241.387 599.157 241.998 598.719 244.953C595.39 246.769 591.694 247.812 587.906 248.004C584.119 248.195 580.336 247.531 576.841 246.06C573.549 244.589 565.879 247.086 567.894 242.483C566.189 239.999 565.302 241.703 563.142 239.015C560.981 236.328 561.21 236.85 557.823 235.967L556.97 236.09C556.266 237.666 547.252 236.496 550.769 230.505C549.672 228.806 548.459 227.183 547.141 225.649C546.187 227.785 545.728 229.471 543.9 230.083C542.852 230.433 541.726 230.473 540.656 230.196C539.587 229.92 538.62 229.339 537.874 228.525C533.07 223.48 537.259 222.285 532.893 218.234C529.348 214.885 529.624 212.95 527.799 208.102L533.332 200.701C535.246 200.085 529.545 197.329 529.161 192.452C528.777 187.575 528.755 179.163 528.813 174.988C528.733 173.172 528.453 171.37 527.978 169.615C528.178 165.759 528.736 161.93 529.644 158.176C529.738 157.966 529.727 157.331 529.83 156.537C526.672 154.202 520.975 155.858 516.684 151.546C516.036 154.407 517.707 158.095 518.379 161.294C518.685 165.227 518.662 169.18 518.309 173.11C518.283 176.837 517.065 185.956 518.855 189.192C519.728 190.716 519.275 189.379 519.976 191.289C520.206 192.11 520.38 192.946 520.497 193.79L520.397 195.048Z" fill="#C2C4C6"/>
<path fill-rule="evenodd" clip-rule="evenodd" d="M635.579 202.14C630.68 205.581 630.935 209.056 629.208 211.604C628.208 213.089 626.543 214.278 625.305 215.826C621.874 220.216 620.331 232.508 623.025 234.846L622.973 235.621C624.809 236.778 625.625 238.15 628.48 237.871C632.889 237.405 634.16 231.082 635.476 228.982C636.793 226.881 641.278 225.398 642.371 220.131C643.178 215.786 641.8 217.271 644.455 213.962C645.735 212.416 646.755 210.673 647.475 208.8C650.729 199.918 653.456 189.583 635.579 202.14ZM664.259 163.238C665.089 161.382 665.949 159.455 666.591 158.02C666.827 152.79 662.971 128.507 660.487 125.885C659.855 123.579 658.904 121.372 657.661 119.329C656.827 117.528 656.972 115.324 655.758 112.681C650.832 102.078 645.142 94.0325 632.048 92.2158C626.71 91.4694 619.626 84.944 613.598 84.5195C606.122 83.9521 571.283 82.7554 564.127 85.2303L563.083 85.6879C559.148 85.4391 555.268 86.7147 552.249 89.25C549.704 90.3395 547.648 94.0004 542.79 96.7873C539.924 98.4059 541.064 96.9826 538.2 99.8201C535.995 102.028 534.607 101.281 531.569 105.26C529.706 107.831 529.822 106.538 528.575 108.67C525.302 114.238 523.055 120.349 521.943 126.712C520.892 128.595 521.284 126.964 520.065 130.915L518.483 135.585C517.87 137.077 517.391 138.621 517.052 140.198C516.346 143.285 516.994 148.322 516.249 150.93L516.108 151.245C520.4 155.557 525.922 153.823 529.255 156.236C529.592 152.942 530.314 146.248 530.271 146.061C532.711 142.95 533.697 130.493 534.67 126.811C535.181 124.999 536.088 123.324 537.324 121.905L549.86 110.113C551.523 108.461 550.793 109.059 553.011 107.949C556.021 106.479 559.563 101.466 566.642 100.007C581.463 96.9242 580.278 97.6969 593.25 98.2827C595.812 98.3773 598.426 98.0746 600.969 98.1185L618.889 101.923C624.205 103.752 634.579 108.555 637.955 112.752C638.484 113.45 638.914 114.272 639.555 115.189C641.905 118.297 642.569 117.376 643.908 121.713C644.694 124.375 646.833 128.145 647.959 131.925C652.423 147.321 649.376 146.338 648.622 157.428C648.566 158.495 648.563 160.006 648.633 161.634C648.783 166.658 658.966 167.469 663.745 163.26C663.745 163.26 663.745 163.26 663.824 163.085L664.259 163.238ZM527.694 207.969C529.632 213.036 529.243 214.752 532.788 218.101C537.154 222.152 532.965 223.347 537.769 228.392C538.516 229.206 539.482 229.787 540.552 230.063C541.621 230.34 542.748 230.3 543.795 229.95C545.623 229.338 546.187 227.7 547.036 225.516L547.12 224.671C547.932 221.394 547.575 217.936 546.11 214.894C544.877 212.2 544.162 209.192 542.944 206.842C541.401 204.228 539.184 202.078 536.526 200.613C528.066 195.195 521.73 190.852 527.694 207.969Z" fill="#6D6E71"/>
<path fill-rule="evenodd" clip-rule="evenodd" d="M546.487 176.917C546.904 180.969 559.124 187.562 568.132 181.504C573.155 178.161 575.966 174.879 568.256 170.132C565.388 168.762 562.156 168.349 559.035 168.954C556.437 169.221 545.986 172.492 546.487 176.917Z" fill="white"/>
<path fill-rule="evenodd" clip-rule="evenodd" d="M551.691 171.47C550.389 176.266 555.427 181.163 561.508 180.057C562.725 180.04 563.917 179.707 564.966 179.09C566.015 178.473 566.886 177.594 567.493 176.539C568.1 175.484 568.422 174.289 568.428 173.072C568.434 171.855 568.123 170.657 567.526 169.596C564.919 168.699 562.127 168.478 559.411 168.954C556.729 169.414 554.128 170.261 551.691 171.47Z" fill="#D9A468"/>
<path fill-rule="evenodd" clip-rule="evenodd" d="M556.805 169.426C556.074 170.235 555.656 171.279 555.628 172.369C555.6 173.459 555.962 174.523 556.651 175.369C557.339 176.215 558.307 176.786 559.38 176.98C560.454 177.173 561.56 176.976 562.501 176.424C563.202 176.081 563.799 175.557 564.229 174.905C564.659 174.253 564.907 173.498 564.946 172.719C564.986 171.939 564.816 171.163 564.454 170.471C564.093 169.779 563.552 169.196 562.889 168.784C561.602 168.737 560.312 168.793 559.033 168.952C558.276 169.034 557.53 169.193 556.805 169.426Z" fill="#231F20"/>
<path fill-rule="evenodd" clip-rule="evenodd" d="M560.029 169.648C559.885 169.698 559.753 169.779 559.644 169.886C559.535 169.993 559.451 170.123 559.398 170.266C559.345 170.409 559.324 170.562 559.337 170.715C559.35 170.867 559.396 171.014 559.473 171.146C559.55 171.278 559.655 171.392 559.78 171.479C559.906 171.565 560.05 171.623 560.2 171.648C560.351 171.673 560.505 171.664 560.652 171.622C560.799 171.581 560.935 171.507 561.05 171.406C562.212 170.875 561.218 168.961 560.029 169.648Z" fill="white"/>
<path fill-rule="evenodd" clip-rule="evenodd" d="M601.004 177.116C601.602 182.172 615.972 188.844 624.667 183.486C627.244 181.949 629.513 180.82 630.213 177.561C631.616 170.752 622.322 169.835 615.877 169.308C612.049 169.32 600.391 172.094 601.004 177.116Z" fill="white"/>
<path fill-rule="evenodd" clip-rule="evenodd" d="M608.658 170.704C604.461 176.055 610.168 182.932 617.177 181.82C618.491 181.78 619.769 181.379 620.871 180.662C621.973 179.945 622.857 178.938 623.426 177.753C623.994 176.567 624.226 175.248 624.096 173.939C623.965 172.631 623.478 171.384 622.687 170.334C620.407 169.901 618.101 169.628 615.783 169.518C613.361 169.544 610.958 169.944 608.658 170.704Z" fill="#D9A468"/>
<path fill-rule="evenodd" clip-rule="evenodd" d="M612.781 169.773C607.961 173.039 611.736 178.506 616.598 177.78C617.503 177.727 618.37 177.402 619.087 176.846C619.803 176.291 620.334 175.532 620.611 174.668C620.887 173.805 620.896 172.879 620.636 172.01C620.375 171.142 619.858 170.373 619.152 169.805L615.792 169.522C614.782 169.502 613.773 169.587 612.781 169.773Z" fill="#231F20"/>
<path fill-rule="evenodd" clip-rule="evenodd" d="M614.378 170.612C614.267 170.676 614.169 170.76 614.091 170.862C614.013 170.963 613.955 171.078 613.921 171.202C613.887 171.325 613.878 171.454 613.894 171.581C613.911 171.708 613.952 171.831 614.015 171.942C614.078 172.053 614.163 172.15 614.264 172.229C614.366 172.307 614.481 172.365 614.605 172.398C614.728 172.432 614.857 172.441 614.984 172.425C615.111 172.409 615.233 172.368 615.344 172.304C616.455 171.792 615.586 169.976 614.378 170.612Z" fill="white"/>
<path fill-rule="evenodd" clip-rule="evenodd" d="M508.225 187.8C516.423 189.777 524.745 191.193 533.135 192.039C556.112 194.49 581.704 194.286 601.308 194.978C603.267 195.013 605.039 195.09 606.675 195.191C619.545 195.815 630.039 196.681 642.714 197.932C644.812 198.104 646.918 198.161 649.023 198.104C655.574 197.922 666.188 199.177 668.847 193.601C670.243 190.847 671.304 187.936 672.007 184.93C674.674 171.249 665.99 134.265 659.62 121.252C658.771 119.487 658.88 117.267 657.616 114.643L657.107 113.618C649.058 110.947 640.798 108.957 632.415 107.67L626.571 106.74C602.038 103.257 587.393 106.041 561.865 105.349L556.724 105.195C547.752 104.968 539.418 104.815 530.407 104.109C529.341 104.96 528.391 105.949 527.581 107.047C525.617 109.657 525.784 108.345 524.486 110.496C521.095 115.99 518.751 122.065 517.574 128.413C516.571 129.629 515.917 131.093 515.681 132.651L514.048 137.341C513.688 138.146 505.86 174.476 505.719 176.766C505.662 180.591 506.521 184.374 508.225 187.8Z" fill="white"/>
</svg>
