<svg width="123" height="122" viewBox="0 0 123 122" fill="none" xmlns="http://www.w3.org/2000/svg">
<path d="M48.325 73.1735C48.5453 73.219 48.7441 73.3365 48.8903 73.5074C51.8715 77.2657 54.5523 81.3193 55.8229 86.021C57.0786 90.8116 57.0969 95.8428 55.8759 100.642C55.4584 101.691 55.4672 103.619 54.089 103.793C53.3435 103.839 52.8204 103.207 52.2806 102.79C50.5265 101.404 48.9511 99.8058 47.5908 98.0318C44.7695 94.3546 43.3785 89.7787 43.6759 85.1535C43.8552 83.5226 44.2059 81.915 44.7221 80.3576C43.2295 81.8718 41.4652 83.0914 39.5213 83.9527C38.8394 84.2403 38.1375 84.4782 37.4213 84.6645L37.1997 84.7218C34.0116 85.6762 30.5805 85.3898 27.5947 83.9202C25.6039 83.1337 23.7378 82.0625 22.0548 80.7398C21.3184 80.0581 20.2971 79.4113 19.935 78.4417C19.1947 77.4632 20.9723 75.3918 21.638 74.6779C24.4766 71.6787 28.0714 69.5004 32.0439 68.3725C35.5764 67.3789 39.2706 68.162 42.5814 69.4526C44.602 70.3449 46.4694 71.5502 48.1147 73.024C48.1882 73.0688 48.2585 73.1188 48.325 73.1735Z" fill="#194128"/>
<path fill-rule="evenodd" clip-rule="evenodd" d="M67.8501 38.9237C63.2854 40.2544 64.2602 38.808 59.0136 37.2536C55.0438 36.0737 48.3287 35.7289 44.4253 37.3317C41.7892 38.4224 38.9457 40.0823 37.1024 42.1973C34.3957 45.2871 31.6072 48.2781 29.952 52.024C29.0138 54.1424 28.2754 58.6972 28.4625 60.8774C28.7228 64.0301 30.0394 68.7912 30.9211 71.803C32.6046 77.6468 36.8699 81.8117 42.6012 83.4592C44.0642 83.8819 45.0374 84.5517 46.5501 84.9819C54.5045 87.2423 64.1753 85.5522 70.2359 81.5048C73.7645 79.1437 76.4963 75.9204 78.0477 71.9503C80.2507 66.348 80.8166 65.7968 79.4301 58.1406C78.8502 54.9145 77.2303 51.8378 75.8869 49.3267C76.516 48.4899 76.8555 47.7521 77.3149 46.9611C77.9186 45.8865 78.7144 45.6343 78.2176 43.9928L77.7822 44.182C77.8212 45.1443 76.3866 47.0103 74.7856 46.9993C72.9597 46.9954 71.9039 46.13 70.7529 45.4589C69.0659 44.4938 69.1874 43.988 67.9524 42.2817C67.4209 41.5508 66.8546 41.7305 66.8905 40.642C66.9095 39.7342 67.4158 39.5811 67.874 38.968L67.8501 38.9237Z" fill="#D03435"/>
<path fill-rule="evenodd" clip-rule="evenodd" d="M68.2818 38.8966L67.8504 38.9236C67.3765 39.5394 66.8886 39.7054 66.8669 40.5976C66.8467 41.6834 67.3972 41.5064 67.9288 42.2373C69.1638 43.9436 69.0265 44.4522 70.7292 45.4145C71.8775 46.0699 72.949 46.9326 74.762 46.955C76.3787 46.9632 77.7975 45.1 77.7586 44.1376L78.1939 43.9485C78.6177 42.9537 79.5096 42.604 79.6804 41.3627C79.9005 39.7574 79.4317 39.0156 78.4605 38.2646C77.4022 38.4011 77.0738 38.5554 76.7895 39.332C76.3284 40.5755 76.9962 40.3296 76.0556 41.1401C75.7308 40.7607 75.9541 41.2063 75.803 40.6189L75.523 38.2773C75.2623 37.0629 74.7957 36.6114 73.6139 36.6887C72.1943 36.7915 69.2323 37.6806 68.3002 38.9096L68.2818 38.8966Z" fill="#530700"/>
<path d="M57.3524 71.3201C57.3524 71.3513 57.3446 71.4057 57.3291 71.4836C57.3291 71.5458 57.3368 71.5925 57.3524 71.6236C57.3368 71.7015 57.259 71.7559 57.119 71.7871C56.9789 71.8337 56.8232 71.8649 56.6521 71.8804C56.4964 71.9116 56.3408 71.9271 56.1851 71.9271C56.0295 71.9427 55.9206 71.9505 55.8583 71.9505L55.8116 71.9505C55.6715 71.9193 55.5704 71.896 55.5081 71.8804C55.4614 71.8649 55.4303 71.8337 55.4148 71.7871C55.3992 71.7559 55.3914 71.7092 55.3914 71.647C55.407 71.5847 55.3992 71.4913 55.3681 71.3668C55.3214 71.0244 55.298 70.6898 55.298 70.363C55.298 69.9739 55.3136 69.5926 55.3447 69.2191C55.3758 68.83 55.3914 68.4409 55.3914 68.0518C55.3914 65.9507 55.3836 63.8652 55.3681 61.7953C55.3525 59.7098 55.3369 57.6165 55.3214 55.5154C55.0724 55.531 54.8233 55.5543 54.5743 55.5854C54.3253 55.601 54.0763 55.6088 53.8273 55.6088C53.516 55.6088 53.3292 55.4765 53.267 55.2119C53.2047 54.9473 53.1736 54.6983 53.1736 54.4649C53.1736 54.138 53.197 53.8968 53.2436 53.7412C53.2903 53.5855 53.3681 53.4766 53.4771 53.4143C53.6016 53.3521 53.7572 53.3209 53.944 53.3209C54.1463 53.3209 54.3953 53.3209 54.691 53.3209C54.7689 53.3209 54.9167 53.3209 55.1346 53.3209C55.3681 53.3209 55.6015 53.3365 55.835 53.3676C56.084 53.3832 56.3097 53.4143 56.512 53.461C56.7143 53.4921 56.831 53.5388 56.8622 53.6011L56.9555 53.6711C56.9867 53.7334 57.0022 53.8112 57.0022 53.9046C57.0022 53.998 57.0022 54.0758 57.0022 54.138C57.0022 54.7294 56.9867 55.3209 56.9555 55.9123C56.94 56.4881 56.9322 57.0718 56.9322 57.6632C56.9322 58.1923 56.94 58.6904 56.9555 59.1573C56.9867 60.2934 57.01 61.4218 57.0256 62.5423C57.0411 63.6629 57.0645 64.7913 57.0956 65.9274C57.0956 66.5344 57.0956 67.1491 57.0956 67.7717C57.0956 68.3942 57.1267 69.0012 57.189 69.5926C57.2201 69.8416 57.259 70.0828 57.3057 70.3163C57.3524 70.5498 57.3758 70.791 57.3758 71.04C57.3758 71.1334 57.368 71.2268 57.3524 71.3201ZM53.874 53.9279C53.8584 53.8968 53.8506 53.8812 53.8506 53.8812L53.8506 53.9279L53.874 53.9279Z" fill="white"/>
<path fill-rule="evenodd" clip-rule="evenodd" d="M18.5925 43.7958C18.9457 43.768 19.2966 43.7171 19.6432 43.6434C20.6068 43.5657 21.572 43.7739 22.4179 44.2418C23.2639 44.7097 23.9532 45.4166 24.3995 46.2742C24.7444 46.964 24.8487 47.4533 24.1188 48.4318C23.5916 48.5588 23.0418 48.5588 22.5146 48.4318L21.7125 49.6108C21.3837 49.6108 20.8303 49.4103 20.5415 49.4264C20.0522 51.3353 19.4507 51.4075 18.2556 50.9744C17.277 52.7951 15.8493 50.8781 15.1676 50.0761C14.2853 49.0975 14.8868 47.5495 15.6007 46.0657C13.796 46.6512 12.3924 48.7205 11.2294 50.8781C9.30438 54.5918 10.5797 57.1504 11.0208 59.5727C11.4057 61.3311 12.0663 63.0175 12.9779 64.5696C13.4061 65.3852 13.894 66.168 14.4377 66.9117C15.7494 68.6173 17.4337 70.0004 19.3618 70.9554C21.29 71.9104 23.4109 72.4121 25.5625 72.422C34.3854 72.422 36.1981 69.5986 39.6951 63.0216C41.5239 59.6047 42.7511 57.6156 42.4062 53.6453C42.2195 51.8544 41.674 50.1195 40.802 48.5441C39.5668 46.0095 37.5937 43.2744 34.8746 41.9109C33.0317 40.9955 30.9968 40.5335 28.9393 40.5634C26.8458 40.6997 20.0442 42.2879 18.5925 43.7958Z" fill="#B72223"/>
<path fill-rule="evenodd" clip-rule="evenodd" d="M18.5926 43.796L18.4081 44.0687C18.0045 44.1227 17.6163 44.2587 17.2674 44.4684C16.9184 44.6781 16.616 44.9569 16.3788 45.2878C16.0259 45.4162 15.8575 45.6648 15.6329 46.0899C14.919 47.5577 14.3175 49.1057 15.1998 50.1003C15.9216 50.9024 17.3092 52.8194 18.2878 50.9986C19.4829 51.4318 20.0844 51.3596 20.5737 49.4506C20.8624 49.4506 21.4159 49.6351 21.7447 49.6351L22.5468 48.456C23.074 48.583 23.6238 48.583 24.151 48.456C24.8809 47.4775 24.7766 46.9882 24.4317 46.2984C23.9864 45.4436 23.2997 44.7384 22.4569 44.2707C21.6141 43.8029 20.6524 43.5932 19.6914 43.6676C19.3298 43.7439 18.962 43.7869 18.5926 43.796Z" fill="#520000"/>
</svg>
