<svg width="190" height="189" viewBox="0 0 190 189" fill="none" xmlns="http://www.w3.org/2000/svg">
<path d="M73.3775 112.917C73.7188 112.987 74.0268 113.169 74.2533 113.434C78.872 119.257 83.0255 125.537 84.9939 132.821C86.9394 140.243 86.9677 148.038 85.0761 155.474C84.4293 157.099 84.4428 160.086 82.3076 160.355C81.1527 160.427 80.3422 159.448 79.5059 158.801C76.7882 156.654 74.3475 154.178 72.24 151.429C67.869 145.733 65.7139 138.643 66.1747 131.477C66.4525 128.95 66.9958 126.46 67.7955 124.047C65.4831 126.393 62.7496 128.282 59.7379 129.617C58.6814 130.062 57.5941 130.431 56.4844 130.72L56.141 130.808C51.2017 132.287 45.886 131.843 41.2602 129.566C38.1758 128.348 35.2846 126.688 32.6771 124.639C31.5362 123.583 29.954 122.581 29.3929 121.079C28.246 119.563 31.0001 116.353 32.0315 115.247C36.4292 110.601 41.9986 107.226 48.1532 105.479C53.6262 103.939 59.3495 105.152 64.4789 107.152C67.6095 108.534 70.5026 110.402 73.0517 112.685C73.1656 112.755 73.2744 112.832 73.3775 112.917Z" fill="#194128"/>
<path fill-rule="evenodd" clip-rule="evenodd" d="M103.628 59.8536C96.5556 61.9154 98.0659 59.6745 89.9373 57.2662C83.787 55.4381 73.3833 54.9039 67.3357 57.3872C63.2517 59.0769 58.8462 61.6486 55.9904 64.9255C51.797 69.7124 47.4767 74.3463 44.9123 80.1499C43.4588 83.4319 42.3147 90.4887 42.6047 93.8665C43.0079 98.751 45.0477 106.127 46.4137 110.793C49.022 119.847 55.6302 126.3 64.5097 128.852C66.7763 129.507 68.284 130.545 70.6277 131.211C82.9515 134.713 97.9343 132.095 107.324 125.824C112.791 122.166 117.023 117.172 119.427 111.022C122.84 102.342 123.717 101.488 121.569 89.6263C120.67 84.6281 118.16 79.8615 116.079 75.971C117.054 74.6745 117.58 73.5315 118.291 72.306C119.227 70.6411 120.46 70.2504 119.69 67.7073L119.015 68.0003C119.076 69.4913 116.853 72.3822 114.373 72.3652C111.544 72.3591 109.908 71.0183 108.125 69.9786C105.511 68.4834 105.7 67.6998 103.786 65.0562C102.963 63.9238 102.085 64.2023 102.141 62.5159C102.17 61.1093 102.955 60.8721 103.665 59.9222L103.628 59.8536Z" fill="#D03435"/>
<path fill-rule="evenodd" clip-rule="evenodd" d="M104.296 59.8117L103.627 59.8535C102.893 60.8076 102.137 61.0648 102.104 62.4471C102.072 64.1292 102.925 63.8551 103.749 64.9874C105.662 67.631 105.45 68.4189 108.088 69.9099C109.867 70.9253 111.527 72.2618 114.335 72.2965C116.84 72.3092 119.038 69.4225 118.978 67.9316L119.653 67.6385C120.309 66.0973 121.691 65.5555 121.955 63.6324C122.297 61.1454 121.57 59.996 120.066 58.8326C118.426 59.044 117.917 59.2831 117.477 60.4862C116.762 62.4128 117.797 62.0319 116.34 63.2875C115.837 62.6998 116.182 63.3901 115.948 62.4801L115.514 58.8521C115.111 56.9708 114.388 56.2713 112.557 56.391C110.357 56.5502 105.768 57.9278 104.324 59.8318L104.296 59.8117Z" fill="#530700"/>
<path d="M87.3633 109.411C87.3633 109.46 87.3513 109.544 87.3272 109.665C87.3272 109.761 87.3392 109.833 87.3633 109.882C87.3392 110.002 87.2187 110.087 87.0017 110.135C86.7846 110.207 86.5435 110.255 86.2783 110.28C86.0372 110.328 85.796 110.352 85.5549 110.352C85.3138 110.376 85.145 110.388 85.0485 110.388L84.9762 110.388C84.7592 110.34 84.6025 110.304 84.506 110.28C84.4337 110.255 84.3854 110.207 84.3613 110.135C84.3372 110.087 84.3252 110.014 84.3252 109.918C84.3493 109.821 84.3372 109.677 84.289 109.484C84.2167 108.953 84.1805 108.435 84.1805 107.929C84.1805 107.326 84.2046 106.735 84.2528 106.156C84.3011 105.553 84.3252 104.951 84.3252 104.348C84.3252 101.093 84.3131 97.8616 84.289 94.6546C84.2649 91.4236 84.2408 88.1804 84.2167 84.9253C83.8309 84.9494 83.4451 84.9855 83.0593 85.0338C82.6735 85.0579 82.2877 85.0699 81.9019 85.0699C81.4196 85.0699 81.1303 84.865 81.0338 84.4551C80.9374 84.0452 80.8891 83.6594 80.8891 83.2977C80.8891 82.7913 80.9253 82.4176 80.9976 82.1764C81.07 81.9353 81.1905 81.7665 81.3593 81.6701C81.5522 81.5736 81.7934 81.5254 82.0827 81.5254C82.3962 81.5254 82.782 81.5254 83.2401 81.5254C83.3607 81.5254 83.5897 81.5254 83.9273 81.5254C84.289 81.5254 84.6507 81.5495 85.0124 81.5977C85.3982 81.6218 85.7478 81.6701 86.0613 81.7424C86.3747 81.7906 86.5556 81.863 86.6038 81.9594L86.7485 82.0679C86.7967 82.1644 86.8208 82.2849 86.8208 82.4296C86.8208 82.5743 86.8208 82.6949 86.8208 82.7913C86.8208 83.7076 86.7967 84.6239 86.7485 85.5401C86.7244 86.4323 86.7123 87.3365 86.7123 88.2528C86.7123 89.0726 86.7244 89.8442 86.7485 90.5676C86.7967 92.3278 86.8329 94.0759 86.857 95.812C86.8811 97.5481 86.9173 99.2963 86.9655 101.057C86.9655 101.997 86.9655 102.949 86.9655 103.914C86.9655 104.878 87.0137 105.819 87.1102 106.735C87.1584 107.121 87.2187 107.495 87.291 107.856C87.3633 108.218 87.3995 108.592 87.3995 108.977C87.3995 109.122 87.3875 109.267 87.3633 109.411ZM81.9742 82.4658C81.9501 82.4176 81.938 82.3934 81.938 82.3934L81.938 82.4658L81.9742 82.4658Z" fill="white"/>
<path fill-rule="evenodd" clip-rule="evenodd" d="M27.3128 67.4019C27.86 67.3589 28.4038 67.28 28.9407 67.1658C30.4336 67.0455 31.9289 67.3679 33.2396 68.0929C34.5502 68.8178 35.6181 69.9131 36.3096 71.2417C36.844 72.3104 37.0055 73.0684 35.8747 74.5844C35.0579 74.7812 34.2061 74.7812 33.3894 74.5844L32.1467 76.4112C31.6372 76.4112 30.7798 76.1005 30.3324 76.1253C29.5744 79.0829 28.6424 79.1947 26.7909 78.5237C25.2748 81.3445 23.0629 78.3746 22.0066 77.1319C20.6397 75.6159 21.5717 73.2175 22.6777 70.9186C19.8817 71.8258 17.707 75.0318 15.9052 78.3746C12.9228 84.1281 14.8986 88.0922 15.5821 91.845C16.1784 94.5692 17.2018 97.1821 18.6142 99.5867C19.2776 100.85 20.0335 102.063 20.8758 103.215C22.9081 105.858 25.5176 108.001 28.5048 109.48C31.492 110.96 34.7779 111.737 38.1115 111.752C51.7807 111.752 54.5891 107.378 60.0071 97.1884C62.8404 91.8947 64.7416 88.8129 64.2073 82.6617C63.9181 79.8871 63.0729 77.1992 61.722 74.7584C59.8083 70.8316 56.7513 66.5942 52.5387 64.4816C49.6835 63.0635 46.5308 62.3477 43.3431 62.394C40.0997 62.6052 29.562 65.0657 27.3128 67.4019Z" fill="#B72223"/>
<path fill-rule="evenodd" clip-rule="evenodd" d="M27.3136 67.4022L27.0278 67.8247C26.4026 67.9084 25.8012 68.1191 25.2605 68.4439C24.7198 68.7688 24.2513 69.2008 23.8839 69.7135C23.3371 69.9123 23.0761 70.2976 22.7282 70.9562C21.6222 73.2302 20.6902 75.6286 22.0572 77.1695C23.1756 78.4121 25.3254 81.3821 26.8414 78.5612C28.693 79.2323 29.625 79.1204 30.383 76.1629C30.8303 76.1629 31.6878 76.4487 32.1973 76.4487L33.4399 74.622C34.2567 74.8187 35.1085 74.8187 35.9252 74.622C37.056 73.106 36.8945 72.3479 36.3602 71.2792C35.6703 69.9548 34.6064 68.8623 33.3006 68.1376C31.9949 67.4129 30.5049 67.088 29.016 67.2033C28.4558 67.3216 27.886 67.3881 27.3136 67.4022Z" fill="#520000"/>
</svg>
