<svg width="42" height="42" viewBox="0 0 42 42" fill="none" xmlns="http://www.w3.org/2000/svg">
<path fill-rule="evenodd" clip-rule="evenodd" d="M10.8699 4.98047C11.3159 4.94544 11.7591 4.88116 12.1966 4.78804C13.4134 4.68998 14.632 4.95279 15.7002 5.54363C16.7684 6.13446 17.6387 7.0271 18.2023 8.1099C18.6378 8.98088 18.7695 9.59867 17.8478 10.8342C17.1822 10.9946 16.488 10.9946 15.8223 10.8342L14.8095 12.323C14.3943 12.323 13.6955 12.0698 13.3309 12.0901C12.7131 14.5004 11.9536 14.5916 10.4445 14.0447C9.20896 16.3437 7.40625 13.9232 6.5454 12.9104C5.43136 11.6749 6.19093 9.72022 7.09229 7.84661C4.81358 8.58592 3.04124 11.1989 1.57274 13.9232C-0.857894 18.6123 0.752397 21.843 1.30942 24.9015C1.79544 27.1218 2.62945 29.2512 3.78056 31.211C4.32125 32.2409 4.93734 33.2293 5.62379 34.1683C7.28012 36.3219 9.40682 38.0683 11.8414 39.2742C14.276 40.4801 16.954 41.1135 19.6708 41.126C30.8112 41.126 33.1 37.561 37.5157 29.2564C39.8248 24.942 41.3743 22.4304 40.9388 17.4172C40.7032 15.1559 40.0143 12.9652 38.9133 10.976C37.3536 7.77571 34.8623 4.32217 31.429 2.60047C29.1019 1.44467 26.5325 0.861347 23.9345 0.899036C21.2912 1.0712 12.703 3.07647 10.8699 4.98047Z" fill="#B72223"/>
<path fill-rule="evenodd" clip-rule="evenodd" d="M10.8708 4.98019L10.6379 5.32453C10.1283 5.39273 9.63818 5.5645 9.19752 5.82924C8.75687 6.09398 8.37505 6.44612 8.07558 6.86395C7.62996 7.02599 7.41728 7.33994 7.13371 7.87671C6.23235 9.73006 5.47278 11.6847 6.58682 12.9405C7.4983 13.9533 9.25038 16.3738 10.486 14.0748C11.995 14.6217 12.7545 14.5305 13.3723 12.1202C13.7369 12.1202 14.4357 12.3531 14.851 12.3531L15.8637 10.8643C16.5294 11.0247 17.2236 11.0247 17.8893 10.8643C18.8109 9.62877 18.6792 9.01098 18.2437 8.14C17.6815 7.06056 16.8144 6.17018 15.7502 5.57957C14.686 4.98896 13.4717 4.72418 12.2583 4.81814C11.8017 4.91449 11.3373 4.96874 10.8708 4.98019Z" fill="#520000"/>
</svg>
