<svg width="97" height="95" viewBox="0 0 97 95" fill="none" xmlns="http://www.w3.org/2000/svg">
<path fill-rule="evenodd" clip-rule="evenodd" d="M25.6239 9.62948C26.6668 9.54756 27.7031 9.39725 28.7263 9.17951C31.5716 8.95019 34.4213 9.56476 36.9191 10.9464C39.417 12.328 41.4521 14.4153 42.77 16.9474C43.7884 18.9841 44.0963 20.4287 41.9411 23.318C40.3846 23.6929 38.7612 23.6929 37.2046 23.318L34.8364 26.7993C33.8654 26.7993 32.2313 26.2072 31.3788 26.2546C29.9341 31.891 28.1579 32.1042 24.6292 30.8254C21.74 36.2013 17.5245 30.5412 15.5115 28.1729C12.9064 25.2837 14.6826 20.7129 16.7903 16.3317C11.4618 18.0605 7.31732 24.1706 3.88336 30.5412C-1.80044 41.5062 1.96507 49.0609 3.26761 56.213C4.40412 61.4049 6.35438 66.3844 9.04615 70.9672C10.3105 73.3753 11.7512 75.6868 13.3564 77.8825C17.2295 82.9184 22.2026 87.0023 27.8957 89.8222C33.5887 92.642 39.8509 94.1231 46.204 94.1523C72.2547 94.1523 77.607 85.8161 87.9326 66.3964C93.3322 56.3077 96.9556 50.4344 95.9372 38.7116C95.3862 33.4237 93.7753 28.3011 91.2007 23.6496C87.5536 16.1659 81.7278 8.0901 73.6994 4.06408C68.2578 1.36134 62.2495 -0.00269415 56.1743 0.0854331C49.9932 0.488036 29.9104 5.17717 25.6239 9.62948Z" fill="#B72223"/>
<path fill-rule="evenodd" clip-rule="evenodd" d="M25.6254 9.62999L25.0807 10.4352C23.8893 10.5947 22.7431 10.9963 21.7126 11.6154C20.6822 12.2345 19.7894 13.0579 19.0891 14.035C18.047 14.4139 17.5497 15.148 16.8866 16.4032C14.7789 20.7371 13.0027 25.3078 15.6077 28.2445C17.7392 30.6127 21.8362 36.2728 24.7255 30.8969C28.2542 32.1758 30.0304 31.9626 31.475 26.3261C32.3276 26.3261 33.9617 26.8708 34.9327 26.8708L37.3009 23.3895C38.8575 23.7645 40.4809 23.7645 42.0374 23.3895C44.1925 20.5003 43.8847 19.0556 42.8663 17.0189C41.5516 14.4947 39.524 12.4127 37.0355 11.0316C34.547 9.6505 31.7075 9.03134 28.8699 9.25106C27.8023 9.47636 26.7163 9.60321 25.6254 9.62999Z" fill="#520000"/>
</svg>
