<svg width="119" height="121" viewBox="0 0 119 121" fill="none" xmlns="http://www.w3.org/2000/svg">
<path fill-rule="evenodd" clip-rule="evenodd" d="M78.7771 40.0292C78.483 39.5316 78.0317 39.1459 77.4943 38.9329C77.3502 38.765 77.1944 38.6074 77.0283 38.4612C71.4563 44.9356 68.7719 48.6528 65.1858 55.5211C63.188 59.2348 61.587 63.1486 60.4094 67.1979C57.6043 78.7746 59.0954 90.976 64.6059 101.537C67.2626 106.631 70.5414 111.376 74.3673 115.663C74.613 115.932 74.8529 116.225 75.0958 116.522C76.0203 117.651 76.9893 118.835 78.5002 119.003C81.1368 119.131 82.2796 116.493 83.3114 114.112C83.6751 113.273 84.025 112.465 84.4216 111.822C89.6421 100.213 91.8282 87.4684 90.7749 74.7835C89.6446 62.3174 84.6565 50.8662 78.7771 40.0292Z" fill="#194128"/>
<path fill-rule="evenodd" clip-rule="evenodd" d="M50.4243 62.3146C55.7275 60.9967 60.7351 58.6921 65.1854 55.5212C71.7626 49.4652 74.5163 45.5133 77.0279 38.4613C73.5166 34.0003 69.3241 30.1206 64.6047 26.9651C56.796 22.2289 47.7916 18.6074 38.4079 19.5554C27.8511 20.6481 17.7842 24.5674 9.26761 30.9005C7.26564 32.4123 1.84636 36.8676 3.28631 39.6729C3.657 41.6655 5.07928 43.3533 6.42627 44.9519C6.84732 45.4515 7.26102 45.9425 7.63294 46.4313C11.3066 50.5264 15.5554 54.0664 20.2464 56.9406C27.1528 61.9858 35.7116 64.2331 44.2058 63.2315L44.7922 63.1848C46.6881 63.0311 48.5704 62.7403 50.4243 62.3146Z" fill="#194128"/>
</svg>
