<svg width="52" height="52" viewBox="0 0 52 52" fill="none" xmlns="http://www.w3.org/2000/svg">
<path fill-rule="evenodd" clip-rule="evenodd" d="M34.3232 17.5016C34.1974 17.2888 34.0044 17.1239 33.7746 17.0328C33.713 16.961 33.6464 16.8936 33.5753 16.8311C31.1925 19.5998 30.0445 21.1894 28.511 24.1266C27.6566 25.7147 26.972 27.3885 26.4684 29.1201C25.2688 34.0708 25.9065 39.2886 28.263 43.8047C29.3991 45.9834 30.8013 48.0125 32.4374 49.8456C32.5425 49.961 32.645 50.0863 32.7489 50.2131C33.1442 50.6961 33.5586 51.2023 34.2047 51.2743C35.3323 51.3288 35.821 50.2009 36.2622 49.1825C36.4178 48.8235 36.5674 48.4782 36.737 48.203C38.9695 43.2387 39.9044 37.7886 39.4539 32.364C38.9706 27.033 36.8375 22.136 34.3232 17.5016Z" fill="#194128"/>
<path fill-rule="evenodd" clip-rule="evenodd" d="M22.1995 27.0308C24.4674 26.4673 26.6088 25.4817 28.512 24.1257C31.3247 21.5359 32.5023 19.8459 33.5763 16.8302C32.0748 14.9225 30.2819 13.2633 28.2637 11.9139C24.9244 9.88851 21.0737 8.33982 17.0608 8.74522C12.5463 9.21251 8.24127 10.8886 4.59921 13.5969C3.74309 14.2434 1.42557 16.1486 2.04136 17.3483C2.19988 18.2004 2.80811 18.9222 3.38414 19.6058C3.5642 19.8195 3.74111 20.0294 3.90016 20.2385C5.47119 21.9897 7.28815 23.5036 9.29418 24.7327C12.2477 26.8903 15.9078 27.8513 19.5402 27.423L19.791 27.403C20.6018 27.3373 21.4067 27.2129 22.1995 27.0308Z" fill="#194128"/>
</svg>
