<svg width="135" height="135" viewBox="0 0 135 135" fill="none" xmlns="http://www.w3.org/2000/svg">
<path fill-rule="evenodd" clip-rule="evenodd" d="M90.0214 42.7395C83.6053 42.9816 85.3576 41.4077 78.997 37.6468C74.1856 34.7962 65.504 32.1367 59.8645 32.9526C56.0534 33.5144 51.7834 34.7535 48.6738 36.9176C44.1128 40.0744 39.4772 43.0749 36.0777 47.4369C34.1525 49.903 31.6877 55.6258 31.216 58.5428C30.5203 62.7576 30.6793 69.4262 30.8438 73.6608C31.1274 81.8681 35.3444 88.7254 42.3093 92.7675C44.0864 93.8022 45.1407 94.9995 46.9806 96.0603C56.6556 101.636 69.8774 102.602 79.1459 99.2939C84.5437 97.3616 89.1814 94.038 92.5187 89.3484C97.246 82.7353 98.1684 82.1994 98.8698 71.7159C99.1709 67.2999 98.0609 62.7377 97.127 59.0071C98.2261 58.1179 98.9133 57.2633 99.7751 56.3784C100.919 55.1693 102.044 55.1007 101.933 52.7875L101.301 52.8921C101.035 54.1653 98.5431 56.1375 96.4498 55.5968C94.0597 54.9913 92.9614 53.5107 91.6745 52.2533C89.7823 50.4346 90.1078 49.8121 89.0513 47.1712C88.5954 46.0392 87.7947 46.0884 88.1996 44.6746C88.523 43.4918 89.2364 43.4577 90.0381 42.8054L90.0214 42.7395Z" fill="#D03435"/>
<path fill-rule="evenodd" clip-rule="evenodd" d="M90.5953 42.846L90.0214 42.7394C89.1983 43.3902 88.5047 43.4472 88.1829 44.6086C87.7994 46.024 88.5787 45.9732 89.0346 47.1053C90.0911 49.7462 89.7441 50.3671 91.6578 52.1873C92.9463 53.4233 94.0659 54.9054 96.4331 55.5308C98.5479 56.0731 101.019 54.0993 101.284 52.8261L101.917 52.7215C102.799 51.558 104.082 51.3932 104.714 49.8236C105.53 47.7935 105.16 46.6677 104.135 45.3649C102.703 45.1957 102.223 45.2898 101.595 46.2134C100.582 47.6905 101.538 47.588 100.039 48.3402C99.7387 47.7366 99.8846 48.3936 99.8798 47.5746L100.283 44.4156C100.341 42.7394 99.8782 41.9947 98.3049 41.7074C96.4118 41.3751 92.24 41.5658 90.6152 42.869L90.5953 42.846Z" fill="#530700"/>
</svg>
