<svg width="79" height="74" viewBox="0 0 79 74" fill="none" xmlns="http://www.w3.org/2000/svg">
<path fill-rule="evenodd" clip-rule="evenodd" d="M62.0224 12.7388C55.6062 12.981 57.3585 11.4071 50.9979 7.64612C46.1866 4.7955 37.5049 2.13605 31.8655 2.95197C28.0543 3.51369 23.7844 4.75282 20.6748 6.91694C16.1138 10.0737 11.4781 13.0743 8.07868 17.4362C6.15345 19.9023 3.68866 25.6251 3.21699 28.5422C2.52124 32.757 2.68028 39.4255 2.84482 43.6601C3.12841 51.8674 7.34539 58.7248 14.3102 62.7668C16.0874 63.8015 17.1417 64.9988 18.9816 66.0596C28.6566 71.6354 41.8784 72.6015 51.1469 69.2932C56.5447 67.3609 61.1824 64.0374 64.5196 59.3477C69.247 52.7346 70.1694 52.1988 70.8708 41.7152C71.1719 37.2992 70.0618 32.737 69.128 29.0064C70.2271 28.1172 70.9143 27.2626 71.776 26.3777C72.92 25.1687 74.0453 25.1001 73.9343 22.7868L73.3019 22.8914C73.0365 24.1646 70.5441 26.1369 68.4508 25.5961C66.0606 24.9906 64.9624 23.51 63.6755 22.2526C61.7832 20.434 62.1088 19.8115 61.0522 17.1706C60.5964 16.0385 59.7957 16.0877 60.2006 14.6739C60.524 13.4911 61.2374 13.4571 62.0391 12.8047L62.0224 12.7388Z" fill="#D03435"/>
<path fill-rule="evenodd" clip-rule="evenodd" d="M62.5948 12.8454L62.0209 12.7388C61.1978 13.3896 60.5043 13.4466 60.1824 14.608C59.7989 16.0234 60.5782 15.9726 61.0341 17.1047C62.0906 19.7455 61.7437 20.3665 63.6573 22.1867C64.9458 23.4227 66.0655 24.9048 68.4326 25.5302C70.5474 26.0725 73.0183 24.0987 73.2837 22.8255L73.9161 22.7209C74.7982 21.5574 76.0813 21.3926 76.7131 19.823C77.5293 17.7929 77.1591 16.6671 76.134 15.3642C74.703 15.195 74.2221 15.2892 73.5945 16.2128C72.5818 17.6899 73.5372 17.5874 72.0388 18.3396C71.7382 17.736 71.8841 18.393 71.8793 17.574L72.2825 14.415C72.3403 12.7388 71.8777 11.994 70.3045 11.7067C68.4114 11.3745 64.2395 11.5652 62.6147 12.8683L62.5948 12.8454Z" fill="#530700"/>
</svg>
