<svg width="315" height="313" viewBox="0 0 315 313" fill="none" xmlns="http://www.w3.org/2000/svg">
<path fill-rule="evenodd" clip-rule="evenodd" d="M211.007 99.0797C196.004 99.6459 200.101 95.9655 185.228 87.1709C173.977 80.505 153.676 74.2861 140.488 76.194C131.576 77.5076 121.591 80.4052 114.32 85.4658C103.655 92.8476 92.8144 99.8641 84.8651 110.064C80.3632 115.831 74.5995 129.213 73.4965 136.034C71.8696 145.89 72.2415 161.484 72.6263 171.386C73.2894 190.578 83.1504 206.614 99.437 216.065C103.593 218.485 106.058 221.285 110.361 223.765C132.985 236.804 163.902 239.063 185.576 231.327C198.198 226.808 209.043 219.037 216.847 208.07C227.901 192.606 230.058 191.353 231.699 166.838C232.403 156.512 229.807 145.844 227.623 137.12C230.193 135.041 231.8 133.042 233.815 130.973C236.491 128.146 239.122 127.985 238.862 122.576L237.383 122.821C236.763 125.798 230.935 130.41 226.04 129.145C220.45 127.729 217.882 124.267 214.873 121.327C210.448 117.074 211.209 115.618 208.739 109.443C207.673 106.796 205.8 106.911 206.747 103.605C207.504 100.839 209.172 100.759 211.046 99.2337L211.007 99.0797Z" fill="#D03435"/>
<path fill-rule="evenodd" clip-rule="evenodd" d="M212.348 99.3286L211.006 99.0794C209.082 100.601 207.46 100.735 206.707 103.45C205.81 106.76 207.633 106.641 208.699 109.289C211.169 115.464 210.358 116.916 214.833 121.173C217.846 124.063 220.464 127.529 226 128.991C230.945 130.259 236.723 125.644 237.343 122.666L238.822 122.422C240.885 119.701 243.885 119.316 245.363 115.645C247.271 110.898 246.406 108.265 244.009 105.219C240.662 104.823 239.538 105.043 238.07 107.203C235.702 110.657 237.936 110.417 234.432 112.176C233.729 110.765 234.07 112.301 234.059 110.386L235.002 102.999C235.137 99.0794 234.055 97.3379 230.377 96.6661C225.95 95.8892 216.194 96.3351 212.395 99.3824L212.348 99.3286Z" fill="#530700"/>
</svg>
