<svg width="183" height="172" viewBox="0 0 183 172" fill="none" xmlns="http://www.w3.org/2000/svg">
<path fill-rule="evenodd" clip-rule="evenodd" d="M145.007 29.0802C130.004 29.6464 134.101 25.966 119.228 17.1714C107.977 10.5055 87.6757 4.28658 74.4884 6.19453C65.5763 7.50806 55.5914 10.4056 48.3199 15.4662C37.6546 22.8481 26.8144 29.8646 18.8651 40.0646C14.3632 45.8313 8.59949 59.2136 7.49653 66.0348C5.86959 75.8907 6.24149 91.4845 6.62625 101.387C7.28939 120.579 17.1504 136.614 33.437 146.066C37.5927 148.485 40.0582 151.285 44.3605 153.766C66.9845 166.804 97.9025 169.063 119.576 161.327C132.198 156.809 143.043 149.037 150.847 138.071C161.901 122.607 164.058 121.354 165.699 96.8387C166.403 86.5124 163.807 75.8441 161.623 67.1204C164.193 65.0412 165.8 63.0427 167.815 60.9734C170.491 58.1462 173.122 57.9858 172.862 52.5764L171.383 52.821C170.763 55.7983 164.935 60.4102 160.04 59.1458C154.45 57.7298 151.882 54.2676 148.873 51.3273C144.448 47.0745 145.209 45.6189 142.739 39.4434C141.673 36.7962 139.8 36.9113 140.747 33.6052C141.504 30.8393 143.172 30.7597 145.046 29.2342L145.007 29.0802Z" fill="#D03435"/>
<path fill-rule="evenodd" clip-rule="evenodd" d="M146.348 29.3291L145.006 29.0799C143.082 30.6018 141.46 30.7351 140.707 33.4509C139.81 36.7607 141.633 36.6419 142.699 39.2891C145.169 45.4646 144.358 46.9166 148.833 51.173C151.846 54.0632 154.464 57.5291 160 58.9915C164.945 60.2596 170.723 55.644 171.343 52.6667L172.822 52.4221C174.885 49.7013 177.885 49.316 179.363 45.6457C181.271 40.8985 180.406 38.266 178.009 35.2193C174.662 34.8237 173.538 35.0438 172.07 37.2035C169.702 40.6577 171.936 40.4179 168.432 42.177C167.729 40.7654 168.07 42.3017 168.059 40.3865L169.002 32.9995C169.137 29.0799 168.055 27.3384 164.377 26.6666C159.95 25.8897 150.194 26.3356 146.395 29.3829L146.348 29.3291Z" fill="#530700"/>
</svg>
