<svg width="343" height="237" viewBox="0 0 343 237" fill="none" xmlns="http://www.w3.org/2000/svg">
<path fill-rule="evenodd" clip-rule="evenodd" d="M10.9572 200.133C9.50342 200.243 8.05468 200.353 6.62855 200.37L6.64471 200.309C6.80647 200.248 6.1247 198.438 5.43583 196.61C4.73197 194.741 4.02069 192.853 4.19424 192.79C4.92036 188.575 4.09568 185.665 3.23251 182.619C2.60847 180.416 1.96432 178.143 1.87147 175.255C1.69018 169.617 2.52817 166.667 3.56771 163.008C4.0083 161.456 4.4851 159.778 4.93585 157.713C5.67927 154.309 5.58758 150.608 5.49581 146.904C5.47622 146.113 5.45663 145.322 5.44515 144.534C5.43479 144.051 5.40614 143.531 5.3766 142.995C5.29394 141.494 5.20432 139.867 5.48921 138.579C5.7164 137.532 6.12404 137.085 6.54784 136.62C6.90525 136.227 7.27416 135.823 7.55601 135.035C9.26124 130.329 10.4642 125.177 11.6736 119.997C12.281 117.396 12.8901 114.787 13.5652 112.225C16.1822 102.254 14.3013 99.3718 10.2609 93.1803C9.91208 92.6458 9.54721 92.0867 9.16775 91.4962C8.5981 90.6227 7.82536 89.7117 7.01165 88.7524C5.37933 86.828 3.58214 84.7092 2.9288 82.3087C2.0184 78.9302 2.47646 71.0771 2.69309 67.3632L2.69479 67.334C2.7994 65.544 3.06952 63.9239 3.33947 62.3049C3.58695 60.8206 3.83428 59.3372 3.95378 57.7247C4.23655 53.8879 4.10543 49.7042 3.97722 45.6135C3.9143 43.6063 3.85209 41.6214 3.83983 39.7109C3.803 34.0271 4.07965 29.0012 4.73398 24.2714C5.02941 22.1422 5.01234 20.1445 4.99375 17.97C4.99025 17.5601 4.98669 17.144 4.98516 16.7194C4.9861 16.9789 5.24039 17.3051 5.49082 17.6263C5.73378 17.9379 5.97312 18.2449 5.97397 18.4819C7.34129 18.455 8.72942 18.3503 10.1229 18.2453C12.8009 18.0434 15.4987 17.84 18.1063 18.1842C19.9264 18.4242 21.6575 18.9849 23.3851 19.5446C25.6227 20.2694 27.8545 20.9924 30.2663 21.014C33.8992 21.0451 37.5445 20.9586 41.1905 20.872C43.3786 20.8201 45.567 20.7681 47.7531 20.7416L47.9916 20.7377C55.0993 20.622 62.1734 20.5068 69.0619 17.7761C70.6443 17.1456 72.2124 16.3401 73.7877 15.5309C77.0959 13.8315 80.436 12.1157 84.0072 11.9705C90.0284 11.7355 96.0404 10.2884 102.055 8.8407C107.211 7.59979 112.369 6.35836 117.536 5.8792C120.945 5.57053 124.381 5.66147 127.814 5.75233C129.789 5.8046 131.763 5.85685 133.73 5.83296C136.613 5.79796 139.498 5.7058 142.384 5.61363C147.332 5.45557 152.282 5.29745 157.226 5.4274C164.612 5.60841 171.842 8.01689 178.704 12.9862C182.464 15.7376 185.632 18.0149 189.631 19.019C198.645 21.2855 206.997 21.6052 216.15 21.4941C218.31 21.4678 220.565 21.6089 222.854 21.7522C228.301 22.0932 233.945 22.4465 238.989 20.5852C241.989 19.4693 244.76 19.2065 247.608 18.9366C249.045 18.8004 250.501 18.6623 252.015 18.412C253.565 18.1571 255.07 17.4972 256.576 16.8369C258.139 16.1514 259.703 15.4654 261.321 15.2313C265.805 14.6054 270.653 14.8173 275.157 15.1536C277.54 15.3256 278.029 15.8687 279.125 17.0849C279.505 17.5068 279.958 18.0098 280.589 18.6064C284.687 22.4948 289.049 23.8085 293.459 25.1362C295.043 25.6133 296.634 26.0923 298.221 26.6932C303.205 28.5575 307.042 29.8944 312.073 26.5851C319.409 21.7545 326.201 18.7228 333.566 17.6284C333.816 18.4694 335.322 18.6737 336.706 18.8613C338.13 19.0542 339.423 19.2295 339.084 20.0617C337.834 23.0844 337.496 24.8329 336.937 28.7795C336.479 32.0452 335.895 34.8729 335.31 37.7029C335.161 38.4235 335.012 39.1442 334.865 39.8724C334.237 43.0079 333.841 46.6518 333.673 50.0223C333.56 52.2372 333.303 54.1334 333.047 56.0217C332.82 57.6997 332.593 59.3714 332.469 61.255C332.303 63.8422 332.675 65.2455 333.061 66.7013C333.285 67.5489 333.515 68.4143 333.645 69.5416C333.951 72.1491 333.887 74.9371 333.824 77.7033C333.786 79.3656 333.748 81.02 333.791 82.6226C333.841 84.594 334.169 86.322 334.493 88.0272C334.787 89.5727 335.077 91.0994 335.153 92.7715C335.345 96.6877 333.9 98.7329 332.397 100.861C331.823 101.673 331.241 102.497 330.738 103.442C330.062 104.715 329.659 105.862 329.48 106.912C329.628 107.84 329.754 108.79 329.814 109.802L329.816 109.827C329.833 110.115 329.851 110.433 329.871 110.775C330.761 112.98 332.711 114.762 334.756 116.631C337.478 119.118 340.367 121.758 341.151 125.752C342.003 130.089 340.946 131.273 339.737 132.628C339.031 133.419 338.273 134.268 337.814 135.837C337.277 137.643 337.808 139.905 338.316 142.068C338.589 143.232 338.856 144.368 338.945 145.387C339.081 146.961 339.277 148.643 339.477 150.358C339.853 153.586 340.243 156.932 340.275 159.898C340.311 162.782 339.972 165.594 339.631 168.411C339.336 170.851 339.041 173.294 338.989 175.793C338.952 177.746 339.038 179.752 339.124 181.762C339.229 184.209 339.334 186.66 339.217 189.024C338.986 193.519 338.046 194.445 336.763 195.709C336.002 196.459 335.12 197.327 334.194 199.13L340.006 199.059C336.639 199.1 333.432 199.519 330.296 200.3C330.293 200.636 330.284 200.983 330.271 201.342C330.179 203.791 329.592 205.712 329.023 207.573C328.236 210.147 327.484 212.606 328.128 216.19C328.284 216.245 327.637 217.839 326.997 219.416C326.37 220.959 325.75 222.486 325.896 222.54L325.91 222.592C324.623 222.561 323.316 222.453 322.004 222.344C319.641 222.147 317.262 221.949 314.96 222.207C313.317 222.391 311.753 222.848 310.192 223.303C308.17 223.894 306.154 224.483 303.977 224.475C300.688 224.461 297.401 224.348 294.113 224.235C292.14 224.167 290.167 224.099 288.194 224.053C281.706 223.901 275.248 223.749 268.968 221.306C267.542 220.754 266.128 220.054 264.709 219.35C261.727 217.873 258.717 216.381 255.494 216.219C250.075 215.941 244.667 214.656 239.257 213.37L239.257 213.37L239.257 213.37L239.256 213.37C234.591 212.261 229.924 211.152 225.246 210.688C222.16 210.372 219.042 210.417 215.933 210.462H215.932C214.159 210.488 212.389 210.513 210.629 210.472C208.027 210.411 205.421 210.301 202.814 210.192H202.814H202.814C198.345 210.004 193.876 209.816 189.422 209.872C182.741 209.945 176.223 211.909 170.016 216.049L169.881 216.139C166.54 218.367 163.716 220.25 160.137 221.047C151.995 222.871 144.455 223.051 136.194 222.857C134.242 222.811 132.204 222.909 130.134 223.008L130.132 223.008L130.131 223.008H130.131C125.212 223.244 120.116 223.488 115.582 221.837C112.928 220.874 110.46 220.624 107.928 220.369C106.592 220.234 105.238 220.097 103.83 219.852C102.432 219.619 101.075 219.043 99.7179 218.467L99.7177 218.467C98.3084 217.868 96.898 217.269 95.4389 217.053C91.3932 216.448 87.0317 216.601 82.9505 216.837C80.8084 216.956 80.3677 217.408 79.383 218.418C79.0354 218.774 78.62 219.201 78.038 219.706C74.3293 222.959 70.3878 224.026 66.4042 225.104L66.4038 225.104L66.4032 225.104C64.972 225.492 63.5353 225.88 62.102 226.373C57.5978 227.925 54.1316 228.992 49.5989 226.13C41.3135 220.91 33.7655 218.054 25.0018 217.849L30.2482 217.972C29.417 216.433 28.6233 215.687 27.9382 215.043C26.7832 213.957 25.937 213.161 25.7409 209.346C25.6412 207.34 25.7426 205.263 25.8439 203.188L25.8439 203.188C25.8629 202.798 25.882 202.408 25.8996 202.019C25.2775 201.833 24.6588 201.633 24.0397 201.433C22.3121 200.873 20.581 200.312 18.7609 200.072C16.2116 199.736 13.5762 199.935 10.9572 200.133ZM333.566 17.6284C335.451 17.3484 337.373 17.1952 339.352 17.1712L333.539 17.2418C333.522 17.3839 333.532 17.5122 333.566 17.6284Z" fill="#F6F6F6"/>
<path d="M40.8779 175.58C41.2382 175.75 41.5489 176.009 41.7804 176.333C42.012 176.657 42.1565 177.036 42.2004 177.432C42.2443 177.827 42.1861 178.228 42.0312 178.595C41.8763 178.962 41.63 179.283 41.3157 179.528C40.5846 179.993 39.7479 180.265 38.8835 180.319C39.5585 180.989 40.0168 181.846 40.1991 182.78C40.3847 183.324 40.3549 183.918 40.1159 184.44C39.8769 184.962 39.4468 185.373 38.9141 185.588C38.3815 185.803 37.7867 185.805 37.2522 185.595C36.7177 185.385 36.284 184.978 36.0405 184.458C35.4103 183.257 35.1251 181.905 35.2165 180.552L34.7873 180.599C33.2507 180.728 31.7092 180.417 30.3432 179.702C30.1398 179.615 29.9574 179.485 29.8081 179.322C29.6589 179.159 29.5462 178.965 29.4776 178.755C29.409 178.544 29.3862 178.322 29.4106 178.102C29.4349 177.882 29.5059 177.67 29.6189 177.48C29.9108 177.074 30.3451 176.793 30.8351 176.693C31.661 176.415 32.5124 176.218 33.3769 176.107C33.1165 175.128 33.0042 174.115 33.0438 173.103C33.0833 172.689 33.235 172.293 33.4825 171.959C33.73 171.625 34.0639 171.364 34.4483 171.205C34.8328 171.047 35.2533 170.996 35.6646 171.058C36.0759 171.12 36.4624 171.293 36.7827 171.559C37.9507 172.689 37.6546 174.329 37.2585 175.851C37.7831 175.487 38.3951 175.271 39.0313 175.223C39.6676 175.175 40.3051 175.299 40.8779 175.58Z" fill="#D6D6D6"/>
<path fill-rule="evenodd" clip-rule="evenodd" d="M49.4393 34.9954C49.4766 34.5868 49.659 34.2043 49.9518 33.9212C51.8539 32.5031 54.1242 35.7345 52.6957 37.4059C51.6456 38.6942 49.6742 37.7024 49.3023 36.3071C49.1776 35.8711 49.2269 35.3995 49.4393 34.9954ZM43.1225 37.3329C43.0604 37.0296 42.931 36.7459 42.7444 36.504C40.1766 33.5548 36.1305 38.4142 38.9371 40.846C40.6037 42.2487 43.5058 40.8168 43.0411 38.4829C43.0677 38.4083 43.0882 38.3317 43.1025 38.2538C43.1777 37.9514 43.1846 37.6363 43.1225 37.3329ZM19.0256 53.9888C19.2123 54.2308 19.3416 54.5144 19.4037 54.8178C19.4658 55.1212 19.459 55.4363 19.3837 55.7387C19.3694 55.8165 19.3489 55.8931 19.3224 55.9677C19.7871 58.3017 16.8849 59.7335 15.2184 58.3309C12.4118 55.8991 16.4579 51.0397 19.0256 53.9888ZM21.0965 64.4789C21.1338 64.0703 21.3163 63.6879 21.609 63.4048C23.5111 61.9867 25.7814 65.218 24.3529 66.8894C23.3028 68.1777 21.3314 67.1859 20.9596 65.7906C20.8349 65.3546 20.8841 64.883 21.0965 64.4789Z" fill="#D23F3F"/>
<path d="M18.1548 38.6365C18.2049 38.4901 18.2871 38.356 18.3957 38.2434C18.2349 37.9259 18.2018 37.5621 18.3027 37.2231C18.4037 36.8841 18.6315 36.5943 18.9416 36.4103C19.2924 36.2401 19.6848 36.1659 20.0765 36.1957C20.6584 36.0603 21.2594 36.0179 21.8561 36.0701C23.9154 36.3696 26.2753 36.3415 28.1474 37.4082C28.3405 37.5541 28.4919 37.7455 28.587 37.9642C28.6822 38.1828 28.7178 38.4213 28.6906 38.6568C28.6633 38.8922 28.5741 39.1166 28.4314 39.3085C28.2888 39.5004 28.0975 39.6533 27.876 39.7525C27.0392 39.9558 26.1745 40.032 25.3127 39.9783C26.1773 40.6371 27.4159 41.6403 26.7703 42.812C26.6095 43.0835 26.3617 43.2965 26.0644 43.4187C25.7671 43.541 25.4365 43.5659 25.1226 43.4896C23.9867 42.9986 22.9201 42.3681 21.9491 41.6136C22.3159 42.8099 22.2372 44.0918 21.7268 45.2342C21.5715 45.4337 21.3676 45.5927 21.1332 45.697C20.8988 45.8012 20.6413 45.8475 20.3835 45.8317C20.1258 45.8159 19.8758 45.7384 19.656 45.6063C19.4361 45.4741 19.2532 45.2914 19.1235 45.0743C18.6908 43.8237 18.432 42.5233 18.3539 41.2075C18.1695 40.3625 18.1025 39.4978 18.1548 38.6365Z" fill="#231F20"/>
<path fill-rule="evenodd" clip-rule="evenodd" d="M309.773 156.682C309.92 156.966 310.132 157.212 310.391 157.403C313.846 159.643 316.67 153.754 313.111 152.09C311.01 151.142 308.418 153.331 309.539 155.521C309.533 155.602 309.533 155.683 309.539 155.764C309.545 156.084 309.625 156.398 309.773 156.682ZM302.077 193.807C301.738 193.264 301.613 192.616 301.726 191.986C301.563 191.293 301.684 190.565 302.061 189.959C303.225 188.012 306.718 187.315 307.819 189.674C309.35 192.762 304.453 196.705 302.077 193.807ZM307.262 202.359C306.66 202.309 306.093 202.057 305.653 201.646C305.212 201.235 304.925 200.688 304.837 200.095C304.878 199.673 304.857 199.275 304.837 198.884L304.837 198.884C304.817 198.496 304.798 198.114 304.837 197.72C305.109 196.136 306.815 195.487 308.235 195.281C308.631 195.255 309.028 195.319 309.395 195.469C309.763 195.618 310.09 195.85 310.354 196.145C310.617 196.44 310.809 196.791 310.914 197.171C311.02 197.551 311.036 197.95 310.962 198.337C311.045 198.854 311.009 199.383 310.858 199.884C310.706 200.385 310.443 200.846 310.087 201.233C309.732 201.619 309.293 201.921 308.804 202.116C308.315 202.311 307.788 202.394 307.262 202.359ZM310.995 191.084C309.703 193.079 310.118 195.47 312.59 196.246C317.024 197.592 321.346 191.432 316.115 189.342C315.183 189.121 314.207 189.167 313.3 189.476C312.394 189.784 311.594 190.342 310.995 191.084ZM264.319 201.3C264.06 201.11 263.849 200.864 263.702 200.579C263.554 200.295 263.474 199.981 263.468 199.662C263.461 199.581 263.461 199.499 263.468 199.418C262.346 197.229 264.938 195.04 267.04 195.987C270.599 197.652 267.775 203.541 264.319 201.3Z" fill="#D23F3F"/>
<path d="M286.598 195.483C286.815 195.656 286.985 195.881 287.09 196.138C287.195 196.395 287.233 196.675 287.2 196.95C287.166 197.226 287.063 197.489 286.899 197.713C286.736 197.937 286.517 198.116 286.265 198.232C285.695 198.43 285.084 198.482 284.489 198.381C284.84 198.943 285.014 199.598 284.989 200.26C285.028 200.659 284.913 201.057 284.667 201.373C284.422 201.689 284.065 201.9 283.669 201.96C283.273 202.021 282.869 201.928 282.54 201.7C282.211 201.472 281.982 201.127 281.899 200.735C281.663 199.82 281.685 198.857 281.963 197.954L281.664 197.917C280.601 197.76 279.605 197.303 278.792 196.6C278.668 196.508 278.565 196.391 278.49 196.256C278.415 196.122 278.369 195.973 278.356 195.819C278.343 195.665 278.363 195.511 278.415 195.365C278.466 195.22 278.548 195.087 278.655 194.976C278.918 194.747 279.258 194.626 279.606 194.637C280.211 194.579 280.82 194.582 281.424 194.644C281.404 193.938 281.489 193.234 281.677 192.553C281.77 192.278 281.936 192.034 282.157 191.847C282.379 191.659 282.647 191.536 282.933 191.489C283.219 191.443 283.513 191.475 283.782 191.583C284.051 191.691 284.286 191.87 284.46 192.102C285.073 193.055 284.61 194.121 284.099 195.089C284.513 194.927 284.962 194.877 285.402 194.946C285.841 195.016 286.254 195.201 286.598 195.483Z" fill="#272D1F"/>
<path d="M313.519 171.988C313.786 172.067 314.027 172.213 314.22 172.412C314.414 172.611 314.553 172.857 314.625 173.125C314.697 173.393 314.699 173.675 314.631 173.944C314.563 174.214 314.427 174.461 314.236 174.662C313.781 175.059 313.233 175.335 312.643 175.463C313.179 175.854 313.585 176.396 313.808 177.02C313.993 177.376 314.035 177.788 313.926 178.173C313.816 178.558 313.563 178.886 313.218 179.09C312.874 179.294 312.464 179.359 312.074 179.27C311.683 179.181 311.342 178.946 311.119 178.613C310.559 177.852 310.22 176.951 310.141 176.009L309.85 176.087C308.805 176.337 307.71 176.285 306.694 175.936C306.545 175.897 306.405 175.827 306.285 175.73C306.165 175.633 306.067 175.512 305.998 175.374C305.929 175.236 305.889 175.085 305.883 174.931C305.877 174.777 305.903 174.623 305.961 174.48C306.12 174.17 306.389 173.931 306.717 173.811C307.256 173.532 307.822 173.307 308.406 173.14C308.124 172.492 307.94 171.806 307.861 171.105C307.845 170.815 307.908 170.527 308.043 170.27C308.179 170.014 308.381 169.799 308.629 169.65C308.878 169.5 309.162 169.42 309.452 169.42C309.742 169.42 310.026 169.499 310.275 169.648C311.199 170.304 311.167 171.465 311.054 172.555C311.377 172.25 311.776 172.036 312.21 171.936C312.643 171.837 313.095 171.854 313.519 171.988Z" fill="#272D1F"/>
</svg>
