<svg width="49" height="52" viewBox="0 0 49 52" fill="none" xmlns="http://www.w3.org/2000/svg">
<path d="M29.7017 41.1144C23.572 40.0503 1.64956 34.5165 2.54349 26.7266C1.22838 24.3874 0.760158 21.6663 1.21766 19.0221C1.67517 16.3779 3.03052 13.9723 5.0551 12.211C9.42174 9.25331 14.5529 7.62666 19.826 7.5285C27.9213 7.28768 35.8447 9.89371 42.2167 14.8928C56.1363 25.705 46.6011 44.903 29.7017 41.1144Z" fill="white"/>
<path d="M3.86888 11.8292C3.17423 9.63984 2.81542 7.35784 2.80469 5.06094C2.81593 4.02984 3.14713 3.02763 3.75223 2.19267C4.35732 1.35771 5.20667 0.731127 6.18303 0.399445C7.1594 0.0677619 8.21462 0.0473174 9.2031 0.340922C10.1916 0.634526 11.0645 1.22771 11.7015 2.0386C12.7695 3.68247 13.4903 5.52725 13.8197 7.45973C14.1491 9.39221 14.0802 11.3716 13.6171 13.2765C11.4887 18.4698 5.35875 16.4691 3.86888 11.8292Z" fill="#231F20"/>
<path d="M1.2261 43.9673C-1.62594 39.7105 4.71669 38.5186 6.58967 35.7517C4.84439 32.2611 11.1872 30.2179 12.0811 33.9213C12.975 37.6247 5.05719 48.8626 1.2261 43.9673Z" fill="#231F20"/>
<path d="M33.7923 50.5209C30.4294 47.4986 25.2788 43.6675 26.8963 38.5594C27.0164 38.2422 27.2244 37.9656 27.4957 37.7621C27.7671 37.5586 28.0906 37.4365 28.4287 37.41C28.7964 37.3746 29.1665 37.4486 29.4921 37.6228C29.8178 37.797 30.0845 38.0636 30.2591 38.3891C31.153 41.837 34.814 43.1141 37.5809 44.8594C37.9526 45.1081 38.2716 45.4277 38.5199 45.7998C38.7681 46.1719 38.9406 46.5892 39.0275 47.028C39.1145 47.4667 39.1143 47.9183 39.0268 48.3569C38.9392 48.7956 38.766 49.2127 38.5173 49.5844C38.2685 49.9561 37.9491 50.2752 37.577 50.5235C37.2049 50.7717 36.7876 50.9443 36.3489 51.0312C35.9101 51.1182 35.4583 51.1179 35.0197 51.0303C34.581 50.9428 34.164 50.7697 33.7923 50.5209Z" fill="#231F20"/>
</svg>
