<svg width="22" height="17" viewBox="0 0 22 17" fill="none" xmlns="http://www.w3.org/2000/svg">
<path d="M10.2063 11.2585C7.63236 10.9974 5.13321 10.241 2.8465 9.03093C2.35868 8.76999 1.92797 8.4142 1.57959 7.98446C1.2312 7.55472 0.97218 7.0597 0.817789 6.52846C0.663399 5.99723 0.616742 5.44049 0.680526 4.89096C0.744311 4.34143 0.917256 3.8102 1.18923 3.32845C2.97125 0.56631 6.73138 -0.235607 9.81428 0.120798C12.8972 0.477203 16.7642 3.31063 16.9424 6.8925C17.1206 10.4744 13.1823 11.8109 10.2063 11.2585Z" fill="white"/>
<path d="M15.0706 5.80545C14.9822 5.55767 14.9822 5.28694 15.0706 5.03916C14.3221 1.65331 19.1157 1.08308 21.0225 2.93638C21.3144 3.24215 21.5245 3.61661 21.6332 4.02513C21.7419 4.43365 21.7459 4.86301 21.6446 5.27344C21.5433 5.68388 21.3401 6.06214 21.0538 6.37318C20.7675 6.68422 20.4074 6.91799 20.0067 7.05286C18.3851 7.69439 15.819 7.6944 15.0706 5.80545Z" fill="#231F20"/>
<path d="M0.476893 11.5076C-0.44976 9.8147 1.84902 9.24446 2.56183 8.08614C2.66983 7.96032 2.73803 7.80527 2.75783 7.64064C2.74262 7.40662 2.77369 7.17189 2.84919 6.94986C2.9247 6.72783 3.04318 6.52285 3.1979 6.34662C3.35262 6.17038 3.54048 6.02636 3.75087 5.92275C3.96125 5.81915 4.19 5.75798 4.42402 5.74277C4.65804 5.72756 4.89277 5.75861 5.1148 5.83411C5.33682 5.90961 5.54178 6.02809 5.71801 6.18281C5.89425 6.33753 6.03827 6.52545 6.14187 6.73584C6.24548 6.94622 6.30667 7.17494 6.32188 7.40896C6.99905 9.29791 1.86687 13.949 0.476893 11.5076Z" fill="#231F20"/>
<path d="M10.3506 15.1265C9.7289 13.7551 9.18164 12.3512 8.71119 10.9209C8.55579 10.6325 8.47509 10.3098 8.47658 9.98215C8.47808 9.65455 8.56165 9.33254 8.71968 9.04556C8.8777 8.75859 9.10514 8.51579 9.38119 8.33937C9.65724 8.16295 9.97313 8.05855 10.2999 8.03567C10.6267 8.01279 10.954 8.07218 11.252 8.20842C11.5499 8.34466 11.809 8.55339 12.0055 8.81555C12.202 9.07771 12.3296 9.38495 12.3767 9.70915C12.4238 10.0333 12.3889 10.3642 12.2752 10.6714C12.792 12.4535 15.0551 14.5384 12.9702 16.0175C12.7457 16.1585 12.4926 16.2477 12.2293 16.2785C11.9661 16.3094 11.6993 16.2811 11.4483 16.1957C11.1973 16.1104 10.9685 15.9701 10.7786 15.7851C10.5887 15.6002 10.4425 15.3751 10.3506 15.1265Z" fill="#231F20"/>
</svg>
