<svg width="51" height="39" viewBox="0 0 51 39" fill="none" xmlns="http://www.w3.org/2000/svg">
<path d="M23.4841 26.6759C17.4653 26.0653 11.6214 24.2966 6.27416 21.4671C5.13347 20.8569 4.1263 20.0249 3.31164 19.02C2.49698 18.0151 1.89129 16.8576 1.53026 15.6154C1.16924 14.3731 1.06014 13.0713 1.20929 11.7862C1.35844 10.5012 1.76286 9.25902 2.39883 8.13251C6.56588 1.67357 15.3585 -0.20162 22.5675 0.631791C29.7765 1.4652 38.819 8.09084 39.2357 16.4666C39.6524 24.8424 30.4431 27.9677 23.4841 26.6759Z" fill="white"/>
<path d="M34.8596 13.9248C34.653 13.3454 34.653 12.7123 34.8596 12.1329C33.1095 4.21552 44.3187 2.88209 48.7775 7.21583C49.4601 7.93082 49.9513 8.80647 50.2056 9.76174C50.4599 10.717 50.4691 11.721 50.2323 12.6808C49.9955 13.6405 49.5202 14.525 48.8507 15.2524C48.1812 15.9797 47.3391 16.5263 46.4022 16.8417C42.6102 18.3419 36.6098 18.3419 34.8596 13.9248Z" fill="#231F20"/>
<path d="M0.733719 27.2588C-1.43315 23.3 3.94228 21.9666 5.6091 19.258C5.86165 18.9638 6.02112 18.6012 6.06742 18.2162C6.03185 17.669 6.10451 17.1201 6.28106 16.601C6.45761 16.0818 6.73467 15.6024 7.09647 15.1903C7.45826 14.7782 7.89756 14.4415 8.38951 14.1992C8.88147 13.9569 9.41638 13.8139 9.96361 13.7783C10.5108 13.7428 11.0597 13.8153 11.5789 13.9919C12.0981 14.1685 12.5774 14.4455 12.9895 14.8073C13.4016 15.1691 13.7383 15.6085 13.9806 16.1005C14.2229 16.5924 14.366 17.1273 14.4015 17.6745C15.985 22.0916 3.98402 32.9676 0.733719 27.2588Z" fill="#231F20"/>
<path d="M23.8237 35.7211C22.3698 32.5144 21.0902 29.2315 19.9901 25.8869C19.6267 25.2125 19.438 24.4578 19.4415 23.6917C19.445 22.9256 19.6404 22.1727 20.0099 21.5016C20.3794 20.8306 20.9113 20.2628 21.5568 19.8503C22.2023 19.4377 22.941 19.1936 23.7052 19.1401C24.4694 19.0866 25.2347 19.2255 25.9314 19.544C26.6281 19.8626 27.234 20.3507 27.6934 20.9638C28.1528 21.5768 28.4513 22.2952 28.5615 23.0533C28.6717 23.8114 28.59 24.5851 28.3242 25.3035C29.5326 29.4706 34.8246 34.346 29.9491 37.8047C29.4243 38.1345 28.8325 38.343 28.2168 38.4151C27.6012 38.4872 26.9773 38.421 26.3904 38.2214C25.8036 38.0218 25.2685 37.6938 24.8245 37.2613C24.3805 36.8288 24.0386 36.3026 23.8237 35.7211Z" fill="#231F20"/>
</svg>
