<svg width="21" height="22" viewBox="0 0 21 22" fill="none" xmlns="http://www.w3.org/2000/svg">
<path d="M12.4888 17.5247C9.8674 17.0696 0.492357 14.7031 0.87464 11.3718C0.312238 10.3715 0.112006 9.20781 0.307655 8.07702C0.503305 6.94623 1.08292 5.91749 1.94872 5.16427C3.8161 3.89943 6.01041 3.2038 8.26544 3.16182C11.7274 3.05884 15.1158 4.17329 17.8407 6.31112C23.7934 10.9349 19.7157 19.1449 12.4888 17.5247Z" fill="white"/>
<path d="M1.44069 5.00108C1.14363 4.06481 0.990187 3.08892 0.985596 2.10666C0.990402 1.66572 1.13204 1.23712 1.39081 0.880057C1.64957 0.522989 2.0128 0.255032 2.43033 0.113189C2.84787 -0.0286539 3.29913 -0.0373969 3.72185 0.0881619C4.14457 0.213721 4.51786 0.467396 4.79027 0.81417C5.24701 1.51716 5.55526 2.30608 5.69613 3.13249C5.837 3.95891 5.80753 4.8054 5.60947 5.62001C4.69927 7.84089 2.07783 6.98531 1.44069 5.00108Z" fill="#231F20"/>
<path d="M0.310512 18.7447C-0.909152 16.9243 1.80325 16.4146 2.60423 15.2313C1.85786 13.7386 4.57032 12.8648 4.9526 14.4486C5.33489 16.0323 1.94887 20.8382 0.310512 18.7447Z" fill="#231F20"/>
<path d="M14.2381 21.5475C12.8 20.255 10.5973 18.6167 11.289 16.4322C11.3404 16.2966 11.4293 16.1783 11.5454 16.0913C11.6614 16.0043 11.7997 15.952 11.9443 15.9407C12.1016 15.9255 12.2598 15.9572 12.3991 16.0317C12.5384 16.1062 12.6524 16.2202 12.7271 16.3594C13.1094 17.8339 14.675 18.38 15.8582 19.1264C16.0172 19.2328 16.1536 19.3694 16.2598 19.5286C16.3659 19.6877 16.4397 19.8662 16.4769 20.0538C16.5141 20.2414 16.514 20.4345 16.4766 20.6221C16.4391 20.8097 16.3651 20.9881 16.2587 21.147C16.1523 21.306 16.0157 21.4425 15.8566 21.5486C15.6975 21.6548 15.519 21.7286 15.3314 21.7658C15.1437 21.803 14.9505 21.8028 14.7629 21.7654C14.5754 21.7279 14.397 21.6539 14.2381 21.5475Z" fill="#231F20"/>
</svg>
