<svg width="670" height="321" viewBox="0 0 670 321" fill="none" xmlns="http://www.w3.org/2000/svg">
<path d="M659.495 94.5036C633.804 92.0517 604.598 98.3723 577.98 98.3723C507.881 98.3723 465.19 95.8386 395.418 96.438C354.088 96.7921 287.969 102.813 246.422 102.268C205.147 101.723 159.949 95.3482 119.573 106.137C117.775 122.374 139.107 149.945 127.529 162.914C131.588 170.569 140.66 175.609 148.425 180.486C143.412 188.659 131.206 190.648 127.202 199.884C125.322 204.188 125.431 221.516 125.649 226.147C126.657 247.779 132.323 272.844 119.6 294.938C159.976 284.15 205.174 290.498 246.449 291.07C287.996 291.642 354.116 285.594 395.445 285.24C465.217 284.64 507.909 287.174 578.008 287.174C604.598 287.174 633.831 280.826 659.522 283.305C659.767 270.174 663.69 248.46 659.822 239.17C663.854 236.827 666.415 231.078 669.03 228.926C658.051 221.543 656.552 209.937 644.292 203.371C652.221 192.855 666.823 174.193 669.248 161.088C672.19 145.232 661.838 111.34 659.522 94.5036L659.495 94.5036Z" fill="white"/>
<path fill-rule="evenodd" clip-rule="evenodd" d="M298.943 133.494L326.09 287.096C314.211 286.766 302.555 288.395 291.371 292.282L291.127 292.367C285.106 294.458 280.019 296.226 273.628 296.83C259.089 298.216 245.682 297.945 231.006 297.245C227.536 297.079 223.908 297.056 220.223 297.033C211.472 296.978 202.405 296.921 194.407 294.947C189.726 293.793 185.347 293.387 180.858 292.971C178.487 292.751 176.085 292.528 173.592 292.191C171.116 291.866 168.726 291.191 166.334 290.515C163.851 289.814 161.366 289.111 158.781 288.8C151.612 287.932 143.854 287.825 136.592 287.821C132.78 287.814 131.98 288.253 130.193 289.234C129.562 289.58 128.808 289.993 127.755 290.479C121.044 293.604 113.999 294.464 106.879 295.333C104.32 295.645 101.752 295.959 99.1857 296.379C91.1229 297.705 84.9229 298.593 76.9717 295.372C62.4371 289.495 49.1261 286.097 33.5571 285.355L42.8775 285.799C41.4566 284.164 40.0732 283.347 38.8793 282.643C36.8662 281.455 35.3915 280.584 35.1831 276.643C35.0796 274.572 35.3361 272.438 35.5922 270.308C35.8025 268.559 36.0126 266.813 36.0228 265.105C36.0293 262.919 35.6433 260.766 35.2579 258.616C34.8129 256.134 34.3688 253.656 34.5311 251.14C34.6888 248.552 35.4338 245.656 36.1525 242.861C36.5343 241.377 36.9086 239.922 37.1837 238.556C37.364 237.672 37.832 236.698 38.312 235.699C39.2037 233.844 40.1365 231.903 39.3409 230.291C38.6606 228.891 37.4754 228.099 36.3711 227.362C34.4806 226.1 32.8272 224.996 34.3507 221.264C35.7508 217.828 40.4796 215.713 44.9333 213.721C51.2873 210.879 57.0815 208.287 51.8514 202.468C51.0784 201.61 50.1742 200.852 49.2832 200.106C46.9481 198.148 44.704 196.267 45.1522 192.86C45.3342 191.405 45.8545 190.091 46.3812 188.761C46.9622 187.293 47.5512 185.806 47.7021 184.087C47.828 182.691 47.8265 181.243 47.8249 179.789C47.8225 177.37 47.82 174.931 48.4043 172.674C48.6542 171.698 49.0532 170.958 49.444 170.232C50.1152 168.986 50.7622 167.786 50.5877 165.515C50.456 163.862 50.1528 162.388 49.8484 160.907C49.5058 159.242 49.1618 157.569 49.0594 155.627C48.9108 152.673 48.4059 149.465 47.5122 146.686C47.3027 146.04 47.0896 145.401 46.8766 144.762C46.0399 142.252 45.2038 139.744 44.5862 136.862C43.8313 133.379 43.3526 131.83 41.4562 129.108C40.9423 128.359 43.0226 128.291 45.3122 128.217C47.5385 128.144 49.9626 128.065 50.3923 127.347C47.3796 126.978 44.3022 126.718 41.13 126.566L50.4504 127.011C50.473 127.136 50.4517 127.248 50.3923 127.347C62.1659 128.788 72.9515 131.882 84.5446 136.584C92.4958 139.805 98.697 138.89 106.759 137.591C109.325 137.17 111.893 136.857 114.452 136.545C121.572 135.676 128.617 134.816 135.328 131.69C136.361 131.211 137.106 130.802 137.731 130.458C139.532 129.468 140.336 129.026 144.165 129.033C151.401 129.036 159.184 129.17 166.354 130.012C168.939 130.323 171.424 131.025 173.907 131.727C176.298 132.403 178.688 133.078 181.165 133.403C183.585 133.721 185.915 133.938 188.215 134.151C192.772 134.575 197.208 134.987 201.98 136.159C210.002 138.116 219.067 138.179 227.817 138.241C231.494 138.266 235.114 138.291 238.579 138.457C253.255 139.157 266.662 139.428 281.201 138.042C287.651 137.429 292.815 135.649 298.943 133.494Z" fill="white"/>
<path d="M18.1678 227.453C25.6926 227.105 33.5224 226.003 41.0124 226.244C48.9048 226.498 55.9826 228.521 64.0358 228.242C75.0202 227.859 85.9903 227.167 96.969 226.661C110.507 226.037 123.984 225.415 136.993 222.033C146.155 219.664 154.991 215.579 164.914 214.966C185.962 213.656 206.783 208.121 227.835 206.223C237.928 205.294 248.226 205.437 258.341 204.971C273.082 204.291 287.865 203.176 302.59 202.806C316.542 202.441 330.229 204.374 343.359 208.961C350.552 211.472 356.584 213.604 364.189 214.335C381.263 215.989 397.011 215.696 414.25 214.9C428.004 214.266 443.886 215.542 457.24 212.268C465.644 210.212 473.215 210.203 481.693 209.07C487.622 208.302 493.132 205.823 499.095 205.115C507.517 204.108 516.628 203.997 525.158 204.005C531.216 204.004 530.796 204.951 535.532 207.143C546.24 212.15 557.679 212.24 569.077 214.125C578.545 215.697 585.825 216.752 595.17 212.983C612.252 206.107 627.892 202.141 646.18 201.297L635.232 201.802C639.723 196.65 643.884 198.436 644.286 191.063C644.514 186.633 643.341 181.958 643.321 177.509C643.313 171.978 645.446 166.625 645.098 161.109C644.822 156.456 642.93 150.949 642.006 146.325C641.405 143.355 638.046 139.523 639.487 136.614C641.661 132.156 648.189 132.967 645.365 126.02C641.39 116.222 614.378 115.521 624.845 103.912C628.138 100.268 633.449 98.1687 632.731 92.639C632.287 89.0436 630.084 86.1784 629.752 82.3306C629.365 77.96 630.04 73.1696 628.948 68.9242C628.155 65.8085 626.066 64.7305 626.397 60.5122C626.732 56.3864 627.976 53.2077 628.21 48.9011C628.39 45.4315 628.989 41.6644 630.044 38.4017C631.262 34.6679 632.582 31.1148 633.498 26.8695C634.391 22.7798 634.956 20.9612 637.189 17.7678C638.463 15.9165 626.21 17.5943 626.629 15.288L637.576 14.7831C619.289 15.6266 603.678 19.5607 586.567 26.4691C577.222 30.2379 569.94 29.1521 560.474 27.6109C549.076 25.726 537.637 25.6356 526.929 20.6285C522.223 18.435 522.613 17.4899 516.555 17.4911C508.056 17.4814 498.915 17.6249 490.492 18.6006C484.529 19.3083 479.019 21.7876 473.09 22.5556C464.611 23.6575 457.072 23.6962 448.637 25.7541C435.251 28.9984 419.401 27.7516 405.647 28.386C388.408 29.1812 372.66 29.4749 355.586 27.821C348.011 27.0887 341.95 24.9886 334.756 22.4463C321.626 17.86 307.908 15.9277 293.987 16.2916C279.231 16.6632 264.479 17.7763 249.738 18.4562C239.592 18.9242 229.327 18.8106 219.231 19.7089C198.18 21.607 177.36 27.1721 156.311 28.4521C146.388 29.0643 137.552 33.1495 128.39 35.5191C115.379 38.8698 101.903 39.4914 88.3659 40.1467C77.3872 40.6531 66.3862 41.3459 55.4327 41.7276C47.3795 42.0063 40.3017 39.984 32.4093 39.73C24.9193 39.4883 17.088 40.5603 9.56474 40.9382C9.54198 40.4448 7.65465 39.7283 7.63047 39.2041C7.75707 41.9487 8.02222 44.3471 7.46325 46.9688C6.42218 51.8689 6.10463 57.0446 6.40431 62.8718C6.70969 68.8223 7.91127 75.4422 7.34889 81.3401C7.01478 84.8168 5.60512 87.7559 5.36637 91.2901C5.10959 95.1032 4.55711 103.226 6.41399 106.632C8.40419 110.249 15.2077 113.026 18.5401 115.592C27.8376 122.858 32.5815 125.204 27.6645 136.526C24.171 144.537 21.8075 152.928 17.2678 160.369C16.177 162.181 14.2285 162.147 13.5177 164.158C12.86 165.981 13.5275 168.392 13.676 170.27C13.9804 174.861 14.7826 179.521 13.2505 183.826C10.6788 191.052 7.37657 193.832 8.18811 202.046C8.88392 209.091 15.3372 212.316 13.2746 219.859C12.6327 220.013 18.8069 227.238 18.1958 227.389L18.1678 227.453Z" fill="white"/>
<path d="M70.8319 264.258C70.3828 264.178 69.9564 264.002 69.5819 263.744C68.7198 264.329 67.6693 264.574 66.6357 264.431C65.6021 264.288 64.6598 263.767 63.993 262.971C63.3494 262.054 62.9695 260.981 62.8943 259.865C62.2568 258.283 61.8834 256.609 61.7889 254.907C61.8109 248.984 60.7497 242.352 63.0941 236.636C63.4407 236.031 63.9381 235.525 64.5383 235.166C65.1385 234.807 65.8214 234.607 66.5214 234.586C67.2215 234.564 67.9151 234.722 68.5357 235.044C69.1563 235.365 69.6829 235.84 70.065 236.422C71.0068 238.693 71.5882 241.096 71.7888 243.545C73.3575 240.836 75.7784 236.93 79.4742 238.259C80.3351 238.599 81.061 239.207 81.5419 239.993C82.0229 240.779 82.2328 241.7 82.1399 242.616C81.1746 246.019 79.7724 249.285 77.968 252.333C81.3156 250.801 85.0982 250.488 88.6521 251.449C89.3003 251.803 89.85 252.311 90.2522 252.927C90.6544 253.543 90.8967 254.249 90.9573 254.982C91.0179 255.714 90.895 256.45 90.5996 257.124C90.3042 257.798 89.8454 258.39 89.2643 258.845C85.7849 260.585 82.0878 261.856 78.2708 262.625C75.8754 263.496 73.3735 264.046 70.8319 264.258Z" fill="#231F20"/>
<path d="M115.53 247.869C114.756 246.626 114.47 245.144 114.728 243.706C114.356 242.121 114.632 240.455 115.494 239.072C118.156 234.619 126.142 233.026 128.658 238.42C132.158 245.48 120.963 254.494 115.53 247.869Z" fill="#D23F3F"/>
<path d="M41.4459 213.072C39.9827 213.122 38.5561 212.628 37.4392 211.686C35.8812 211.215 34.576 210.144 33.809 208.705C31.2836 204.174 33.8969 196.461 39.8265 196.979C47.6906 197.477 49.9 211.68 41.4459 213.072Z" fill="#D23F3F"/>
<path d="M127.384 267.42C126.008 267.304 124.711 266.73 123.705 265.79C122.699 264.85 122.042 263.6 121.842 262.243C122.024 260.325 121.659 258.623 121.842 256.813C122.462 253.193 126.363 251.708 129.609 251.238C130.515 251.178 131.422 251.324 132.262 251.667C133.102 252.009 133.851 252.538 134.453 253.212C135.055 253.887 135.494 254.689 135.735 255.558C135.976 256.427 136.013 257.339 135.844 258.225C136.033 259.407 135.951 260.615 135.605 261.762C135.259 262.908 134.657 263.962 133.844 264.845C133.032 265.728 132.029 266.419 130.91 266.865C129.792 267.311 128.587 267.5 127.384 267.42Z" fill="#D23F3F"/>
<path d="M139.564 253.444C133.911 251.67 132.963 246.203 135.917 241.641C137.288 239.945 139.115 238.67 141.188 237.964C143.26 237.259 145.492 237.154 147.622 237.659C159.583 242.438 149.701 256.521 139.564 253.444Z" fill="#D23F3F"/>
<path d="M59.1323 208.379C50.8821 208.913 52.1822 195.122 54.3953 190.133C55.0067 188.367 55.5701 184.895 58.1146 185.464C71.8825 178.387 69.4561 207.057 59.1323 208.379Z" fill="#D23F3F"/>
</svg>
