<svg width="289" height="161" viewBox="0 0 289 161" fill="none" xmlns="http://www.w3.org/2000/svg">
<path d="M284.196 63.5755C273.209 62.527 260.72 65.23 249.337 65.23C219.359 65.23 201.102 64.1464 171.264 64.4028C153.59 64.5542 125.314 67.129 107.547 66.896C89.8958 66.663 70.567 63.9367 53.3005 68.5505C52.5315 75.4944 61.6542 87.285 56.7025 92.8308C58.4385 96.1047 62.3182 98.2601 65.6387 100.346C63.495 103.841 58.2754 104.691 56.5627 108.641C55.7588 110.482 55.8054 117.892 55.8986 119.872C56.3297 129.123 58.7531 139.842 53.3122 149.291C70.5787 144.677 89.9074 147.392 107.558 147.636C125.326 147.881 153.602 145.295 171.276 145.143C201.114 144.887 219.371 145.97 249.348 145.97C260.72 145.97 273.221 143.256 284.208 144.316C284.312 138.7 285.99 129.414 284.336 125.441C286.06 124.44 287.155 121.981 288.274 121.061C283.578 117.903 282.938 112.94 277.695 110.132C281.085 105.635 287.33 97.6542 288.367 92.0502C289.625 85.2694 285.198 70.7758 284.208 63.5755L284.196 63.5755Z" fill="white"/>
<path fill-rule="evenodd" clip-rule="evenodd" d="M128.008 81.25L139.617 146.937C134.537 146.796 129.552 147.493 124.769 149.155L124.665 149.191C122.09 150.086 119.914 150.842 117.182 151.1C110.964 151.693 105.23 151.577 98.9541 151.277C97.4705 151.207 95.9187 151.197 94.343 151.187C90.6005 151.163 86.7231 151.139 83.3027 150.295C81.301 149.801 79.4286 149.628 77.5085 149.45C76.4948 149.356 75.4677 149.26 74.4014 149.116C73.3423 148.977 72.3203 148.688 71.2975 148.399C70.2357 148.099 69.173 147.799 68.0674 147.666C65.0017 147.295 61.6842 147.249 58.5784 147.247C56.9484 147.245 56.6063 147.432 55.842 147.851C55.5722 147.999 55.2497 148.176 54.7994 148.384C51.9293 149.721 48.9167 150.088 45.8718 150.46C44.7776 150.593 43.6792 150.727 42.5818 150.907C39.1338 151.474 36.4824 151.854 33.0821 150.477C26.8664 147.963 21.174 146.51 14.516 146.193L18.5018 146.383C17.8942 145.683 17.3026 145.334 16.792 145.033C15.9311 144.525 15.3005 144.153 15.2113 142.467C15.1671 141.581 15.2768 140.669 15.3863 139.758C15.4762 139.01 15.5661 138.263 15.5705 137.533C15.5732 136.598 15.4082 135.677 15.2434 134.758C15.053 133.696 14.8631 132.637 14.9325 131.561C15 130.454 15.3186 129.216 15.6259 128.021C15.7892 127.386 15.9493 126.763 16.0669 126.18C16.144 125.801 16.3442 125.385 16.5494 124.958C16.9308 124.164 17.3296 123.334 16.9894 122.645C16.6985 122.046 16.1916 121.708 15.7194 121.392C14.9109 120.852 14.2039 120.38 14.8554 118.785C15.4541 117.315 17.4764 116.411 19.381 115.559C22.0983 114.343 24.5761 113.235 22.3395 110.747C22.0089 110.38 21.6222 110.056 21.2412 109.736C20.2426 108.899 19.2829 108.095 19.4746 106.638C19.5524 106.015 19.7749 105.453 20.0002 104.885C20.2487 104.257 20.5005 103.621 20.5651 102.886C20.6189 102.289 20.6182 101.67 20.6176 101.048C20.6165 100.013 20.6155 98.9703 20.8654 98.0052C20.9722 97.5879 21.1429 97.2712 21.31 96.961C21.597 96.4282 21.8737 95.9147 21.7991 94.9438C21.7428 94.2369 21.6131 93.6063 21.4829 92.9732C21.3364 92.2609 21.1893 91.5455 21.1455 90.7152C21.082 89.4518 20.8661 88.0799 20.4839 86.8913C20.3943 86.6152 20.3031 86.3419 20.212 86.0686C19.8542 84.9953 19.4967 83.9229 19.2325 82.6904C18.9097 81.2009 18.705 80.5384 17.894 79.3744C17.6743 79.0541 18.5639 79.0251 19.543 78.9931C20.4951 78.962 21.5318 78.9282 21.7155 78.6212C20.4271 78.4635 19.1111 78.3521 17.7545 78.2874L21.7404 78.4775C21.75 78.5311 21.7409 78.5787 21.7155 78.6212C26.7505 79.2373 31.3629 80.5608 36.3206 82.5714C39.7209 83.9489 42.3728 83.5577 45.8203 83.0019C46.9178 82.8222 48.0161 82.6882 49.1104 82.5546C52.1552 82.183 55.1678 81.8154 58.0379 80.4787C58.4796 80.2737 58.7981 80.0986 59.0654 79.9517C59.8356 79.5285 60.1796 79.3394 61.8169 79.3423C64.9115 79.3436 68.2397 79.4011 71.3059 79.7611C72.4116 79.8941 73.4742 80.1943 74.536 80.4944C75.5588 80.7834 76.5809 81.0722 77.6399 81.211C78.6748 81.3472 79.6714 81.4397 80.6547 81.531C82.6038 81.7121 84.5007 81.8883 86.5413 82.3895C89.972 83.2267 93.8488 83.2537 97.5907 83.2798C99.1628 83.2908 100.711 83.3016 102.193 83.3723C108.469 83.6716 114.203 83.7875 120.42 83.195C123.178 82.9327 125.387 82.1715 128.008 81.25Z" fill="white"/>
<path d="M7.93421 97.4308C11.1521 97.2824 14.5005 96.8107 17.7036 96.9141C21.0788 97.0227 24.1055 97.8876 27.5495 97.7684C32.2469 97.6045 36.9383 97.3089 41.6333 97.0923C47.4229 96.8252 53.1861 96.5594 58.7495 95.1133C62.6677 94.1 66.4462 92.353 70.6898 92.0911C79.6906 91.5306 88.5949 89.1639 97.5974 88.3521C101.914 87.9548 106.318 88.016 110.644 87.8165C116.948 87.5257 123.269 87.0491 129.566 86.8908C135.533 86.7345 141.386 87.5615 147.001 89.5228C150.077 90.5968 152.657 91.5087 155.909 91.8212C163.21 92.5285 169.945 92.4029 177.317 92.0629C183.199 91.7916 189.991 92.3374 195.702 90.9373C199.296 90.0579 202.534 90.0539 206.159 89.5695C208.695 89.2411 211.051 88.1808 213.601 87.8782C217.202 87.4477 221.099 87.4002 224.747 87.4037C227.337 87.4032 227.158 87.808 229.183 88.7454C233.762 90.8867 238.654 90.9254 243.529 91.7314C247.577 92.4037 250.691 92.8548 254.687 91.2431C261.992 88.3026 268.681 86.6064 276.501 86.2456L271.819 86.4616C273.74 84.2584 275.52 85.0222 275.691 81.8688C275.789 79.9743 275.287 77.9754 275.279 76.0727C275.275 73.7071 276.187 71.4183 276.039 69.0594C275.921 67.0692 275.111 64.7144 274.716 62.737C274.459 61.4668 273.023 59.8282 273.639 58.5839C274.569 56.6775 277.36 57.0245 276.153 54.0537C274.453 49.8633 262.901 49.5635 267.377 44.5992C268.786 43.0408 271.057 42.143 270.75 39.7783C270.56 38.2407 269.618 37.0154 269.476 35.3699C269.31 33.5009 269.599 31.4522 269.132 29.6367C268.793 28.3043 267.9 27.8433 268.041 26.0394C268.184 24.275 268.716 22.9156 268.816 21.0739C268.893 19.5902 269.15 17.9792 269.601 16.5839C270.122 14.9871 270.686 13.4677 271.078 11.6522C271.46 9.90323 271.702 9.12554 272.656 7.75988C273.201 6.9682 267.961 7.68569 268.14 6.69942L272.822 6.48347C265.001 6.8442 258.326 8.52662 251.008 11.481C247.012 13.0927 243.898 12.6283 239.849 11.9692C234.975 11.1632 230.083 11.1245 225.504 8.98323C223.492 8.04519 223.658 7.64102 221.068 7.64156C217.433 7.6374 213.524 7.69877 209.922 8.11602C207.372 8.41867 205.015 9.47893 202.48 9.80735C198.854 10.2786 195.63 10.2951 192.023 11.1752C186.298 12.5626 179.52 12.0294 173.638 12.3007C166.266 12.6408 159.531 12.7664 152.23 12.0591C148.991 11.7459 146.398 10.8478 143.322 9.76064C137.707 7.7993 131.84 6.97295 125.887 7.1286C119.577 7.2875 113.268 7.76351 106.964 8.05429C102.626 8.25442 98.2355 8.20581 93.9183 8.58997C84.9158 9.4017 76.0121 11.7816 67.0107 12.329C62.7671 12.5908 58.9886 14.3378 55.0704 15.3512C49.5064 16.7841 43.7432 17.0499 37.9542 17.3301C33.2592 17.5467 28.5546 17.843 23.8704 18.0062C20.4265 18.1254 17.3997 17.2606 14.0245 17.1519C10.8214 17.0486 7.47244 17.507 4.25513 17.6686C4.2454 17.4576 3.43829 17.1512 3.42795 16.927C3.48209 18.1008 3.59548 19.1264 3.35643 20.2476C2.91122 22.3431 2.77543 24.5565 2.90359 27.0484C3.03418 29.5931 3.54803 32.4241 3.30753 34.9463C3.16465 36.4331 2.56181 37.69 2.45971 39.2014C2.3499 40.8321 2.11364 44.3056 2.90773 45.7624C3.75883 47.3091 6.66831 48.4966 8.09341 49.5938C12.0695 52.7013 14.0982 53.7047 11.9954 58.5463C10.5014 61.9721 9.4907 65.5607 7.54932 68.7429C7.08284 69.5177 6.24955 69.5033 5.94559 70.3631C5.66436 71.1426 5.9498 72.1736 6.01328 72.9768C6.14349 74.94 6.48653 76.9331 5.83133 78.7739C4.73155 81.8644 3.31937 83.0529 3.66642 86.5656C3.96398 89.5784 6.72372 90.9578 5.84165 94.1836C5.56713 94.2491 8.20752 97.3389 7.94618 97.4038L7.93421 97.4308Z" fill="white"/>
<path d="M30.472 137.87C30.28 137.836 30.0976 137.761 29.9375 137.65C29.5688 137.9 29.1195 138.005 28.6775 137.944C28.2355 137.883 27.8326 137.66 27.5474 137.32C27.2721 136.928 27.1097 136.469 27.0776 135.992C26.8049 135.315 26.6452 134.599 26.6048 133.871C26.6142 131.338 26.1604 128.502 27.163 126.058C27.3112 125.799 27.5239 125.583 27.7806 125.429C28.0373 125.276 28.3293 125.19 28.6287 125.181C28.928 125.172 29.2247 125.239 29.4901 125.377C29.7554 125.514 29.9807 125.717 30.1441 125.966C30.5468 126.937 30.7955 127.965 30.8812 129.012C31.5521 127.854 32.5874 126.183 34.1679 126.752C34.5361 126.897 34.8464 127.157 35.0521 127.493C35.2578 127.83 35.3476 128.223 35.3079 128.615C34.895 130.07 34.2954 131.467 33.5237 132.77C34.9553 132.115 36.573 131.982 38.0928 132.392C38.37 132.544 38.605 132.761 38.777 133.024C38.9491 133.288 39.0527 133.59 39.0786 133.903C39.1045 134.216 39.0519 134.531 38.9256 134.819C38.7993 135.108 38.6031 135.36 38.3546 135.555C36.8666 136.299 35.2856 136.843 33.6533 137.172C32.6288 137.544 31.5589 137.779 30.472 137.87Z" fill="#231F20"/>
<path d="M50.5709 125.162C50.2397 124.631 50.1176 123.997 50.2278 123.382C50.0688 122.704 50.1866 121.991 50.5553 121.4C51.6937 119.496 55.1088 118.814 56.1847 121.121C57.6818 124.14 52.8944 127.995 50.5709 125.162Z" fill="#D23F3F"/>
<path d="M55.6399 133.523C55.0512 133.473 54.4967 133.227 54.0665 132.826C53.6362 132.424 53.3554 131.889 53.2696 131.309C53.3475 130.488 53.1916 129.761 53.2696 128.987C53.5347 127.438 55.2033 126.804 56.5911 126.602C56.9785 126.577 57.3666 126.639 57.7257 126.786C58.0848 126.932 58.4054 127.158 58.6628 127.447C58.9203 127.735 59.1078 128.078 59.2109 128.45C59.314 128.822 59.33 129.212 59.2577 129.59C59.3385 130.096 59.3036 130.613 59.1555 131.103C59.0075 131.593 58.7501 132.044 58.4025 132.421C58.0549 132.799 57.6261 133.094 57.1478 133.285C56.6695 133.476 56.1541 133.557 55.6399 133.523Z" fill="#D23F3F"/>
<path d="M60.849 127.546C58.432 126.787 58.0265 124.45 59.2896 122.499C59.8757 121.773 60.6574 121.228 61.5437 120.926C62.4299 120.625 63.3842 120.58 64.2954 120.796C69.4102 122.839 65.1842 128.862 60.849 127.546Z" fill="#D23F3F"/>
<path d="M17.8887 91.2814C17.2629 91.3025 16.6529 91.0913 16.1752 90.6883C15.5089 90.4872 14.9508 90.0289 14.6228 89.4138C13.5428 87.4758 14.6604 84.1777 17.1961 84.3992C20.5592 84.6123 21.5041 90.6858 17.8887 91.2814Z" fill="#D23F3F"/>
<path d="M25.4521 89.2741C21.9239 89.5027 22.4799 83.6051 23.4263 81.4712C23.6878 80.7161 23.9287 79.2315 25.0169 79.4747C30.9047 76.4482 29.867 88.7087 25.4521 89.2741Z" fill="#D23F3F"/>
</svg>
