<svg width="793" height="301" viewBox="0 0 793 301" fill="none" xmlns="http://www.w3.org/2000/svg">
<path d="M84.018 217.096C67.8845 221.998 70.5864 192.166 72.0025 183.189C73.5923 173.88 77.7081 154.214 89.7604 152.661C91.1575 152.501 92.5728 152.668 93.8938 153.151C95.2148 153.633 96.4051 154.417 97.3701 155.44C104.216 162.855 96.7219 188.623 94.7642 198.241C92.7422 205.037 91.2832 213.824 84.018 217.096Z" fill="#FBB921"/>
<path d="M136.543 247.799C134.163 248.319 131.676 248.008 129.498 246.916C127.319 245.824 125.582 244.018 124.574 241.8C122.001 235.625 120.926 228.928 121.438 222.257C121.406 218.331 121.601 214.405 122.022 210.501C123.052 203.216 125.515 193.44 131.36 188.354C133.274 186.992 134.624 184.763 136.878 183.736C138.042 183.088 139.326 182.689 140.652 182.564C141.977 182.439 143.314 182.59 144.578 183.008C149.988 184.948 150.558 191.018 150.798 195.791C150.915 208.567 150.89 243.674 136.543 247.799Z" fill="#FBB921"/>
<path d="M162.614 252.161C160.853 252.013 159.193 251.28 157.896 250.079C156.6 248.878 155.742 247.279 155.46 245.534C152.575 233.501 151.802 221.058 153.174 208.76C154.001 199.592 154.345 189.84 158.85 181.522C159.31 180.596 159.975 179.787 160.795 179.156C161.615 178.526 162.568 178.091 163.582 177.885C164.595 177.678 165.642 177.706 166.643 177.965C167.645 178.225 168.573 178.709 169.359 179.382C172.743 182.401 173.532 196.264 173.798 200.938C173.948 212.901 173.287 224.86 171.821 236.734C171.159 242.585 169.944 251.712 162.614 252.161Z" fill="#FBB921"/>
<path d="M309.054 216.876C296.802 220.56 266.898 164.674 288.063 165.236C300.505 167.129 326.554 212.282 309.054 216.876Z" fill="#FBB921"/>
<path d="M326.111 220.273C321.917 220.512 320.022 215.995 319.24 212.41C317.984 207.431 317.042 202.379 316.42 197.282C315.36 189.955 314.238 182.664 313.787 175.302C313.459 169.54 311.928 157.871 319.086 155.537C320.249 155.256 321.466 155.288 322.613 155.629C323.761 155.97 324.798 156.607 325.62 157.477C330.524 164.071 330.627 177.17 332.081 185.213C333.534 193.256 337.306 219.443 326.111 220.273Z" fill="#FBB921"/>
<path d="M370.759 183.654C360.539 182.405 362.366 165.984 361.842 158.466C362.021 153.157 361.366 136.011 365.606 133.2C366.342 132.109 367.353 131.232 368.538 130.66C369.723 130.087 371.038 129.839 372.35 129.941C373.661 130.043 374.923 130.49 376.005 131.238C377.087 131.987 377.952 133.008 378.511 134.2C381.724 139.862 381.491 146.492 381.522 152.689C380.892 161.365 382.601 182.915 370.759 183.654Z" fill="#FBB921"/>
<path d="M403.569 180.052C398.777 179.939 397.175 174.923 396.631 171.004C395.083 160.508 394.963 149.851 396.272 139.323C396.006 134.927 396.862 130.535 398.757 126.559C399.187 125.696 399.813 124.945 400.586 124.368C401.359 123.791 402.257 123.404 403.206 123.237C404.156 123.071 405.132 123.129 406.055 123.409C406.978 123.689 407.823 124.181 408.52 124.847C412.274 129.291 412.633 140.672 413.148 146.328C413.429 154.085 414.903 179.985 403.569 180.052Z" fill="#FBB921"/>
<path d="M439.205 179.115C434.525 177.037 431.381 170.888 429.045 166.525C425.592 158.866 422.9 150.886 421.008 142.701C420.454 139.745 417.164 125.383 423.13 126.938C425.646 122.619 430.695 123.296 433.729 126.945C437.647 131.901 440.566 137.571 442.324 143.639C444.883 150.784 454.186 182.18 439.205 179.115Z" fill="#FBB921"/>
<path d="M492.622 191.073C485.74 190.919 482.354 183.339 479.044 178.228C475.995 173.091 473.529 167.63 471.693 161.945C469.814 156.014 463.854 137.082 469.199 132.795C469.762 130.921 471.031 129.34 472.739 128.386C474.447 127.431 476.459 127.179 478.35 127.681C488.137 130.336 494.119 152.478 495.993 161.14C497.342 166.922 498.267 172.795 498.76 178.712C499.03 183.45 498.703 190.695 492.622 191.073Z" fill="#FBB921"/>
<path d="M518.99 172.453C514.196 171.184 513.662 165.754 512.887 161.719C510.375 146.381 506.869 130.489 509.911 115.092C510.323 113.531 511.011 112.055 511.943 110.737C512.573 109.972 513.355 109.346 514.239 108.898C515.122 108.45 516.089 108.189 517.079 108.133C518.068 108.077 519.058 108.226 519.987 108.57C520.916 108.915 521.763 109.449 522.476 110.137C529.388 118.705 530.095 131.126 530.682 141.435C531.152 149.695 532.007 174.313 518.99 172.453Z" fill="#FBB921"/>
<path d="M551.895 160.302C543.763 152.864 542.318 130.302 542.522 119.788C542.648 117.091 542.935 114.404 543.381 111.742C543.635 109.229 544.264 106.768 545.246 104.441C545.284 102.573 545.865 100.757 546.917 99.2145C547.97 97.6717 549.45 96.4687 551.175 95.7525C552.607 95.4027 554.113 95.5104 555.48 96.0605C556.848 96.6105 558.009 97.5753 558.801 98.8192C564.935 108.973 565.839 120.901 566.641 132.162C566.714 140.219 567.472 151.835 563.011 158.673C562.407 159.534 561.634 160.263 560.739 160.815C559.843 161.367 558.845 161.73 557.804 161.883C556.763 162.035 555.702 161.974 554.686 161.702C553.67 161.43 552.72 160.954 551.895 160.302Z" fill="#FBB921"/>
<path d="M597.301 155.05C587.927 150.06 575.507 115.244 574.356 104.614C573.33 98.4412 577.578 90.1376 585.424 92.5495C594.898 97.0527 599.408 107.427 602.422 116.377C604.952 124.713 615.884 161.026 597.301 155.05Z" fill="#FBB921"/>
<path fill-rule="evenodd" clip-rule="evenodd" d="M284.123 175.881C300.871 173.038 317.619 170.195 334.164 166.498C346.257 163.895 356.831 157.237 367.203 150.707L367.927 150.251C378.178 145.143 388.859 140.945 399.845 137.706C423.069 131.162 447.043 127.574 471.106 123.972C491.587 120.907 512.133 117.832 532.336 112.916C538.719 111.539 545.275 110.453 551.865 109.362C568.662 106.579 585.684 103.759 600.652 95.9868C652.869 68.0065 688.332 45.22 718.626 9.68469C722.147 5.46805 716.328 0.0609097 710.258 5.46804C679.018 43.4762 632.574 68.282 589.108 91.2481C576.91 96.3001 563.774 98.5328 550.685 100.757C545.154 101.697 539.632 102.636 534.193 103.785C505.355 109.989 476.311 114.384 447.361 118.765C440.03 119.875 432.705 120.983 425.391 122.12C403.908 125.965 383.007 132.552 363.201 141.72C361.634 142.651 360.076 143.6 358.518 144.548C349.794 149.861 341.09 155.162 330.907 157.241C316.649 160.696 302.113 162.974 287.593 165.249C280.948 166.29 274.306 167.331 267.695 168.484C260.312 169.609 253.022 171.238 245.74 172.866C230.471 176.278 215.239 179.683 199.27 178.417C159.011 179.026 129.533 160.371 98.7289 140.878C83.6899 131.361 68.3349 121.643 51.2551 113.87C48.3877 112.67 45.472 111.275 42.5045 109.855C32.26 104.953 21.3983 99.7562 9.77903 101.264C6.83526 102.588 8.94181 106.869 11.8059 105.838C40.4191 115.193 65.0027 130.892 89.2821 146.396C99.4383 152.882 109.541 159.334 119.864 165.273C152.086 184.334 189.797 191.964 226.895 186.93C245.77 182.392 264.947 179.137 284.123 175.881Z" fill="#666B23"/>
<path d="M106.337 162.959C106.285 162.853 106.255 162.737 106.249 162.618C106.244 162.5 106.262 162.382 106.304 162.271C106.346 162.161 106.41 162.06 106.493 161.975C106.575 161.89 106.674 161.822 106.783 161.777C107.009 161.674 107.265 161.659 107.501 161.734C107.737 161.81 107.936 161.971 108.059 162.186C108.111 162.293 108.141 162.408 108.147 162.527C108.153 162.645 108.134 162.763 108.092 162.874C108.05 162.985 107.986 163.086 107.904 163.171C107.821 163.256 107.722 163.323 107.613 163.368C107.387 163.471 107.131 163.486 106.895 163.411C106.659 163.335 106.46 163.174 106.337 162.959Z" fill="#AE2927"/>
<path d="M116.905 184.873C112.338 184.203 108.222 181.754 105.454 178.061C102.686 174.367 101.492 169.729 102.132 165.158C102.656 160.824 107.247 152.886 112.594 157.111C115.682 160.564 110.707 163.449 110.804 166.848C111.038 171.081 112.938 175.05 116.09 177.885C117.456 178.193 118.212 179.627 119.222 180.437C119.808 181.015 120.18 181.775 120.276 182.593C120.407 184.32 118.531 185.23 116.905 184.873Z" fill="#AE2927"/>
<path d="M114.895 207.149C113.854 207.398 112.758 207.231 111.839 206.683C110.92 206.136 110.251 205.251 109.974 204.217C109.534 202.123 111.405 200.571 112.904 199.265C117.562 194.76 122.428 189.408 123.07 182.627C123.014 181.634 122.957 180.642 122.902 179.682C122.848 178.721 121.961 177.808 121.648 176.83C121.567 176.569 121.538 176.294 121.564 176.022C121.591 175.749 121.671 175.485 121.801 175.244C121.931 175.003 122.108 174.791 122.321 174.619C122.534 174.448 122.78 174.321 123.043 174.246C123.234 174.102 123.464 174.018 123.703 174.005C123.943 173.991 124.18 174.048 124.387 174.169C126.042 175.383 127.325 177.034 128.095 178.936C130.357 182.765 131.151 187.286 130.329 191.657C129.334 195.362 127.385 198.742 124.677 201.46C121.969 204.178 118.596 206.14 114.895 207.149Z" fill="#AE2927"/>
<path d="M132.922 294.256C129.36 293.174 129.696 289.493 131.748 287.161C133.529 284.727 135.028 282.099 136.216 279.326C137.831 275.102 138.43 270.557 137.966 266.058C137.748 263.894 137.271 261.765 136.545 259.715C136.114 258.838 135.925 257.862 135.998 256.888C136.459 255.384 138.035 256.001 138.798 256.985C143.341 254.414 146.855 266.483 147.483 269.627C148.046 272.86 147.894 276.177 147.036 279.345C146.179 282.512 144.638 285.453 142.521 287.96C140.216 290.918 137.133 294.884 132.922 294.256Z" fill="#AE2927"/>
<path d="M158.902 263.679C157.621 264.153 156.227 264.232 154.901 263.906C154.362 263.763 153.87 263.481 153.473 263.088C152.876 262.998 152.317 262.74 151.86 262.346C151.403 261.952 151.066 261.436 150.889 260.859C150.712 260.282 150.702 259.667 150.859 259.084C151.016 258.501 151.334 257.974 151.777 257.564C152.714 256.964 153.707 256.456 154.742 256.046C157.54 254.271 159.879 251.86 161.568 249.009C162.984 246.886 163.942 244.49 164.38 241.976C164.341 241.304 164.303 240.631 164.263 239.927C164.216 239.521 164.264 239.109 164.402 238.724C164.54 238.339 164.765 237.991 165.06 237.707C165.354 237.423 165.71 237.21 166.1 237.086C166.49 236.962 166.903 236.93 167.308 236.991C170.544 237.417 170.404 242.853 170.64 245.313C170.812 249.21 169.776 253.065 167.676 256.352C165.575 259.639 162.511 262.198 158.902 263.679Z" fill="#AE2927"/>
<path d="M486.988 141.739C480.415 139.126 490.326 129.857 487.14 122.973C486.521 120.175 485.273 117.555 483.492 115.311C482.836 114.953 482.319 114.388 482.02 113.703C481.721 113.019 481.658 112.255 481.841 111.531C482.025 110.807 482.443 110.164 483.032 109.704C483.62 109.244 484.344 108.993 485.091 108.989C489.384 106.529 493.401 112.788 495.118 115.87C496.963 119.254 497.852 123.075 497.693 126.926C497.533 130.776 496.329 134.511 494.211 137.73C492.731 139.934 490.161 142.746 486.988 141.739Z" fill="#AE2927"/>
<path d="M508.656 161.253C504.861 159.31 501.902 156.054 500.33 152.092C498.604 148.086 497.885 143.718 498.237 139.37C498.588 135.022 499.999 130.826 502.346 127.149C504.391 124.142 509.81 121.714 512.465 125.481C514.421 128.806 511.434 132.188 510.131 135.25C508.189 139.963 507.821 145.177 509.082 150.116C509.585 152.126 510.299 154.077 511.212 155.937C511.706 156.77 512.042 157.687 512.201 158.642C512.178 159.063 512.062 159.472 511.862 159.842C511.662 160.212 511.383 160.534 511.044 160.783C510.705 161.033 510.315 161.204 509.903 161.285C509.49 161.367 509.064 161.356 508.656 161.253Z" fill="#AE2927"/>
<path d="M516.015 214.987C512.835 215.553 509.765 212.966 511.377 209.694C512.131 208.27 513.776 207.823 514.944 206.89C519.567 203.606 522.738 198.66 523.793 193.089C524.346 189.816 524.609 186.502 524.579 183.184C524.378 182.075 524.562 180.931 525.101 179.942C525.315 179.42 525.663 178.963 526.11 178.618C526.557 178.274 527.087 178.053 527.646 177.979C528.206 177.905 528.775 177.98 529.296 178.196C529.818 178.412 530.273 178.762 530.615 179.21C531.366 180.165 531.997 181.208 532.495 182.315C534.19 185.698 535.014 189.45 534.893 193.231C534.772 197.012 533.709 200.704 531.8 203.971C528.124 209.351 522.853 214.372 516.015 214.987Z" fill="#AE2927"/>
<path d="M549.715 224.663C547.235 223.919 544.964 222.601 543.088 220.816C541.212 219.032 539.783 216.83 538.917 214.389C536.092 208.178 535.467 201.19 537.146 194.577C538.461 190.583 540.88 185.692 545.542 185.202C550.042 185.267 550.552 190.28 548.836 193.429C545.941 198.99 542.71 204.859 545.195 211.27C546.704 215.154 549.332 218.502 552.745 220.893C554.884 223.501 552.415 225.826 549.715 224.663Z" fill="#AE2927"/>
<path d="M547.913 177.197C541.728 176.875 533.71 174.248 531.86 167.705C531.426 167.407 531.059 167.021 530.784 166.573C530.509 166.124 530.332 165.623 530.263 165.101C530.194 164.58 530.236 164.05 530.385 163.545C530.535 163.041 530.789 162.573 531.13 162.173C531.472 161.773 531.894 161.45 532.37 161.224C532.845 160.998 533.362 160.874 533.888 160.86C534.414 160.847 534.937 160.945 535.422 161.147C535.908 161.349 536.346 161.65 536.708 162.033C538.184 163.498 540 164.575 541.993 165.168C546.442 167.068 551.424 167.309 556.035 165.846C556.634 165.679 557.264 165.66 557.872 165.792C558.479 165.924 559.045 166.202 559.521 166.602C559.996 167.002 560.367 167.513 560.6 168.089C560.833 168.665 560.922 169.289 560.86 169.908C559.605 174.379 552.37 177.618 547.913 177.197Z" fill="#AE2927"/>
<path d="M623.828 114.903C614.927 113.708 606.69 107.239 606.191 98.467C605.354 95.8896 605.445 93.1006 606.448 90.5833C606.869 89.6185 607.583 88.8108 608.489 88.2752C609.395 87.7397 610.447 87.5035 611.495 87.6004C612.543 87.6973 613.534 88.1223 614.326 88.8149C615.119 89.5075 615.673 90.4324 615.909 91.458C616.24 94.5424 616.941 97.5758 617.997 100.493C619.041 102.854 620.691 104.898 622.78 106.415C624.869 107.932 627.322 108.869 629.891 109.13C630.448 109.141 630.991 109.308 631.459 109.611C631.926 109.915 632.299 110.344 632.535 110.849C632.771 111.353 632.861 111.914 632.794 112.468C632.728 113.021 632.507 113.545 632.158 113.979C631.544 114.452 630.836 114.788 630.082 114.964C629.327 115.14 628.544 115.152 627.784 114.999C626.491 115.403 625.1 115.37 623.828 114.903Z" fill="#AE2927"/>
<path d="M638.615 101.02C638.046 100.909 637.516 100.653 637.075 100.276C636.635 99.9001 636.299 99.4165 636.1 98.8723C635.901 98.3281 635.846 97.7418 635.94 97.1701C636.034 96.5983 636.274 96.0605 636.636 95.6087C637.525 94.5475 638.341 93.428 639.079 92.2578C640.846 88.9682 641.842 85.3199 641.991 81.5889C642.141 77.8578 641.439 74.1416 639.941 70.7214C639.311 70.3144 638.816 69.7292 638.519 69.0402C638.222 68.3513 638.137 67.5897 638.274 66.8521C638.411 66.1146 638.764 65.4344 639.289 64.898C639.813 64.3616 640.485 63.9932 641.219 63.8395C646.333 63.3878 651.188 69.6957 652.587 73.9521C654.196 77.9126 654.509 82.2809 653.481 86.4304C652.454 90.5799 650.139 94.2974 646.868 97.0497C645.847 98.2531 644.585 99.2284 643.163 99.9125C641.742 100.597 640.192 100.974 638.615 101.02Z" fill="#AE2927"/>
<path d="M413.872 151.104C413.076 151.153 412.29 150.904 411.667 150.405C411.045 149.906 410.631 149.193 410.506 148.405C410.41 146.708 410.121 145.022 409.959 143.297C409.683 143.025 409.468 142.698 409.326 142.338C409.308 142.017 409.129 141.706 409.047 141.39C407.505 143.084 405.575 142.455 403.829 141.687C403.603 143.37 404.071 145.945 402.089 146.668C401.771 146.81 401.426 146.88 401.078 146.876C400.73 146.871 400.388 146.791 400.074 146.641C399.76 146.49 399.482 146.274 399.26 146.006C399.038 145.739 398.877 145.426 398.787 145.09C398.035 139.769 397.97 126.218 404.175 124.066C404.673 123.519 405.298 123.103 405.996 122.856C406.694 122.609 407.441 122.539 408.173 122.65C414.42 124.061 414.943 132.125 415.58 137.1C415.788 140.749 416.157 144.422 416.399 148.102C416.419 148.825 416.173 149.53 415.707 150.084C415.241 150.638 414.588 151.001 413.872 151.104Z" fill="#FBB921"/>
<path d="M556.546 118.99C556.118 118.91 555.71 118.745 555.348 118.503C554.986 118.261 554.677 117.948 554.44 117.583C554.203 117.218 554.042 116.808 553.969 116.379C553.895 115.95 553.909 115.51 554.011 115.087C553.388 114.776 552.837 114.337 552.396 113.798C552.179 114.694 552.027 115.604 551.941 116.522C551.954 116.732 551.913 116.942 551.823 117.133C551.733 117.323 551.596 117.488 551.425 117.611C551.13 117.824 550.769 117.923 550.407 117.891C550.045 117.858 549.707 117.696 549.455 117.434C549.01 116.916 548.67 116.315 548.457 115.666C548.244 115.017 548.16 114.332 548.212 113.651C547.946 111.351 547.987 109.027 548.333 106.738C548.575 104.51 549.426 102.391 550.792 100.614C552.158 98.8364 553.987 97.4692 556.078 96.6617C557.518 96.4731 558.983 96.6248 560.355 97.1044C561.726 97.5841 562.966 98.3786 563.975 99.424C566.088 102.138 567.338 105.423 567.564 108.855C567.699 111.224 568.562 114.548 565.702 115.642C564.997 115.897 564.232 115.93 563.508 115.735C562.785 115.541 562.139 115.129 561.657 114.555C560.976 113.441 560.533 112.198 560.357 110.904C560.173 112.745 559.957 114.588 559.837 116.425C559.74 117.202 559.339 117.908 558.722 118.389C558.105 118.87 557.322 119.086 556.546 118.99Z" fill="#FBB921"/>
<path d="M288.713 186.27C288.35 185.52 288.016 184.736 287.714 183.95C286.259 184.9 285.647 182.622 285.08 181.691C284.038 179.829 283.103 177.909 282.28 175.941C281.466 174.099 281.015 172.118 280.952 170.106C281.708 163.64 289.814 162.729 294.453 166.351C296.713 168.065 298.694 170.119 300.324 172.44C301.486 174.237 303.377 175.864 303.535 178.071C303.544 178.695 303.37 179.308 303.035 179.834C302.701 180.361 302.22 180.778 301.652 181.036C301.083 181.293 300.452 181.379 299.836 181.283C299.219 181.187 298.644 180.913 298.181 180.496C297.166 179.59 296.207 178.552 295.222 177.613C295.347 178.271 295.301 178.95 295.09 179.586C294.879 180.222 294.509 180.793 294.016 181.247L293.792 181.259C294.085 181.885 294.379 182.543 294.705 183.199C294.906 183.582 295.026 184.003 295.06 184.434C295.093 184.866 295.039 185.3 294.9 185.71C294.761 186.12 294.541 186.498 294.253 186.82C293.964 187.143 293.613 187.404 293.221 187.587C292.44 187.966 291.546 188.042 290.713 187.798C289.88 187.555 289.167 187.01 288.713 186.27Z" fill="#FBB921"/>
<path d="M82.868 164.167C81.7444 161.918 85.248 160.273 86.4961 162.45C87.7442 164.628 84.1198 166.408 82.868 164.167Z" fill="#E1853F"/>
<path d="M86.5735 167.265C85.0466 164.14 89.9224 161.775 91.6734 164.887C93.4244 167.999 88.4187 170.34 86.5735 167.265Z" fill="#E1853F"/>
<path d="M92.2403 174.778C91.4147 173.251 91.2351 170.66 93.3509 170.026C93.6613 169.921 93.9894 169.879 94.3162 169.902C94.643 169.926 94.9619 170.014 95.2543 170.161C95.5467 170.309 95.8068 170.514 96.0193 170.763C96.2319 171.012 96.3928 171.301 96.4925 171.613C99.0238 174.328 94.4322 177.737 92.2403 174.778Z" fill="#E1853F"/>
<path d="M76.7225 176.465C75.2303 173.948 76.2235 170.519 79.6196 170.936C80.107 171.008 80.5686 171.201 80.9624 171.497C81.3562 171.793 81.6695 172.183 81.8739 172.631C82.0782 173.079 82.1671 173.571 82.1323 174.063C82.0976 174.554 81.9403 175.029 81.6749 175.444C80.7187 177.265 78.3283 178.718 76.7225 176.465Z" fill="#E1853F"/>
<path d="M84.0575 182.889C80.6015 184.242 81.09 179.846 81.3044 177.971C82.6495 171.695 93.128 176.912 84.0575 182.889Z" fill="#E1853F"/>
<path d="M86.1973 190.026C85.6292 189.691 85.208 189.154 85.0173 188.522C84.8267 187.89 84.8805 187.21 85.1681 186.616C85.4317 186.145 85.8209 185.756 86.2925 185.492C87.0376 178.833 95.6418 180.463 93.0721 186.102C91.5505 188.148 89.2219 191.813 86.1973 190.026Z" fill="#E1853F"/>
<path d="M75.1322 196.501C72.5054 195.494 73.9221 192.169 73.4231 190.174C73.3629 189.424 73.5688 188.676 74.0046 188.062C74.4404 187.448 75.0784 187.007 75.8067 186.816C76.5351 186.625 77.3073 186.697 77.9882 187.018C78.6691 187.34 79.2152 187.89 79.5308 188.574C80.383 190.003 79.5046 191.498 78.875 192.851C78.2454 194.204 77.6465 197.225 75.1322 196.501Z" fill="#E1853F"/>
<path d="M81.5218 201.565C81.0663 201.715 80.5711 201.685 80.1364 201.483C79.7016 201.282 79.3596 200.922 79.1795 200.478C79.1472 200.331 79.1385 200.18 79.154 200.03C79.0331 198.672 79.0414 197.306 79.1787 195.949C79.3696 195.369 79.7223 194.856 80.1953 194.469C80.6683 194.082 81.2419 193.839 81.8485 193.767C82.4552 193.696 83.0697 193.799 83.6197 194.065C84.1697 194.33 84.6324 194.748 84.9533 195.267C85.5923 196.901 84.2886 198.26 83.5611 199.586C83.1508 200.476 82.4239 201.182 81.5218 201.565Z" fill="#E1853F"/>
<path d="M82.5557 213.519C80.1476 212.404 81.8183 210.157 82.266 208.429C82.7136 206.701 83.7469 203.977 86.2667 204.797C86.7559 204.962 87.1911 205.257 87.5258 205.651C87.8605 206.044 88.0822 206.521 88.1672 207.03C88.2523 207.54 88.1975 208.063 88.0087 208.543C87.8199 209.024 87.5042 209.445 87.0953 209.76C85.8647 211.275 85.3517 214.677 82.5557 213.519Z" fill="#E1853F"/>
<path d="M131.899 197.863C131.488 197.798 131.095 197.647 130.747 197.42C130.398 197.192 130.102 196.894 129.877 196.544C129.652 196.194 129.504 195.8 129.442 195.389C129.38 194.978 129.406 194.558 129.517 194.157C129.629 193.756 129.824 193.384 130.09 193.064C130.356 192.744 130.686 192.484 131.06 192.3C131.433 192.117 131.841 192.015 132.257 192.001C132.673 191.986 133.087 192.06 133.472 192.217C134.096 192.524 134.592 193.04 134.876 193.674C135.16 194.309 135.213 195.023 135.026 195.692C134.84 196.362 134.425 196.945 133.854 197.342C133.283 197.738 132.591 197.922 131.899 197.863Z" fill="#E1853F"/>
<path d="M138.847 198.623C138.309 198.629 137.778 198.498 137.304 198.244C136.83 197.991 136.427 197.622 136.132 197.171C135.838 196.721 135.662 196.204 135.62 195.668C135.578 195.131 135.671 194.593 135.892 194.102C136.356 193.39 136.968 192.785 137.686 192.33C138.048 192.134 138.464 192.059 138.872 192.117C139.28 192.174 139.659 192.362 139.952 192.651C140.537 192.978 141.005 193.48 141.29 194.087C141.575 194.693 141.663 195.374 141.541 196.033C141.419 196.692 141.093 197.297 140.61 197.761C140.127 198.226 139.51 198.527 138.847 198.623Z" fill="#E1853F"/>
<path d="M147.279 198.336C146.816 198.472 146.327 198.488 145.856 198.383C145.385 198.277 144.949 198.055 144.587 197.735C144.226 197.416 143.951 197.01 143.789 196.556C143.627 196.101 143.583 195.613 143.66 195.137C143.823 194.036 144.756 193.501 145.452 192.755C145.606 192.476 145.85 192.258 146.144 192.135C146.438 192.013 146.765 191.993 147.071 192.08C147.378 192.167 147.646 192.355 147.832 192.613C148.018 192.872 148.111 193.186 148.096 193.504C148.501 193.808 148.814 194.217 149.002 194.687C149.189 195.157 149.244 195.67 149.159 196.169C149.075 196.668 148.855 197.134 148.523 197.516C148.192 197.898 147.761 198.182 147.279 198.336Z" fill="#E1853F"/>
<path d="M130.154 210.071C128.041 210.191 125.501 208.441 126.335 206.177C126.705 204.775 127.263 203.298 128.842 202.822C133.851 201.67 135.439 209.802 130.154 210.071Z" fill="#E1853F"/>
<path d="M135.84 210.678C133.183 209.127 134.663 206.923 135.505 204.787C135.495 204.295 135.659 203.816 135.969 203.434C136.278 203.051 136.712 202.791 137.195 202.698C137.678 202.605 138.178 202.686 138.608 202.926C139.037 203.167 139.367 203.551 139.54 204.011C140.222 204.239 140.813 204.68 141.227 205.268C141.641 205.857 141.855 206.563 141.838 207.282C141.822 208.001 141.575 208.696 141.135 209.265C140.695 209.834 140.084 210.247 139.392 210.443C138.889 210.829 138.284 211.057 137.652 211.098C137.02 211.14 136.389 210.994 135.84 210.678Z" fill="#E1853F"/>
<path d="M144.826 209.909C144.342 209.56 143.995 209.053 143.845 208.475C143.695 207.897 143.751 207.285 144.003 206.744C144.364 205.785 144.889 204.897 145.556 204.119C145.873 203.836 146.28 203.676 146.705 203.665C147.129 203.654 147.544 203.795 147.875 204.061C148.206 204.327 148.432 204.702 148.513 205.119C148.593 205.536 148.524 205.968 148.316 206.338C148.626 206.826 148.761 207.405 148.701 207.979C148.641 208.554 148.388 209.092 147.984 209.505C147.58 209.918 147.049 210.183 146.475 210.257C145.902 210.33 145.321 210.208 144.826 209.909Z" fill="#E1853F"/>
<path d="M129.014 223.882C126.678 224.593 124.727 223.612 124.798 220.91C124.779 220.369 124.898 219.833 125.143 219.35C125.388 218.867 125.752 218.454 126.199 218.15C126.647 217.846 127.164 217.659 127.703 217.609C128.242 217.558 128.785 217.645 129.281 217.861C129.889 218.113 130.405 218.546 130.758 219.101C131.112 219.657 131.286 220.308 131.256 220.965C131.227 221.623 130.996 222.255 130.595 222.777C130.194 223.299 129.642 223.685 129.014 223.882Z" fill="#E1853F"/>
<path d="M135.658 224.884C134.848 225.156 133.962 225.095 133.196 224.714C132.431 224.333 131.848 223.663 131.576 222.852C131.304 222.042 131.365 221.156 131.747 220.39C132.128 219.625 132.797 219.042 133.608 218.77C133.908 218.542 134.27 218.408 134.646 218.387C135.023 218.365 135.397 218.457 135.721 218.65C136.419 218.826 137.038 219.231 137.477 219.801C137.917 220.371 138.152 221.072 138.145 221.792C138.138 222.512 137.889 223.208 137.438 223.769C136.986 224.33 136.36 224.723 135.658 224.884Z" fill="#E1853F"/>
<path d="M143.825 224.58C143.468 224.431 143.145 224.21 142.876 223.932C142.607 223.654 142.397 223.324 142.259 222.963C142.121 222.601 142.059 222.215 142.075 221.828C142.091 221.442 142.185 221.062 142.353 220.713C142.592 219.832 142.789 218.793 143.946 218.792C144.224 218.781 144.5 218.85 144.741 218.99C144.982 219.13 145.178 219.335 145.307 219.582C145.97 219.778 146.528 220.23 146.858 220.837C147.187 221.445 147.262 222.159 147.066 222.822C146.869 223.485 146.417 224.042 145.81 224.372C145.202 224.702 144.488 224.777 143.825 224.58Z" fill="#E1853F"/>
<path d="M129.435 237.508C128.888 237.479 128.361 237.296 127.914 236.979C127.467 236.663 127.12 236.225 126.913 235.718C126.705 235.211 126.647 234.656 126.743 234.117C126.839 233.578 127.087 233.077 127.458 232.674C127.692 232.335 128.045 232.097 128.448 232.007C128.983 231.571 129.644 231.32 130.334 231.29C130.843 231.313 131.342 231.443 131.798 231.671C132.254 231.899 132.657 232.219 132.982 232.612C133.307 233.005 133.546 233.461 133.684 233.952C133.822 234.443 133.856 234.957 133.783 235.462C133.656 235.898 133.437 236.302 133.142 236.647C132.847 236.992 132.481 237.271 132.07 237.465C131.659 237.658 131.212 237.762 130.757 237.769C130.303 237.777 129.852 237.688 129.435 237.508Z" fill="#E1853F"/>
<path d="M139.724 237.115C136.563 238.002 135.165 233.2 137.684 231.739C137.963 231.41 138.352 231.193 138.779 231.127C139.206 231.062 139.642 231.152 140.008 231.382C140.645 231.567 141.202 231.962 141.587 232.503C141.972 233.043 142.164 233.698 142.131 234.361C142.098 235.024 141.843 235.656 141.406 236.156C140.969 236.656 140.377 236.994 139.724 237.115Z" fill="#E1853F"/>
<path d="M160.721 198.598C159.998 198.677 159.274 198.474 158.697 198.032C158.12 197.59 157.736 196.943 157.625 196.225C157.514 195.507 157.684 194.774 158.1 194.178C158.516 193.582 159.145 193.169 159.857 193.026C160.58 192.947 161.305 193.15 161.881 193.592C162.458 194.034 162.842 194.681 162.953 195.399C163.064 196.117 162.894 196.851 162.478 197.446C162.063 198.042 161.433 198.455 160.721 198.598Z" fill="#E1853F"/>
<path d="M166.084 197.426C165.654 197.034 165.354 196.521 165.224 195.954C165.095 195.388 165.141 194.795 165.357 194.255C165.609 193.599 166.129 193.151 166.283 192.468C166.808 189.837 170.939 190.758 170.155 193.34C170.697 193.88 171.002 194.613 171.003 195.378C171.005 196.142 170.702 196.877 170.162 197.418C169.622 197.96 168.889 198.265 168.124 198.267C167.359 198.268 166.625 197.966 166.084 197.426Z" fill="#E1853F"/>
<path d="M160.436 210.017C156.287 211.602 154.17 206.006 155.898 203.081C156.267 202.604 156.755 202.233 157.314 202.007C157.873 201.781 158.482 201.708 159.079 201.795C159.676 201.882 160.238 202.126 160.71 202.502C161.181 202.878 161.543 203.373 161.76 203.936C162.402 204.252 162.92 204.774 163.231 205.419C163.542 206.064 163.628 206.794 163.476 207.494C163.323 208.193 162.941 208.822 162.391 209.279C161.84 209.736 161.152 209.996 160.436 210.017Z" fill="#E1853F"/>
<path d="M167.535 210.029C163.838 210.529 162.804 203.65 166.983 204.279C167.39 204.18 167.813 204.17 168.224 204.249C168.635 204.328 169.024 204.494 169.365 204.736C169.706 204.979 169.991 205.292 170.2 205.654C170.409 206.016 170.539 206.419 170.579 206.836C170.619 207.252 170.568 207.672 170.432 208.068C170.295 208.463 170.075 208.825 169.786 209.128C169.498 209.431 169.147 209.668 168.759 209.823C168.371 209.979 167.953 210.049 167.535 210.029Z" fill="#E1853F"/>
<path d="M174.106 210.908C170.894 210.898 171.013 206.78 172.385 204.935C172.812 204.543 173.358 204.305 173.936 204.259C174.514 204.213 175.09 204.362 175.574 204.682C176.057 205.001 176.42 205.474 176.604 206.023C176.788 206.573 176.783 207.168 176.59 207.715C176.692 208.093 176.705 208.491 176.628 208.875C176.55 209.259 176.384 209.621 176.144 209.93C175.903 210.24 175.593 210.489 175.24 210.659C174.886 210.828 174.498 210.913 174.106 210.908Z" fill="#E1853F"/>
<path d="M158.83 221.767C158.264 221.851 157.685 221.757 157.175 221.497C156.664 221.237 156.247 220.825 155.982 220.318C155.716 219.81 155.616 219.233 155.693 218.665C155.771 218.098 156.023 217.569 156.416 217.151C156.566 216.722 156.838 216.345 157.199 216.068C157.559 215.791 157.993 215.625 158.447 215.59C159.129 215.659 159.786 215.887 160.365 216.256C160.944 216.624 161.428 217.123 161.779 217.713C161.988 218.177 162.071 218.688 162.019 219.195C161.967 219.701 161.781 220.185 161.482 220.596C161.183 221.008 160.78 221.333 160.314 221.539C159.848 221.745 159.336 221.823 158.83 221.767Z" fill="#E1853F"/>
<path d="M168.194 224.863C165.6 225.557 164.359 222.929 164.012 220.797C163.68 220.117 163.519 219.365 163.543 218.608C163.567 217.851 163.775 217.111 164.151 216.453C164.488 216.042 164.942 215.742 165.452 215.591C165.962 215.44 166.506 215.446 167.013 215.607C167.52 215.769 167.967 216.078 168.297 216.496C168.626 216.914 168.823 217.421 168.861 217.952C170.232 220.026 171.294 224.012 168.194 224.863Z" fill="#E1853F"/>
<path d="M173.654 223.203C173.287 223.153 172.938 223.009 172.642 222.787C172.345 222.564 172.11 222.27 171.959 221.931C171.808 221.593 171.746 221.221 171.778 220.852C171.811 220.482 171.937 220.127 172.145 219.82L172.624 219.215C172.772 218.927 172.993 218.682 173.265 218.505C173.536 218.329 173.849 218.226 174.173 218.208C174.496 218.189 174.819 218.256 175.109 218.4C175.399 218.545 175.646 218.763 175.826 219.032C175.949 219.256 176.021 219.504 176.036 219.759C176.05 220.014 176.007 220.269 175.91 220.505C176.007 220.839 176.021 221.191 175.95 221.532C175.879 221.872 175.725 222.189 175.502 222.456C175.279 222.723 174.994 222.93 174.672 223.061C174.349 223.191 174 223.24 173.654 223.203Z" fill="#E1853F"/>
<path d="M162.259 233.52C161.33 233.573 160.399 234.14 159.473 233.679C158.83 233.403 158.313 232.897 158.021 232.261C157.73 231.625 157.685 230.903 157.896 230.236C157.818 228.859 158.668 227.43 160.236 227.886C163.978 226.485 166.145 232.4 162.259 233.52Z" fill="#E1853F"/>
<path d="M289.315 181.578C288.968 181.653 288.607 181.642 288.264 181.547C287.922 181.451 287.608 181.272 287.35 181.027C287.092 180.782 286.898 180.478 286.785 180.141C286.672 179.803 286.643 179.444 286.701 179.093C286.753 178.88 286.74 178.657 286.664 178.452C286.568 178.032 286.643 177.591 286.872 177.225C287.101 176.86 287.466 176.6 287.886 176.504C288.307 176.408 288.748 176.482 289.114 176.711C289.479 176.941 289.738 177.305 289.835 177.726C290.203 177.929 290.501 178.238 290.69 178.614C290.879 178.989 290.95 179.413 290.894 179.83C290.838 180.246 290.657 180.636 290.375 180.948C290.093 181.26 289.724 181.479 289.315 181.578Z" fill="#E1853F"/>
<path d="M293.96 179.065C293.591 179.137 293.21 179.123 292.848 179.023C292.485 178.923 292.15 178.741 291.87 178.491C291.589 178.24 291.371 177.928 291.231 177.579C291.091 177.229 291.034 176.853 291.064 176.478C291.094 176.103 291.211 175.74 291.405 175.418C291.598 175.095 291.864 174.822 292.181 174.62C292.498 174.417 292.857 174.291 293.231 174.25C293.605 174.21 293.983 174.256 294.336 174.386C294.835 174.57 295.261 174.912 295.547 175.361C295.833 175.809 295.965 176.338 295.923 176.868C295.88 177.398 295.665 177.9 295.311 178.297C294.957 178.693 294.482 178.963 293.96 179.065Z" fill="#E1853F"/>
<path d="M299.33 176.35C298.935 176.389 298.535 176.333 298.166 176.186C297.796 176.04 297.467 175.808 297.205 175.509C296.943 175.21 296.756 174.852 296.66 174.467C296.563 174.081 296.56 173.678 296.651 173.291C296.589 172.202 297.5 171.283 298.451 172.193C298.741 172.085 299.05 172.04 299.359 172.063C299.667 172.085 299.967 172.174 300.237 172.323C300.508 172.472 300.744 172.677 300.928 172.925C301.112 173.174 301.241 173.459 301.305 173.761C301.368 174.063 301.366 174.376 301.298 174.678C301.231 174.979 301.098 175.262 300.911 175.508C300.724 175.754 300.485 175.956 300.213 176.102C299.94 176.247 299.639 176.332 299.33 176.35Z" fill="#E1853F"/>
<path d="M293.22 190.96C292.813 190.86 292.439 190.66 292.131 190.376C291.823 190.093 291.593 189.735 291.461 189.338C291.329 188.941 291.301 188.517 291.378 188.106C291.455 187.695 291.635 187.31 291.901 186.988C292.04 186.716 292.27 186.5 292.55 186.379C292.83 186.257 293.144 186.237 293.437 186.322C293.769 186.295 294.103 186.338 294.417 186.45C294.73 186.562 295.016 186.739 295.256 186.971C295.495 187.202 295.683 187.481 295.806 187.791C295.929 188.1 295.984 188.432 295.969 188.765C295.953 189.097 295.867 189.423 295.715 189.719C295.564 190.016 295.351 190.277 295.091 190.484C294.831 190.692 294.529 190.842 294.206 190.924C293.884 191.006 293.547 191.018 293.22 190.96Z" fill="#E1853F"/>
<path d="M296.759 187C296.735 186.841 296.726 186.68 296.732 186.52C296.651 186.217 296.633 185.901 296.679 185.591C296.773 185.216 296.96 184.869 297.223 184.585C297.486 184.3 297.817 184.087 298.184 183.963C298.551 183.84 298.944 183.811 299.325 183.879C299.707 183.948 300.065 184.111 300.367 184.354C300.659 184.56 300.901 184.829 301.075 185.142C301.249 185.454 301.35 185.802 301.37 186.159C301.39 186.517 301.33 186.874 301.193 187.204C301.055 187.535 300.845 187.83 300.578 188.067C300.276 188.31 299.92 188.478 299.54 188.556C299.161 188.634 298.768 188.62 298.394 188.516C298.021 188.411 297.678 188.219 297.393 187.956C297.109 187.692 296.892 187.364 296.759 187Z" fill="#E1853F"/>
<path d="M305.16 185.653C303.508 185.972 302.287 184.275 302.331 182.795C302.234 182.414 302.249 182.012 302.376 181.64C302.503 181.267 302.737 180.94 303.047 180.698C303.227 180.595 303.426 180.531 303.633 180.511C303.839 180.491 304.048 180.516 304.244 180.584C304.44 180.653 304.618 180.762 304.768 180.906C304.918 181.049 305.035 181.223 305.111 181.416C305.613 181.495 306.071 181.749 306.403 182.133C306.736 182.517 306.921 183.006 306.927 183.514C306.933 184.022 306.758 184.515 306.435 184.907C306.112 185.298 305.66 185.563 305.16 185.653Z" fill="#E1853F"/>
<path d="M299.34 199.732C298.904 199.685 298.49 199.512 298.15 199.235C297.809 198.958 297.556 198.589 297.421 198.171C297.201 197.939 297.046 197.652 296.972 197.341C296.898 197.029 296.907 196.704 296.998 196.397C297.09 196.164 297.229 195.952 297.407 195.776C297.585 195.6 297.798 195.463 298.032 195.374C298.301 195.138 298.622 194.97 298.969 194.883C299.316 194.796 299.679 194.794 300.027 194.875C300.613 195.029 301.122 195.392 301.457 195.896C301.793 196.4 301.931 197.01 301.846 197.61C301.761 198.209 301.459 198.757 300.997 199.148C300.535 199.539 299.945 199.747 299.34 199.732Z" fill="#E1853F"/>
<path d="M302.499 194.734C301.261 191.046 306.724 189.965 307.57 193.546C307.728 194.218 307.612 194.926 307.248 195.513C306.883 196.1 306.301 196.518 305.629 196.676C304.956 196.833 304.249 196.717 303.662 196.353C303.075 195.989 302.656 195.406 302.499 194.734Z" fill="#E1853F"/>
<path d="M308.459 193.4C308.374 193.116 308.345 192.817 308.374 192.522C308.404 192.227 308.491 191.94 308.631 191.679C308.771 191.417 308.962 191.186 309.191 190.998C309.421 190.81 309.685 190.669 309.969 190.584C310.253 190.498 310.552 190.469 310.847 190.498C311.142 190.528 311.429 190.615 311.69 190.755C311.952 190.895 312.183 191.086 312.371 191.315C312.559 191.545 312.7 191.809 312.785 192.093C312.959 192.667 312.897 193.286 312.614 193.814C312.331 194.342 311.849 194.736 311.276 194.909C310.702 195.083 310.083 195.021 309.555 194.738C309.027 194.455 308.633 193.973 308.459 193.4Z" fill="#E1853F"/>
<path d="M305.792 204.729C305.266 204.795 304.732 204.69 304.27 204.429C303.808 204.168 303.442 203.765 303.227 203.28C303.012 202.795 302.959 202.253 303.076 201.736C303.193 201.218 303.473 200.752 303.876 200.406C304.168 200.155 304.515 199.976 304.889 199.883C305.262 199.79 305.653 199.786 306.028 199.871C306.404 199.956 306.754 200.127 307.052 200.372C307.349 200.616 307.586 200.927 307.742 201.279C307.898 201.631 307.969 202.015 307.951 202.399C307.932 202.784 307.824 203.159 307.634 203.494C307.445 203.829 307.179 204.116 306.86 204.33C306.54 204.545 306.174 204.681 305.792 204.729Z" fill="#E1853F"/>
<path d="M307.024 213.33C305.776 213.402 305.301 211.823 305.529 210.75C305.601 210.424 305.748 210.12 305.956 209.859C306.165 209.599 306.431 209.391 306.733 209.249C307.035 209.108 307.366 209.038 307.7 209.044C308.033 209.051 308.361 209.134 308.657 209.287C309.186 209.508 309.607 209.929 309.827 210.459C310.048 210.988 310.052 211.583 309.837 212.115C309.622 212.646 309.207 213.072 308.68 213.3C308.154 213.527 307.559 213.538 307.024 213.33Z" fill="#E1853F"/>
<path d="M312.073 204.468C311.481 204.461 310.911 204.236 310.474 203.835C310.037 203.434 309.764 202.886 309.707 202.296C309.649 201.706 309.812 201.115 310.163 200.638C310.514 200.16 311.029 199.829 311.61 199.708C311.94 199.639 312.282 199.641 312.612 199.713C312.942 199.785 313.253 199.925 313.525 200.125C313.797 200.325 314.024 200.581 314.191 200.874C314.358 201.168 314.461 201.493 314.494 201.83C314.527 202.166 314.488 202.505 314.381 202.825C314.274 203.146 314.101 203.44 313.872 203.689C313.644 203.938 313.366 204.136 313.056 204.27C312.746 204.404 312.411 204.471 312.073 204.468Z" fill="#E1853F"/>
<path d="M320.172 176.384C319.751 176.373 319.337 176.272 318.959 176.086C318.581 175.9 318.248 175.635 317.982 175.308C317.716 174.982 317.524 174.601 317.419 174.194C317.314 173.786 317.299 173.36 317.374 172.946C317.206 172.554 317.14 172.126 317.183 171.702C317.226 171.278 317.377 170.872 317.622 170.523C317.968 170.068 318.456 169.741 319.008 169.595C319.561 169.449 320.147 169.492 320.672 169.716C321.198 169.941 321.634 170.335 321.91 170.835C322.186 171.336 322.287 171.914 322.198 172.479C322.451 172.851 322.598 173.286 322.625 173.736C322.651 174.186 322.556 174.635 322.348 175.035C322.141 175.435 321.829 175.772 321.446 176.009C321.062 176.246 320.622 176.376 320.172 176.384Z" fill="#E1853F"/>
<path d="M326.441 174.164C326.122 174.129 325.815 174.023 325.543 173.853C325.271 173.683 325.04 173.455 324.867 173.184C324.695 172.914 324.585 172.608 324.546 172.29C324.507 171.971 324.54 171.648 324.643 171.344C324.661 171.417 324.665 171.493 324.655 171.568C324.774 171.134 325.027 170.749 325.376 170.466C325.726 170.183 326.156 170.017 326.605 169.992C327.054 169.966 327.5 170.082 327.88 170.324C328.259 170.565 328.554 170.919 328.721 171.337C328.858 171.68 328.901 172.054 328.846 172.419C328.791 172.785 328.64 173.129 328.408 173.417C328.176 173.705 327.871 173.926 327.526 174.057C327.18 174.188 326.806 174.225 326.441 174.164Z" fill="#E1853F"/>
<path d="M323.081 185.662C322.619 185.718 322.15 185.644 321.727 185.448C321.304 185.252 320.944 184.942 320.688 184.553C320.432 184.163 320.29 183.71 320.278 183.244C320.266 182.778 320.384 182.318 320.62 181.916C320.618 181.604 320.718 181.3 320.904 181.05C321.089 180.799 321.351 180.616 321.649 180.526C321.948 180.437 322.268 180.447 322.56 180.554C322.853 180.662 323.103 180.861 323.273 181.122C323.774 181.269 324.212 181.58 324.516 182.005C324.821 182.43 324.974 182.945 324.952 183.467C324.93 183.989 324.734 184.489 324.395 184.887C324.056 185.284 323.594 185.557 323.081 185.662Z" fill="#E1853F"/>
<path d="M327.14 184.692C325.006 183.882 325.709 181.562 326.23 179.99C326.362 179.686 326.597 179.437 326.894 179.289C327.191 179.141 327.531 179.102 327.854 179.179C328.177 179.257 328.462 179.446 328.659 179.713C328.857 179.98 328.953 180.308 328.933 180.639C329.47 180.877 329.891 181.318 330.103 181.867C330.315 182.415 330.3 183.025 330.063 183.562C329.825 184.099 329.383 184.52 328.835 184.732C328.287 184.944 327.677 184.93 327.14 184.692Z" fill="#E1853F"/>
<path d="M330.099 176.975C329.992 176.487 330.076 175.977 330.333 175.548C330.591 175.12 331.003 174.807 331.484 174.672C331.965 174.538 332.48 174.593 332.922 174.826C333.364 175.059 333.7 175.453 333.861 175.926C333.968 176.414 333.884 176.925 333.627 177.353C333.369 177.781 332.957 178.095 332.476 178.229C331.994 178.363 331.48 178.308 331.038 178.075C330.596 177.842 330.26 177.448 330.099 176.975Z" fill="#E1853F"/>
<path d="M332.186 193.847C331.723 193.717 331.319 193.434 331.039 193.043C330.759 192.653 330.62 192.179 330.645 191.699C330.67 191.22 330.857 190.763 331.176 190.404C331.496 190.045 331.927 189.805 332.401 189.724C332.516 189.628 332.651 189.562 332.797 189.53C332.943 189.499 333.094 189.503 333.238 189.542C333.382 189.581 333.514 189.654 333.624 189.755C333.734 189.856 333.818 189.982 333.869 190.122C334.26 190.402 334.543 190.81 334.668 191.276C334.793 191.741 334.753 192.235 334.554 192.674C334.356 193.113 334.011 193.47 333.58 193.684C333.148 193.898 332.655 193.955 332.186 193.847Z" fill="#E1853F"/>
<path d="M327.283 196.278C326.805 196.272 326.34 196.117 325.954 195.836C325.567 195.555 325.277 195.16 325.125 194.707C324.972 194.254 324.964 193.764 325.101 193.306C325.238 192.848 325.515 192.444 325.892 192.15C326.048 191.802 326.318 191.517 326.657 191.34C326.995 191.164 327.384 191.107 327.759 191.179C328.134 191.25 328.474 191.446 328.724 191.734C328.975 192.022 329.121 192.386 329.139 192.768C329.808 194.368 329.11 196.206 327.283 196.278Z" fill="#E1853F"/>
<path d="M322.424 197.229C322.036 197.222 321.654 197.122 321.312 196.938C320.97 196.753 320.678 196.49 320.458 196.169C320.239 195.848 320.099 195.48 320.051 195.094C320.003 194.709 320.048 194.317 320.182 193.952C320.1 193.704 320.068 193.442 320.087 193.181C320.107 192.92 320.177 192.666 320.295 192.432C320.413 192.199 320.576 191.991 320.775 191.82C320.973 191.65 321.203 191.52 321.452 191.439C323.669 190.895 324.051 193.09 324.559 194.667C324.609 194.979 324.591 195.298 324.508 195.603C324.424 195.907 324.276 196.191 324.074 196.433C323.872 196.676 323.62 196.873 323.335 197.01C323.051 197.147 322.74 197.222 322.424 197.229Z" fill="#E1853F"/>
<path d="M324.085 205.518C323.792 205.263 323.554 204.952 323.383 204.603C323.213 204.254 323.114 203.875 323.092 203.487C323.07 203.1 323.125 202.712 323.255 202.346C323.385 201.98 323.586 201.643 323.848 201.356L323.818 200.844C323.787 200.616 323.809 200.384 323.881 200.166C323.953 199.947 324.075 199.748 324.236 199.584C324.397 199.42 324.594 199.295 324.811 199.218C325.028 199.142 325.26 199.116 325.488 199.143C325.759 199.169 326.019 199.265 326.241 199.421C326.464 199.577 326.643 199.789 326.759 200.034C326.977 200.472 326.81 200.931 326.836 201.379C327.252 201.792 327.512 202.337 327.571 202.921C327.631 203.504 327.485 204.091 327.161 204.579C326.836 205.068 326.352 205.428 325.791 205.6C325.23 205.771 324.627 205.742 324.085 205.518Z" fill="#E1853F"/>
<path d="M332.005 203.076C331.581 203.077 331.165 202.958 330.805 202.732C330.446 202.506 330.157 202.183 329.974 201.8C329.791 201.417 329.72 200.99 329.77 200.568C329.82 200.147 329.988 199.748 330.255 199.418C330.313 199.069 330.468 198.744 330.703 198.48C330.938 198.217 331.244 198.025 331.584 197.929C331.912 197.844 332.256 197.844 332.583 197.929C332.911 198.014 333.212 198.181 333.457 198.415C333.701 198.649 333.883 198.941 333.983 199.265C334.083 199.588 334.099 199.932 334.029 200.263C334.127 200.584 334.149 200.923 334.094 201.253C334.039 201.584 333.909 201.898 333.713 202.17C333.517 202.442 333.261 202.665 332.965 202.823C332.669 202.98 332.341 203.066 332.005 203.076Z" fill="#E1853F"/>
<path d="M329.504 212.757C327.991 213.26 327.213 211.442 327.462 210.175C327.522 209.921 327.648 209.688 327.828 209.498C328.008 209.309 328.234 209.171 328.485 209.098C328.736 209.025 329.001 209.019 329.254 209.082C329.508 209.146 329.739 209.275 329.927 209.457C331.137 210.416 331.153 212.374 329.504 212.757Z" fill="#E1853F"/>
<path d="M367.349 155.39C364.657 153.231 368.277 149.685 370.543 152.254C370.908 152.686 371.096 153.241 371.07 153.806C371.043 154.372 370.804 154.906 370.4 155.303C369.997 155.7 369.458 155.929 368.892 155.945C368.326 155.961 367.775 155.763 367.349 155.39Z" fill="#E1853F"/>
<path d="M374.44 154.055C371.079 154.247 370.947 149.115 374.372 149.466C374.937 149.52 375.463 149.781 375.849 150.199C376.234 150.617 376.452 151.162 376.46 151.73C376.469 152.299 376.267 152.85 375.895 153.279C375.522 153.708 375.004 153.984 374.44 154.055Z" fill="#E1853F"/>
<path d="M378.714 151.885C378.345 151.409 378.17 150.811 378.225 150.211C378.281 149.612 378.562 149.056 379.012 148.656C379.043 148.328 379.191 148.022 379.428 147.794C379.666 147.565 379.977 147.43 380.306 147.411C380.635 147.392 380.959 147.492 381.221 147.692C381.483 147.892 381.664 148.179 381.733 148.501C385.115 150.364 381.352 154.786 378.714 151.885Z" fill="#E1853F"/>
<path d="M367.808 164.487C367.299 164.339 366.859 164.013 366.57 163.569C366.281 163.124 366.161 162.59 366.232 162.065C366.303 161.539 366.561 161.057 366.958 160.705C367.356 160.354 367.866 160.156 368.396 160.15C368.714 160.146 369.029 160.21 369.32 160.339C369.611 160.468 369.871 160.658 370.082 160.896C370.292 161.134 370.449 161.415 370.542 161.719C370.634 162.023 370.66 162.344 370.617 162.659C370.574 162.975 370.464 163.277 370.294 163.546C370.124 163.814 369.898 164.043 369.631 164.217C369.365 164.39 369.064 164.504 368.749 164.551C368.435 164.597 368.114 164.576 367.808 164.487Z" fill="#E1853F"/>
<path d="M373.501 163.552C373.205 163.48 372.926 163.347 372.684 163.162C372.441 162.977 372.239 162.743 372.091 162.476C371.744 161.954 371.593 161.327 371.664 160.704C371.735 160.081 372.023 159.503 372.478 159.072C372.933 158.641 373.526 158.385 374.151 158.348C374.777 158.311 375.396 158.496 375.898 158.87C376.401 159.244 376.755 159.784 376.899 160.394C377.043 161.004 376.967 161.645 376.684 162.205C376.401 162.764 375.93 163.206 375.354 163.452C374.778 163.698 374.133 163.733 373.533 163.551L373.501 163.552Z" fill="#E1853F"/>
<path d="M380.043 162.826C379.333 162.909 378.618 162.707 378.057 162.263C377.495 161.819 377.133 161.17 377.05 160.459C376.967 159.748 377.17 159.034 377.614 158.472C378.058 157.911 378.706 157.549 379.417 157.466C380.128 157.383 380.843 157.586 381.404 158.03C381.965 158.473 382.327 159.122 382.41 159.833C382.493 160.544 382.291 161.258 381.847 161.82C381.403 162.381 380.754 162.743 380.043 162.826Z" fill="#E1853F"/>
<path d="M369.146 173.372C368.658 173.001 368.304 172.482 368.137 171.893C367.971 171.303 368 170.676 368.222 170.104C368.443 169.533 368.844 169.05 369.365 168.727C369.885 168.404 370.497 168.259 371.107 168.314C371.555 168.381 371.982 168.552 372.355 168.811C372.727 169.071 373.034 169.413 373.252 169.811C373.471 170.209 373.594 170.651 373.614 171.105C373.633 171.558 373.548 172.01 373.364 172.425C373.179 172.795 372.914 173.119 372.588 173.374C372.262 173.629 371.884 173.809 371.48 173.899C371.076 173.99 370.657 173.99 370.254 173.898C369.85 173.807 369.472 173.627 369.146 173.372Z" fill="#E1853F"/>
<path d="M376.577 171.311C373.769 169.383 377.175 164.339 379.541 166.966C379.888 167.132 380.195 167.37 380.441 167.665C380.688 167.96 380.867 168.305 380.967 168.675C381.068 169.046 381.086 169.435 381.022 169.814C380.958 170.192 380.813 170.553 380.596 170.87C380.38 171.188 380.097 171.454 379.768 171.652C379.438 171.85 379.07 171.974 378.688 172.016C378.306 172.058 377.919 172.016 377.555 171.895C377.191 171.773 376.857 171.574 376.577 171.311Z" fill="#E1853F"/>
<path d="M373.503 178.23C373.51 178.069 373.501 177.908 373.476 177.75C373.082 177.256 372.884 176.635 372.919 176.005C372.954 175.375 373.22 174.78 373.667 174.334C374.07 173.947 374.585 173.696 375.138 173.614C375.691 173.533 376.256 173.626 376.754 173.88C377.252 174.134 377.659 174.537 377.917 175.032C378.176 175.528 378.275 176.092 378.199 176.646C377.859 178.014 377.452 179.9 375.927 180.18C375.634 180.252 375.329 180.255 375.036 180.19C374.742 180.125 374.467 179.993 374.232 179.804C373.998 179.616 373.81 179.375 373.684 179.102C373.557 178.829 373.495 178.531 373.503 178.23Z" fill="#E1853F"/>
<path d="M400.97 134.912C400.76 131.23 403.682 130.646 404.854 134.305C404.894 134.56 404.883 134.821 404.822 135.072C404.761 135.323 404.652 135.559 404.5 135.767C404.347 135.976 404.156 136.152 403.935 136.287C403.715 136.421 403.47 136.511 403.215 136.551C402.96 136.59 402.7 136.58 402.449 136.519C402.198 136.458 401.962 136.348 401.753 136.196C401.545 136.044 401.368 135.852 401.234 135.632C401.1 135.412 401.01 135.167 400.97 134.912Z" fill="#E1853F"/>
<path d="M408.513 135.993C405.577 135.775 405.722 132.105 407.807 130.926C409.892 129.748 410.684 131.822 410.892 133.224C410.963 133.569 410.954 133.926 410.865 134.267C410.777 134.608 410.611 134.925 410.382 135.192C410.152 135.459 409.864 135.67 409.54 135.809C409.216 135.948 408.865 136.011 408.513 135.993Z" fill="#E1853F"/>
<path d="M403.76 145C400.271 145.198 400.704 139.264 404.071 140.293C406.279 141.291 406.482 144.845 403.76 145Z" fill="#E1853F"/>
<path d="M409.153 144.307C405.151 144.534 406.163 138.053 409.727 139.167C411.842 140.203 411.808 144.123 409.153 144.307Z" fill="#E1853F"/>
<path d="M412.413 142.323C412.069 141.896 411.89 141.36 411.906 140.811C411.921 140.263 412.132 139.739 412.499 139.331C413.311 138.354 414.772 139.202 415.3 140.007C415.552 140.394 415.651 140.86 415.578 141.316C415.505 141.772 415.265 142.184 414.905 142.473C414.545 142.762 414.091 142.906 413.63 142.879C413.17 142.851 412.736 142.653 412.413 142.323Z" fill="#E1853F"/>
<path d="M412.418 151.477C412.089 151.465 411.768 151.368 411.487 151.196C411.205 151.025 410.972 150.784 410.811 150.496C410.649 150.209 410.565 149.885 410.564 149.555C410.564 149.225 410.649 148.901 410.81 148.613C411.093 148.201 411.403 147.808 411.739 147.436C412.972 146.531 413.621 147.779 414.156 148.712C414.319 149.003 414.401 149.333 414.392 149.667C414.384 150.001 414.286 150.327 414.108 150.61C413.93 150.893 413.679 151.123 413.382 151.275C413.085 151.428 412.752 151.497 412.418 151.477Z" fill="#E1853F"/>
<path d="M407.921 153.241C407.627 153.268 407.331 153.223 407.059 153.111C406.786 152.998 406.545 152.822 406.355 152.596C406.166 152.37 406.034 152.101 405.97 151.813C405.907 151.526 405.914 151.226 405.991 150.942C406.349 149.894 406.563 147.441 408.302 148.658C408.799 149.333 409.188 150.08 409.456 150.873C409.551 151.13 409.584 151.406 409.553 151.678C409.523 151.95 409.43 152.211 409.281 152.441C409.132 152.671 408.931 152.863 408.695 153.001C408.459 153.14 408.194 153.222 407.921 153.241Z" fill="#E1853F"/>
<path d="M403.013 153.361C402.685 153.355 402.363 153.263 402.081 153.095C401.799 152.927 401.565 152.689 401.403 152.403C401.241 152.117 401.156 151.794 401.157 151.466C401.157 151.137 401.243 150.815 401.407 150.53C401.958 149.503 402.744 148.077 404.147 149.025C404.749 149.44 404.622 150.025 404.717 150.566C404.886 150.856 404.974 151.186 404.97 151.521C404.967 151.857 404.873 152.185 404.699 152.472C404.524 152.758 404.275 152.992 403.978 153.149C403.682 153.305 403.348 153.379 403.013 153.361Z" fill="#E1853F"/>
<path d="M402.143 163.334C401.72 163.352 401.3 163.262 400.923 163.071C400.546 162.881 400.224 162.596 399.988 162.245C399.752 161.895 399.61 161.489 399.575 161.068C399.541 160.646 399.616 160.223 399.792 159.839C399.717 159.587 399.694 159.323 399.724 159.063C399.755 158.802 399.839 158.55 399.97 158.323C400.102 158.096 400.278 157.898 400.489 157.742C400.7 157.586 400.94 157.474 401.196 157.414C401.507 157.344 401.831 157.348 402.14 157.424C402.45 157.501 402.738 157.649 402.981 157.857C403.223 158.065 403.414 158.326 403.538 158.62C403.662 158.915 403.715 159.234 403.694 159.552C404.516 161.015 404.062 163.193 402.143 163.334Z" fill="#E1853F"/>
<path d="M407.433 161.492C407.11 161.476 406.796 161.382 406.516 161.219C406.237 161.056 406.001 160.828 405.828 160.554C405.655 160.281 405.55 159.97 405.522 159.648C405.495 159.325 405.545 159.001 405.668 158.702C405.822 158.4 405.998 158.111 406.197 157.837C407.067 156.181 408.573 156.128 409.131 158.023C409.425 158.326 409.618 158.713 409.685 159.13C409.751 159.547 409.687 159.975 409.501 160.354C409.316 160.734 409.017 161.047 408.647 161.25C408.277 161.454 407.853 161.538 407.433 161.492Z" fill="#E1853F"/>
<path d="M412.656 159.557C412.363 159.545 412.078 159.458 411.83 159.303C411.581 159.149 411.376 158.932 411.235 158.675C411.094 158.418 411.023 158.129 411.027 157.836C411.031 157.543 411.11 157.256 411.258 157.003C411.572 156.311 412.198 155.472 413.12 155.869C413.591 156.176 413.961 156.612 414.188 157.126C414.321 157.384 414.384 157.672 414.372 157.962C414.36 158.252 414.272 158.534 414.117 158.779C413.962 159.025 413.746 159.226 413.49 159.362C413.233 159.499 412.946 159.566 412.656 159.557Z" fill="#E1853F"/>
<path d="M402.53 168.485C402.472 167.46 403.148 165.238 404.451 165.549C404.961 165.733 405.42 166.037 405.79 166.435C406.159 166.833 406.427 167.314 406.572 167.837C406.637 168.112 406.644 168.397 406.594 168.674C406.544 168.952 406.437 169.216 406.28 169.45C406.123 169.684 405.919 169.884 405.682 170.036C405.444 170.188 405.178 170.29 404.899 170.334C404.621 170.379 404.336 170.366 404.063 170.295C403.79 170.225 403.534 170.099 403.312 169.926C403.09 169.752 402.905 169.534 402.771 169.287C402.636 169.039 402.554 168.766 402.53 168.485Z" fill="#E1853F"/>
<path d="M411.592 169.093C411.099 169.052 410.625 168.885 410.215 168.608C409.806 168.331 409.474 167.953 409.252 167.511C409.03 167.069 408.926 166.578 408.948 166.084C408.971 165.59 409.121 165.11 409.382 164.69C409.639 163.551 410.174 162.236 411.551 162.158C411.896 162.149 412.239 162.212 412.558 162.343C412.877 162.475 413.165 162.672 413.403 162.922C413.641 163.172 413.824 163.468 413.94 163.793C414.057 164.118 414.104 164.464 414.078 164.808C414.32 165.245 414.445 165.736 414.44 166.235C414.435 166.734 414.301 167.224 414.05 167.655C413.8 168.087 413.442 168.447 413.011 168.698C412.58 168.95 412.091 169.086 411.592 169.093Z" fill="#E1853F"/>
<path d="M406.237 172.127C406.69 169.371 410.408 170.926 409.801 173.241C409.654 173.713 409.324 174.108 408.886 174.338C408.447 174.567 407.935 174.614 407.462 174.466C406.99 174.318 406.595 173.989 406.365 173.55C406.135 173.111 406.089 172.599 406.237 172.127Z" fill="#E1853F"/>
<path d="M425.653 138.518C425.576 137.173 425.14 135.143 426.807 134.534C428.475 133.925 429.467 136.117 430.175 137.265C431.942 140.665 426.311 142.174 425.653 138.518Z" fill="#E1853F"/>
<path d="M432.55 137.291C430.865 135.331 433.491 132.388 435.457 134.749C437.422 137.11 434.39 139.145 432.55 137.291Z" fill="#E1853F"/>
<path d="M429.406 147.523C429.364 146.786 429.68 146.126 429.734 145.384C429.732 145.307 429.748 145.231 429.779 145.16C429.811 145.09 429.858 145.028 429.917 144.978C429.975 144.929 430.045 144.893 430.119 144.874C430.194 144.855 430.272 144.852 430.347 144.867C431.22 145.186 431.993 145.73 432.589 146.442C434.143 148.923 429.923 150.384 429.406 147.523Z" fill="#E1853F"/>
<path d="M436.291 148.287C434.707 147.542 435.51 145.858 435.503 144.606C435.453 144.59 435.409 144.56 435.377 144.519C435.344 144.477 435.325 144.427 435.322 144.375C435.32 144.323 435.333 144.271 435.36 144.226C435.387 144.182 435.428 144.146 435.476 144.125C435.719 143.887 436.116 144.089 436.34 144.076C437.06 144.531 437.708 145.09 438.265 145.733C438.53 146.017 438.685 146.385 438.703 146.773C438.72 147.16 438.6 147.542 438.363 147.848C438.125 148.155 437.787 148.368 437.407 148.448C437.028 148.528 436.632 148.471 436.291 148.287Z" fill="#E1853F"/>
<path d="M441.878 141.448C441.241 141.168 440.74 140.649 440.481 140.003C440.222 139.358 440.226 138.637 440.493 137.994C440.481 137.865 440.495 137.736 440.535 137.613C440.574 137.49 440.638 137.376 440.722 137.279C440.807 137.181 440.91 137.101 441.026 137.044C441.142 136.987 441.268 136.954 441.396 136.947C443.125 136.848 445.045 138.409 444.505 140.207C444.315 140.715 443.934 141.129 443.443 141.361C442.953 141.593 442.391 141.624 441.878 141.448Z" fill="#E1853F"/>
<path d="M442.176 151.26C442.03 150.756 441.985 150.228 442.043 149.706C442.102 149.185 442.263 148.68 442.517 148.221C443.684 146.709 445.746 148.519 446.301 149.804C446.494 150.351 446.462 150.952 446.212 151.476C445.961 151.999 445.513 152.401 444.966 152.594C444.42 152.787 443.818 152.755 443.295 152.505C442.772 152.254 442.369 151.806 442.176 151.26Z" fill="#E1853F"/>
<path d="M437.555 158.653C436.273 157.569 437.142 155.914 437.324 154.587C437.675 151.74 439.915 155.531 440.636 156.357C440.941 156.766 441.07 157.279 440.996 157.783C440.923 158.287 440.652 158.741 440.243 159.046C439.835 159.35 439.322 159.479 438.818 159.406C438.314 159.332 437.859 159.061 437.555 158.653Z" fill="#E1853F"/>
<path d="M434.052 158.563C433.764 158.581 433.477 158.525 433.217 158.401C432.957 158.277 432.732 158.089 432.565 157.855C432.397 157.62 432.292 157.347 432.259 157.06C432.226 156.774 432.267 156.484 432.377 156.218C432.608 155.755 432.84 155.324 433.008 154.897C433.177 154.47 433.492 153.809 434.049 154.003C434.606 154.196 434.843 155.531 435.394 156.174C435.52 156.415 435.583 156.684 435.579 156.956C435.575 157.228 435.503 157.495 435.37 157.732C435.237 157.969 435.047 158.17 434.816 158.315C434.586 158.46 434.324 158.545 434.052 158.563Z" fill="#E1853F"/>
<path d="M436.341 168.84C433.942 167.884 434.346 163.14 437.226 163.522C441.733 164.261 440.658 170.2 436.341 168.84Z" fill="#E1853F"/>
<path d="M440.278 165.852C440.411 164.239 439.705 161.998 441.216 160.885C443.233 159.646 444.689 161.522 445.083 163.363C445.405 163.818 445.632 164.333 445.751 164.878C445.871 165.423 445.879 165.986 445.777 166.535C445.549 167.13 445.128 167.633 444.581 167.961C444.034 168.289 443.393 168.425 442.76 168.346C442.127 168.268 441.539 167.979 441.089 167.527C440.639 167.075 440.354 166.486 440.278 165.852Z" fill="#E1853F"/>
<path d="M445.968 161.449C445.596 161.203 445.299 160.86 445.106 160.459C444.914 160.057 444.833 159.61 444.874 159.167C444.774 158.906 444.737 158.626 444.764 158.349C444.791 158.071 444.883 157.804 445.032 157.568C445.18 157.332 445.382 157.134 445.62 156.989C445.859 156.844 446.128 156.757 446.406 156.735C447.194 156.776 447.95 157.058 448.572 157.543C449.09 157.888 449.449 158.425 449.571 159.036C449.693 159.646 449.568 160.28 449.223 160.798C448.877 161.316 448.34 161.676 447.73 161.798C447.119 161.92 446.486 161.794 445.968 161.449Z" fill="#E1853F"/>
<path d="M446.087 174.195C445.737 174.214 445.387 174.144 445.072 173.99C444.757 173.836 444.486 173.604 444.286 173.316C444.086 173.028 443.963 172.693 443.929 172.344C443.895 171.995 443.952 171.643 444.093 171.321C444.268 170.891 444.505 170.488 444.795 170.125C445.859 169.069 447.004 169.999 447.548 171.092C447.744 171.378 447.861 171.711 447.889 172.056C447.917 172.402 447.854 172.748 447.706 173.062C447.558 173.376 447.331 173.645 447.047 173.844C446.763 174.042 446.432 174.163 446.087 174.195Z" fill="#E1853F"/>
<path d="M474.207 143.43C473.766 141.882 475.039 139.978 476.794 140.906C477.293 141.13 477.708 141.507 477.977 141.982C478.247 142.458 478.358 143.008 478.293 143.551C478.159 143.997 477.882 144.386 477.504 144.658C477.126 144.931 476.669 145.071 476.204 145.057C475.739 145.043 475.291 144.876 474.93 144.582C474.569 144.288 474.315 143.883 474.207 143.43Z" fill="#E1853F"/>
<path d="M478.45 141.326C478.051 139.968 478.59 137.014 480.605 137.992C481.708 138.764 482.932 139.947 482.658 141.344C482.531 141.805 482.255 142.212 481.874 142.501C481.492 142.79 481.026 142.946 480.547 142.944C480.069 142.942 479.604 142.782 479.225 142.49C478.846 142.198 478.573 141.789 478.45 141.326Z" fill="#E1853F"/>
<path d="M476.046 152.672C475.968 151.295 475.797 148.286 477.978 148.804C478.936 149.263 479.353 150.396 480.071 151.158C481.847 154.14 476.91 155.995 476.046 152.672Z" fill="#E1853F"/>
<path d="M482.188 152.804C481.705 151.602 481.531 150.297 481.683 149.011C482.692 146.416 485.604 149.044 486.488 150.471C488.356 153.384 483.804 155.795 482.188 152.804Z" fill="#E1853F"/>
<path d="M488.792 148.702C488.588 147.807 488.67 146.87 489.025 146.023C489.229 145.743 489.51 145.529 489.835 145.408C490.159 145.286 490.512 145.263 490.849 145.341C491.727 145.516 492.192 146.357 492.801 146.9C493.03 147.159 493.196 147.468 493.284 147.802C493.372 148.136 493.381 148.486 493.31 148.824C493.239 149.162 493.089 149.479 492.873 149.749C492.658 150.019 492.382 150.235 492.068 150.379C491.745 150.52 491.395 150.589 491.043 150.578C490.691 150.568 490.345 150.479 490.032 150.319C489.718 150.158 489.444 149.93 489.23 149.65C489.016 149.371 488.866 149.047 488.792 148.702Z" fill="#E1853F"/>
<path d="M489.673 157.966C489.717 157.406 489.907 156.867 490.224 156.404C490.542 155.94 490.975 155.568 491.482 155.325C491.75 155.208 492.043 155.157 492.335 155.175C492.628 155.192 492.912 155.279 493.165 155.427C493.417 155.576 493.631 155.782 493.789 156.029C493.947 156.276 494.045 156.556 494.074 156.848C494.324 157.211 494.47 157.636 494.495 158.076C494.52 158.517 494.423 158.956 494.216 159.345C493.925 159.796 493.495 160.139 492.991 160.324C492.487 160.508 491.937 160.524 491.424 160.368C490.911 160.212 490.462 159.893 490.146 159.46C489.83 159.026 489.664 158.502 489.673 157.966Z" fill="#E1853F"/>
<path d="M484.093 160.95C484.07 160.534 484.334 160.101 484.44 159.71C484.615 158.833 485.464 157.949 486.424 158.441C487.383 158.932 487.231 159.647 487.744 160.196C487.915 160.462 488.017 160.767 488.042 161.082C488.067 161.397 488.014 161.714 487.888 162.003C487.761 162.293 487.565 162.547 487.317 162.743C487.069 162.94 486.777 163.071 486.466 163.128C486.159 163.183 485.843 163.167 485.544 163.081C485.244 162.994 484.968 162.839 484.739 162.628C484.509 162.417 484.331 162.156 484.219 161.865C484.107 161.574 484.064 161.261 484.093 160.95Z" fill="#E1853F"/>
<path d="M478.905 162.819C478.801 161.509 479.083 160.197 479.718 159.047C479.86 158.892 480.039 158.775 480.238 158.708C480.436 158.64 480.649 158.623 480.856 158.66C481.063 158.696 481.257 158.784 481.421 158.915C481.585 159.046 481.714 159.216 481.795 159.41C482.106 160.268 482.519 161.086 483.025 161.845C483.148 162.133 483.207 162.445 483.197 162.758C483.187 163.071 483.109 163.378 482.968 163.658C482.827 163.938 482.626 164.183 482.38 164.377C482.134 164.571 481.849 164.709 481.544 164.781C481.239 164.853 480.922 164.858 480.615 164.794C480.308 164.731 480.019 164.601 479.768 164.414C479.516 164.227 479.309 163.987 479.16 163.712C479.011 163.436 478.924 163.131 478.905 162.819Z" fill="#E1853F"/>
<path d="M483.589 172.926C483.46 172.068 483.41 171.2 483.441 170.333C483.475 169.948 483.648 169.589 483.929 169.324C484.211 169.06 484.579 168.908 484.966 168.897C485.926 168.843 486.486 169.646 486.974 170.325C487.365 170.657 487.671 171.078 487.866 171.554C488.061 172.029 488.139 172.544 488.093 173.055C487.964 173.564 487.665 174.013 487.246 174.329C486.828 174.645 486.314 174.809 485.789 174.794C485.265 174.779 484.761 174.586 484.361 174.246C483.961 173.907 483.689 173.441 483.589 172.926Z" fill="#E1853F"/>
<path d="M489.876 172.215C488.104 171.545 488.112 169.424 488.41 167.898C488.987 165.617 492.133 167.846 492.692 169.196C492.869 169.598 492.925 170.043 492.852 170.477C492.779 170.91 492.58 171.313 492.28 171.634C491.98 171.956 491.593 172.182 491.165 172.285C490.738 172.388 490.29 172.364 489.876 172.215Z" fill="#E1853F"/>
<path d="M493.516 165.584C493.802 164.412 493.344 162.575 494.998 162.288C495.378 162.244 495.761 162.341 496.075 162.56C496.389 162.778 496.613 163.104 496.704 163.476C497.212 164.507 498.082 165.678 497.43 166.646C497.19 167.034 496.831 167.333 496.408 167.5C495.984 167.667 495.517 167.693 495.077 167.574C494.637 167.455 494.248 167.197 493.966 166.838C493.685 166.48 493.527 166.04 493.516 165.584Z" fill="#E1853F"/>
<path d="M499.245 177.045C498.919 177.045 498.596 176.973 498.3 176.834C498.004 176.695 497.743 176.492 497.535 176.239C497.327 175.987 497.178 175.692 497.098 175.375C497.018 175.058 497.009 174.727 497.072 174.407L497.381 173.072C497.558 172.227 497.814 171.088 498.831 170.902C500.483 170.583 500.785 172.493 501.014 173.7C501.2 174.028 501.301 174.398 501.306 174.775C501.312 175.152 501.222 175.524 501.046 175.857C500.87 176.191 500.613 176.474 500.298 176.682C499.983 176.889 499.621 177.014 499.245 177.045Z" fill="#E1853F"/>
<path d="M491.441 178.197C491.658 176.932 491.813 175.702 492.03 174.437C492.076 174.247 492.159 174.068 492.274 173.91C492.39 173.751 492.535 173.617 492.702 173.515C492.87 173.413 493.055 173.345 493.249 173.315C493.442 173.285 493.64 173.293 493.83 173.339C494.02 173.385 494.2 173.468 494.358 173.584C494.516 173.699 494.65 173.845 494.752 174.012C494.854 174.179 494.922 174.365 494.952 174.558C494.982 174.752 494.974 174.949 494.928 175.14C495.238 176.631 496.7 178.058 495.888 179.582C495.626 180.066 495.205 180.444 494.695 180.652C494.185 180.859 493.619 180.883 493.094 180.72C492.569 180.556 492.116 180.215 491.815 179.755C491.513 179.295 491.381 178.744 491.441 178.197Z" fill="#E1853F"/>
<path d="M488.453 181.032C487.033 180.342 487.315 178.528 487.596 177.259C487.664 177.096 487.768 176.95 487.9 176.833C488.031 176.715 488.188 176.628 488.357 176.578C488.527 176.529 488.705 176.517 488.88 176.545C489.054 176.574 489.22 176.64 489.365 176.741C490.179 177.497 491.381 178.296 491.26 179.556C491.231 179.869 491.124 180.171 490.949 180.433C490.774 180.694 490.536 180.908 490.257 181.055C489.978 181.202 489.667 181.276 489.352 181.273C489.037 181.269 488.728 181.186 488.453 181.032Z" fill="#E1853F"/>
<path d="M493.751 185.549C493.689 185.285 493.683 185.011 493.735 184.744C493.786 184.478 493.894 184.225 494.049 184.003C494.205 183.781 494.406 183.595 494.64 183.456C494.873 183.317 495.133 183.229 495.402 183.198C495.672 183.166 495.945 183.192 496.203 183.274C496.462 183.356 496.701 183.491 496.903 183.672C497.106 183.852 497.268 184.073 497.379 184.321C497.49 184.568 497.548 184.837 497.548 185.108C497.61 185.372 497.616 185.646 497.564 185.913C497.513 186.179 497.405 186.432 497.25 186.654C497.094 186.876 496.892 187.062 496.659 187.201C496.426 187.34 496.166 187.428 495.897 187.459C495.627 187.49 495.354 187.464 495.096 187.383C494.837 187.301 494.598 187.165 494.396 186.985C494.193 186.805 494.031 186.583 493.92 186.336C493.809 186.088 493.751 185.82 493.751 185.549Z" fill="#E1853F"/>
<path d="M515.195 122.115C515.14 121.155 515.471 120.205 515.578 119.267C515.593 118.963 515.697 118.671 515.877 118.426C516.058 118.182 516.306 117.996 516.592 117.892C516.874 117.767 517.185 117.72 517.491 117.755C517.798 117.791 518.089 117.907 518.336 118.093C518.582 118.279 518.774 118.527 518.893 118.812C519.011 119.097 519.051 119.408 519.008 119.714C519.21 120.441 519.537 121.097 519.673 121.796C520.132 124.789 515.366 125.125 515.195 122.115Z" fill="#E1853F"/>
<path d="M521.707 122.579C521.315 122.214 521.052 121.731 520.958 121.203C520.864 120.675 520.945 120.131 521.187 119.654C521.402 118.903 521.674 118.052 522.524 117.747C524.314 117.035 525.112 118.627 525.638 119.978C525.846 120.493 525.869 121.063 525.705 121.592C525.54 122.122 525.198 122.578 524.735 122.884C524.273 123.19 523.718 123.327 523.167 123.271C522.615 123.216 522.099 122.971 521.707 122.579Z" fill="#E1853F"/>
<path d="M526.849 128.774C526.82 128.262 526.983 127.738 527.016 127.191C527.018 126.955 527.004 126.72 526.976 126.486C526.987 126.201 527.076 125.925 527.233 125.687C527.389 125.448 527.608 125.257 527.865 125.134C528.122 125.01 528.408 124.959 528.692 124.985C528.976 125.012 529.247 125.115 529.477 125.284C530.224 126.169 530.852 127.148 531.345 128.197C532.739 131.811 526.783 132.696 526.849 128.774Z" fill="#E1853F"/>
<path d="M520.409 131.935C520.586 129.966 519.545 126.909 522.443 126.487C525.342 126.065 525.411 129.53 525.942 131.523C526.349 135.29 520.59 135.682 520.409 131.935Z" fill="#E1853F"/>
<path d="M517.31 139.531C514.672 139.456 515.126 136.7 515.379 134.951C515.633 133.202 515.324 130.586 517.74 131.284C518.89 131.732 518.692 132.771 518.679 133.671C518.764 135.722 520.633 139.213 517.31 139.531Z" fill="#E1853F"/>
<path d="M517.413 150.446C517.213 149.186 517.14 147.91 517.196 146.636C517.139 146.303 517.167 145.961 517.276 145.641C517.386 145.322 517.574 145.035 517.823 144.807C518.072 144.578 518.374 144.416 518.702 144.335C519.03 144.254 519.373 144.256 519.699 144.341C520.206 144.456 520.649 144.76 520.937 145.193C521.224 145.625 521.335 146.151 521.245 146.662C521.465 147.71 521.749 148.754 521.971 149.833C521.997 150.409 521.806 150.974 521.436 151.416C521.066 151.858 520.544 152.146 519.972 152.223C519.401 152.3 518.821 152.16 518.348 151.831C517.874 151.502 517.541 151.008 517.413 150.446Z" fill="#E1853F"/>
<path d="M522.643 144.108C521.562 143.174 522.124 141.761 522.118 140.541C522.129 140.193 522.25 139.858 522.465 139.584C522.679 139.31 522.975 139.111 523.31 139.017C523.645 138.923 524.001 138.937 524.327 139.06C524.653 139.182 524.931 139.404 525.122 139.696C525.48 140.35 525.748 141.105 526.076 141.793C526.258 142.243 526.28 142.742 526.138 143.206C525.997 143.67 525.7 144.071 525.298 144.342C524.895 144.613 524.412 144.738 523.929 144.696C523.445 144.653 522.991 144.446 522.643 144.108Z" fill="#E1853F"/>
<path d="M528.648 138.435C528.633 138.179 528.621 137.955 528.606 137.699C528.424 137.38 528.34 137.015 528.365 136.649C528.39 136.282 528.523 135.932 528.746 135.641C528.97 135.35 529.275 135.132 529.623 135.014C529.97 134.896 530.345 134.883 530.7 134.978C532.168 135.376 532.228 137.011 532.611 138.081C532.693 138.36 532.712 138.653 532.669 138.94C532.626 139.227 532.52 139.501 532.359 139.743C532.198 139.985 531.987 140.188 531.739 140.339C531.491 140.491 531.213 140.586 530.924 140.618C530.628 140.641 530.329 140.601 530.049 140.5C529.769 140.4 529.513 140.241 529.298 140.035C529.083 139.829 528.915 139.58 528.802 139.305C528.69 139.029 528.638 138.733 528.648 138.435Z" fill="#E1853F"/>
<path d="M529.995 153.551C529.594 153.529 529.204 153.414 528.855 153.216C528.506 153.018 528.208 152.742 527.984 152.409C527.76 152.077 527.615 151.697 527.562 151.299C527.51 150.901 527.55 150.497 527.679 150.117C527.583 148.421 526.927 145.921 529.411 145.554C531.895 145.188 532.203 147.772 532.077 149.514C532.464 151.226 532.243 153.551 529.995 153.551Z" fill="#E1853F"/>
<path d="M525.884 154.685C525.614 154.686 525.348 154.627 525.105 154.512C524.862 154.396 524.648 154.228 524.479 154.018C524.31 153.809 524.19 153.564 524.128 153.302C524.066 153.04 524.064 152.768 524.121 152.505L524.55 151.003C524.712 149.902 525.231 148.299 526.695 148.633C526.935 148.691 527.155 148.812 527.334 148.982C527.513 149.152 527.644 149.366 527.714 149.603C527.952 150.392 527.314 151.039 527.523 151.894C527.733 152.749 527.458 154.692 525.884 154.685Z" fill="#E1853F"/>
<path d="M519.815 164.312C518.008 160.207 523.312 157.464 525.19 161.693C525.454 163.509 525.161 166.256 522.865 166.547C522.166 166.641 521.458 166.461 520.889 166.044C520.321 165.627 519.936 165.006 519.815 164.312Z" fill="#E1853F"/>
<path d="M553.176 114.01C550.209 113.793 551.137 110.914 551.282 108.947C551.192 108.668 551.171 108.372 551.222 108.083C551.273 107.795 551.393 107.523 551.573 107.292C552.923 105.609 555.782 107.309 554.893 109.191C554.988 110.036 555.132 110.875 555.325 111.704C555.363 112.002 555.335 112.305 555.242 112.591C555.15 112.877 554.996 113.14 554.791 113.36C554.586 113.58 554.335 113.752 554.056 113.865C553.777 113.977 553.476 114.026 553.176 114.01Z" fill="#E1853F"/>
<path d="M556.58 110.091C556.545 109.483 556.509 108.842 556.474 108.234C554.223 105.375 559.145 102.686 560.741 105.903C564.88 113.151 557.363 114.832 556.58 110.091Z" fill="#E1853F"/>
<path d="M553.39 123.891C552.954 123.876 552.529 123.753 552.154 123.531C551.779 123.31 551.466 122.998 551.243 122.623C551.02 122.249 550.895 121.824 550.879 121.389C550.863 120.954 550.957 120.521 551.152 120.132C551.464 116.581 557.223 117.891 555.871 121.212C555.911 121.557 555.875 121.906 555.767 122.235C555.66 122.565 555.482 122.867 555.246 123.122C555.01 123.376 554.722 123.577 554.402 123.709C554.082 123.842 553.736 123.904 553.39 123.891Z" fill="#E1853F"/>
<path d="M559.333 121.658C559.384 120.876 559.34 120.091 559.2 119.321C559.241 118.746 559.446 118.195 559.791 117.733C560.135 117.27 560.605 116.917 561.145 116.714C561.684 116.511 562.271 116.467 562.834 116.587C563.398 116.707 563.916 116.986 564.326 117.391C564.689 117.732 564.959 118.16 565.109 118.635C565.26 119.11 565.287 119.616 565.187 120.104C565.678 121.971 565.168 124.281 562.838 124.542C562.418 124.583 561.995 124.541 561.591 124.418C561.188 124.295 560.813 124.094 560.488 123.826C560.162 123.558 559.893 123.229 559.695 122.857C559.496 122.485 559.374 122.077 559.333 121.658Z" fill="#E1853F"/>
<path d="M555.625 132.21C555.8 131.333 555.847 130.463 556.054 129.584C556.154 129.327 556.318 129.1 556.532 128.924C556.745 128.749 557 128.632 557.272 128.584C557.543 128.536 557.823 128.56 558.083 128.652C558.344 128.744 558.576 128.901 558.757 129.109C559.257 129.948 559.714 130.811 560.125 131.697C560.265 132.017 560.328 132.367 560.307 132.716C560.286 133.065 560.183 133.404 560.006 133.706C559.829 134.007 559.583 134.263 559.288 134.451C558.993 134.639 558.658 134.754 558.31 134.787C557.956 134.83 557.598 134.793 557.26 134.68C556.922 134.567 556.614 134.381 556.357 134.134C556.101 133.888 555.902 133.587 555.775 133.255C555.649 132.922 555.597 132.565 555.625 132.21Z" fill="#E1853F"/>
<path d="M549.903 137.193C549.859 136.425 550.007 135.646 550.092 134.87C550.176 134.094 550.148 133.036 550.919 132.478C551.276 132.244 551.705 132.148 552.128 132.206C552.551 132.265 552.938 132.475 553.218 132.797C553.842 134.014 554.314 135.303 554.625 136.635C554.698 137.261 554.521 137.891 554.13 138.386C553.74 138.882 553.169 139.201 552.543 139.275C551.916 139.349 551.286 139.171 550.791 138.781C550.296 138.39 549.977 137.819 549.903 137.193Z" fill="#E1853F"/>
<path d="M565.518 134.377C564.01 133.275 564.759 131.209 565.256 129.767C566.173 128.398 567.853 129.137 568.35 130.522C568.846 131.907 569.523 132.511 569.044 133.695C568.883 133.999 568.655 134.263 568.378 134.468C568.101 134.672 567.782 134.813 567.444 134.878C567.106 134.944 566.758 134.933 566.424 134.846C566.091 134.759 565.781 134.599 565.518 134.377Z" fill="#E1853F"/>
<path d="M563.198 145.558C562.826 145.545 562.461 145.451 562.129 145.283C561.797 145.114 561.505 144.875 561.274 144.583C561.044 144.29 560.88 143.951 560.793 143.589C560.707 143.226 560.701 142.85 560.775 142.485C560.749 142.036 561.044 141.57 561.178 141.113C561.12 140.569 561.275 140.024 561.61 139.592C561.944 139.16 562.433 138.874 562.974 138.794C563.459 138.751 563.944 138.873 564.351 139.142C564.757 139.411 565.06 139.809 565.21 140.273C565.302 141.163 565.46 142.045 565.681 142.912C565.711 143.253 565.668 143.596 565.556 143.92C565.444 144.244 565.265 144.54 565.031 144.789C564.796 145.039 564.512 145.237 564.196 145.369C563.881 145.502 563.54 145.566 563.198 145.558Z" fill="#E1853F"/>
<path d="M556.523 145.681C555.715 145.021 555.965 143.786 556.372 143.024C556.778 142.262 556.683 140.597 558.039 140.713C559.368 140.926 559.184 142.768 559.79 143.825C559.969 144.252 559.986 144.73 559.837 145.168C559.688 145.606 559.383 145.975 558.98 146.204C558.578 146.432 558.105 146.505 557.653 146.409C557.2 146.313 556.798 146.054 556.523 145.681Z" fill="#E1853F"/>
<path d="M551.992 151.881C551.683 150.967 551.883 149.96 551.448 149.085C551.395 148.806 551.43 148.517 551.547 148.259C551.664 148 551.859 147.784 552.104 147.64C552.349 147.496 552.632 147.431 552.915 147.454C553.198 147.477 553.467 147.587 553.686 147.769C554.964 148.789 556.746 150.197 556.334 151.987C556.178 152.445 555.879 152.841 555.482 153.118C555.084 153.395 554.609 153.538 554.125 153.526C553.64 153.514 553.172 153.348 552.789 153.052C552.406 152.757 552.127 152.346 551.992 151.881Z" fill="#E1853F"/>
<path d="M557.575 156.253C557.61 155.494 557.774 154.746 558.059 154.041C558.175 153.391 558.412 152.767 558.757 152.203C558.887 152.049 559.046 151.923 559.226 151.833C559.406 151.742 559.602 151.69 559.803 151.678C560.004 151.667 560.205 151.697 560.394 151.766C560.583 151.835 560.756 151.942 560.902 152.081C561.577 153.209 562.099 154.421 562.456 155.686C562.529 156.023 562.531 156.371 562.461 156.709C562.392 157.046 562.252 157.365 562.052 157.645C561.851 157.926 561.594 158.161 561.297 158.336C561.001 158.511 560.67 158.622 560.328 158.662C559.986 158.701 559.639 158.669 559.31 158.567C558.981 158.464 558.677 158.294 558.418 158.067C558.158 157.841 557.949 157.562 557.804 157.249C557.659 156.937 557.581 156.598 557.575 156.253Z" fill="#E1853F"/>
<path d="M564.81 153.078C564.375 152.864 564.007 152.535 563.747 152.125C563.487 151.716 563.345 151.243 563.338 150.758C563.33 150.273 563.457 149.795 563.703 149.378C563.95 148.961 564.308 148.62 564.736 148.393C564.978 148.129 565.244 147.888 565.53 147.673C565.749 147.515 566.003 147.411 566.27 147.371C566.537 147.33 566.81 147.354 567.066 147.439C567.322 147.525 567.554 147.671 567.742 147.864C567.931 148.058 568.07 148.293 568.15 148.552C568.703 150.929 567.985 154.117 564.81 153.078Z" fill="#E1853F"/>
<path d="M583.693 113.526C582.909 112.669 582.488 111.542 582.518 110.381C582.365 110.221 582.252 110.028 582.187 109.817C582.122 109.606 582.108 109.382 582.146 109.164C582.184 108.946 582.272 108.741 582.404 108.563C582.535 108.386 582.707 108.242 582.905 108.143C583.291 107.956 583.735 107.926 584.143 108.058C584.552 108.191 584.893 108.475 585.097 108.853C585.828 109.333 586.48 109.924 587.027 110.606C587.311 111.058 587.424 111.596 587.346 112.124C587.269 112.652 587.005 113.135 586.604 113.487C586.203 113.838 585.689 114.035 585.156 114.042C584.622 114.05 584.104 113.866 583.693 113.526Z" fill="#E1853F"/>
<path d="M587.912 109.688C587.431 108.013 588.022 104.864 590.48 105.719C591.221 106.308 591.913 106.956 592.549 107.657C594.891 110.993 589.219 113.468 587.912 109.688Z" fill="#E1853F"/>
<path d="M595.64 108.381C594.955 107.071 595.649 105.714 595.414 104.411C595.179 103.107 596.429 102.49 597.486 103.008C598.807 103.775 599.958 104.802 600.87 106.027C602.643 109.524 597.309 111.754 595.64 108.381Z" fill="#E1853F"/>
<path d="M588.898 119.749C588.762 119.043 588.721 118.321 588.776 117.604C588.847 117.349 588.975 117.113 589.15 116.914C589.325 116.714 589.543 116.557 589.787 116.454C590.031 116.351 590.295 116.303 590.56 116.316C590.825 116.329 591.084 116.401 591.317 116.528C592.406 117.044 593.668 117.775 593.803 119.02C594.058 121.8 589.601 122.503 588.898 119.749Z" fill="#E1853F"/>
<path d="M596.705 121.455C594.262 120.278 595.432 114.879 598.418 115.994C599.878 116.81 601.377 118.331 600.832 120.032C600.687 120.424 600.457 120.778 600.158 121.07C599.86 121.362 599.5 121.584 599.105 121.72C598.711 121.857 598.291 121.903 597.876 121.858C597.461 121.812 597.061 121.674 596.705 121.455Z" fill="#E1853F"/>
<path d="M602.179 122.815C601.978 121.455 601.954 120.074 602.106 118.708C602.088 118.462 602.127 118.216 602.22 117.988C602.313 117.76 602.457 117.556 602.641 117.393C604.425 116.006 605.881 117.883 606.548 119.451C607.005 120.25 607.316 121.124 607.466 122.032C607.709 125.166 603.026 125.85 602.179 122.815Z" fill="#E1853F"/>
<path d="M597.362 130.766C596.928 130.498 596.603 130.084 596.446 129.599C596.289 129.114 596.31 128.588 596.505 128.117C596.463 127.38 597.056 126.512 597.961 126.621C598.867 126.73 600.663 127.816 600.61 129.136C600.583 129.501 600.462 129.853 600.258 130.157C600.055 130.462 599.776 130.708 599.448 130.872C599.121 131.036 598.757 131.113 598.391 131.094C598.026 131.076 597.671 130.963 597.362 130.766Z" fill="#E1853F"/>
<path d="M591.494 131.967C589.766 130.941 590.416 128.817 591.239 127.485C592.063 126.153 593.458 128.097 594.201 128.73C594.517 129.116 594.688 129.601 594.685 130.101C594.682 130.6 594.505 131.083 594.185 131.466C593.864 131.849 593.421 132.109 592.93 132.2C592.439 132.292 591.931 132.209 591.494 131.967Z" fill="#E1853F"/>
<path d="M596.49 143.084C595.734 142.635 595.172 141.922 594.911 141.083C594.65 140.244 594.708 139.338 595.075 138.54C595.892 136.534 598.487 137.543 599.588 138.829C600.152 139.24 600.53 139.858 600.638 140.547C600.747 141.237 600.577 141.941 600.166 142.506C599.755 143.07 599.137 143.448 598.448 143.557C597.758 143.665 597.054 143.495 596.49 143.084Z" fill="#E1853F"/>
<path d="M601.59 140.643C599.826 139.555 600.02 137.328 600.406 135.636C600.791 133.943 601.393 131.532 603.472 133.084C604.395 134.415 605.186 135.833 605.833 137.318C606.025 137.879 606.038 138.485 605.869 139.053C605.701 139.621 605.36 140.123 604.893 140.488C604.427 140.854 603.858 141.065 603.266 141.093C602.674 141.12 602.089 140.963 601.59 140.643Z" fill="#E1853F"/>
<path d="M605.4 132.106C605.493 131.337 605.524 130.562 605.493 129.788C605.527 129.5 605.633 129.224 605.801 128.987C605.97 128.75 606.195 128.56 606.457 128.433C606.718 128.306 607.008 128.247 607.298 128.261C607.589 128.276 607.871 128.363 608.118 128.515C608.939 129.26 609.62 130.146 610.13 131.13C610.284 131.449 610.363 131.798 610.362 132.152C610.362 132.506 610.281 132.855 610.126 133.172C609.971 133.49 609.746 133.769 609.467 133.988C609.189 134.206 608.865 134.359 608.52 134.434C608.159 134.515 607.785 134.516 607.424 134.439C607.062 134.362 606.722 134.208 606.425 133.987C606.129 133.766 605.884 133.483 605.707 133.159C605.53 132.834 605.425 132.475 605.4 132.106Z" fill="#E1853F"/>
<path d="M605.681 145.998C605.708 144.719 605.839 143.444 606.075 142.186C606.251 141.871 606.504 141.605 606.81 141.414C607.117 141.223 607.466 141.111 607.827 141.091C608.188 141.07 608.548 141.141 608.874 141.297C609.2 141.452 609.481 141.687 609.692 141.98C610.325 143.159 610.867 144.385 611.314 145.646C612.052 149.586 605.659 150.111 605.681 145.998Z" fill="#E1853F"/>
<path d="M603.168 151.441C602.912 151.228 602.707 150.959 602.567 150.656C602.428 150.353 602.358 150.022 602.362 149.689C602.265 149.118 602.232 148.538 602.264 147.96C602.294 147.509 602.5 147.088 602.837 146.787C603.174 146.485 603.615 146.328 604.067 146.348C605.444 146.269 606.084 147.935 606.498 149.004C606.634 149.438 606.631 149.904 606.488 150.336C606.346 150.768 606.072 151.145 605.705 151.413C605.338 151.682 604.896 151.829 604.441 151.834C603.986 151.839 603.541 151.702 603.168 151.441Z" fill="#E1853F"/>
</svg>
