<svg width="96" height="95" viewBox="0 0 96 95" fill="none" xmlns="http://www.w3.org/2000/svg">
<path fill-rule="evenodd" clip-rule="evenodd" d="M24.87 10.3306C25.9129 10.2487 26.9492 10.0984 27.9724 9.88068C30.8177 9.65137 33.6674 10.2659 36.1652 11.6475C38.6631 13.0292 40.6982 15.1165 42.0161 17.6485C43.0345 19.6852 43.3423 21.1299 41.1872 24.0191C39.6307 24.3941 38.0073 24.3941 36.4507 24.0191L34.0825 27.5005C33.1115 27.5005 31.4774 26.9084 30.6248 26.9557C29.1802 32.5922 27.404 32.8054 23.8753 31.5265C20.9861 36.9025 16.7706 31.2423 14.7576 28.8741C12.1525 25.9848 13.9287 21.4141 16.0364 17.0328C10.7079 18.7617 6.56342 24.8717 3.12946 31.2423C-2.55435 42.2073 1.21117 49.7621 2.51371 56.9142C3.65022 62.1061 5.60048 67.0856 8.29224 71.6683C9.55659 74.0765 10.9973 76.3879 12.6025 78.5836C16.4756 83.6196 21.4487 87.7035 27.1417 90.5233C32.8348 93.3432 39.097 94.8243 45.4501 94.8535C71.5008 94.8535 76.8531 86.5173 87.1787 67.0976C92.5783 57.0089 96.2017 51.1356 95.1833 39.4128C94.6323 34.1249 93.0214 29.0023 90.4468 24.3507C86.7997 16.8671 80.9738 8.79127 72.9455 4.76525C67.5039 2.06251 61.4956 0.698478 55.4204 0.786605C49.2393 1.18921 29.1565 5.87834 24.87 10.3306Z" fill="#B72223"/>
<path fill-rule="evenodd" clip-rule="evenodd" d="M24.8715 10.3312L24.3268 11.1364C23.1354 11.2959 21.9891 11.6975 20.9587 12.3166C19.9283 12.9357 19.0355 13.7591 18.3352 14.7361C17.2931 15.1151 16.7958 15.8492 16.1327 17.1044C14.0249 21.4383 12.2488 26.009 14.8538 28.9456C16.9853 31.3139 21.0823 36.974 23.9716 31.5981C27.5003 32.8769 29.2765 32.6637 30.7211 27.0273C31.5737 27.0273 33.2078 27.572 34.1788 27.572L36.547 24.0907C38.1036 24.4657 39.7269 24.4657 41.2835 24.0907C43.4386 21.2014 43.1307 19.7568 42.1124 17.7201C40.7977 15.1959 38.77 13.1138 36.2816 11.7328C33.7931 10.3517 30.9536 9.73252 28.116 9.95223C27.0484 10.1775 25.9624 10.3044 24.8715 10.3312Z" fill="#520000"/>
</svg>
