<svg width="113" height="67" viewBox="0 0 113 67" fill="none" xmlns="http://www.w3.org/2000/svg">
<path d="M41.1425 0.715761C41.5872 0.34645 42.1421 0.135555 42.7198 0.116263C55.0489 0.157689 67.4892 1.27578 78.9689 6.2656C90.6036 11.4279 100.736 19.461 108.416 29.6113C109.853 32.1316 113.738 35.2066 111.876 38.2526C110.774 39.8245 108.667 39.8615 106.962 40.2757C101.366 41.5756 95.6292 42.1756 89.8848 42.062C77.9752 41.8296 66.5547 37.2834 57.7436 29.2675C54.7559 26.2914 52.0902 23.0089 49.7905 19.4741C50.4372 24.9002 50.0565 30.3995 48.6682 35.6847C48.1521 37.5154 47.5041 39.3065 46.7293 41.0436L46.4889 41.5805C43.292 49.5136 37.2136 55.9445 29.4732 59.5832C24.7007 62.3198 19.5561 64.349 14.2005 65.6073C11.6504 65.9927 8.71348 67.0061 6.18537 66.1781C3.03312 66.0954 1.72453 59.203 1.35871 56.7211C-0.111344 46.2101 1.28026 35.4973 5.38696 25.7107C9.0577 17.0229 16.5555 10.8604 24.4577 6.28188C29.4907 3.65525 34.9062 1.83847 40.505 0.898311C40.713 0.822642 40.926 0.761643 41.1425 0.715761Z" fill="#194128"/>
</svg>
