<svg width="315" height="313" viewBox="0 0 315 313" fill="none" xmlns="http://www.w3.org/2000/svg">
<path fill-rule="evenodd" clip-rule="evenodd" d="M211.328 99.07C196.324 99.6361 200.422 95.9557 185.548 87.1611C174.297 80.4952 153.996 74.2763 140.809 76.1843C131.897 77.4978 121.912 80.3954 114.64 85.456C103.975 92.8379 93.1348 99.8543 85.1855 110.054C80.6835 115.821 74.9198 129.203 73.8169 136.025C72.1899 145.88 72.5618 161.474 72.9466 171.376C73.6097 190.568 83.4707 206.604 99.7574 216.056C103.913 218.475 106.378 221.275 110.681 223.756C133.305 236.794 164.223 239.053 185.896 231.317C198.519 226.799 209.364 219.027 217.167 208.06C228.222 192.596 230.379 191.343 232.019 166.828C232.723 156.502 230.127 145.834 227.944 137.11C230.514 135.031 232.121 133.032 234.136 130.963C236.811 128.136 239.442 127.976 239.183 122.566L237.704 122.811C237.083 125.788 231.255 130.4 226.36 129.136C220.771 127.72 218.203 124.257 215.193 121.317C210.769 117.064 211.53 115.609 209.059 109.433C207.993 106.786 206.121 106.901 207.068 103.595C207.824 100.829 209.492 100.749 211.367 99.2239L211.328 99.07Z" fill="#D03435"/>
<path fill-rule="evenodd" clip-rule="evenodd" d="M212.669 99.3189L211.327 99.0697C209.402 100.592 207.78 100.725 207.027 103.441C206.131 106.75 207.953 106.632 209.019 109.279C211.49 115.454 210.678 116.906 215.153 121.163C218.166 124.053 220.784 127.519 226.32 128.981C231.265 130.249 237.043 125.634 237.664 122.656L239.142 122.412C241.205 119.691 244.206 119.306 245.683 115.635C247.591 110.888 246.726 108.256 244.329 105.209C240.982 104.813 239.858 105.034 238.39 107.193C236.022 110.647 238.256 110.408 234.752 112.167C234.05 110.755 234.391 112.291 234.38 110.376L235.322 102.989C235.458 99.0697 234.376 97.3282 230.697 96.6563C226.27 95.8795 216.515 96.3253 212.715 99.3726L212.669 99.3189Z" fill="#530700"/>
</svg>
