<svg width="183" height="172" viewBox="0 0 183 172" fill="none" xmlns="http://www.w3.org/2000/svg">
<path fill-rule="evenodd" clip-rule="evenodd" d="M145.328 29.07C130.324 29.6361 134.422 25.9557 119.548 17.1611C108.297 10.4952 87.996 4.27633 74.8087 6.18428C65.8967 7.49781 55.9117 10.3954 48.6402 15.456C37.9749 22.8379 27.1348 29.8543 19.1855 40.0543C14.6835 45.8211 8.91982 59.2034 7.81686 66.0245C6.18991 75.8804 6.56181 91.4743 6.94658 101.376C7.60972 120.568 17.4707 136.604 33.7574 146.056C37.9131 148.475 40.3785 151.275 44.6808 153.756C67.3049 166.794 98.2228 169.053 119.896 161.317C132.519 156.799 143.364 149.027 151.167 138.06C162.222 122.596 164.379 121.343 166.019 96.8285C166.723 86.5021 164.127 75.8339 161.944 67.1101C164.514 65.0309 166.121 63.0325 168.136 60.9631C170.811 58.1359 173.442 57.9755 173.183 52.5662L171.704 52.8107C171.083 55.7881 165.255 60.4 160.36 59.1355C154.771 57.7196 152.203 54.2573 149.193 51.3171C144.769 47.0643 145.53 45.6086 143.059 39.4331C141.993 36.786 140.121 36.901 141.068 33.5949C141.824 30.829 143.492 30.7494 145.367 29.2239L145.328 29.07Z" fill="#D03435"/>
<path fill-rule="evenodd" clip-rule="evenodd" d="M146.669 29.3189L145.327 29.0697C143.402 30.5915 141.78 30.7249 141.027 33.4406C140.131 36.7504 141.953 36.6317 143.019 39.2788C145.49 45.4543 144.678 46.9064 149.153 51.1628C152.166 54.053 154.784 57.5188 160.32 58.9812C165.265 60.2494 171.043 55.6338 171.664 52.6565L173.142 52.4119C175.205 49.6911 178.206 49.3058 179.683 45.6354C181.591 40.8882 180.726 38.2557 178.329 35.2091C174.982 34.8134 173.858 35.0335 172.39 37.1933C170.022 40.6474 172.256 40.4076 168.752 42.1667C168.05 40.7552 168.391 42.2914 168.38 40.3763L169.322 32.9892C169.458 29.0697 168.376 27.3282 164.697 26.6563C160.27 25.8795 150.515 26.3253 146.715 29.3726L146.669 29.3189Z" fill="#530700"/>
</svg>
