<svg width="434" height="511" viewBox="0 0 434 511" fill="none" xmlns="http://www.w3.org/2000/svg">
<path opacity="0.62" d="M212.722 489.366C320.163 489.366 407.261 485.197 407.261 480.055C407.261 474.914 320.163 470.745 212.722 470.745C105.281 470.745 18.1836 474.914 18.1836 480.055C18.1836 485.197 105.281 489.366 212.722 489.366Z" fill="#0A0A0A" fill-opacity="0.27"/>
<path d="M112.288 457.593C112.288 457.593 89.0116 474.773 91.173 478.005C93.3343 481.238 122.669 478.005 122.669 478.005L144.855 466.903L112.288 457.593Z" fill="#763116"/>
<path d="M321.326 457.593C321.326 457.593 344.602 474.773 342.44 478.005C340.279 481.238 310.944 478.005 310.944 478.005L288.758 466.903L321.326 457.593Z" fill="#763116"/>
<path d="M376.302 405.905C371.314 415.215 345.286 446.25 341.407 449.982C340.077 451.256 334.461 454.507 327.441 458.184C314.196 465.148 295.908 473.756 291.567 474.163C284.898 474.791 227.872 474.163 216.788 474.163C205.704 474.163 148.678 474.791 142.028 474.163C135.378 473.553 96.0674 453.676 92.1696 449.982C88.3088 446.25 62.2619 415.234 57.2743 405.905C53.1733 398.239 46.0796 375.887 44.0292 361.976V361.94C43.5673 358.947 43.3641 356.361 43.475 354.403C44.0107 343.245 69.5033 300.425 75.0452 291.742C80.5871 283.042 92.2066 271.256 92.2066 271.256H341.407C341.407 271.256 353.045 283.042 358.586 291.742C364.128 300.425 389.603 343.245 390.157 354.403C390.692 365.56 381.271 396.613 376.302 405.905Z" fill="#AE6515"/>
<path d="M341.404 271.256C341.404 271.256 279.908 296.767 232.469 296.305C185.012 295.843 84.0391 280.104 84.0391 280.104L92.1856 271.256H341.404Z" fill="#763116"/>
<path d="M327.533 458.128C327.533 458.128 327.533 458.128 327.459 458.184C314.214 465.148 295.925 473.756 291.584 474.163C284.916 474.791 227.89 474.163 216.806 474.163C205.722 474.163 148.696 474.791 142.046 474.163C135.396 473.553 96.0852 453.676 92.1874 449.982C88.3265 446.25 62.2797 415.234 57.292 405.905C53.191 398.239 46.0974 375.887 44.0469 361.977C45.1368 363.381 47.0676 379.932 80.6603 408.935C114.253 437.937 164.471 453.437 198.253 453.437C232.035 453.437 327.514 458.128 327.514 458.128H327.533Z" fill="#763116"/>
<path d="M349.868 238.706C349.868 238.706 330.25 230.911 311.703 228.325C293.156 225.72 216.826 224.981 216.826 224.981C216.826 224.981 140.496 225.72 121.949 228.325C103.402 230.929 83.7841 238.706 83.7841 238.706L81.9922 256.145L92.1708 271.256C92.1708 271.256 123.76 289.452 216.826 289.452C309.893 289.452 341.482 271.256 341.482 271.256L351.66 256.145L349.868 238.706Z" fill="#AE6515"/>
<path d="M52.7405 18.2319L81.078 46.2554C81.078 46.2554 155.764 240 155.358 241.718C155.358 241.718 137.365 243.897 135.776 244.507C134.188 245.098 52.6481 70.1409 52.6481 70.1409L38.9782 33.4352L52.7405 18.2319ZM52.7405 51.2246C53.2208 53.2751 65.2282 66.2985 65.2282 66.2985C65.2282 66.2985 69.2738 53.1827 68.7935 51.1322C68.3317 49.0817 56.5275 35.1347 54.3292 34.1371C54.3292 34.1371 52.2417 49.1741 52.722 51.2246H52.7405Z" fill="#666B23"/>
<path d="M54.3265 34.1187L49.6159 51.0029L65.207 66.2985L52.7193 51.2246L54.3265 34.1187Z" fill="#87B8DD"/>
<path d="M142.703 207.21L134.704 214.969C134.704 214.969 98.0904 167.013 98.5522 167.992C99.0141 168.971 135.794 244.507 135.794 244.507L155.375 241.717L142.721 207.21H142.703Z" fill="#375226"/>
<path d="M330.449 243.731C330.449 248.867 279.741 253.005 217.155 253.005C154.568 253.005 103.86 248.848 103.86 243.731C103.86 243.731 103.435 241.053 103.454 237.247C103.454 227.327 106.317 209.686 126.711 211.034C154.975 212.9 177.031 232.758 177.031 232.758C177.031 232.758 181.871 220.862 197.85 221.989C213.848 223.097 217.155 234.476 217.155 234.476C217.155 234.476 226.853 223.466 239.858 221.989C252.881 220.492 265.147 231.65 265.147 231.65C265.147 231.65 276.305 214.747 290.437 211.034C300.708 208.319 317.186 211.219 325.406 224.353C328.491 229.285 330.431 235.659 330.431 243.731H330.449Z" fill="#FAB319"/>
<path d="M165.313 220.472C165.885 220.986 166.317 221.637 166.566 222.364C166.815 223.091 166.873 223.87 166.736 224.626C166.599 225.383 166.27 226.091 165.781 226.684C165.292 227.277 164.659 227.735 163.943 228.014C162.334 228.469 160.637 228.51 159.009 228.134C159.887 229.745 160.261 231.584 160.083 233.41C160.126 234.518 159.743 235.599 159.013 236.433C158.282 237.267 157.26 237.789 156.157 237.892C155.053 237.995 153.952 237.672 153.08 236.988C152.208 236.304 151.631 235.312 151.468 234.216C150.966 231.648 151.185 228.991 152.101 226.54L151.281 226.391C148.369 225.781 145.691 224.354 143.56 222.278C143.232 222.004 142.966 221.664 142.78 221.28C142.595 220.895 142.493 220.476 142.482 220.049C142.472 219.622 142.552 219.198 142.719 218.805C142.885 218.412 143.134 218.058 143.448 217.769C144.212 217.18 145.17 216.9 146.13 216.986C147.811 216.928 149.494 217.035 151.153 217.306C151.213 215.352 151.564 213.418 152.196 211.568C152.498 210.824 152.997 210.177 153.639 209.695C154.281 209.214 155.042 208.916 155.841 208.835C156.639 208.754 157.445 208.892 158.171 209.234C158.897 209.576 159.516 210.11 159.962 210.777C161.497 213.512 160.044 216.381 158.472 218.975C159.642 218.593 160.893 218.53 162.096 218.794C163.299 219.057 164.409 219.636 165.313 220.472Z" fill="#F7D3B3"/>
<path d="M268.707 233.014C268.869 233.559 268.889 234.137 268.764 234.692C268.64 235.246 268.375 235.76 267.996 236.184C267.617 236.607 267.135 236.927 266.597 237.111C266.06 237.296 265.483 237.34 264.924 237.238C263.734 236.903 262.648 236.272 261.768 235.405C261.697 236.76 261.222 238.064 260.403 239.146C260.001 239.861 259.341 240.395 258.558 240.638C257.775 240.881 256.929 240.814 256.193 240.452C255.458 240.09 254.889 239.46 254.603 238.692C254.318 237.923 254.339 237.074 254.66 236.32C255.337 234.507 256.504 232.917 258.029 231.726L257.57 231.315C255.971 229.803 254.834 227.868 254.295 225.734C254.194 225.435 254.158 225.117 254.19 224.803C254.221 224.489 254.32 224.185 254.478 223.912C254.637 223.639 254.852 223.403 255.109 223.219C255.366 223.036 255.659 222.909 255.969 222.848C256.678 222.773 257.39 222.967 257.963 223.393C259.045 224.007 260.064 224.725 261.006 225.539C261.799 224.33 262.769 223.246 263.884 222.325C264.362 221.973 264.927 221.758 265.518 221.703C266.109 221.648 266.704 221.755 267.239 222.012C267.774 222.27 268.228 222.669 268.553 223.166C268.879 223.662 269.062 224.238 269.085 224.832C268.994 227.15 266.968 228.396 264.973 229.423C265.859 229.635 266.672 230.08 267.328 230.711C267.984 231.342 268.46 232.138 268.707 233.014Z" fill="#F7D3B3"/>
<path d="M127 243.147C127.162 243.692 127.182 244.269 127.057 244.824C126.933 245.379 126.668 245.892 126.289 246.316C125.91 246.74 125.428 247.059 124.89 247.244C124.353 247.428 123.776 247.472 123.217 247.371C122.027 247.035 120.941 246.404 120.061 245.537C119.99 246.893 119.515 248.196 118.695 249.278C118.294 249.993 117.634 250.527 116.851 250.77C116.068 251.013 115.222 250.947 114.486 250.585C113.75 250.223 113.182 249.593 112.896 248.824C112.611 248.055 112.631 247.207 112.953 246.452C113.63 244.639 114.796 243.049 116.322 241.858L115.863 241.447C114.264 239.936 113.127 238 112.588 235.866C112.487 235.567 112.451 235.25 112.483 234.936C112.514 234.621 112.613 234.317 112.771 234.044C112.93 233.771 113.144 233.535 113.402 233.352C113.659 233.168 113.952 233.042 114.262 232.981C114.971 232.905 115.683 233.099 116.256 233.526C117.338 234.139 118.357 234.858 119.299 235.671C120.092 234.462 121.062 233.379 122.177 232.457C122.655 232.105 123.22 231.89 123.811 231.835C124.402 231.78 124.997 231.887 125.532 232.145C126.067 232.403 126.521 232.801 126.846 233.298C127.172 233.795 127.355 234.371 127.378 234.964C127.287 237.282 125.261 238.529 123.266 239.555C124.152 239.767 124.965 240.212 125.621 240.843C126.277 241.475 126.753 242.27 127 243.147Z" fill="#F7D3B3"/>
<path d="M317.603 242.146C315.431 241.297 314.757 239.075 313.793 237.197C312.789 235.31 311.682 233.479 310.476 231.714C308.123 228.575 304.742 226.362 300.923 225.461C297.105 224.559 293.091 225.027 289.582 226.782C286.211 227.99 283.091 229.808 280.379 232.147C279.45 232.886 278.726 234.059 277.607 234.594C276.489 235.128 274.93 233.086 275.31 231.623C277.646 218.768 295.453 212.584 306.73 216.733C312.055 218.505 316.57 222.123 319.46 226.934C321.388 229.774 322.927 232.859 324.035 236.108C324.328 236.988 324.363 237.934 324.136 238.834C323.909 239.734 323.428 240.55 322.751 241.185C322.075 241.82 321.23 242.248 320.318 242.419C319.406 242.589 318.464 242.494 317.603 242.146Z" fill="#763116"/>
<path d="M208.825 238.238C207.227 238.348 206.155 237.166 205.005 236.283C203.828 235.405 202.603 234.593 201.336 233.851C198.952 232.592 196.203 232.21 193.566 232.772C190.93 233.333 188.574 234.802 186.91 236.922C185.171 238.662 183.767 240.707 182.769 242.956C182.409 243.688 182.304 244.629 181.766 245.29C181.228 245.95 179.661 245.139 179.467 244.119C177.144 235.449 186.388 226.38 194.61 225.646C198.438 225.183 202.305 226.105 205.512 228.245C207.543 229.442 209.405 230.907 211.047 232.599C211.488 233.06 211.787 233.637 211.91 234.263C212.033 234.888 211.974 235.536 211.74 236.129C211.507 236.723 211.108 237.236 210.591 237.61C210.075 237.984 209.462 238.201 208.825 238.238Z" fill="#763116"/>
<path d="M277.768 245.704C274.989 241.838 277.211 236.133 278.432 232.009C279.331 229.373 280.781 226.958 282.686 224.924C284.59 222.891 286.904 221.285 289.476 220.215C292.048 219.144 294.818 218.632 297.602 218.713C300.387 218.793 303.122 219.465 305.627 220.684C311.78 224.117 316.457 229.69 318.772 236.344C319.306 237.36 319.428 238.542 319.114 239.645C318.801 240.749 318.074 241.689 317.086 242.271C316.097 242.854 314.923 243.033 313.806 242.773C312.688 242.513 311.714 241.833 311.084 240.874C307.468 236.032 304.686 229.16 297.788 228.583C289.039 227.8 284.759 236.653 281.73 243.644C281.052 245.312 279.625 247.184 277.768 245.704Z" fill="#E1853F"/>
<path d="M207.923 249.3C209.718 246.804 208.283 243.119 207.494 240.456C206.913 238.754 205.977 237.194 204.747 235.881C203.518 234.568 202.023 233.531 200.362 232.84C198.701 232.148 196.913 231.817 195.114 231.87C193.316 231.922 191.55 232.356 189.932 233.143C185.959 235.36 182.938 238.959 181.443 243.256C181.099 243.912 181.019 244.675 181.222 245.388C181.425 246.1 181.894 246.707 182.532 247.084C183.17 247.46 183.929 247.576 184.651 247.408C185.372 247.24 186.001 246.801 186.408 246.181C188.743 243.055 190.54 238.616 194.994 238.244C200.644 237.738 203.408 243.455 205.364 247.97C205.802 249.047 206.724 250.256 207.923 249.3Z" fill="#E1853F"/>
<path d="M232.171 307.972C205.262 307.691 178.395 305.782 151.717 302.255C135.092 299.583 115.726 302.6 101.118 292.09C100.303 291.5 99.6741 290.688 99.3074 289.75C98.9408 288.813 98.8514 287.79 99.0499 286.803C99.2484 285.816 99.7265 284.907 100.427 284.184C101.128 283.462 102.021 282.956 103.001 282.727C107.975 283.128 112.889 284.081 117.653 285.567C132.499 287.508 147.539 288.55 162.365 290.834C200.949 297.258 240.285 297.798 279.031 292.433C294.208 290.346 309.231 287.262 324.003 283.201C328.002 282.16 331.946 280.918 335.82 279.479C339.4 277.806 344.41 276.581 346.416 281.05C348.685 286.912 343.211 288.778 338.628 290.311C330.122 293.498 321.119 295.482 312.335 297.883C286.109 304.413 259.198 307.8 232.171 307.972Z" fill="#F3A239"/>
<path d="M57.9501 325.806C56.9881 322.952 58.9149 320.108 60.213 317.673C65.2162 308.514 70.787 299.676 76.8928 291.212C79.3782 288.005 93.8419 265.471 96.7078 275.833C97.3049 276.108 97.8383 276.504 98.2744 276.996C98.7106 277.488 99.0399 278.065 99.2415 278.691C99.4431 279.317 99.5126 279.977 99.4456 280.631C99.3786 281.285 99.1765 281.918 98.8523 282.49C94.7282 290.239 90.1456 297.735 85.129 304.939C79.9808 313.393 74.0997 321.377 67.5538 328.801C66.7843 329.439 65.8676 329.875 64.8871 330.068C63.9065 330.262 62.8932 330.207 61.939 329.909C60.9849 329.612 60.1202 329.081 59.4236 328.364C58.727 327.647 58.2205 326.768 57.9501 325.806Z" fill="#F3A239"/>
<path d="M374.313 352.058C366.168 354.12 364.02 343.948 360.88 338.739C355.132 326.946 350.034 314.985 345.292 302.793C344.341 300.392 343.42 298.068 342.499 295.744C341.578 293.42 338.047 289.711 338.693 286.139C339.056 284.476 340.057 283.022 341.481 282.09C342.904 281.157 344.637 280.82 346.306 281.151C350.821 282.14 351.825 287.388 353.949 290.938C356.916 296.843 360.007 302.609 363.052 308.483C368.202 317.825 372.724 327.501 376.589 337.444C378.91 342.171 380.788 349.851 374.313 352.058Z" fill="#F3A239"/>
<path fill-rule="evenodd" clip-rule="evenodd" d="M353.732 286.884L354.273 286.755L353.87 287.219L357.944 297.1L358.557 296.439C361.194 293.416 364.581 291.141 368.376 289.844C372.172 288.546 376.242 288.271 380.178 289.047C383.795 291.239 386.581 294.572 388.098 298.52C389.615 302.469 389.777 306.809 388.559 310.86C386.987 315.152 384.574 319.088 381.46 322.435C378.358 325.772 374.622 328.457 370.471 330.334L376.253 345.41C377.114 345.651 378.017 345.705 378.9 345.568C379.784 345.431 380.627 345.106 381.374 344.615C385.954 341.315 390.096 337.447 393.701 333.103C397.188 329.479 399.925 325.202 401.756 320.518C403.588 315.834 404.478 310.835 404.374 305.807C404.271 300.779 403.177 295.82 401.155 291.215C399.133 286.611 396.223 282.45 392.591 278.971L392.51 278.991C386.779 273.658 379.299 270.599 371.473 270.387C363.648 270.174 356.014 272.824 350.002 277.838L353.732 286.884Z" fill="#AE6515"/>
<path d="M375.999 346.502C366.163 349.794 361.454 334.385 367.822 328.41C373.591 324.387 378.723 319.523 383.049 313.978C384.475 311.953 385.361 309.598 385.625 307.136C385.888 304.673 385.52 302.184 384.555 299.903C383.59 297.622 382.06 295.624 380.11 294.099C378.159 292.573 375.852 291.569 373.405 291.182C370.346 290.503 367.157 290.701 364.204 291.752C362.19 293.005 360.914 295.194 358.642 296.08C349.559 300.734 344.435 292.192 346.683 284.031C347.43 282.139 348.81 279.668 351.134 279.712C353.457 279.757 352.537 282.718 352.866 284.096C353.246 285.875 353.831 287.604 354.611 289.247C355.252 289.779 356.348 289.346 357.058 289.091C377.007 277.215 400.792 292.863 390.33 315.408C388.015 320.12 384.621 324.218 380.423 327.369C376.265 330.761 368.71 334.279 374.346 340.3C375.168 340.081 376.044 340.198 376.781 340.624C377.517 341.051 378.054 341.752 378.273 342.574C378.492 343.397 378.376 344.273 377.949 345.009C377.523 345.746 376.821 346.282 375.999 346.502Z" fill="#763116"/>
<path fill-rule="evenodd" clip-rule="evenodd" d="M80.2565 279.145L79.7148 279.015L80.1185 279.479L76.044 289.36L75.4308 288.7C72.7942 285.677 69.4075 283.402 65.6119 282.104C61.8164 280.807 57.7458 280.532 53.8103 281.308C50.1932 283.5 47.4073 286.833 45.8903 290.781C44.3733 294.729 44.2112 299.07 45.4296 303.12C47.0013 307.413 49.4145 311.349 52.5278 314.696C55.6305 318.032 59.3662 320.717 63.5169 322.595L57.7351 337.67C56.8743 337.912 55.9717 337.966 55.0882 337.829C54.2047 337.692 53.3609 337.367 52.6138 336.875C48.034 333.576 43.8919 329.708 40.2869 325.364C36.8005 321.739 34.0633 317.463 32.2318 312.779C30.4004 308.095 29.5108 303.096 29.6139 298.068C29.7171 293.039 30.8109 288.081 32.8329 283.476C34.8548 278.871 37.7652 274.71 41.3973 271.232L41.4783 271.251C47.2096 265.919 54.6893 262.859 62.5149 262.647C70.3405 262.435 77.9748 265.085 83.9866 270.099L80.2565 279.145Z" fill="#AE6515"/>
<path d="M57.9895 338.762C67.8254 342.054 72.5344 326.646 66.1666 320.67C60.3978 316.648 55.2648 311.784 50.9393 306.239C49.5135 304.214 48.627 301.859 48.3635 299.396C48.0999 296.934 48.468 294.445 49.433 292.164C50.3979 289.883 51.9278 287.885 53.8786 286.359C55.8294 284.833 58.1367 283.83 60.5829 283.443C63.6426 282.764 66.8317 282.962 69.784 284.013C71.7979 285.265 73.0738 287.455 75.3465 288.34C84.4288 292.994 89.5533 284.453 87.3054 276.292C86.5581 274.4 85.1782 271.929 82.8546 271.973C80.531 272.018 81.4512 274.979 81.1221 276.356C80.7426 278.136 80.1571 279.864 79.3774 281.508C78.7363 282.04 77.6405 281.607 76.9305 281.352C56.9809 269.475 33.1967 285.124 43.6587 307.669C45.9729 312.381 49.3673 316.479 53.5653 319.63C57.7235 323.022 65.2782 326.54 59.6422 332.561C58.8199 332.342 57.9441 332.458 57.2077 332.885C56.4712 333.311 55.9344 334.013 55.7152 334.835C55.496 335.658 55.6124 336.533 56.0389 337.27C56.4654 338.006 57.1671 338.543 57.9895 338.762Z" fill="#763116"/>
<path d="M324.545 484.622C328.826 482.675 331.195 478.166 333.691 474.173C335.519 471.246 337.925 468.275 340.93 466.858C339.319 466.602 337.524 467.122 336.076 467.981C334.029 469.201 332.332 470.973 330.226 472.086C328.119 473.198 325.24 473.471 323.552 471.785C322.227 470.469 322.057 468.301 322.738 466.56C323.419 464.818 324.798 463.445 326.266 462.302C329.493 459.799 333.356 458.111 337.386 457.463C341.566 456.785 345.884 457.195 350.122 457.118C347.477 456.39 344.935 455.056 342.586 453.609C338.565 451.128 334.65 448.219 330.053 447.117C323.532 445.551 316.633 447.935 310.98 451.548C309.194 452.696 307.467 453.984 306.115 455.63C304.827 457.202 303.928 459.055 302.83 460.768C299.345 466.251 294.038 470.204 288.371 473.494C291.191 473.015 294.343 473.772 296.929 475.152C300.795 477.205 303.966 480.381 307.768 482.54C310.572 484.136 313.707 485.159 316.91 485.527C319.48 485.822 322.172 485.686 324.533 484.609L324.545 484.622Z" fill="#FBB921"/>
<path d="M294.579 472.419C297.388 470.117 300.153 467.302 302.338 463.87C302.721 463.267 303.09 462.644 303.451 462.022C304.085 460.947 304.675 459.925 305.349 459.111C306.221 458.043 307.439 457.045 309.282 455.859C312.565 453.75 319.023 450.444 325.282 451.944C327.422 452.453 329.475 453.499 331.554 454.751C327.353 455.638 323.374 457.485 319.976 460.122C318.454 461.31 316.29 463.215 315.181 466.069C314.465 467.901 314.329 469.924 314.788 471.775C315.15 473.232 315.876 474.542 316.896 475.55C318.71 477.351 321.066 478.002 323.379 477.887C322.108 479.692 320.733 481.18 319.057 481.948C317.638 482.595 315.778 482.786 313.529 482.534C310.866 482.229 308.229 481.369 305.894 480.041C304.311 479.14 302.791 477.995 301.189 476.788C299.257 475.335 297.261 473.825 294.958 472.595C294.835 472.528 294.713 472.468 294.59 472.4L294.579 472.419Z" fill="#EF7C00"/>
<path d="M278.085 418.7C275.979 423.407 274.001 428.178 272.261 433.041C271.313 435.656 270.477 438.505 270.085 441.327C278.731 433.027 288.107 425.317 299.609 422.443C306.318 420.775 313.311 420.872 320.228 420.599C331.113 420.196 341.938 418.815 352.597 416.589C344.759 423.94 337.362 431.656 330.507 439.794C318.983 453.453 308.608 468.425 292.174 477.637C278.286 485.449 250.869 487.772 229.819 485.568C230.883 482.795 231.8 479.968 232.538 477.108C234.787 468.551 235.663 459.684 237.994 451.149C240.341 442.604 244.387 434.135 251.485 428.843C259.017 423.231 269.149 421.723 278.102 418.69L278.085 418.7Z" fill="#EF7C00"/>
<path d="M236.837 479.381C237.383 476.746 237.86 474.15 238.33 471.582C239.129 467.238 239.864 463.139 240.922 459.244C242.952 451.778 245.958 446.482 249.826 443.514C249.768 443.892 249.701 444.252 249.661 444.62L244.893 478.772L269.749 454.866C276.952 447.928 284.865 441.224 293.89 438.953C298.211 437.883 303.174 437.727 308.442 437.58C309.66 437.543 310.862 437.515 312.071 437.461C312.187 437.463 312.32 437.455 312.426 437.439C310.529 439.683 308.678 441.969 306.818 444.237C297.844 455.23 289.385 465.603 277.729 472.149C269.754 476.638 253.403 479.349 236.834 479.336L236.837 479.381Z" fill="#FBB921"/>
<path d="M146.427 419.742C148.533 424.449 150.51 429.22 152.25 434.084C153.199 436.699 154.035 439.547 154.427 442.369C145.781 434.07 136.405 426.359 124.902 423.486C118.194 421.817 111.201 421.915 104.283 421.642C93.399 421.238 82.5734 419.858 71.9144 417.631C79.7526 424.982 87.15 432.698 94.0051 440.837C105.529 454.496 115.904 469.467 132.338 478.679C146.226 486.491 173.643 488.814 194.692 486.611C193.629 483.838 192.711 481.011 191.974 478.15C189.725 469.593 188.849 460.727 186.518 452.191C184.17 443.646 180.124 435.178 173.027 429.886C165.495 424.273 155.363 422.765 146.41 419.732L146.427 419.742Z" fill="#EF7C00"/>
<path d="M187.675 480.423C187.129 477.788 186.652 475.193 186.182 472.625C185.382 468.281 184.648 464.182 183.59 460.286C181.56 452.821 178.554 447.525 174.686 444.556C174.743 444.934 174.811 445.295 174.851 445.662L179.619 479.815L154.763 455.909C147.56 448.971 139.647 442.266 130.621 439.995C126.301 438.925 121.337 438.77 116.07 438.623C114.851 438.585 113.65 438.558 112.441 438.503C112.325 438.505 112.192 438.497 112.086 438.482C113.983 440.726 115.833 443.011 117.694 445.28C126.668 456.272 135.127 466.646 146.783 473.192C154.757 477.681 171.109 480.391 187.677 480.379L187.675 480.423Z" fill="#FBB921"/>
<path d="M231.033 451.518C229.953 445.698 225.163 441.438 221.043 437.177C218.023 434.057 215.123 430.218 214.303 426.118C213.503 428.007 213.593 430.358 214.203 432.388C215.073 435.257 216.723 437.868 217.443 440.778C218.163 443.688 217.623 447.288 215.053 448.838C213.043 450.058 210.343 449.608 208.423 448.248C206.503 446.888 205.243 444.787 204.293 442.647C202.213 437.947 201.323 432.717 201.753 427.597C202.193 422.288 204.003 417.137 205.193 411.938C203.503 414.947 201.103 417.648 198.623 420.078C194.373 424.238 189.633 428.137 186.893 433.417C183.003 440.907 183.823 450.057 186.523 458.057C187.383 460.587 188.433 463.087 190.033 465.237C191.563 467.287 193.553 468.947 195.313 470.807C200.953 476.728 204.173 484.408 206.473 492.327C206.743 488.738 208.623 485.118 211.093 482.378C214.773 478.278 219.613 475.368 223.403 471.377C226.203 468.438 228.403 464.917 229.823 461.118C230.963 458.068 231.613 454.737 231.013 451.528L231.033 451.518Z" fill="#FBB921"/>
<path d="M207.043 484.417C205.083 480.287 202.483 476.057 198.953 472.347C198.333 471.697 197.683 471.057 197.033 470.427C195.913 469.327 194.843 468.297 194.053 467.227C193.013 465.837 192.163 464.047 191.273 461.437C189.693 456.787 187.613 447.897 191.343 440.707C192.613 438.247 194.513 436.057 196.673 433.897C196.483 439.297 197.533 444.717 199.723 449.667C200.713 451.887 202.383 455.107 205.533 457.327C207.553 458.757 209.983 459.537 212.383 459.537C214.273 459.537 216.093 459.047 217.633 458.107C220.383 456.437 221.893 453.757 222.453 450.897C224.273 452.997 225.673 455.127 226.103 457.407C226.463 459.337 226.133 461.667 225.143 464.337C223.963 467.497 222.113 470.457 219.783 472.907C218.203 474.567 216.343 476.077 214.383 477.667C212.023 479.587 209.573 481.567 207.373 484.007C207.253 484.137 207.143 484.267 207.023 484.397L207.043 484.417Z" fill="#EF7C00"/>
<path d="M299.618 353.699C299.638 351.058 298.731 348.494 297.055 346.454C295.537 345.11 293.754 344.1 291.821 343.49C289.888 342.88 287.848 342.683 285.834 342.912C281.111 343.004 230.531 344.981 224.774 345.209L224.409 345.247C224.406 345.124 224.393 345.002 224.372 344.882C224.04 342.638 223.054 340.542 221.537 338.856C220.141 337.413 218.435 336.307 216.547 335.623C214.659 334.94 212.64 334.696 210.643 334.911C207.908 335.169 205.26 336.012 202.879 337.383C200.498 338.754 198.439 340.621 196.843 342.858L196.67 343.102L196.403 342.988C191.414 341.324 186.064 341.064 180.937 342.237C174.463 343.693 168.391 346.567 163.161 350.652C153.826 358.477 149.037 367.786 149.663 376.847C149.824 379.415 150.558 381.916 151.81 384.164C153.063 386.413 154.803 388.353 156.903 389.841C164.113 395.16 175.779 393.697 180.502 392.783C185.727 391.788 267.925 375.23 278.753 373.061C288.571 370.996 297.868 367.454 299.497 355.809C299.616 355.111 299.666 354.403 299.646 353.696L299.618 353.699Z" fill="white"/>
<path d="M210.914 351.772C213.718 351.481 216.426 350.266 216.738 347.258C216.843 345.263 215.271 343.216 212.112 343.089C210.523 342.993 208.949 343.446 207.654 344.373C206.783 345.052 206.18 346.018 205.953 347.099C205.789 347.638 205.752 348.208 205.844 348.763C205.935 349.319 206.154 349.846 206.483 350.303C207.051 350.883 207.75 351.319 208.521 351.574C209.291 351.829 210.112 351.897 210.914 351.772Z" fill="#EE7203"/>
<path d="M293.322 355.002C293.151 355.457 292.888 355.871 292.548 356.219C292.208 356.566 291.8 356.839 291.349 357.02L290.984 357.057C290.984 357.057 291.255 355.017 291.278 354.42C291.268 351.587 290.557 348.826 286.25 349.102C284.392 349.352 282.679 350.243 281.409 351.622C280.139 353 279.391 354.78 279.295 356.652C278.681 358.388 277.517 360.832 276.654 360.978C276.48 360.979 276.312 360.916 276.182 360.8C276.086 360.71 276.012 360.6 275.965 360.477C275.918 360.354 275.899 360.222 275.91 360.091C276.001 359.281 276.154 358.478 276.37 357.692C276.718 356.319 276.952 354.921 277.071 353.51C277.314 350.112 275.236 349.477 273.077 349.701C271.786 349.836 270.577 350.4 269.644 351.303L268.887 352.203L269.289 350.065L264.469 350.309L262.919 357.242C262.421 357.999 261.698 358.579 260.852 358.902L260.516 358.936L260.478 358.572C260.47 358.224 260.434 357.877 260.371 357.534C260.289 356.749 259.509 354.138 256.957 354.402C250.312 355.09 250.68 363.299 254.606 362.07L255.082 362.021L255.132 362.498C254.677 365.775 253.301 367.533 251.403 367.815C251.262 367.844 251.117 367.838 250.98 367.798C250.842 367.758 250.716 367.685 250.614 367.585C250.421 367.37 250.275 367.119 250.183 366.845C250.092 366.572 250.057 366.283 250.081 365.996C250.084 364.381 253.002 350.957 253.002 350.957L246.86 351.31L245.416 357.892L245.234 358.591C245.015 359.493 244.852 360.105 244.744 360.711C243.819 363.272 242.177 366.021 240.893 366.211C240.776 366.223 240.658 366.21 240.546 366.173C240.435 366.135 240.333 366.074 240.247 365.994C240.146 365.902 240.066 365.788 240.013 365.661C239.961 365.534 239.938 365.397 239.944 365.26L240.027 364.146L243.264 351.342L236.264 351.613L235.672 353.828C235.428 353.191 235.029 352.624 234.513 352.177C233.997 351.73 233.378 351.418 232.712 351.269C232.045 351.119 231.353 351.136 230.695 351.318C230.037 351.501 229.434 351.843 228.94 352.315C226.323 355.288 224.884 359.116 224.897 363.077L224.911 363.217C224.387 368.004 223.338 371.287 220.131 371.789C219.474 371.932 218.788 371.854 218.181 371.566C219.129 370.89 219.927 370.026 220.525 369.028C220.797 368.68 220.994 368.28 221.106 367.853C221.218 367.427 221.241 366.981 221.175 366.545C221.108 366.109 220.954 365.691 220.72 365.317C220.486 364.942 220.179 364.62 219.816 364.368C219.24 364.053 218.595 363.887 217.938 363.884C217.282 363.882 216.635 364.043 216.057 364.353C215.478 364.663 214.986 365.113 214.625 365.661C214.264 366.21 214.046 366.84 213.99 367.494C213.78 368.79 214.07 370.117 214.8 371.207C214.009 371.833 213.084 372.268 212.097 372.479C211.79 372.526 211.475 372.5 211.179 372.403C210.883 372.306 210.615 372.14 210.396 371.918C209.643 370.948 210.558 367.736 210.713 367.323C210.869 366.91 214.971 353.704 215.224 352.856L205.641 353.367C205.361 354.218 204.374 357.55 203.361 360.631C201.306 366.511 195.263 374.93 188.874 376.725C186.36 377.697 183.565 377.64 181.092 376.567C178.768 375.193 177.371 371.823 178.179 367.035C178.474 364.756 179.124 362.538 180.105 360.46C185.231 348.933 193.955 351.346 193.422 352.223C192.847 352.421 192.295 352.678 191.772 352.989C190.768 353.574 189.918 354.392 189.295 355.374C188.672 356.356 188.293 357.472 188.191 358.631C188.139 359.363 188.239 360.099 188.487 360.79C188.734 361.482 189.122 362.114 189.627 362.648C190.146 363.097 190.758 363.426 191.419 363.613C192.08 363.799 192.773 363.838 193.451 363.726C195.141 363.573 196.712 362.79 197.852 361.533C198.993 360.276 199.619 358.636 199.606 356.939C199.666 356.029 199.535 355.118 199.222 354.262C198.909 353.406 198.421 352.625 197.788 351.969C195.829 350.018 193.576 349.061 188.584 349.295C183.404 349.695 178.472 351.677 174.454 354.972C170.437 358.267 167.527 362.715 166.12 367.717C165.649 369.712 165.683 371.793 166.22 373.771C166.756 375.749 167.777 377.563 169.192 379.046C172.683 382.114 176.962 383.201 184.395 381.638C190.763 379.919 196.36 376.093 200.275 370.784C200.275 370.784 200.275 370.784 200.295 370.98C199.412 374.501 200.786 378.184 206.62 377.325C210.118 376.704 213.418 375.255 216.242 373.098C217.168 373.767 218.224 374.235 219.342 374.471C220.46 374.706 221.615 374.705 222.732 374.467C224.046 374.171 225.286 373.607 226.373 372.812C227.461 372.017 228.374 371.007 229.055 369.845C230.815 366.28 231.932 362.432 232.356 358.479C232.429 357.56 232.621 356.654 232.927 355.785C233.074 355.348 233.38 354.982 233.785 354.761C234.815 354.314 235.374 355.333 235.169 356.091C234.964 356.849 233.999 360.661 233.999 360.661L233.804 361.248C233.043 363.233 232.6 365.326 232.491 367.449C232.436 368.118 232.526 368.79 232.752 369.422C232.979 370.053 233.338 370.629 233.805 371.11C234.251 371.491 234.782 371.759 235.353 371.893C235.924 372.026 236.519 372.02 237.087 371.876C238.711 371.365 240.207 370.515 241.477 369.382C242.748 368.249 243.763 366.859 244.455 365.303L244.622 365.003L244.89 364.578L244.974 365.391C245.619 368.612 248.271 369.868 252.03 369.223C254.171 369.078 256.199 368.209 257.78 366.757C259.36 365.306 260.399 363.359 260.726 361.238L260.708 361.07L260.877 361.053C261.356 360.854 261.815 360.607 262.246 360.316L262.615 360.051L260.982 367.276C261.683 367.204 266.347 366.268 266.712 366.23L268.593 357.023C268.918 355.516 269.837 352.615 270.961 352.527C271.074 352.515 271.188 352.529 271.295 352.567C271.402 352.605 271.499 352.666 271.579 352.747C271.849 353.068 271.992 353.476 271.981 353.895C271.894 355.004 271.684 356.1 271.356 357.162C270.898 358.835 270.592 360.546 270.44 362.273C270.357 362.689 270.384 363.12 270.517 363.523C270.651 363.926 270.887 364.287 271.202 364.571C271.517 364.856 271.9 365.054 272.315 365.145C272.729 365.237 273.16 365.22 273.566 365.095C275.388 364.906 277.772 363.838 279.711 359.301L279.76 359.778C279.993 360.917 280.662 361.92 281.625 362.572C282.587 363.224 283.767 363.474 284.911 363.269C286.221 363.102 287.459 362.576 288.489 361.749C289.519 360.922 290.3 359.827 290.746 358.584L290.728 358.416L290.896 358.398C291.636 358.195 292.308 357.795 292.839 357.241C293.37 356.687 293.742 356 293.915 355.252C293.915 355.252 293.547 355.262 293.322 355.002ZM217.416 366.091C218.425 365.986 218.871 366.733 218.323 368.009C217.801 368.943 217.082 369.753 216.216 370.381C214.818 368.372 216.108 366.056 217.416 366.091ZM255.453 359.857C255.134 360.212 254.689 360.431 254.213 360.467C253.54 360.537 253.365 360.215 253.32 360.05C253.312 359.676 253.407 359.308 253.593 358.984C253.779 358.66 254.05 358.393 254.376 358.212C254.487 358.128 254.619 358.076 254.757 358.061C254.896 358.047 255.035 358.071 255.161 358.13C255.33 358.381 255.444 358.664 255.494 358.962C255.545 359.26 255.531 359.565 255.453 359.857ZM287.576 356.985C287.312 356.731 287.146 356.392 287.109 356.027C287.071 355.663 287.164 355.297 287.37 354.994C287.441 354.909 287.542 354.855 287.652 354.844C287.762 354.832 287.872 354.864 287.959 354.933C287.91 355.63 287.781 356.318 287.576 356.985ZM287.909 352.813C287.909 352.813 285.947 353.016 285.788 355.867C285.743 356.403 285.851 356.94 286.101 357.417C286.352 357.893 286.733 358.288 287.2 358.554L287.241 358.947C286.83 360.18 286.318 361.536 285.203 361.708C285.042 361.742 284.875 361.741 284.714 361.704C284.554 361.666 284.403 361.594 284.274 361.493C283.868 361.138 283.724 360.841 283.72 359.708C283.728 357.043 284.995 350.394 286.851 350.259C286.985 350.246 287.12 350.266 287.244 350.317C287.367 350.369 287.477 350.45 287.562 350.553C287.953 351.238 288.077 352.043 287.909 352.813Z" fill="#EE7203"/>
</svg>
