<svg width="650" height="291" viewBox="0 0 650 291" fill="none" xmlns="http://www.w3.org/2000/svg">
<path d="M1.74347 189.844C2.30267 184.872 5.51837 181.848 6.32227 177.515C7.37085 171.837 6.67175 165.085 6.88147 159.273C7.26593 147.246 9.67767 135.689 10.0971 123.628C10.3068 117.313 10.7263 110.963 10.8661 104.647C11.0409 96.9204 8.24469 89.9999 7.51068 82.3738C6.35724 70.1116 5.5882 34.2805 8.45435 22.3879C9.5379 17.8862 12.6836 4.51538 19.3945 3.91067L18.8353 7.035C24.7423 9.55463 36.7311 8.51318 42.9527 8.54678C54.8366 8.64756 66.6508 5.32166 78.4998 4.381C101.813 2.53328 108.483 14.1571 131.062 15.7025C146.616 16.7439 161.786 12.7126 177.375 13.2837C182.373 13.4516 187.441 13.9556 192.44 13.7204C200.374 13.3509 208.098 11.1336 216.033 10.764C225.155 10.3273 234.278 10.1257 243.401 9.89058C252.768 9.65541 262.275 6.22873 271.363 4.21303C286.253 0.887127 300.164 0.215228 315.438 0.752747C329.839 1.29027 343.855 0.819937 357.801 4.75055C363.428 6.32951 368.811 7.40455 374.648 8.14364C381.639 9.01711 388.175 11.5703 395.235 12.511C411.384 14.6611 410.428 14.9298 426.751 13.5188C433.636 12.9141 439.194 13.0149 446.01 14.1571C451.323 15.0306 456.356 16.0049 461.738 15.2994C473.133 13.8212 484.388 10.6969 495.748 9.25227C501.41 8.54678 507.492 9.78979 513.189 9.82339C521.997 9.85698 530.56 8.31161 539.473 8.64756C562.158 9.48744 584.318 5.38885 606.932 5.18728C615.705 5.12009 623.57 5.59042 631.784 8.64756C637.761 10.8648 643.668 13.1493 649.645 15.3666C648.037 17.5166 646.359 19.6331 644.856 21.8168C638.18 31.3914 631.399 65.1732 622.626 73.1688C612 82.8105 597.495 87.8498 587.533 97.8611C582.291 103.102 578.306 108.779 572.783 113.953C567.925 118.488 562.857 122.285 556.915 125.476C554.014 127.021 544.402 129.272 542.409 131.792C539.963 134.849 540.662 142.374 541.011 146.07C541.85 154.704 549.016 158.97 553.385 166.563C557.404 173.584 560.375 181.009 563.905 188.232C565.408 191.322 566.806 195.286 568.659 198.075C570.651 201.031 575.44 202.644 578.096 205.163C583.234 209.967 585.856 216.686 590.644 221.793C596.516 228.075 603.647 232.577 609.414 238.826C618.187 248.299 624.024 275.815 630.805 286.532C628.393 285.625 625.947 284.684 623.5 283.777C615.286 280.72 607.457 280.25 598.648 280.317C576.034 280.518 553.874 284.617 531.19 283.777C522.277 283.441 513.713 284.986 504.905 284.953C499.173 284.953 493.126 283.676 487.464 284.382C476.104 285.826 464.849 288.951 453.455 290.429C448.107 291.134 443.039 290.16 437.726 289.287C430.91 288.144 425.353 288.077 418.467 288.648C402.144 290.059 403.1 289.79 386.952 287.64C379.891 286.7 373.39 284.147 366.365 283.273C360.527 282.534 355.145 281.459 349.517 279.88C335.571 275.949 321.59 276.42 307.154 275.882C291.88 275.311 277.969 276.017 263.079 279.275C253.956 281.291 244.484 284.718 235.117 284.953C225.994 285.188 216.872 285.39 207.749 285.826C199.815 286.196 192.055 288.413 184.156 288.783C179.158 289.018 174.089 288.547 169.091 288.346C153.537 287.775 138.333 291.806 122.779 290.765C100.164 289.253 93.5294 277.596 70.2159 279.443C58.332 280.384 46.5529 283.743 34.6689 283.609C28.4823 283.542 16.4935 284.617 10.5516 282.097L11.1108 278.973C11.67 275.849 7.61554 251.592 7.68542 248.232C7.7204 244.705 8.3844 241.244 7.65039 237.751C6.98633 234.693 5.30859 230.46 4.92413 227.874C4.60956 225.757 4.92413 223.708 4.60956 221.625C4.15521 218.971 2.05798 217.291 1.35895 214.872C-0.528503 208.288 1.07935 196.496 1.81335 189.81L1.74347 189.844Z" fill="white"/>
</svg>
