<svg width="51" height="51" viewBox="0 0 51 51" fill="none" xmlns="http://www.w3.org/2000/svg">
<path fill-rule="evenodd" clip-rule="evenodd" d="M13.511 5.82289C14.0582 5.77991 14.602 5.70104 15.1389 5.58679C16.6319 5.46646 18.1271 5.78893 19.4378 6.51389C20.7485 7.23884 21.8163 8.3341 22.5079 9.6627C23.0422 10.7314 23.2037 11.4894 22.0729 13.0055C21.2562 13.2022 20.4044 13.2022 19.5876 13.0055L18.345 14.8322C17.8355 14.8322 16.978 14.5215 16.5307 14.5463C15.7727 17.5039 14.8407 17.6157 12.9891 16.9447C11.4731 19.7655 9.26113 16.7956 8.20487 15.5529C6.83794 14.0369 7.76994 11.6386 8.8759 9.33964C6.07992 10.2468 3.90528 13.4528 2.10342 16.7956C-0.878953 22.5491 1.09687 26.5132 1.78033 30.266C2.37668 32.9902 3.40001 35.6031 4.81242 38.0077C5.47584 39.2713 6.23178 40.4842 7.07406 41.6363C9.10636 44.2787 11.7158 46.4216 14.703 47.9012C17.6903 49.3808 20.9762 50.158 24.3097 50.1733C37.9789 50.1733 40.7873 45.7992 46.2053 35.6094C49.0386 30.3157 50.9399 27.2339 50.4055 21.0827C50.1164 18.3081 49.2711 15.6202 47.9202 13.1794C46.0065 9.25265 42.9496 5.01516 38.737 2.90264C35.8817 1.48448 32.729 0.768745 29.5413 0.814987C26.298 1.02624 15.7602 3.4867 13.511 5.82289Z" fill="#B72223"/>
<path fill-rule="evenodd" clip-rule="evenodd" d="M13.5117 5.82317L13.2259 6.24567C12.6007 6.32936 11.9993 6.54011 11.4586 6.86495C10.9179 7.18978 10.4494 7.62185 10.082 8.13453C9.53523 8.33335 9.27427 8.71858 8.92633 9.37719C7.82036 11.6512 6.88837 14.0496 8.25529 15.5905C9.37368 16.8331 11.5235 19.8031 13.0395 16.9822C14.8911 17.6533 15.8231 17.5414 16.5811 14.5839C17.0285 14.5839 17.8859 14.8697 18.3954 14.8697L19.638 13.043C20.4548 13.2398 21.3066 13.2398 22.1234 13.043C23.2542 11.527 23.0926 10.7689 22.5583 9.70025C21.8684 8.37578 20.8045 7.28328 19.4988 6.55861C18.193 5.83393 16.7031 5.50905 15.2142 5.62434C14.654 5.74256 14.0841 5.80911 13.5117 5.82317Z" fill="#520000"/>
</svg>
