<svg width="73" height="69" viewBox="0 0 73 69" fill="none" xmlns="http://www.w3.org/2000/svg">
<path d="M39.5538 35.1423C39.5539 34.9387 39.6212 34.7412 39.7452 34.5807C42.5139 31.259 45.5971 28.1503 49.5075 26.1751C53.4989 24.1971 57.927 23.2729 62.3763 23.4894C63.3757 23.6703 65.0723 23.3146 65.4756 24.5054C65.6521 25.158 65.1906 25.7359 64.9209 26.2899C64.019 28.0954 62.8975 29.7808 61.5821 31.3072C58.8559 34.4724 55.0782 36.5317 50.9503 37.1027C49.4812 37.238 48.0017 37.2172 46.5361 37.0405C48.1409 38.0908 49.5357 39.4352 50.6475 41.0034C51.0248 41.5562 51.3618 42.1356 51.656 42.7371L51.7467 42.9233C53.1666 45.578 53.5378 48.6721 52.7858 51.5849C52.4548 53.4921 51.8503 55.3402 50.9911 57.0713C50.5244 57.8473 50.1403 58.8696 49.352 59.3657C48.6247 60.1987 46.4772 58.9962 45.7275 58.5348C42.5701 56.559 39.9984 53.7645 38.2832 50.4456C36.7662 47.4925 36.7847 44.0755 37.32 40.9068C37.7388 38.954 38.4611 37.0806 39.4603 35.3557C39.4865 35.2824 39.5177 35.2111 39.5538 35.1423Z" fill="#194128"/>
<path fill-rule="evenodd" clip-rule="evenodd" d="M5.84296 24.0395C7.84019 27.8435 6.38943 27.2421 5.96714 32.1743C5.64427 35.9068 6.55323 41.9209 8.67079 45.0893C10.1081 47.2276 12.0845 49.4463 14.2814 50.696C17.4931 52.5339 20.6327 54.4622 24.2328 55.2491C26.2692 55.6959 30.4167 55.5234 32.3042 54.9617C35.0357 54.1586 38.9937 52.1273 41.4887 50.799C46.3346 48.246 49.2348 43.7096 49.6514 38.331C49.7598 36.9576 50.1743 35.9735 50.2802 34.5547C50.8356 27.0945 47.5995 18.8304 42.938 14.1939C40.2199 11.4953 36.8858 9.65945 33.1069 9.00531C27.7718 8.07001 27.1839 7.66852 20.6869 10.2874C17.9486 11.3871 15.5298 13.3814 13.5594 15.0279C12.7083 14.6223 11.9968 14.4554 11.2168 14.1918C10.1607 13.8519 9.79471 13.1924 8.43783 13.9308L8.68316 14.2823C9.52422 14.073 11.4277 15.0056 11.7073 16.4265C12.0336 18.0455 11.4616 19.1384 11.0781 20.2803C10.5322 21.9507 10.0645 21.9348 8.78384 23.3392C8.23572 23.943 8.49637 24.4122 7.53062 24.578C6.7271 24.726 6.50074 24.305 5.87767 24.0103L5.84296 24.0395Z" fill="#D03435"/>
<path fill-rule="evenodd" clip-rule="evenodd" d="M5.73002 23.6336L5.83169 24.0111C6.46011 24.3193 6.69456 24.7216 7.48488 24.5789C8.44554 24.3997 8.1901 23.9438 8.7383 23.3399C10.0192 21.9353 10.4922 21.9646 11.0329 20.2807C11.4031 19.1438 11.97 18.0374 11.6622 16.4264C11.3774 14.9919 9.47884 14.0725 8.63765 14.2818L8.39229 13.9303C7.43894 13.7353 6.9696 13.0082 5.84468 13.0823C4.38999 13.1786 3.82081 13.7289 3.33432 14.7261C3.64582 15.6394 3.84114 15.9025 4.57694 16.0134C5.75632 16.1963 5.41896 15.6491 6.30323 16.3356C6.02751 16.6924 6.37991 16.4136 5.88947 16.6542L3.87609 17.3276C2.85284 17.7792 2.53916 18.2747 2.82077 19.3082C3.16775 20.5479 4.48651 23.0119 5.7381 23.6149L5.73002 23.6336Z" fill="#530700"/>
</svg>
