<svg width="115" height="109" viewBox="0 0 115 109" fill="none" xmlns="http://www.w3.org/2000/svg">
<path d="M62.0888 55.6047C62.0889 55.2806 62.1962 54.966 62.3937 54.7105C66.8028 49.4207 71.7128 44.47 77.9401 41.3246C84.2964 38.1746 91.348 36.7029 98.4335 37.0476C100.025 37.3358 102.727 36.7693 103.369 38.6656C103.65 39.7048 102.915 40.6251 102.486 41.5073C101.05 44.3827 99.2636 47.0666 97.1689 49.4974C92.8274 54.5381 86.8114 57.8175 80.2378 58.7267C77.8983 58.9423 75.542 58.9091 73.2081 58.6278C75.7638 60.3003 77.985 62.4412 79.7555 64.9386C80.3563 65.8189 80.8931 66.7416 81.3616 67.6995L81.506 67.996C83.7672 72.2236 84.3582 77.1509 83.1607 81.7895C82.6336 84.8268 81.6709 87.7699 80.3026 90.5266C79.5595 91.7624 78.9478 93.3903 77.6924 94.1804C76.5343 95.507 73.1144 93.5921 71.9205 92.8572C66.8923 89.7108 62.7968 85.2606 60.0654 79.9752C57.6496 75.2724 57.6791 69.8308 58.5315 64.7847C59.1985 61.6749 60.3488 58.6916 61.94 55.9447C61.9816 55.828 62.0314 55.7144 62.0888 55.6047Z" fill="#194128"/>
<path fill-rule="evenodd" clip-rule="evenodd" d="M8.40457 37.9237C11.5851 43.9815 9.27482 43.0239 8.60233 50.8784C8.08816 56.8224 9.53567 66.3997 12.9079 71.4454C15.1967 74.8506 18.3442 78.384 21.8427 80.374C26.9574 83.3008 31.9571 86.3718 37.6903 87.6248C40.9332 88.3363 47.5381 88.0616 50.544 87.1671C54.8938 85.8882 61.1969 82.6534 65.1702 80.5381C72.8873 76.4724 77.5058 69.2482 78.1694 60.6828C78.3418 58.4957 79.002 56.9286 79.1707 54.6691C80.0551 42.7888 74.9016 29.6283 67.4782 22.2447C63.1496 17.9472 57.8401 15.0236 51.8222 13.9818C43.3262 12.4924 42.3898 11.853 32.0435 16.0236C27.6827 17.7749 23.8308 20.9507 20.6929 23.5728C19.3376 22.9269 18.2046 22.6611 16.9623 22.2414C15.2805 21.7001 14.6977 20.6497 12.5369 21.8256L12.9276 22.3854C14.267 22.0521 17.2983 23.5373 17.7434 25.8001C18.2631 28.3783 17.3522 30.1187 16.7414 31.9373C15.8722 34.5973 15.1274 34.5719 13.0879 36.8084C12.215 37.77 12.6301 38.5172 11.0922 38.7812C9.81255 39.0169 9.45209 38.3466 8.45984 37.8772L8.40457 37.9237Z" fill="#D03435"/>
<path fill-rule="evenodd" clip-rule="evenodd" d="M8.22474 37.2773L8.38665 37.8785C9.3874 38.3693 9.76077 39.0099 11.0194 38.7826C12.5492 38.4972 12.1424 37.7713 13.0154 36.8096C15.0552 34.5728 15.8085 34.6195 16.6695 31.9378C17.2592 30.1273 18.1618 28.3654 17.6717 25.7998C17.2182 23.5154 14.1947 22.0514 12.8551 22.3846L12.4644 21.8248C10.9462 21.5142 10.1988 20.3564 8.40734 20.4744C6.09075 20.6278 5.18434 21.5041 4.4096 23.0921C4.90566 24.5466 5.21671 24.9655 6.38847 25.1422C8.26663 25.4335 7.72937 24.562 9.13757 25.6553C8.69848 26.2234 9.25968 25.7795 8.47866 26.1626L5.27236 27.235C3.64284 27.9542 3.14331 28.7433 3.59178 30.3891C4.14433 32.3633 6.24446 36.2873 8.2376 37.2476L8.22474 37.2773Z" fill="#530700"/>
</svg>
