<svg width="33" height="32" viewBox="0 0 33 32" fill="none" xmlns="http://www.w3.org/2000/svg">
<path fill-rule="evenodd" clip-rule="evenodd" d="M8.83908 3.27925C9.1827 3.25226 9.52417 3.20273 9.8613 3.13099C10.7988 3.05543 11.7378 3.25792 12.5608 3.71315C13.3838 4.16839 14.0544 4.85615 14.4886 5.69044C14.8241 6.36151 14.9256 6.83751 14.2155 7.7895C13.7026 7.91305 13.1677 7.91305 12.6549 7.7895L11.8745 8.93658C11.5546 8.93658 11.0162 8.74149 10.7353 8.7571C10.2593 10.6143 9.67402 10.6845 8.51134 10.2631C7.55935 12.0345 6.17038 10.1695 5.50711 9.38918C4.64875 8.43719 5.234 6.93117 5.92848 5.48757C4.17276 6.05721 2.8072 8.07043 1.67573 10.1695C-0.197036 13.7824 1.04367 16.2716 1.47285 18.6282C1.84732 20.3389 2.48992 21.9796 3.37683 23.4896C3.79343 24.283 4.26811 25.0446 4.79702 25.7681C6.0732 27.4274 7.7118 28.773 9.58761 29.7021C11.4634 30.6313 13.5268 31.1193 15.6201 31.1289C24.2036 31.1289 25.9671 28.3822 29.3693 21.9835C31.1485 18.6594 32.3423 16.7242 32.0068 12.8616C31.8252 11.1193 31.2945 9.43141 30.4462 7.89876C29.2445 5.43294 27.3249 2.77204 24.6796 1.44549C22.8866 0.554958 20.9069 0.105518 18.9052 0.134556C16.8686 0.26721 10.2515 1.81224 8.83908 3.27925Z" fill="#B72223"/>
<path fill-rule="evenodd" clip-rule="evenodd" d="M8.83954 3.27942L8.66006 3.54472C8.26748 3.59728 7.88981 3.72962 7.55029 3.9336C7.21077 4.13758 6.91659 4.4089 6.68585 4.73083C6.34251 4.85568 6.17864 5.09758 5.96015 5.51115C5.26566 6.93914 4.68042 8.44516 5.53878 9.41275C6.24107 10.1931 7.59102 12.058 8.54301 10.2867C9.70569 10.7081 10.2909 10.6378 10.7669 8.78067C11.0478 8.78067 11.5863 8.96015 11.9062 8.96015L12.6865 7.81308C13.1994 7.93663 13.7343 7.93663 14.2472 7.81308C14.9573 6.86109 14.8558 6.38509 14.5203 5.71401C14.0871 4.88232 13.419 4.19629 12.5991 3.74123C11.7791 3.28618 10.8435 3.08217 9.90857 3.15456C9.5568 3.2288 9.19895 3.27059 8.83954 3.27942Z" fill="#520000"/>
</svg>
