<svg width="50" height="51" viewBox="0 0 50 51" fill="none" xmlns="http://www.w3.org/2000/svg">
<path fill-rule="evenodd" clip-rule="evenodd" d="M44.6747 13.5506C44.7176 14.0978 44.7965 14.6416 44.9108 15.1785C45.0311 16.6715 44.7086 18.1668 43.9837 19.4774C43.2587 20.7881 42.1635 21.8559 40.8349 22.5475C39.7662 23.0818 39.0081 23.2434 37.4921 22.1125C37.2954 21.2958 37.2954 20.444 37.4921 19.6272L35.6654 18.3846C35.6654 17.8751 35.9761 17.0176 35.9512 16.5703C32.9937 15.8123 32.8818 14.8803 33.5529 13.0287C30.732 11.5127 33.702 9.30074 34.9446 8.24448C36.4607 6.87756 38.859 7.80955 41.1579 8.91552C40.2508 6.11954 37.0447 3.94489 33.702 2.14304C27.9485 -0.839341 23.9844 1.13648 20.2316 1.81994C17.5073 2.41629 14.8945 3.43962 12.4898 4.85203C11.2262 5.51545 10.0134 6.27139 8.86127 7.11367C6.21884 9.14598 4.07594 11.7554 2.59633 14.7427C1.11672 17.7299 0.339566 21.0158 0.324219 24.3493C0.324219 38.0186 4.69837 40.827 14.8882 46.2449C20.1819 49.0782 23.2637 50.9795 29.4148 50.4451C32.1895 50.156 34.8774 49.3107 37.3181 47.9598C41.2449 46.0461 45.4824 42.9892 47.5949 38.7766C49.0131 35.9213 49.7288 32.7686 49.6826 29.5809C49.4713 26.3376 47.0109 15.7998 44.6747 13.5506Z" fill="#B72223"/>
<path fill-rule="evenodd" clip-rule="evenodd" d="M44.6743 13.5513L44.2518 13.2655C44.1681 12.6403 43.9574 12.0389 43.6326 11.4982C43.3077 10.9575 42.8756 10.4891 42.363 10.1216C42.1641 9.57484 41.7789 9.31388 41.1203 8.96594C38.8462 7.85997 36.4479 6.92798 34.907 8.2949C33.6644 9.41329 30.6944 11.5631 33.5153 13.0791C32.8442 14.9307 32.9561 15.8627 35.9136 16.6207C35.9136 17.0681 35.6278 17.9255 35.6278 18.435L37.4545 19.6776C37.2577 20.4944 37.2577 21.3462 37.4545 22.163C38.9705 23.2938 39.7286 23.1322 40.7972 22.5979C42.1217 21.908 43.2142 20.8441 43.9389 19.5384C44.6636 18.2326 44.9884 16.7427 44.8732 15.2538C44.7549 14.6936 44.6884 14.1237 44.6743 13.5513Z" fill="#520000"/>
</svg>
