<svg width="493" height="470" viewBox="0 0 493 470" fill="none" xmlns="http://www.w3.org/2000/svg">
<path fill-rule="evenodd" clip-rule="evenodd" d="M292.971 433.328C292.071 434.216 291.457 435.353 291.209 436.594C290.85 438.194 291.142 439.872 292.02 441.258C292.898 442.643 294.291 443.623 295.892 443.982C297.119 444.287 298.41 444.217 299.597 443.782C300.785 443.347 301.815 442.566 302.555 441.54C303.295 440.514 303.71 439.29 303.748 438.025C303.786 436.761 303.444 435.514 302.767 434.446C302.09 433.378 301.108 432.537 299.949 432.031C298.789 431.526 297.505 431.379 296.261 431.61C295.018 431.841 293.872 432.439 292.971 433.328ZM345.257 435.878C345.79 433.497 348.153 432 350.534 432.533C352.915 433.067 354.413 435.43 353.879 437.811C353.346 440.192 350.983 441.69 348.602 441.156C346.221 440.622 344.723 438.259 345.257 435.878ZM319.921 392.016C315.477 391.02 311.066 393.815 310.07 398.26C309.074 402.704 311.869 407.115 316.314 408.111C320.759 409.107 325.169 406.312 326.165 401.867C327.161 397.423 324.366 393.012 319.921 392.016ZM56.7265 127.316C56.097 128.228 55.6574 129.257 55.4346 130.343C55.1728 131.42 55.131 132.538 55.3111 133.631C55.4911 134.725 55.8895 135.771 56.4826 136.706C57.0758 137.642 57.8514 138.449 58.7633 139.079C59.6752 139.708 60.7047 140.147 61.7901 140.37C63.9626 140.857 66.2394 140.461 68.1199 139.269C70.0004 138.077 71.3305 136.187 71.8175 134.015C72.3044 131.842 71.9082 129.565 70.7163 127.685C69.5245 125.804 67.6345 124.474 65.462 123.988C64.3853 123.726 63.2668 123.684 62.1735 123.864C61.0802 124.044 60.0344 124.442 59.0985 125.035C58.1626 125.629 57.356 126.404 56.7265 127.316ZM94.8348 144.456C95.0227 143.617 95.5363 142.888 96.2621 142.428C96.9879 141.968 97.8665 141.815 98.705 142.003C99.5435 142.191 100.273 142.704 100.733 143.43C101.193 144.156 101.346 145.035 101.158 145.873C100.97 146.712 100.457 147.441 99.7311 147.901C99.0053 148.361 98.1262 148.514 97.2877 148.326C96.4493 148.138 95.72 147.625 95.2599 146.899C94.7999 146.173 94.6468 145.294 94.8348 144.456ZM359.843 204.457C360.768 200.33 364.863 197.734 368.991 198.659C373.118 199.584 375.714 203.68 374.789 207.807C373.864 211.934 369.768 214.53 365.641 213.605C361.514 212.68 358.918 208.584 359.843 204.457ZM374.158 182.31C374.324 181.571 374.705 180.898 375.253 180.375C375.802 179.853 376.492 179.505 377.238 179.375C377.985 179.245 378.753 179.34 379.445 179.646C380.138 179.953 380.724 180.458 381.129 181.098C381.534 181.737 381.741 182.483 381.723 183.24C381.705 183.997 381.462 184.732 381.026 185.351C380.59 185.971 379.981 186.447 379.274 186.72C378.568 186.992 377.796 187.05 377.057 186.884C376.066 186.662 375.204 186.055 374.66 185.197C374.117 184.34 373.936 183.301 374.158 182.31ZM450.963 221.885C450.545 222.504 450.256 223.202 450.111 223.935C449.787 225.383 450.051 226.901 450.845 228.155C451.64 229.409 452.9 230.295 454.348 230.62C455.121 230.929 455.951 231.067 456.782 231.024C457.612 230.98 458.424 230.757 459.16 230.37C459.896 229.982 460.539 229.439 461.044 228.778C461.55 228.118 461.906 227.356 462.088 226.544C462.269 225.732 462.273 224.891 462.098 224.077C461.923 223.264 461.573 222.499 461.073 221.834C460.573 221.17 459.934 220.621 459.201 220.228C458.468 219.834 457.659 219.604 456.829 219.554C456.099 219.391 455.345 219.375 454.609 219.507C453.873 219.64 453.172 219.919 452.546 220.327C451.919 220.736 451.382 221.265 450.963 221.885ZM281.241 216.422C279.257 215.977 277.288 217.225 276.843 219.209C276.399 221.193 277.647 223.162 279.631 223.607C281.615 224.052 283.584 222.804 284.029 220.819C284.474 218.835 283.226 216.866 281.241 216.422ZM290.594 172.032C291.127 169.651 293.49 168.153 295.871 168.687C298.252 169.221 299.75 171.584 299.216 173.965C298.683 176.346 296.319 177.843 293.938 177.309C291.557 176.776 290.06 174.413 290.594 172.032ZM433.564 82.2789C433.835 81.2452 434.496 80.3569 435.409 79.8013C436.322 79.2457 437.415 79.0664 438.457 79.3007C439.486 79.5314 440.382 80.1614 440.946 81.0521C441.511 81.9429 441.698 83.0213 441.468 84.0504C441.237 85.0795 440.607 85.9748 439.716 86.5394C438.826 87.1039 437.747 87.2915 436.718 87.0608C435.675 86.8278 434.763 86.199 434.175 85.307C433.586 84.4149 433.368 83.3293 433.564 82.2789ZM396.725 105.275C395.702 105.924 394.979 106.952 394.714 108.133C394.583 108.718 394.568 109.323 394.671 109.914C394.774 110.504 394.992 111.069 395.313 111.576C395.634 112.082 396.051 112.52 396.541 112.865C397.032 113.21 397.586 113.455 398.171 113.586C399.352 113.851 400.591 113.636 401.613 112.988C402.636 112.339 403.359 111.312 403.624 110.13C403.889 108.949 403.674 107.71 403.025 106.687C402.377 105.665 401.349 104.941 400.168 104.677C398.986 104.412 397.748 104.627 396.725 105.275Z" fill="#939CCB"/>
</svg>
