<svg width="416" height="486" viewBox="0 0 416 486" fill="none" xmlns="http://www.w3.org/2000/svg">
<path fill-rule="evenodd" clip-rule="evenodd" d="M40.8619 90.3173C40.3064 90.7681 39.934 91.4057 39.8142 92.111C39.6944 92.8163 39.8355 93.541 40.211 94.15C40.5865 94.7589 41.1707 95.2103 41.8547 95.42C42.5387 95.6296 43.2756 95.5831 43.9279 95.2892C44.4833 94.8384 44.8557 94.2008 44.9755 93.4956C45.0953 92.7903 44.9543 92.0654 44.5788 91.4565C44.2033 90.8476 43.6189 90.3962 42.935 90.1865C42.251 89.9769 41.5141 90.0234 40.8619 90.3173ZM34.2891 146.618C28.6341 141.282 21.539 150.444 24.9657 156.001C30.7808 164.121 40.366 152.732 34.2891 146.618ZM86.3635 124.079C83.0656 122.192 77.5916 121.357 76.4962 126.127C74.9558 136.535 95.8608 132.467 86.3635 124.079ZM299.355 429.172C298.136 429.924 297.266 431.129 296.935 432.522C296.605 433.916 296.842 435.383 297.593 436.602C298.345 437.821 299.55 438.691 300.943 439.022C302.337 439.352 303.804 439.116 305.023 438.364C306.242 437.612 307.113 436.407 307.443 435.014C307.773 433.62 307.537 432.153 306.785 430.934C306.034 429.715 304.828 428.845 303.435 428.514C302.042 428.184 300.574 428.42 299.355 429.172ZM327.181 366.282C317.285 364.542 316.889 378.396 325.294 380.71C335.206 382.383 335.29 368.491 327.181 366.282ZM363.98 297.744C362.679 298.711 361.789 300.131 361.484 301.723C361.179 303.315 361.482 304.963 362.332 306.343C363.183 307.723 364.52 308.734 366.08 309.176C367.639 309.618 369.307 309.46 370.756 308.732C372.056 307.765 372.947 306.345 373.252 304.753C373.557 303.161 373.254 301.512 372.403 300.133C371.553 298.753 370.216 297.742 368.656 297.3C367.097 296.858 365.428 297.016 363.98 297.744ZM250.712 308.768C242.215 307.146 235.798 319.465 245.66 322.552C253.672 324.416 260.224 311.38 250.712 308.768Z" fill="#939CCB"/>
</svg>
