<svg width="353" height="171" viewBox="0 0 353 171" fill="none" xmlns="http://www.w3.org/2000/svg">
<path d="M346.032 90.1484C345.223 90.0557 344.409 90.0077 343.594 90.0048C341.433 89.9806 339.296 90.0761 337.142 90.1452C337.29 89.6068 337.221 89.0317 336.949 88.5439C337.91 88.5803 338.844 88.6349 339.791 88.6227L342.298 88.6407C342.475 88.6532 342.652 88.6281 342.818 88.5669C342.984 88.5058 343.135 88.4099 343.261 88.2858C343.43 88.0985 343.544 87.8685 343.592 87.6209C343.639 87.3732 343.618 87.1172 343.531 86.8807C343.443 86.6441 343.293 86.436 343.095 86.2789C342.898 86.1218 342.662 86.0216 342.412 85.9893C340.093 86.0746 337.757 86.2492 335.299 86.4703L334.747 85.9555C333.884 85.1306 332.994 84.3239 332.104 83.5172L332.594 83.6064L337.524 83.6039C338.657 83.5795 340.469 84.0009 340.506 82.28C340.542 80.559 338.714 80.7335 337.631 80.8593C336.549 80.985 334.933 81.1291 333.575 81.2509C332.217 81.3726 331.045 81.4822 329.762 81.5715L326.199 78.6204C327.494 78.7176 328.785 78.8371 330.095 78.9829C331.404 79.1287 333.843 80.0326 333.984 77.9852C333.977 77.6847 333.869 77.3955 333.677 77.1641C333.485 76.9328 333.22 76.7729 332.926 76.7103C331.694 76.6409 330.458 76.6627 329.229 76.7755C327.611 76.8041 325.896 76.861 324.2 76.9442L322.197 75.2904L320.979 74.2627C322.77 74.2889 324.554 74.3597 326.356 74.4569C327.473 74.5216 328.623 74.6614 329.729 74.6552C329.963 74.624 330.184 74.5304 330.37 74.3843C330.555 74.2381 330.697 74.0448 330.782 73.8246C330.867 73.6044 330.891 73.3654 330.851 73.1328C330.812 72.9002 330.711 72.6824 330.558 72.5024C330.32 72.2472 329.996 72.0897 329.648 72.0606C328.624 71.9897 327.607 72.0121 326.612 72.0386C323.976 72.0895 321.38 72.3086 318.773 72.4568L316.575 70.6063L325.33 70.9765C325.496 70.9742 325.66 70.9381 325.811 70.8706C325.963 70.8031 326.099 70.7056 326.211 70.5839C326.324 70.4622 326.411 70.3188 326.466 70.1626C326.522 70.0064 326.545 69.8405 326.534 69.6751C326.53 69.3262 326.395 68.9917 326.154 68.7387C325.914 68.4857 325.587 68.3329 325.239 68.311C323.481 68.2219 321.724 68.3863 319.987 68.4391C318.25 68.492 316.225 68.6077 314.337 68.7255C313.156 67.7505 312 66.7574 310.841 65.7866C313.725 66.0113 316.616 66.3293 319.526 66.5358C321.039 66.5802 321.093 64.1255 319.587 63.9209L317.637 63.7508C314.691 63.6525 311.742 63.7476 308.809 64.0354L306.831 62.2477C309.269 62.5115 311.72 62.6493 314.173 62.6606C314.34 62.6557 314.504 62.6173 314.656 62.5476C314.808 62.4779 314.945 62.3783 315.057 62.2548C315.17 62.1313 315.257 61.9864 315.312 61.8287C315.368 61.6709 315.391 61.5037 315.381 61.3368C315.245 59.6767 313.333 59.9282 312.289 59.9688L306.934 60.2855L304.86 60.4154C304.218 59.7689 303.579 59.1 302.922 58.4048L305.229 58.3863C306.913 58.37 308.61 58.5401 310.311 58.4345C310.462 58.4322 310.611 58.399 310.749 58.337C310.887 58.2749 311.011 58.1853 311.114 58.0736C311.269 57.8824 311.369 57.6519 311.402 57.4076C311.434 57.1633 311.399 56.9146 311.299 56.6892C311.2 56.4637 311.04 56.2702 310.837 56.13C310.634 55.9898 310.397 55.9083 310.15 55.8947C308.43 55.8265 306.707 55.8985 304.998 56.11C303.747 56.2743 302.5 56.4163 301.264 56.6292L299.338 54.5517C301.104 54.5961 302.851 54.6142 304.614 54.7965C305.833 54.8106 308.338 55.4732 308.348 53.5171C308.214 51.9725 306.479 52.1409 305.425 52.1106C303.844 52.028 302.259 52.0634 300.684 52.2164C299.445 52.3211 298.213 52.4972 296.995 52.7438C295.785 52.4773 294.534 52.4616 293.318 52.6975C281.252 54.4271 269.079 55.2939 256.89 55.2914C242.747 55.1629 228.761 55.8229 214.849 56.1972C207.217 56.2384 199.46 55.4506 191.83 55.1006C184.822 54.7485 177.89 54.8708 170.929 55.1491C163.968 55.4274 156.922 55.4139 150.051 55.9618C137.955 56.9886 126.128 58.8241 114.032 59.5975C105.812 59.8982 97.6248 60.8048 89.5378 62.3099C80.0798 64.6682 70.6745 66.99 61.1922 68.9753C52.32 70.7721 42.9977 72.2567 34.0992 74.0717C31.1708 74.5337 28.2786 75.2012 25.4439 76.0691C24.2824 76.503 23.0155 76.7565 21.8318 77.1864C21.7017 77.1006 21.5557 77.0421 21.4024 77.0142C21.2491 76.9864 21.0918 76.9898 20.9399 77.0243C19.5007 77.0852 18.0696 77.1016 16.6628 77.2375C15.3593 77.3369 14.0809 77.6493 12.8784 78.1622C12.7631 78.1436 12.6449 78.1642 12.5427 78.2208C12.4405 78.2774 12.3603 78.3668 12.3149 78.4744C12.2665 78.5662 12.2397 78.6678 12.2365 78.7715C12.2334 78.8752 12.2541 78.9783 12.2969 79.0728C12.3398 79.1673 12.4037 79.2507 12.4838 79.3167C12.5639 79.3827 12.658 79.4294 12.7589 79.4534C13.5392 79.5187 14.3249 79.4674 15.09 79.3012C16.4777 79.1685 17.8719 79.1142 19.2657 79.1386C18.8441 79.6839 18.4672 80.2374 18.1125 80.7948C16.8719 81.0301 15.7166 81.3038 14.399 81.456C13.8152 81.6263 9.37199 81.9936 9.95789 82.9523C10.5438 83.9111 13.9735 83.7973 16.56 83.5072C16.3533 83.8842 16.1466 84.2613 15.9621 84.6424C15.2977 84.9032 14.6189 85.1259 13.9291 85.3095C11.7358 85.7157 9.64359 86.5485 7.77114 87.7607C7.72443 87.8124 7.68858 87.873 7.6657 87.9388C7.64281 88.0047 7.63335 88.0744 7.63789 88.144C7.64243 88.2135 7.66088 88.2814 7.69213 88.3437C7.72338 88.406 7.76681 88.4614 7.81984 88.5066C8.79015 88.5633 9.76336 88.4682 10.7043 88.2246C11.955 88.0603 13.0678 87.894 14.4685 87.6648C13.9172 88.4169 13.3842 89.1953 12.8734 89.9778L12.6058 89.9292C11.2092 90.3895 6.6018 90.773 6.40128 92.5102C6.6081 93.1467 7.33779 92.6804 7.76145 92.7574C8.94727 92.6964 10.0925 92.6051 11.3534 92.5118C11.0561 93.1334 10.7825 93.7517 10.5326 94.3666C8.42856 95.0438 6.34279 95.7474 4.31785 96.6232C4.24725 96.6818 4.19018 96.755 4.15057 96.8377C4.11097 96.9204 4.08976 97.0107 4.08842 97.1024C4.08708 97.1941 4.10563 97.285 4.14281 97.3689C4.17998 97.4527 4.23489 97.5275 4.30375 97.5881C4.71527 97.9854 5.32946 97.7745 5.77541 97.8556C6.98149 97.6831 8.15916 97.4135 9.37334 97.1965C9.20533 97.6772 9.11372 98.1813 9.10185 98.6904C8.13499 99.0675 7.18232 99.4933 6.22356 99.8258C4.65971 100.35 3.15387 101.033 1.72979 101.865C1.65373 101.976 1.61359 102.108 1.6148 102.243C1.61602 102.377 1.65853 102.508 1.73658 102.618C1.81463 102.728 1.92446 102.811 2.05123 102.856C2.178 102.901 2.3156 102.906 2.44543 102.871C3.7042 102.662 4.84946 102.317 6.25012 102.088C7.01633 101.928 7.76428 101.741 8.5163 101.532L8.21239 103.205C6.43437 103.932 4.70458 104.771 3.03353 105.719C2.37478 106.175 0.520095 106.874 1.08777 108.06C1.14842 108.184 1.24228 108.289 1.35893 108.363C1.47558 108.437 1.61047 108.478 1.74862 108.48C1.89225 108.455 2.02374 108.384 2.12243 108.277C2.22112 108.17 2.28142 108.033 2.29385 107.888C4.07352 106.987 5.94691 106.284 7.8802 105.793C7.91042 106.096 8.00661 106.389 8.16203 106.651C6.66254 107.549 5.20943 108.523 3.80821 109.568C3.67948 109.683 3.53027 109.773 3.36835 109.834C3.08052 109.896 3.11501 110.34 3.25084 110.48C3.85087 110.727 4.44678 110.237 4.98596 110.058C6.82157 109.157 8.71091 108.37 10.6432 107.7C10.8286 107.655 10.9937 107.55 11.1126 107.4C11.2315 107.251 11.2974 107.066 11.2999 106.875C11.7331 106.63 12.2004 106.451 12.6864 106.344C14.685 105.74 16.7606 105.219 18.8059 104.738C25.0458 103.08 31.384 101.816 37.7827 100.954C42.7124 100.445 47.6645 100.446 52.5496 99.6757C62.261 98.0775 71.942 96.0131 81.8238 94.9987C89.1353 94.4385 96.0493 92.0095 103.156 90.1683C113.99 87.2079 125.064 84.4521 136.555 84.7207C141.15 85.0098 145.722 85.5944 150.242 86.4708C152.607 86.7625 154.981 86.7562 157.351 87.0256C160.931 87.7351 164.553 88.2088 168.195 88.4435C171.587 88.4149 174.966 88.1997 178.345 87.9845C182.636 87.5666 187.177 87.1709 191.551 87.1826C197.721 86.9449 203.823 85.566 210.054 85.7539C214.61 86.0292 219.05 86.9511 223.42 87.4919C226.899 87.8707 230.391 87.7913 233.882 88.3565C237.657 88.8894 241.471 89.1046 245.282 89.0001C245.46 88.9939 245.634 88.9468 245.791 88.8622L248.582 89.093C255.081 89.583 261.608 89.9169 268.149 90.5528C274.691 91.1887 281.564 91.0097 288.308 91.5442C295.052 92.0787 301.792 92.6356 308.603 92.9289C311.869 93.0847 315.173 93.4087 318.465 93.2929C321.757 93.177 324.903 92.597 328.166 92.3839L332.84 92.0125C333.151 91.9537 333.453 91.9395 333.759 91.9029L335.79 92.1338C339.013 92.3971 342.501 92.34 345.777 92.8201C347.352 93.1524 347.696 90.4969 346.032 90.1484Z" fill="white"/>
<mask id="mask0_1071_3705" style="mask-type:luminance" maskUnits="userSpaceOnUse" x="13" y="46" width="300" height="61">
<path d="M21.1462 76.3074L22.1198 75.9776L23.4178 75.0512L27.584 73.2926L30.5988 73.2926C32.9947 72.7836 34.0034 70.6592 36.5027 70.215L42.7835 68.7704L48.9387 67.3887L55.5705 64.0251L66.3413 59.8447L71.3176 58.699C75.3716 57.6851 79.4411 56.7124 83.5262 55.7809C85.5573 55.2517 87.5802 54.767 89.6072 54.2601C94.3585 53.4651 99.3511 52.7369 104.242 52.0594L108.077 51.7429L109.973 51.5806L115.833 51.1483C121.849 50.491 127.857 49.8783 133.92 49.3446L137.119 48.9815L143.49 48.2735L147.55 47.8596C152.354 47.5348 157.186 47.3074 162.004 47.0312L164.599 46.9499C168.398 46.834 172.188 46.7627 175.997 46.7178C181.46 46.697 186.933 46.7472 192.424 46.8238L195.593 47.0079L200.399 47.3055L203.176 47.4877L209.774 47.8114C215 47.7015 223.913 52.3611 229.171 52.3261C232.348 52.2123 236.558 54.0974 239.749 54.0323L248.793 54.0323L258.968 54.0323L267.51 52.9956C272.176 52.6688 276.297 53.2555 280.951 52.9956L289.761 52.9956L295.203 52.3261L298.664 54.959C303.796 67.7005 308.548 80.4651 312.919 93.2526L309.248 93.0462L304.091 92.777L300.625 92.5848C293.218 92.0219 285.83 91.5699 278.459 91.2287L275.386 91.154L269.125 90.7532L262.575 90.1618L253.861 89.5687C250.991 89.3926 248.143 89.2206 245.287 89.0931C242.996 89.0224 240.813 88.9942 238.581 88.9802C232.622 88.3118 226.668 87.7367 220.729 87.2102L215.01 86.3553L211.469 85.9421L208.427 85.8268L206.712 85.8837C200.42 86.2836 194.156 86.7808 188.018 87.3469L184.595 87.554L179.916 87.9477L175.806 88.2602C169.422 87.7682 163.023 87.3654 156.648 87.0822C154.382 86.8776 152.111 86.6954 149.837 86.5355L142.389 85.4355C135.823 85.4861 129.257 85.6211 122.691 85.8406L113.685 87.6131L111.285 88.1444C105.487 89.6247 99.7227 91.1799 93.9904 92.8102L88.6574 94.1445L86.5797 94.5501L83.1743 95.0368L74.1074 96.1302L67.3473 97.2052L60.8771 98.3328C56.1501 98.994 51.2366 99.6675 46.4427 100.317L40.4488 100.725L35.3772 101.254C31.4387 102.013 27.4739 102.789 23.4178 103.688C20.0949 104.481 16.7666 105.304 13.4328 106.157C14.262 100.073 15.1027 93.9687 15.9549 87.8429C17.6126 84.2129 19.4263 79.9413 21.1462 76.3074Z" fill="white"/>
</mask>
<g mask="url(#mask0_1071_3705)">
<path d="M346.032 74.0697C345.223 73.9769 344.409 73.929 343.594 73.926C341.433 73.9019 339.296 73.9973 337.142 74.0665C337.29 73.528 337.221 72.953 336.949 72.4651C337.91 72.5015 338.844 72.5562 339.791 72.5439L342.298 72.5619C342.475 72.5745 342.652 72.5494 342.818 72.4882C342.984 72.427 343.135 72.3312 343.261 72.2071C343.43 72.0198 343.544 71.7898 343.592 71.5421C343.639 71.2945 343.618 71.0385 343.531 70.8019C343.443 70.5654 343.293 70.3573 343.095 70.2002C342.898 70.0431 342.662 69.9429 342.412 69.9105C340.093 69.9959 337.757 70.1704 335.299 70.3916L334.747 69.8768C333.884 69.0519 332.994 68.2452 332.104 67.4385L332.594 67.5276L337.524 67.5252C338.657 67.5007 340.469 67.9222 340.506 66.2012C340.542 64.4803 338.714 64.6548 337.631 64.7805C336.549 64.9063 334.933 65.0504 333.575 65.1721C332.217 65.2939 331.045 65.4034 329.762 65.4927L326.199 62.5417C327.494 62.6389 328.785 62.7583 330.095 62.9042C331.404 63.05 333.843 63.9538 333.984 61.9065C333.977 61.606 333.869 61.3167 333.677 61.0854C333.485 60.8541 333.22 60.6942 332.926 60.6316C331.694 60.5622 330.458 60.584 329.229 60.6968C327.611 60.7253 325.896 60.7822 324.2 60.8655L322.197 59.2116L320.979 58.184C322.77 58.2102 324.554 58.281 326.356 58.3781C327.473 58.4429 328.623 58.5826 329.729 58.5765C329.963 58.5452 330.184 58.4517 330.37 58.3055C330.555 58.1594 330.697 57.9661 330.782 57.7459C330.867 57.5257 330.891 57.2867 330.851 57.0541C330.812 56.8214 330.711 56.6037 330.558 56.4237C330.32 56.1685 329.996 56.011 329.648 55.9819C328.624 55.911 327.607 55.9334 326.612 55.9598C323.976 56.0107 321.38 56.2299 318.773 56.3781L316.575 54.5276L325.33 54.8978C325.496 54.8954 325.66 54.8594 325.811 54.7919C325.963 54.7244 326.099 54.6268 326.211 54.5051C326.324 54.3834 326.411 54.2401 326.466 54.0839C326.522 53.9276 326.545 53.7618 326.534 53.5963C326.53 53.2474 326.395 52.9129 326.154 52.66C325.914 52.407 325.587 52.2542 325.239 52.2322C323.481 52.1432 321.724 52.3075 319.987 52.3604C318.25 52.4133 316.225 52.529 314.337 52.6467C313.156 51.6718 312 50.6787 310.841 49.7078C313.725 49.9326 316.616 50.2505 319.526 50.457C321.039 50.5015 321.093 48.0467 319.587 47.8421L317.637 47.6721C314.691 47.5738 311.742 47.6689 308.809 47.9567L306.831 46.169C309.269 46.4328 311.72 46.5706 314.173 46.5818C314.34 46.577 314.504 46.5386 314.656 46.4689C314.808 46.3992 314.945 46.2996 315.057 46.1761C315.17 46.0526 315.257 45.9076 315.312 45.7499C315.368 45.5922 315.391 45.4249 315.381 45.2581C315.245 43.5979 313.333 43.8494 312.289 43.8901L306.934 44.2068L304.86 44.3367C304.218 43.6901 303.579 43.0213 302.922 42.3261L305.229 42.3076C306.913 42.2912 308.61 42.4613 310.311 42.3558C310.462 42.3535 310.611 42.3203 310.749 42.2582C310.887 42.1962 311.011 42.1066 311.114 41.9949C311.269 41.8037 311.369 41.5732 311.402 41.3289C311.434 41.0846 311.399 40.8359 311.299 40.6104C311.2 40.385 311.04 40.1915 310.837 40.0512C310.634 39.911 310.397 39.8296 310.15 39.8159C308.43 39.7478 306.707 39.8198 304.998 40.0313C303.747 40.1956 302.5 40.3375 301.264 40.5505L299.338 38.4729C301.104 38.5174 302.851 38.5355 304.614 38.7177C305.833 38.7318 308.338 39.3945 308.348 37.4384C308.214 35.8938 306.479 36.0622 305.425 36.0319C303.844 35.9493 302.259 35.9847 300.684 36.1377C299.445 36.2424 298.213 36.4184 296.995 36.6651C295.785 36.3986 294.534 36.3828 293.318 36.6188C281.252 38.3483 269.079 39.2152 256.89 39.2126C242.747 39.0842 228.761 39.7442 214.849 40.1184C207.217 40.1597 199.46 39.3718 191.83 39.0218C184.822 38.6698 177.89 38.792 170.929 39.0704C163.968 39.3487 156.922 39.3352 150.051 39.8831C137.955 40.9098 126.128 42.7454 114.032 43.5188C105.812 43.8195 97.6248 44.7261 89.5378 46.2311C80.0798 48.5895 70.6745 50.9112 61.1922 52.8966C52.32 54.6933 42.9977 56.178 34.0992 57.993C31.1708 58.455 28.2786 59.1225 25.4439 59.9904C24.2824 60.4243 23.0155 60.6778 21.8318 61.1076C21.7017 61.0219 21.5557 60.9633 21.4024 60.9355C21.2491 60.9076 21.0918 60.911 20.9399 60.9455C19.5007 61.0065 18.0696 61.0228 16.6628 61.1588C15.3593 61.2582 14.0809 61.5706 12.8784 62.0834C12.7631 62.0648 12.6449 62.0855 12.5427 62.1421C12.4405 62.1987 12.3603 62.288 12.3149 62.3957C12.2665 62.4874 12.2397 62.589 12.2365 62.6928C12.2334 62.7965 12.2541 62.8995 12.2969 62.994C12.3398 63.0885 12.4037 63.172 12.4838 63.238C12.5639 63.3039 12.658 63.3507 12.7589 63.3747C13.5392 63.4399 14.3249 63.3886 15.09 63.2225C16.4777 63.0897 17.8719 63.0354 19.2657 63.0599C18.8441 63.6052 18.4672 64.1586 18.1125 64.7161C16.8719 64.9513 15.7166 65.2251 14.399 65.3772C13.8152 65.5476 9.37199 65.9149 9.95789 66.8736C10.5438 67.8323 13.9735 67.7185 16.56 67.4284C16.3533 67.8055 16.1466 68.1825 15.9621 68.5636C15.2977 68.8245 14.6189 69.0472 13.9291 69.2307C11.7358 69.6369 9.64359 70.4698 7.77114 71.682C7.72443 71.7337 7.68858 71.7943 7.6657 71.8601C7.64281 71.9259 7.63335 71.9957 7.63789 72.0652C7.64243 72.1348 7.66088 72.2027 7.69213 72.265C7.72338 72.3273 7.76681 72.3827 7.81984 72.4279C8.79015 72.4846 9.76336 72.3895 10.7043 72.1459C11.955 71.9816 13.0678 71.8153 14.4685 71.5861C13.9172 72.3382 13.3842 73.1166 12.8734 73.8991L12.6058 73.8505C11.2092 74.3107 6.6018 74.6943 6.40128 76.4315C6.6081 77.0679 7.33779 76.6016 7.76145 76.6786C8.94727 76.6177 10.0925 76.5264 11.3534 76.433C11.0561 77.0547 10.7825 77.673 10.5326 78.2878C8.42856 78.9651 6.34279 79.6686 4.31785 80.5445C4.24725 80.6031 4.19018 80.6762 4.15057 80.7589C4.11097 80.8417 4.08976 80.932 4.08842 81.0237C4.08708 81.1154 4.10563 81.2063 4.14281 81.2902C4.17998 81.374 4.23489 81.4488 4.30375 81.5094C4.71527 81.9066 5.32946 81.6958 5.77541 81.7768C6.98149 81.6044 8.15916 81.3347 9.37334 81.1177C9.20533 81.5985 9.11372 82.1026 9.10185 82.6117C8.13499 82.9888 7.18232 83.4146 6.22356 83.7471C4.65971 84.2712 3.15387 84.9546 1.72979 85.7867C1.65373 85.8977 1.61359 86.0294 1.6148 86.164C1.61602 86.2986 1.65853 86.4296 1.73658 86.5392C1.81463 86.6489 1.92446 86.7319 2.05123 86.7771C2.178 86.8223 2.3156 86.8275 2.44543 86.792C3.7042 86.5831 4.84946 86.2384 6.25012 86.0093C7.01633 85.849 7.76428 85.6625 8.5163 85.4536L8.21239 87.126C6.43437 87.8529 4.70458 88.6926 3.03353 89.64C2.37478 90.0961 0.520095 90.7956 1.08777 91.9814C1.14842 92.1055 1.24228 92.2104 1.35893 92.2845C1.47558 92.3585 1.61047 92.3989 1.74862 92.4009C1.89225 92.3766 2.02374 92.3053 2.12243 92.1982C2.22112 92.091 2.28142 91.9541 2.29385 91.809C4.07352 90.9081 5.94691 90.2057 7.8802 89.7145C7.91042 90.0175 8.00661 90.3102 8.16203 90.572C6.66254 91.4704 5.20943 92.4441 3.80821 93.4893C3.67948 93.6045 3.53027 93.6946 3.36835 93.7548C3.08052 93.8177 3.11501 94.2616 3.25084 94.4015C3.85087 94.6487 4.44678 94.1581 4.98596 93.9797C6.82157 93.0784 8.71091 92.291 10.6432 91.6217C10.8286 91.5764 10.9937 91.4708 11.1126 91.3215C11.2315 91.1721 11.2974 90.9875 11.2999 90.7967C11.7331 90.5517 12.2004 90.3727 12.6864 90.2654C14.685 89.6612 16.7606 89.1401 18.8059 88.6595C25.0458 87.0011 31.384 85.7372 37.7827 84.8753C42.7124 84.3661 47.6645 84.3677 52.5496 83.5969C62.261 81.9988 71.942 79.9343 81.8238 78.9199C89.1353 78.3598 96.0493 75.9308 103.156 74.0896C113.99 71.1291 125.064 68.3734 136.555 68.6419C141.15 68.9311 145.722 69.5157 150.242 70.3921C152.607 70.6838 154.981 70.6774 157.351 70.9468C160.931 71.6563 164.553 72.13 168.195 72.3648C171.587 72.3361 174.966 72.121 178.345 71.9058C182.636 71.4878 187.177 71.0921 191.551 71.1039C197.721 70.8662 203.823 69.4872 210.054 69.6752C214.61 69.9505 219.05 70.8724 223.42 71.4132C226.899 71.7919 230.391 71.7126 233.882 72.2778C237.657 72.8106 241.471 73.0259 245.282 72.9213C245.46 72.9152 245.634 72.868 245.791 72.7835L248.582 73.0143C255.081 73.5043 261.608 73.8382 268.149 74.4741C274.691 75.11 281.564 74.9309 288.308 75.4655C295.052 76 301.792 76.5568 308.603 76.8501C311.869 77.0059 315.173 77.33 318.465 77.2141C321.757 77.0983 324.903 76.5183 328.166 76.3051L332.84 75.9338C333.151 75.875 333.453 75.8607 333.759 75.8242L335.79 76.0551C339.013 76.3183 342.501 76.2613 345.777 76.7414C347.352 77.0737 347.696 74.4182 346.032 74.0697Z" fill="white"/>
<path d="M14.5818 107.196C14.3739 107.057 14.2156 106.855 14.13 106.62C14.0443 106.385 14.0357 106.129 14.1053 105.889L14.1782 105.487C15.9453 95.308 18.5811 85.2988 22.0567 75.5694C22.0246 75.4954 22.0151 75.4135 22.0296 75.3342C22.044 75.2548 22.0816 75.1815 22.1377 75.1235C22.2107 74.7221 22.3039 74.2092 22.8066 74.4849C23.3093 74.7605 23.1189 75.5551 23.0297 76.0457C21.7958 81.9486 19.9273 87.4137 18.4907 93.1645C17.4592 96.939 16.4461 100.74 15.6843 104.678C15.3681 105.404 15.5426 107.486 14.5818 107.196Z" fill="#FBB921"/>
<path d="M36.9482 101.669C36.8014 101.592 36.6796 101.47 36.5987 101.318C36.5177 101.167 36.4813 100.992 36.4941 100.818C36.721 99.4843 36.725 98.1069 36.8221 96.7231C37.1137 92.5715 37.2532 88.3659 37.4819 84.1775C37.7106 79.9892 37.9008 75.6211 38.316 71.4197C38.4254 70.7765 38.2468 68.3055 39.1002 69.1111C39.2081 69.2346 39.2854 69.3849 39.3253 69.5485C39.4976 71.0147 39.5236 72.4964 39.4027 73.9685C39.2694 79.6273 38.7874 85.1692 38.4129 90.7566C38.1901 93.691 37.8924 96.6602 37.6068 99.5578C37.4447 100.24 37.7023 101.84 36.9482 101.669Z" fill="#FBB921"/>
<path d="M39.0717 104.492C38.5467 104.193 38.6966 103.312 38.7635 102.783C39.0227 100.176 39.1745 97.5231 39.3486 94.8745C40.1141 86.0408 40.3343 77.0274 40.7065 68.0682C40.7065 68.0682 40.743 67.8538 40.7632 67.7347C40.7835 67.6156 40.8524 67.2106 41.0815 67.3535C41.3105 67.4964 41.418 68.354 41.4748 68.8326C41.6271 71.8644 41.5422 74.801 41.4938 77.794C41.4823 84.9037 40.7734 91.7797 40.2429 98.6902L39.7669 103.52C39.7305 104.005 39.5664 104.834 39.0717 104.492Z" fill="#FBB921"/>
<path d="M65.0929 101.112C64.1564 100.902 64.4319 98.4028 64.2433 97.3361C63.916 92.6719 63.5947 88.0186 63.2795 83.3761C62.8331 77.3289 62.3684 71.2492 62.0558 65.232C62.1044 63.9624 61.2364 57.6498 62.1364 57.795C63.0364 57.9401 62.7001 60.2264 62.8947 61.0952C63.4871 67.7159 63.9416 74.334 64.4185 80.9571C64.8953 87.5803 65.1573 93.7853 65.551 100.191C65.5672 100.706 65.3686 101.117 65.0929 101.112Z" fill="#FBB921"/>
<path d="M68.1932 97.5683C67.5243 97.4182 67.731 96.0134 67.6498 95.3123C67.4103 90.3643 66.7977 85.4464 66.2116 80.506C65.5198 72.8387 65.0104 65.1839 64.4747 57.5516C64.3288 57.2912 64.4767 56.7553 64.4321 56.4323C65.0097 54.5417 65.8477 65.9125 66.018 66.6336C66.747 74.9353 67.4374 83.2378 68.0894 91.5411C68.2213 93.3065 68.3309 95.0668 68.556 96.8246C68.5885 97.2303 68.402 97.5583 68.1932 97.5683Z" fill="#FBB921"/>
<path d="M85.3176 98.179C85.0075 98.2482 84.7216 97.8619 84.6121 97.3778C84.3485 95.8037 84.1335 94.213 83.9144 92.6485C83.448 89.405 83.0484 86.1758 82.6042 82.9371C81.515 74.0318 79.8258 65.1337 78.8481 56.2523C78.8517 56.1671 78.8784 56.0856 78.9242 56.0195C78.97 55.9535 79.0325 55.9063 79.1027 55.885C79.1728 55.8637 79.2469 55.8693 79.3142 55.9011C79.3814 55.9328 79.4383 55.989 79.4765 56.0614C79.9355 57.6744 80.2887 59.3264 80.533 61.0029C81.0825 64.1558 81.6544 67.3134 82.1776 70.4877C83.4755 78.4891 84.4978 86.4857 85.3781 94.5062C85.3681 95.6152 86.1446 97.8951 85.3176 98.179Z" fill="#FBB921"/>
<path d="M88.3978 97.78C88.108 97.7181 87.7613 97.4272 87.6822 96.8953L86.8954 92.147C85.6643 84.1599 84.3441 76.1537 83.2104 68.1333C82.4264 63.9954 81.9205 59.7913 81.6972 55.56C81.7823 55.0091 82.3722 55.2165 82.4108 55.7126C82.7739 59.1779 83.5404 62.5668 84.09 66.0178C85.181 72.3759 86.1261 78.7842 87.1685 85.159C87.6512 88.2976 88.0629 91.448 88.5456 94.5866C88.6288 95.6884 89.2958 97.4842 88.3978 97.78Z" fill="#FBB921"/>
<path d="M112.922 90.7695C112.491 90.4445 112.416 89.617 112.237 89.0038L111.392 85.2141C109.36 76.5951 107.677 67.8124 105.436 59.2026C104.874 56.8075 104.108 54.3964 103.737 51.9621C103.846 51.2774 104.406 51.2358 104.602 51.879C105.209 53.4188 105.608 55.0993 106.131 56.7267C108.285 64.0087 109.872 71.5143 111.49 78.9738C112.241 82.3509 112.92 85.7395 113.644 89.1374C113.897 90.0018 113.677 91.2397 112.922 90.7695Z" fill="#FBB921"/>
<path d="M115.314 88.6443C113.988 82.5287 112.658 76.4385 111.465 70.3505C110.502 65.8554 109.348 61.3995 108.535 56.8307C108.069 54.9759 107.895 53.0421 108.02 51.1184C108.231 50.6642 108.699 50.761 108.845 51.2889C108.89 51.3205 108.928 51.3636 108.956 51.4149C108.983 51.4661 109 51.524 109.005 51.5839C108.981 51.7361 108.956 51.8882 108.823 51.8606C109.374 55.6157 110.289 59.2625 111.171 62.824C112.647 68.8658 113.831 75.0045 115.157 81.1201C115.638 83.446 116.141 85.7765 116.67 88.0863C116.808 89.5294 115.606 89.9882 115.314 88.6443Z" fill="#FBB921"/>
<path d="M178.031 92.7423C172.961 81.4785 168.628 69.4504 163.458 57.8461C162.641 56.1312 161.775 54.4306 160.99 52.7908C160.867 52.6519 160.78 52.4847 160.736 52.3041C160.693 52.1234 160.694 51.9349 160.741 51.755C161.021 50.9766 161.763 51.4569 162.101 52.0022C164.348 55.9815 166.331 60.1044 168.035 64.3443C170.477 70.1779 172.824 76.0177 175.164 81.902C176.45 85.2221 177.735 88.5423 179.095 91.8301C179.412 92.878 178.465 93.6504 178.031 92.7423Z" fill="#FBB921"/>
<path d="M181.613 91.666C178.089 83.6777 174.43 75.803 171.145 67.5126C169.322 62.9661 167.402 58.448 165.746 53.7475C165.6 53.0299 164.533 51.0395 165.212 50.7252C165.512 50.5955 165.697 50.9745 165.796 51.315C165.896 51.6556 166.262 51.7913 166.09 52.1055C170.044 62.0377 174.099 71.8347 178.255 81.4966L180.895 87.7579L182.379 90.999C182.436 91.1443 182.452 91.3027 182.424 91.4563C182.396 91.61 182.326 91.7527 182.221 91.8686C182.168 91.8985 182.11 91.9171 182.05 91.923C181.99 91.9289 181.929 91.9221 181.872 91.903C181.814 91.8839 181.762 91.8529 181.717 91.812C181.672 91.7712 181.637 91.7214 181.613 91.666Z" fill="#FBB921"/>
<path d="M209.383 90.5851C207.692 87.2143 206.058 83.5313 204.404 79.9598C202.206 75.3221 199.907 70.7352 197.884 65.8988C196.158 61.8307 194.18 58.016 192.331 53.9945L191.789 52.7905C191.727 52.6853 191.687 52.5679 191.674 52.4463C191.66 52.3247 191.672 52.2015 191.71 52.0851C192.349 51.2337 193.036 53.4086 193.419 53.962L196.085 59.1915C197.928 62.8663 199.463 66.7156 201.133 70.4513C203.388 75.2835 205.62 80.1117 207.694 85.0494C208.408 86.6994 209.231 88.2541 210.01 89.8006C210.387 90.5141 209.71 91.1973 209.383 90.5851Z" fill="#FBB921"/>
<path d="M214.499 91.4461C212.091 87.2077 210.317 82.3937 208.249 77.8026C204.753 69.9117 200.992 62.0876 197.481 54.0325C197.298 53.5156 196.82 52.5994 197.294 52.271C197.334 52.2593 197.375 52.2561 197.416 52.2615C197.457 52.2669 197.496 52.2809 197.532 52.3025C197.567 52.3241 197.597 52.3528 197.62 52.3868C197.644 52.4209 197.66 52.4594 197.667 52.5C203.212 63.4354 208.394 74.4661 212.916 85.8374C213.588 87.5021 214.345 89.1312 215.184 90.7183C215.555 91.3386 214.87 92.0663 214.499 91.4461Z" fill="#FBB921"/>
<path d="M243.134 96.2361C239.776 88.6005 236.496 80.7947 233.104 72.9686C231.078 67.7633 229.077 62.6776 226.685 57.59C225.9 55.6968 224.935 53.909 224.23 51.9611C223.934 51.5618 224.13 50.8604 224.44 50.8016C224.75 50.7428 225.113 51.1543 225.081 51.586C227.928 56.8205 230.486 62.2068 232.745 67.7206C234.882 73.1995 237.347 78.3926 239.549 83.7681C241.15 87.6295 242.793 91.2679 244.382 95.1961C245.005 96.4609 243.667 97.4847 243.134 96.2361Z" fill="#FBB921"/>
<path d="M247.469 93.1771C247.247 93.0708 247.075 92.8827 246.988 92.6522C245.604 89.7516 244.49 86.624 243.272 83.5693C240.184 76.0979 236.784 68.5698 233.54 61.07C232.687 59.0877 231.878 57.0749 231.113 55.0317C230.886 54.2533 230.395 53.404 230.671 52.6479C230.872 52.1776 231.409 52.3904 231.541 52.806C233.619 57.468 235.912 61.9617 238.055 66.5204C241.461 73.8884 244.563 81.4084 247.385 88.9467C247.734 89.8163 248.135 90.6494 248.519 91.4561C248.902 92.2628 248.186 93.5379 247.469 93.1771Z" fill="#FBB921"/>
<path d="M268.04 96.9836C264.156 90.9799 261.98 83.3057 258.929 76.3937C257.34 72.4655 255.932 68.2939 254.201 64.3859C252.167 59.732 249.98 55.1653 247.845 50.5621C247.742 50.3294 247.694 50.0764 247.703 49.8222C247.743 49.5992 247.968 49.5019 248.07 49.7046C248.171 49.9073 248.55 50.483 248.802 50.8742C252.917 57.7747 256.417 65.024 259.261 72.5382C260.843 76.5111 262.686 80.4394 264.206 84.4933C265.236 87.2851 266.424 90.0158 267.764 92.6721C268.158 93.8032 269.968 95.8827 269.08 96.9653C269.023 97.0499 268.947 97.1196 268.857 97.1684C268.767 97.2171 268.667 97.2435 268.565 97.2453C268.463 97.2471 268.362 97.2242 268.271 97.1787C268.179 97.1331 268.1 97.0662 268.04 96.9836Z" fill="#FBB921"/>
<path d="M271.752 95.8154C268.935 90.0309 266.494 84.0708 264.445 77.972C262.608 73.3769 260.744 68.7999 258.916 64.1602C257.346 60.1204 255.475 56.0949 254.252 51.7957C254.123 50.9889 254.767 50.7375 255.061 51.528C260.628 63.481 265.833 75.5293 270.168 87.9263C271.022 90.2006 272.007 92.3836 273.027 94.5038C273.499 95.5801 272.378 96.8045 271.752 95.8154Z" fill="#FBB921"/>
<path d="M304.535 97.6954C302.388 94.2143 300.419 90.6275 298.633 86.9485C295.213 81.3055 292.417 75.0159 289.007 69.1905C288.705 68.6979 288.411 68.1608 288.131 67.6723C285.607 63.436 283.561 58.849 280.928 54.7079C279.977 53.2222 278.969 51.7953 277.935 50.3866C277.741 50.19 277.893 49.7339 278.136 49.9163C279.282 50.6826 280.285 51.6444 281.098 52.7579C282.835 54.9647 284.405 57.2981 285.795 59.7386C288.007 63.6648 290.387 67.2991 292.571 71.128C294.484 74.5393 296.232 78.1047 298.105 81.4857L298.13 81.3519C300.37 85.122 302.422 89.2955 304.327 93.2582C304.871 94.3244 305.408 95.2973 305.955 96.3412C306.503 97.3851 305.197 98.4838 304.535 97.6954Z" fill="#FBB921"/>
<path d="M306.106 96.2765C302.397 87.9092 298.797 79.3311 295.242 70.6233C292.209 63.991 288.848 57.3913 285.975 50.5118C285.249 48.6753 286.682 48.0144 287.114 50.0738C290.386 56.6574 293.863 63.0017 297.032 69.5204C299.153 74.075 300.866 78.7168 302.924 83.2369C304.649 87.0976 306.235 91.0407 307.684 95.0663C308.171 96.4446 306.675 97.5778 306.106 96.2765Z" fill="#FBB921"/>
<path d="M18.5605 106.837C17.1497 106.235 17.8407 104.08 17.944 102.878C18.5537 99.1431 19.3941 95.4494 20.4606 91.8183C21.1839 88.9784 21.6317 86.1344 22.0287 83.1891C22.4257 80.2437 22.985 77.9268 23.5888 75.3645C23.65 74.9995 23.7996 74.655 24.0246 74.3611C24.3306 74.0712 24.8293 74.3691 24.9145 74.9144C24.7393 78.2075 24.3966 81.4895 23.8876 84.7477C23.1386 90.1469 21.9693 95.4795 20.3904 100.697C20.1716 101.901 19.8413 103.085 19.7259 104.354C19.6104 105.623 19.6146 107.121 18.5605 106.837Z" fill="#87B8DD"/>
<path d="M42.2162 104.562C40.935 103.969 41.5531 101.825 41.5368 100.567C41.6195 96.4239 41.6618 92.2485 41.7222 88.1014C41.6487 81.7626 41.7313 75.4541 42.0105 69.2084C42.1158 68.589 41.832 67.8202 42.0671 67.2506C42.1067 67.1824 42.1603 67.1247 42.2238 67.0817C42.2873 67.0387 42.359 67.0116 42.4337 67.0025C42.5084 66.9933 42.584 67.0023 42.6549 67.0288C42.7259 67.0552 42.7903 67.0984 42.8434 67.1553C44.149 68.4177 43.5677 74.6786 43.6389 76.8334C43.6473 80.3049 43.7084 84.0081 43.7249 87.432C43.7333 91.7156 43.4155 95.8866 43.2273 100.107C42.9781 101.437 43.6716 104.943 42.2162 104.562Z" fill="#87B8DD"/>
<path d="M70.1868 100.15C69.7854 100.06 69.378 99.5417 69.3191 98.8456C69.1568 96.8173 69.0168 94.7941 68.8322 92.7608C68.1973 86.5859 67.6779 80.4085 67.3187 74.2386L66.7342 65.0588C66.5942 63.3486 66.4988 61.6483 66.4703 59.9631C66.4783 58.969 66.3526 57.6319 66.8755 57.2086C67.3985 56.7854 67.7776 57.8095 67.804 58.726C67.9378 58.756 67.9561 59.1016 67.7432 59.1391C68.8954 69.4707 69.4292 79.7773 70.2165 90.0838C70.4356 92.9785 70.5554 96.0785 70.6732 99.0358C70.7033 99.2618 70.6719 99.4938 70.5839 99.6954C70.4958 99.897 70.3562 100.057 70.1868 100.15Z" fill="#87B8DD"/>
<path d="M90.2447 96.8478C88.8433 88.1739 87.3973 79.4904 85.9778 70.7855C85.2355 65.7486 84.252 60.6329 83.905 55.5721C83.8664 54.4798 84.8292 54.0623 85.1353 55.2119C85.0624 55.6841 85.4374 56.0895 85.3868 56.5665C86.8246 65.0043 88.2847 73.4469 89.4773 82.1303C90.1777 86.9415 90.8368 91.771 91.4548 96.6187C91.6434 97.9328 90.4515 98.1929 90.2447 96.8478Z" fill="#87B8DD"/>
<path d="M118.353 88.5127C118.177 88.3338 118.054 88.0981 118 87.8373C117.521 85.931 117.114 84.0131 116.613 82.1021C115.242 76.2654 113.892 70.3019 112.529 64.4145C111.84 61.5216 111.158 58.5779 110.633 55.6664C110.509 54.5668 109.455 51.0746 110.335 50.7587C111.214 50.4428 111.371 53.0684 111.728 54.0065C112.867 58.9834 114.108 63.9026 115.274 68.8588C116.599 74.5986 117.868 80.3531 119.08 86.1221C119.153 86.5302 119.249 86.9428 119.326 87.3255C119.567 88.266 118.908 89.0728 118.353 88.5127Z" fill="#87B8DD"/>
<path d="M184.009 93.1844C180.631 86.4204 178.707 78.6307 176.189 71.1937C174.189 64.9567 171.452 59.2305 169.064 53.107C168.705 52.1665 169.416 51.1671 169.976 52.1441C175.235 61.9169 179.306 72.2844 182.1 83.025C183.027 86.1648 184.288 89.112 185.474 92.0917C185.928 93.395 184.651 94.3377 184.009 93.1844Z" fill="#87B8DD"/>
<path d="M204.568 92.2225C201.774 86.0484 198.747 80.0162 196.03 73.6718C192.961 66.9869 189.464 60.5007 186.313 53.7549C185.672 52.7171 186.41 51.6995 187.144 52.7312C192.28 61.3985 196.799 70.4172 200.667 79.7201C202.437 83.5429 204.158 87.38 205.97 91.0954C206.526 92.348 205.121 93.613 204.568 92.2225Z" fill="#87B8DD"/>
<path d="M250.88 95.2007C247.339 87.7397 244.336 80.0352 241.894 72.146C240.017 66.7603 237.796 61.6118 235.544 56.3883C235.066 55.2995 234.677 54.1735 234.382 53.0215C234.291 52.383 234.883 51.9147 235.286 52.3565C236.906 55.0292 238.356 57.8007 239.629 60.6549C242.846 68.0892 245.663 75.6904 248.067 83.4259C249.365 86.9326 250.535 90.5082 252.112 93.7432C252.755 94.8965 251.517 96.2608 250.88 95.2007Z" fill="#87B8DD"/>
<path d="M273.785 95.5395C273.655 95.4923 273.535 95.4198 273.434 95.3262C273.332 95.2326 273.25 95.1198 273.193 94.9942C272.724 94.149 272.286 93.2632 271.836 92.4443C270.595 89.8167 269.549 87.1014 268.706 84.3202C266.822 78.5879 264.511 73.0543 262.388 67.3707C260.523 62.4248 258.211 57.6514 256.591 52.4967C256.409 51.9799 256.48 51.2096 257.005 51.2359C257.153 51.2577 257.293 51.3188 257.409 51.4129C257.526 51.5071 257.615 51.6307 257.668 51.7709C258.543 53.2891 259.231 54.9573 259.997 56.5708C264.606 66.4652 268.581 76.6429 271.897 87.0422C272.729 89.3011 273.698 91.5077 274.796 93.6501C275.224 94.465 274.634 95.809 273.785 95.5395Z" fill="#87B8DD"/>
<path d="M308.608 97.9752C306.901 94.6936 305.178 91.5011 303.874 87.9012C301.212 80.4919 298.452 73.08 295.591 65.6653C295.03 63.5592 286.77 47.4085 290.281 47.6089C290.642 47.1447 291.031 48.0446 290.559 48.2352C292.14 53.9817 295.347 58.6416 297.468 63.9563C300.803 72.0946 303.693 80.4052 306.617 88.653C307.713 91.3631 308.863 94.0366 310.096 96.6332C310.663 97.8189 309.317 99.1407 308.608 97.9752Z" fill="#87B8DD"/>
<path d="M21.3323 105.913C21.1566 105.615 21.0746 105.271 21.0971 104.926C21.1865 103.239 21.3991 101.561 21.7331 99.9048C22.5759 94 23.9599 88.7924 25.1614 83.0679C25.8178 79.4556 26.4824 75.7988 27.2645 72.2554C27.5238 70.8284 29.4152 71.9552 29.0585 73.4107C28.1488 77.5297 27.5309 81.817 26.7732 85.9867C26.0803 89.7996 25.0285 93.4321 24.2728 97.2106C23.8676 99.4404 23.43 101.849 22.7937 104.082C22.5769 104.895 22.3358 107.109 21.3323 105.913Z" fill="#375226"/>
<path d="M45.3102 102.751C44.5298 102.599 44.6047 101.211 44.6229 100.427C44.6673 98.8116 44.7381 97.1766 44.7866 95.5372C44.938 87.4702 45.6083 79.6024 45.7819 71.5397C45.8892 69.6903 45.8444 67.7867 45.9923 65.9697C45.9938 65.8323 46.025 65.697 46.0834 65.5745C46.1417 65.4519 46.2257 65.3454 46.3288 65.2631C46.4319 65.1808 46.5513 65.125 46.6778 65.0999C46.8043 65.0748 46.9346 65.0812 47.0584 65.1185C48.1186 65.5213 48.0113 67.1 47.8999 68.1612C47.6249 75.7366 47.3762 83.2925 46.6268 90.6774C46.4041 94.1532 46.2483 97.6421 45.8736 101.064C45.7906 101.688 45.892 102.716 45.3102 102.751Z" fill="#375226"/>
<path d="M73.389 100.3C72.3349 100.263 72.2212 98.217 72.0732 96.8748C71.487 92.2474 71.136 87.5874 70.71 82.9675C70.0445 74.6517 69.2675 66.3108 69.1676 58.065C69.1915 57.5977 69.2595 57.1355 69.3702 56.6877C69.508 55.7512 70.5459 56.2118 70.6007 57.2485C71.5825 68.1109 72.6759 78.9984 73.5646 89.8683C73.7391 92.127 73.9804 94.4006 74.1549 96.6593C74.2097 98.0089 74.5221 100.27 73.389 100.3Z" fill="#375226"/>
<path d="M92.7702 96.7642C90.3083 82.8769 88.6227 68.2884 86.4568 54.2746C86.2864 53.5878 86.6513 53.0154 87.1236 53.3874C87.5959 53.7594 87.6203 54.1982 87.7744 54.6919C90.1773 65.8293 91.6903 77.2102 93.325 88.4002C93.6332 90.58 93.9152 92.7813 94.2235 94.9611C94.4004 95.6368 94.4476 96.3505 94.3614 97.0503C94.0494 98.176 93.05 97.9352 92.7702 96.7642Z" fill="#375226"/>
<path d="M120.952 87.5301C118.113 76.4653 115.327 65.0709 112.918 53.6234C112.795 53.4217 112.737 53.1787 112.751 52.9342C112.687 52.4755 112.528 52.0237 112.464 51.5649C112.399 51.1062 112.808 50.2739 113.284 50.6082C114.195 51.3987 114.395 53.4573 114.927 54.7459C115.797 58.0953 116.64 61.4654 117.413 64.8471C119.075 71.4514 120.667 78.0672 122.113 84.7314C122.271 85.4714 122.452 86.216 122.583 86.9767C122.699 88.4151 121.373 88.927 120.952 87.5301Z" fill="#375226"/>
<path d="M143.333 87.865C141.1 79.9962 138.876 72.0828 136.554 64.1979C135.64 60.9912 134.606 57.8088 133.871 54.4967C133.644 53.7183 134.309 53.102 134.662 53.9493C138.014 63.772 140.935 73.9313 143.456 84.0177C143.73 85.1271 144.039 86.2196 144.381 87.2953C144.453 87.4718 144.462 87.6676 144.408 87.8503C144.354 88.0331 144.239 88.192 144.083 88.3007C143.793 88.5014 143.464 88.2805 143.333 87.865Z" fill="#FBB921"/>
<path d="M148.679 90.7489C145.65 82.0673 142.967 72.8729 140.114 63.8549C139.32 60.8772 138.403 58.0617 137.657 55.0699C137.414 54.3807 137.924 53.5982 138.352 54.4131C142.225 65.8047 145.676 77.4882 149.174 88.7887C149.307 89.3198 149.67 89.7312 149.64 90.2785C149.61 90.8258 149.042 91.1603 148.679 90.7489Z" fill="#FBB921"/>
<path d="M151.892 91.448C149.139 83.2773 146.987 74.7092 144.404 66.362C143.611 63.7533 142.744 61.177 142.048 58.5399C141.589 57.2794 141.409 55.9342 141.521 54.5973C141.561 54.4996 141.628 54.4157 141.715 54.3557C141.802 54.2957 141.904 54.2623 142.01 54.2595C142.115 54.2566 142.219 54.2846 142.309 54.3399C142.399 54.3952 142.471 54.4754 142.516 54.5709C143.67 58.2357 144.89 61.9126 146.083 65.4923C148.187 72.1631 149.966 78.9819 151.831 85.7014C152.265 87.3696 152.774 89.0054 153.25 90.5661C153.338 90.7817 153.363 91.0179 153.321 91.247C153.28 91.4761 153.174 91.6885 153.015 91.8594C152.59 92.1737 152.097 91.969 151.892 91.448Z" fill="#87B8DD"/>
<path d="M156.268 91.2068C153.582 83.8084 151.161 76.0896 148.454 68.5493C147.371 65.3811 146.292 62.1906 145.285 58.99C144.641 57.3019 144.242 55.5307 144.098 53.7299C144.248 52.9049 145.201 52.9859 145.347 53.9569C147.371 60.3135 149.725 66.4998 151.835 72.7571C153.316 77.2874 154.792 81.84 156.276 86.348C156.71 87.7629 157.117 89.1959 157.6 90.5966C157.68 90.7976 157.702 91.0171 157.663 91.2299C157.624 91.4428 157.527 91.6406 157.381 91.8007C157.282 91.9021 157.152 91.9687 157.012 91.9903C156.871 92.0119 156.728 91.9874 156.602 91.9206C156.477 91.8537 156.377 91.748 156.316 91.6193C156.256 91.4906 156.239 91.3459 156.268 91.2068Z" fill="#375226"/>
<path d="M133.786 54.7025C131.553 46.8337 129.329 38.9204 127.007 31.0354C126.093 27.8287 125.059 24.6463 124.325 21.3342C124.098 20.5558 124.762 19.9395 125.115 20.7868C128.467 30.6096 131.389 40.7688 133.909 50.8552C134.184 51.9646 134.492 53.0572 134.834 54.1328C134.906 54.3093 134.916 54.5051 134.861 54.6879C134.807 54.8706 134.693 55.0295 134.536 55.1383C134.246 55.339 133.918 55.118 133.786 54.7025Z" fill="#FBB921"/>
<path d="M138.63 58.089C135.601 49.4075 132.918 40.213 130.065 31.195C129.27 28.2173 128.354 25.4018 127.608 22.41C127.364 21.7208 127.875 20.9384 128.303 21.7532C132.175 33.1448 135.627 44.8284 139.124 56.1288C139.258 56.6599 139.621 57.0713 139.591 57.6187C139.56 58.166 138.993 58.5005 138.63 58.089Z" fill="#FBB921"/>
<path d="M141.843 58.2856C139.09 50.1148 136.938 41.5467 134.355 33.1996C133.562 30.5908 132.694 28.0146 131.999 25.3774C131.54 24.1169 131.36 22.7717 131.471 21.4349C131.511 21.3372 131.579 21.2532 131.666 21.1932C131.753 21.1333 131.855 21.0998 131.96 21.097C132.066 21.0942 132.17 21.1222 132.26 21.1775C132.35 21.2328 132.422 21.313 132.467 21.4084C133.62 25.0732 134.841 28.7502 136.033 32.3298C138.138 39.0006 139.916 45.8194 141.782 52.5389C142.216 54.2071 142.725 55.8429 143.201 57.4037C143.289 57.6193 143.314 57.8555 143.272 58.0846C143.23 58.3137 143.124 58.5261 142.966 58.697C142.54 59.0112 142.048 58.8065 141.843 58.2856Z" fill="#87B8DD"/>
<path d="M146.721 58.0444C144.035 50.6459 141.614 42.9272 138.907 35.3868C137.824 32.2186 136.746 29.0282 135.738 25.8275C135.095 24.1394 134.695 22.3683 134.552 20.5675C134.701 19.7425 135.654 19.8235 135.8 20.7944C137.824 27.151 140.178 33.3373 142.288 39.5946C143.769 44.125 145.245 48.6776 146.729 53.1856C147.163 54.6004 147.57 56.0335 148.053 57.4341C148.133 57.6352 148.155 57.8546 148.116 58.0675C148.077 58.2804 147.98 58.4781 147.834 58.6382C147.735 58.7397 147.605 58.8062 147.465 58.8278C147.324 58.8494 147.181 58.825 147.055 58.7581C146.93 58.6912 146.83 58.5855 146.769 58.4569C146.709 58.3282 146.692 58.1835 146.721 58.0444Z" fill="#375226"/>
<path d="M187.888 92.6219C184.315 83.8877 180.69 75.19 177.227 66.1071C175.875 62.268 174.32 58.5303 173.077 54.5959C172.858 53.7729 172.278 52.6541 172.799 51.9425C173.393 51.3364 173.918 52.3762 174.188 53.0471C174.769 54.2815 175.254 55.5443 175.797 56.8639C177.953 61.8624 179.808 66.9907 181.843 72.0135C183.879 77.0363 185.752 81.9375 187.492 87.0678C187.904 88.2252 188.338 89.3867 188.745 90.5664C189.003 91.3042 189.568 92.3744 188.92 92.9015C188.599 93.1428 188.117 93.009 187.888 92.6219Z" fill="#375226"/>
<path d="M202.767 92.6234C201.151 89.7823 199.748 86.8249 198.57 83.7758C196.525 79.1888 194.434 74.5936 192.269 70.031C189.913 64.996 187.401 59.9327 185.365 54.6564C185.188 54.2419 185.058 53.8088 184.978 53.3653C184.784 52.4085 185.732 51.7516 186.269 52.4712C188.049 55.3515 189.274 58.7528 190.786 61.8378C194.377 69.5848 197.856 77.3116 201.005 85.2087C201.879 87.3714 202.714 89.6193 203.758 91.6058C204.16 92.4388 203.274 93.3835 202.767 92.6234Z" fill="#375226"/>
<path d="M254.575 95.9181C252.555 91.5663 251.229 86.6954 249.327 82.2037C246.882 76.139 244.415 70.0702 241.99 63.894C240.889 61.2062 239.739 58.5327 238.515 55.8916C237.92 54.7182 237.441 53.4894 237.085 52.2228C236.99 51.6065 237.541 51.1078 237.961 51.4605C241.23 57.2771 243.977 63.3725 246.168 69.6748C248.694 76.307 251.326 82.8663 253.467 89.5898C254.126 91.46 254.807 93.2884 255.511 95.0748C255.908 95.9302 254.98 96.7289 254.575 95.9181Z" fill="#375226"/>
<path d="M278.051 96.7753C276.352 93.449 275.317 89.7599 273.979 86.2228C272.248 81.8081 270.494 77.3893 268.643 72.9989C265.936 65.6514 262.804 58.4678 259.262 51.4847C259.262 51.4847 259.061 51.4482 259.116 51.2739C258.798 50.6171 259.323 50.1367 259.809 50.5015C261.914 52.8471 263.599 55.5377 264.79 58.4552C267.213 63.5023 269.101 68.9589 271.373 74.0709C273.849 79.8921 276.021 85.8378 277.88 91.884C278.271 93.1529 278.746 94.3448 279.234 95.5853C279.382 95.8541 279.438 96.1633 279.396 96.467C279.277 97.2515 278.393 97.5516 278.051 96.7753Z" fill="#375226"/>
<path d="M310.978 96.0795C308.557 89.6277 305.293 83.7597 302.88 77.2632C299.082 67.8662 295.727 58.0657 292.012 48.3383C291.948 48.695 291.467 48.4235 291.577 48.0748C291.598 47.8259 291.643 47.5795 291.71 47.339C292.801 46.4085 294.772 51.7881 295.323 52.8097C297.073 56.4906 298.567 60.3094 300.004 64.187C302.529 70.197 304.921 76.2982 307.413 82.2331C309.195 86.4958 311.06 90.6815 312.512 95.1145C312.958 96.4625 311.446 97.4315 310.978 96.0795Z" fill="#375226"/>
</g>
</svg>
