<svg width="703" height="164" viewBox="0 0 703 164" fill="none" xmlns="http://www.w3.org/2000/svg">
<path fill-rule="evenodd" clip-rule="evenodd" d="M683.303 106.642C684.925 106.648 686.545 106.743 688.156 106.928C691.468 107.622 690.783 112.907 687.648 112.245C683.592 111.651 679.371 111.47 675.216 111.292C672.693 111.184 670.195 111.077 667.772 110.879L663.729 110.42C663.526 110.444 663.324 110.463 663.122 110.483C662.718 110.521 662.313 110.56 661.902 110.638L652.599 111.377C649.731 111.564 646.908 111.894 644.086 112.224C640.517 112.641 636.95 113.057 633.291 113.186C628.536 113.353 623.768 113.06 619.026 112.767C617.234 112.657 615.447 112.547 613.665 112.462C601.161 111.923 588.777 110.938 576.396 109.954C575.355 109.871 574.315 109.788 573.274 109.706C567.03 109.211 560.731 109.023 554.468 108.837C547.268 108.623 540.116 108.41 533.154 107.733C524.615 106.903 516.089 106.331 507.583 105.761C503.12 105.462 498.662 105.163 494.211 104.828L488.656 104.368C488.344 104.536 487.997 104.63 487.643 104.643C480.058 104.851 472.468 104.422 464.955 103.362C460.896 102.705 456.836 102.485 452.782 102.266C449.896 102.11 447.012 101.955 444.134 101.641C441.021 101.256 437.891 100.774 434.739 100.288C429.083 99.4164 423.355 98.5339 417.532 98.1821C410.349 97.9655 403.252 98.795 396.166 99.6235C391.018 100.225 385.875 100.826 380.708 101.026C372.002 101.002 362.965 101.79 354.425 102.621C347.7 103.05 340.975 103.478 334.226 103.535C326.977 103.068 319.767 102.125 312.642 100.713C310.377 100.455 308.109 100.324 305.843 100.194C303.391 100.052 300.941 99.9105 298.494 99.6089C289.499 97.8647 280.4 96.7012 271.255 96.1257C248.385 95.5912 226.346 101.076 204.784 106.968C201.322 107.865 197.883 108.832 194.449 109.797C183.856 112.776 173.318 115.739 162.329 116.581C148.617 117.989 135.1 120.412 121.621 122.828C115.767 123.878 109.92 124.926 104.067 125.889C98.2093 126.813 92.3029 127.18 86.387 127.546C82.4845 127.788 78.5778 128.031 74.6782 128.433C61.9434 130.149 49.3292 132.664 36.9105 135.965C32.84 136.921 28.7091 137.958 24.7315 139.161C23.7643 139.374 22.8343 139.731 21.9722 140.218C21.9671 140.598 21.8359 140.965 21.5994 141.262C21.3628 141.56 21.0342 141.77 20.6652 141.86C16.8195 143.192 13.0594 144.759 9.40612 146.553C9.10765 146.652 8.80045 146.799 8.48676 146.948C7.67267 147.338 6.81491 147.748 5.95289 147.392C5.68257 147.114 5.61392 146.231 6.18677 146.105C6.50902 145.985 6.80597 145.806 7.06217 145.577C9.85087 143.497 12.7429 141.559 15.7271 139.771C15.4178 139.25 15.2264 138.667 15.1663 138.064C11.3186 139.042 7.5902 140.44 4.0483 142.233C4.02356 142.522 3.90355 142.794 3.70714 143.007C3.51073 143.221 3.24904 143.363 2.96319 143.411C2.68822 143.407 2.41977 143.327 2.18761 143.179C1.95545 143.032 1.76866 142.823 1.64796 142.576C0.732295 140.663 2.98335 139.386 4.56748 138.488C4.93794 138.278 5.27192 138.088 5.52041 137.916C8.84612 136.031 12.2888 134.359 15.8274 132.913L16.4322 129.584C14.9355 130 13.447 130.371 11.9221 130.69C10.4782 130.926 9.1707 131.224 7.89754 131.514C6.71268 131.784 5.55757 132.048 4.34996 132.248C4.09158 132.319 3.81774 132.308 3.56543 132.218C3.31313 132.128 3.09455 131.963 2.93921 131.745C2.78387 131.527 2.69927 131.266 2.69686 130.998C2.69444 130.73 2.77433 130.468 2.9257 130.247C5.75991 128.591 8.75682 127.231 11.8692 126.188C13.0853 125.766 14.2965 125.269 15.5133 124.77C16.2056 124.485 16.8997 124.2 17.5976 123.928C17.6212 122.915 17.8035 121.912 18.1379 120.955C17.2488 121.114 16.3696 121.287 15.4938 121.459C13.9891 121.756 12.4945 122.05 10.9773 122.267C10.6907 122.215 10.3692 122.223 10.0376 122.232C9.3424 122.25 8.60294 122.27 8.04839 121.735C7.91135 121.614 7.80206 121.465 7.72808 121.298C7.6541 121.131 7.61718 120.95 7.61985 120.768C7.62252 120.585 7.66472 120.406 7.74355 120.241C7.82237 120.076 7.93595 119.931 8.07646 119.814C12.1065 118.071 16.2576 116.671 20.445 115.323C20.9424 114.099 21.4869 112.869 22.0785 111.632C21.664 111.662 21.2558 111.693 20.8524 111.723C18.814 111.876 16.9001 112.019 14.9299 112.12C14.6551 112.07 14.3157 112.135 13.9686 112.202C13.2507 112.339 12.5004 112.482 12.2229 111.628C12.5244 109.016 17.8326 107.942 21.6086 107.178C22.8304 106.93 23.8917 106.716 24.5712 106.492L25.1037 106.589C26.1202 105.031 27.1811 103.482 28.2783 101.985C25.4906 102.441 23.2759 102.772 20.7868 103.099C18.9141 103.584 16.9772 103.773 15.0461 103.661C14.9406 103.571 14.8542 103.46 14.792 103.336C14.7298 103.212 14.693 103.077 14.684 102.939C14.675 102.8 14.6938 102.662 14.7393 102.531C14.7849 102.399 14.8562 102.279 14.9492 102.176C18.6757 99.7635 22.8396 98.106 27.2047 97.2975C28.5776 96.9323 29.9285 96.489 31.2509 95.9699C31.618 95.2114 32.0294 94.461 32.4408 93.7106C27.2932 94.2879 20.4673 94.5145 19.3013 92.6064C18.3918 91.1182 23.5708 90.3461 26.4455 89.9175C27.2566 89.7965 27.8843 89.7029 28.14 89.6283C30.067 89.4058 31.8196 89.0526 33.5934 88.6951C34.2333 88.5662 34.8759 88.4366 35.5305 88.3125C36.2364 87.203 36.9867 86.1016 37.8257 85.0164C35.0517 84.9677 32.2771 85.0757 29.5152 85.3399C27.9924 85.6706 26.4288 85.7727 24.8759 85.6429C24.675 85.5951 24.4877 85.502 24.3283 85.3707C24.1689 85.2394 24.0417 85.0733 23.9564 84.8853C23.8711 84.6972 23.83 84.4921 23.8362 84.2857C23.8424 84.0793 23.8958 83.877 23.9922 83.6944C24.0825 83.4802 24.2421 83.3024 24.4455 83.1897C24.6489 83.077 24.8842 83.0359 25.1137 83.073C27.5069 82.0523 30.0512 81.4306 32.6454 81.2327C34.6922 81.035 36.7647 80.9644 38.8506 80.8933C39.618 80.8672 40.3872 80.841 41.1576 80.8083C41.1907 80.8008 41.224 80.794 41.2574 80.788C41.2784 80.7435 41.2995 80.6991 41.3205 80.6546L41.946 80.7683C41.9902 80.7737 42.0342 80.7804 42.0781 80.7884C42.244 80.8185 42.4057 80.8667 42.5603 80.9319C42.7034 80.9843 42.8439 81.0496 42.9421 81.1275C44.0875 80.7121 45.2718 80.3795 46.452 80.048C47.6966 79.6984 48.9366 79.3501 50.1215 78.9075C55.7631 77.1801 61.5192 75.8517 67.3472 74.9322C73.8868 73.5983 80.5414 72.3541 87.2234 71.1352L87.6244 71.053L97.0799 63.9374L110.08 54.9374L131.516 46.6176L141.42 44.3374C149.488 42.3195 157.587 40.3837 165.717 38.5299C168.412 37.8277 171.1 37.1649 173.787 36.5022L173.8 36.4992C175.139 36.1688 176.479 35.8384 177.82 35.5031C187.276 33.9209 197.212 32.4717 206.946 31.1234L214.579 30.4933L218.351 30.1703L230.014 29.3099C241.987 28.0018 253.945 26.7824 266.011 25.7203L272.377 24.9976L285.056 23.5885L293.137 22.7648C299.51 22.3339 305.909 21.9891 312.308 21.6443L312.308 21.6443C315.508 21.4719 318.708 21.2994 321.905 21.1162L327.069 20.9544C334.629 20.7237 342.173 20.5819 349.753 20.4924C360.625 20.4511 371.518 20.551 382.446 20.7033L388.752 21.0699L398.317 21.662L403.844 22.0246L416.975 22.6689C422.223 22.5585 429.339 24.8646 436.446 27.1679C443.425 29.4296 450.395 31.6886 455.58 31.6542C458.761 31.5402 461.875 33.0513 464.994 34.5645C468.072 36.0584 471.155 37.5542 474.31 37.4897L490.971 37.1252L511.336 37.0669L529.175 36.7788C538.462 36.1285 547.732 35.5669 556.995 35.0497L576.165 32.9864L586.997 31.6542L587.563 32.0845C588.569 32.1338 589.573 32.2674 590.562 32.4853C592.987 31.9946 595.438 31.6441 597.904 31.4358C601.04 31.1313 604.194 31.0609 607.34 31.2251C607.562 31.2315 607.799 31.2335 608.046 31.2355C610.133 31.2527 612.919 31.2757 613.158 34.0244C613.141 37.2096 609.8 36.9059 607.258 36.6748C606.693 36.6235 606.168 36.5757 605.727 36.5706C602.697 36.2574 599.69 36.1878 596.664 36.1177C596.185 36.1066 595.706 36.0955 595.226 36.0834L599.059 40.2181C600.949 39.8926 602.851 39.6504 604.76 39.4074C605.336 39.334 605.912 39.2606 606.489 39.1848C609.89 38.7639 613.32 38.6205 616.744 38.7562C617.234 38.7834 617.707 38.9455 618.111 39.2245C618.514 39.5036 618.833 39.8887 619.031 40.3374C619.229 40.7862 619.3 41.281 619.234 41.7673C619.169 42.2535 618.971 42.7123 618.661 43.0928C618.458 43.3151 618.211 43.4934 617.936 43.6169C617.662 43.7404 617.365 43.8065 617.064 43.811C615.042 43.9365 613.024 43.8663 611.012 43.7963C609.655 43.7491 608.3 43.702 606.95 43.7151L602.359 43.7519C603.666 45.1355 604.937 46.4666 606.216 47.7534L610.343 47.4949L621.001 46.8646C621.175 46.8578 621.36 46.8481 621.554 46.838C623.689 46.7266 626.906 46.5589 627.154 49.5871C627.174 49.9193 627.128 50.2522 627.018 50.5661C626.907 50.8799 626.735 51.1684 626.51 51.4142C626.286 51.66 626.014 51.8582 625.712 51.9969C625.41 52.1356 625.082 52.2121 624.75 52.2217C619.868 52.1993 614.991 51.9251 610.137 51.4L614.075 54.9579C619.913 54.3852 625.782 54.1959 631.644 54.3915L635.525 54.73C638.523 55.1372 638.414 60.0226 635.405 59.9341C632.217 59.708 629.042 59.4147 625.874 59.1222C623.285 58.883 620.7 58.6442 618.118 58.443C619.014 59.1931 619.908 59.9498 620.805 60.7084C622.219 61.9043 623.638 63.1049 625.077 64.292C628.833 64.0577 632.863 63.8274 636.321 63.7222C637.37 63.6903 638.424 63.6379 639.48 63.5854C641.902 63.4649 644.338 63.3437 646.773 63.4671C647.466 63.5108 648.117 63.8149 648.595 64.3184C649.074 64.8219 649.344 65.4876 649.351 66.1819C649.372 66.5113 649.326 66.8413 649.216 67.1523C649.105 67.4632 648.933 67.7484 648.709 67.9907C648.485 68.2329 648.214 68.4271 647.912 68.5614C647.611 68.6957 647.285 68.7674 646.955 68.7721L629.531 68.0354L633.905 71.7183C635.438 71.6311 636.969 71.5316 638.501 71.4321C642.153 71.1948 645.81 70.9572 649.505 70.8858C651.486 70.8332 653.511 70.7886 655.548 70.9296C656.24 70.9876 656.886 71.3011 657.36 71.8089C657.664 72.1671 657.865 72.6006 657.944 73.0636C658.022 73.5266 657.974 74.0021 657.806 74.4404C657.637 74.8786 657.353 75.2633 656.985 75.5542C656.616 75.845 656.176 76.0313 655.71 76.0934C654.25 76.1016 652.752 75.982 651.26 75.8629C650.502 75.8025 649.746 75.7421 648.997 75.6987C645.411 75.5054 641.861 75.3645 638.294 75.3123L640.719 77.3575L644.705 80.6491C648.082 80.4834 651.495 80.3701 654.714 80.3133C657.16 80.0888 659.62 80.0454 662.073 80.1835C662.658 80.3081 663.184 80.6263 663.566 81.0867C663.948 81.5471 664.164 82.1227 664.179 82.7209C663.947 86.0686 660.629 85.4515 658.008 84.9639C657.438 84.858 656.902 84.7582 656.437 84.7064C653.831 84.4162 651.261 84.1784 648.683 83.985L655.776 89.8582C657.994 89.7038 660.044 89.5191 662.316 89.3144C662.66 89.2835 663.009 89.252 663.364 89.2201L663.563 89.2023C666.223 88.9639 669.335 88.685 671.437 88.4408C673.591 88.1904 677.23 87.8432 677.158 91.2682C677.097 94.1175 674.591 94.016 672.452 93.9293C672.02 93.9118 671.603 93.8949 671.223 93.9031L661.412 93.908L660.436 93.7306L660.436 93.7311C662.207 95.3364 663.978 96.9417 665.697 98.5833L666.794 99.6079C671.688 99.1677 676.335 98.8203 680.95 98.6505C681.448 98.7149 681.919 98.9142 682.311 99.2269C682.704 99.5396 683.004 99.9538 683.178 100.425C683.352 100.895 683.394 101.405 683.299 101.898C683.205 102.391 682.977 102.848 682.641 103.221C682.39 103.468 682.089 103.659 681.759 103.781C681.429 103.902 681.076 103.952 680.725 103.927L675.735 103.891C674.271 103.91 672.822 103.849 671.352 103.787C670.929 103.769 670.505 103.751 670.079 103.735C670.619 104.706 670.757 105.85 670.462 106.922C671.247 106.896 672.03 106.87 672.812 106.843C676.308 106.723 679.789 106.603 683.303 106.642Z" fill="white"/>
<path fill-rule="evenodd" clip-rule="evenodd" d="M605.657 112.21C599.344 97.7572 593.177 83.0091 587.079 68.0691C584.929 63.3683 582.697 58.6757 580.454 53.9632L580.454 53.9621L580.453 53.961C577.248 47.223 574.022 40.4444 570.993 33.543L573.952 33.2245C575.916 37.0775 577.902 40.8997 579.883 44.7128L579.884 44.714L579.885 44.7159L579.886 44.7185L579.888 44.722L579.891 44.7274L579.893 44.7311L579.893 44.7327C583.548 51.7657 587.187 58.7682 590.641 65.8742C592.873 70.6684 594.879 75.5112 596.879 80.3411L596.879 80.3427C598.661 84.6442 600.438 88.9353 602.367 93.1727C605.188 99.488 607.824 105.914 610.275 112.451L605.657 112.21ZM604.702 112.16C601.039 104.561 597.106 96.6215 592.828 89.421L592.779 89.6872C591.013 86.4997 589.303 83.2298 587.587 79.9492C585.681 76.3045 583.768 72.6465 581.764 69.0734C579.693 65.4413 577.533 61.8973 575.362 58.3364C572.979 54.4263 570.583 50.4959 568.279 46.4063C565.961 42.3346 563.39 38.4127 560.582 34.6635L557.671 34.9767C557.981 35.4464 558.288 35.9188 558.592 36.3942C561.495 40.9577 564.038 45.7933 566.583 50.6319C568.634 54.5316 570.687 58.4332 572.928 62.1958C573.087 62.4734 573.249 62.759 573.412 63.0482L573.413 63.0492C573.821 63.7721 574.242 64.5174 574.671 65.2173C577.869 70.68 580.795 76.3478 583.708 81.9895L583.709 81.991C586.978 88.3224 590.23 94.6208 593.829 100.559C595.686 104.385 597.643 108.161 599.698 111.883L604.686 112.159L604.702 112.16ZM539.57 108.418C538.732 106.479 537.928 104.51 537.175 102.506C529.394 80.2524 520.205 58.5637 510.347 37.0696L507.593 37.0775C508.947 40.8669 510.468 44.5736 511.978 48.2519L511.979 48.2546L511.979 48.2557C512.933 50.5793 513.882 52.8917 514.781 55.2063C517.108 61.1095 519.463 66.9616 521.814 72.8047L521.815 72.8081C523.142 76.104 524.467 79.3969 525.785 82.6946C528.688 91.3344 531.986 99.8344 535.668 108.168L539.57 108.418ZM530.327 107.701C528.488 103.764 526.814 99.7515 525.31 95.6733C523.577 91.0523 521.633 86.5134 519.697 81.9928C518.253 78.6206 516.813 75.2586 515.469 71.8804C510.942 59.9216 505.581 48.3 499.427 37.1009L496.932 37.108C499.809 43.262 502.673 49.4195 505.398 55.6556C507.49 60.3777 509.344 65.293 511.186 70.176C512.378 73.3358 513.565 76.4821 514.808 79.5535C516.824 84.1209 518.648 88.8556 520.469 93.5802C522.257 98.2224 524.042 102.856 526.002 107.31L530.327 107.701ZM492.038 105.04C491.969 104.873 491.9 104.705 491.833 104.536C486.216 89.5337 480.042 74.5673 473.263 59.9035C471.644 56.4587 469.981 53.0325 468.316 49.5996L468.315 49.5983L468.314 49.5971L468.314 49.5959L468.313 49.5949C465.593 43.988 462.864 38.3629 460.299 32.6091C460.285 32.564 460.268 32.5201 460.249 32.4776C459.745 32.3014 459.24 32.1466 458.734 32.0199C458.671 32.0938 458.615 32.1848 458.568 32.2946C458.154 33.4308 458.609 34.6727 459.052 35.8797L459.052 35.8807C459.195 36.272 459.337 36.6596 459.448 37.0388C460.971 41.1051 462.581 45.1109 464.278 49.0562C466.43 54.0312 468.616 59.0125 470.803 63.9938C475.176 73.9574 479.549 83.9209 483.646 93.8343C484.304 95.4821 484.946 97.1405 485.587 98.7976L485.587 98.7986C486.37 100.822 487.153 102.843 487.962 104.842C489.321 104.903 490.68 104.969 492.038 105.04ZM480.677 104.669C480.594 104.476 480.511 104.282 480.427 104.089L480.426 104.086C479.025 100.829 477.624 97.5708 476.238 94.2297C474.35 89.6203 472.364 85.0784 470.376 80.5293L470.375 80.5272L470.374 80.5252L470.374 80.5242C467.748 74.5165 465.116 68.4963 462.696 62.2919C458.248 51.4328 453.215 40.8224 447.621 30.5071C446.911 30.334 446.19 30.1455 445.459 29.9449C445.456 30.2922 445.542 30.6472 445.749 30.9274C446.582 33.2254 447.596 35.4114 448.609 37.5955C449.304 39.096 450 40.5956 450.636 42.13C455.397 52.2554 459.38 62.3769 463.411 72.7364C466.157 79.0733 468.867 85.4035 471.565 91.7069L471.569 91.7143L471.572 91.723C473.42 96.0383 475.262 100.341 477.106 104.625C478.297 104.636 479.485 104.651 480.677 104.669ZM423.464 98.92C423.386 98.7295 423.308 98.5389 423.231 98.348C414.233 75.7168 399.93 46.7221 388.895 24.9585C388.88 24.8777 388.848 24.801 388.802 24.7333C388.755 24.6656 388.695 24.6084 388.625 24.5654C388.555 24.5225 388.477 24.4947 388.395 24.4839C388.314 24.473 388.231 24.4795 388.152 24.5027C387.36 25.0513 387.904 26.4239 388.314 27.459C388.392 27.6573 388.466 27.8431 388.524 28.0084C392.336 36.7534 400.285 52.4029 404.226 60.9704L404.229 60.9752C407.512 68.1121 410.782 75.2209 413.943 82.3572C415.204 85.1569 416.41 87.9982 417.615 90.8355L417.615 90.8369L417.616 90.8382L417.616 90.8396L417.617 90.841C418.726 93.4527 419.833 96.061 420.98 98.6301L423.464 98.92ZM413.542 98.352C413.303 97.8325 413.069 97.3087 412.84 96.7801C408.712 86.9531 404.269 77.344 399.782 67.7268C398.701 65.3086 397.648 62.8664 396.594 60.42L396.593 60.4185C394.405 55.3442 392.21 50.2519 389.735 45.3176L380.44 27.8684C380.248 27.5909 380.018 27.1086 379.76 26.5693C378.995 24.9683 377.99 22.8656 377.039 24.1331C376.964 24.3648 376.939 24.6099 376.967 24.852C376.994 25.0941 377.072 25.3275 377.197 25.5369L378.274 27.9332C379.669 30.9681 385.091 40.9852 386.519 43.9517C388.857 48.8084 391.183 53.6403 393.315 58.6665C396.371 65.9703 399.742 72.9883 403.102 79.9815C404.17 82.2043 405.236 84.4246 406.291 86.6507C407.158 88.5214 408.022 90.4074 408.885 92.2934C409.823 94.3398 410.76 96.3863 411.701 98.4131L413.542 98.352ZM359.6 102.376L359.506 102.17L354.252 89.7091C345.98 70.4801 334.584 44.7907 326.715 25.0237C326.926 24.6399 326.732 24.3898 326.505 24.0972C326.363 23.9131 326.207 23.7121 326.13 23.4504C325.933 22.7727 325.566 22.0183 324.968 22.2766C324 22.7248 324.816 24.8861 325.462 26.6007C325.718 27.2787 325.948 27.8868 326.03 28.2915C328.523 35.3665 334.642 48.4253 337.425 55.2665C338.322 57.4711 339.217 59.673 340.101 61.8783C345.007 74.259 350.332 86.1741 355.648 98.0683C356.314 99.559 356.98 101.049 357.645 102.54L359.6 102.376ZM352.936 102.899C351.3 98.7817 349.7 94.6487 348.099 90.5157C343.443 78.8048 338.77 67.1826 333.912 55.5725C330.519 47.1343 323.248 32.7373 318.776 24.8178C318.102 23.7327 316.625 22.7767 316.069 24.3259C315.976 24.6839 315.973 25.0591 316.06 25.4186C316.146 25.7781 316.32 26.1108 316.565 26.3874C317.304 27.9327 318.08 29.5052 318.864 31.0949L318.872 31.1101L318.88 31.1266L318.882 31.1294L318.887 31.1412L318.89 31.1464L318.892 31.1497L318.895 31.1562L318.899 31.1641L318.904 31.1745C319.763 32.9162 323.958 40.8698 324.801 42.6397C329.851 53.9743 334.5 65.5121 339.118 76.9734L339.118 76.9755C342.666 85.7816 346.196 94.5425 349.876 103.132L352.936 102.899ZM294.86 99.3198C293.676 95.4717 292.493 91.6043 291.306 87.7243C286.737 72.7936 282.111 57.6746 277.165 42.7473C277.241 42.5801 277.29 42.3911 277.301 42.1873C277.339 41.5162 277.079 40.9478 276.811 40.3631C276.645 39.9988 276.475 39.628 276.373 39.2222C274.919 34.5235 273.469 29.7916 272.014 25.0387L269.479 25.3264C270.901 29.785 272.344 34.2086 273.825 38.5758C274.571 41.4404 275.386 44.2354 276.203 47.0378C276.93 49.5341 277.66 52.0363 278.344 54.5989C280.092 60.1259 281.809 65.6862 283.523 71.2397L283.523 71.2414C286.398 80.5555 289.268 89.8505 292.273 98.9375L294.86 99.3198ZM285.858 97.99C285.554 96.9106 285.266 95.8229 284.995 94.7269C280.089 75.0949 274.419 55.3241 267.932 36.1767C267.988 35.8661 267.955 35.5445 267.835 35.25C267.154 33.1092 266.541 30.9349 265.995 28.7269C265.75 27.7472 265.503 26.7672 265.255 25.787C264.439 25.8593 263.623 25.9323 262.808 26.0059C263.058 26.8855 263.307 27.7649 263.556 28.6441L263.557 28.6474L263.565 28.6768L263.587 28.7542C264.308 31.2993 265.028 33.8427 265.749 36.3838C265.847 36.6917 265.999 36.9459 266.181 37.1231C267.203 41.515 268.471 45.7994 269.734 50.0679C270.249 51.8063 270.763 53.5421 271.259 55.2815C275.119 68.3922 278.844 81.5423 282.557 94.6472L282.565 94.6766C282.844 95.6604 283.122 96.6439 283.401 97.6271L285.858 97.99ZM230.998 100.847C230.194 97.6813 229.42 94.4994 228.674 91.3225C227.83 87.9004 227.015 84.4741 226.2 81.0506C224.468 73.7672 222.738 66.4962 220.739 59.3036L220.591 58.776C218.882 52.7109 214.686 39.5358 213.62 33.1494C213.886 33.1978 213.934 32.9316 213.983 32.6653C213.973 32.5604 213.94 32.4591 213.884 32.3694C213.829 32.2798 213.753 32.2042 213.664 32.1489C213.373 31.2251 212.441 31.0558 212.022 31.8506C211.773 35.2172 214.567 45.5692 215.494 48.8151C216.542 53.9921 217.874 59.0862 219.203 64.1697C219.927 66.9375 220.65 69.7022 221.326 72.4753C223.47 82.1015 225.838 91.7309 228.221 101.393L230.998 100.847ZM224.876 102.073C224.616 100.981 224.357 99.8895 224.098 98.7986L224.098 98.7976C223.209 95.0467 222.322 91.3027 221.378 87.5669C221.192 86.8156 221.007 86.064 220.822 85.3122L220.799 85.2196L220.782 85.1503C217.763 72.8935 214.733 60.5913 210.712 48.6336C210.338 47.6104 207.549 39.6073 207.208 38.5758L207.208 38.5748L207.207 38.5739L207.207 38.5729C206.599 36.7343 205.995 34.9077 205.223 33.182C204.831 32.0565 203.718 32.1293 203.5 33.3275C203.993 36.1682 207.281 45.9588 208.12 48.7672L208.12 48.7684L208.12 48.7702L208.121 48.772L208.121 48.7738L208.122 48.7756L208.122 48.7775L208.123 48.7793L208.125 48.7851C208.542 50.1823 208.958 51.576 209.328 52.9665C212.038 62.1216 214.338 71.3885 216.633 80.6349L216.633 80.6359L216.633 80.6369L216.633 80.6379C218.115 86.6081 219.595 92.57 221.181 98.4876L222.239 102.657L224.876 102.073ZM175.379 114.988C175.023 112.956 174.682 110.921 174.342 108.886C173.897 106.227 173.452 103.567 172.971 100.913C172.141 96.5998 171.343 92.2776 170.544 87.9554L170.544 87.9541L170.543 87.9526C169.345 81.4699 168.147 74.9872 166.844 68.5349C166.458 66.4713 164.834 57.4008 164.394 55.3531C163.589 51.6084 162.786 47.8727 162.319 44.0833C162.242 43.2442 161.068 42.8933 160.899 43.8252C161.343 50.9826 163.534 65.114 165.094 72.1134C166.643 81.4273 168.367 90.7298 170.088 100.018C170.874 104.259 171.66 108.498 172.428 112.733L172.959 115.461L175.379 114.988ZM169.321 116.042C167.589 102.703 165.579 89.4033 163.04 76.0956C162.304 72.3042 161.521 68.5268 160.739 64.7564L160.738 64.7553L160.738 64.7541C159.23 56.1656 158.904 54.5983 158.583 53.0317C158.097 50.1959 157.394 47.4014 156.481 44.673C156.405 44.5505 156.291 44.4554 156.157 44.4018C156.024 44.3481 155.876 44.3386 155.737 44.3747C155.597 44.4107 155.472 44.4904 155.381 44.6022C155.29 44.7139 155.237 44.8519 155.23 44.9959C156.283 53.1258 158.934 68.2841 160.403 76.4279C161.648 83.3331 162.894 90.2424 163.889 97.1542C164.242 99.3446 164.581 101.532 164.921 103.72L164.921 103.724C165.43 107.007 165.939 110.29 166.496 113.581L166.589 114.145L166.668 114.625L166.668 114.626C166.763 115.209 166.859 115.794 166.957 116.38L169.321 116.042ZM135.745 120.618C135.477 118.653 135.3 116.687 135.123 114.716C135.083 114.263 135.042 113.81 135 113.357C133.703 99.9795 132.328 86.6035 130.878 73.2289C130.788 72.9205 130.604 71.4035 130.361 69.3981L130.361 69.3958C128.506 56.8251 127.382 47.5365 126.538 49.7736C126.573 49.9779 126.549 50.235 126.524 50.4974C126.486 50.9034 126.446 51.3221 126.623 51.5769C126.765 53.216 126.906 54.8558 127.047 56.4962C127.966 67.1614 130.07 84.8724 131.263 95.5784C131.346 96.1483 131.43 96.718 131.514 97.2875C132.6 104.673 133.683 112.032 134.125 119.433C134.165 119.714 134.17 120.066 134.175 120.44C134.177 120.58 134.179 120.723 134.183 120.867L135.745 120.618ZM129.542 121.665C129.398 119.586 129.259 117.513 129.12 115.437L129.12 115.436L129.12 115.433L129.12 115.432L129.12 115.431L129.12 115.43L129.12 115.428L129.119 115.427L129.119 115.426L129.119 115.425C128.699 109.152 128.278 102.855 127.696 96.3054C127.565 94.8385 127.435 93.3718 127.306 91.9052L127.306 91.9042C126.493 82.7027 125.68 73.5059 124.663 64.3062C123.361 56.859 123.342 56.2192 123.32 55.5297C123.272 53.9596 123.215 52.1316 121.97 51.9691C120.701 51.8034 121.199 56.8664 122.746 67.5767C122.895 69.0918 123.021 70.3755 122.993 70.9708C123.555 79.7236 124.364 88.5587 125.169 97.363L125.169 97.3645L125.171 97.3802C125.257 98.3214 125.343 99.2622 125.429 100.203C126.038 107.471 126.659 114.756 127.292 122.057L129.542 121.665ZM79.2273 128.056L79.5813 124.694C79.7944 122.095 80.022 119.499 80.2497 116.902C81.1501 106.632 82.0525 96.3383 82.0709 85.7676C82.084 85.0124 82.0983 84.2592 82.1127 83.5071L82.1127 83.5058L82.1127 83.5045L82.1128 83.5032C82.1849 79.7254 82.2564 75.9785 82.1558 72.1735L80.2938 72.5551C80.2102 74.5642 80.1291 76.5742 80.0479 78.5842C79.5203 91.6505 78.9926 104.721 77.8015 117.586C77.7427 118.424 77.6851 119.262 77.6276 120.1L77.6275 120.101L77.6273 120.102C77.4395 122.838 77.2518 125.571 77.0202 128.286L79.2273 128.056ZM74.1469 128.586C74.1684 128.317 74.1802 128.036 74.1919 127.761C74.2149 127.214 74.2371 126.687 74.3328 126.31L74.4468 125.228C74.9795 120.175 75.5233 115.016 75.937 109.915C76.1134 107.451 76.3017 104.993 76.49 102.535C77.0975 94.608 77.7043 86.6878 77.9068 78.6411C78.0708 76.773 78.0991 74.8967 77.992 73.0268L75.7921 73.4776C75.7797 73.6405 75.7644 73.7815 75.7441 73.893C75.0585 80.3864 74.6812 87.0935 74.3126 93.6459C74.237 94.9909 74.1617 96.3301 74.0841 97.6588C73.9166 100.53 73.7732 103.406 73.6298 106.279C73.3836 111.214 73.1378 116.142 72.7711 121.029C72.7146 121.782 72.674 122.534 72.6335 123.283C72.5353 125.098 72.4379 126.899 72.1182 128.658C72.1145 128.705 72.1129 128.752 72.1133 128.798L74.1469 128.586ZM30.303 137.751C30.407 137.004 30.5082 136.294 30.7037 135.846C32.2199 128.007 34.2363 120.443 36.289 112.931C37.4422 108.315 38.7352 103.791 40.0287 99.2653C41.7831 93.1273 43.5386 86.9857 44.9477 80.6048L44.9026 80.6179L43.0469 81.2434C42.9475 81.0677 42.6138 80.9398 42.3469 80.8625C35.9415 99.2972 31.045 118.224 27.7064 137.455L27.5613 138.254C27.5417 138.322 27.5253 138.39 27.5119 138.458C28.4425 138.221 29.3728 137.985 30.303 137.751Z" fill="#FBB921"/>
<path fill-rule="evenodd" clip-rule="evenodd" d="M608.487 112.358L613.347 112.611C612.098 109.754 610.889 106.864 609.71 103.952C609.139 102.34 608.568 100.727 607.997 99.1126L607.974 99.0476L607.957 98.9996L607.956 98.9961C602.726 84.2138 597.473 69.3684 591.503 54.8004C589.838 50.6267 587.836 46.6559 585.828 42.6751C584.127 39.3012 582.423 35.9202 580.916 32.4023L577.341 32.8421C579.293 38.6107 582.393 45.6253 584.716 50.8846C586.279 54.4222 587.492 57.1657 587.768 58.2016C593.46 72.9583 598.955 87.7096 604.252 102.456C605.502 105.908 606.946 109.171 608.487 112.358ZM511.865 37.0583L515.497 36.9996C515.543 37.1023 515.59 37.2051 515.637 37.3078C516.063 38.2416 516.49 39.1762 516.93 40.1017C526.102 59.7935 534.013 80.0492 540.612 100.746C541.603 103.434 542.69 106.085 543.872 108.693L539.077 108.386C537.217 104.133 535.609 99.7731 534.262 95.3286C531.744 87.6664 528.842 80.1825 525.928 72.6668L525.927 72.6653L525.927 72.6639L525.924 72.658L525.922 72.653C524.499 68.983 523.073 65.3054 521.688 61.5956C520.283 57.8702 518.751 54.194 517.214 50.5071L517.213 50.5052C515.366 46.0728 513.512 41.6251 511.865 37.0583ZM470.798 36.9887C472.819 40.6547 474.685 44.4051 476.391 48.2301C482.794 63.0259 488.4 78.1539 493.185 93.549C493.762 95.1072 494.326 96.6722 494.889 98.235L494.889 98.2364L494.89 98.2377L494.89 98.239C495.749 100.622 496.606 103 497.503 105.341C496.142 105.262 494.782 105.185 493.422 105.113C488.656 94.005 484.475 82.6518 480.899 71.0997C477.163 60.3812 472.744 50.1346 468.261 39.7388C467.63 38.3019 467.077 36.8325 466.605 35.337C467.998 35.9907 469.393 36.5892 470.798 36.9887ZM279.493 24.2069C280.213 26.8355 280.933 29.4603 281.659 32.0774C281.969 33.2682 282.298 34.4507 282.636 35.621C282.661 35.6336 282.685 35.6473 282.709 35.6619C282.888 35.7719 283.031 35.9316 283.121 36.1215C285.417 43.4152 287.846 50.7331 290.219 57.8573C293.412 67.9792 296.228 78.2722 299.031 88.5184L299.032 88.5218L299.035 88.5329C299.908 91.7211 300.779 94.9048 301.659 98.0774C301.833 98.7442 302.012 99.4083 302.196 100.069C301.019 99.9786 299.841 99.891 298.662 99.8065C296.659 93.2984 294.778 86.7054 292.895 80.1025C290.939 73.2473 288.981 66.3805 286.879 59.5883C286.393 57.9891 285.892 56.396 285.392 54.8037L285.392 54.8024C284.291 51.2945 283.19 47.7893 282.245 44.2302C282.056 44.0473 281.896 43.8057 281.781 43.5144C279.688 37.3038 277.77 30.9777 275.912 24.6049L279.493 24.2069ZM236.409 99.7827C234.016 89.785 231.515 79.8124 228.904 69.8648C227.926 66.2113 226.922 62.5692 225.918 58.9261C224.538 53.9208 223.158 48.9138 221.846 43.8729C221.638 43.3929 221.464 42.6605 221.279 41.878C220.831 39.9843 220.313 37.7978 219.074 38.189C217.764 38.6024 218.607 42.1236 219.219 44.6784C219.425 45.5403 219.605 46.2923 219.667 46.7778C220.713 51.8729 222.069 57.0245 223.441 62.0873C224.458 65.9503 225.471 69.8321 226.484 73.7138L226.486 73.7185L226.487 73.7223L226.487 73.7234L226.487 73.7244L226.487 73.7254C228.176 80.1927 229.864 86.6605 231.568 93.0412C232.129 94.9234 232.632 96.8095 233.133 98.6936L233.134 98.695C233.28 99.2438 233.426 99.7923 233.573 100.341L236.409 99.7827ZM180.495 113.739C179.561 107.739 178.583 101.756 177.561 95.7891C175.342 82.0569 171.187 59.4408 168.508 46.0946L168.505 46.0786L168.502 46.0628L168.31 45.1083L167.949 43.307C167.998 42.9126 167.845 42.5471 167.693 42.1832C167.533 41.8027 167.375 41.4239 167.449 41.0156C166.839 39.0712 164.923 39.7773 165 41.625C165.506 47.8999 166.693 54.2245 169.344 69.7501L169.344 69.7514L169.344 69.7527L169.344 69.754L169.345 69.7553C169.774 72.0429 170.202 74.326 170.596 76.599C171.75 82.6102 172.912 88.6154 174.073 94.6159L174.082 94.6605L174.087 94.6878L174.087 94.6888L174.088 94.6899L174.09 94.7036C175.361 101.271 176.631 107.833 177.887 114.392L180.495 113.739ZM139.86 119.964C139.695 116.941 139.5 113.911 139.229 111.009C138.773 106.173 138.359 101.337 137.946 96.4998L137.946 96.4985C136.939 84.728 134.461 63.7111 132.836 51.9145C133.259 51.854 133.223 51.2973 132.957 51.2489C132.904 49.7724 132.15 48.1224 131.109 48.8043C130.244 49.3712 130.271 50.9556 130.295 52.3941C130.3 52.686 130.305 52.9719 130.302 53.242C130.359 55.957 132.02 67.9363 132.299 70.6916L133.462 85.4809C134.177 95.4212 135.211 105.374 136.474 115.322C136.665 117.024 136.832 118.723 136.994 120.42L139.86 119.964ZM85.4684 127.603C85.4813 127.509 85.4962 127.419 85.5133 127.333C85.6199 125.094 85.7475 122.862 85.8751 120.63C86.1954 115.028 86.5156 109.428 86.5035 103.721C86.4886 100.831 86.4555 97.8332 86.4222 94.8174L86.4222 94.8157C86.382 91.1779 86.3415 87.5131 86.3323 83.9777C86.2988 83.0285 86.338 81.6516 86.3829 80.0712C86.4595 77.3746 86.553 74.0856 86.3313 71.3184L82.9899 72.0031C82.5161 82.9089 82.3809 93.9137 82.5178 104.968C82.4803 107.375 82.4464 109.787 82.4124 112.2L82.4124 112.202L82.4124 112.204L82.4123 112.206L82.4123 112.207L82.4123 112.209L82.4123 112.211L82.4122 112.213L82.4122 112.215L82.4122 112.216L82.4122 112.218L82.4121 112.22L82.4121 112.222L82.4121 112.223L82.412 112.225L82.412 112.226L82.412 112.228C82.3387 117.432 82.2654 122.644 82.1564 127.829L85.4684 127.603ZM38.7034 135.662C38.7161 135.506 38.7291 135.352 38.743 135.199C38.8965 133.512 39.2407 131.901 39.5823 130.302C39.752 129.508 39.921 128.717 40.0656 127.921C43.2078 117.538 45.5349 106.925 47.0257 96.1794C47.8921 90.6327 48.5165 85.0513 48.8972 79.4511L48.6811 79.5163L45.7576 80.3693C44.8182 84.4009 43.9662 88.3288 43.3261 93.0775C42.5359 98.9392 41.6448 104.599 40.2051 110.251C38.0828 117.478 36.4101 124.829 35.1966 132.263C35.1574 132.72 35.0754 133.246 34.988 133.807C34.8466 134.715 34.691 135.714 34.6801 136.655C36.0216 136.321 37.3627 135.99 38.7034 135.662ZM361.028 102.256C358.499 95.6742 356.359 88.8104 354.214 81.9301L354.213 81.9268C352.887 77.6712 351.558 73.4093 350.134 69.2041C347.553 61.1504 344.353 53.5246 341.126 45.8332C339.379 41.6703 331.979 27.9461 330.31 23.6665C329.596 21.7946 331.011 19.8056 332.125 21.75C342.592 41.1999 356.339 71.3748 361.9 92.7508C362.825 95.8832 363.916 98.9193 365.073 101.915L361.028 102.256ZM401.068 99.1039C400.663 98.246 400.259 97.3879 399.854 96.5295C396.377 89.1591 392.886 81.7606 389.621 74.1361C386.413 67.1481 382.969 60.2693 379.514 53.3673C376.391 47.1288 373.259 40.8713 370.282 34.4975C369.007 32.4321 370.475 30.4069 371.935 32.4601C382.158 49.7098 391.151 67.6587 398.849 86.1734C399.809 88.2476 400.762 90.3239 401.714 92.3968L401.714 92.3986C402.704 94.5547 403.693 96.7075 404.685 98.8502C403.479 98.9331 402.273 99.0177 401.068 99.1039Z" fill="#87B8DD"/>
<path fill-rule="evenodd" clip-rule="evenodd" d="M616.015 112.755C614.244 108.537 612.344 104.408 610.442 100.276L610.441 100.274C607.579 94.0558 604.713 87.8303 602.282 81.2842C597.713 69.9773 593.465 58.3769 589.186 46.6926L589.185 46.6893C587.401 41.8186 585.612 36.9334 583.793 32.0487L586.793 31.6798C586.971 32.0756 587.123 32.3969 587.242 32.6167C590.724 39.9426 593.698 47.5428 596.559 55.26C599.086 61.2766 601.547 67.3392 604 73.3825L604.003 73.3914C606.425 79.3591 608.84 85.308 611.303 91.1753C611.951 92.7238 612.604 94.2673 613.256 95.8095L613.257 95.8112C615.658 101.487 618.052 107.147 620.14 112.987L616.015 112.755ZM552.109 109.04C548.502 97.469 544.319 86.0851 539.576 74.931C537.64 70.5763 535.844 66.096 534.046 61.6078C531.642 55.61 529.232 49.5979 526.474 43.8525C525.491 41.4445 524.339 39.1142 523.028 36.8783L518.92 36.9446C524.571 48.6406 529.651 60.6056 534.142 72.7974C537.826 81.5351 541.316 90.3294 544.762 99.1156C545.59 101.304 546.36 103.522 547.128 105.738L547.129 105.739C547.5 106.81 547.872 107.88 548.249 108.946L552.109 109.04ZM503.912 105.725C500.485 94.9752 496.429 84.4358 492.36 73.8618L492.359 73.8587L492.354 73.8458L492.351 73.8394C491.37 71.2901 490.389 68.7388 489.415 66.182C485.985 56.3198 481.873 46.7122 477.109 37.4287L474.312 37.4899C474.063 37.495 473.814 37.4903 473.565 37.4767C473.763 37.9048 473.969 38.3295 474.183 38.7507C476.62 44.007 478.908 49.328 481.099 54.6771C484.99 64.5867 488.936 74.3573 492.869 84.0968C493.814 86.4379 494.759 88.778 495.702 91.117C497.395 95.1162 498.859 99.2665 500.32 103.408C500.573 104.123 500.825 104.839 501.078 105.553C502.022 105.609 502.966 105.667 503.912 105.725ZM400.355 99.1554C400.081 98.4669 399.807 97.78 399.531 97.0973C393.264 81.3805 386.34 66.0027 379.194 50.5845C378.134 48.4207 377.144 46.1787 376.152 43.9315C369.837 29.6259 368.006 25.4786 365.712 21.7667C364.643 20.3346 362.755 21.6419 363.143 23.546C363.302 24.4288 363.561 25.2908 363.913 26.1158C367.162 34.5355 375.512 52.8594 379.331 60.9236L379.332 60.9263C380.275 62.9185 381.216 64.9056 382.145 66.8906C386.454 75.9712 390.614 85.1165 394.686 94.2455C395.357 95.9844 396.066 97.7084 396.81 99.4161C397.991 99.3277 399.172 99.2407 400.355 99.1554ZM372.853 101.403C372.781 101.201 372.709 100.999 372.637 100.797C369.175 90.5871 365.446 80.8327 361.395 70.8362C359.827 66.9677 358.313 63.0678 356.797 59.1635L356.797 59.1625L356.797 59.1615L356.796 59.1605L356.796 59.1595L356.796 59.1585L356.795 59.1573L356.794 59.1562C354.395 52.9743 351.99 46.7811 349.362 40.6855C349.096 40.0383 348.836 39.3979 348.579 38.7636L348.576 38.7547C347.791 36.8183 342.496 24.8818 341.625 23.0334C341.088 21.6981 340.043 19.6287 338.861 20.835C338.046 21.9486 338.586 23.5637 339.065 24.9994C339.196 25.3893 339.321 25.766 339.415 26.1158C340.938 30.9383 347.23 45.6683 348.986 50.3325L348.986 50.3336C350.081 53.242 351.174 56.1471 352.208 59.0814C357.748 73.6115 363.496 87.6463 369.231 101.622L372.853 101.403ZM312.979 100.904C312.824 100.39 312.669 99.8771 312.512 99.3651C310.546 93.3936 308.587 87.3828 306.628 81.3719L306.624 81.3602L306.62 81.3475L306.618 81.3407C305.637 78.3309 304.656 75.3212 303.675 72.3165C301.965 67.2482 300.175 62.2034 298.382 57.1496L298.382 57.1487L298.381 57.1477L298.381 57.1467L298.381 57.1458L298.38 57.1448L298.38 57.1438L298.38 57.1429L298.379 57.1414L298.379 57.1403L298.378 57.1391C296.841 52.8058 295.301 48.466 293.808 44.0991C294.042 43.8034 294.201 43.4539 294.269 43.0811C294.346 42.6575 294.302 42.2207 294.143 41.8206C293.445 39.794 292.826 37.7334 292.208 35.6773C291.976 34.9053 291.744 34.1338 291.508 33.3651C290.403 30.0097 289.301 26.6418 288.199 23.2685L285.059 23.5886L284.753 23.6226C285.945 27.1516 287.139 30.6692 288.35 34.1628C288.32 34.2511 288.295 34.3464 288.277 34.4486C288.562 38.0326 289.357 41.5575 290.638 44.9172C292.643 51.287 294.79 57.6368 296.945 63.942C299.535 71.1585 301.994 78.457 304.444 85.7272C306.131 90.7346 307.813 95.7286 309.531 100.673C310.103 100.723 310.675 100.774 311.247 100.826C311.824 100.851 312.402 100.878 312.979 100.904ZM242.742 98.5365C242.667 98.238 242.592 97.9403 242.52 97.6429C239.643 85.9802 236.475 74.4023 233.166 62.8446C231.628 56.9265 227.75 43.9778 226.018 38.1162C225.661 37.3528 225.378 36.4349 225.09 35.5009C224.529 33.6762 223.948 31.7902 222.75 30.875C221.802 30.2901 220.987 31.7466 221.116 32.5494C221.181 32.9508 221.292 33.3492 221.403 33.7475C221.514 34.1459 221.625 34.5443 221.689 34.9457C221.66 35.3736 221.777 35.7989 222.02 36.1519C226.542 55.0438 233.93 80.904 239.244 99.2249L242.742 98.5365ZM186.18 112.317C186.16 112.193 186.14 112.069 186.121 111.945C185.827 110.092 185.533 108.24 185.226 106.396C184.775 103.768 184.328 101.133 183.88 98.4946C181.103 82.1295 177.423 57.9911 173.305 41.7675C173.244 41.6021 173.193 41.4403 173.144 41.2823C172.944 40.6429 172.763 40.0654 172.01 39.5609C171.07 38.9317 170.344 39.9 170.683 41.0618C172.367 50.3228 174.78 67.3417 176.321 76.7708C178.316 88.9742 180.316 101.211 182.645 113.201L186.18 112.317ZM146.791 118.862C146.692 117.954 146.589 117.044 146.486 116.135L146.486 116.133C146.279 114.308 146.072 112.482 145.899 110.663C144.748 99.2722 143.426 87.8695 142.104 76.4739L142.103 76.4706C141.393 70.3473 139.808 56.6164 139.125 50.5C139.016 48.8298 136.95 48.0877 136.676 49.5965C136.456 50.3179 136.321 51.0626 136.273 51.8154C136.444 63.233 138.485 82.3733 139.65 93.8943L139.65 93.8964L139.651 93.8986L139.651 93.9007L139.651 93.9028L139.651 93.905L139.651 93.9071L139.652 93.9092L139.652 93.9114L139.652 93.9135L139.652 93.9156C139.842 95.7925 140.032 97.6692 140.217 99.5451C140.427 101.388 140.628 103.236 140.829 105.085L140.829 105.087L140.83 105.089L140.83 105.091L140.83 105.093L140.83 105.095C141.353 109.904 141.877 114.727 142.568 119.534L146.791 118.862ZM90.9957 127.227C91.4405 122.951 91.7156 118.625 91.991 114.295L91.9911 114.294L91.9912 114.292C92.0871 112.784 92.1831 111.275 92.2863 109.768C93.7059 96.6734 94.2226 83.2904 94.7412 69.8622L94.82 67.8238C94.8972 67.1356 94.9734 66.3305 94.9509 65.5417L90.7895 68.6734C90.7826 68.9575 90.776 69.2419 90.7695 69.5264C90.7342 71.0613 90.6989 72.5993 90.6048 74.1175C90.4358 81.464 90.0303 88.7236 89.6248 95.9823C89.2013 103.564 88.7779 111.144 88.624 118.821C88.579 120.246 88.5243 121.668 88.4697 123.087L88.4696 123.089L88.4696 123.091C88.414 124.536 88.3586 125.977 88.3138 127.41L90.9957 127.227ZM44.9996 134.135C46.1869 129.839 47.0213 125.247 47.7961 120.984C48.4752 117.588 49.2744 114.252 50.0737 110.916C51.0448 106.862 52.016 102.808 52.7724 98.6456C53.2742 95.8843 53.7451 93.0972 54.2169 90.305C54.9539 85.9436 55.693 81.5701 56.5547 77.2643L54.9384 77.6279L52.2632 78.4354C51.3135 83.2128 50.4356 88.044 49.5648 92.8357C48.8479 96.2511 48.0983 99.5749 47.355 102.87C45.6187 110.568 43.9161 118.117 42.7417 126.345C42.1677 129.191 41.7739 132.07 41.5625 134.964C42.7085 134.686 43.8542 134.41 44.9996 134.135Z" fill="#375226"/>
</svg>
