<svg width="375" height="88" viewBox="0 0 375 88" fill="none" xmlns="http://www.w3.org/2000/svg">
<path d="M5.08438 6.14088C3.37126 5.99913 1.65539 5.85716 0 6.00163V87.4215H375V0.296824C367.574 1.20459 359.916 1.23252 352.413 1.13476C347.006 1.05801 342.77 2.38495 338.316 3.78013C336.286 4.41598 334.211 5.06601 331.959 5.60379C329.206 6.26017 325.135 6.16241 322.44 5.63171C320.858 5.32238 319.639 4.63807 318.43 3.95971C317.401 3.38239 316.38 2.80937 315.15 2.47548C313.796 2.104 311.851 1.89309 310.061 1.69901C309.159 1.60123 308.297 1.50773 307.569 1.40011C307.299 1.36069 307.009 1.3143 306.708 1.26588C304.871 0.971209 302.562 0.600764 300.997 1.26046C300.076 1.65154 298.84 2.91727 297.724 4.05892C297.007 4.79264 296.34 5.47511 295.84 5.8412C292.97 7.92209 290.935 9.20693 286.805 9.43038C283.238 9.61193 280.504 9.03934 277.228 8.14554C274.99 7.52623 272.953 7.35012 270.863 7.16955C269.513 7.05286 268.142 6.93431 266.681 6.69311C266.206 6.61709 265.754 6.49043 265.277 6.35659C264.528 6.14617 263.715 5.91802 262.648 5.8412C259.546 5.61775 256.328 5.28257 253.419 4.34687C250.617 3.45133 248.112 2.9476 245.488 2.66309C245.666 2.39514 245.841 2.16234 245.992 2.15605C245.695 2.16841 245.404 2.18318 245.118 2.19772C243.597 2.27487 242.199 2.34575 240.696 2.01816C237.357 1.29297 233.827 1.06048 229.851 1.24703C228.515 1.30958 227.129 1.43816 225.727 1.56819C222.87 1.83318 219.948 2.10419 217.25 1.8347C216.117 1.72059 215.067 1.43902 214.018 1.15728C212.872 0.849961 211.727 0.542439 210.469 0.451818L210.449 0.450348C207.84 0.262868 202.324 -0.13355 200 1.11937C198.35 2.01794 196.948 4.37985 195.675 6.52508C195.04 7.59446 194.437 8.61001 193.852 9.3636C193.456 9.86562 193.081 10.3486 192.722 10.8099C188.571 16.1549 186.639 18.6431 179.544 15.5235C177.72 14.7185 175.867 13.9996 174.019 13.2826C170.34 11.855 166.681 10.4349 163.311 8.35833C162.747 8.01536 162.447 7.5511 162.157 7.10131C161.812 6.56797 161.481 6.05497 160.738 5.78859C159.823 5.45398 158.689 5.609 157.642 5.75201C157.269 5.80311 156.906 5.85268 156.568 5.87782C156.017 5.91188 155.465 5.95643 154.912 6.00097C152.324 6.20966 149.739 6.41816 147.323 5.54599C145.858 5.01719 144.662 4.44545 143.556 3.91712C140.949 2.67059 138.847 1.66574 134.91 2.03684C132.892 2.22693 131.33 3.11057 129.818 3.96661C127.725 5.15069 125.725 6.28196 122.743 5.4519C122.693 5.24209 121.534 6.09249 120.328 6.9905L120.335 6.30166C120.333 6.53243 120.33 6.7626 120.326 6.99219L120.126 7.14131C119.735 7.43198 119.347 7.7217 118.995 7.9764C118.879 6.98356 118.697 6.35009 118.31 6.63747C116.187 8.23675 114.961 8.6661 112.195 9.37408C109.906 9.95423 107.922 10.6984 105.938 11.4429C105.433 11.6324 104.927 11.822 104.417 12.0089C102.218 12.8071 99.6646 13.3067 97.3037 13.5135C95.7522 13.6533 94.4231 13.9784 93.0995 14.3022C91.9234 14.5899 90.7517 14.8766 89.4322 15.0311C87.6198 15.2383 86.639 14.756 85.6216 14.2556C85.0292 13.9643 84.4244 13.6669 83.6357 13.4958C81.8114 13.0951 79.8588 13.1696 77.9216 13.2436C76.7574 13.288 75.5988 13.3322 74.4769 13.273C73.0967 13.2032 71.8883 12.7759 70.6959 12.3543C69.6152 11.9722 68.5477 11.5947 67.3772 11.4923C64.636 11.2347 63.1966 13.0874 61.6988 15.0153C61.1274 15.7508 60.5474 16.4973 59.8834 17.1417C55.3801 21.5021 53.1327 16.9401 50.6683 11.9373C48.9408 8.43062 47.1067 4.70742 44.3142 3.68862C41.2813 2.57978 40.4466 3.93638 39.4921 5.4876C38.9346 6.39365 38.3362 7.3661 37.2351 7.95244C35.9683 8.63735 34.3866 7.94821 32.8745 7.2894C32.0607 6.93482 31.2671 6.58903 30.5535 6.47097C29.4523 6.29134 28.2758 6.03489 27.0761 5.77338C24.8174 5.28102 22.4763 4.77071 20.3999 4.72131C18.3801 4.66617 16.4097 5.09546 14.4354 5.52559C12.7257 5.89806 11.0132 6.27117 9.26306 6.33092C7.89535 6.37347 6.49079 6.25725 5.08438 6.14088Z" fill="#6572B5"/>
</svg>
