<svg width="140" height="800" viewBox="0 0 140 800" fill="none" xmlns="http://www.w3.org/2000/svg">
<path fill-rule="evenodd" clip-rule="evenodd" d="M132.095 824.999L0.0566406 824.999L0.0567129 -1.96919L139.558 -1.96918C138.962 -0.673523 138.439 0.648498 138.001 1.94269C137.31 3.96643 136.422 5.63061 135.538 7.28784C134.753 8.7605 133.97 10.2277 133.331 11.9368C132.461 14.286 132.845 15.7582 133.244 17.2855C133.477 18.1747 133.714 19.0826 133.711 20.1931C133.712 22.7638 132.988 25.345 132.27 27.9059C131.838 29.4448 131.409 30.9764 131.14 32.4941C130.805 34.36 131.038 36.1174 131.269 37.8516C131.477 39.4233 131.684 40.976 131.462 42.5729C130.967 46.3191 127.845 47.6142 124.597 48.9617C123.358 49.4758 122.101 49.9976 120.963 50.666C113.265 55.203 119.122 59.7452 125.546 64.7261C130.048 68.2175 134.828 71.9246 135.413 75.9965C136.052 80.4197 133.835 81.0754 131.301 81.825C129.821 82.2629 128.232 82.7328 127.04 84.0045C125.654 85.4639 126.147 87.8082 126.618 90.0493C126.871 91.2554 127.119 92.4317 127.063 93.4241C126.974 94.9548 126.972 96.612 126.969 98.3019C126.965 101.483 126.96 104.781 126.376 107.569C125.818 110.284 124.578 112.769 123.335 115.259C122.259 117.415 121.181 119.575 120.543 121.891C120.05 123.702 119.773 125.616 119.497 127.533C119.16 129.867 118.823 132.206 118.092 134.367C117.441 136.272 116.674 137.393 115.774 138.111C115.618 139.43 115.506 140.712 115.395 141.981L115.395 141.983C115.347 142.529 115.3 143.073 115.249 143.616L117.361 144.091C116.654 143.932 115.95 143.779 115.248 143.631C115 146.279 114.675 148.919 113.878 151.77C112.488 156.809 111.598 161.013 111.88 166.5C112.228 172.852 114.225 175.983 117.46 180.396C118.029 181.166 119.09 182.191 120.231 183.294C122.006 185.009 123.974 186.912 124.581 188.328C125.607 190.735 125.031 194.286 124.573 197.111C124.498 197.575 124.426 198.02 124.364 198.436C124.197 199.555 124.052 200.882 123.9 202.269C123.598 205.022 123.27 208.013 122.693 210.095C122.174 211.987 121.283 213.558 120.385 215.14C119.331 216.999 118.267 218.875 117.786 221.307C116.961 225.452 116.809 231.714 117.829 235.948C118.665 239.412 119.676 242.603 120.664 245.725C122.833 252.576 124.896 259.091 124.777 267.407C124.625 278.947 124.668 290.726 126.08 302.146C126.312 303.998 126.262 310.077 125.769 316.161C126.883 319.904 127.644 323.534 127.246 326.218L127.314 326.19C126.942 328.655 125.844 330.568 124.774 332.434C123.871 334.008 122.988 335.548 122.576 337.355C121.802 340.769 121.737 344.635 121.673 348.4C121.64 350.345 121.608 352.262 121.478 354.076C121.106 359.628 120.248 365.055 119.39 370.487C118.544 375.838 117.697 381.193 117.314 386.678C117.144 389.156 116.938 391.639 116.732 394.122C116.457 397.439 116.181 400.758 115.993 404.07C115.755 408.227 116.498 412.162 117.246 416.123C117.773 418.912 118.302 421.714 118.493 424.615C118.982 432.328 118.96 450.132 117.909 464.088C118.658 464.58 119.372 464.962 120.038 465.319C122.458 466.615 124.231 467.564 124.668 472.179C124.891 474.604 124.694 477.121 124.498 479.633C124.336 481.695 124.175 483.755 124.247 485.76C124.346 488.325 124.904 490.833 125.461 493.337C126.105 496.228 126.747 499.114 126.68 502.075C126.621 505.119 125.888 508.555 125.181 511.869C124.806 513.629 124.438 515.356 124.182 516.971C124.013 518.018 123.512 519.184 122.997 520.379C122.041 522.6 121.042 524.923 122.054 526.776C122.921 528.386 124.35 529.257 125.682 530.068C127.963 531.457 129.957 532.672 128.351 537.125C126.876 541.226 121.43 543.939 116.301 546.495C108.983 550.14 102.311 553.465 108.732 560.038C109.681 561.007 110.78 561.852 111.862 562.685C114.698 564.868 117.423 566.966 117.064 570.986C116.921 572.702 116.375 574.27 115.822 575.857C115.212 577.607 114.593 579.382 114.5 581.405C114.42 583.051 114.493 584.749 114.566 586.455C114.687 589.294 114.809 592.156 114.234 594.833C113.988 595.991 113.556 596.879 113.133 597.749C112.406 599.244 111.706 600.685 112.021 603.341C112.257 605.274 112.684 606.99 113.114 608.712C113.597 610.65 114.083 612.596 114.298 614.87C114.617 618.329 115.366 622.07 116.55 625.287C116.828 626.035 117.109 626.775 117.391 627.514C118.495 630.419 119.599 633.321 120.464 636.672C121.52 640.723 122.158 642.517 124.516 645.619C124.94 646.184 124.013 646.455 122.558 646.631C122.934 647.145 123.361 647.714 123.79 648.284L124.009 648.576C124.346 648.58 124.684 648.583 125.023 648.585L124.012 648.579C125.336 650.342 126.591 652.035 126.283 652.109C125.086 656.487 126.758 659.41 128.507 662.47C129.772 664.683 131.078 666.966 131.37 669.922C131.94 675.691 130.481 678.78 128.671 682.61C127.903 684.234 127.073 685.991 126.308 688.142C125.045 691.69 125.368 695.479 125.691 699.272C125.76 700.081 125.828 700.891 125.882 701.698C125.921 702.193 125.996 702.724 126.074 703.272C126.29 704.805 126.525 706.467 126.04 707.81C125.655 708.901 124.905 709.39 124.125 709.898C123.468 710.327 122.789 710.77 122.29 711.599C119.268 716.552 117.211 721.926 115.142 727.329C114.103 730.043 113.062 732.764 111.893 735.442C107.367 745.864 111.028 748.681 118.891 754.731C119.569 755.253 120.279 755.799 121.018 756.377C122.126 757.23 123.619 758.107 125.191 759.03C128.344 760.883 131.816 762.922 133.144 765.336C134.996 768.734 134.451 776.822 134.194 780.648L134.192 780.678C134.067 782.522 133.624 784.204 133.181 785.884C132.775 787.425 132.369 788.965 132.209 790.628C131.832 794.585 132.248 798.866 132.656 803.052C132.856 805.106 133.053 807.138 133.154 809.096C133.453 814.924 133.136 820.099 132.095 824.999Z" fill="#6572B5"/>
</svg>
