<svg width="113" height="60" viewBox="0 0 113 60" fill="none" xmlns="http://www.w3.org/2000/svg">
<path fill-rule="evenodd" clip-rule="evenodd" d="M0.843982 31.5089C0.812499 31.4022 0.788688 31.2771 0.773397 31.1288C0.733842 30.7335 0.764108 30.323 0.794326 29.9132C0.819134 29.5768 0.843908 29.2408 0.829991 28.914C0.81089 28.4958 0.715332 28.0874 0.619938 27.6798C0.509777 27.209 0.399834 26.7391 0.408106 26.2562C0.414826 25.7598 0.533467 25.199 0.647935 24.6579C0.708735 24.3705 0.768358 24.0886 0.809407 23.825C0.83641 23.6541 0.918841 23.4636 1.00337 23.2682C1.16042 22.9051 1.3247 22.5253 1.15411 22.2243C1.00804 21.9626 0.768937 21.822 0.546159 21.691C0.164749 21.4668 -0.168808 21.2707 0.0942672 20.543C0.335965 19.873 1.2408 19.4253 2.09301 19.0036C3.30881 18.4019 4.4175 17.8533 3.34069 16.7879C3.18156 16.6308 2.9977 16.4941 2.81654 16.3594C2.34172 16.0062 1.88542 15.6669 1.94128 15.0111C1.9633 14.7311 2.05277 14.4749 2.14333 14.2157C2.24326 13.9296 2.34453 13.6397 2.35803 13.3097C2.36961 13.0414 2.35583 12.7646 2.34198 12.4864C2.31893 12.0236 2.2957 11.5571 2.38889 11.1201C2.42865 10.9311 2.49976 10.7858 2.5694 10.6435C2.68901 10.3991 2.80431 10.1634 2.74903 9.73077C2.70788 9.41577 2.63484 9.13643 2.56152 8.85605C2.47901 8.54053 2.39616 8.22369 2.35803 7.85322C2.30143 7.28945 2.17281 6.68038 1.97216 6.15688C1.92517 6.0353 1.87754 5.91496 1.82992 5.79465C1.64293 5.32221 1.45609 4.85013 1.30846 4.3045C1.12839 3.64509 1.02035 3.35314 0.624191 2.84978C0.516734 2.71119 0.922838 2.67922 1.3698 2.64404C1.80439 2.60983 2.27761 2.57258 2.35494 2.43132C4.67031 2.59952 6.80792 3.09312 9.11842 3.88671C10.703 4.43034 11.9069 4.19879 13.471 3.87664C13.9688 3.77285 14.4681 3.68945 14.9654 3.60638C16.3494 3.3752 17.7187 3.14648 19.0018 2.48736C19.1992 2.38622 19.341 2.30112 19.46 2.22972C19.8029 2.02395 19.9561 1.93205 20.7047 1.89842C22.1196 1.83298 23.6425 1.78768 25.0522 1.88332C25.5605 1.91921 26.0529 2.03085 26.5449 2.1424C27.0188 2.24986 27.4924 2.35723 27.9796 2.39675C28.4557 2.43557 28.9134 2.45572 29.3649 2.47559C30.26 2.51499 31.1311 2.55333 32.0749 2.734C33.6617 3.03528 35.4347 2.96468 37.146 2.89654C37.8651 2.86791 38.5732 2.83971 39.2521 2.83971C42.1281 2.83971 44.752 2.76924 47.5816 2.37158C48.837 2.19541 49.83 1.80781 51.0081 1.33969C53.1587 0.494034 55.4276 0.0762419 57.748 0.0309391C59.3014 -0.000856056 60.8568 0.0155493 62.4117 0.0319489C63.3185 0.0415122 64.225 0.0510737 65.1309 0.0510737C65.7491 0.0510737 66.3693 0.0383178 66.9898 0.0255556C68.0684 0.00337266 69.1479 -0.0188292 70.2192 0.0259054C71.8434 0.0956017 73.4654 0.292896 75.0867 0.490107C76.9783 0.720189 78.8689 0.950159 80.7611 0.977264C81.8833 0.994313 82.9347 1.27469 83.9761 1.55239C84.472 1.68463 84.9656 1.81626 85.4635 1.91856C87.631 2.36159 89.8538 2.36649 92.0872 2.37142L92.1622 2.37158C92.8491 2.37158 93.5367 2.37583 94.2243 2.38008C95.37 2.38716 96.5155 2.39423 97.6569 2.38165C98.4147 2.37313 99.1151 2.24759 99.8173 2.12173C100.36 2.02455 100.903 1.92718 101.474 1.88332C102.293 1.82041 103.141 1.84897 103.983 1.87732C104.421 1.89207 104.857 1.90677 105.287 1.90849C105.287 1.86883 105.362 1.81696 105.438 1.76431C105.516 1.71004 105.595 1.65494 105.595 1.6115C105.595 1.68255 105.595 1.7522 105.594 1.82081C105.591 2.18479 105.588 2.51918 105.683 2.87495C105.894 3.66523 105.986 4.50585 105.981 5.4572C105.98 5.777 105.962 6.10933 105.945 6.44541C105.909 7.13032 105.873 7.83078 105.966 8.47236C106.005 8.74201 106.085 8.98977 106.164 9.2377C106.251 9.50812 106.337 9.77872 106.372 10.0781L106.373 10.083C106.445 10.7041 106.598 12.0175 106.316 12.5848C106.113 12.9879 105.551 13.3462 105.04 13.6716C104.786 13.8338 104.544 13.9878 104.366 14.1352C104.247 14.2348 104.133 14.3291 104.024 14.4193C102.762 15.4637 102.174 15.95 103.008 17.6135C103.223 18.0409 103.417 18.4763 103.611 18.9104C103.997 19.7749 104.38 20.6348 104.921 21.4189C105.011 21.5501 105.127 21.6171 105.24 21.6821C105.374 21.759 105.502 21.8331 105.575 22.0078C105.666 22.2229 105.64 22.4954 105.615 22.7467C105.607 22.8365 105.598 22.9236 105.595 23.0045C105.593 23.1364 105.587 23.2688 105.582 23.4012C105.558 24.0213 105.533 24.6409 105.77 25.2092C105.914 25.5538 106.066 25.8338 106.206 26.0925C106.537 26.7029 106.804 27.1949 106.753 28.1388C106.751 28.1683 106.749 28.1974 106.746 28.2262C107.854 28.0048 108.963 27.8531 110.115 27.7738C110.197 27.915 110.696 27.9523 111.154 27.9865C111.626 28.0217 112.054 28.0537 111.941 28.1923C111.523 28.6956 111.409 28.9876 111.219 29.647C111.063 30.1926 110.866 30.6647 110.669 31.1372C110.619 31.2575 110.568 31.3778 110.519 31.4994C110.307 32.0229 110.172 32.6319 110.112 33.1957C110.072 33.5662 109.984 33.883 109.897 34.1985C109.82 34.4789 109.743 34.7582 109.7 35.0732C109.641 35.5059 109.763 35.7415 109.889 35.986C109.962 36.1283 110.037 36.2736 110.079 36.4625C110.178 36.8996 110.153 37.3661 110.129 37.8289C110.114 38.107 110.1 38.3839 110.112 38.6522C110.126 38.9822 110.233 39.2721 110.338 39.5582C110.434 39.8174 110.528 40.0735 110.551 40.3535C110.61 41.0094 110.129 41.3487 109.628 41.7019C109.437 41.8366 109.243 41.9733 109.075 42.1304C107.94 43.1958 109.109 43.7444 110.391 44.346C111.29 44.7677 112.245 45.2155 112.499 45.8855C112.777 46.6132 112.425 46.8093 112.023 47.0335C111.788 47.1645 111.536 47.305 111.382 47.5667C111.202 47.8678 111.375 48.2476 111.541 48.6106C111.63 48.806 111.717 48.9966 111.745 49.1674C111.789 49.4311 111.851 49.7129 111.916 50.0003C112.036 50.5414 112.161 51.1023 112.168 51.5987C112.177 52.0816 112.061 52.5514 111.945 53.0222C111.844 53.4299 111.744 53.8383 111.724 54.2564C111.709 54.5832 111.735 54.9193 111.761 55.2557C111.793 55.6655 111.825 56.076 111.783 56.4713C111.701 57.2232 111.389 57.3763 110.962 57.5852C110.709 57.7091 110.416 57.8526 110.106 58.1525H112.033C108.815 58.1525 106.037 58.681 102.982 59.6726C101.31 60.2163 100.041 59.9898 98.3911 59.6626C97.866 59.5588 97.3395 59.4754 96.8149 59.3923C95.3552 59.1611 93.911 58.9324 92.5578 58.2733C92.3454 58.1708 92.194 58.0849 92.0673 58.0129C91.7084 57.8091 91.5477 57.7178 90.7617 57.6844C89.264 57.6189 87.6632 57.5686 86.1764 57.6693C85.6402 57.7051 85.1209 57.8168 84.602 57.9283C84.1022 58.0358 83.6027 58.1432 83.0889 58.1827C82.5713 58.2244 82.0739 58.2451 81.5829 58.2656C80.653 58.3043 79.7461 58.342 78.7695 58.5199C77.1008 58.8246 75.2305 58.7528 73.4254 58.6835C72.6654 58.6544 71.9169 58.6256 71.1998 58.6256C68.1665 58.6256 65.3991 58.5552 62.4146 58.1575C61.1028 57.9837 60.071 57.5991 58.85 57.144L58.8007 57.1256C56.5325 56.28 54.1449 55.8622 51.6922 55.8169C50.0573 55.7851 48.416 55.8015 46.775 55.8179C45.8179 55.8274 44.8609 55.837 43.9054 55.837C43.2592 55.837 42.6094 55.8237 41.9586 55.8104C40.817 55.7871 39.6724 55.7638 38.5388 55.8118C36.8202 55.8818 35.1039 56.079 33.3883 56.2762C31.3988 56.5049 29.4103 56.7335 27.4203 56.7632C26.2366 56.7803 25.1277 57.0606 24.0294 57.3383C23.5064 57.4706 22.9858 57.6022 22.4606 57.7045C20.149 58.1575 17.7777 58.1575 15.3956 58.1575C14.6711 58.1575 13.9467 58.1618 13.2223 58.166C12.0149 58.1731 10.8076 58.1802 9.60025 58.1676C8.80104 58.1591 8.06232 58.0335 7.32166 57.9077C6.7498 57.8105 6.1768 57.7131 5.57392 57.6693C4.7295 57.6078 3.8559 57.6358 2.98776 57.6636C2.50586 57.679 2.02564 57.6944 1.55302 57.6944L1.55845 57.6844C1.61213 57.6744 1.38836 57.3701 1.16225 57.0627C0.931227 56.7485 0.697765 56.4311 0.755355 56.4209C1.00101 55.7168 0.731192 55.2281 0.448777 54.7165C0.244603 54.3467 0.0338463 53.9649 0.00652357 53.4813C-0.0468311 52.5374 0.234389 52.0453 0.583246 51.435C0.731105 51.1763 0.891115 50.8963 1.04295 50.5517C1.29337 49.9834 1.2674 49.3638 1.24141 48.7436C1.23586 48.6113 1.23031 48.4789 1.22744 48.347C1.22459 48.2661 1.21571 48.179 1.20656 48.0892C1.18096 47.8379 1.1532 47.5654 1.24915 47.3503C1.32569 47.1755 1.46131 47.1015 1.60231 47.0245C1.72122 46.9596 1.84395 46.8926 1.93829 46.7614C2.509 45.9773 2.91381 45.1174 3.32077 44.2529C3.52516 43.8187 3.7301 43.3834 3.95688 42.9559C4.83603 41.2924 4.21615 40.8062 2.88457 39.7618C2.76962 39.6716 2.64938 39.5773 2.52433 39.4777C2.3366 39.3303 2.08161 39.1763 1.8131 39.0141C1.27445 38.6887 0.681409 38.3304 0.46776 37.9273C0.170093 37.36 0.331254 36.0466 0.407473 35.4254L0.408071 35.4206C0.444873 35.1212 0.536322 34.8506 0.62771 34.5802C0.711493 34.3322 0.795224 34.0845 0.83675 33.8148C0.886136 33.4924 0.900994 33.1552 0.898783 32.8125C0.778729 32.8109 0.658058 32.81 0.536729 32.81H0.898767C0.896502 32.4715 0.877626 32.1278 0.85896 31.7879C0.853835 31.6945 0.848727 31.6015 0.843982 31.5089ZM110.115 27.7738C110.74 27.7308 111.377 27.709 112.033 27.709H110.106C110.101 27.7328 110.104 27.7543 110.115 27.7738ZM2.35494 2.43132C2.36562 2.4118 2.36874 2.3903 2.36317 2.36655H0.536729C1.15835 2.36655 1.76246 2.38828 2.35494 2.43132Z" fill="#6572B5"/>
<g clip-path="url(#clip0_431_50916)">
<path fill-rule="evenodd" clip-rule="evenodd" d="M97.5555 25.9522L97.6682 26.0555C98.5062 25.0071 99.0823 23.7743 99.3491 22.459C99.5182 21.4072 99.4947 18.2332 98.7153 17.8341C98.5368 18.3037 98.1753 19.0173 98.0392 19.5338C97.7527 20.6278 97.9124 22.0833 97.7011 22.7407C96.7339 24.3371 97.0062 24.5108 97.5368 25.9522H97.5555ZM71.8068 25.417V25.154C71.7798 24.9952 71.7422 24.8383 71.6941 24.6845C71.5673 24.3183 71.6471 24.5765 71.4828 24.2995C71.1306 23.7079 71.3091 22.0129 71.3044 21.3227C71.3457 20.5932 71.3284 19.8615 71.2527 19.1347C71.1588 18.5243 70.8677 17.8247 70.8912 17.2566L70.8114 17.2237C70.201 17.6933 69.9287 20.717 69.9474 21.75C69.9495 22.5188 70.1414 23.2753 70.5062 23.9521C70.7544 24.5458 71.1918 25.041 71.7504 25.3606C71.7504 25.3606 71.7927 25.3935 71.8115 25.4076L71.8068 25.417ZM78.9295 32.7979C79.5633 32.9388 79.5915 32.9341 79.9296 33.3332C80.3427 33.8027 80.4977 33.4975 80.831 33.9483C81.6245 33.8543 82.357 33.7276 81.7701 32.6899C81.3804 32.488 80.4977 32.4035 80.3099 31.9199C80.0228 31.9843 79.7622 32.1351 79.5633 32.3519C79.3286 32.5538 79.1689 32.6195 78.9482 32.8214L78.9295 32.7979ZM86.3761 32.8965C86.5264 33.3285 86.4231 33.1735 86.8128 33.366C87.2738 33.2568 87.7486 33.2172 88.2214 33.2487C88.7285 33.2956 89.0337 33.6149 89.3764 33.413C88.8083 32.8355 88.9069 32.2439 87.9678 32.0044C87.6814 32.2486 87.672 32.38 87.2635 32.5725C87.0006 32.6993 86.6391 32.7416 86.3808 32.8824L86.3761 32.8965ZM90.3436 18.7121C89.5173 19.3319 88.3435 18.6229 87.1274 19.5432C86.8738 19.7404 86.6203 20.0597 86.1508 19.8155C85.5592 19.5103 85.8691 17.8107 87.9913 17.5571L88.6158 17.4538C89.8976 17.2191 92.372 17.3317 93.311 17.9233C93.9965 18.3459 93.635 19.4493 92.6021 18.9892C92.1983 18.806 90.8085 18.3365 90.3295 18.6981L90.3436 18.7121ZM75.1357 18.5337C74.9291 17.7308 75.8447 17.7214 76.4363 17.4116C77.9482 16.6181 81.2912 16.9984 82.033 18.4727C82.4133 19.2192 81.6058 19.6277 81.0095 19.2662C80.0704 18.6793 79.0421 18.7732 77.8871 18.7967C77.5503 18.7819 77.2155 18.7363 76.887 18.6605C76.765 18.6605 76.2579 18.914 75.9715 18.9516C75.5677 19.0033 75.2249 18.8953 75.1357 18.5384V18.5337ZM74.1966 12.7304C74.2774 12.3849 74.4382 12.0632 74.6662 11.7913L76.9293 9.54231C77.2298 9.22773 77.0983 9.34041 77.5068 9.12443C78.0514 8.83802 78.6853 7.89427 79.9953 7.58439C82.7232 6.94114 82.5119 7.11486 84.9159 7.11486C85.3854 7.11486 85.855 7.04913 86.3245 7.04443L89.6628 7.6736C90.6535 7.98348 92.5974 8.82394 93.2453 9.58457C93.3533 9.71134 93.4284 9.86628 93.5599 10.0306C94.0294 10.594 94.1233 10.4203 94.3909 11.2185C94.5553 11.688 94.9732 12.397 95.1985 13.0966C96.1 15.9138 95.5319 15.7588 95.4568 17.7919C95.4145 18.9187 95.8746 22.3932 95.6962 22.9567C95.5361 23.7211 95.4185 24.4939 95.3441 25.2714C94.5429 25.2865 93.7748 25.5937 93.1843 26.1353C92.2969 26.7927 92.3579 27.4359 92.0527 27.9195C91.8743 28.2013 91.5832 28.4266 91.3484 28.7224C90.7333 29.5488 90.508 31.8401 91.0197 32.258V32.3988C90.8868 32.6646 90.6731 32.8816 90.4094 33.0186L90.3249 32.1969C90.1746 31.1734 89.4421 29.5911 88.7003 29.0229C88.5078 28.8774 88.4233 28.8257 88.2308 28.6614C88.0848 28.5666 87.9495 28.4564 87.827 28.3327C87.9444 28.0275 88.0195 28.1261 88.0852 27.7787C88.2261 27.0603 87.9021 26.5861 87.5734 26.0367C86.8551 24.8442 86.3057 22.8487 85.8597 21.3415C85.6202 20.5433 85.2634 19.7967 84.5732 19.5291C84.103 19.3754 83.5998 19.3527 83.1176 19.4634C82.7185 19.5855 82.5965 19.9329 82.5119 20.4259C82.3476 21.365 82.6481 22.4777 82.3899 23.3698C82.0894 24.3981 81.0987 25.5672 81.0987 26.8209C81.0987 27.5862 81.371 27.4782 81.5682 27.9148C80.2113 28.5957 77.9951 30.2296 77.6054 31.765C77.3954 31.4558 77.1631 31.1624 76.9105 30.8869V30.7273C77.0434 30.1157 76.9604 29.477 76.6757 28.9196C76.4316 28.4501 76.286 27.8726 76.0513 27.4406C75.5817 26.5955 74.2295 26.6283 73.2623 25.971C73.2662 25.8552 73.2422 25.7402 73.1924 25.6356C73.1425 25.531 73.0683 25.4399 72.9759 25.37C72.8303 24.6376 73.267 22.5059 73.2482 21.5856C73.2269 21.2481 73.1671 20.9141 73.0698 20.5902C72.9853 20.008 73.2623 19.0831 73.3233 18.468C73.3468 18.2098 73.4924 16.3035 73.4877 16.2659C73.9337 15.7166 74.0464 13.4159 74.1873 12.7163L74.1966 12.7304Z" fill="#F6D3B5"/>
<path fill-rule="evenodd" clip-rule="evenodd" d="M81.5544 27.9617C83.2729 26.9663 83.3198 29.0886 84.7566 28.1871C85.1181 27.9617 85.8506 27.4312 86.3577 27.5485C86.8611 27.7416 87.3352 28.004 87.7663 28.328L87.8226 28.3608C87.94 28.0556 88.0151 28.1542 88.0808 27.8068C88.2217 27.0884 87.8977 26.6142 87.5691 26.0648C86.8507 24.8722 86.3013 22.8768 85.8553 21.3696C85.6158 20.5714 85.259 19.8248 84.5688 19.5572C84.0986 19.4035 83.5954 19.3808 83.1133 19.4915C82.7142 19.6136 82.5921 19.961 82.5076 20.454C82.3432 21.3931 82.6437 22.5058 82.3855 23.3979C82.085 24.4262 81.0943 25.5953 81.0943 26.8489C81.0896 27.6331 81.3666 27.5251 81.5544 27.9617Z" fill="#E6C09D"/>
<path fill-rule="evenodd" clip-rule="evenodd" d="M90.3438 18.712C90.8133 18.3505 92.2219 18.82 92.6163 19.0031C93.6492 19.4727 94.0248 18.3599 93.3252 17.9373C92.3486 17.3316 89.8977 17.2189 88.63 17.4678L88.0055 17.5711C85.8833 17.8246 85.5734 19.5243 86.165 19.8295C86.6345 20.0737 86.888 19.7544 87.1416 19.5572C88.3436 18.6228 89.5174 19.3318 90.3438 18.712Z" fill="#272C1E"/>
<path fill-rule="evenodd" clip-rule="evenodd" d="M86.6721 21.6888C86.8129 22.6279 89.4892 23.7923 91.0856 22.7734C91.5551 22.4729 91.9683 22.2569 92.0716 21.6747C92.3017 20.4023 90.5785 20.2661 89.3765 20.2145C88.677 20.1957 86.5265 20.7685 86.6721 21.6888Z" fill="white"/>
<path fill-rule="evenodd" clip-rule="evenodd" d="M75.1358 18.5336C75.225 18.8904 75.5678 19.0031 75.9716 18.9468C76.258 18.9092 76.7651 18.6557 76.8872 18.6557C77.2157 18.7315 77.5504 18.7771 77.8872 18.7918C79.0423 18.7918 80.0518 18.6791 81.0096 19.2613C81.6059 19.6229 82.4182 19.2144 82.0332 18.4678C81.2913 16.9935 77.9483 16.6132 76.4364 17.4067C75.8448 17.7072 74.9339 17.7166 75.1358 18.5336Z" fill="#272C1E"/>
<path fill-rule="evenodd" clip-rule="evenodd" d="M80.2915 31.9198C80.4793 32.3893 81.362 32.4879 81.7517 32.6898C82.5282 32.8163 83.3188 32.8306 84.0994 32.7321C84.86 32.6288 85.8695 32.5865 86.3953 32.8964C86.6536 32.7555 87.0151 32.7133 87.278 32.5865C87.6865 32.394 87.6959 32.2625 87.9823 32.0184C86.7146 31.2578 85.4046 31.7414 84.0336 31.3329C82.9772 31.0183 80.8878 31.1545 80.2915 31.9198Z" fill="#E69090"/>
<path fill-rule="evenodd" clip-rule="evenodd" d="M76.5538 21.9236C76.6571 22.6748 78.9484 23.8345 80.5965 22.6654C81.5073 22.0222 82.005 21.4024 80.5589 20.5619C80.0195 20.3217 79.4177 20.2593 78.8404 20.3835C78.3568 20.4492 76.4412 21.1113 76.5538 21.9236Z" fill="white"/>
<path fill-rule="evenodd" clip-rule="evenodd" d="M81.5545 27.9617C80.1975 28.6425 77.9814 30.2765 77.5917 31.8118C76.9719 32.9387 78.6199 33.103 78.7702 32.8166H78.9298C79.1505 32.6382 79.3101 32.5725 79.5449 32.3471C79.7438 32.1303 80.0043 31.9795 80.2914 31.9151C80.8877 31.1498 82.9771 31.0136 84.0148 31.3282C85.3858 31.7367 86.6958 31.2531 87.9635 32.0137C88.9025 32.2579 88.8133 32.8495 89.3721 33.4223C89.5008 33.5139 89.659 33.5546 89.8159 33.5364C89.9729 33.5181 90.1176 33.4424 90.2219 33.3237C90.3682 32.9732 90.4011 32.5857 90.3158 32.2156C90.1656 31.192 89.4331 29.6097 88.6913 29.0416C88.4987 28.8961 88.4142 28.8444 88.2217 28.6801C88.0758 28.5853 87.9404 28.4751 87.8179 28.3514L87.7616 28.3186C87.3306 27.9946 86.8565 27.7322 86.353 27.5391C85.8459 27.4218 85.1135 27.9523 84.7519 28.1777C83.3199 29.0886 83.2729 26.9851 81.5545 27.9617Z" fill="#6F6F6E"/>
<path fill-rule="evenodd" clip-rule="evenodd" d="M81.6577 35.1971C80.1505 34.5491 80.4839 32.6428 81.7516 32.6898C82.5281 32.8163 83.3187 32.8306 84.0992 32.732C84.8599 32.6288 85.8694 32.5865 86.3952 32.8964C86.5596 33.3659 87.0526 32.9574 87.0197 34.0139C86.9633 35.3567 82.6343 35.6149 81.6577 35.1971Z" fill="#6F6F6E"/>
<path fill-rule="evenodd" clip-rule="evenodd" d="M71.807 25.4169C72.0981 28.2341 71.4736 28.7365 72.5442 31.3517C72.8681 32.1452 73.1123 33.15 73.4832 33.8731C74.6711 36.2583 75.798 38.1833 78.4226 39.0378C80.2561 39.7135 82.1969 40.0508 84.1508 40.0332C84.9772 40.0332 86.813 40.1224 87.4751 39.8595C89.5269 39.0472 90.4519 39.0425 92.2173 37.7044C93.3394 36.8592 94.3395 34.9295 94.9405 33.6806C95.3537 32.8213 95.4664 32.1123 95.8232 31.2531C96.1801 30.3939 96.6308 29.8445 96.9595 28.9759C97.2694 28.4594 97.8985 26.1165 97.6121 25.4122C97.2835 24.5624 97.2835 24.1398 97.7295 22.7312C97.9408 22.0739 97.7812 20.6184 98.0676 19.5244C98.1383 19.2775 98.2261 19.0359 98.3305 18.8013C98.3305 18.8013 98.3305 18.8295 98.3023 18.8248C96.828 18.2473 95.9829 18.2144 95.4852 18.4914C95.5885 19.9704 95.8467 22.5481 95.7105 22.9754C95.5504 23.7398 95.4328 24.5126 95.3584 25.2901C95.3584 25.2901 95.0156 28.1542 94.8889 28.3045C94.4194 28.9243 94.6588 28.6425 94.5367 29.4548C94.3818 30.4455 93.5695 30.6756 93.3019 31.1263C93.0342 31.5771 92.8652 32.6992 92.0436 32.8072C91.5224 32.8777 91.358 32.6241 91.0106 32.4175C90.8776 32.6833 90.664 32.9003 90.4002 33.0373L90.3157 32.2156C90.401 32.5857 90.3681 32.9732 90.2218 33.3237C90.1174 33.4424 89.9728 33.5182 89.8158 33.5364C89.6589 33.5546 89.5007 33.514 89.372 33.4223C89.0292 33.6242 88.724 33.3049 88.2169 33.258C87.7442 33.2265 87.2694 33.2661 86.8083 33.3754V33.4505C87.0994 33.596 86.6299 33.6946 86.5689 34.244C85.9612 34.5992 85.2808 34.8121 84.579 34.8665C83.8772 34.921 83.1721 34.8157 82.5169 34.5586C81.9065 34.2956 80.4932 34.8074 80.8454 33.9388C80.512 33.4693 80.3758 33.812 79.9439 33.3237C79.6058 32.9246 79.5776 32.9293 78.9438 32.7885H78.7841C78.6339 33.0749 76.9859 32.9105 77.6056 31.7837C77.3956 31.4745 77.1634 31.1811 76.9107 30.9057C76.7652 31.3095 76.6713 31.6146 76.3332 31.7414C76.141 31.8122 75.9322 31.825 75.7327 31.7782C75.5332 31.7315 75.3519 31.6273 75.2111 31.4785C74.272 30.5723 75.0608 30.3281 74.2344 29.6004C73.5583 28.9947 73.6053 28.6379 73.239 27.7223L74.2297 26.3137C74.5819 26.1869 73.5114 25.708 73.4128 24.8018C73.3142 23.8956 73.2766 22.3415 73.2625 21.5668C73.2413 21.2293 73.1814 20.8953 73.0841 20.5714C72.9996 19.9892 73.2766 19.0642 73.3377 18.4491C73.3377 18.3975 73.3376 18.2895 73.3611 18.1393C72.732 17.7073 71.7178 18.0547 70.9008 17.28C70.7975 17.8153 71.1168 18.4914 71.2623 19.083C71.338 19.8098 71.3553 20.5415 71.314 21.271C71.314 21.9612 71.1403 23.6562 71.4924 24.2478C71.6567 24.5248 71.5769 24.2478 71.7037 24.6328C71.7518 24.7866 71.7895 24.9435 71.8164 25.1023L71.807 25.4169Z" fill="#D2CABF"/>
<path fill-rule="evenodd" clip-rule="evenodd" d="M93.1939 26.1634C92.3065 26.8207 92.3675 27.464 92.0623 27.9476C91.8839 28.2293 91.5928 28.4547 91.358 28.7505C90.743 29.5768 90.5176 31.8681 91.0294 32.286V32.4269C91.3768 32.6335 91.5411 32.8964 92.0623 32.8166C92.884 32.7086 93.0859 31.5348 93.3207 31.1357C93.5554 30.7366 94.4006 30.4549 94.5555 29.4642C94.6776 28.6519 94.4334 28.9336 94.9076 28.3138C95.1374 28.0175 95.3182 27.6862 95.4429 27.3325C96.0063 25.6751 96.4524 23.75 93.2033 26.1634H93.1939ZM98.3211 18.8106C98.4666 18.4632 98.631 18.1063 98.7343 17.834C98.7343 16.8621 97.9173 12.3781 97.4337 11.9274C97.3055 11.5015 97.119 11.0955 96.8797 10.7207C96.7153 10.3967 96.7294 9.98353 96.4946 9.50462C95.5556 7.55139 94.4334 6.09586 91.9966 5.82354C91.0012 5.71085 89.649 4.54173 88.5409 4.49008C87.1323 4.42435 80.6857 4.3727 79.3663 4.8657L79.1832 4.95491C78.4569 4.92005 77.7453 5.16736 77.1971 5.64512C76.7276 5.8564 76.3708 6.54661 75.4834 7.08656C74.9622 7.40114 75.1641 7.12882 74.6476 7.66877C74.2485 8.08665 73.9903 7.96457 73.4644 8.73929C73.1264 9.20882 73.1498 8.99283 72.9292 9.39193C71.8164 11.425 71.9572 12.4251 71.7929 12.7443C71.6286 13.0636 71.6755 12.796 71.5018 13.5472L71.2295 14.4206C71.1247 14.7014 71.043 14.9903 70.9853 15.2845C70.8726 15.862 71.0135 16.7917 70.8867 17.28V17.3457C71.7037 18.1204 72.7179 17.773 73.347 18.2049C73.3987 17.5945 73.4926 16.3268 73.4879 16.3268C73.9574 15.7164 74.0466 13.4299 74.1875 12.7303C74.2682 12.3848 74.4291 12.0631 74.657 11.7912L76.9201 9.54218C77.2206 9.2276 77.0892 9.34028 77.4976 9.1243C78.0423 8.83789 78.6761 7.89415 79.9861 7.58426C82.7141 6.94101 82.5028 7.11473 84.9068 7.11473C85.3763 7.11473 85.8458 7.049 86.3153 7.0443L89.6537 7.67347C90.6444 7.98336 92.5882 8.82381 93.2361 9.58444C93.3441 9.71121 93.4192 9.86615 93.5507 10.0305C94.0202 10.5939 94.1141 10.4202 94.3818 11.2184C94.5461 11.6879 94.964 12.3969 95.1894 13.0965C96.0908 15.9136 95.5227 15.7587 95.4476 17.7917C95.4476 17.9936 95.4476 18.2613 95.4476 18.5852C95.4992 19.5243 97.3914 19.6182 98.2648 18.8106L98.2929 18.7871L98.3211 18.8106ZM73.225 27.7739C73.5912 28.666 73.5442 29.0228 74.2203 29.652C75.0467 30.3797 74.2767 30.6239 75.197 31.5301C75.3378 31.6789 75.5191 31.7831 75.7186 31.8298C75.9181 31.8766 76.1269 31.8638 76.3191 31.793C76.6572 31.6662 76.7511 31.361 76.8966 30.9572V30.7976C77.0295 30.186 76.9466 29.5473 76.6619 28.9899C76.4177 28.5204 76.2722 27.9429 76.0374 27.5109C75.7366 27.0369 75.3154 26.6513 74.8166 26.3935C73.2343 25.4028 72.0371 24.6374 73.225 27.7739Z" fill="#6F6F6E"/>
<path fill-rule="evenodd" clip-rule="evenodd" d="M88.0528 20.468C87.3016 21.4775 88.3909 22.7217 89.6868 22.4823C91.0625 22.2287 91.1423 21.0737 90.6493 20.3272C90.2251 20.2603 89.7968 20.2227 89.3675 20.2145C88.9193 20.2348 88.4764 20.3202 88.0528 20.468Z" fill="#DDA863"/>
<path fill-rule="evenodd" clip-rule="evenodd" d="M88.8087 20.2755C87.926 20.9047 88.6584 21.9001 89.5552 21.7357C90.452 21.5714 90.4379 20.6746 89.9919 20.2473L89.3674 20.2145C89.1797 20.2185 88.9928 20.2389 88.8087 20.2755Z" fill="#000003"/>
<path fill-rule="evenodd" clip-rule="evenodd" d="M77.4601 20.8813C77.2441 21.7734 78.2019 22.6561 79.31 22.4495C80.5777 22.2147 80.7468 21.2193 80.3805 20.4728C79.8824 20.3167 79.3534 20.286 78.8405 20.3836C78.3588 20.482 77.8938 20.6496 77.4601 20.8813Z" fill="#DDA863"/>
<path fill-rule="evenodd" clip-rule="evenodd" d="M78.4318 20.4822C78.3016 20.6366 78.2305 20.8323 78.2315 21.0342C78.2324 21.2362 78.3052 21.4312 78.4369 21.5844C78.5685 21.7375 78.7505 21.8388 78.95 21.87C79.1495 21.9012 79.3537 21.8603 79.5258 21.7546C79.6488 21.6841 79.7515 21.5829 79.8238 21.4608C79.8962 21.3388 79.9357 21.2001 79.9385 21.0583C79.9413 20.9165 79.9074 20.7764 79.84 20.6516C79.7726 20.5268 79.6741 20.4215 79.554 20.3461C79.3153 20.3494 79.077 20.3667 78.8403 20.3977C78.7025 20.4171 78.566 20.4453 78.4318 20.4822Z" fill="#000003"/>
<path fill-rule="evenodd" clip-rule="evenodd" d="M78.4321 20.4822C78.3342 20.5826 78.2658 20.708 78.2344 20.8446C78.2029 20.9812 78.2096 21.1238 78.2536 21.2569C78.2789 21.1391 78.3298 21.0284 78.4029 20.9326C78.476 20.8368 78.5693 20.7584 78.6762 20.7029C78.7913 20.6344 78.9209 20.5941 79.0545 20.5852C79.1881 20.5763 79.3219 20.599 79.445 20.6517C79.5682 20.7043 79.6771 20.7853 79.763 20.888C79.8489 20.9908 79.9093 21.1123 79.9392 21.2428C79.9661 21.0702 79.9444 20.8935 79.8764 20.7326C79.8083 20.5717 79.6968 20.433 79.5542 20.332C79.3155 20.3353 79.0772 20.3526 78.8406 20.3836C78.7024 20.4076 78.5659 20.4405 78.4321 20.4822Z" fill="#000003"/>
<path fill-rule="evenodd" clip-rule="evenodd" d="M79.0328 20.5104C79.0116 20.523 78.993 20.5397 78.9782 20.5595C78.9634 20.5794 78.9526 20.6019 78.9465 20.6259C78.9404 20.6499 78.9391 20.6748 78.9426 20.6993C78.9461 20.7238 78.9545 20.7473 78.9671 20.7686C78.9798 20.7899 78.9965 20.8085 79.0163 20.8233C79.0361 20.8381 79.0586 20.8489 79.0826 20.855C79.1066 20.8611 79.1315 20.8624 79.156 20.8589C79.1805 20.8553 79.2041 20.847 79.2254 20.8343C79.4413 20.7311 79.2582 20.3836 79.0328 20.5104Z" fill="white"/>
<path fill-rule="evenodd" clip-rule="evenodd" d="M89.1135 20.4117C89.0916 20.4227 89.0723 20.4382 89.0566 20.4571C89.041 20.476 89.0294 20.4979 89.0226 20.5214C89.0158 20.545 89.014 20.5697 89.0171 20.594C89.0203 20.6183 89.0284 20.6417 89.0411 20.6627C89.0537 20.6837 89.0705 20.7019 89.0904 20.7161C89.1104 20.7304 89.1331 20.7404 89.157 20.7454C89.181 20.7505 89.2058 20.7506 89.2298 20.7457C89.2538 20.7408 89.2766 20.731 89.2966 20.7169C89.4891 20.6277 89.3295 20.299 89.1135 20.4117Z" fill="white"/>
<path fill-rule="evenodd" clip-rule="evenodd" d="M84.9303 19.0266L84.8739 19.3365C84.7821 20.3235 84.7821 21.3169 84.8739 22.3039C84.4403 23.5424 83.6278 24.613 82.5516 25.3639C81.4754 26.1148 80.1902 26.5079 78.8781 26.4874C75.4036 26.4874 72.5864 23.8252 72.5864 20.5338C72.589 19.2 73.0554 17.9085 73.9058 16.8809C74.0789 16.9019 74.2539 16.9019 74.427 16.8809C74.8965 16.8246 75.7041 16.4114 75.8919 16.4114C76.4188 16.5365 76.9565 16.6104 77.4977 16.6321C79.3429 16.6039 80.9534 16.4536 82.484 17.388C82.727 17.5538 83.0201 17.6299 83.313 17.6034C83.606 17.5768 83.8806 17.4492 84.0898 17.2424C84.4727 17.7831 84.7572 18.3871 84.9303 19.0266Z" fill="#F6D3B5"/>
<path fill-rule="evenodd" clip-rule="evenodd" d="M84.9301 19.0266L84.8738 19.3365C84.782 20.3235 84.782 21.3169 84.8738 22.3039C85.0612 21.7326 85.1563 21.135 85.1555 20.5338C85.1505 20.0234 85.0747 19.5161 84.9301 19.0266Z" fill="#E6C09D"/>
<path fill-rule="evenodd" clip-rule="evenodd" d="M73.9011 16.8809C74.0742 16.902 74.2492 16.902 74.4223 16.8809C74.8918 16.8246 75.6994 16.4114 75.8872 16.4114C76.4141 16.5366 76.9519 16.6105 77.493 16.6321C79.3382 16.6039 80.9487 16.4537 82.4794 17.388C82.7223 17.5538 83.0154 17.63 83.3084 17.6034C83.6013 17.5769 83.8759 17.4493 84.0851 17.2425C83.5063 16.45 82.7549 15.7994 81.8879 15.3397C81.0208 14.8801 80.0606 14.6234 79.0799 14.589C78.0991 14.5546 77.1233 14.7435 76.2262 15.1414C75.3291 15.5392 74.534 16.1356 73.9011 16.8856V16.8809Z" fill="#272C1E"/>
<path fill-rule="evenodd" clip-rule="evenodd" d="M75.3566 21.656C75.5209 22.8579 79.1879 24.7126 81.8173 22.8439C83.2728 21.8109 84.0757 20.8202 81.7609 19.4821C81.005 19.0454 79.9955 19.0689 79.0095 19.1956C78.2442 19.2989 75.1782 20.3601 75.3566 21.656Z" fill="white"/>
<path fill-rule="evenodd" clip-rule="evenodd" d="M76.812 19.9891C76.4646 21.3977 77.9952 22.8063 79.7701 22.4964C81.7937 22.1255 82.066 20.5291 81.4744 19.3412C80.679 19.0899 79.8336 19.0399 79.0141 19.1956C78.2461 19.3542 77.5046 19.6214 76.812 19.9891Z" fill="#DDA863"/>
<path fill-rule="evenodd" clip-rule="evenodd" d="M78.3617 19.3552C77.4226 20.3412 78.5354 22.1395 80.1036 21.3836C81.1272 20.9141 80.8924 19.6417 80.1553 19.1158C79.772 19.117 79.3893 19.1436 79.0096 19.1956C78.7899 19.2321 78.5732 19.2854 78.3617 19.3552Z" fill="#000003"/>
<path fill-rule="evenodd" clip-rule="evenodd" d="M78.3615 19.3552C78.2045 19.5156 78.0944 19.7159 78.0431 19.9344C77.9918 20.1529 78.0012 20.3813 78.0704 20.5948C78.1113 20.4058 78.1936 20.2282 78.3113 20.0748C78.429 19.9213 78.5792 19.7959 78.7512 19.7074C78.9348 19.5975 79.1417 19.5326 79.3552 19.518C79.5686 19.5034 79.7825 19.5394 79.9793 19.6232C80.1762 19.707 80.3504 19.8361 80.4879 20.0001C80.6253 20.164 80.722 20.3582 80.7701 20.5666C80.8115 20.2916 80.7759 20.0105 80.6673 19.7544C80.5588 19.4983 80.3815 19.2773 80.1551 19.1158C79.7718 19.117 79.3891 19.1436 79.0094 19.1956C78.7897 19.2321 78.573 19.2854 78.3615 19.3552Z" fill="#000003"/>
<path fill-rule="evenodd" clip-rule="evenodd" d="M79.3195 19.3975C79.2856 19.4179 79.2561 19.4447 79.2325 19.4765C79.209 19.5083 79.1919 19.5444 79.1823 19.5827C79.1727 19.6211 79.1708 19.661 79.1766 19.7001C79.1824 19.7392 79.1959 19.7768 79.2163 19.8107C79.2366 19.8446 79.2634 19.8742 79.2952 19.8977C79.327 19.9213 79.3631 19.9383 79.4015 19.9479C79.4398 19.9575 79.4797 19.9595 79.5188 19.9536C79.5579 19.9478 79.5955 19.9344 79.6294 19.914C79.9769 19.7497 79.6811 19.1909 79.3195 19.3975Z" fill="white"/>
<path fill-rule="evenodd" clip-rule="evenodd" d="M71.4408 25.2009C67.3607 25.0271 67.9945 24.5341 65.0694 27.8302C64.8211 28.0902 64.6022 28.3768 64.4167 28.6848C63.8204 29.713 62.5386 31.3704 61.5386 31.9386C61.1582 32.1545 60.5995 32.2109 60.5995 31.6522C60.5995 31.2108 61.069 31.1122 61.3789 30.8962C61.9376 30.483 63.3274 28.8444 63.5059 28.2857C62.4682 28.2105 62.5668 27.6847 62.0644 27.0461C61.8203 28.0603 61.7311 28.8491 60.9329 29.2529C59.8999 29.7787 58.9796 28.9665 58.4726 28.4735L58.4021 28.558C58.0735 29.0275 57.6415 30.2952 56.3832 29.9149C55.6507 29.6942 55.3033 28.5063 54.9464 27.6283C54.7398 27.1118 54.2233 25.3699 55.2563 25.7737C55.5145 25.8723 55.5333 26.1352 55.5756 26.4216C55.6601 27.0039 56.3268 28.835 56.7212 29.0369C57.2518 28.9993 57.5147 28.3185 57.5898 27.6706C57.6791 26.8818 57.4584 26.4733 57.2706 25.7925C57.0828 25.1117 56.9325 23.1209 57.2283 22.703C57.2721 22.6456 57.3286 22.599 57.3933 22.567C57.4581 22.535 57.5293 22.5183 57.6016 22.5183C57.6738 22.5183 57.7451 22.535 57.8098 22.567C57.8746 22.599 57.931 22.6456 57.9749 22.703C58.1861 23.0692 57.5335 26.1916 59.3459 27.9945C61.1582 29.7975 61.4259 26.1493 60.8859 24.2383C60.7216 23.6514 59.8389 20.6559 60.9845 20.9517C61.5245 21.0925 61.346 23.0411 61.9236 24.4449C62.21 25.1164 62.8955 27.1541 63.4636 27.3513C64.5153 26.1634 63.7265 22.0363 64.013 21.5433C64.0444 21.4926 64.0858 21.4488 64.1346 21.4146C64.1834 21.3803 64.2387 21.3563 64.2971 21.344C64.3554 21.3318 64.4157 21.3314 64.4742 21.3431C64.5327 21.3547 64.5882 21.3781 64.6374 21.4118C64.9102 21.7447 65.226 22.04 65.5765 22.2898C66.1493 22.6326 67.6987 22.6185 67.8208 21.0784C67.8619 20.7883 67.828 20.4925 67.7222 20.2192C67.6789 20.1364 67.6646 20.0414 67.6816 19.9494C67.6986 19.8575 67.746 19.774 67.8161 19.7121L67.957 19.576C65.9192 19.0642 65.1774 19.2661 64.1632 20.4258C63.6608 20.0596 63.6937 19.806 62.9471 19.5102C62.5758 19.3207 62.1493 19.269 61.7435 19.3645C61.3377 19.4599 60.9789 19.6962 60.731 20.0314C60.515 20.4587 60.3741 20.8155 59.7919 20.6559C59.1346 20.7122 58.7684 20.5056 57.9138 21.44C57.7495 21.6137 57.6368 21.8297 57.4443 22.0081C56.9748 22.4541 56.5052 21.8391 55.7493 22.2194C54.3924 22.8955 54.2844 24.1961 54.3407 25.4403C54.3971 26.6846 54.059 27.0132 53.627 28.2575C53.4716 28.7606 53.2589 29.2443 52.9932 29.6989C52.6598 30.2624 52.2138 30.638 52.1293 30.9009C51.763 31.9433 52.688 33.3049 53.0214 34.1312C53.3965 35.2231 53.6639 36.3491 53.8196 37.493C54.1482 39.3712 53.228 39.3007 56.2188 39.2726C60.6465 39.2256 62.9284 36.6573 66.0319 34.4599C68.9946 32.3611 67.5344 29.2951 69.3796 27.3842C70.1262 26.6564 70.9901 26.3512 71.4408 25.2009Z" fill="#F6D3B5"/>
<path fill-rule="evenodd" clip-rule="evenodd" d="M71.4406 25.2009L71.727 24.8065C71.6848 24.1116 71.065 24.2102 70.3185 24.1585C69.674 24.0739 69.0222 24.0597 68.3746 24.1163C66.9661 24.2242 65.4119 25.6986 64.9377 26.5953C64.872 26.5014 64.8391 26.5061 64.8532 26.215C64.8532 26.1117 64.8907 25.8911 64.9048 25.7455C64.9839 24.8353 65.0043 23.921 64.9659 23.0082C66.1632 23.4307 66.905 23.6186 67.9004 22.8485C68.0923 22.7266 68.2577 22.5674 68.3867 22.3802C68.5158 22.1931 68.6059 21.9819 68.6516 21.7592C68.8028 21.1855 68.8205 20.5848 68.7033 20.0032C68.6541 19.8553 68.5564 19.7285 68.426 19.6432C68.2955 19.558 68.1401 19.5194 67.9849 19.5337L67.8441 19.6698C67.7739 19.7317 67.7266 19.8152 67.7096 19.9072C67.6925 19.9991 67.7068 20.0941 67.7502 20.1769C67.8559 20.4502 67.8899 20.746 67.8488 21.0362C67.7267 22.5762 66.1772 22.5903 65.6044 22.2475C65.2539 21.9977 64.9382 21.7025 64.6654 21.3695C64.6162 21.3358 64.5606 21.3124 64.5021 21.3008C64.4437 21.2891 64.3834 21.2895 64.325 21.3018C64.2667 21.3141 64.2114 21.338 64.1626 21.3723C64.1137 21.4065 64.0724 21.4503 64.0409 21.501C63.7545 21.9705 64.5433 26.1211 63.4916 27.309C62.9234 27.1118 62.2379 25.0741 61.9515 24.4027C61.3505 22.9941 61.5289 21.0503 61.0125 20.9094C59.8668 20.6183 60.7495 23.6139 60.9139 24.1961C61.4538 26.1164 61.2238 29.8022 59.3738 27.9523C57.5239 26.1023 58.2141 23.027 58.0028 22.6607C57.959 22.6033 57.9025 22.5568 57.8378 22.5247C57.773 22.4927 57.7018 22.476 57.6295 22.476C57.5573 22.476 57.486 22.4927 57.4213 22.5247C57.3566 22.5568 57.3001 22.6033 57.2563 22.6607C56.9605 23.0786 57.1295 25.1257 57.2985 25.7502C57.4676 26.3747 57.707 26.8536 57.6178 27.6283C57.5427 28.2762 57.2797 28.9571 56.7492 28.9946C56.3548 28.7927 55.688 26.9616 55.6035 26.3794C55.5613 26.093 55.5425 25.83 55.2843 25.7314C54.2513 25.3276 54.7678 27.0696 54.9744 27.586C55.3312 28.4875 55.6787 29.652 56.4111 29.8726C57.6694 30.253 58.1014 29.004 58.4301 28.5157L58.5005 28.4312C59.0076 28.9007 59.9091 29.7365 60.9608 29.2106C61.759 28.8068 61.8482 28.018 62.0924 27.0038C62.5619 27.6424 62.4962 28.1683 63.5338 28.2434C63.3554 28.8021 61.9656 30.4408 61.4069 30.8539C61.1158 31.0699 60.6181 31.1685 60.6275 31.6099C60.6275 32.1686 61.1862 32.1123 61.5665 31.8963C62.5619 31.3282 63.8484 29.6707 64.4447 28.6425C64.6253 28.3504 64.8362 28.0781 65.0739 27.8302C67.9943 24.5341 67.3605 25.0271 71.4406 25.2009Z" fill="#6B402D"/>
<path fill-rule="evenodd" clip-rule="evenodd" d="M69.3653 21.548C69.0573 22.316 68.9553 23.1512 69.0695 23.9708C68.7878 23.9989 68.5625 23.9708 68.384 24.1163C69.0316 24.0598 69.6834 24.0739 70.3279 24.1586C71.065 24.2102 71.6848 24.1116 71.7364 24.8065C72.3609 24.8065 72.6755 24.7408 72.8445 24.229L72.9807 24.0224L73.0417 23.9755C73.0417 23.9755 73.0981 23.8017 73.0793 23.7783L72.5722 22.3697C72.5722 22.318 72.2811 22.2664 72.0463 20.886C71.5238 20.8136 70.9915 20.8717 70.4969 21.055C70.2809 21.1395 70.0508 21.2006 69.849 21.2851C69.6471 21.3696 69.5062 21.5104 69.3653 21.548Z" fill="#6F6F6E"/>
<path fill-rule="evenodd" clip-rule="evenodd" d="M68.3842 24.1164C68.5627 23.9474 68.788 23.999 69.0697 23.9708C68.9555 23.1513 69.0575 22.3161 69.3655 21.5481H68.7082C68.7082 21.6185 68.68 21.689 68.6613 21.7547C68.6155 21.9774 68.5254 22.1885 68.3963 22.3757C68.2673 22.5628 68.1019 22.7221 67.91 22.844C66.9146 23.614 66.1728 23.4262 64.9755 23.0036C65.0139 23.9164 64.9935 24.8308 64.9144 25.741C64.9144 25.8677 64.8675 26.0884 64.8628 26.2105C64.8628 26.5016 64.8628 26.4969 64.9473 26.5908C65.4215 25.6987 66.9944 24.2244 68.3842 24.1164Z" fill="#373730"/>
<path fill-rule="evenodd" clip-rule="evenodd" d="M75.7794 16.247C77.6575 14.8948 80.1601 14.4487 81.9677 15.8714C83.5078 17.0875 84.0853 18.1533 84.3154 19.684C84.5454 21.2146 84.3999 22.5011 83.8224 23.4402C82.1509 26.1211 76.4884 26.3137 74.2018 24.2196C71.6429 21.8719 73.3566 17.9843 75.7982 16.2376L75.7794 16.247ZM72.0232 20.9C72.1265 21.5104 71.8776 21.4541 72.1828 22.3321L72.2439 22.5105C72.4786 23.088 72.8543 23.6467 72.8214 24.229L73.6196 24.999C76.6668 27.5016 82.4467 27.3466 84.6065 24.0271C88.2265 18.4679 80.2634 9.44829 73.6665 16.6978C72.8683 17.5946 71.9246 19.5196 72.0373 20.8812L72.0232 20.9Z" fill="#F1BD4E"/>
<path fill-rule="evenodd" clip-rule="evenodd" d="M25.5636 26.1352C23.5963 28.5345 20.9153 30.8305 17.6193 31.4972C13.8959 32.2625 11.7643 31.7085 10.0223 30.1685C8.7687 29.0557 7.9799 26.5813 8.51516 24.506C10.1069 18.374 15.929 15.5193 19.7838 15.3549C22.2863 15.2422 23.4132 15.7258 24.3851 16.7072C24.694 17.0386 24.9311 17.4304 25.0814 17.8578C25.2316 18.2852 25.2919 18.7391 25.2584 19.1909C25.2591 20.0372 24.942 20.8528 24.3698 21.4763C23.7976 22.0998 23.0122 22.4857 22.169 22.5574C22.0494 22.5763 21.9285 22.5858 21.8074 22.5856C21.2384 22.5837 20.6895 22.3751 20.2627 21.9987C20.0141 21.7309 19.8235 21.4145 19.7031 21.0695C19.5827 20.7244 19.5351 20.3582 19.5631 19.9938C19.5913 18.6651 20.6806 17.5664 21.3614 17.1767C21.6222 17.0234 21.8974 16.896 22.1831 16.7964C22.4413 16.3597 18.0982 15.1436 15.497 20.8906C14.9983 21.9278 14.6656 23.0369 14.511 24.1773C14.1025 26.5578 14.788 28.2434 15.9524 28.943C16.807 29.4501 18.1404 29.5064 19.8401 29.0416C21.5398 28.5768 23.2207 27.1635 24.5588 25.4967C25.897 23.8299 25.5636 26.1352 25.5636 26.1352Z" fill="white"/>
<path fill-rule="evenodd" clip-rule="evenodd" d="M48.0821 9.32149C48.1446 9.26022 48.2178 9.21089 48.2981 9.17594C48.4077 9.12562 48.5227 9.08782 48.6408 9.06325C48.767 9.02721 48.8957 9.00053 49.0258 8.98343C49.1565 8.96471 49.2883 8.95529 49.4202 8.95526H49.6033H49.7771C50.0422 8.99899 50.2979 9.08793 50.533 9.2182C50.9939 9.49133 51.3432 9.91881 51.519 10.4249C51.6054 10.6901 51.6483 10.9676 51.6458 11.2465C51.6479 11.3774 51.6353 11.5082 51.6082 11.6363C51.5832 11.754 51.5421 11.8677 51.4861 11.9743C51.4066 12.1231 51.3053 12.2592 51.1856 12.3781C51.0401 12.5279 50.8832 12.666 50.7161 12.7913C50.6299 12.8536 50.5405 12.9116 50.4485 12.965C50.3726 13.013 50.2925 13.0539 50.209 13.0871C50.1233 13.1198 50.0355 13.1464 49.9461 13.1669C49.8522 13.1904 49.7395 13.2092 49.6174 13.2279C49.4155 13.2561 49.2606 13.2843 49.1479 13.3078C49.096 13.3167 49.0454 13.3324 48.9977 13.3547C48.9958 13.3844 48.9958 13.4142 48.9977 13.4439C48.9977 13.5284 48.9977 13.6505 48.9977 13.8055C48.9977 14.0308 48.9977 14.214 48.9977 14.3548C48.9977 14.4205 48.9977 14.5004 48.9977 14.5943C48.9977 14.6882 48.9977 14.8056 48.9977 14.8995C48.9996 15.093 48.9839 15.2863 48.9507 15.477C48.9342 15.6069 48.8747 15.7275 48.7817 15.8197C48.7287 15.8657 48.6704 15.9051 48.6079 15.9371C48.5541 15.9652 48.4949 15.9812 48.4342 15.9841C48.3774 15.9823 48.322 15.9657 48.2734 15.9361C48.2248 15.9065 48.1848 15.8648 48.1572 15.815C48.0856 15.6899 48.0363 15.5533 48.0117 15.4112C47.9844 15.1822 47.9719 14.9517 47.9741 14.721C47.9741 14.3407 47.9741 13.782 47.9741 13.1059C47.9741 12.4298 47.9741 11.8757 47.9741 11.4907C47.9741 11.1057 47.9741 10.885 47.9741 10.8099C47.9741 10.7348 47.9741 10.6456 47.9741 10.5563C47.9741 10.4671 47.9741 10.3685 47.9741 10.2793C47.9741 10.1901 47.9741 10.0305 47.9741 9.93657C47.9689 9.8631 47.9689 9.78936 47.9741 9.71589C47.9866 9.63427 48.007 9.55407 48.0351 9.47644C48.0627 9.41121 48.1008 9.35093 48.1478 9.29802L48.0821 9.32149ZM52.8149 16.0028C52.7495 16.0068 52.6841 15.9947 52.6244 15.9677C52.5647 15.9407 52.5124 15.8996 52.4721 15.8479C52.3915 15.7294 52.3535 15.587 52.3642 15.4441V14.9746C52.3642 14.7163 52.3642 14.3501 52.3642 13.8806C52.3642 13.4111 52.3642 12.9838 52.3642 12.6035C52.3642 12.2232 52.3642 11.9414 52.3642 11.6081C52.3642 11.1057 52.3642 10.7066 52.3642 10.4155C52.3642 10.1244 52.3642 9.91779 52.3642 9.8051C52.3642 9.76285 52.3642 9.7112 52.3642 9.65486C52.3642 9.59851 52.3642 9.53747 52.3642 9.47644C52.362 9.38919 52.3731 9.30212 52.397 9.2182C52.4175 9.14509 52.4544 9.07763 52.505 9.021C52.5431 8.98233 52.5876 8.95056 52.6365 8.92709C52.6874 8.90691 52.7414 8.89579 52.7961 8.89422C52.8812 8.89305 52.9647 8.9176 53.0356 8.96465C53.1059 9.01694 53.1637 9.08432 53.2046 9.16185C53.2326 9.22171 53.2531 9.28479 53.2656 9.34966C53.2656 9.42479 53.2656 9.50461 53.2656 9.60321C53.2656 9.70181 53.2656 9.88023 53.2656 10.1619C53.2656 10.4437 53.2656 10.8521 53.2656 11.2794V12.5377C53.2656 13.5003 53.2656 14.2609 53.2656 14.8196C53.2656 15.3784 53.2656 15.5991 53.2656 15.646C53.2391 15.7471 53.1816 15.8374 53.1013 15.9042C53.0195 15.9635 52.9207 15.9948 52.8196 15.9935L52.8149 16.0028ZM54.4817 8.88483L54.5709 8.85666H54.6507C54.6895 8.85495 54.7283 8.86114 54.7646 8.87487C54.8009 8.88859 54.8341 8.90955 54.862 8.93648C54.9994 9.06971 55.0928 9.24172 55.1297 9.42948C55.1918 9.69244 55.2202 9.96224 55.2142 10.2324C55.2142 10.3169 55.2142 10.4061 55.2142 10.5094C55.2142 10.6127 55.2142 10.716 55.2142 10.8146V10.9085L55.3785 10.6925L55.5053 10.5141C55.5663 10.4202 55.6884 10.2418 55.8621 9.97413C56.0358 9.71589 56.1814 9.50461 56.2941 9.35906C56.3714 9.24585 56.4578 9.13907 56.5523 9.03978C56.6041 8.99707 56.6629 8.9637 56.726 8.94118C56.7933 8.92229 56.8628 8.91281 56.9326 8.91301C57.0409 8.9063 57.1479 8.93973 57.2331 9.00691C57.2717 9.04452 57.3017 9.08998 57.3211 9.1402C57.3406 9.19043 57.349 9.24425 57.3458 9.29802C57.3421 9.42048 57.3167 9.54131 57.2707 9.65486C57.2146 9.81742 57.1439 9.97457 57.0594 10.1244C56.9268 10.3639 56.781 10.5959 56.6228 10.8193C56.4506 11.0634 56.2487 11.3264 56.0171 11.6081C55.9748 11.6561 55.937 11.708 55.9044 11.763C55.8911 11.783 55.8815 11.8053 55.8762 11.8288C55.8762 11.8288 55.8762 11.8522 55.8762 11.8663C55.877 11.882 55.877 11.8976 55.8762 11.9133C55.9319 12.0106 55.993 12.1046 56.0593 12.195C56.1626 12.3405 56.2988 12.533 56.4725 12.7631C56.8511 13.2693 57.1917 13.8029 57.4914 14.3595C57.6862 14.6908 57.8049 15.0613 57.8388 15.4441C57.8388 15.4864 57.8388 15.5286 57.8388 15.5615C57.8425 15.5911 57.8425 15.6211 57.8388 15.6507C57.8233 15.7021 57.7978 15.75 57.7637 15.7916C57.7274 15.8322 57.6864 15.8685 57.6416 15.8995C57.5947 15.9281 57.5442 15.9502 57.4914 15.9653C57.4379 15.9803 57.3826 15.9882 57.327 15.9888C57.2794 15.9874 57.2333 15.971 57.1956 15.9418C57.1544 15.9116 57.1166 15.8769 57.0829 15.8385C57.0015 15.7371 56.9293 15.6287 56.8669 15.5145C56.7793 15.3643 56.6713 15.1718 56.5429 14.937L56.0734 14.0684C55.956 13.8524 55.8762 13.7069 55.8339 13.6364C55.7081 13.4126 55.5603 13.2018 55.3926 13.0073C55.3298 12.9329 55.2512 12.8736 55.1625 12.8335C55.1625 13.0401 55.125 13.6223 55.0686 14.5849C55.0564 14.7817 55.0329 14.9777 54.9982 15.1718C54.9691 15.3311 54.9283 15.488 54.8761 15.6413C54.8356 15.7616 54.7753 15.8742 54.6977 15.9747C54.6676 16.0152 54.6287 16.0485 54.584 16.0721C54.5393 16.0956 54.4899 16.1089 54.4395 16.1108C54.3706 16.1103 54.3035 16.089 54.247 16.0498C54.1847 16.0084 54.1306 15.9558 54.0873 15.8949C54.0535 15.8585 54.0279 15.8152 54.0122 15.7681C53.9942 15.7216 53.9847 15.6723 53.984 15.6225C53.984 15.3079 53.984 14.7304 53.984 13.8853C53.984 13.0401 54.0263 11.9696 54.0544 10.6362C54.0544 10.2934 54.0544 10.0164 54.0967 9.80041C54.1059 9.63301 54.1359 9.46741 54.1859 9.30741C54.2162 9.22654 54.2556 9.14936 54.3033 9.07734C54.3399 9.01613 54.3938 8.96712 54.4582 8.93648L54.4817 8.88483Z" fill="white"/>
<path fill-rule="evenodd" clip-rule="evenodd" d="M27.3477 19.5431C27.4023 19.3964 27.4926 19.2657 27.6106 19.1628C27.7238 19.0725 27.8649 19.0244 28.0097 19.0266H28.1694L28.3572 19.0642C28.4819 19.0931 28.6094 19.1088 28.7375 19.1111C28.9488 19.1111 29.2399 19.1346 29.6061 19.1393C29.9723 19.144 30.2728 19.1393 30.5029 19.1722C30.6736 19.1782 30.8434 19.2002 31.01 19.2379C31.154 19.2787 31.2951 19.3289 31.4326 19.3882C31.552 19.4426 31.6666 19.507 31.7753 19.5807C31.8695 19.6425 31.9521 19.7204 32.0195 19.8107C32.0776 19.8881 32.1104 19.9816 32.1134 20.0784C32.1175 20.108 32.1175 20.138 32.1134 20.1676C32.1075 20.1953 32.098 20.2221 32.0852 20.2474C32.0569 20.3211 32.0038 20.3825 31.9349 20.4211C31.8633 20.4635 31.7831 20.4891 31.7002 20.4962L31.1978 20.5197H30.1742H28.714L28.6905 20.731C28.6905 20.9845 28.6389 21.3179 28.6013 21.7311C28.5638 22.1443 28.5356 22.4636 28.498 22.8627C28.4745 23.1725 28.4511 23.412 28.4417 23.581C28.4323 23.7501 28.4417 23.858 28.4417 23.8956V24.1773H29.9254C30.4606 24.1773 30.8644 24.1773 31.1508 24.2102C31.3329 24.2057 31.5143 24.2343 31.6861 24.2947C31.7734 24.3612 31.8427 24.4483 31.888 24.5482C31.9323 24.6571 31.9546 24.7735 31.9537 24.891C31.9539 25.0151 31.9162 25.1363 31.8457 25.2385C31.7676 25.3509 31.6648 25.444 31.5452 25.5108C31.3653 25.5633 31.1786 25.5886 30.9912 25.5859C30.6954 25.5859 30.2869 25.5859 29.7657 25.5859H28.2539V25.8066C28.1881 27.0931 28.1412 28.1166 28.1083 28.8867C28.0754 29.6567 28.0614 30.1497 28.0614 30.4126H30.0005C30.2681 30.4126 30.4935 30.4126 30.6672 30.4126C30.7834 30.4139 30.8994 30.4218 31.0147 30.4361C31.0828 30.4482 31.1463 30.4791 31.1978 30.5253C31.2509 30.5706 31.2913 30.6288 31.3152 30.6943C31.3372 30.7451 31.3514 30.799 31.3574 30.854C31.3628 30.9306 31.3628 31.0075 31.3574 31.084C31.3583 31.1639 31.3456 31.2432 31.3199 31.3188C31.2936 31.387 31.2518 31.4481 31.1978 31.4972L31.0992 31.563L30.8879 31.6897C30.7056 31.7386 30.5179 31.7638 30.3292 31.7649C30.0443 31.7649 29.6452 31.7742 29.1319 31.793H28.329C28.0579 31.8254 27.785 31.841 27.512 31.84C27.3467 31.8303 27.1859 31.7821 27.0425 31.6991C26.9 31.5767 26.7997 31.4124 26.7561 31.2296C26.6905 30.9784 26.6604 30.7192 26.6669 30.4596C26.6669 30.4079 26.6669 30.3375 26.6669 30.2389C26.6669 30.1403 26.6669 30.0229 26.6903 29.8868C26.6903 29.7835 26.6903 29.605 26.7279 29.3374C26.7655 29.0698 26.7608 28.7223 26.7796 28.2951C26.7983 27.8678 26.8124 27.5297 26.8218 27.2903C26.8312 27.0508 26.8218 26.9147 26.8218 26.863C26.8218 26.5484 26.85 26.2714 26.8594 26.0319C26.8688 25.7925 26.8594 25.5624 26.8594 25.4075C26.9016 24.5295 26.9486 23.8111 26.9955 23.2571C27.0425 22.703 27.0988 22.2804 27.1505 22.0222C27.1505 21.9659 27.1505 21.8438 27.1833 21.6513C27.2162 21.4588 27.1833 21.1817 27.2115 20.839C27.2397 20.4962 27.2397 20.191 27.2538 19.9892C27.2602 19.8466 27.2807 19.7051 27.3148 19.5666L27.3477 19.5431ZM33.9821 19.7966C34.0891 19.6934 34.213 19.6093 34.3483 19.5478C34.5349 19.4646 34.7281 19.3971 34.9258 19.3459C35.1549 19.2805 35.3889 19.2334 35.6254 19.205C35.8604 19.1729 36.0973 19.1572 36.3344 19.1581H36.6678L36.9777 19.1957C37.454 19.2714 37.9133 19.4303 38.3346 19.6652C38.7477 19.9094 39.1122 20.2278 39.4098 20.6042C39.7148 20.977 39.9501 21.4017 40.1047 21.8579C40.2638 22.3346 40.3432 22.8343 40.3395 23.3369C40.3407 23.5703 40.3171 23.8033 40.269 24.0318C40.2259 24.2428 40.1532 24.4467 40.053 24.6375C39.9094 24.9022 39.7275 25.1443 39.5131 25.3558C39.2468 25.6306 38.9561 25.8805 38.6445 26.1024C38.4949 26.2187 38.3381 26.3253 38.1749 26.4217C38.0394 26.5066 37.8964 26.5789 37.7477 26.6376C37.5944 26.6947 37.4375 26.7418 37.2781 26.7785C37.1044 26.8208 36.9025 26.8583 36.6818 26.8912C36.3062 26.9475 36.0198 26.9945 35.8132 27.0414C35.7001 27.0596 35.5907 27.0961 35.4893 27.1494C35.4704 27.2199 35.461 27.2925 35.4611 27.3654C35.4611 27.525 35.4611 27.7457 35.4611 28.0415C35.4611 28.2575 35.4611 28.4453 35.4611 28.5956C35.4611 28.7458 35.4611 28.9101 35.4611 29.0651C35.4611 29.22 35.4611 29.3421 35.4611 29.5064C35.4611 29.6708 35.4611 29.8774 35.4611 30.0652C35.4669 30.4128 35.4402 30.7602 35.3813 31.1028C35.3531 31.3214 35.2561 31.5253 35.1042 31.685C35.0112 31.7638 34.9106 31.833 34.8037 31.8916C34.7161 31.936 34.6201 31.9616 34.522 31.9668C34.4307 31.9607 34.3425 31.9312 34.266 31.881C34.1895 31.8308 34.1273 31.7617 34.0854 31.6803C33.9565 31.4619 33.869 31.2215 33.8271 30.9714C33.7801 30.5552 33.7582 30.1365 33.7614 29.7177C33.7426 29.0228 33.7317 28.0368 33.7285 26.7597C33.7285 25.4873 33.7285 24.5013 33.7051 23.7923C33.6816 23.0833 33.7051 22.6748 33.6628 22.5387C33.6628 22.3884 33.6628 22.2335 33.6393 22.0692C33.6158 21.9048 33.6393 21.7311 33.6393 21.5668C33.6299 21.2279 33.6472 20.8888 33.691 20.5526C33.7138 20.4067 33.7516 20.2635 33.8037 20.1253C33.8455 20.0136 33.9094 19.9114 33.9915 19.8248L33.9821 19.7966ZM44.2506 19.3647L45.293 19.2849L46.1944 19.2238C46.448 19.2238 46.6405 19.2238 46.7767 19.2238H47.0208C47.0738 19.2176 47.1274 19.2176 47.1804 19.2238C47.3787 19.2561 47.5604 19.3536 47.6969 19.5008C47.8202 19.6567 47.8835 19.8516 47.8753 20.0502C47.8796 20.2302 47.8178 20.4056 47.7016 20.5432C47.5777 20.6767 47.4122 20.7644 47.2321 20.792C47.1006 20.792 46.9034 20.8249 46.6358 20.839L45.6498 20.8766C45.0441 20.8766 44.5652 20.9141 44.2083 20.9376C44.0178 20.9509 43.8282 20.9744 43.6402 21.008L43.6825 21.7452C43.6825 22.1584 43.72 22.6842 43.7294 23.365C43.7388 24.0459 43.7294 24.8253 43.7294 25.7127C43.7294 26.4123 43.7294 26.9945 43.7294 27.4546C43.7294 27.9147 43.7294 28.2199 43.6919 28.3937C43.6355 29.1496 43.5604 29.8022 43.4759 30.2718C43.4192 30.6688 43.3168 31.058 43.1707 31.4315C43.1109 31.5727 43.0212 31.6992 42.9078 31.8024C42.8089 31.8925 42.68 31.9427 42.5462 31.9433H42.5368H42.4946H42.4335C42.3706 31.9382 42.3096 31.919 42.2551 31.8869C42.1958 31.8568 42.1419 31.8172 42.0955 31.7696C42.0012 31.6699 41.932 31.5492 41.8936 31.4174C41.874 31.3357 41.8615 31.2524 41.856 31.1686C41.856 31.0747 41.856 30.9573 41.856 30.8258C41.856 30.6943 41.856 30.4267 41.8795 30.2295C41.903 30.0323 41.9218 29.8351 41.9546 29.6379C42.0504 29.0328 42.1146 28.4232 42.1471 27.8115C42.1894 27.1025 42.2082 26.2902 42.2082 25.3746C42.2082 24.952 42.2082 24.5529 42.2082 24.1773C42.2082 23.8017 42.1753 23.4402 42.1471 23.088C42.1471 22.858 42.1096 22.6185 42.1002 22.3462C42.0908 22.0738 42.1002 21.7968 42.1002 21.5057C42.1002 21.2146 42.1002 20.9658 42.1002 20.7827C42.1 20.6522 42.1189 20.5225 42.1565 20.3976C42.2175 20.2366 42.3118 20.0903 42.4331 19.9681C42.5545 19.8459 42.7002 19.7507 42.8608 19.6887C43.3178 19.4996 43.8037 19.39 44.2976 19.3647H44.2506ZM50.1948 31.9104C50.0877 31.9181 49.9804 31.8994 49.8821 31.8561C49.7839 31.8127 49.6978 31.7459 49.6314 31.6616C49.4965 31.4577 49.4322 31.2153 49.4483 30.9714C49.4483 30.9244 49.4483 30.6474 49.4483 30.1403C49.4483 29.6332 49.4483 28.9993 49.4483 28.1307C49.4483 27.2621 49.4483 26.4874 49.4483 25.7831C49.4483 25.0788 49.4483 24.5248 49.4483 23.952C49.4483 23.0129 49.4483 22.3086 49.4483 21.764C49.4483 21.2193 49.4201 20.8249 49.4013 20.6324C49.4013 20.5526 49.4013 20.4634 49.3731 20.3648C49.345 20.2662 49.3731 20.1535 49.3731 20.0408C49.3688 19.8824 49.3878 19.7242 49.4295 19.5713C49.4619 19.4491 49.5231 19.3364 49.6079 19.2426C49.672 19.1786 49.7466 19.1262 49.8286 19.0877C49.9089 19.0539 49.995 19.0364 50.0821 19.036C50.2203 19.0343 50.3559 19.0735 50.4718 19.1487C50.59 19.2348 50.6865 19.3474 50.7535 19.4774C50.8015 19.5785 50.8347 19.6861 50.8521 19.7966C50.8805 19.9516 50.8962 20.1086 50.8991 20.2662C50.8991 20.4352 50.8991 20.778 50.8991 21.2897C50.8991 21.8015 50.8991 22.5199 50.8991 23.3416V25.6516C50.8991 29.3202 50.8866 31.2124 50.8615 31.3282C50.82 31.4943 50.7282 31.6435 50.5986 31.7555C50.4635 31.8566 50.2977 31.908 50.1291 31.901L50.1948 31.9104ZM56.0592 19.191C56.1504 19.1684 56.2429 19.1511 56.3362 19.1393C56.4301 19.1393 56.5287 19.1393 56.6273 19.1393C56.862 19.1334 57.095 19.1816 57.3081 19.2802C57.5033 19.3776 57.6663 19.5292 57.7776 19.7168C57.828 19.8084 57.8659 19.9063 57.8903 20.0079C57.921 20.1277 57.9383 20.2506 57.942 20.3742C57.942 20.5009 57.942 20.7498 57.9701 21.1301C57.9983 21.5104 57.9701 21.9987 57.9983 22.6232C57.9983 23.4683 58.0265 24.1961 58.0547 24.8018C58.0828 25.4075 58.1063 25.8817 58.1439 26.2385C58.172 26.4921 58.1908 26.7081 58.2096 26.924C58.2284 27.14 58.2331 27.2997 58.2425 27.4593C58.2425 27.5908 58.2425 27.8349 58.2425 28.1871C58.2425 28.5392 58.2425 29.0087 58.2425 29.5534C58.2425 30.098 58.2425 30.4924 58.2425 30.7929C58.2446 30.9796 58.2352 31.1662 58.2143 31.3517C58.2071 31.543 58.154 31.7298 58.0594 31.8963C58.0209 31.9629 57.9654 32.018 57.8986 32.056C57.8317 32.094 57.7559 32.1134 57.679 32.1123C57.6016 32.1117 57.525 32.0957 57.4537 32.0654C57.3728 32.0302 57.297 31.9844 57.2283 31.9292C57.1444 31.8631 57.0756 31.7798 57.0264 31.685C56.9751 31.5778 56.9388 31.4641 56.9184 31.347C56.8907 31.1603 56.8735 30.9722 56.8668 30.7835C56.8668 30.5347 56.8668 30.2248 56.8668 29.8445V29.2576C56.8668 28.1918 56.8668 27.6002 56.8339 27.4781C56.8339 27.4077 56.8339 27.3513 56.801 27.3044L56.7259 27.3795C56.5955 27.5129 56.4732 27.654 56.3597 27.8021C56.1813 28.0227 55.9559 28.2998 55.6929 28.6425C55.43 28.9853 55.1999 29.2764 55.0356 29.497C54.8713 29.7177 54.7586 29.868 54.7022 29.9666L54.6647 30.0417L54.6036 30.1685L54.5238 30.3187C54.4971 30.3751 54.4673 30.4299 54.4346 30.4831C54.4064 30.5347 54.383 30.577 54.3548 30.6192C54.2139 30.8915 54.0919 31.1169 53.9792 31.3C53.8945 31.4455 53.7937 31.581 53.6787 31.7038C53.5986 31.789 53.505 31.8604 53.4017 31.9151C53.3053 31.963 53.1994 31.9887 53.0918 31.9902C53.0001 31.9899 52.9093 31.9724 52.8241 31.9386C52.7377 31.9027 52.6582 31.8518 52.5894 31.7883C52.5452 31.7501 52.5086 31.7039 52.4814 31.6522C52.4543 31.5999 52.4398 31.542 52.4391 31.4831C52.4431 31.3236 52.4699 31.1655 52.519 31.0136C52.5767 30.826 52.6505 30.6438 52.7396 30.469C52.9401 30.0859 53.1692 29.7187 53.4251 29.3703C53.7382 28.9133 54.1607 28.3639 54.6929 27.7222C55.0262 27.3231 55.2985 26.9851 55.5004 26.7128C55.6541 26.5206 55.7923 26.3165 55.9136 26.1024L55.9418 26.046H55.8197C55.4156 26.0196 55.0157 25.9487 54.6271 25.8347C54.2946 25.7354 53.9783 25.5883 53.6881 25.3981C53.1344 25.0189 52.7491 24.44 52.6129 23.7829C52.4637 23.0961 52.5531 22.379 52.8664 21.7499C53.0108 21.4665 53.1889 21.2016 53.397 20.9611C53.6394 20.6826 53.9048 20.425 54.1905 20.191C54.4823 19.95 54.7968 19.7377 55.1295 19.5572C55.4268 19.3981 55.7421 19.2751 56.0686 19.191H56.0592Z" fill="white"/>
<path fill-rule="evenodd" clip-rule="evenodd" d="M9.3179 35.1267C9.36016 35.1267 9.6231 35.1267 10.0973 35.1267H12.1351H14.0883C14.3472 35.1223 14.6061 35.1364 14.863 35.169C15.022 35.2245 15.163 35.3218 15.2715 35.4507C15.3764 35.5887 15.4472 35.7496 15.4781 35.9202C15.4781 36.0047 15.5063 36.5212 15.5156 37.479C15.525 38.4369 15.5156 39.8266 15.5156 41.6155C15.5156 42.0428 15.5156 42.409 15.5156 42.7142C15.5156 43.0992 15.5156 43.503 15.5156 43.9256C15.5156 44.3482 15.5156 44.6909 15.5156 44.9492C15.5156 45.2074 15.5156 45.4187 15.5156 45.4844C15.5156 46.0338 15.5156 46.461 15.5156 46.7709C15.5222 46.9573 15.5032 47.1437 15.4593 47.325C15.3997 47.4439 15.3022 47.5397 15.1823 47.5973C15.0507 47.6607 14.9057 47.6913 14.7597 47.6865C14.6511 47.6879 14.5431 47.6704 14.4404 47.6349C14.3449 47.6039 14.258 47.5508 14.1869 47.4799C13.9543 47.2337 13.802 46.9226 13.7502 46.5878C13.6455 46.0703 13.5983 45.5428 13.6094 45.0149C13.6094 44.921 13.6094 44.7661 13.6094 44.5454C13.6094 44.3247 13.6094 44.0759 13.6328 43.7707C13.6328 43.4232 13.6704 42.9208 13.6798 42.2588C13.6892 41.5968 13.6798 40.7939 13.6798 39.7985V36.9438H10.3649L10.318 39.4557C10.318 40.1741 10.2898 40.93 10.2804 41.7094C10.271 42.4889 10.2804 43.2824 10.2804 44.151C10.2804 44.8177 10.2804 45.353 10.2804 45.7614C10.2785 46.0281 10.2628 46.2946 10.2335 46.5596C10.1824 46.8447 10.1006 47.1234 9.98933 47.3907C9.89985 47.6009 9.7689 47.791 9.60431 47.9494C9.53723 48.0172 9.46671 48.0814 9.39303 48.1419C9.31321 48.1419 9.2193 48.1419 9.13948 48.1419C8.932 48.1284 8.73811 48.034 8.59953 47.879C8.45172 47.693 8.35611 47.471 8.32251 47.2358C8.32251 47.17 8.32251 47.0949 8.32251 47.0151C8.32251 46.9353 8.32251 46.8461 8.32251 46.7521C8.32251 46.5643 8.32251 46.3343 8.35538 46.0573C8.38824 45.7802 8.40702 45.475 8.44928 45.1182L8.55727 44.2918V40.7657C8.55727 39.6075 8.55727 38.692 8.55727 38.019C8.55727 37.3288 8.5291 36.8686 8.51032 36.6386C8.51032 36.4836 8.51032 36.3569 8.51032 36.2536C8.51032 36.1503 8.51032 36.0845 8.51032 36.0564C8.50257 35.9563 8.50257 35.8559 8.51032 35.7559C8.52319 35.6778 8.5469 35.602 8.58075 35.5305C8.64327 35.4053 8.75051 35.3081 8.88125 35.2582C9.04712 35.1884 9.22305 35.1456 9.40242 35.1314L9.3179 35.1267ZM18.5535 35.0563C18.6145 35.026 18.6792 35.0039 18.746 34.9905C18.8208 34.9803 18.8966 34.9803 18.9714 34.9905C19.1684 34.9941 19.3628 35.0355 19.5442 35.1126C19.7614 35.2033 19.9652 35.3234 20.1499 35.4694C20.3378 35.613 20.5151 35.7699 20.6804 35.939C20.819 36.0819 20.9417 36.2393 21.0467 36.4085C21.2769 36.7645 21.4689 37.1438 21.6195 37.5401C21.8179 38.0556 21.9856 38.5824 22.1219 39.1177C22.2768 39.7234 22.413 40.3666 22.5304 41.0427C22.6477 41.7188 22.7463 42.4513 22.8309 43.2072C22.859 43.5077 22.8872 43.8505 22.9013 44.2261C22.9154 44.6017 22.9248 45.0196 22.9248 45.4657C22.9248 45.7239 22.9248 45.9352 22.9248 46.1418C22.9248 46.3484 22.9013 46.4892 22.8872 46.6113C22.855 46.8021 22.8095 46.9903 22.751 47.1747C22.7106 47.3269 22.6421 47.4702 22.5491 47.5973C22.5123 47.641 22.4677 47.6776 22.4177 47.7053C22.369 47.7329 22.314 47.7475 22.258 47.7475C22.191 47.7432 22.1262 47.7219 22.0695 47.6858C22.0129 47.6497 21.9663 47.5999 21.9341 47.541C21.8313 47.3839 21.7551 47.211 21.7087 47.0292C21.5994 46.6589 21.5301 46.278 21.5021 45.8929C21.4551 45.414 21.4317 44.8365 21.4317 44.1604V43.3528L21.0232 43.3246H20.8682H20.4832H20.0419H19.732L19.0606 43.2166C18.8915 43.2166 18.7648 43.2166 18.6896 43.2166H18.4737V43.9726C18.4737 44.32 18.4737 44.7238 18.4737 45.1839C18.4737 45.6535 18.4737 46.0432 18.4737 46.3859V47.2733L18.3797 47.4564C18.3213 47.5667 18.2376 47.6616 18.1356 47.7335C18.0386 47.7989 17.9239 47.8333 17.8069 47.8321C17.735 47.8302 17.6638 47.8175 17.5956 47.7945C17.5201 47.7661 17.4477 47.7299 17.3797 47.6865C17.328 47.6442 17.2858 47.6114 17.2529 47.5785C17.2231 47.5467 17.1963 47.5121 17.1731 47.4752C17.1126 47.1501 17.0827 46.82 17.0839 46.4892C17.0839 45.9587 17.0557 45.2262 17.0557 44.2965C17.0557 43.3669 17.0557 42.4184 17.0886 41.6531C17.1214 40.8878 17.1402 40.1929 17.1825 39.6201C17.2303 38.5658 17.3876 37.5194 17.652 36.4977C17.8867 35.7277 18.1919 35.2488 18.591 35.0563H18.5535ZM24.7512 35.7699C24.857 35.6652 24.9811 35.5808 25.1174 35.5211C25.3038 35.4362 25.497 35.3671 25.695 35.3145C25.9251 35.2536 26.1587 35.2066 26.3945 35.1736C26.6295 35.1415 26.8664 35.1258 27.1035 35.1267C27.2162 35.1267 27.3289 35.1267 27.4369 35.1267C27.541 35.1317 27.6445 35.1442 27.7468 35.1643C28.7063 35.3096 29.5753 35.8129 30.1789 36.5728C30.4848 36.9433 30.7203 37.3666 30.8738 37.8218C31.033 38.2985 31.1123 38.7982 31.1086 39.3008C31.1101 39.5343 31.0865 39.7672 31.0382 39.9957C30.9917 40.2058 30.9192 40.4093 30.8222 40.6014C30.6786 40.8661 30.4966 41.1082 30.2822 41.3197C30.0125 41.5908 29.7221 41.8404 29.4136 42.0663C29.2446 42.1884 29.0849 42.2964 28.9441 42.3856C28.807 42.4664 28.6642 42.537 28.5168 42.5968C28.3644 42.6577 28.2074 42.7064 28.0473 42.7424C27.8736 42.7847 27.6717 42.8222 27.451 42.8551C27.0754 42.9067 26.789 42.9584 26.5824 43.0053C26.4687 43.0212 26.3589 43.0578 26.2584 43.1133C26.2387 43.1837 26.2277 43.2562 26.2255 43.3293C26.2255 43.4843 26.2255 43.7096 26.2255 44.0007C26.2255 44.4092 26.2255 44.7473 26.2255 45.0055C26.2255 45.137 26.2255 45.2825 26.2255 45.475C26.2255 45.6675 26.2255 45.8413 26.2255 46.0291C26.2323 46.3785 26.204 46.7277 26.141 47.0714C26.1145 47.2881 26.019 47.4906 25.8687 47.6489C25.7769 47.7292 25.676 47.7986 25.5682 47.8555C25.4814 47.9021 25.3849 47.9278 25.2865 47.9307C25.196 47.9284 25.1078 47.9019 25.031 47.854C24.9542 47.8061 24.8917 47.7386 24.8498 47.6583C24.7201 47.4402 24.6325 47.1997 24.5916 46.9493C24.5444 46.5347 24.5209 46.1177 24.5211 45.7004C24.5211 44.9993 24.5118 44.0132 24.493 42.7424C24.4742 41.4716 24.4742 40.4824 24.493 39.775C24.493 39.0754 24.4648 38.6575 24.4507 38.5167C24.4507 38.3711 24.4507 38.2162 24.4507 38.0471C24.4507 37.8781 24.4507 37.7138 24.4507 37.5494C24.4507 37.299 24.4507 37.0877 24.4507 36.9156C24.4542 36.7865 24.4668 36.6579 24.4883 36.5306C24.5117 36.3848 24.5494 36.2417 24.601 36.1033C24.6428 35.993 24.7067 35.8923 24.7888 35.8075L24.7512 35.7699ZM34.1417 35.0563C34.2014 35.0267 34.2645 35.0046 34.3295 34.9905C34.4033 34.9731 34.4791 34.9652 34.5549 34.9671C34.7519 34.9706 34.9464 35.0121 35.1277 35.0891C35.3444 35.1809 35.5481 35.3009 35.7334 35.446C35.9203 35.5907 36.0975 35.7476 36.264 35.9155C36.4025 36.0584 36.5253 36.2159 36.6302 36.385C36.8604 36.741 37.0524 37.1203 37.203 37.5166C37.4014 38.0321 37.5692 38.5589 37.7054 39.0942C37.8604 39.6999 37.9965 40.3431 38.1139 41.0192C38.2313 41.6954 38.3299 42.4278 38.4144 43.1838C38.4426 43.4843 38.4708 43.827 38.4848 44.2026C38.4989 44.5782 38.4848 44.9961 38.4848 45.4422C38.4848 45.7004 38.4848 45.9117 38.4848 46.1183C38.4848 46.3249 38.4848 46.4657 38.4473 46.5878C38.427 46.7857 38.3925 46.9818 38.344 47.1747C38.3035 47.3269 38.235 47.4702 38.1421 47.5973C38.1052 47.641 38.0606 47.6776 38.0106 47.7053C37.9619 47.7329 37.9069 47.7475 37.851 47.7475C37.784 47.7432 37.7191 47.7219 37.6625 47.6858C37.6059 47.6497 37.5593 47.5999 37.527 47.541C37.4242 47.3839 37.3481 47.211 37.3016 47.0292C37.19 46.6594 37.1207 46.2783 37.095 45.8929C37.0481 45.414 37.0246 44.8365 37.0246 44.1604V43.3528L36.6161 43.3246H36.4612H36.0762H35.6348H35.3249L34.6441 43.2777C34.4751 43.2777 34.3483 43.2777 34.2732 43.2777H34.0572C34.0572 43.719 34.0572 44.3717 34.0572 45.245C34.0572 45.7145 34.0572 46.1042 34.0572 46.4517V47.3344L33.9633 47.5175C33.9048 47.6277 33.8212 47.7226 33.7192 47.7945C33.6221 47.8599 33.5075 47.8943 33.3905 47.8931C33.3186 47.8912 33.2473 47.8786 33.1792 47.8555C33.1036 47.8272 33.0312 47.791 32.9632 47.7475C32.9182 47.7149 32.8758 47.6788 32.8364 47.6396C32.8052 47.609 32.7783 47.5742 32.7566 47.5363C32.6936 47.2115 32.6637 46.8811 32.6674 46.5503C32.6674 46.0197 32.6392 45.2872 32.6392 44.3576C32.6392 43.4279 32.6392 42.4795 32.6721 41.7141C32.705 40.9488 32.7238 40.2539 32.766 39.6811C32.8284 38.6366 32.9983 37.6013 33.2731 36.5916C33.5079 35.8216 33.8131 35.3427 34.2122 35.1502L34.1417 35.0563ZM43.7388 35.1455C43.8327 35.1455 43.9219 35.0985 44.0112 35.0844C44.0955 35.0779 44.1803 35.0779 44.2647 35.0844C44.6056 35.0852 44.9396 35.1804 45.2296 35.3594C45.5197 35.5384 45.7545 35.7943 45.908 36.0986C46.1982 36.6654 46.3994 37.2735 46.5043 37.9016C46.6985 38.9071 46.8349 39.923 46.9128 40.9441C46.9128 41.1178 46.941 41.4606 46.9504 41.9724C46.9598 42.4842 46.9504 43.1791 46.9504 44.0148C46.9504 45.0196 46.9504 45.6675 46.9175 45.9493V46.123C47.1187 46.119 47.319 46.1508 47.5091 46.2169C47.6737 46.2762 47.8196 46.3783 47.9317 46.5127C47.9949 46.5837 48.0485 46.6626 48.0913 46.7475C48.1375 46.8366 48.1722 46.9313 48.1946 47.0292C48.2207 47.1611 48.2395 47.2943 48.251 47.4283C48.251 47.5926 48.2791 47.7851 48.2932 48.0199C48.2932 48.0903 48.2932 48.1748 48.2932 48.2687C48.2932 48.3626 48.2932 48.4612 48.2932 48.5551C48.2965 48.6666 48.2807 48.7777 48.2463 48.8838C48.2184 48.9742 48.1665 49.0554 48.096 49.1186C48.0328 49.1706 47.9614 49.2118 47.8847 49.2406C47.8137 49.2719 47.7369 49.2879 47.6594 49.2876C47.5799 49.2867 47.5015 49.2691 47.4293 49.2359C47.3527 49.2035 47.2827 49.1573 47.2227 49.0998C47.1118 48.9944 47.0378 48.8561 47.0114 48.7054C46.9623 48.4784 46.934 48.2473 46.9269 48.0152C46.9269 47.8227 46.9269 47.6724 46.8987 47.5691C46.8706 47.4658 46.9222 47.4893 46.8987 47.4752H46.7344C46.6029 47.4752 46.4104 47.4752 46.1522 47.4752C45.7155 47.4752 45.246 47.4752 44.7436 47.4752C44.2412 47.4752 43.706 47.5175 43.1331 47.5503L41.4428 47.6396V47.8884C41.4176 48.1286 41.364 48.365 41.2832 48.5927C41.2197 48.7656 41.1242 48.9249 41.0015 49.0622C40.9574 49.1032 40.9103 49.1409 40.8606 49.1749C40.8147 49.2054 40.7608 49.2217 40.7057 49.2219C40.5601 49.2219 40.4334 49.1139 40.3301 48.8979C40.2117 48.6352 40.125 48.3594 40.0718 48.0762C40.0718 47.9729 40.0343 47.8743 40.0249 47.7851C40.0184 47.6992 40.0184 47.6128 40.0249 47.5269C40.0246 47.4301 40.0372 47.3338 40.0624 47.2405C40.0836 47.1553 40.122 47.0754 40.1751 47.0057C40.2326 46.9335 40.2988 46.8689 40.3723 46.8132C40.462 46.743 40.5561 46.6787 40.654 46.6207L40.8465 46.5033V44.7191C40.8465 43.5406 40.9076 42.5029 40.9733 41.6015C41.0272 40.8142 41.1244 40.0304 41.2644 39.2538C41.4001 38.5254 41.6142 37.8139 41.903 37.1316C42.1225 36.5907 42.441 36.0955 42.842 35.6713C43.0803 35.421 43.3749 35.2311 43.7013 35.1173L43.7388 35.1455ZM50.5516 35.0563L50.6784 35.014C50.7221 35.0092 50.7662 35.0092 50.8099 35.014C50.9283 35.0147 51.0446 35.0454 51.1479 35.1032C51.271 35.1646 51.3823 35.2473 51.4766 35.3474C51.5706 35.4521 51.6525 35.5671 51.7208 35.6901C51.8147 35.8451 51.9274 36.0517 52.0588 36.3052C52.1903 36.5587 52.2936 36.7747 52.425 36.9672C52.5565 37.1597 52.6927 37.3898 52.8335 37.5917C53.1481 38.0049 53.4298 38.3664 53.6834 38.6716C53.9369 38.9768 54.1529 39.2303 54.3313 39.4229L54.3642 39.4557V38.1035C54.3642 37.5682 54.3642 37.1644 54.3924 36.8311C54.3979 36.6159 54.4151 36.4011 54.444 36.1878C54.4919 35.9657 54.5693 35.7509 54.6741 35.5493C54.7045 35.4779 54.7538 35.4161 54.8167 35.3706C54.8795 35.3251 54.9536 35.2976 55.0309 35.291C55.1116 35.2965 55.1891 35.3244 55.2547 35.3717C55.3203 35.419 55.3713 35.4838 55.4018 35.5587C55.5063 35.7687 55.5775 35.9936 55.6131 36.2254C55.6367 36.3461 55.6492 36.4687 55.6507 36.5916C55.6507 36.7466 55.6507 36.9391 55.6507 37.1597C55.6507 37.4649 55.6507 37.7607 55.6507 38.0425C55.6507 38.3242 55.6507 38.5777 55.6037 38.8219C55.6037 38.958 55.6037 39.0848 55.6037 39.2022C55.6037 39.3196 55.6037 39.3055 55.6037 39.3571L55.6836 39.2632C55.7211 39.2116 55.7962 39.0801 55.9042 38.8782C56.0122 38.6763 56.1719 38.3758 56.3738 38.0096C56.5804 37.6152 56.7635 37.2771 56.9231 36.986C57.0827 36.6949 57.2189 36.4648 57.3222 36.2958C57.4255 36.1268 57.5429 35.9625 57.6462 35.8263C57.7434 35.7009 57.8518 35.5846 57.9701 35.4788C58.0706 35.3939 58.181 35.3214 58.2988 35.2629C58.3973 35.2111 58.5068 35.1837 58.6181 35.183C58.6799 35.1795 58.7417 35.1894 58.7992 35.2121C58.8568 35.2348 58.9087 35.2698 58.9515 35.3145C59.028 35.4172 59.0662 35.5434 59.0594 35.6713C59.0091 36.158 58.838 36.6244 58.5617 37.0283C58.1232 37.7342 57.6319 38.406 57.0921 39.0378C56.9137 39.2632 56.7572 39.4604 56.6226 39.6294C56.5052 39.7938 56.416 39.9252 56.3597 40.0238C56.3072 40.12 56.2632 40.2205 56.2282 40.3243C56.1984 40.4224 56.178 40.523 56.1672 40.6248V40.7516C56.171 40.8908 56.1964 41.0286 56.2423 41.1601C56.3073 41.3562 56.3858 41.5476 56.4771 41.7329C56.4771 41.7658 56.5428 41.8738 56.6273 42.0522C56.7118 42.2306 56.8527 42.5217 56.9841 42.8175C57.1156 43.1133 57.2659 43.4185 57.3692 43.6345C57.4725 43.8505 57.557 44.0101 57.6133 44.104C57.7589 44.3623 57.9044 44.6158 58.0828 44.86C58.2613 45.1041 58.3974 45.3295 58.5524 45.5689C58.6316 45.6768 58.7038 45.7897 58.7683 45.907C58.8482 46.0432 58.9327 46.2075 59.0266 46.3765C59.1122 46.5437 59.1829 46.7181 59.2379 46.8977C59.2839 47.05 59.3076 47.2081 59.3083 47.3672C59.3134 47.4402 59.3031 47.5135 59.278 47.5823C59.2529 47.651 59.2137 47.7138 59.1627 47.7663C59.1076 47.816 59.043 47.854 58.9728 47.8782C58.9026 47.9024 58.8283 47.9123 58.7543 47.9072C58.6349 47.9065 58.5175 47.8775 58.4115 47.8227C58.2972 47.7642 58.194 47.6864 58.1063 47.5926C57.9893 47.4595 57.884 47.3166 57.7917 47.1653C57.6697 46.9822 57.5382 46.7568 57.3926 46.4845C57.1954 46.1183 57.0076 45.7614 56.8386 45.4093C56.6696 45.0572 56.5099 44.705 56.3691 44.3623C56.1343 43.8129 55.9465 43.3857 55.8056 43.0852C55.7634 42.9866 55.7211 42.902 55.6883 42.8316C55.6883 43.0147 55.6883 43.273 55.6883 43.611C55.6883 43.9491 55.7164 44.5501 55.7399 45.198C55.7399 45.3483 55.7399 45.5126 55.7399 45.6957C55.7399 45.8788 55.7399 46.0948 55.7399 46.292C55.7429 46.56 55.7319 46.828 55.707 47.0949C55.6949 47.2708 55.6602 47.4444 55.6037 47.6114C55.5674 47.7208 55.5063 47.8204 55.4253 47.9025C55.3536 47.976 55.2557 48.0182 55.153 48.0199C55.1048 48.0187 55.0571 48.0091 55.0121 47.9917C54.9557 47.9743 54.9007 47.9523 54.8478 47.926C54.7362 47.8697 54.6396 47.7876 54.5661 47.6865C54.4895 47.5853 54.4365 47.4681 54.4111 47.3438C54.3583 47.0998 54.3284 46.8514 54.3219 46.6019C54.3219 46.2685 54.2938 45.8413 54.2938 45.3295C54.2938 45.0055 54.2938 44.6346 54.2938 44.2214C54.2938 43.8082 54.2938 43.3857 54.3266 42.9255C54.3266 42.8926 54.3266 42.8504 54.3266 42.7987C54.3266 42.7471 54.3266 42.7048 54.3266 42.6626C54.3266 42.6203 54.3266 42.5687 54.3266 42.5452C54.3286 42.5265 54.3286 42.5076 54.3266 42.4889V42.4795C54.1943 42.6253 54.0749 42.7824 53.9698 42.949C53.7256 43.3011 53.397 43.8129 52.9791 44.4984C52.6035 45.1026 52.2905 45.6049 52.04 46.0056C51.8053 46.4 51.6503 46.6817 51.5705 46.8461C51.4064 47.1725 51.1996 47.4757 50.9554 47.7475C50.8791 47.8403 50.7849 47.9168 50.6784 47.9724C50.572 48.0281 50.4554 48.0618 50.3357 48.0715C50.2763 48.0671 50.2178 48.0545 50.1619 48.034C50.0542 47.9888 49.9671 47.9051 49.9178 47.7992C49.8614 47.6822 49.834 47.5534 49.838 47.4236C49.838 47.109 50.1103 46.4845 50.6549 45.5689C51.1996 44.6534 51.9884 43.4514 53.0542 41.9442L53.8055 40.8878L53.5284 40.6014C53.1246 40.1882 52.7396 39.7515 52.364 39.2867C51.9884 38.8219 51.6362 38.3476 51.2935 37.8218C51.0095 37.396 50.7508 36.9539 50.5188 36.4977C50.371 36.2316 50.2814 35.9371 50.2558 35.6338C50.2471 35.5794 50.2471 35.5239 50.2558 35.4694C50.2725 35.4127 50.2945 35.3577 50.3216 35.3051C50.3496 35.2546 50.381 35.206 50.4155 35.1596C50.4455 35.1207 50.482 35.0873 50.5235 35.061L50.5516 35.0563ZM62.3602 35.0563C62.4196 35.026 62.4827 35.0039 62.548 34.9905C62.6244 34.9806 62.7017 34.9806 62.7781 34.9905C62.9751 34.9941 63.1696 35.0355 63.3509 35.1126C63.5671 35.2054 63.7706 35.3253 63.9566 35.4694C64.1435 35.6142 64.3207 35.7711 64.4872 35.939C64.6257 36.0819 64.7485 36.2393 64.8534 36.4085C65.0836 36.7645 65.2756 37.1438 65.4262 37.5401C65.625 38.055 65.7912 38.5819 65.9239 39.1177C66.0835 39.7234 66.2197 40.3666 66.3371 41.0427C66.4545 41.7188 66.5531 42.4513 66.6329 43.2072C66.6658 43.5077 66.6892 43.8505 66.708 44.2261C66.7268 44.6017 66.7315 45.0196 66.7315 45.4657C66.7315 45.7255 66.7315 45.9508 66.7315 46.1418C66.7315 46.3343 66.7315 46.4892 66.6986 46.6113C66.6732 46.8271 66.6308 47.0407 66.5719 47.2498C66.5348 47.4024 66.4678 47.546 66.3747 47.6724C66.3407 47.7171 66.2974 47.754 66.2479 47.7804C66.1992 47.8081 66.1442 47.8226 66.0882 47.8227C66.0207 47.8178 65.9555 47.7964 65.8981 47.7604C65.8408 47.7244 65.7932 47.6748 65.7596 47.6161C65.6605 47.4577 65.5861 47.2851 65.5389 47.1043C65.4277 46.7343 65.3568 46.3533 65.3276 45.968C65.2854 45.4985 65.2619 44.9116 65.2619 44.2355V43.3528L64.8534 43.3246H64.6984H64.3087H63.8721H63.5622L62.8814 43.2777C62.7077 43.2777 62.5856 43.2777 62.5105 43.2777H62.2569C62.2569 43.4655 62.2569 43.719 62.2569 44.0336C62.2569 44.3482 62.2569 44.7848 62.2569 45.245C62.2569 45.7051 62.2569 46.1042 62.2569 46.447C62.2569 46.7897 62.2569 47.048 62.2569 47.3109L62.1677 47.494C62.1125 47.605 62.0301 47.7003 61.9282 47.771C61.8295 47.8365 61.7134 47.8709 61.5949 47.8696C61.5245 47.8674 61.4549 47.8547 61.3883 47.8321C61.3123 47.8047 61.2398 47.7684 61.1723 47.7241C61.1273 47.6914 61.0849 47.6553 61.0455 47.6161C61.0143 47.5855 60.9874 47.5508 60.9657 47.5128C60.9027 47.188 60.8728 46.8576 60.8765 46.5268C60.8765 45.9962 60.8483 45.2638 60.8483 44.3341C60.8483 43.4044 60.8483 42.456 60.8812 41.6907C60.9141 40.9253 60.9329 40.2304 60.9751 39.6576C61.0375 38.6131 61.2074 37.5778 61.4822 36.5681C61.717 35.7981 62.0222 35.3192 62.4212 35.1267L62.3602 35.0563ZM69.99 42.9161C69.99 43.1039 69.99 43.3293 69.99 43.6063C69.99 43.8833 69.9571 44.1885 69.929 44.5454C69.9008 44.9022 69.882 45.2074 69.8726 45.4844C69.8632 45.7615 69.8491 45.9821 69.8491 46.1746C69.848 46.4885 69.8292 46.802 69.7928 47.1137C69.7782 47.3032 69.7272 47.4881 69.6426 47.6583C69.5835 47.7686 69.4959 47.861 69.389 47.926C69.2842 47.9843 69.1662 48.015 69.0463 48.015C68.9263 48.015 68.8083 47.9843 68.7035 47.926C68.6011 47.8692 68.5153 47.7867 68.4547 47.6865C68.3549 47.5051 68.2926 47.3055 68.2715 47.0996C68.2285 46.7979 68.2081 46.4934 68.2105 46.1887C68.2105 45.9211 68.2105 45.5924 68.2575 45.198C68.3044 44.8036 68.3326 44.3529 68.3889 43.8317C68.4171 43.5969 68.4359 43.165 68.45 42.5311C68.464 41.8973 68.45 41.0662 68.45 40.0098C68.45 37.8969 68.4343 36.7372 68.403 36.5306C68.3795 36.3709 68.3654 36.2348 68.3561 36.1315C68.3511 36.0517 68.3511 35.9718 68.3561 35.892C68.3478 35.7022 68.4005 35.5146 68.5063 35.3568C68.6139 35.2114 68.7739 35.1137 68.9523 35.0844C68.974 35.0796 68.9964 35.0796 69.0181 35.0844H69.1026C69.284 35.0819 69.4598 35.1472 69.5956 35.2676C69.7506 35.4051 69.8685 35.5795 69.9384 35.7746C70.0068 35.9907 70.0463 36.2149 70.0557 36.4414C70.0792 36.7419 70.0933 37.1316 70.0933 37.6105C70.0933 37.6387 70.0933 37.6997 70.0933 37.7936C70.0933 37.8875 70.0933 37.972 70.0933 38.0847C70.0933 38.1974 70.0933 38.3054 70.0933 38.3946C70.0933 38.4838 70.0933 38.5495 70.0933 38.6387C70.0933 38.9299 70.0933 39.2444 70.0933 39.5778C70.0933 39.7374 70.0933 39.883 70.0933 40.0051C70.0933 40.1271 70.0933 40.2257 70.0933 40.329V40.6014H70.1966H70.5347L71.3094 40.5403L71.6099 40.5075L71.9338 40.4793L72.2343 40.4511H72.4503H72.5865H72.624V38.6294V37.5448C72.624 37.0752 72.624 36.6996 72.6663 36.4085C72.6738 36.1974 72.7183 35.9892 72.7978 35.7934C72.8551 35.6782 72.9428 35.5809 73.0513 35.5117C73.1571 35.4469 73.2794 35.4142 73.4035 35.4178C73.4445 35.4219 73.4852 35.4282 73.5255 35.4366C73.5994 35.4577 73.6716 35.4844 73.7415 35.5164C73.8789 35.5789 73.9889 35.689 74.0514 35.8263L74.1406 36.0094L74.0937 37.2677C74.0937 37.4321 74.0937 37.5964 74.0937 37.7701C74.0937 37.9439 74.0937 38.1129 74.0937 38.3242C74.0937 38.5355 74.0937 38.6763 74.0937 38.7937C74.0937 38.9111 74.0937 39.066 74.1171 39.1787C74.1171 39.3712 74.1453 39.822 74.1547 40.5403C74.1641 41.2587 74.1547 42.24 74.1547 43.4373V44.8271C74.1547 45.4093 74.1547 45.8882 74.1547 46.2732C74.1547 46.6582 74.1547 46.8742 74.1547 46.9869C74.1479 47.0936 74.129 47.1991 74.0984 47.3015C74.0689 47.3876 74.0208 47.4661 73.9575 47.5316C73.8769 47.6132 73.779 47.6757 73.6711 47.7147C73.553 47.7538 73.4292 47.7728 73.3048 47.771C73.2232 47.7711 73.1421 47.7568 73.0654 47.7288C72.9864 47.6948 72.9122 47.6506 72.8447 47.5973C72.7784 47.5426 72.7214 47.4776 72.6757 47.4048C72.6338 47.3322 72.6051 47.2527 72.5912 47.17V46.7521L72.6381 41.9536L72.2343 41.9818C71.9996 41.9818 71.7085 42.0381 71.3516 42.0851C70.9948 42.132 70.7037 42.1649 70.4736 42.1884C70.2435 42.2118 70.098 42.2212 70.0041 42.2212C70.0041 42.2212 70.051 42.2588 70.0463 42.3339C70.0416 42.409 70.0463 42.6673 70.0463 42.9349L69.99 42.9161ZM76.9155 36.0939C77.1694 35.7846 77.4906 35.5373 77.8546 35.3708C78.241 35.2031 78.6588 35.1199 79.08 35.1267C79.2276 35.1266 79.375 35.136 79.5214 35.1549C79.6642 35.1746 79.8054 35.2044 79.9439 35.2441C80.3296 35.373 80.6834 35.5827 80.9816 35.8592C81.3075 36.1683 81.5789 36.5302 81.7845 36.9297C82.0243 37.3926 82.2072 37.8829 82.3291 38.3899C82.4671 38.979 82.5519 39.5792 82.5827 40.1835V40.4558C82.5815 41.0382 82.5439 41.62 82.47 42.1978C82.3916 42.8124 82.2788 43.4222 82.1319 44.0242C82.1038 44.1604 82.0803 44.2543 82.0709 44.3059C82.0733 44.3325 82.0733 44.3592 82.0709 44.3857C82.0258 44.6507 81.9534 44.9103 81.8549 45.1605C81.7399 45.4663 81.605 45.7643 81.4511 46.0526C81.1827 46.6054 80.8021 47.0963 80.3336 47.494C79.9574 47.801 79.4858 47.9671 79.0002 47.9635C78.6619 47.967 78.3275 47.8914 78.0236 47.7428C77.6234 47.5331 77.2728 47.2401 76.9953 46.8836C76.6753 46.4684 76.4218 46.0058 76.2441 45.5126C76.0292 44.9509 75.8718 44.3688 75.7746 43.7754C75.6685 43.1203 75.6167 42.4576 75.6196 41.794C75.6104 40.8342 75.6747 39.8751 75.8121 38.9252C75.902 38.2366 76.0951 37.5654 76.3849 36.9344C76.4168 36.879 76.4435 36.8209 76.4648 36.7606C76.4746 36.7395 76.4824 36.7175 76.4882 36.6949C76.5049 36.6045 76.5455 36.5203 76.6056 36.4508C76.676 36.3522 76.7747 36.2207 76.9108 36.0517L76.9155 36.0939ZM84.5829 35.5774C84.7488 35.4016 84.96 35.2748 85.1932 35.2112C85.4896 35.1282 85.7964 35.0887 86.1041 35.0938C86.3177 35.0936 86.531 35.1077 86.7427 35.1361C86.9454 35.1641 87.1461 35.2049 87.3437 35.2582C87.521 35.3075 87.6938 35.3719 87.8601 35.4507C87.9945 35.5163 88.1193 35.6001 88.2311 35.6995C88.5815 36.0131 88.8519 36.4059 89.0199 36.8452C89.1977 37.3631 89.2835 37.9081 89.2734 38.4556C89.2734 38.5401 89.2734 38.62 89.2734 38.6951C89.2769 38.7529 89.2769 38.811 89.2734 38.8688C89.2612 39.0674 89.2361 39.2651 89.1983 39.4604C89.1693 39.6073 89.1203 39.7494 89.0527 39.883C88.9867 40.0058 88.9029 40.1182 88.8039 40.2164C88.6838 40.3371 88.5535 40.4471 88.4142 40.545H88.3813C88.3007 40.5952 88.2293 40.6587 88.17 40.7328C88.17 40.7328 88.17 40.7328 88.2029 40.761L88.4517 40.8549C88.5269 40.8549 88.5973 40.9019 88.663 40.9159C88.8561 40.9686 89.0409 41.0476 89.2124 41.1507C89.3925 41.2647 89.5581 41.4003 89.7054 41.5545C89.9183 41.7772 90.1101 42.0193 90.2782 42.2776C90.4486 42.5392 90.5947 42.8158 90.7149 43.1039C90.834 43.3842 90.9268 43.675 90.9919 43.9726C91.053 44.2565 91.0845 44.546 91.0858 44.8365C91.0907 45.1575 91.0333 45.4764 90.9168 45.7755C90.8036 46.0581 90.6306 46.3128 90.4097 46.5221C90.1218 46.7979 89.7861 47.0191 89.419 47.1747C88.9544 47.3763 88.4717 47.5335 87.9775 47.6442C87.4376 47.7851 86.9446 47.8884 86.4938 47.9588C86.0884 48.0421 85.6771 48.094 85.2637 48.1138C85.0167 48.121 84.77 48.0925 84.5312 48.0293C84.4472 48.0102 84.3681 47.9741 84.2986 47.9232C84.2292 47.8724 84.1709 47.8078 84.1274 47.7335C84.1029 47.6849 84.087 47.6325 84.0805 47.5785C84.0751 47.5129 84.0751 47.4469 84.0805 47.3813V47.278C84.0805 47.2217 84.0805 47.1512 84.0805 47.0667C84.0805 46.9822 84.0805 46.893 84.0805 46.8132V46.5784C84.0805 46.4704 84.0805 46.2122 84.118 45.8037C84.1556 45.3952 84.1556 44.8318 84.1885 44.1181C84.2213 43.4044 84.2401 42.7377 84.2542 42.1273C84.2683 41.5169 84.2542 40.9629 84.2542 40.4417C84.2542 39.6576 84.2542 39.0332 84.2542 38.5636C84.2542 38.0941 84.2542 37.7513 84.2166 37.5494C84.2166 37.4837 84.2166 37.3992 84.2166 37.3006C84.2166 37.202 84.2166 37.0893 84.2166 36.9813C84.2119 36.7019 84.2403 36.423 84.3011 36.1503C84.348 35.9419 84.4428 35.7473 84.5782 35.5821L84.5829 35.5774ZM94.0954 35.0563C94.1548 35.026 94.218 35.0039 94.2833 34.9905C94.3596 34.9806 94.437 34.9806 94.5133 34.9905C94.7103 34.9941 94.9048 35.0355 95.0861 35.1126C95.3023 35.2054 95.5059 35.3253 95.6918 35.4694C95.8787 35.6142 96.056 35.7711 96.2224 35.939C96.3609 36.0819 96.4837 36.2393 96.5886 36.4085C96.8188 36.7645 97.0109 37.1438 97.1614 37.5401C97.3602 38.055 97.5264 38.5819 97.6591 39.1177C97.8188 39.7234 97.9549 40.3666 98.0723 41.0427C98.1897 41.7188 98.2883 42.4513 98.3681 43.2072C98.401 43.5077 98.4245 43.8505 98.4433 44.2261C98.462 44.6017 98.4667 45.0196 98.4667 45.4657C98.4667 45.7255 98.4667 45.9508 98.4667 46.1418C98.4667 46.3343 98.4667 46.4892 98.4339 46.6113C98.4071 46.8273 98.3632 47.0408 98.3024 47.2498C98.2653 47.4024 98.1983 47.546 98.1052 47.6724C98.0712 47.7171 98.028 47.754 97.9784 47.7804C97.9298 47.8081 97.8748 47.8226 97.8188 47.8227C97.7513 47.8178 97.686 47.7964 97.6287 47.7604C97.5714 47.7244 97.5238 47.6748 97.4901 47.6161C97.391 47.4577 97.3166 47.2851 97.2694 47.1043C97.1582 46.7343 97.0874 46.3533 97.0582 45.968C97.0159 45.4985 96.9924 44.9116 96.9924 44.2355V43.3528L96.5839 43.3246H96.429H96.0393H95.6026H95.2927L94.6119 43.2777C94.4382 43.2777 94.3161 43.2777 94.241 43.2777H94.025C94.025 43.4655 94.025 43.719 94.025 44.0336C94.025 44.3482 94.025 44.7848 94.025 45.245C94.025 45.7051 94.025 46.1042 94.025 46.4517C94.025 46.7991 94.025 47.048 94.025 47.3109L93.9358 47.494C93.8773 47.6043 93.7937 47.6992 93.6917 47.771C93.5929 47.8365 93.4768 47.8709 93.3583 47.8696C93.288 47.8674 93.2183 47.8547 93.1517 47.8321C93.0757 47.8047 93.0032 47.7684 92.9357 47.7241C92.8907 47.6914 92.8483 47.6553 92.8089 47.6161C92.7777 47.5855 92.7508 47.5508 92.7291 47.5128C92.6661 47.188 92.6362 46.8576 92.6399 46.5268C92.6399 45.9962 92.6117 45.2638 92.6117 44.3341C92.6117 43.4044 92.6117 42.456 92.6446 41.6907C92.6775 40.9253 92.6963 40.2304 92.7385 39.6576C92.8009 38.6131 92.9708 37.5778 93.2456 36.5681C93.4146 35.7277 93.7151 35.2488 94.0954 35.0563Z" fill="white"/>
</g>
<defs>
<clipPath id="clip0_431_50916">
<rect width="91.1913" height="44.8162" fill="white" transform="translate(8.26147 4.44794)"/>
</clipPath>
</defs>
</svg>
