<svg width="184" height="99" viewBox="0 0 184 99" fill="none" xmlns="http://www.w3.org/2000/svg">
<path fill-rule="evenodd" clip-rule="evenodd" d="M1.37542 51.584C1.32412 51.4101 1.28531 51.2063 1.26039 50.9645C1.19593 50.3203 1.24525 49.6514 1.2945 48.9835C1.33493 48.4352 1.3753 47.8876 1.35262 47.3551C1.32149 46.6736 1.16576 46.0081 1.0103 45.3437C0.830774 44.5764 0.651603 43.8107 0.665083 43.0238C0.676035 42.2148 0.869381 41.3008 1.05593 40.419C1.15501 39.9506 1.25218 39.4913 1.31908 39.0616C1.36308 38.7832 1.49742 38.4726 1.63517 38.1542C1.89111 37.5625 2.15883 36.9436 1.88084 36.453C1.64279 36.0265 1.25312 35.7974 0.890065 35.584C0.268489 35.2186 -0.275104 34.899 0.153626 33.7131C0.547517 32.6212 2.02211 31.8915 3.41093 31.2043C5.39231 30.2238 7.19912 29.3297 5.44427 27.5935C5.18493 27.3375 4.8853 27.1147 4.59006 26.8951C3.81626 26.3196 3.07264 25.7665 3.16367 24.6977C3.19955 24.2414 3.34535 23.8241 3.49295 23.4015C3.6558 22.9354 3.82084 22.4629 3.84283 21.9251C3.86172 21.4878 3.83925 21.0367 3.81668 20.5834C3.77912 19.8291 3.74126 19.0689 3.89314 18.3566C3.95793 18.0487 4.07381 17.8119 4.1873 17.58C4.38224 17.1816 4.57014 16.7977 4.48005 16.0926C4.41299 15.5792 4.29395 15.124 4.17446 14.667C4.04001 14.1528 3.90498 13.6365 3.84283 13.0327C3.7506 12.114 3.54099 11.1214 3.21399 10.2683C3.13741 10.0701 3.05979 9.87401 2.98219 9.67793C2.67745 8.908 2.37296 8.13866 2.13238 7.24946C1.83892 6.17484 1.66284 5.69905 1.01723 4.87873C0.842111 4.65288 1.50393 4.60078 2.23234 4.54344C2.94059 4.48769 3.71178 4.42698 3.8378 4.19678C7.61111 4.47088 11.0947 5.27529 14.8601 6.5686C17.4426 7.45455 19.4045 7.0772 21.9534 6.55219C22.7647 6.38303 23.5783 6.24713 24.3889 6.11174C26.6443 5.73501 28.8759 5.36225 30.9668 4.2881C31.2886 4.12328 31.5197 3.98459 31.7136 3.86824C32.2725 3.53289 32.522 3.38313 33.7421 3.32832C36.0478 3.22168 38.5297 3.14785 40.827 3.30371C41.6556 3.36221 42.458 3.54414 43.2597 3.72593C44.0321 3.90105 44.8039 4.07604 45.5978 4.14044C46.3738 4.2037 47.1196 4.23653 47.8555 4.26892C49.3141 4.33313 50.7338 4.39562 52.2719 4.69006C54.8579 5.18104 57.7473 5.06599 60.5362 4.95494C61.708 4.90828 62.862 4.86232 63.9684 4.86232C68.6553 4.86232 72.9314 4.74748 77.5429 4.09942C79.5888 3.81231 81.207 3.18066 83.1271 2.41776C86.6318 1.03962 90.3294 0.358747 94.1108 0.284918C96.6424 0.233102 99.1772 0.259837 101.711 0.286564C103.189 0.302149 104.666 0.317731 106.143 0.317731C107.15 0.317731 108.161 0.296943 109.172 0.276145C110.93 0.239993 112.689 0.203811 114.435 0.276715C117.082 0.390297 119.725 0.711824 122.367 1.03322C125.45 1.40818 128.531 1.78295 131.615 1.82713C133.444 1.85491 135.157 2.31184 136.854 2.76439C137.662 2.9799 138.467 3.19442 139.278 3.36113C142.811 4.08315 146.433 4.09113 150.073 4.09915L150.195 4.09942C151.314 4.09942 152.435 4.10635 153.556 4.11327C155.423 4.1248 157.29 4.13633 159.15 4.11583C160.385 4.10194 161.526 3.89736 162.671 3.69224C163.554 3.53387 164.439 3.37519 165.371 3.30371C166.706 3.20119 168.087 3.24773 169.459 3.29393C170.173 3.31797 170.884 3.34192 171.584 3.34473C171.584 3.28009 171.706 3.19557 171.83 3.10977C171.957 3.02132 172.087 2.93152 172.087 2.86073C172.087 2.97652 172.086 3.09003 172.085 3.20183C172.079 3.79501 172.074 4.33995 172.23 4.91975C172.573 6.20765 172.724 7.57759 172.716 9.12801C172.713 9.64916 172.685 10.1908 172.656 10.7385C172.598 11.8546 172.539 12.9962 172.691 14.0417C172.755 14.4812 172.884 14.885 173.014 15.289C173.155 15.7297 173.296 16.1707 173.353 16.6586L173.354 16.6665C173.472 17.6788 173.721 19.8192 173.261 20.7438C172.931 21.4007 172.014 21.9846 171.182 22.5148C170.767 22.7792 170.373 23.0302 170.083 23.2704C169.89 23.4327 169.704 23.5864 169.527 23.7333C167.469 25.4355 166.511 26.2279 167.87 28.9388C168.22 29.6355 168.537 30.3449 168.853 31.0525C169.481 32.4613 170.107 33.8627 170.989 35.1405C171.134 35.3544 171.324 35.4636 171.508 35.5694C171.726 35.6948 171.935 35.8154 172.053 36.1002C172.202 36.4508 172.159 36.8948 172.119 37.3044C172.105 37.4508 172.091 37.5927 172.087 37.7245C172.083 37.9395 172.074 38.1552 172.065 38.371C172.025 39.3816 171.985 40.3913 172.372 41.3175C172.607 41.8791 172.854 42.3354 173.082 42.757C173.621 43.7517 174.056 44.5535 173.974 46.0918C173.971 46.1399 173.967 46.1874 173.963 46.2343C175.767 45.8734 177.576 45.6262 179.453 45.4969C179.586 45.7271 180.399 45.7879 181.146 45.8436C181.914 45.901 182.612 45.9531 182.428 46.1789C181.747 46.9992 181.561 47.475 181.251 48.5496C180.998 49.4389 180.676 50.2082 180.355 50.9782C180.273 51.1742 180.191 51.3703 180.111 51.5684C179.766 52.4216 179.545 53.4142 179.447 54.3329C179.382 54.9367 179.239 55.453 179.098 55.9672C178.972 56.4241 178.846 56.8794 178.775 57.3927C178.68 58.0978 178.878 58.4818 179.084 58.8802C179.204 59.1121 179.326 59.3489 179.394 59.6568C179.555 60.3691 179.515 61.1293 179.475 61.8836C179.451 62.3369 179.427 62.788 179.447 63.2252C179.471 63.7631 179.645 64.2355 179.816 64.7017C179.972 65.1242 180.126 65.5416 180.164 65.9979C180.26 67.0667 179.475 67.6198 178.659 68.1953C178.348 68.4148 178.032 68.6377 177.758 68.8937C175.908 70.6299 177.813 71.5239 179.903 72.5044C181.368 73.1917 182.923 73.9214 183.338 75.0133C183.791 76.1992 183.217 76.5187 182.562 76.8841C182.179 77.0976 181.768 77.3267 181.517 77.7532C181.224 78.2438 181.506 78.8627 181.776 79.4544C181.921 79.7728 182.063 80.0834 182.109 80.3618C182.18 80.7915 182.282 81.2508 182.387 81.7191C182.583 82.601 182.787 83.5149 182.799 84.3239C182.813 85.1109 182.624 85.8766 182.435 86.6438C182.271 87.3082 182.107 87.9738 182.074 88.6553C182.05 89.1878 182.092 89.7354 182.135 90.2837C182.187 90.9516 182.239 91.6205 182.171 92.2647C182.038 93.4902 181.528 93.7396 180.833 94.08C180.42 94.282 179.942 94.5159 179.439 95.0046H182.578C177.334 95.0046 172.806 95.8659 167.827 97.4819C165.104 98.3679 163.034 97.9987 160.346 97.4655C159.491 97.2964 158.632 97.1605 157.778 97.0251C155.399 96.6483 153.045 96.2756 150.84 95.2014C150.494 95.0345 150.247 94.8943 150.04 94.7771C149.455 94.4449 149.194 94.2962 147.913 94.2417C145.472 94.135 142.863 94.053 140.44 94.217C139.566 94.2755 138.72 94.4575 137.874 94.6393C137.06 94.8144 136.246 94.9894 135.408 95.0538C134.565 95.1218 133.754 95.1556 132.954 95.1889C131.439 95.252 129.961 95.3135 128.369 95.6034C125.65 96.0998 122.602 95.9829 119.66 95.87C118.421 95.8225 117.202 95.7757 116.033 95.7757C111.09 95.7757 106.58 95.6608 101.716 95.0128C99.5781 94.7295 97.8966 94.1027 95.9069 93.3611L95.8264 93.3311C92.1299 91.953 88.2389 91.2721 84.2418 91.1982C81.5775 91.1464 78.9026 91.1732 76.2283 91.1999C74.6686 91.2155 73.109 91.2311 71.5519 91.2311C70.4987 91.2311 69.4398 91.2094 68.3792 91.1878C66.5187 91.1498 64.6534 91.1117 62.806 91.1901C60.0052 91.304 57.2081 91.6255 54.4123 91.9469C51.1701 92.3195 47.9295 92.692 44.6863 92.7405C42.7574 92.7682 40.9502 93.2252 39.1603 93.6777C38.3079 93.8932 37.4595 94.1077 36.6037 94.2745C32.8365 95.0128 28.972 95.0128 25.0899 95.0128C23.9093 95.0128 22.7287 95.0197 21.5481 95.0266C19.5805 95.0381 17.6129 95.0497 15.6454 95.0292C14.3429 95.0153 13.139 94.8107 11.932 94.6056C11 94.4472 10.0662 94.2885 9.08372 94.217C7.70757 94.1168 6.28389 94.1625 4.8691 94.2078C4.08375 94.233 3.30115 94.2581 2.53093 94.2581L2.53978 94.2417C2.62726 94.2254 2.26258 93.7296 1.8941 93.2285C1.5176 92.7166 1.13714 92.1992 1.23099 92.1826C1.63133 91.0352 1.19161 90.2387 0.731363 89.405C0.398626 88.8023 0.0551586 88.1802 0.0106313 87.392C-0.0763198 85.8537 0.38198 85.0518 0.950506 84.0571C1.19147 83.6355 1.45223 83.1793 1.69968 82.6177C2.10779 81.6915 2.06546 80.6818 2.0231 79.6711C2.01405 79.4554 2.00501 79.2397 2.00034 79.0247C1.99569 78.8929 1.98123 78.751 1.96632 78.6046C1.92459 78.195 1.87936 77.7509 2.03572 77.4004C2.16045 77.1156 2.38147 76.995 2.61125 76.8695C2.80504 76.7637 3.00506 76.6546 3.1588 76.4406C4.08888 75.1629 4.74858 73.7615 5.41179 72.3527C5.7449 71.6451 6.07888 70.9356 6.44846 70.239C7.88118 67.528 6.87099 66.7357 4.70093 65.0335C4.51361 64.8866 4.31764 64.7329 4.11386 64.5706C3.80791 64.3304 3.39236 64.0794 2.95477 63.815C2.07696 63.2847 1.11048 62.7009 0.7623 62.044C0.277198 61.1194 0.539839 58.979 0.664052 57.9667L0.665026 57.9587C0.725002 57.4709 0.874035 57.0299 1.02297 56.5892C1.15951 56.1851 1.29596 55.7814 1.36364 55.3419C1.44412 54.8165 1.46833 54.2669 1.46473 53.7085C1.26908 53.7058 1.07243 53.7044 0.874697 53.7044H1.4647C1.46101 53.1528 1.43025 52.5926 1.39983 52.0386C1.39148 51.8865 1.38316 51.7349 1.37542 51.584ZM179.453 45.4969C180.471 45.4268 181.509 45.3914 182.578 45.3914H179.439C179.429 45.4301 179.434 45.4651 179.453 45.4969ZM3.8378 4.19678C3.85521 4.16497 3.8603 4.12993 3.85121 4.09122H0.874697C1.88775 4.09122 2.87226 4.12664 3.8378 4.19678Z" fill="#6572B5"/>
<g clip-path="url(#clip0_416_28236)">
<path fill-rule="evenodd" clip-rule="evenodd" d="M158.985 42.5283L159.169 42.6966C160.534 40.9881 161.473 38.9789 161.908 36.8354C162.183 35.1214 162.145 29.9488 160.875 29.2984C160.584 30.0636 159.995 31.2266 159.773 32.0683C159.306 33.8512 159.566 36.2232 159.222 37.2945C157.646 39.8961 158.09 40.1792 158.954 42.5283H158.985ZM117.023 41.656V41.2275C116.979 40.9686 116.917 40.7129 116.839 40.4623C116.632 39.8655 116.762 40.2863 116.495 39.8349C115.921 38.8707 116.211 36.1085 116.204 34.9836C116.271 33.7947 116.243 32.6023 116.12 31.4179C115.967 30.4232 115.492 29.2831 115.53 28.3572L115.4 28.3036C114.406 29.0688 113.962 33.9966 113.992 35.68C113.996 36.9329 114.309 38.1657 114.903 39.2686C115.308 40.2363 116.02 41.0433 116.931 41.5642C116.931 41.5642 117 41.6177 117.03 41.6407L117.023 41.656ZM128.63 53.6846C129.663 53.9141 129.709 53.9065 130.26 54.5569C130.933 55.3221 131.186 54.8247 131.729 55.5593C133.022 55.4062 134.216 55.1996 133.26 53.5086C132.625 53.1796 131.186 53.0418 130.88 52.2537C130.412 52.3587 129.987 52.6043 129.663 52.9577C129.281 53.2867 129.021 53.3938 128.661 53.7228L128.63 53.6846ZM140.766 53.8453C141.011 54.5492 140.843 54.2967 141.478 54.6104C142.229 54.4324 143.003 54.3679 143.773 54.4192C144.6 54.4957 145.097 55.016 145.655 54.687C144.73 53.7458 144.89 52.7817 143.36 52.3914C142.893 52.7893 142.878 53.0036 142.212 53.3173C141.784 53.5239 141.195 53.5928 140.774 53.8223L140.766 53.8453ZM147.232 30.7293C145.885 31.7393 143.972 30.5839 141.99 32.0836C141.577 32.405 141.164 32.9253 140.399 32.5274C139.435 32.0301 139.94 29.2601 143.398 28.8469L144.416 28.6786C146.505 28.296 150.537 28.4796 152.068 29.4438C153.185 30.1324 152.596 31.9306 150.912 31.1807C150.254 30.8823 147.989 30.1171 147.209 30.7063L147.232 30.7293ZM122.448 30.4385C122.111 29.13 123.603 29.1147 124.567 28.6097C127.031 27.3166 132.479 27.9364 133.688 30.339C134.308 31.5557 132.992 32.2214 132.02 31.6322C130.49 30.6757 128.814 30.8287 126.932 30.867C126.383 30.843 125.837 30.7687 125.302 30.6451C125.103 30.6451 124.276 31.0583 123.81 31.1195C123.152 31.2037 122.593 31.0277 122.448 30.4461V30.4385ZM120.917 20.9809C121.049 20.4179 121.311 19.8936 121.682 19.4505L125.371 15.7853C125.86 15.2727 125.646 15.4563 126.312 15.1043C127.199 14.6376 128.232 13.0996 130.367 12.5946C134.813 11.5463 134.469 11.8294 138.386 11.8294C139.151 11.8294 139.917 11.7223 140.682 11.7146L146.122 12.7399C147.737 13.245 150.905 14.6146 151.961 15.8542C152.137 16.0608 152.259 16.3133 152.473 16.5811C153.238 17.4993 153.391 17.2162 153.828 18.517C154.095 19.2822 154.776 20.4376 155.144 21.5777C156.613 26.1688 155.687 25.9163 155.565 29.2295C155.496 31.0659 156.246 36.7282 155.955 37.6465C155.694 38.8923 155.502 40.1517 155.381 41.4188C154.075 41.4433 152.823 41.944 151.861 42.8267C150.415 43.898 150.514 44.9463 150.017 45.7344C149.726 46.1935 149.252 46.5608 148.869 47.0428C147.867 48.3896 147.5 52.1236 148.334 52.8046V53.0342C148.117 53.4674 147.769 53.8209 147.339 54.0442L147.201 52.7052C146.956 51.0371 145.763 48.4584 144.554 47.5326C144.24 47.2954 144.102 47.2112 143.788 46.9434C143.551 46.7888 143.33 46.6093 143.13 46.4077C143.322 45.9104 143.444 46.0711 143.551 45.5048C143.781 44.3341 143.253 43.5613 142.717 42.666C141.546 40.7225 140.651 37.4705 139.924 35.0143C139.534 33.7134 138.953 32.4968 137.828 32.0607C137.061 31.8102 136.241 31.7731 135.456 31.9535C134.805 32.1525 134.606 32.7187 134.469 33.5222C134.201 35.0525 134.69 36.866 134.27 38.3198C133.78 39.9956 132.165 41.9009 132.165 43.9439C132.165 45.1911 132.609 45.0151 132.931 45.7267C130.719 46.8362 127.108 49.4991 126.472 52.0012C126.13 51.4974 125.752 51.0192 125.34 50.5703V50.3102C125.557 49.3135 125.421 48.2725 124.957 47.3642C124.56 46.599 124.322 45.6579 123.94 44.9539C123.175 43.5766 120.971 43.6302 119.395 42.5589C119.401 42.3702 119.362 42.1827 119.281 42.0123C119.199 41.8418 119.078 41.6934 118.928 41.5795C118.691 40.3858 119.402 36.9119 119.372 35.4121C119.337 34.8621 119.239 34.3178 119.081 33.79C118.943 32.8411 119.395 31.3337 119.494 30.3314C119.532 29.9105 119.77 26.8039 119.762 26.7427C120.489 25.8474 120.672 22.0981 120.902 20.9579L120.917 20.9809Z" fill="#F6D3B5"/>
<path fill-rule="evenodd" clip-rule="evenodd" d="M132.908 45.8032C135.708 44.181 135.785 47.6396 138.126 46.1705C138.716 45.8032 139.909 44.9385 140.736 45.1298C141.556 45.4445 142.329 45.872 143.031 46.4L143.123 46.4536C143.314 45.9562 143.437 46.1169 143.544 45.5507C143.773 44.38 143.245 43.6071 142.71 42.7119C141.539 40.7683 140.644 37.5163 139.917 35.0601C139.527 33.7593 138.945 32.5427 137.82 32.1065C137.054 31.856 136.234 31.819 135.448 31.9994C134.798 32.1983 134.599 32.7646 134.461 33.568C134.193 35.0983 134.683 36.9118 134.262 38.3657C133.773 40.0414 132.158 41.9467 132.158 43.9897C132.15 45.2676 132.602 45.0916 132.908 45.8032Z" fill="#E6C09D"/>
<path fill-rule="evenodd" clip-rule="evenodd" d="M147.232 30.7292C147.997 30.14 150.293 30.9052 150.935 31.2036C152.619 31.9688 153.231 30.1553 152.091 29.4667C150.499 28.4796 146.505 28.2959 144.439 28.7015L143.421 28.8698C139.963 29.283 139.458 32.053 140.422 32.5503C141.187 32.9482 141.6 32.4279 142.013 32.1065C143.972 30.5838 145.885 31.7392 147.232 30.7292Z" fill="#272C1E"/>
<path fill-rule="evenodd" clip-rule="evenodd" d="M141.248 35.5804C141.478 37.1107 145.839 39.0084 148.441 37.3479C149.206 36.8582 149.879 36.5063 150.048 35.5574C150.423 33.4838 147.614 33.2619 145.655 33.1777C144.515 33.1471 141.011 34.0806 141.248 35.5804Z" fill="white"/>
<path fill-rule="evenodd" clip-rule="evenodd" d="M122.448 30.4383C122.593 31.0199 123.152 31.2035 123.81 31.1117C124.276 31.0505 125.103 30.6373 125.302 30.6373C125.837 30.7609 126.383 30.8352 126.932 30.8592C128.814 30.8592 130.459 30.6755 132.02 31.6244C132.992 32.2135 134.315 31.5478 133.688 30.3312C132.479 27.9285 127.031 27.3088 124.567 28.6019C123.603 29.0916 122.119 29.1069 122.448 30.4383Z" fill="#272C1E"/>
<path fill-rule="evenodd" clip-rule="evenodd" d="M130.849 52.2536C131.155 53.0188 132.594 53.1795 133.229 53.5085C134.494 53.7147 135.783 53.7379 137.055 53.5774C138.295 53.4091 139.94 53.3402 140.797 53.8452C141.218 53.6156 141.807 53.5468 142.235 53.3402C142.901 53.0265 142.916 52.8122 143.383 52.4143C141.317 51.1747 139.182 51.9629 136.948 51.2972C135.226 50.7845 131.821 51.0064 130.849 52.2536Z" fill="#E69090"/>
<path fill-rule="evenodd" clip-rule="evenodd" d="M124.759 35.9629C124.927 37.1872 128.661 39.0772 131.347 37.1719C132.831 36.1236 133.642 35.1136 131.285 33.7439C130.406 33.3525 129.426 33.2507 128.485 33.4532C127.697 33.5603 124.575 34.6392 124.759 35.9629Z" fill="white"/>
<path fill-rule="evenodd" clip-rule="evenodd" d="M132.908 45.8032C130.696 46.9127 127.085 49.5755 126.45 52.0777C125.44 53.9141 128.125 54.1819 128.37 53.7152H128.63C128.99 53.4244 129.25 53.3173 129.633 52.95C129.957 52.5966 130.381 52.351 130.849 52.246C131.821 50.9988 135.226 50.7769 136.917 51.2895C139.152 51.9552 141.286 51.1671 143.352 52.4067C144.883 52.8046 144.737 53.7687 145.648 54.7022C145.858 54.8516 146.115 54.9178 146.371 54.8881C146.627 54.8584 146.863 54.735 147.033 54.5415C147.271 53.9704 147.325 53.3389 147.186 52.7357C146.941 51.0676 145.747 48.489 144.538 47.5631C144.225 47.3259 144.087 47.2418 143.773 46.9739C143.535 46.8194 143.315 46.6398 143.115 46.4383L143.023 46.3848C142.321 45.8568 141.548 45.4293 140.728 45.1146C139.901 44.9233 138.708 45.7879 138.119 46.1552C135.785 47.6396 135.708 44.2117 132.908 45.8032Z" fill="#6F6F6E"/>
<path fill-rule="evenodd" clip-rule="evenodd" d="M133.076 57.5945C130.62 56.5386 131.163 53.4319 133.229 53.5085C134.494 53.7147 135.783 53.7379 137.055 53.5773C138.295 53.409 139.94 53.3401 140.797 53.8451C141.065 54.6103 141.868 53.9446 141.814 55.6663C141.723 57.8547 134.668 58.2755 133.076 57.5945Z" fill="#6F6F6E"/>
<path fill-rule="evenodd" clip-rule="evenodd" d="M117.023 41.6559C117.497 46.247 116.479 47.0657 118.224 51.3278C118.752 52.6209 119.15 54.2584 119.754 55.4368C121.69 59.3239 123.527 62.4611 127.804 63.8537C130.792 64.9548 133.955 65.5044 137.139 65.4759C138.486 65.4759 141.478 65.6213 142.557 65.1928C145.9 63.869 147.408 63.8614 150.285 61.6806C152.114 60.3033 153.744 57.1584 154.723 55.123C155.396 53.7228 155.58 52.5673 156.161 51.1671C156.743 49.7668 157.478 48.8715 158.013 47.456C158.518 46.6143 159.544 42.796 159.077 41.6483C158.541 40.2633 158.541 39.5746 159.268 37.2791C159.612 36.2078 159.352 33.8358 159.819 32.0529C159.934 31.6506 160.077 31.2569 160.248 30.8746C160.248 30.8746 160.248 30.9205 160.202 30.9128C157.799 29.9717 156.422 29.9181 155.611 30.3695C155.779 32.7799 156.2 36.9807 155.978 37.677C155.717 38.9228 155.525 40.1822 155.404 41.4493C155.404 41.4493 154.845 46.1169 154.639 46.3618C153.874 47.3718 154.264 46.9127 154.065 48.2364C153.812 49.851 152.489 50.2259 152.052 50.9605C151.616 51.695 151.341 53.5238 150.002 53.6998C149.152 53.8146 148.885 53.4014 148.318 53.0647C148.102 53.4979 147.754 53.8514 147.324 54.0747L147.186 52.7357C147.325 53.3388 147.271 53.9703 147.033 54.5415C146.863 54.7349 146.627 54.8584 146.371 54.8881C146.115 54.9178 145.858 54.8515 145.648 54.7022C145.089 55.0312 144.592 54.5109 143.766 54.4344C142.995 54.3831 142.221 54.4476 141.47 54.6257V54.7481C141.944 54.9853 141.179 55.146 141.08 56.0412C140.089 56.6201 138.981 56.967 137.837 57.0558C136.693 57.1446 135.544 56.973 134.476 56.5539C133.482 56.1254 131.178 56.9595 131.752 55.5439C131.209 54.7787 130.987 55.3373 130.283 54.5415C129.732 53.8911 129.686 53.8987 128.653 53.6692H128.393C128.148 54.136 125.463 53.8681 126.473 52.0317C126.13 51.5279 125.752 51.0497 125.34 50.6008C125.103 51.2589 124.95 51.7563 124.399 51.9628C124.086 52.0782 123.745 52.099 123.42 52.0229C123.095 51.9467 122.8 51.7769 122.57 51.5343C121.04 50.0576 122.325 49.6597 120.979 48.4736C119.877 47.4866 119.953 46.905 119.356 45.4129L120.971 43.1174C121.545 42.9108 119.8 42.1303 119.64 40.6535C119.479 39.1767 119.418 36.644 119.395 35.3815C119.36 34.8314 119.262 34.2871 119.104 33.7593C118.966 32.8105 119.418 31.3031 119.517 30.3007C119.517 30.2165 119.517 30.0405 119.555 29.7957C118.53 29.0917 116.877 29.6579 115.546 28.3954C115.378 29.2677 115.898 30.3695 116.135 31.3337C116.258 32.5181 116.287 33.7105 116.219 34.8994C116.219 36.0242 115.936 38.7865 116.51 39.7506C116.778 40.2021 116.648 39.7506 116.854 40.3781C116.933 40.6287 116.994 40.8843 117.038 41.1432L117.023 41.6559Z" fill="#D2CABF"/>
<path fill-rule="evenodd" clip-rule="evenodd" d="M151.876 42.8726C150.43 43.9438 150.53 44.9921 150.032 45.7803C149.741 46.2394 149.267 46.6066 148.884 47.0887C147.882 48.4354 147.515 52.1695 148.349 52.8505V53.08C148.915 53.4167 149.183 53.8452 150.032 53.7151C151.371 53.5392 151.7 51.6262 152.083 50.9758C152.465 50.3254 153.843 49.8663 154.095 48.2518C154.294 46.928 153.896 47.3871 154.669 46.3771C155.044 45.8942 155.338 45.3542 155.541 44.7779C156.46 42.0768 157.187 38.9396 151.892 42.8726H151.876ZM160.232 30.8899C160.469 30.3237 160.737 29.7421 160.905 29.2983C160.905 27.7144 159.574 20.407 158.786 19.6724C158.577 18.9784 158.273 18.3167 157.883 17.7059C157.615 17.1779 157.638 16.5046 157.255 15.7241C155.725 12.5409 153.896 10.1689 149.925 9.72509C148.303 9.54145 146.099 7.63616 144.293 7.55199C141.998 7.44487 131.492 7.3607 129.342 8.16413L129.043 8.30952C127.86 8.25269 126.7 8.65573 125.807 9.43433C125.042 9.77866 124.46 10.9035 123.014 11.7834C122.164 12.2961 122.493 11.8523 121.652 12.7322C121.001 13.4132 120.581 13.2143 119.724 14.4768C119.173 15.242 119.211 14.89 118.851 15.5404C117.038 18.8537 117.267 20.4835 116.999 21.0038C116.732 21.5241 116.808 21.088 116.525 22.3123L116.081 23.7355C115.91 24.1932 115.777 24.664 115.683 25.1434C115.5 26.0846 115.729 27.5996 115.523 28.3954V28.5025C116.854 29.7651 118.507 29.1989 119.532 29.9028C119.616 28.9081 119.769 26.8421 119.762 26.8421C120.527 25.8474 120.672 22.121 120.902 20.9809C121.033 20.4178 121.296 19.8936 121.667 19.4505L125.355 15.7853C125.845 15.2726 125.631 15.4563 126.296 15.1043C127.184 14.6375 128.217 13.0995 130.352 12.5945C134.798 11.5462 134.453 11.8293 138.371 11.8293C139.136 11.8293 139.901 11.7222 140.666 11.7146L146.107 12.7399C147.721 13.2449 150.889 14.6146 151.945 15.8542C152.121 16.0608 152.244 16.3133 152.458 16.5811C153.223 17.4993 153.376 17.2162 153.812 18.517C154.08 19.2822 154.761 20.4376 155.128 21.5777C156.597 26.1688 155.672 25.9162 155.549 29.2295C155.549 29.5585 155.549 29.9946 155.549 30.5226C155.633 32.053 158.717 32.206 160.14 30.8899L160.186 30.8516L160.232 30.8899ZM119.333 45.4971C119.93 46.951 119.854 47.5325 120.955 48.5578C122.302 49.7439 121.047 50.1418 122.547 51.6186C122.777 51.8611 123.072 52.0309 123.397 52.1071C123.722 52.1832 124.062 52.1624 124.376 52.0471C124.927 51.8405 125.08 51.3431 125.317 50.685V50.4249C125.534 49.4282 125.398 48.3873 124.934 47.479C124.536 46.7138 124.299 45.7726 123.917 45.0686C123.427 44.2961 122.74 43.6676 121.927 43.2475C119.349 41.633 117.397 40.3858 119.333 45.4971Z" fill="#6F6F6E"/>
<path fill-rule="evenodd" clip-rule="evenodd" d="M143.498 33.5909C142.274 35.2361 144.049 37.2638 146.161 36.8735C148.403 36.4603 148.533 34.578 147.729 33.3614C147.038 33.2525 146.34 33.1911 145.64 33.1777C144.91 33.2109 144.188 33.3501 143.498 33.5909Z" fill="#DDA863"/>
<path fill-rule="evenodd" clip-rule="evenodd" d="M144.73 33.2772C143.291 34.3025 144.485 35.9247 145.946 35.6569C147.408 35.3891 147.385 33.9276 146.658 33.2313L145.64 33.1777C145.334 33.1843 145.03 33.2175 144.73 33.2772Z" fill="#000003"/>
<path fill-rule="evenodd" clip-rule="evenodd" d="M126.236 34.2644C125.884 35.7182 127.444 37.1567 129.25 36.8201C131.316 36.4375 131.592 34.8153 130.995 33.5987C130.183 33.3442 129.321 33.2943 128.485 33.4533C127.7 33.6137 126.942 33.8869 126.236 34.2644Z" fill="#DDA863"/>
<path fill-rule="evenodd" clip-rule="evenodd" d="M127.819 33.614C127.607 33.8655 127.491 34.1844 127.493 34.5136C127.494 34.8427 127.613 35.1606 127.828 35.4101C128.042 35.6597 128.339 35.8247 128.664 35.8756C128.989 35.9264 129.322 35.8598 129.602 35.6876C129.803 35.5726 129.97 35.4076 130.088 35.2088C130.206 35.0099 130.27 34.784 130.275 34.5528C130.279 34.3217 130.224 34.0934 130.114 33.89C130.005 33.6865 129.844 33.515 129.648 33.3921C129.259 33.3976 128.871 33.4257 128.485 33.4763C128.261 33.5078 128.038 33.5538 127.819 33.614Z" fill="#000003"/>
<path fill-rule="evenodd" clip-rule="evenodd" d="M127.819 33.614C127.66 33.7776 127.548 33.9819 127.497 34.2046C127.446 34.4272 127.457 34.6596 127.529 34.8765C127.57 34.6846 127.653 34.5041 127.772 34.348C127.891 34.1919 128.043 34.064 128.217 33.9736C128.405 33.862 128.616 33.7962 128.834 33.7817C129.051 33.7672 129.269 33.8044 129.47 33.8902C129.671 33.976 129.848 34.1079 129.988 34.2754C130.128 34.4428 130.227 34.6409 130.276 34.8536C130.319 34.5723 130.284 34.2843 130.173 34.0221C130.062 33.7598 129.88 33.5337 129.648 33.3691C129.259 33.3746 128.871 33.4027 128.485 33.4533C128.26 33.4924 128.038 33.5461 127.819 33.614Z" fill="#000003"/>
<path fill-rule="evenodd" clip-rule="evenodd" d="M128.799 33.6599C128.764 33.6805 128.734 33.7077 128.71 33.74C128.685 33.7723 128.668 33.809 128.658 33.8481C128.648 33.8872 128.646 33.9278 128.652 33.9678C128.657 34.0077 128.671 34.046 128.692 34.0807C128.712 34.1154 128.739 34.1457 128.772 34.1698C128.804 34.1939 128.841 34.2115 128.88 34.2214C128.919 34.2314 128.959 34.2335 128.999 34.2278C129.039 34.222 129.078 34.2084 129.112 34.1878C129.464 34.0195 129.166 33.4533 128.799 33.6599Z" fill="white"/>
<path fill-rule="evenodd" clip-rule="evenodd" d="M145.227 33.4991C145.191 33.5171 145.16 33.5423 145.134 33.5731C145.109 33.6038 145.09 33.6395 145.079 33.6779C145.068 33.7163 145.065 33.7565 145.07 33.7962C145.075 33.8358 145.088 33.8739 145.109 33.9081C145.129 33.9424 145.157 33.9721 145.189 33.9953C145.222 34.0185 145.259 34.0347 145.298 34.043C145.337 34.0513 145.377 34.0514 145.416 34.0434C145.456 34.0354 145.493 34.0194 145.525 33.9965C145.839 33.8511 145.579 33.3154 145.227 33.4991Z" fill="white"/>
<path fill-rule="evenodd" clip-rule="evenodd" d="M138.409 31.2419L138.317 31.7469C138.168 33.3554 138.168 34.9743 138.317 36.5828C137.611 38.6012 136.287 40.346 134.533 41.5697C132.779 42.7934 130.684 43.4339 128.546 43.4006C122.884 43.4006 118.293 39.062 118.293 33.6981C118.297 31.5244 119.057 29.4197 120.443 27.745C120.725 27.7793 121.01 27.7793 121.292 27.745C122.057 27.6532 123.373 26.9799 123.68 26.9799C124.538 27.1838 125.415 27.3043 126.296 27.3395C129.304 27.2936 131.928 27.0487 134.423 28.5714C134.819 28.8416 135.296 28.9657 135.774 28.9225C136.251 28.8792 136.699 28.6712 137.04 28.3342C137.664 29.2154 138.127 30.1997 138.409 31.2419Z" fill="#F6D3B5"/>
<path fill-rule="evenodd" clip-rule="evenodd" d="M138.409 31.2418L138.318 31.7468C138.168 33.3553 138.168 34.9743 138.318 36.5828C138.623 35.6517 138.778 34.6779 138.777 33.698C138.769 32.8662 138.645 32.0396 138.409 31.2418Z" fill="#E6C09D"/>
<path fill-rule="evenodd" clip-rule="evenodd" d="M120.435 27.745C120.717 27.7793 121.003 27.7793 121.285 27.745C122.05 27.6532 123.366 26.9799 123.672 26.9799C124.531 27.1838 125.407 27.3043 126.289 27.3395C129.296 27.2936 131.921 27.0487 134.415 28.5714C134.811 28.8416 135.289 28.9657 135.766 28.9225C136.244 28.8792 136.691 28.6712 137.032 28.3342C136.089 27.0428 134.864 25.9825 133.451 25.2334C132.038 24.4842 130.473 24.0659 128.875 24.0099C127.277 23.9539 125.686 24.2617 124.224 24.9101C122.762 25.5584 121.467 26.5304 120.435 27.7527V27.745Z" fill="#272C1E"/>
<path fill-rule="evenodd" clip-rule="evenodd" d="M122.807 35.5269C123.075 37.4857 129.051 40.5082 133.336 37.4628C135.708 35.7794 137.017 34.1649 133.244 31.9841C132.012 31.2725 130.367 31.3107 128.76 31.5173C127.513 31.6857 122.517 33.415 122.807 35.5269Z" fill="white"/>
<path fill-rule="evenodd" clip-rule="evenodd" d="M125.179 32.8104C124.613 35.106 127.108 37.4015 130 36.8965C133.298 36.292 133.742 33.6904 132.778 31.7545C131.481 31.345 130.104 31.2635 128.768 31.5173C127.517 31.7757 126.308 32.2111 125.179 32.8104Z" fill="#DDA863"/>
<path fill-rule="evenodd" clip-rule="evenodd" d="M127.705 31.7774C126.174 33.3843 127.988 36.3149 130.543 35.083C132.212 34.3178 131.829 32.2442 130.628 31.3872C130.003 31.3892 129.379 31.4326 128.761 31.5173C128.402 31.5767 128.049 31.6637 127.705 31.7774Z" fill="#000003"/>
<path fill-rule="evenodd" clip-rule="evenodd" d="M127.704 31.7774C127.448 32.0388 127.269 32.3653 127.185 32.7213C127.102 33.0774 127.117 33.4496 127.23 33.7975C127.297 33.4895 127.431 33.2001 127.623 32.9501C127.814 32.7 128.059 32.4955 128.339 32.3513C128.639 32.1723 128.976 32.0665 129.324 32.0427C129.672 32.0188 130.02 32.0776 130.341 32.2141C130.662 32.3506 130.946 32.5611 131.17 32.8283C131.394 33.0955 131.551 33.4119 131.63 33.7516C131.697 33.3034 131.639 32.8453 131.462 32.428C131.285 32.0107 130.996 31.6505 130.627 31.3872C130.003 31.3892 129.379 31.4326 128.76 31.5173C128.402 31.5767 128.049 31.6637 127.704 31.7774Z" fill="#000003"/>
<path fill-rule="evenodd" clip-rule="evenodd" d="M129.266 31.8463C129.21 31.8795 129.162 31.9232 129.124 31.975C129.085 32.0267 129.058 32.0856 129.042 32.1481C129.026 32.2106 129.023 32.2756 129.033 32.3394C129.042 32.4031 129.064 32.4644 129.097 32.5197C129.13 32.5749 129.174 32.6231 129.226 32.6615C129.278 32.6999 129.337 32.7276 129.399 32.7433C129.462 32.7589 129.527 32.7621 129.59 32.7526C129.654 32.7431 129.715 32.7212 129.771 32.688C130.337 32.4202 129.855 31.5096 129.266 31.8463Z" fill="white"/>
<path fill-rule="evenodd" clip-rule="evenodd" d="M116.426 41.3039C109.776 41.0208 110.809 40.2173 106.042 45.5889C105.638 46.0126 105.281 46.4796 104.979 46.9815C104.007 48.6572 101.918 51.3583 100.288 52.2842C99.6685 52.6362 98.7579 52.728 98.7579 51.8174C98.7579 51.0982 99.5231 50.9375 100.028 50.5855C100.939 49.9121 103.204 47.2417 103.494 46.3311C101.803 46.2087 101.964 45.3517 101.145 44.311C100.747 45.9638 100.602 47.2493 99.3012 47.9074C97.6178 48.7644 96.118 47.4406 95.2916 46.6372L95.1769 46.7749C94.6412 47.5401 93.9373 49.6061 91.8866 48.9863C90.6929 48.6266 90.1267 46.6907 89.5452 45.2598C89.2085 44.4182 88.3668 41.5793 90.0502 42.2374C90.471 42.3981 90.5016 42.8266 90.5705 43.2933C90.7082 44.2422 91.7948 47.2264 92.4375 47.5554C93.3022 47.4942 93.7307 46.3847 93.8531 45.3287C93.9985 44.0432 93.6389 43.3775 93.3328 42.268C93.0267 41.1585 92.7819 37.9141 93.2639 37.2331C93.3353 37.1396 93.4274 37.0637 93.5329 37.0115C93.6384 36.9593 93.7545 36.9321 93.8722 36.9321C93.99 36.9321 94.1061 36.9593 94.2116 37.0115C94.3171 37.0637 94.4091 37.1396 94.4806 37.2331C94.8249 37.83 93.7613 42.9184 96.7149 45.8567C99.6685 48.795 100.105 42.8495 99.2247 39.7353C98.9568 38.7788 97.5183 33.897 99.3853 34.379C100.265 34.6086 99.9745 37.7841 100.916 40.0719C101.382 41.1662 102.5 44.487 103.425 44.8084C105.139 42.8725 103.854 36.1466 104.321 35.3432C104.372 35.2606 104.439 35.1892 104.519 35.1334C104.599 35.0776 104.689 35.0385 104.784 35.0185C104.879 34.9984 104.977 34.9979 105.072 35.0169C105.168 35.0359 105.258 35.074 105.338 35.1289C105.783 35.6715 106.298 36.1526 106.869 36.5598C107.802 37.1184 110.327 37.0954 110.526 34.5856C110.593 34.1128 110.538 33.6307 110.366 33.1854C110.295 33.0503 110.272 32.8955 110.299 32.7457C110.327 32.5959 110.404 32.4597 110.519 32.359L110.748 32.1371C107.427 31.303 106.218 31.632 104.566 33.522C103.747 32.9252 103.8 32.512 102.584 32.0299C101.979 31.721 101.284 31.6368 100.622 31.7924C99.9609 31.9479 99.3762 32.3331 98.9721 32.8793C98.6202 33.5756 98.3906 34.1571 97.4418 33.897C96.3705 33.9888 95.7737 33.6521 94.3811 35.1748C94.1133 35.4579 93.9296 35.8099 93.6159 36.1007C92.8507 36.8276 92.0856 35.8252 90.8536 36.445C88.6423 37.5469 88.4663 39.6664 88.5581 41.6941C88.6499 43.7218 88.099 44.2575 87.395 46.2852C87.1417 47.1052 86.7951 47.8933 86.362 48.6343C85.8187 49.5525 85.0918 50.1646 84.9541 50.5931C84.3573 52.2918 85.8647 54.5108 86.4079 55.8576C87.0194 57.6369 87.455 59.4719 87.7087 61.3362C88.2444 64.3969 86.7446 64.2822 91.6188 64.2362C98.8344 64.1597 102.553 59.9742 107.611 56.3932C112.439 52.9728 110.06 47.9762 113.067 44.862C114.283 43.6759 115.691 43.1786 116.426 41.3039Z" fill="#F6D3B5"/>
<path fill-rule="evenodd" clip-rule="evenodd" d="M116.426 41.3039L116.893 40.6612C116.824 39.5287 115.814 39.6894 114.597 39.6052C113.547 39.4673 112.485 39.4442 111.429 39.5364C109.134 39.7124 106.601 42.115 105.828 43.5765C105.721 43.4235 105.668 43.4311 105.69 42.9567C105.69 42.7884 105.752 42.4287 105.775 42.1915C105.904 40.7082 105.937 39.2181 105.874 37.7305C107.825 38.4192 109.034 38.7253 110.656 37.4704C110.969 37.2717 111.239 37.0122 111.449 36.7072C111.659 36.4022 111.806 36.0581 111.881 35.6952C112.127 34.7602 112.156 33.7812 111.965 32.8334C111.885 32.5924 111.726 32.3857 111.513 32.2467C111.3 32.1078 111.047 32.0449 110.794 32.0682L110.565 32.2901C110.45 32.3909 110.373 32.5271 110.345 32.6769C110.318 32.8267 110.341 32.9815 110.412 33.1165C110.584 33.5619 110.639 34.044 110.572 34.5168C110.373 37.0266 107.848 37.0495 106.915 36.491C106.344 36.0838 105.829 35.6026 105.384 35.0601C105.304 35.0052 105.214 34.967 105.118 34.9481C105.023 34.9291 104.925 34.9296 104.83 34.9496C104.735 34.9697 104.645 35.0088 104.565 35.0646C104.485 35.1204 104.418 35.1917 104.367 35.2743C103.9 36.0395 105.185 42.8037 103.471 44.7396C102.546 44.4182 101.428 41.0973 100.962 40.0031C99.9822 37.7076 100.273 34.5398 99.4313 34.3102C97.5643 33.8358 99.0028 38.7176 99.2706 39.6664C100.151 42.796 99.7756 48.8027 96.7608 45.7879C93.746 42.7731 94.8709 37.7612 94.5265 37.1643C94.4551 37.0707 94.3631 36.9949 94.2576 36.9427C94.1521 36.8905 94.0359 36.8633 93.9182 36.8633C93.8005 36.8633 93.6844 36.8905 93.5789 36.9427C93.4733 36.9949 93.3813 37.0707 93.3099 37.1643C92.8278 37.8453 93.1033 41.1815 93.3788 42.1992C93.6542 43.2169 94.0445 43.9974 93.8991 45.2599C93.7767 46.3158 93.3482 47.4253 92.4835 47.4866C91.8408 47.1575 90.7542 44.1733 90.6165 43.2245C90.5476 42.7578 90.517 42.3293 90.0961 42.1686C88.4128 41.5105 89.2545 44.3493 89.5911 45.191C90.1727 46.6602 90.7389 48.5578 91.9326 48.9174C93.9833 49.5372 94.6872 47.5019 95.2228 46.7061L95.3376 46.5683C96.164 47.3335 97.6331 48.6955 99.3471 47.8385C100.648 47.1805 100.793 45.895 101.191 44.2422C101.956 45.2829 101.849 46.1398 103.54 46.2623C103.25 47.1728 100.985 49.8433 100.074 50.5167C99.5997 50.8686 98.7886 51.0293 98.8039 51.7486C98.8039 52.6592 99.7144 52.5673 100.334 52.2154C101.956 51.2895 104.053 48.5884 105.025 46.9127C105.319 46.4367 105.663 45.993 106.05 45.5889C110.81 40.2174 109.777 41.0208 116.426 41.3039Z" fill="#6B402D"/>
<path fill-rule="evenodd" clip-rule="evenodd" d="M113.044 35.3509C112.542 36.6025 112.376 37.9636 112.562 39.2992C112.103 39.3451 111.735 39.2992 111.445 39.5364C112.5 39.4443 113.562 39.4673 114.612 39.6053C115.814 39.6895 116.824 39.5288 116.908 40.6612C117.926 40.6612 118.438 40.5541 118.714 39.7201L118.936 39.3834L119.035 39.3069C119.035 39.3069 119.127 39.0237 119.096 38.9855L118.27 36.69C118.27 36.6058 117.796 36.5216 117.413 34.272C116.561 34.1541 115.694 34.2488 114.888 34.5475C114.536 34.6852 114.161 34.7847 113.832 34.9224C113.503 35.0601 113.273 35.2897 113.044 35.3509Z" fill="#6F6F6E"/>
<path fill-rule="evenodd" clip-rule="evenodd" d="M111.444 39.5365C111.735 39.261 112.102 39.3452 112.562 39.2993C112.375 37.9636 112.542 36.6025 113.044 35.351H111.972C111.972 35.4657 111.926 35.5805 111.896 35.6876C111.821 36.0505 111.674 36.3947 111.464 36.6996C111.254 37.0046 110.984 37.2642 110.672 37.4628C109.049 38.7177 107.84 38.4117 105.889 37.723C105.952 39.2106 105.919 40.7007 105.79 42.184C105.79 42.3906 105.713 42.7502 105.706 42.9492C105.706 43.4236 105.706 43.4159 105.843 43.569C106.616 42.1151 109.179 39.7125 111.444 39.5365Z" fill="#373730"/>
<path fill-rule="evenodd" clip-rule="evenodd" d="M123.496 26.712C126.557 24.5083 130.635 23.7814 133.581 26.0998C136.091 28.0817 137.032 29.8186 137.407 32.3131C137.782 34.8076 137.545 36.9042 136.604 38.4345C133.88 42.8037 124.652 43.1174 120.925 39.7047C116.755 35.8788 119.548 29.5431 123.527 26.6967L123.496 26.712ZM117.375 34.2949C117.543 35.2896 117.138 35.1978 117.635 36.6287L117.734 36.9195C118.117 37.8606 118.729 38.7712 118.676 39.72L119.976 40.9749C124.942 45.0533 134.362 44.8008 137.882 39.391C143.781 30.3313 130.804 15.6322 120.053 27.4466C118.752 28.9081 117.214 32.0453 117.398 34.2643L117.375 34.2949Z" fill="#F1BD4E"/>
<path fill-rule="evenodd" clip-rule="evenodd" d="M41.6604 42.8266C38.4543 46.7367 34.0852 50.4784 28.7136 51.565C22.6458 52.8122 19.1719 51.9093 16.3331 49.3995C14.29 47.586 13.0045 43.5536 13.8768 40.1715C16.4708 30.1783 25.959 25.526 32.2411 25.2582C36.3195 25.0745 38.1559 25.8627 39.7398 27.4619C40.2433 28.002 40.6296 28.6404 40.8745 29.337C41.1194 30.0336 41.2177 30.7733 41.1631 31.5097C41.1642 32.8888 40.6473 34.218 39.7149 35.2341C38.7824 36.2502 37.5023 36.879 36.1282 36.996C35.9333 37.0268 35.7363 37.0421 35.539 37.0419C34.6117 37.0387 33.7171 36.6988 33.0216 36.0854C32.6164 35.649 32.3059 35.1334 32.1097 34.571C31.9135 34.0087 31.8358 33.4119 31.8815 32.8181C31.9274 30.6527 33.7026 28.8621 34.8121 28.227C35.2372 27.9773 35.6857 27.7697 36.1512 27.6073C36.572 26.8956 29.4941 24.9138 25.255 34.2796C24.4423 35.9699 23.9001 37.7773 23.6482 39.6358C22.9825 43.5153 24.0996 46.2623 25.9972 47.4024C27.3899 48.2288 29.563 48.3206 32.3329 47.5631C35.1029 46.8056 37.8422 44.5024 40.023 41.786C42.2037 39.0696 41.6604 42.8266 41.6604 42.8266Z" fill="white"/>
<path fill-rule="evenodd" clip-rule="evenodd" d="M78.3583 15.4256C78.4602 15.3258 78.5795 15.2454 78.7103 15.1884C78.889 15.1064 79.0764 15.0448 79.2689 15.0048C79.4746 14.9461 79.6843 14.9026 79.8963 14.8747C80.1092 14.8442 80.324 14.8289 80.5391 14.8288H80.8375H81.1206C81.5528 14.9001 81.9695 15.045 82.3526 15.2573C83.1036 15.7024 83.6729 16.3991 83.9594 17.2238C84.1003 17.656 84.1701 18.1083 84.166 18.5629C84.1696 18.7762 84.149 18.9892 84.1048 19.198C84.064 19.3899 83.9971 19.5752 83.9059 19.7489C83.7763 19.9914 83.6112 20.2132 83.4162 20.4069C83.179 20.651 82.9232 20.8761 82.651 21.0803C82.5104 21.1819 82.3648 21.2764 82.2148 21.3634C82.0912 21.4417 81.9606 21.5083 81.8246 21.5624C81.6849 21.6156 81.5418 21.6591 81.3961 21.6924C81.243 21.7307 81.0594 21.7613 80.8605 21.7919C80.5314 21.8378 80.2789 21.8837 80.0953 21.922C80.0106 21.9365 79.9283 21.9622 79.8504 21.9985C79.8473 22.0469 79.8473 22.0955 79.8504 22.1439C79.8504 22.2816 79.8504 22.4806 79.8504 22.7331C79.8504 23.1004 79.8504 23.3988 79.8504 23.6283C79.8504 23.7355 79.8504 23.8656 79.8504 24.0186C79.8504 24.1716 79.8504 24.3629 79.8504 24.516C79.8537 24.8314 79.8281 25.1464 79.7739 25.4571C79.747 25.6688 79.65 25.8655 79.4984 26.0157C79.4121 26.0907 79.3171 26.1549 79.2153 26.207C79.1276 26.2528 79.031 26.2789 78.9322 26.2835C78.8396 26.2806 78.7492 26.2537 78.6701 26.2054C78.591 26.1571 78.5257 26.0891 78.4808 26.008C78.364 25.8042 78.2838 25.5815 78.2436 25.35C78.1991 24.9768 78.1787 24.601 78.1823 24.2252C78.1823 23.6054 78.1823 22.6948 78.1823 21.593C78.1823 20.4911 78.1823 19.5882 78.1823 18.9608C78.1823 18.3333 78.1823 17.9737 78.1823 17.8513C78.1823 17.7288 78.1823 17.5834 78.1823 17.4381C78.1823 17.2927 78.1823 17.132 78.1823 16.9866C78.1823 16.8412 78.1823 16.5811 78.1823 16.428C78.1739 16.3083 78.1739 16.1881 78.1823 16.0684C78.2027 15.9354 78.236 15.8047 78.2818 15.6782C78.3267 15.5718 78.3888 15.4736 78.4655 15.3874L78.3583 15.4256ZM86.0713 26.3141C85.9647 26.3205 85.8582 26.3009 85.7608 26.2569C85.6635 26.2129 85.5784 26.1459 85.5127 26.0616C85.3814 25.8685 85.3193 25.6365 85.3367 25.4036V24.6384C85.3367 24.2175 85.3367 23.6207 85.3367 22.8555C85.3367 22.0903 85.3367 21.394 85.3367 20.7742C85.3367 20.1544 85.3367 19.6953 85.3367 19.1521C85.3367 18.3333 85.3367 17.6829 85.3367 17.2085C85.3367 16.7341 85.3367 16.3974 85.3367 16.2138C85.3367 16.1449 85.3367 16.0607 85.3367 15.9689C85.3367 15.8771 85.3367 15.7776 85.3367 15.6782C85.3332 15.536 85.3513 15.3941 85.3903 15.2573C85.4237 15.1382 85.4839 15.0282 85.5663 14.9359C85.6283 14.8729 85.7008 14.8211 85.7806 14.7829C85.8635 14.75 85.9515 14.7319 86.0407 14.7293C86.1794 14.7274 86.3154 14.7674 86.431 14.8441C86.5456 14.9293 86.6397 15.0391 86.7064 15.1655C86.752 15.263 86.7855 15.3658 86.8059 15.4716C86.8059 15.594 86.8059 15.7241 86.8059 15.8847C86.8059 16.0454 86.8059 16.3362 86.8059 16.7953C86.8059 17.2544 86.8059 17.9201 86.8059 18.6164V20.6671C86.8059 22.2357 86.8059 23.4753 86.8059 24.3859C86.8059 25.2964 86.8059 25.6561 86.8059 25.7326C86.7626 25.8973 86.6689 26.0444 86.5381 26.1534C86.4047 26.25 86.2437 26.301 86.079 26.2988L86.0713 26.3141ZM88.7877 14.714L88.9331 14.6681H89.0632C89.1264 14.6653 89.1895 14.6754 89.2487 14.6978C89.3079 14.7201 89.3619 14.7543 89.4075 14.7982C89.6313 15.0153 89.7835 15.2956 89.8436 15.6016C89.9449 16.0302 89.9912 16.4699 89.9814 16.9101C89.9814 17.0478 89.9814 17.1932 89.9814 17.3615C89.9814 17.5299 89.9814 17.6982 89.9814 17.8589V18.0119L90.2492 17.66L90.4558 17.3692C90.5553 17.2162 90.7542 16.9254 91.0373 16.4892C91.3204 16.0684 91.5576 15.7241 91.7413 15.4869C91.8673 15.3024 92.0081 15.1284 92.1621 14.9665C92.2465 14.8969 92.3423 14.8426 92.4452 14.8058C92.5548 14.7751 92.6681 14.7596 92.7819 14.7599C92.9584 14.749 93.1328 14.8035 93.2716 14.913C93.3345 14.9743 93.3834 15.0483 93.4151 15.1302C93.4468 15.2121 93.4605 15.2998 93.4553 15.3874C93.4493 15.587 93.4078 15.7839 93.3329 15.9689C93.2414 16.2338 93.1262 16.4899 92.9885 16.7341C92.7724 17.1244 92.5348 17.5025 92.2769 17.8666C91.9963 18.2645 91.6673 18.693 91.2898 19.1521C91.2209 19.2303 91.1594 19.3149 91.1062 19.4046C91.0845 19.4372 91.0689 19.4735 91.0603 19.5117C91.0603 19.5117 91.0603 19.5499 91.0603 19.5729C91.0616 19.5984 91.0616 19.6239 91.0603 19.6494C91.151 19.808 91.2506 19.9613 91.3587 20.1085C91.527 20.3457 91.7489 20.6595 92.0321 21.0344C92.6491 21.8594 93.2041 22.729 93.6925 23.636C94.0099 24.1759 94.2034 24.7797 94.2587 25.4036C94.2587 25.4724 94.2587 25.5413 94.2587 25.5949C94.2646 25.6431 94.2646 25.692 94.2587 25.7402C94.2334 25.8241 94.1918 25.9021 94.1363 25.9698C94.0772 26.0361 94.0104 26.0952 93.9373 26.1458C93.8609 26.1923 93.7786 26.2284 93.6925 26.2529C93.6053 26.2774 93.5152 26.2903 93.4247 26.2912C93.347 26.289 93.2719 26.2622 93.2104 26.2146C93.1433 26.1654 93.0817 26.1089 93.0268 26.0463C92.8942 25.881 92.7764 25.7043 92.6748 25.5183C92.532 25.2735 92.356 24.9598 92.1468 24.5772L91.3817 23.1616C91.1904 22.8096 91.0603 22.5724 90.9914 22.4576C90.7863 22.0928 90.5454 21.7493 90.2721 21.4323C90.1698 21.3111 90.0417 21.2144 89.8972 21.1492C89.8972 21.4858 89.836 22.4347 89.7442 24.0033C89.7242 24.324 89.6859 24.6434 89.6294 24.9598C89.582 25.2194 89.5155 25.4751 89.4304 25.7249C89.3644 25.9209 89.2661 26.1045 89.1397 26.2682C89.0906 26.3343 89.0273 26.3885 88.9544 26.4269C88.8816 26.4653 88.8011 26.4869 88.7188 26.4901C88.6066 26.4892 88.4973 26.4545 88.4051 26.3906C88.3037 26.3231 88.2155 26.2375 88.1449 26.1381C88.0898 26.0788 88.0481 26.0084 88.0225 25.9315C87.9932 25.8558 87.9777 25.7755 87.9766 25.6943C87.9766 25.1817 87.9766 24.2405 87.9766 22.8632C87.9766 21.4858 88.0455 19.7412 88.0914 17.5681C88.0914 17.0096 88.0914 16.5581 88.1603 16.2061C88.1752 15.9333 88.2241 15.6634 88.3056 15.4027C88.3551 15.2709 88.4192 15.1451 88.4969 15.0278C88.5566 14.928 88.6445 14.8481 88.7494 14.7982L88.7877 14.714Z" fill="white"/>
<path fill-rule="evenodd" clip-rule="evenodd" d="M44.5679 32.0835C44.6569 31.8444 44.8042 31.6314 44.9964 31.4637C45.1809 31.3166 45.4109 31.2381 45.6468 31.2418H45.907L46.2131 31.303C46.4164 31.3501 46.6242 31.3757 46.8329 31.3796C47.1772 31.3796 47.6516 31.4178 48.2484 31.4255C48.8453 31.4331 49.335 31.4255 49.7099 31.479C49.9881 31.4888 50.2648 31.5247 50.5363 31.5862C50.771 31.6527 51.001 31.7344 51.225 31.831C51.4196 31.9198 51.6065 32.0247 51.7836 32.1447C51.937 32.2456 52.0717 32.3725 52.1814 32.5197C52.2762 32.6458 52.3296 32.7981 52.3345 32.9558C52.3413 33.004 52.3413 33.053 52.3345 33.1012C52.3248 33.1464 52.3094 33.1901 52.2886 33.2313C52.2425 33.3513 52.1559 33.4515 52.0437 33.5144C51.927 33.5834 51.7962 33.6253 51.6611 33.6368L50.8424 33.6751H49.1743H46.7946L46.7563 34.0194C46.7563 34.4326 46.6722 34.9759 46.611 35.6492C46.5497 36.3226 46.5038 36.8429 46.4426 37.4933C46.4044 37.9983 46.3661 38.3886 46.3508 38.664C46.3355 38.9395 46.3508 39.1155 46.3508 39.1767V39.6358H48.7688C49.6411 39.6358 50.2991 39.6358 50.7659 39.6894C51.0626 39.682 51.3582 39.7287 51.6382 39.8271C51.7804 39.9355 51.8934 40.0774 51.9672 40.2403C52.0393 40.4176 52.0757 40.6075 52.0743 40.7989C52.0746 41.0011 52.0132 41.1987 51.8983 41.3651C51.7709 41.5483 51.6034 41.7001 51.4086 41.8089C51.1154 41.8946 50.8111 41.9358 50.5057 41.9314C50.0236 41.9314 49.3579 41.9314 48.5086 41.9314H46.0447V42.291C45.9376 44.3876 45.8611 46.0557 45.8075 47.3105C45.754 48.5654 45.731 49.3689 45.731 49.7974H48.8912C49.3273 49.7974 49.6946 49.7974 49.9777 49.7974C50.167 49.7995 50.3561 49.8123 50.544 49.8356C50.6551 49.8553 50.7584 49.9057 50.8424 49.981C50.9289 50.0548 50.9948 50.1497 51.0337 50.2565C51.0695 50.3393 51.0927 50.427 51.1025 50.5166C51.1114 50.6415 51.1114 50.7668 51.1025 50.8916C51.104 51.0217 51.0833 51.151 51.0413 51.2742C50.9985 51.3852 50.9304 51.4848 50.8424 51.5649L50.6817 51.6721L50.3374 51.8787C50.0403 51.9582 49.7343 51.9994 49.4268 52.0011C48.9626 52.0011 48.3122 52.0164 47.4756 52.047H46.1672C45.7253 52.0997 45.2807 52.1252 44.8357 52.1235C44.5663 52.1078 44.3042 52.0292 44.0706 51.894C43.8383 51.6944 43.6749 51.4266 43.6038 51.1288C43.4969 50.7194 43.4479 50.2969 43.4584 49.8739C43.4584 49.7897 43.4584 49.6749 43.4584 49.5143C43.4584 49.3536 43.4584 49.1623 43.4967 48.9404C43.4967 48.772 43.4967 48.4813 43.5579 48.0451C43.6191 47.609 43.6115 47.0427 43.6421 46.3464C43.6727 45.6501 43.6956 45.0992 43.7109 44.7089C43.7262 44.3187 43.7109 44.0968 43.7109 44.0126C43.7109 43.5 43.7568 43.0485 43.7721 42.6583C43.7874 42.268 43.7721 41.8931 43.7721 41.6406C43.841 40.2097 43.9175 39.039 43.994 38.1361C44.0706 37.2332 44.1624 36.5445 44.2466 36.1237C44.2466 36.0318 44.2466 35.8329 44.3001 35.5192C44.3537 35.2054 44.3001 34.754 44.346 34.1954C44.3919 33.6368 44.3919 33.1395 44.4149 32.8104C44.4254 32.5782 44.4587 32.3475 44.5144 32.1218L44.5679 32.0835ZM55.3799 32.4967C55.5543 32.3285 55.7561 32.1914 55.9767 32.0912C56.2808 31.9556 56.5956 31.8455 56.9179 31.7621C57.2913 31.6556 57.6725 31.5788 58.058 31.5326C58.4409 31.4802 58.827 31.4546 59.2134 31.4561H59.7567L60.2617 31.5173C61.038 31.6407 61.7865 31.8997 62.4731 32.2825C63.1463 32.6805 63.7403 33.1993 64.2253 33.8128C64.7223 34.4204 65.1059 35.1124 65.3578 35.8558C65.6172 36.6327 65.7464 37.4471 65.7404 38.2662C65.7425 38.6466 65.704 39.0263 65.6256 39.3986C65.5554 39.7426 65.4369 40.0749 65.2736 40.3857C65.0396 40.8172 64.7431 41.2117 64.3937 41.5564C63.9598 42.0042 63.486 42.4114 62.9781 42.773C62.7344 42.9626 62.4788 43.1364 62.2129 43.2934C61.9921 43.4318 61.759 43.5496 61.5166 43.6453C61.2668 43.7383 61.0112 43.815 60.7514 43.8749C60.4683 43.9438 60.1393 44.005 59.7797 44.0585C59.1675 44.1504 58.7008 44.2269 58.3641 44.3034C58.1797 44.333 58.0014 44.3925 57.8361 44.4794C57.8054 44.5942 57.79 44.7125 57.7902 44.8314C57.7902 45.0915 57.7902 45.4512 57.7902 45.9332C57.7902 46.2852 57.7902 46.5913 57.7902 46.8361C57.7902 47.081 57.7902 47.3488 57.7902 47.6013C57.7902 47.8538 57.7902 48.0528 57.7902 48.3206C57.7902 48.5884 57.7902 48.9251 57.7902 49.2311C57.7997 49.7977 57.7562 50.3638 57.6601 50.9222C57.6142 51.2784 57.4561 51.6107 57.2087 51.871C57.0571 51.9993 56.893 52.1121 56.7189 52.2077C56.5761 52.2801 56.4197 52.3218 56.2598 52.3301C56.111 52.3203 55.9673 52.2721 55.8426 52.1903C55.7179 52.1086 55.6165 51.9959 55.5482 51.8634C55.3382 51.5073 55.1955 51.1156 55.1274 50.7079C55.0508 50.0297 55.015 49.3475 55.0203 48.6649C54.9896 47.5325 54.9718 45.9256 54.9667 43.8443C54.9667 41.7707 54.9667 40.1638 54.9284 39.0084C54.8902 37.853 54.9284 37.1873 54.8596 36.9654C54.8596 36.7205 54.8596 36.468 54.8213 36.2002C54.783 35.9324 54.8213 35.6492 54.8213 35.3814C54.806 34.8292 54.8341 34.2765 54.9055 33.7286C54.9427 33.4909 55.0042 33.2575 55.0891 33.0323C55.1574 32.8503 55.2614 32.6838 55.3952 32.5426L55.3799 32.4967ZM72.1143 31.7928L73.813 31.6627L75.2822 31.5632C75.6953 31.5632 76.0091 31.5632 76.231 31.5632H76.6289C76.7153 31.5531 76.8026 31.5531 76.889 31.5632C77.212 31.6157 77.5083 31.7746 77.7307 32.0147C77.9316 32.2687 78.0347 32.5863 78.0215 32.9099C78.0284 33.2033 77.9277 33.4891 77.7384 33.7133C77.5364 33.931 77.2667 34.0739 76.9732 34.1189C76.7589 34.1189 76.4376 34.1725 76.0014 34.1954L74.3945 34.2566C73.4075 34.2566 72.627 34.3178 72.0454 34.3561C71.735 34.3777 71.4259 34.416 71.1196 34.4709L71.1885 35.6722C71.1885 36.3456 71.2497 37.2026 71.265 38.3121C71.2803 39.4216 71.265 40.6918 71.265 42.138C71.265 43.2781 71.265 44.2269 71.265 44.9768C71.265 45.7266 71.265 46.224 71.2038 46.5071C71.1119 47.739 70.9895 48.8026 70.8518 49.5678C70.7595 50.2149 70.5926 50.8491 70.3544 51.4578C70.2569 51.6879 70.1107 51.8941 69.9259 52.0623C69.7647 52.2092 69.5548 52.291 69.3367 52.2919H69.3214H69.2526H69.1531C69.0505 52.2836 68.951 52.2522 68.8623 52.2C68.7657 52.151 68.6778 52.0864 68.6021 52.0087C68.4485 51.8463 68.3357 51.6496 68.2731 51.4349C68.2412 51.3017 68.2208 51.166 68.2119 51.0293C68.2119 50.8763 68.2119 50.685 68.2119 50.4707C68.2119 50.2565 68.2119 49.8203 68.2502 49.499C68.2884 49.1776 68.319 48.8562 68.3726 48.5348C68.5286 47.5488 68.6334 46.5552 68.6863 45.5583C68.7552 44.4029 68.7858 43.0791 68.7858 41.587C68.7858 40.8984 68.7858 40.248 68.7858 39.6358C68.7858 39.0237 68.7322 38.4345 68.6863 37.8606C68.6863 37.4857 68.6251 37.0954 68.6098 36.6516C68.5945 36.2078 68.6098 35.7564 68.6098 35.282C68.6098 34.8076 68.6098 34.402 68.6098 34.1036C68.6095 33.8911 68.6404 33.6797 68.7016 33.4761C68.801 33.2137 68.9546 32.9752 69.1524 32.7761C69.3501 32.577 69.5876 32.4219 69.8494 32.3207C70.5941 32.0126 71.386 31.834 72.1908 31.7928H72.1143ZM81.8015 52.2383C81.6269 52.2508 81.452 52.2204 81.2919 52.1497C81.1319 52.079 80.9915 51.9702 80.8833 51.8327C80.6634 51.5005 80.5586 51.1054 80.5848 50.7079C80.5848 50.6314 80.5848 50.18 80.5848 49.3536C80.5848 48.5272 80.5848 47.4942 80.5848 46.0786C80.5848 44.663 80.5848 43.4005 80.5848 42.2527C80.5848 41.105 80.5848 40.2021 80.5848 39.2685C80.5848 37.7382 80.5848 36.5904 80.5848 35.7028C80.5848 34.8152 80.5389 34.1725 80.5083 33.8587C80.5083 33.7287 80.5083 33.5833 80.4624 33.4226C80.4165 33.2619 80.4624 33.0782 80.4624 32.8946C80.4554 32.6364 80.4864 32.3786 80.5542 32.1294C80.6071 31.9303 80.7068 31.7466 80.845 31.5938C80.9494 31.4895 81.0711 31.4041 81.2046 31.3413C81.3355 31.2863 81.4759 31.2577 81.6178 31.2571C81.843 31.2543 82.064 31.3182 82.2529 31.4408C82.4456 31.5811 82.6028 31.7645 82.712 31.9764C82.7902 32.1412 82.8443 32.3165 82.8727 32.4967C82.919 32.7493 82.9446 33.0052 82.9492 33.2619C82.9492 33.5374 82.9492 34.0959 82.9492 34.93C82.9492 35.764 82.9492 36.9347 82.9492 38.2738V42.0385C82.9492 48.0171 82.9288 51.1007 82.888 51.2895C82.8203 51.5602 82.6707 51.8034 82.4595 51.9858C82.2394 52.1506 81.9691 52.2344 81.6943 52.223L81.8015 52.2383ZM91.3585 31.5096C91.5073 31.4728 91.658 31.4447 91.81 31.4255C91.963 31.4255 92.1237 31.4255 92.2844 31.4255C92.6669 31.4159 93.0466 31.4944 93.3939 31.655C93.712 31.8138 93.9776 32.0609 94.1591 32.3666C94.2411 32.5159 94.3029 32.6754 94.3427 32.841C94.3927 33.0363 94.4209 33.2364 94.4269 33.4379C94.4269 33.6445 94.4269 34.05 94.4728 34.6698C94.5187 35.2896 94.4728 36.0854 94.5187 37.1031C94.5187 38.4804 94.5646 39.6664 94.6105 40.6535C94.6565 41.6406 94.6947 42.4134 94.7559 42.9949C94.8018 43.4081 94.8324 43.7601 94.863 44.1121C94.8937 44.4641 94.9013 44.7242 94.9166 44.9844C94.9166 45.1987 94.9166 45.5966 94.9166 46.1704C94.9166 46.7443 94.9166 47.5095 94.9166 48.3971C94.9166 49.2847 94.9166 49.9275 94.9166 50.4172C94.9202 50.7213 94.9048 51.0255 94.8707 51.3277C94.859 51.6396 94.7724 51.944 94.6182 52.2153C94.5555 52.3239 94.4651 52.4137 94.3561 52.4756C94.2472 52.5374 94.1237 52.5691 93.9984 52.5673C93.8721 52.5663 93.7473 52.5403 93.6311 52.4908C93.4994 52.4335 93.3758 52.3589 93.2638 52.2689C93.1271 52.1612 93.0149 52.0255 92.9348 51.871C92.8512 51.6963 92.792 51.5109 92.7588 51.3201C92.7137 51.0158 92.6856 50.7093 92.6746 50.4019C92.6746 49.9963 92.6746 49.4913 92.6746 48.8715V47.915C92.6746 46.1781 92.6746 45.214 92.6211 45.015C92.6211 44.9002 92.6211 44.8084 92.5675 44.7319L92.4451 44.8543C92.2325 45.0717 92.0332 45.3017 91.8482 45.543C91.5575 45.9026 91.1902 46.3541 90.7617 46.9127C90.3332 47.4712 89.9583 47.9456 89.6904 48.3053C89.4226 48.6649 89.239 48.9098 89.1472 49.0705L89.086 49.1929L88.9865 49.3995L88.8564 49.6443C88.8128 49.7362 88.7643 49.8256 88.711 49.9122C88.6651 49.9963 88.6268 50.0652 88.5809 50.1341C88.3514 50.5779 88.1524 50.9451 87.9688 51.2436C87.8309 51.4807 87.6666 51.7014 87.4791 51.9016C87.3486 52.0405 87.1961 52.1568 87.0276 52.2459C86.8706 52.3241 86.698 52.3659 86.5226 52.3684C86.3732 52.3679 86.2253 52.3393 86.0865 52.2842C85.9456 52.2257 85.8161 52.1428 85.7039 52.0393C85.6319 51.977 85.5722 51.9017 85.5279 51.8174C85.4837 51.7323 85.4601 51.6379 85.459 51.542C85.4654 51.282 85.5092 51.0243 85.5891 50.7768C85.6831 50.4711 85.8035 50.1741 85.9487 49.8892C86.2754 49.265 86.6488 48.6665 87.0659 48.0987C87.576 47.3539 88.2647 46.4587 89.1319 45.4129C89.6751 44.7625 90.1189 44.2116 90.448 43.7678C90.6985 43.4546 90.9236 43.122 91.1213 42.773L91.1672 42.6812H90.9683C90.3098 42.6381 89.658 42.5227 89.0247 42.3369C88.4829 42.175 87.9674 41.9353 87.4944 41.6253C86.5921 41.0073 85.9641 40.0639 85.7421 38.9931C85.499 37.8738 85.6447 36.7051 86.1553 35.6799C86.3906 35.218 86.6809 34.7864 87.02 34.3944C87.415 33.9405 87.8476 33.5207 88.3131 33.1395C88.7887 32.7465 89.3012 32.4006 89.8435 32.1065C90.328 31.8472 90.8417 31.6468 91.3738 31.5096H91.3585Z" fill="white"/>
<path fill-rule="evenodd" clip-rule="evenodd" d="M15.1852 57.4799C15.254 57.4799 15.6825 57.4799 16.4554 57.4799H19.7762H22.9594C23.3813 57.4727 23.8032 57.4958 24.2219 57.5488C24.481 57.6393 24.7109 57.7979 24.8876 58.0079C25.0586 58.2328 25.174 58.495 25.2243 58.773C25.2243 58.9108 25.2702 59.7525 25.2855 61.3134C25.3008 62.8744 25.2855 65.1393 25.2855 68.0546C25.2855 68.751 25.2855 69.3478 25.2855 69.8452C25.2855 70.4726 25.2855 71.1307 25.2855 71.8193C25.2855 72.508 25.2855 73.0666 25.2855 73.4874C25.2855 73.9082 25.2855 74.2526 25.2855 74.3597C25.2855 75.255 25.2855 75.9513 25.2855 76.4563C25.2962 76.76 25.2653 77.0638 25.1937 77.3592C25.0965 77.553 24.9377 77.7091 24.7422 77.803C24.5278 77.9063 24.2915 77.9561 24.0536 77.9484C23.8766 77.9506 23.7005 77.9222 23.5333 77.8642C23.3776 77.8137 23.236 77.7272 23.1201 77.6117C22.741 77.2104 22.4929 76.7034 22.4084 76.1579C22.2378 75.3145 22.1608 74.4548 22.1789 73.5945C22.1789 73.4415 22.1789 73.189 22.1789 72.8293C22.1789 72.4697 22.1789 72.0642 22.2171 71.5668C22.2171 71.0006 22.2784 70.1818 22.2937 69.1029C22.309 68.024 22.2937 66.7156 22.2937 65.0934V60.4411H16.8915L16.815 64.5348C16.815 65.7055 16.7691 66.9375 16.7538 68.2077C16.7385 69.4779 16.7538 70.771 16.7538 72.1866C16.7538 73.2731 16.7538 74.1454 16.7538 74.8112C16.7506 75.2458 16.7251 75.68 16.6773 76.112C16.5941 76.5765 16.4607 77.0306 16.2794 77.4663C16.1335 77.8089 15.9201 78.1186 15.6519 78.3769C15.5426 78.4873 15.4277 78.592 15.3076 78.6906C15.1775 78.6906 15.0245 78.6906 14.8944 78.6906C14.5563 78.6686 14.2403 78.5147 14.0144 78.2621C13.7736 77.9589 13.6177 77.5971 13.563 77.2138C13.563 77.1067 13.563 76.9843 13.563 76.8542C13.563 76.7241 13.563 76.5787 13.563 76.4257C13.563 76.1196 13.563 75.7447 13.6166 75.2932C13.6701 74.8418 13.7007 74.3444 13.7696 73.7629L13.9456 72.4161V66.6697C13.9456 64.7822 13.9456 63.2901 13.9456 62.1934C13.9456 61.0686 13.8997 60.3187 13.8691 59.9438C13.8691 59.6912 13.8691 59.4846 13.8691 59.3163C13.8691 59.148 13.8691 59.0408 13.8691 58.9949C13.8564 58.8319 13.8564 58.6682 13.8691 58.5052C13.89 58.378 13.9287 58.2544 13.9838 58.1379C14.0857 57.9339 14.2605 57.7755 14.4735 57.6941C14.7439 57.5805 15.0306 57.5108 15.3229 57.4875L15.1852 57.4799ZM30.2362 57.3651C30.3356 57.3158 30.4411 57.2797 30.5499 57.258C30.6718 57.2413 30.7954 57.2413 30.9172 57.258C31.2383 57.2638 31.5552 57.3313 31.8507 57.4569C32.2048 57.6048 32.5369 57.8005 32.8378 58.0385C33.144 58.2724 33.433 58.5281 33.7025 58.8036C33.9282 59.0366 34.1283 59.2931 34.2993 59.5688C34.6745 60.149 34.9874 60.7671 35.2328 61.4129C35.5561 62.253 35.8295 63.1115 36.0516 63.9839C36.3041 64.971 36.526 66.0193 36.7173 67.1211C36.9086 68.223 37.0692 69.4167 37.207 70.6486C37.2529 71.1383 37.2988 71.6969 37.3218 72.309C37.3447 72.9212 37.36 73.6022 37.36 74.3291C37.36 74.7499 37.36 75.0943 37.36 75.4309C37.36 75.7676 37.3217 75.9972 37.2988 76.1961C37.2464 76.507 37.1722 76.8138 37.0769 77.1143C37.0109 77.3623 36.8994 77.5959 36.7479 77.803C36.6878 77.8742 36.6152 77.9339 36.5336 77.979C36.4543 78.024 36.3647 78.0478 36.2735 78.0479C36.1642 78.0407 36.0586 78.0061 35.9663 77.9472C35.874 77.8884 35.798 77.8072 35.7455 77.7112C35.578 77.4553 35.4539 77.1735 35.3782 76.8771C35.2 76.2737 35.0872 75.6529 35.0415 75.0254C34.965 74.2449 34.9267 73.3038 34.9267 72.2019V70.8858L34.261 70.8399H34.0085H33.3811H32.6618H32.1568L31.0626 70.6639C30.7871 70.6639 30.5805 70.6639 30.4581 70.6639H30.1061V71.8958C30.1061 72.4621 30.1061 73.1201 30.1061 73.87C30.1061 74.6352 30.1061 75.2703 30.1061 75.8288V77.275L29.9531 77.5734C29.8578 77.7531 29.7215 77.9078 29.5552 78.0249C29.3971 78.1315 29.2103 78.1875 29.0196 78.1856C28.9024 78.1825 28.7863 78.1619 28.6752 78.1244C28.5521 78.0782 28.4341 78.0192 28.3233 77.9484C28.2391 77.8795 28.1702 77.826 28.1167 77.7724C28.068 77.7205 28.0245 77.6642 27.9866 77.604C27.888 77.0741 27.8393 76.5362 27.8412 75.9972C27.8412 75.1325 27.7953 73.9389 27.7953 72.4238C27.7953 70.9088 27.7953 69.3631 27.8489 68.1158C27.9024 66.8686 27.933 65.7362 28.0019 64.8026C28.0798 63.0845 28.3363 61.3792 28.7671 59.7142C29.1497 58.4593 29.647 57.6788 30.2974 57.3651H30.2362ZM40.3365 58.5282C40.5089 58.3575 40.7112 58.22 40.9334 58.1226C41.2371 57.9842 41.5519 57.8716 41.8746 57.786C42.2497 57.6867 42.6304 57.6101 43.0147 57.5564C43.3976 57.504 43.7836 57.4784 44.1701 57.4799C44.3537 57.4799 44.5374 57.4799 44.7134 57.4799C44.883 57.488 45.0517 57.5085 45.2184 57.5411C46.7822 57.778 48.1983 58.5982 49.182 59.8366C49.6804 60.4404 50.0642 61.1302 50.3145 61.872C50.5738 62.6489 50.7031 63.4633 50.6971 64.2823C50.6995 64.6628 50.661 65.0425 50.5823 65.4148C50.5066 65.7572 50.3884 66.0888 50.2303 66.4019C49.9963 66.8333 49.6997 67.2278 49.3503 67.5726C48.9108 68.0142 48.4375 68.421 47.9348 68.7892C47.6593 68.9882 47.3991 69.1641 47.1696 69.3095C46.9462 69.4412 46.7135 69.5563 46.4733 69.6539C46.2249 69.7531 45.969 69.8324 45.7081 69.8911C45.425 69.9599 45.096 70.0211 44.7363 70.0747C44.1242 70.1589 43.6574 70.243 43.3207 70.3196C43.1355 70.3455 42.9565 70.4051 42.7928 70.4956C42.7607 70.6103 42.7427 70.7285 42.7392 70.8475C42.7392 71.1 42.7392 71.4673 42.7392 71.9417C42.7392 72.6074 42.7392 73.1584 42.7392 73.5792C42.7392 73.7935 42.7392 74.0307 42.7392 74.3444C42.7392 74.6581 42.7392 74.9412 42.7392 75.2473C42.7502 75.8167 42.7041 76.3858 42.6015 76.946C42.5582 77.2992 42.4026 77.6291 42.1577 77.8872C42.008 78.018 41.8437 78.131 41.668 78.2238C41.5265 78.2998 41.3693 78.3417 41.2088 78.3463C41.0614 78.3425 40.9177 78.2994 40.7926 78.2213C40.6674 78.1433 40.5655 78.0332 40.4972 77.9025C40.2859 77.547 40.1432 77.1551 40.0764 76.747C39.9995 76.0713 39.9612 75.3918 39.9616 74.7117C39.9616 73.569 39.9463 71.9621 39.9157 69.8911C39.8851 67.82 39.8851 66.208 39.9157 65.0551C39.9157 63.915 39.8698 63.234 39.8468 63.0045C39.8468 62.7673 39.8468 62.5147 39.8468 62.2393C39.8468 61.9638 39.8468 61.696 39.8468 61.4282C39.8468 61.0201 39.8468 60.6758 39.8468 60.3952C39.8526 60.1849 39.873 59.9752 39.908 59.7678C39.9462 59.5302 40.0077 59.2969 40.0917 59.0715C40.1599 58.8916 40.2641 58.7276 40.3978 58.5894L40.3365 58.5282ZM55.6401 57.3651C55.7373 57.3169 55.8401 57.2809 55.9462 57.258C56.0665 57.2296 56.1899 57.2167 56.3135 57.2197C56.6345 57.2255 56.9514 57.2931 57.247 57.4187C57.6001 57.5683 57.932 57.7638 58.234 58.0002C58.5386 58.2361 58.8275 58.4917 59.0987 58.7654C59.3245 58.9983 59.5246 59.2549 59.6955 59.5306C60.0707 60.1107 60.3836 60.7288 60.6291 61.3746C60.9523 62.2148 61.2257 63.0733 61.4478 63.9456C61.7003 64.9327 61.9222 65.981 62.1135 67.0829C62.3048 68.1847 62.4655 69.3784 62.6032 70.6103C62.6491 71.1 62.695 71.6586 62.718 72.2708C62.741 72.8829 62.718 73.5639 62.718 74.2908C62.718 74.7117 62.718 75.056 62.718 75.3927C62.718 75.7294 62.718 75.9589 62.6568 76.1579C62.6237 76.4803 62.5675 76.8 62.4884 77.1143C62.4225 77.3623 62.3109 77.5959 62.1594 77.803C62.0993 77.8742 62.0267 77.9339 61.9452 77.979C61.8658 78.024 61.7762 78.0478 61.685 78.0479C61.5758 78.0407 61.4701 78.0061 61.3778 77.9472C61.2855 77.8884 61.2096 77.8072 61.157 77.7112C60.9895 77.4553 60.8654 77.1735 60.7897 76.8771C60.6079 76.2746 60.4949 75.6534 60.4531 75.0254C60.3765 74.2449 60.3383 73.3038 60.3383 72.2019V70.8858L59.6726 70.8399H59.4201H58.7926H58.0734H57.5683L56.4588 70.7634C56.1834 70.7634 55.9768 70.7634 55.8543 70.7634H55.5024C55.5024 71.4826 55.5024 72.5462 55.5024 73.9695C55.5024 74.7346 55.5024 75.3697 55.5024 75.936V77.3745L55.3493 77.6729C55.254 77.8526 55.1177 78.0073 54.9514 78.1244C54.7933 78.231 54.6065 78.287 54.4158 78.2851C54.2986 78.282 54.1825 78.2614 54.0715 78.2238C53.9483 78.1776 53.8304 78.1187 53.7195 78.0479C53.6462 77.9946 53.5771 77.9358 53.5129 77.8719C53.4619 77.8221 53.4181 77.7654 53.3828 77.7035C53.2801 77.1742 53.2314 76.6358 53.2374 76.0966C53.2374 75.232 53.1915 74.0383 53.1915 72.5233C53.1915 71.0082 53.1915 69.4626 53.2451 68.2153C53.2987 66.9681 53.3293 65.8356 53.3981 64.9021C53.4998 63.1999 53.7767 61.5127 54.2245 59.8672C54.6071 58.6123 55.1045 57.8319 55.7549 57.5181L55.6401 57.3651ZM71.2803 57.5105C71.4334 57.5105 71.5787 57.434 71.7241 57.411C71.8617 57.4004 71.9998 57.4004 72.1373 57.411C72.6928 57.4123 73.2371 57.5674 73.7099 57.8591C74.1826 58.1508 74.5653 58.5678 74.8154 59.0638C75.2884 59.9875 75.6162 60.9785 75.7872 62.0021C76.1036 63.6408 76.3259 65.2963 76.4529 66.9604C76.4529 67.2436 76.4988 67.8021 76.5141 68.6362C76.5294 69.4702 76.5141 70.6027 76.5141 71.9647C76.5141 73.6022 76.5141 74.6581 76.4606 75.1172V75.4003C76.7885 75.3939 77.1149 75.4457 77.4247 75.5534C77.693 75.6501 77.9306 75.8165 78.1134 76.0354C78.2163 76.1511 78.3038 76.2797 78.3735 76.418C78.4487 76.5634 78.5053 76.7176 78.5419 76.8771C78.5843 77.0921 78.615 77.3092 78.6337 77.5275C78.6337 77.7953 78.6796 78.1091 78.7026 78.4917C78.7026 78.6064 78.7026 78.7442 78.7026 78.8972C78.7026 79.0502 78.7026 79.2109 78.7026 79.364C78.708 79.5456 78.6821 79.7268 78.626 79.8996C78.5807 80.047 78.496 80.1792 78.3812 80.2822C78.2781 80.3669 78.1618 80.4341 78.0368 80.4811C77.9211 80.5321 77.796 80.5581 77.6696 80.5576C77.5401 80.5561 77.4123 80.5274 77.2946 80.4735C77.1699 80.4205 77.0558 80.3453 76.9579 80.2516C76.7772 80.0798 76.6565 79.8544 76.6136 79.6088C76.5336 79.2388 76.4875 78.8623 76.4759 78.484C76.4759 78.1703 76.4759 77.9254 76.43 77.7571C76.3841 77.5887 76.4682 77.627 76.43 77.604H76.1622C75.9479 77.604 75.6342 77.604 75.2133 77.604C74.5017 77.604 73.7365 77.604 72.9178 77.604C72.0991 77.604 71.2268 77.6729 70.2932 77.7265L67.5386 77.8719V78.2774C67.4975 78.6689 67.4102 79.0542 67.2785 79.4252C67.175 79.7069 67.0193 79.9665 66.8193 80.1903C66.7474 80.2571 66.6707 80.3185 66.5898 80.374C66.5149 80.4237 66.4271 80.4503 66.3373 80.4505C66.1001 80.4505 65.8935 80.2745 65.7251 79.9225C65.5322 79.4945 65.3909 79.045 65.3043 78.5835C65.3043 78.4151 65.2431 78.2545 65.2278 78.1091C65.2172 77.969 65.2172 77.8283 65.2278 77.6882C65.2273 77.5306 65.2479 77.3736 65.289 77.2215C65.3235 77.0827 65.386 76.9525 65.4726 76.8389C65.5662 76.7213 65.6742 76.6159 65.794 76.5252C65.9401 76.4108 66.0935 76.306 66.2531 76.2114L66.5668 76.0201V73.1125C66.5668 71.1919 66.6663 69.5008 66.7734 68.0317C66.8613 66.7486 67.0196 65.4714 67.2478 64.2058C67.4689 63.0187 67.8178 61.8591 68.2885 60.7472C68.6462 59.8657 69.1652 59.0587 69.8188 58.3675C70.2072 57.9595 70.6872 57.65 71.2191 57.4646L71.2803 57.5105ZM82.3831 57.3651L82.5896 57.2962C82.6609 57.2883 82.7327 57.2883 82.8039 57.2962C82.9969 57.2973 83.1864 57.3473 83.3548 57.4416C83.5554 57.5417 83.7367 57.6764 83.8905 57.8395C84.0436 58.0102 84.1771 58.1976 84.2883 58.3981C84.4414 58.6506 84.625 58.9873 84.8393 59.4005C85.0535 59.8137 85.2219 60.1657 85.4361 60.4794C85.6504 60.7931 85.8723 61.168 86.1018 61.4971C86.6145 62.1704 87.0736 62.7596 87.4868 63.257C87.9 63.7543 88.252 64.1675 88.5427 64.4813L88.5963 64.5348V62.3311C88.5963 61.4588 88.5963 60.8008 88.6422 60.2575C88.6512 59.9068 88.6793 59.5568 88.7264 59.2092C88.8044 58.8471 88.9305 58.4972 89.1013 58.1685C89.1509 58.0522 89.2312 57.9515 89.3337 57.8774C89.4361 57.8033 89.5568 57.7584 89.6828 57.7477C89.8143 57.7565 89.9407 57.8021 90.0476 57.8792C90.1544 57.9563 90.2375 58.0619 90.2873 58.1838C90.4575 58.5261 90.5736 58.8926 90.6317 59.2704C90.67 59.4671 90.6905 59.6669 90.6929 59.8672C90.6929 60.1197 90.6929 60.4335 90.6929 60.7931C90.6929 61.2905 90.6929 61.7725 90.6929 62.2316C90.6929 62.6907 90.6929 63.1039 90.6164 63.5018C90.6164 63.7237 90.6164 63.9303 90.6164 64.1216C90.6164 64.3129 90.6164 64.29 90.6164 64.3741L90.7464 64.2211C90.8077 64.1369 90.9301 63.9227 91.1061 63.5937C91.2821 63.2646 91.5422 62.7749 91.8713 62.1781C92.2079 61.5353 92.5063 60.9844 92.7665 60.51C93.0267 60.0356 93.2486 59.6606 93.4169 59.3852C93.5853 59.1097 93.7766 58.8419 93.9449 58.62C94.1033 58.4156 94.28 58.2261 94.4729 58.0538C94.6366 57.9153 94.8164 57.7971 95.0085 57.7018C95.169 57.6174 95.3475 57.5728 95.5288 57.5717C95.6295 57.566 95.7302 57.5821 95.824 57.6191C95.9178 57.6561 96.0024 57.713 96.0721 57.786C96.1967 57.9534 96.259 58.1591 96.2481 58.3675C96.166 59.1606 95.8872 59.9207 95.437 60.5789C94.7223 61.7293 93.9217 62.8241 93.042 63.8538C92.7512 64.2211 92.4961 64.5425 92.2768 64.8179C92.0855 65.0857 91.9401 65.3 91.8483 65.4607C91.7627 65.6174 91.691 65.7812 91.6341 65.9504C91.5855 66.1101 91.5522 66.2741 91.5346 66.4401V66.6467C91.5409 66.8736 91.5822 67.0981 91.657 67.3124C91.763 67.632 91.8908 67.9439 92.0396 68.2459C92.0396 68.2995 92.1467 68.4755 92.2845 68.7662C92.4222 69.057 92.6517 69.5314 92.866 70.0135C93.0802 70.4956 93.3251 70.9929 93.4934 71.3449C93.6618 71.6969 93.7995 71.957 93.8913 72.1101C94.1285 72.5309 94.3657 72.9441 94.6565 73.342C94.9473 73.7399 95.1692 74.1072 95.4217 74.4974C95.5509 74.6732 95.6685 74.8572 95.7737 75.0484C95.9037 75.2703 96.0415 75.5381 96.1945 75.8135C96.334 76.086 96.4492 76.3702 96.5388 76.6629C96.6138 76.9111 96.6525 77.1688 96.6536 77.4281C96.662 77.5471 96.6452 77.6665 96.6043 77.7785C96.5634 77.8906 96.4994 77.9928 96.4164 78.0785C96.3265 78.1594 96.2212 78.2214 96.1069 78.2608C95.9925 78.3002 95.8714 78.3163 95.7507 78.308C95.5563 78.3068 95.3648 78.2596 95.1921 78.1703C95.0059 78.0751 94.8376 77.9482 94.6948 77.7953C94.5041 77.5785 94.3325 77.3455 94.1821 77.099C93.9831 76.8006 93.7689 76.4333 93.5317 75.9895C93.2103 75.3927 92.9042 74.8112 92.6288 74.2373C92.3533 73.6634 92.0932 73.0895 91.8636 72.5309C91.481 71.6357 91.1749 70.9394 90.9454 70.4496C90.8765 70.289 90.8077 70.1512 90.7541 70.0364C90.7541 70.3349 90.7541 70.7557 90.7541 71.3066C90.7541 71.8576 90.8 72.837 90.8383 73.8929C90.8383 74.1378 90.8383 74.4056 90.8383 74.704C90.8383 75.0024 90.8383 75.3544 90.8383 75.6758C90.8432 76.1126 90.8253 76.5493 90.7847 76.9843C90.7649 77.2709 90.7083 77.5538 90.6164 77.826C90.5571 78.0043 90.4576 78.1666 90.3256 78.3004C90.2086 78.4201 90.0492 78.4889 89.8818 78.4917C89.8032 78.4897 89.7255 78.4742 89.6522 78.4457C89.5602 78.4174 89.4706 78.3816 89.3844 78.3386C89.2025 78.247 89.0451 78.1132 88.9253 77.9484C88.8005 77.7834 88.7142 77.5925 88.6728 77.3898C88.5867 76.9922 88.538 76.5875 88.5274 76.1808C88.5274 75.6375 88.4815 74.9412 88.4815 74.1072C88.4815 73.5792 88.4815 72.9747 88.4815 72.3014C88.4815 71.628 88.4815 70.9394 88.5351 70.1895C88.5351 70.1359 88.5351 70.0671 88.5351 69.9829C88.5351 69.8987 88.5351 69.8298 88.5351 69.761C88.5351 69.6921 88.5351 69.6079 88.5351 69.5697C88.5383 69.5392 88.5383 69.5084 88.5351 69.4779V69.4626C88.3193 69.7002 88.1248 69.9563 87.9535 70.2277C87.5556 70.8016 87.02 71.6357 86.339 72.7528C85.7269 73.7374 85.2168 74.5561 84.8087 75.209C84.4261 75.8518 84.1736 76.3109 84.0435 76.5787C83.7761 77.1108 83.439 77.6048 83.0411 78.0479C82.9167 78.199 82.7632 78.3237 82.5897 78.4144C82.4162 78.5051 82.2262 78.56 82.0311 78.5758C81.9343 78.5686 81.839 78.548 81.748 78.5146C81.5723 78.441 81.4305 78.3046 81.3501 78.132C81.2581 77.9414 81.2135 77.7314 81.22 77.5199C81.22 77.0072 81.6638 75.9895 82.5514 74.4974C83.439 73.0053 84.7245 71.0465 86.4614 68.5903L87.6857 66.8686L87.2343 66.4019C86.5762 65.7285 85.9488 65.0169 85.3366 64.2594C84.7245 63.5018 84.1506 62.729 83.592 61.872C83.1292 61.1781 82.7076 60.4576 82.3295 59.7142C82.0886 59.2805 81.9426 58.8006 81.901 58.3063C81.8867 58.2176 81.8867 58.1272 81.901 58.0385C81.9282 57.946 81.9641 57.8564 82.0081 57.7707C82.0538 57.6883 82.105 57.6091 82.1611 57.5334C82.21 57.4701 82.2696 57.4157 82.3371 57.3728L82.3831 57.3651ZM101.627 57.3651C101.724 57.3157 101.827 57.2797 101.933 57.258C102.058 57.2417 102.184 57.2417 102.308 57.258C102.629 57.2638 102.946 57.3313 103.242 57.4569C103.594 57.6082 103.926 57.8036 104.229 58.0385C104.533 58.2744 104.822 58.53 105.094 58.8036C105.319 59.0366 105.519 59.2931 105.69 59.5688C106.066 60.149 106.378 60.7671 106.624 61.4129C106.948 62.2521 107.219 63.1108 107.435 63.9839C107.695 64.971 107.917 66.0193 108.108 67.1211C108.3 68.223 108.46 69.4167 108.59 70.6486C108.644 71.1383 108.682 71.6969 108.713 72.309C108.743 72.9212 108.751 73.6022 108.751 74.3291C108.751 74.7525 108.751 75.1198 108.751 75.4309C108.751 75.7447 108.751 75.9972 108.698 76.1961C108.656 76.5479 108.587 76.8959 108.491 77.2368C108.431 77.4854 108.321 77.7195 108.17 77.9254C108.114 77.9983 108.044 78.0583 107.963 78.1014C107.884 78.1465 107.794 78.1702 107.703 78.1703C107.593 78.1623 107.486 78.1275 107.393 78.0688C107.3 78.0101 107.222 77.9293 107.167 77.8336C107.006 77.5755 106.884 77.2942 106.808 76.9996C106.626 76.3966 106.511 75.7757 106.463 75.1478C106.394 74.3827 106.356 73.4262 106.356 72.3243V70.8858L105.69 70.8399H105.438H104.803H104.091H103.586L102.477 70.7634C102.193 70.7634 101.995 70.7634 101.872 70.7634H101.459C101.459 71.0694 101.459 71.4826 101.459 71.9953C101.459 72.508 101.459 73.2196 101.459 73.9695C101.459 74.7193 101.459 75.3697 101.459 75.9283C101.459 76.4869 101.459 76.9077 101.459 77.3362L101.314 77.6347C101.224 77.8156 101.089 77.9708 100.923 78.0861C100.762 78.1929 100.573 78.2489 100.38 78.2468C100.265 78.2431 100.152 78.2225 100.043 78.1856C99.9195 78.141 99.8014 78.0819 99.6914 78.0096C99.618 77.9564 99.549 77.8975 99.4848 77.8336C99.4338 77.7838 99.39 77.7272 99.3547 77.6653C99.252 77.1359 99.2033 76.5976 99.2093 76.0584C99.2093 75.1937 99.1634 74.0001 99.1634 72.485C99.1634 70.97 99.1634 69.4243 99.217 68.1771C99.2705 66.9298 99.3011 65.7974 99.37 64.8638C99.4716 63.1616 99.7486 61.4744 100.196 59.829C100.579 58.5741 101.076 57.7936 101.727 57.4799L101.627 57.3651ZM114.061 70.1742C114.061 70.4802 114.061 70.8475 114.061 71.299C114.061 71.7504 114.008 72.2478 113.962 72.8293C113.916 73.4109 113.885 73.9082 113.87 74.3597C113.855 74.8112 113.832 75.1708 113.832 75.4845C113.83 75.9959 113.799 76.5069 113.74 77.0149C113.716 77.3237 113.633 77.6251 113.495 77.9025C113.399 78.0822 113.256 78.2328 113.082 78.3386C112.911 78.4338 112.719 78.4837 112.523 78.4837C112.328 78.4837 112.136 78.4338 111.965 78.3386C111.798 78.2461 111.658 78.1116 111.559 77.9484C111.397 77.6528 111.295 77.3275 111.261 76.9919C111.191 76.5003 111.157 76.0041 111.161 75.5075C111.161 75.0713 111.161 74.5357 111.238 73.8929C111.314 73.2502 111.36 72.5156 111.452 71.6663C111.498 71.2837 111.529 70.5797 111.552 69.5467C111.575 68.5137 111.552 67.1594 111.552 65.4377C111.552 61.9944 111.526 60.1044 111.475 59.7678C111.437 59.5076 111.414 59.2857 111.399 59.1174C111.391 58.9874 111.391 58.8571 111.399 58.7271C111.385 58.4177 111.471 58.1121 111.643 57.8548C111.819 57.6179 112.08 57.4587 112.37 57.411C112.406 57.4031 112.442 57.4031 112.477 57.411H112.615C112.911 57.4069 113.197 57.5133 113.419 57.7094C113.671 57.9337 113.863 58.2179 113.977 58.5358C114.089 58.888 114.153 59.2533 114.169 59.6224C114.207 60.1121 114.23 60.7472 114.23 61.5277C114.23 61.5736 114.23 61.6731 114.23 61.8261C114.23 61.9791 114.23 62.1169 114.23 62.3005C114.23 62.4841 114.23 62.6601 114.23 62.8055C114.23 62.9509 114.23 63.058 114.23 63.2034C114.23 63.6778 114.23 64.1905 114.23 64.7338C114.23 64.9939 114.23 65.2311 114.23 65.4301C114.23 65.629 114.23 65.7897 114.23 65.958V66.4019H114.398H114.949L116.212 66.3024L116.701 66.2488L117.229 66.2029L117.719 66.157H118.071H118.293H118.354V63.1881V61.4205C118.354 60.6554 118.354 60.0432 118.423 59.5688C118.435 59.2247 118.508 58.8855 118.637 58.5664C118.731 58.3787 118.874 58.22 119.05 58.1073C119.223 58.0017 119.422 57.9485 119.624 57.9543C119.691 57.961 119.757 57.9712 119.823 57.9849C119.944 58.0193 120.061 58.0628 120.175 58.115C120.399 58.2168 120.578 58.3962 120.68 58.62L120.826 58.9184L120.749 60.9691C120.749 61.2369 120.749 61.5047 120.749 61.7878C120.749 62.0709 120.749 62.3464 120.749 62.6907C120.749 63.0351 120.749 63.2646 120.749 63.4559C120.749 63.6472 120.749 63.8997 120.787 64.0834C120.787 64.3971 120.833 65.1317 120.849 66.3024C120.864 67.4731 120.849 69.0723 120.849 71.0235V73.2885C120.849 74.2373 120.849 75.0178 120.849 75.6452C120.849 76.2726 120.849 76.6246 120.849 76.8083C120.837 76.9821 120.807 77.1541 120.757 77.3209C120.709 77.4613 120.63 77.5893 120.527 77.6959C120.396 77.8289 120.236 77.9308 120.06 77.9943C119.868 78.058 119.666 78.0891 119.464 78.0861C119.33 78.0863 119.198 78.063 119.073 78.0172C118.945 77.962 118.824 77.8899 118.714 77.803C118.606 77.7138 118.513 77.6079 118.438 77.4893C118.37 77.371 118.323 77.2414 118.3 77.1067V76.4257L118.377 68.6056L117.719 68.6515C117.336 68.6515 116.862 68.7433 116.28 68.8198C115.699 68.8963 115.224 68.9499 114.85 68.9882C114.475 69.0264 114.237 69.0417 114.084 69.0417C114.084 69.0417 114.161 69.1029 114.153 69.2254C114.146 69.3478 114.153 69.7686 114.153 70.2048L114.061 70.1742ZM125.348 59.0562C125.762 58.552 126.285 58.149 126.878 57.8778C127.508 57.6044 128.189 57.4688 128.875 57.4799C129.116 57.4797 129.356 57.495 129.595 57.5258C129.827 57.558 130.057 57.6066 130.283 57.6712C130.912 57.8813 131.488 58.223 131.974 58.6736C132.505 59.1774 132.948 59.7672 133.283 60.4182C133.674 61.1726 133.972 61.9717 134.17 62.7979C134.395 63.7579 134.533 64.7361 134.583 65.7208V66.1646C134.582 67.1138 134.52 68.0619 134.4 69.0035C134.272 70.0052 134.088 70.9989 133.849 71.98C133.803 72.2019 133.765 72.3549 133.749 72.4391C133.753 72.4824 133.753 72.5259 133.749 72.5692C133.676 73.001 133.558 73.4241 133.397 73.8317C133.21 74.3301 132.99 74.8158 132.739 75.2856C132.302 76.1865 131.682 76.9865 130.918 77.6347C130.305 78.135 129.537 78.4057 128.745 78.3998C128.194 78.4054 127.649 78.2823 127.154 78.0402C126.501 77.6984 125.93 77.2209 125.478 76.6399C124.956 75.9632 124.543 75.2094 124.254 74.4056C123.903 73.4902 123.647 72.5416 123.488 71.5745C123.316 70.5069 123.231 69.4269 123.236 68.3454C123.221 66.7813 123.326 65.2183 123.55 63.6702C123.696 62.548 124.011 61.4543 124.483 60.4258C124.535 60.3356 124.579 60.2409 124.613 60.1427C124.629 60.1082 124.642 60.0724 124.651 60.0356C124.679 59.8883 124.745 59.7509 124.843 59.6377C124.958 59.477 125.118 59.2627 125.34 58.9873L125.348 59.0562ZM137.843 58.2145C138.113 57.9278 138.458 57.7213 138.838 57.6176C139.321 57.4823 139.821 57.4179 140.322 57.4263C140.67 57.4259 141.018 57.4489 141.363 57.4952C141.693 57.5408 142.02 57.6073 142.342 57.6941C142.631 57.7746 142.913 57.8795 143.184 58.0079C143.403 58.1149 143.606 58.2513 143.789 58.4134C144.36 58.9245 144.8 59.5646 145.074 60.2804C145.364 61.1245 145.504 62.0127 145.487 62.905C145.487 63.0427 145.487 63.1728 145.487 63.2952C145.493 63.3895 145.493 63.4841 145.487 63.5783C145.467 63.902 145.426 64.2241 145.365 64.5425C145.318 64.7818 145.238 65.0135 145.128 65.2311C145.02 65.4313 144.883 65.6144 144.722 65.7744C144.526 65.9712 144.314 66.1504 144.087 66.31H144.033C143.902 66.3918 143.786 66.4953 143.689 66.6161C143.689 66.6161 143.689 66.6161 143.743 66.662L144.148 66.8151C144.271 66.8151 144.385 66.8916 144.493 66.9145C144.807 67.0003 145.108 67.1291 145.388 67.2971C145.681 67.483 145.951 67.7039 146.191 67.9552C146.538 68.3181 146.851 68.7126 147.125 69.1335C147.402 69.5599 147.641 70.0106 147.836 70.4803C148.031 70.937 148.182 71.4109 148.288 71.8958C148.387 72.3586 148.439 72.8304 148.441 73.3038C148.449 73.8269 148.355 74.3466 148.165 74.8341C147.981 75.2945 147.699 75.7096 147.339 76.0507C146.87 76.5003 146.323 76.8607 145.724 77.1143C144.967 77.4429 144.181 77.6991 143.375 77.8795C142.495 78.1091 141.692 78.2774 140.957 78.3922C140.297 78.528 139.626 78.6124 138.953 78.6447C138.55 78.6564 138.148 78.61 137.759 78.507C137.622 78.4759 137.493 78.4171 137.38 78.3342C137.267 78.2513 137.172 78.146 137.101 78.0249C137.061 77.9458 137.035 77.8604 137.024 77.7724C137.016 77.6654 137.016 77.558 137.024 77.451V77.2827C137.024 77.1909 137.024 77.0761 137.024 76.9383C137.024 76.8006 137.024 76.6552 137.024 76.5252V76.1426C137.024 75.9666 137.024 75.5457 137.086 74.88C137.147 74.2143 137.147 73.2961 137.2 72.133C137.254 70.97 137.285 69.8834 137.307 68.8887C137.33 67.8939 137.307 66.991 137.307 66.1417C137.307 64.8638 137.307 63.8462 137.307 63.081C137.307 62.3158 137.307 61.7572 137.246 61.4282C137.246 61.3211 137.246 61.1833 137.246 61.0227C137.246 60.862 137.246 60.6783 137.246 60.5023C137.239 60.047 137.285 59.5924 137.384 59.148C137.46 58.8084 137.615 58.4914 137.835 58.2221L137.843 58.2145ZM153.346 57.3651C153.442 57.3157 153.545 57.2797 153.652 57.258C153.776 57.2417 153.902 57.2417 154.027 57.258C154.348 57.2638 154.665 57.3313 154.96 57.4569C155.312 57.6082 155.644 57.8036 155.947 58.0385C156.252 58.2744 156.541 58.53 156.812 58.8036C157.038 59.0366 157.238 59.2931 157.409 59.5688C157.784 60.149 158.097 60.7671 158.342 61.4129C158.666 62.2521 158.937 63.1108 159.153 63.9839C159.413 64.971 159.635 66.0193 159.827 67.1211C160.018 68.223 160.179 69.4167 160.309 70.6486C160.362 71.1383 160.401 71.6969 160.431 72.309C160.462 72.9212 160.469 73.6022 160.469 74.3291C160.469 74.7525 160.469 75.1198 160.469 75.4309C160.469 75.7447 160.469 75.9972 160.416 76.1961C160.372 76.5482 160.301 76.8962 160.202 77.2368C160.141 77.4854 160.032 77.7195 159.88 77.9254C159.825 77.9983 159.754 78.0583 159.674 78.1014C159.594 78.1465 159.505 78.1702 159.413 78.1703C159.303 78.1623 159.197 78.1275 159.104 78.0688C159.01 78.0101 158.933 77.9293 158.878 77.8336C158.716 77.5755 158.595 77.2942 158.518 76.9996C158.337 76.3966 158.221 75.7757 158.174 75.1478C158.105 74.3827 158.067 73.4262 158.067 72.3243V70.8858L157.401 70.8399H157.149H156.513H155.802H155.297L154.187 70.7634C153.904 70.7634 153.705 70.7634 153.583 70.7634H153.231C153.231 71.0694 153.231 71.4826 153.231 71.9953C153.231 72.508 153.231 73.2196 153.231 73.9695C153.231 74.7193 153.231 75.3697 153.231 75.936C153.231 76.5022 153.231 76.9077 153.231 77.3362L153.085 77.6347C152.99 77.8143 152.854 77.969 152.688 78.0861C152.527 78.1929 152.337 78.2489 152.144 78.2468C152.03 78.2431 151.916 78.2225 151.808 78.1856C151.684 78.141 151.566 78.0819 151.456 78.0096C151.382 77.9564 151.313 77.8975 151.249 77.8336C151.198 77.7838 151.154 77.7272 151.119 77.6653C151.016 77.1359 150.968 76.5976 150.974 76.0584C150.974 75.1937 150.928 74.0001 150.928 72.485C150.928 70.97 150.928 69.4243 150.981 68.1771C151.035 66.9298 151.065 65.7974 151.134 64.8638C151.236 63.1616 151.513 61.4744 151.961 59.829C152.236 58.4593 152.726 57.6788 153.346 57.3651Z" fill="white"/>
</g>
<defs>
<clipPath id="clip0_416_28236">
<rect width="148.613" height="73.0362" fill="white" transform="translate(13.4636 7.48315)"/>
</clipPath>
</defs>
</svg>
