<svg width="90" height="49" viewBox="0 0 90 49" fill="none" xmlns="http://www.w3.org/2000/svg">
<path fill-rule="evenodd" clip-rule="evenodd" d="M20.3678 0.188948C20.1896 0.221 20.026 0.307943 19.8997 0.437616C19.8952 0.442256 19.891 0.447146 19.887 0.452262C19.4632 0.998469 19.0204 1.51723 18.7013 1.89111L18.6692 1.9287C18.5101 2.11512 18.3817 2.266 18.3086 2.35984C18.2902 2.38356 18.2736 2.40567 18.2604 2.42501C18.2508 2.43911 18.2316 2.46749 18.2206 2.49895C17.0885 3.57045 16.417 4.0858 15.144 5.05406C13.2192 6.3323 11.5599 7.97086 10.2578 9.87961L10.2535 9.88668C9.65765 10.8568 9.30003 11.9842 9.33599 13.0536C9.37083 14.0895 9.77601 15.0705 10.686 15.7848C10.3013 16.8651 9.99711 17.9725 9.77607 19.0979C9.6926 19.4446 9.59417 19.8802 9.53241 20.3249C9.47074 20.769 9.44384 21.2339 9.51083 21.6337C9.5776 22.0323 9.74406 22.3988 10.0983 22.5913C10.449 22.7817 10.932 22.7735 11.563 22.5496L11.576 22.5437C12.7935 21.9952 13.6756 20.8565 14.1774 19.5907C14.6785 18.3267 14.8111 16.9098 14.5034 15.7751C14.3563 15.1148 13.8903 14.7624 13.4161 14.4835C13.3109 14.4217 13.2031 14.3622 13.0976 14.304L13.0974 14.304L13.0973 14.3039L13.0563 14.2813C12.9367 14.2153 12.8203 14.1504 12.7082 14.082C12.4857 13.9463 12.2885 13.8019 12.1335 13.6235C11.5762 12.8613 11.8409 11.8695 12.4758 10.8593C13.1024 9.86224 14.0442 8.92422 14.6819 8.33572C16.8387 6.62289 18.3022 5.30246 20.1988 3.30168L20.2016 3.29861C20.6601 2.79114 20.7962 2.55027 20.8967 2.27787C20.9149 2.22863 20.9315 2.17952 20.9489 2.12813L20.949 2.12793L20.949 2.12785L20.9492 2.12736L20.9493 2.12718C21.021 1.91556 21.106 1.66495 21.3627 1.20594C21.3739 1.1859 21.381 1.16384 21.3836 1.14104C21.404 0.961197 21.3677 0.779483 21.2798 0.621311C21.1919 0.463134 21.0567 0.336401 20.8931 0.258871C20.7296 0.181342 20.5459 0.156897 20.3678 0.188948ZM11.7124 16.3786C11.5798 17.6395 11.4495 18.9036 11.3976 20.1658C11.9692 19.4991 12.3158 18.664 12.3804 17.7805L12.381 17.7742C12.3815 17.7697 12.3822 17.7652 12.383 17.7607C12.4572 17.3715 12.4057 16.9693 12.2367 16.6119C12.1338 16.5553 12.0212 16.5078 11.8996 16.4574L11.8784 16.4487C11.8244 16.4263 11.7686 16.4032 11.7124 16.3786ZM67.4946 22.4018C67.195 22.4018 66.9328 22.3001 66.7081 22.0968C66.4726 21.8828 66.3442 21.6206 66.3228 21.3103L66.1463 19.2557C66.1142 18.8811 66.0767 18.5226 66.0339 18.1802C65.9911 17.827 65.9429 17.4739 65.8894 17.1208C65.8359 16.7676 65.7771 16.4091 65.7129 16.0453C65.6379 15.6708 65.5523 15.2748 65.456 14.8575C65.4346 14.7933 65.4186 14.7291 65.4079 14.6648C65.3972 14.6006 65.3918 14.5364 65.3918 14.4722C65.3918 14.3438 65.4186 14.2154 65.4721 14.087C65.5256 13.9586 65.6005 13.8409 65.6968 13.7338C65.7931 13.6268 65.9108 13.5412 66.0499 13.477C66.1784 13.4128 66.3228 13.3807 66.4833 13.3807C66.7295 13.3807 66.9381 13.4503 67.1094 13.5894C67.2913 13.7178 67.4411 13.8944 67.5588 14.1191C67.6872 14.3331 67.7889 14.5792 67.8638 14.8575C67.9494 15.125 68.0136 15.4032 68.0564 15.6922C68.1099 15.9704 68.1527 16.2433 68.1848 16.5108C68.2169 16.7783 68.249 17.0138 68.2812 17.2171L70.8494 16.6232C70.7852 15.842 70.7424 15.2534 70.721 14.8575C70.6996 14.4508 70.6889 14.1726 70.6889 14.0228C70.6889 13.8516 70.7264 13.7071 70.8013 13.5894C70.8869 13.4717 70.9885 13.3807 71.1063 13.3165C71.224 13.2416 71.3577 13.1881 71.5076 13.156C71.6574 13.1239 71.7965 13.1078 71.9249 13.1078C72.1068 13.1078 72.2834 13.172 72.4546 13.3004C72.6365 13.4289 72.7703 13.7231 72.8559 14.1833C72.888 14.3438 72.9148 14.5257 72.9362 14.7291C72.9683 14.9217 73.0004 15.1624 73.0325 15.4514C73.0753 15.7403 73.1127 16.0881 73.1448 16.4947C73.1876 16.9014 73.2358 17.3936 73.2893 17.9715C73.3 18.0892 73.3214 18.2283 73.3535 18.3889C73.3963 18.5387 73.4498 18.6992 73.514 18.8704C73.5782 19.0309 73.6478 19.1914 73.7227 19.352C73.8083 19.5018 73.8993 19.6409 73.9956 19.7693C74.1133 19.673 74.2257 19.5499 74.3327 19.4001C74.4397 19.2503 74.5574 19.1005 74.6858 18.9507C74.8142 18.8009 74.9587 18.6724 75.1192 18.5654C75.2904 18.4584 75.4937 18.4049 75.7292 18.4049C76.0502 18.4049 76.3284 18.5226 76.5639 18.758C76.81 18.9828 76.9331 19.2664 76.9331 19.6088C76.9331 19.7265 76.917 19.8442 76.8849 19.9619C76.8635 20.0689 76.8153 20.1706 76.7404 20.2669C76.5264 20.5558 76.3177 20.8234 76.1144 21.0695C75.9218 21.3156 75.7185 21.5297 75.5044 21.7116C75.3011 21.8828 75.0817 22.0219 74.8463 22.1289C74.6216 22.2252 74.3755 22.2734 74.1079 22.2734C73.7655 22.2734 73.4338 22.1931 73.1127 22.0326C72.7917 21.8614 72.4974 21.626 72.2299 21.3263C71.9624 21.0267 71.7269 20.6789 71.5236 20.283C71.331 19.8763 71.1865 19.4322 71.0902 18.9507L68.5219 19.5606C68.5326 19.6034 68.5433 19.7051 68.554 19.8656C68.5754 20.0154 68.5915 20.1813 68.6022 20.3632C68.6129 20.5344 68.6236 20.695 68.6343 20.8448C68.645 20.9946 68.6503 21.0802 68.6503 21.1016V21.1979C68.6503 21.5297 68.5326 21.8132 68.2972 22.0487C68.0725 22.2841 67.8049 22.4018 67.4946 22.4018ZM56.0733 21.6474C56.3087 21.8079 56.6083 21.8882 56.9722 21.8882C57.4109 21.8882 57.7854 21.8239 58.0958 21.6955C58.4061 21.5564 58.6629 21.3745 58.8663 21.1498C59.0803 20.9143 59.2462 20.6361 59.3639 20.3151C59.4816 19.994 59.5725 19.6409 59.6367 19.2557C59.6903 19.6623 59.7759 20.0475 59.8936 20.4114C60.0113 20.7752 60.1718 21.0963 60.3751 21.3745C60.5784 21.642 60.8299 21.856 61.1296 22.0166C61.4292 22.1771 61.793 22.2573 62.2211 22.2573C62.5207 22.2573 62.8043 22.2252 63.0718 22.161C63.3394 22.0968 63.6015 21.9898 63.8584 21.84C64.1152 21.6902 64.3774 21.4976 64.6449 21.2621C64.9124 21.016 65.196 20.7217 65.4956 20.3793C65.6134 20.2509 65.6883 20.0957 65.7204 19.9138C65.7525 19.7319 65.7685 19.5981 65.7685 19.5125C65.7685 19.352 65.7311 19.2075 65.6562 19.0791C65.5812 18.9507 65.4796 18.8437 65.3512 18.7581C65.2335 18.6617 65.0943 18.5922 64.9338 18.5494C64.784 18.5066 64.6342 18.4852 64.4844 18.4852C64.1954 18.4852 63.96 18.5601 63.7781 18.7099C63.7246 18.7527 63.6443 18.8437 63.5373 18.9828C63.4303 19.1112 63.3126 19.2503 63.1842 19.4001C63.0665 19.5392 62.9434 19.6677 62.815 19.7854C62.6973 19.9031 62.5903 19.9619 62.494 19.9619C62.4512 19.9619 62.4083 19.9405 62.3655 19.8977C62.3227 19.8549 62.2746 19.7533 62.2211 19.5927C62.1676 19.4215 62.098 19.1647 62.0124 18.8223C61.9375 18.4798 61.8465 18.009 61.7395 17.4097C61.6432 16.8532 61.5523 16.3824 61.4666 15.9971C61.381 15.6012 61.2847 15.2855 61.1777 15.0501C61.0707 14.804 60.9369 14.6274 60.7764 14.5204C60.6159 14.4027 60.4072 14.3438 60.1504 14.3438C60.0541 14.3438 59.9417 14.3599 59.8133 14.392C59.6956 14.4241 59.5779 14.4776 59.4602 14.5525C59.3532 14.6167 59.2568 14.713 59.1712 14.8414C59.0963 14.9591 59.0589 15.1089 59.0589 15.2909C59.0589 15.43 59.0696 15.6012 59.091 15.8045C59.1124 15.9971 59.1231 16.1737 59.1231 16.3342C59.1231 16.5162 59.0589 16.7248 58.9305 16.9603C58.8021 17.1957 58.6415 17.4258 58.4489 17.6505C58.267 17.8752 58.0797 18.0839 57.8871 18.2765C57.6945 18.4584 57.534 18.5975 57.4055 18.6938C57.2771 18.2016 57.1594 17.704 57.0524 17.201C56.9561 16.6874 56.833 16.2272 56.6832 15.8206C56.5441 15.4032 56.3675 15.0661 56.1535 14.8093C55.9395 14.5418 55.6613 14.408 55.3188 14.408C55.0834 14.408 54.864 14.4829 54.6607 14.6327C54.4681 14.7826 54.3718 15.034 54.3718 15.3872C54.3718 15.537 54.3771 15.7136 54.3878 15.9169C54.4092 16.1202 54.4199 16.2968 54.4199 16.4466C54.4199 16.5964 54.3771 16.7248 54.2915 16.8318C54.2166 16.9389 54.131 17.0673 54.0347 17.2171C53.9384 16.8104 53.8046 16.4145 53.6334 16.0293C53.4729 15.644 53.2749 15.3016 53.0395 15.0019C52.804 14.6916 52.5419 14.4455 52.2529 14.2636C51.964 14.0816 51.6483 13.9907 51.3059 13.9907C51.0276 13.9907 50.728 14.0602 50.407 14.1993C50.0859 14.3385 49.7488 14.5257 49.3957 14.7612C49.0533 14.9859 48.7055 15.2481 48.3523 15.5477C47.9992 15.8473 47.6568 16.163 47.325 16.4948C46.8693 17.7305 47.2312 18.1887 48.5289 18.7581C48.8178 18.4905 49.1068 18.2283 49.3957 17.9715C49.6846 17.704 49.9522 17.4632 50.1983 17.2492C50.4444 17.0245 50.6531 16.8425 50.8243 16.7034C51.0062 16.5536 51.1293 16.4626 51.1935 16.4305C51.3326 16.5911 51.4664 16.8372 51.5948 17.1689C51.7339 17.49 51.8195 17.8806 51.8516 18.3407C51.4129 18.5333 50.9902 18.742 50.5835 18.9667C50.1876 19.1915 49.8291 19.4322 49.5081 19.6891C49.1977 19.9352 48.9463 20.1974 48.7536 20.4756C48.5717 20.7431 48.4808 21.0214 48.4808 21.3103C48.4808 21.3959 48.4915 21.4601 48.5129 21.5029C48.5343 21.5564 48.5878 21.6795 48.6734 21.8721C48.759 22.054 48.9034 22.2466 49.1068 22.45C49.3101 22.664 49.5776 22.8513 49.9094 23.0118C50.2411 23.1723 50.6638 23.2526 51.1774 23.2526C51.6697 23.2526 52.0817 23.1295 52.4134 22.8834C52.7559 22.6372 53.0395 22.3269 53.2642 21.9524C53.4889 21.5778 53.6655 21.1658 53.7939 20.7164C53.9223 20.2669 54.0293 19.8389 54.1149 19.4322L54.7409 18.8062C54.848 19.245 54.955 19.6516 55.062 20.0261C55.1797 20.4007 55.3188 20.7271 55.4793 21.0053C55.6398 21.2728 55.8378 21.4869 56.0733 21.6474ZM51.1293 21.519C51.0223 21.6046 50.8992 21.6474 50.7601 21.6474C50.6638 21.6474 50.5782 21.6206 50.5033 21.5671C50.4284 21.5029 50.3909 21.4119 50.3909 21.2942C50.3909 21.2193 50.4337 21.1284 50.5193 21.0214C50.6156 20.9143 50.7333 20.8127 50.8725 20.7164C51.0116 20.6094 51.156 20.5237 51.3059 20.4595C51.4557 20.3846 51.5895 20.3472 51.7072 20.3472C51.6858 20.4756 51.6537 20.6147 51.6108 20.7645C51.568 20.9143 51.5038 21.0588 51.4182 21.1979C51.3433 21.3263 51.247 21.4334 51.1293 21.519ZM40.6575 13.8141C40.2937 13.6429 39.8603 13.5573 39.3573 13.5573C38.6832 13.5573 38.116 13.6911 37.6559 13.9586C37.2064 14.2261 36.8426 14.5686 36.5643 14.9859C36.2861 15.3925 36.0881 15.8366 35.9704 16.3182C35.842 16.7998 35.7778 17.2546 35.7778 17.6826C35.7778 18.3889 35.9223 19.0577 36.2112 19.6891C36.4894 20.3097 36.88 20.8555 37.383 21.3264C37.8752 21.7865 38.4531 22.1503 39.1166 22.4179C39.7907 22.6961 40.5184 22.8352 41.2996 22.8352C41.6634 22.8352 42.038 22.7924 42.4232 22.7068C42.8192 22.6212 43.1991 22.4874 43.5629 22.3055C43.9374 22.1129 44.2959 21.8775 44.6384 21.5992C44.9808 21.3103 45.2912 20.9732 45.5694 20.588C45.6871 20.4382 45.7834 20.2776 45.8583 20.1064C45.9439 19.9352 45.9867 19.764 45.9867 19.5928C45.9867 19.2717 45.8744 18.9935 45.6496 18.7581C45.4249 18.5226 45.136 18.4049 44.7828 18.4049C44.6651 18.4049 44.5581 18.4156 44.4618 18.437C44.3655 18.4584 44.2638 18.5066 44.1568 18.5815C44.0498 18.6457 43.9321 18.742 43.8037 18.8704C43.686 18.9988 43.5469 19.1754 43.3863 19.4001C43.1081 19.764 42.7924 20.0315 42.4393 20.2027C42.0861 20.3633 41.7062 20.4435 41.2996 20.4435C41.0428 20.4435 40.8288 20.4275 40.6575 20.3954C40.497 20.3633 40.3044 20.2776 40.0797 20.1385C40.3793 19.9245 40.6575 19.6784 40.9144 19.4001C41.1819 19.1112 41.412 18.8009 41.6046 18.4691C41.7972 18.1374 41.947 17.795 42.054 17.4418C42.1717 17.0887 42.2306 16.7409 42.2306 16.3985C42.2306 16.056 42.1717 15.7136 42.054 15.3711C41.947 15.0287 41.7758 14.7237 41.5404 14.4562C41.3157 14.1887 41.0214 13.9746 40.6575 13.8141ZM38.7955 16.1095C38.9453 16.0025 39.1326 15.949 39.3573 15.949C39.5821 15.949 39.7158 16.0025 39.7586 16.1095C39.8014 16.2165 39.8228 16.3128 39.8228 16.3985C39.8228 16.559 39.7747 16.7409 39.6784 16.9442C39.5821 17.1368 39.459 17.3348 39.3092 17.5381C39.1594 17.7308 38.9935 17.9127 38.8116 18.0839C38.6404 18.2444 38.4745 18.3728 38.314 18.4691C38.2284 18.2123 38.1856 17.9448 38.1856 17.6666C38.1856 17.4632 38.2016 17.2599 38.2337 17.0566C38.2765 16.8533 38.3407 16.6713 38.4263 16.5108C38.5226 16.3396 38.6457 16.2058 38.7955 16.1095ZM26.4103 21.2895C26.4038 20.5507 26.3995 19.7968 26.3973 19.0277C26.3391 19.125 26.2788 19.2203 26.2166 19.3138C26.1288 19.4598 26.049 19.5783 25.9784 19.6607L25.9756 19.664C25.9117 19.7358 25.8405 19.7972 25.7617 19.8462C25.7403 19.933 25.708 20.0197 25.6646 20.1064C25.5897 20.2776 25.4934 20.4382 25.3757 20.588C25.0974 20.9732 24.7871 21.3103 24.4447 21.5992C24.1022 21.8775 23.7437 22.1129 23.3692 22.3055C23.0054 22.4874 22.6255 22.6212 22.2295 22.7068C21.8443 22.7924 21.4697 22.8352 21.1059 22.8352C20.3247 22.8352 19.597 22.6961 18.9228 22.4179C18.2594 22.1503 17.6815 21.7865 17.1893 21.3264C16.6863 20.8555 16.2957 20.3097 16.0175 19.6891C15.7285 19.0577 15.5841 18.3889 15.5841 17.6826C15.5841 17.2546 15.6483 16.7998 15.7767 16.3182C15.8944 15.8366 16.0924 15.3925 16.3706 14.9859C16.6488 14.5686 17.0127 14.2261 17.4621 13.9586C17.9223 13.6911 18.4894 13.5573 19.1636 13.5573C19.6666 13.5573 20.1 13.6429 20.4638 13.8141C20.8277 13.9746 21.1219 14.1887 21.3467 14.4562C21.5821 14.7237 21.7533 15.0287 21.8603 15.3711C21.978 15.7136 22.0369 16.056 22.0369 16.3985C22.0369 16.7409 21.978 17.0887 21.8603 17.4418C21.7533 17.795 21.6035 18.1374 21.4109 18.4691C21.2183 18.8009 20.9882 19.1112 20.7206 19.4001C20.4638 19.6784 20.1856 19.9245 19.886 20.1385C20.1107 20.2776 20.3033 20.3633 20.4638 20.3954C20.635 20.4275 20.8491 20.4435 21.1059 20.4435C21.5125 20.4435 21.8924 20.3633 22.2456 20.2027C22.5987 20.0315 22.9144 19.764 23.1926 19.4001C23.3531 19.1754 23.4923 18.9988 23.61 18.8704C23.7384 18.742 23.8561 18.6457 23.9631 18.5815C24.0701 18.5066 24.1718 18.4584 24.2681 18.437C24.3084 18.4281 24.3506 18.421 24.3947 18.4158C24.6549 18.0151 24.8728 17.6573 25.0489 17.3422L25.0501 17.3402C25.2413 17.0056 25.4029 16.7013 25.5353 16.427L25.5382 16.4211C25.6818 16.1435 25.8107 15.881 25.925 15.6334L25.9266 15.6298C26.0537 15.3659 26.1904 15.0974 26.3367 14.8242C26.4691 14.571 26.6552 14.3721 26.9149 14.311L26.9178 14.3103C27.1039 14.2689 27.2766 14.2466 27.434 14.2466C27.5955 14.2466 27.7425 14.2609 27.8675 14.2965C28.0174 14.3266 28.149 14.4005 28.2446 14.5241C28.3482 14.646 28.402 14.8018 28.4253 14.9681C28.4582 15.1266 28.4722 15.3315 28.4722 15.5748V15.6797C28.7265 15.502 28.9776 15.3535 29.1779 15.2428C29.7557 14.8207 30.4545 14.5937 31.1728 14.5948C31.8965 14.5958 32.6019 14.8283 33.1854 15.2577L33.1982 15.2671L33.2097 15.2781C33.8223 15.8677 34.2335 16.6343 34.384 17.4684C34.5341 18.2994 34.4178 19.155 34.0515 19.9136C33.8716 20.3673 33.4166 20.7911 32.8853 21.13C32.3414 21.4769 31.6779 21.7601 31.0339 21.9107C30.3972 22.0596 29.7427 22.0874 29.2384 21.8793C28.9809 21.7731 28.7595 21.6037 28.6079 21.3575C28.5728 21.3005 28.5421 21.2405 28.5157 21.1773V21.5194C28.5157 22.5055 28.5109 23.4146 28.5012 24.2466V26.5651C28.5012 27.2905 28.4964 27.9967 28.4867 28.6836V28.9848L28.4533 29.0118C27.7544 29.5776 27.3524 29.9029 26.4248 28.9848C26.4344 27.5355 26.4393 26.0716 26.4393 24.5932C26.4393 23.483 26.4296 22.3825 26.4103 21.2917L26.4103 21.2895ZM28.9513 19.597C28.7647 19.7221 28.6154 19.8921 28.5157 20.089L28.5158 18.2136L28.5129 18.0623C28.5496 18.0206 28.5816 17.9745 28.6081 17.925C28.6604 17.8271 28.6893 17.7191 28.6933 17.6093C28.9805 17.3173 29.3312 17.0939 29.7195 16.9567C29.8559 16.9121 29.9903 16.855 30.1152 16.8019L30.1152 16.8019L30.1199 16.7999C30.5815 16.6038 30.9561 16.454 31.4253 16.7027C32.0321 17.0242 32.2481 17.8002 31.9101 18.5386C31.7554 18.8765 31.46 19.1007 31.0875 19.237C30.7176 19.3724 30.2882 19.4139 29.8992 19.3941C29.5688 19.3383 29.2295 19.4105 28.9513 19.597ZM18.6018 16.1095C18.7516 16.0025 18.9389 15.949 19.1636 15.949C19.3883 15.949 19.5221 16.0025 19.5649 16.1095C19.6077 16.2165 19.6291 16.3128 19.6291 16.3985C19.6291 16.559 19.581 16.7409 19.4847 16.9442C19.3883 17.1368 19.2653 17.3348 19.1155 17.5381C18.9657 17.7308 18.7998 17.9127 18.6179 18.0839C18.4466 18.2444 18.2808 18.3728 18.1203 18.4691C18.0347 18.2123 17.9918 17.9448 17.9918 17.6666C17.9918 17.4632 18.0079 17.2599 18.04 17.0566C18.0828 16.8533 18.147 16.6713 18.2326 16.5108C18.3289 16.3396 18.452 16.2058 18.6018 16.1095ZM79.1007 12.7815C79.7512 12.4445 80.4876 12.3095 81.2153 12.3936C81.2259 12.3949 81.2362 12.397 81.2463 12.4001C82.4239 12.7623 83.1245 13.7156 83.4764 14.7991C83.8277 15.8809 83.8403 17.1144 83.6287 18.0916L83.6278 18.0958C83.4193 18.9539 82.9502 20.0005 82.2506 20.7568C81.548 21.5164 80.5927 22 79.4387 21.6616C78.8711 21.5188 78.4525 21.2385 78.15 20.8673C77.8489 20.4978 77.6694 20.0468 77.5636 19.5711C77.3755 18.725 77.4144 17.7648 77.4462 16.9815V16.9814L77.4514 16.8522C77.3501 16.817 77.2546 16.7664 77.1682 16.7018C77.0414 16.6071 76.9378 16.4848 76.8651 16.3442C76.7924 16.2036 76.7525 16.0484 76.7484 15.8902C76.7444 15.732 76.7762 15.5749 76.8416 15.4308L76.8477 15.4174C77.068 15.0246 77.3091 14.644 77.569 14.2763C77.9201 13.6373 78.4532 13.117 79.1007 12.7815ZM80.3431 14.6114C80.4493 14.5558 80.5637 14.5182 80.6818 14.4999C81.3256 15.114 81.569 16.0818 81.4591 17.0507C81.3477 18.0323 80.8774 18.975 80.1497 19.5011C79.9127 19.5256 79.7317 19.4266 79.5781 19.2274C79.4089 19.0081 79.2833 18.6767 79.1898 18.2896C79.0971 17.906 79.0401 17.4858 78.9981 17.1014C78.9824 16.9581 78.9686 16.8177 78.9557 16.6863L78.9557 16.6854L78.9553 16.6821L78.9551 16.6794C78.9377 16.5017 78.9219 16.3404 78.9052 16.2105C79.2437 15.7484 79.6103 15.3077 80.0026 14.8903L80.0096 14.8818C80.1017 14.7705 80.2151 14.6785 80.3431 14.6114ZM6.33356 14.6459C5.66339 14.3499 4.9201 14.2608 4.19895 14.3899C3.48114 14.5185 2.81782 14.8575 2.2932 15.3638C1.93604 15.638 1.59298 15.9302 1.26627 16.24L1.25645 16.2511C1.15129 16.3693 1.07432 16.5099 1.03133 16.6622C0.988339 16.8145 0.980443 16.9746 1.00824 17.1304C1.03604 17.2862 1.09882 17.4337 1.19183 17.5617C1.25521 17.649 1.3315 17.7257 1.41784 17.7893L1.37457 17.9112C1.11214 18.65 0.790454 19.5555 0.719507 20.4194C0.679626 20.905 0.717459 21.389 0.895597 21.8311C1.07459 22.2753 1.39131 22.667 1.89118 22.9715C2.89312 23.6366 3.94881 23.4577 4.84489 22.9403C5.73711 22.4252 6.4952 21.5645 6.94854 20.8068L6.95068 20.803C7.44222 19.9324 7.79558 18.7505 7.78051 17.6132C7.76542 16.4741 7.37866 15.356 6.36125 14.6613C6.35251 14.6553 6.34324 14.6501 6.33356 14.6459ZM5.20005 16.4995C5.08184 16.482 4.96138 16.4841 4.84352 16.5057C4.70136 16.5319 4.56583 16.5861 4.44483 16.6652L4.43566 16.6712C3.93735 16.9537 3.45659 17.266 2.99641 17.607C2.97387 17.7361 2.94118 17.8948 2.90515 18.0697L2.90514 18.0697L2.90512 18.0698C2.87808 18.2011 2.84916 18.3415 2.82122 18.4854C2.74753 18.865 2.67747 19.2833 2.65232 19.6771C2.62694 20.0746 2.64881 20.4283 2.74541 20.6879C2.83312 20.9236 2.97666 21.0718 3.21032 21.1187C4.06113 20.8317 4.78961 20.0706 5.18677 19.1661C5.57883 18.2732 5.63299 17.2767 5.20005 16.4995ZM87.2408 22.0005C87.2408 21.8293 87.2194 21.6634 87.1766 21.5029C87.1338 21.3317 87.1124 21.1498 87.1124 20.9571C87.1124 20.604 87.2301 20.3204 87.4655 20.1064C87.701 19.8817 88.038 19.7693 88.4768 19.7693C88.8085 19.7693 89.06 19.8442 89.2312 19.994C89.4025 20.1439 89.5255 20.3204 89.6004 20.5237C89.686 20.7164 89.7342 20.9197 89.7449 21.1337C89.7556 21.337 89.7609 21.4976 89.7609 21.6153C89.7609 21.7972 89.6967 22.054 89.5683 22.3858C89.4506 22.7282 89.2954 23.0706 89.1028 23.4131C88.9209 23.7555 88.7229 24.0498 88.5089 24.2959C88.2949 24.5527 88.0916 24.6812 87.8989 24.6812C87.8347 24.6812 87.7491 24.6544 87.6421 24.6009C87.5351 24.5581 87.4281 24.4992 87.3211 24.4243C87.2248 24.3494 87.1392 24.2585 87.0642 24.1514C87 24.0551 86.9679 23.9535 86.9679 23.8465C86.9679 23.6003 87.0054 23.3007 87.0803 22.9476C87.1659 22.6051 87.2194 22.2894 87.2408 22.0005ZM31.5236 35.2629C31.5172 34.5241 31.5129 33.7701 31.5107 33.001C31.4524 33.0983 31.3922 33.1937 31.33 33.2872C31.2422 33.4332 31.1624 33.5517 31.0918 33.6341L31.0889 33.6373C30.9897 33.7489 30.8727 33.8353 30.7374 33.8894C30.6117 33.9397 30.4798 33.9646 30.3435 33.9646C30.0459 33.9646 29.786 33.8666 29.5968 33.6504C29.4257 33.4549 29.3343 33.2254 29.3343 32.9699C29.3343 32.7672 29.3823 32.579 29.4899 32.417C29.7582 32.005 29.9821 31.638 30.1623 31.3155L30.1634 31.3135C30.3547 30.9789 30.5162 30.6746 30.6486 30.4004L30.6516 30.3944C30.7952 30.1169 30.924 29.8543 31.0383 29.6067L31.04 29.6031C31.1671 29.3392 31.3038 29.0707 31.4501 28.7976C31.5824 28.5444 31.7686 28.3454 32.0282 28.2843L32.0312 28.2836C32.2172 28.2423 32.3899 28.2199 32.5474 28.2199C32.7089 28.2199 32.8559 28.2343 32.9809 28.2699C33.1308 28.2999 33.2624 28.3738 33.3579 28.4975C33.4616 28.6193 33.5153 28.7752 33.5387 28.9414C33.5715 29.0999 33.5856 29.3048 33.5856 29.5481V29.653C33.8399 29.4753 34.091 29.3268 34.2912 29.2162C34.8691 28.794 35.5679 28.5671 36.2862 28.5681C37.0098 28.5692 37.7153 28.8016 38.2988 29.231L38.3116 29.2404L38.323 29.2514C38.9357 29.8411 39.3468 30.6076 39.4974 31.4417C39.6474 32.2727 39.5312 33.1283 39.1649 33.887C38.985 34.3406 38.5299 34.7645 37.9986 35.1033C37.4547 35.4502 36.7913 35.7334 36.1473 35.884C35.5106 36.0329 34.856 36.0607 34.3518 35.8527C34.0943 35.7464 33.8729 35.577 33.7213 35.3308C33.6862 35.2739 33.6555 35.2138 33.6291 35.1507V35.4927C33.6291 36.4789 33.6243 37.388 33.6146 38.22V40.5384C33.6146 41.2638 33.6098 41.97 33.6001 42.657V47.0485C33.6001 47.347 33.459 47.5894 33.2131 47.7637C32.98 47.9456 32.6942 48.0287 32.3734 48.0287C32.1978 48.0287 32.0301 47.9939 31.8733 47.9227C31.7712 47.8818 31.6824 47.8139 31.6213 47.7153C31.5603 47.6168 31.5381 47.5056 31.5381 47.3965V42.9582C31.5478 41.5088 31.5526 40.0449 31.5526 38.5665C31.5526 37.4563 31.543 36.3558 31.5237 35.265L31.5236 35.2629ZM34.0647 33.5703C33.878 33.6954 33.7288 33.8654 33.6291 34.0624L33.6291 32.1869L33.6263 32.0356C33.663 31.9939 33.695 31.9479 33.7215 31.8983C33.7738 31.8004 33.8027 31.6925 33.8067 31.5827C34.0938 31.2906 34.4446 31.0673 34.8328 30.93C34.9692 30.8854 35.1036 30.8283 35.2285 30.7752L35.2286 30.7752L35.2286 30.7752L35.2286 30.7752L35.2333 30.7732C35.6948 30.5771 36.0694 30.4273 36.5387 30.676C37.1455 30.9976 37.3614 31.7735 37.0234 32.5119C36.8688 32.8498 36.5734 33.0741 36.2009 33.2104C35.831 33.3457 35.4015 33.3872 35.0126 33.3674C34.6822 33.3117 34.3428 33.3839 34.0647 33.5703ZM41.8536 38.0363C41.5005 38.0363 41.1794 37.9774 40.8905 37.8597C40.6123 37.742 40.3554 37.5868 40.12 37.3942C39.8846 37.2016 39.6599 36.9769 39.4458 36.72C39.2318 36.4632 39.0178 36.1957 38.8038 35.9174C38.7502 35.8532 38.7021 35.7516 38.6593 35.6125C38.6165 35.4733 38.5951 35.3503 38.5951 35.2433C38.5951 35.1362 38.6165 35.0185 38.6593 34.8901C38.7021 34.751 38.7717 34.6226 38.868 34.5049C38.9643 34.3765 39.0873 34.2695 39.2372 34.1838C39.3763 34.0982 39.5528 34.0554 39.7669 34.0554C40.0344 34.0554 40.2645 34.1357 40.4571 34.2962C40.6604 34.446 40.8423 34.6172 41.0028 34.8099C41.1634 34.9918 41.3132 35.163 41.4523 35.3235C41.5914 35.4733 41.7305 35.5482 41.8696 35.5482C41.9232 35.5482 42.0409 35.4733 42.2228 35.3235C42.4047 35.163 42.5813 34.9436 42.7525 34.6654C42.4957 34.644 42.2442 34.5423 41.9981 34.3604C41.7519 34.1785 41.5272 33.9484 41.3239 33.6702C41.1313 33.3813 40.9761 33.0549 40.8584 32.691C40.7407 32.3272 40.6818 31.9526 40.6818 31.5674C40.6818 31.1715 40.7567 30.7969 40.9065 30.4438C41.0564 30.0906 41.265 29.7857 41.5326 29.5288C41.8108 29.272 42.1372 29.0687 42.5117 28.9189C42.897 28.769 43.3196 28.6941 43.7798 28.6941C44.2614 28.6941 44.6787 28.7851 45.0318 28.967C45.3957 29.1382 45.6953 29.363 45.9307 29.6412C46.1769 29.9194 46.3695 30.2298 46.5086 30.5722C46.6477 30.9039 46.7387 31.225 46.7815 31.5353C47.1025 31.6209 47.3486 31.7761 47.5199 32.0008C47.6911 32.2148 47.7821 32.4503 47.7928 32.7071C47.7928 32.889 47.766 33.0709 47.7125 33.2528C47.6697 33.4241 47.6162 33.5953 47.552 33.7665C47.4985 33.9377 47.445 34.1036 47.3915 34.2641C47.3486 34.4139 47.3273 34.5584 47.3273 34.6975C47.3273 34.8045 47.3433 34.9222 47.3754 35.0506C47.4075 35.1684 47.4557 35.2807 47.5199 35.3877C47.5948 35.484 47.6804 35.5696 47.7767 35.6446C47.8837 35.7088 48.0014 35.7409 48.1298 35.7409C48.3653 35.7409 48.5793 35.6553 48.7719 35.484C48.9264 35.3467 49.0809 35.199 49.2355 35.041C49.2589 34.8142 49.3478 34.5873 49.502 34.3604C49.6839 34.0929 49.914 33.7772 50.1922 33.4134C50.4705 33.0388 50.7755 32.5947 51.1072 32.0811C51.4496 31.5674 51.7814 30.9307 52.1024 30.1709C52.2629 29.7857 52.4395 29.5288 52.6321 29.4004C52.8354 29.2613 53.0548 29.1917 53.2902 29.1917C53.6541 29.1917 53.9377 29.2666 54.141 29.4165C54.3443 29.5663 54.446 29.7857 54.446 30.0746C54.446 30.1602 54.4406 30.2512 54.4299 30.3475V30.6043C54.4299 30.722 54.4513 30.8451 54.4941 30.9735C54.5476 31.0912 54.6493 31.1501 54.7991 31.1501C54.9168 31.1501 55.0078 31.0644 55.072 30.8932C55.1469 30.7113 55.2272 30.5133 55.3128 30.2993C55.3984 30.0746 55.5054 29.8766 55.6338 29.7054C55.7729 29.5235 55.9709 29.4325 56.2277 29.4325C56.5916 29.4325 56.8591 29.5663 57.0303 29.8338C57.2122 30.1013 57.3032 30.3956 57.3032 30.7167C57.3032 30.8451 57.2818 31.027 57.239 31.2624C57.1962 31.4978 57.1427 31.7707 57.0785 32.0811C57.025 32.3914 56.9768 32.7338 56.934 33.1084C56.8912 33.4722 56.8698 33.8468 56.8698 34.232C56.8698 34.66 56.8912 35.0132 56.934 35.2914C56.9768 35.5589 57.0303 35.773 57.0945 35.9335C57.1694 36.094 57.2497 36.2064 57.3353 36.2706C57.4316 36.3241 57.5279 36.3508 57.6242 36.3508C57.956 36.3508 58.2181 36.2385 58.4108 36.0137C58.6141 35.7783 58.8013 35.5215 58.9726 35.2433L58.9736 35.2416C58.7137 34.6391 58.5838 34.003 58.5838 33.3331C58.5838 32.9051 58.648 32.4503 58.7764 31.9687C58.8941 31.4871 59.0921 31.043 59.3703 30.6364C59.6486 30.2191 60.0124 29.8766 60.4618 29.6091C60.922 29.3416 61.4892 29.2078 62.1633 29.2078C62.6663 29.2078 63.0997 29.2934 63.4635 29.4646C63.8274 29.6251 64.1216 29.8392 64.3464 30.1067C64.5818 30.3742 64.753 30.6792 64.86 31.0216C64.9777 31.3641 65.0366 31.7065 65.0366 32.049C65.0366 32.3914 64.9777 32.7392 64.86 33.0923C64.753 33.4455 64.6032 33.7879 64.4106 34.1196C64.218 34.4514 63.9879 34.7617 63.7204 35.0506C63.4635 35.3289 63.1853 35.575 62.8857 35.789C63.1104 35.9281 63.303 36.0137 63.4635 36.0459C63.6348 36.078 63.8488 36.094 64.1056 36.094C64.5122 36.094 64.8921 36.0137 65.2453 35.8532C65.5984 35.682 65.9141 35.4145 66.1923 35.0506C66.3529 34.8259 66.492 34.6493 66.6097 34.5209C66.7381 34.3925 66.8558 34.2962 66.9628 34.232C67.0698 34.1571 67.1715 34.1089 67.2678 34.0875C67.3641 34.0661 67.4711 34.0554 67.5888 34.0554C67.942 34.0554 68.2309 34.1731 68.4556 34.4086C68.6804 34.644 68.7927 34.9222 68.7927 35.2433C68.7927 35.4145 68.7499 35.5857 68.6643 35.7569C68.5894 35.9281 68.4931 36.0887 68.3754 36.2385C68.0971 36.6237 67.7868 36.9608 67.4444 37.2497C67.1019 37.528 66.7434 37.7634 66.3689 37.956C66.0051 38.1379 65.6252 38.2717 65.2292 38.3573C64.844 38.4429 64.4694 38.4857 64.1056 38.4857C63.3244 38.4857 62.5967 38.3466 61.9226 38.0684C61.403 37.8589 60.9359 37.5903 60.5214 37.2627C60.415 37.3802 60.3001 37.4989 60.1765 37.6189C59.8126 37.9614 59.3792 38.261 58.8763 38.5178C58.3733 38.7854 57.8115 38.9191 57.1908 38.9191C56.7735 38.9191 56.415 38.8068 56.1154 38.582C55.8157 38.368 55.5642 38.0898 55.3609 37.7473C55.1683 37.3942 55.0131 37.0036 54.8954 36.5756C54.7777 36.1475 54.6867 35.7302 54.6225 35.3235C54.5583 34.9169 54.5155 34.5423 54.4941 34.1999C54.4834 33.8468 54.4781 33.5792 54.4781 33.3973C54.4353 33.408 54.3818 33.4134 54.3176 33.4134C53.9858 33.4134 53.7504 33.2475 53.6113 32.9158C53.515 33.0549 53.3651 33.2689 53.1618 33.5578C52.9692 33.8468 52.7552 34.1517 52.5198 34.4728C52.2843 34.7938 52.0489 35.1095 51.8135 35.4198C51.7909 35.4486 51.7686 35.4767 51.7467 35.5042C51.7255 35.607 51.6916 35.702 51.6452 35.789C51.5596 35.9388 51.4954 36.0298 51.4526 36.0619L50.7463 36.7682C50.5001 37.0143 50.2326 37.2497 49.9437 37.4745C49.6655 37.6885 49.3658 37.8651 49.0448 38.0042C48.7345 38.154 48.4027 38.2289 48.0496 38.2289C47.6857 38.2289 47.3379 38.154 47.0062 38.0042C46.6852 37.8651 46.3963 37.6831 46.1394 37.4584C45.8826 37.223 45.6579 36.9608 45.4652 36.6719C45.2833 36.3722 45.1496 36.0726 45.064 35.773C44.7643 36.201 44.4593 36.5595 44.149 36.8484C43.8494 37.1374 43.5551 37.3728 43.2661 37.5547C42.9879 37.7259 42.7257 37.849 42.4796 37.9239C42.2442 37.9988 42.0355 38.0363 41.8536 38.0363ZM44.1329 33.1886C44.2507 33.1886 44.3523 33.1512 44.4379 33.0763C44.5342 33.0014 44.6145 32.9104 44.6787 32.8034C44.7429 32.6964 44.7911 32.5787 44.8232 32.4503C44.866 32.3218 44.8874 32.2041 44.8874 32.0971C44.8874 31.8403 44.7964 31.6102 44.6145 31.4069C44.4326 31.1929 44.1918 31.0858 43.8922 31.0858C43.7103 31.0858 43.5604 31.1287 43.4427 31.2143C43.3357 31.2999 43.2501 31.4015 43.1859 31.5192C43.1324 31.637 43.0949 31.7547 43.0735 31.8724C43.0628 31.9794 43.0575 32.0597 43.0575 32.1132C43.0575 32.4235 43.1698 32.6803 43.3946 32.8837C43.6193 33.087 43.8654 33.1886 44.1329 33.1886ZM61.6015 31.76C61.7513 31.653 61.9386 31.5995 62.1633 31.5995C62.3881 31.5995 62.5218 31.653 62.5646 31.76C62.6074 31.867 62.6288 31.9633 62.6288 32.049C62.6288 32.2095 62.5807 32.3914 62.4844 32.5947C62.3881 32.7873 62.265 32.9853 62.1152 33.1886C61.9654 33.3813 61.7995 33.5632 61.6176 33.7344C61.4464 33.8949 61.2805 34.0233 61.12 34.1196C61.0344 33.8628 60.9916 33.5953 60.9916 33.3171C60.9916 33.1137 61.0076 32.9104 61.0397 32.7071C61.0825 32.5038 61.1467 32.3218 61.2323 32.1613C61.3286 31.9901 61.4517 31.8563 61.6015 31.76ZM22.7953 34.0233C22.7953 33.8414 22.7793 33.6274 22.7471 33.3812C22.7257 33.1351 22.6722 32.8997 22.5866 32.675C22.501 32.4502 22.378 32.2576 22.2174 32.0971C22.0676 31.9366 21.8643 31.8563 21.6075 31.8563C21.4148 31.8563 21.2383 31.9045 21.0778 32.0008C20.9172 32.0864 20.7781 32.1988 20.6604 32.3379C20.5534 32.477 20.4678 32.6268 20.4036 32.7873C20.3394 32.9478 20.3073 33.0923 20.3073 33.2207C20.3073 33.5204 20.3768 33.8039 20.5159 34.0715C20.6551 34.339 20.8209 34.5744 21.0136 34.7777C21.2169 34.9704 21.4256 35.1255 21.6396 35.2432C21.8536 35.3503 22.0409 35.4038 22.2014 35.4038C22.3298 35.4038 22.4582 35.2967 22.5866 35.0827C22.7257 34.858 22.7953 34.5049 22.7953 34.0233ZM24.6894 35.9174C24.6573 36.0779 24.5878 36.2652 24.4807 36.4792C24.3844 36.6933 24.24 36.8966 24.0473 37.0892C23.8547 37.2818 23.6032 37.4477 23.2929 37.5868C22.9933 37.7259 22.6294 37.7955 22.2014 37.7955C21.677 37.7955 21.158 37.6778 20.6444 37.4423C20.1307 37.1962 19.6706 36.8645 19.2639 36.4471C19.1835 36.3624 19.1061 36.275 19.032 36.1849C18.9935 36.2303 18.9507 36.2802 18.9035 36.3348C18.7002 36.5595 18.4434 36.827 18.1331 37.1374C17.8334 37.437 17.4856 37.7527 17.0897 38.0844C16.7045 38.4269 16.2978 38.7372 15.8698 39.0154C15.4524 39.3044 15.0297 39.5398 14.6017 39.7217C14.1736 39.9143 13.767 40.0106 13.3817 40.0106C13.0393 40.0106 12.7236 39.9518 12.4347 39.8341C12.1458 39.7271 11.8943 39.5772 11.6802 39.3846C11.4769 39.192 11.3111 38.9619 11.1826 38.6944C11.0649 38.4376 11.0061 38.154 11.0061 37.8436C11.0061 37.3835 11.1238 36.918 11.3592 36.4471C11.5946 35.9656 11.8729 35.4947 12.1939 35.0346C12.5149 34.5637 12.8413 34.1143 13.1731 33.6862C13.5048 33.2475 13.767 32.8408 13.9596 32.4663C13.8419 32.5198 13.7242 32.5787 13.6065 32.6429C13.4887 32.6964 13.3657 32.7606 13.2373 32.8355C12.9269 33.0174 12.6112 33.2528 12.2902 33.5418C11.9799 33.82 11.6642 34.1196 11.3432 34.4407C11.0221 34.751 10.7011 35.0667 10.3801 35.3877C10.059 35.6981 9.73798 35.9816 9.41695 36.2385C9.25643 36.3669 9.06916 36.4311 8.85513 36.4311C8.63041 36.4311 8.44314 36.3936 8.29332 36.3187C8.1328 36.2331 8.00439 36.1315 7.90808 36.0137C7.81177 35.8853 7.74221 35.7516 7.69941 35.6124C7.6566 35.4626 7.6352 35.3289 7.6352 35.2112C7.6352 35.1041 7.6459 34.9971 7.6673 34.8901C7.678 34.7724 7.70476 34.6814 7.74756 34.6172C7.81177 34.5423 7.95624 34.3711 8.18096 34.1036C8.39498 33.8361 8.66786 33.5257 8.9996 33.1726C9.33134 32.8194 9.70588 32.4502 10.1232 32.065C10.5406 31.6691 10.974 31.3106 11.4234 30.9895C11.8729 30.6685 12.3223 30.401 12.7718 30.1869C13.2319 29.9729 13.6707 29.8659 14.088 29.8659C14.4519 29.8659 14.7889 29.9248 15.0993 30.0425C15.4096 30.1495 15.6771 30.2993 15.9019 30.4919C16.1266 30.6846 16.3032 30.9146 16.4316 31.1822C16.56 31.4497 16.6242 31.7386 16.6242 32.049C16.6242 32.3486 16.5653 32.6643 16.4476 32.996C16.3299 33.3277 16.1801 33.6648 15.9982 34.0073C15.8163 34.339 15.6129 34.6707 15.3882 35.0025C15.1635 35.3235 14.9441 35.6339 14.7301 35.9335C14.5161 36.2331 14.3181 36.5113 14.1362 36.7682C13.9543 37.025 13.8151 37.2497 13.7188 37.4424C14.0292 37.3353 14.3448 37.1695 14.6659 36.9447C14.9976 36.7093 15.324 36.4471 15.645 36.1582C15.9661 35.8693 16.2764 35.5696 16.576 35.2593C16.8757 34.949 17.1486 34.6654 17.3947 34.4086C17.558 34.2271 17.7598 34.1226 18 34.095C17.933 33.7866 17.8995 33.4684 17.8995 33.1405C17.8995 32.5519 18.0226 32.0329 18.2687 31.5834C18.5041 31.1233 18.8091 30.738 19.1837 30.4277C19.5582 30.1067 19.9648 29.8659 20.4036 29.7054C20.8423 29.5449 21.265 29.4646 21.6717 29.4646C22.1532 29.4646 22.5652 29.5395 22.9077 29.6893C23.2501 29.8284 23.5444 30.0264 23.7905 30.2832C24.0473 30.5294 24.2667 30.8237 24.4486 31.1661C24.6413 31.5085 24.8339 31.8831 25.0265 32.2897C25.1228 32.5037 25.2566 32.7927 25.4278 33.1565C25.599 33.5097 25.7863 33.8574 25.9896 34.1999C26.1929 34.5423 26.4016 34.8419 26.6156 35.0988C26.8296 35.3449 27.0223 35.468 27.1935 35.468C27.3433 35.468 27.4771 35.4305 27.5948 35.3556C27.7125 35.27 27.8249 35.1737 27.9319 35.0667C28.0389 34.949 28.1459 34.8259 28.2529 34.6975C28.3599 34.5691 28.4776 34.4514 28.6061 34.3443C28.7238 34.248 28.8522 34.1785 28.9913 34.1357C29.1411 34.0822 29.2856 34.0554 29.4247 34.0554C29.735 34.0554 30.0079 34.1624 30.2433 34.3764C30.4895 34.5905 30.6125 34.8794 30.6125 35.2432C30.6125 35.4038 30.5751 35.575 30.5002 35.7569C30.4253 35.9281 30.3396 36.0672 30.2433 36.1742C29.7618 36.6879 29.2535 37.0999 28.7184 37.4102C28.1941 37.7099 27.6857 37.8597 27.1935 37.8597C26.7761 37.8597 26.4177 37.8115 26.118 37.7152C25.8291 37.6082 25.5883 37.4691 25.3957 37.2979C25.2031 37.116 25.0479 36.9073 24.9302 36.6719C24.8232 36.4364 24.7429 36.1849 24.6894 35.9174Z" fill="white"/>
</svg>
