<!-- Generated by IcoMoon.io -->
<svg version="1.1" xmlns="http://www.w3.org/2000/svg" width="59" height="32" viewBox="0 0 59 32">
<title>warning</title>
<path d="M20.37 23.5c-0.004-0.479-0.007-0.968-0.008-1.466-0.038 0.063-0.077 0.125-0.117 0.186-0.057 0.095-0.109 0.171-0.154 0.225l-0.002 0.002c-0.064 0.072-0.14 0.128-0.228 0.163-0.081 0.033-0.167 0.049-0.255 0.049-0.193 0-0.361-0.064-0.484-0.204-0.111-0.127-0.17-0.276-0.17-0.441 0-0.131 0.031-0.253 0.101-0.358 0.174-0.267 0.319-0.505 0.436-0.714l0.001-0.001c0.124-0.217 0.229-0.414 0.315-0.592l0.002-0.004c0.093-0.18 0.177-0.35 0.251-0.511l0.001-0.002c0.082-0.171 0.171-0.345 0.266-0.522 0.086-0.164 0.206-0.293 0.375-0.333l0.002-0c0.121-0.027 0.233-0.041 0.335-0.041 0.105 0 0.2 0.009 0.281 0.032 0.097 0.020 0.182 0.067 0.244 0.148 0.067 0.079 0.102 0.18 0.117 0.288 0.021 0.103 0.030 0.236 0.030 0.393v0.068c0.165-0.115 0.328-0.212 0.458-0.283 0.375-0.274 0.828-0.421 1.293-0.42 0.469 0.001 0.927 0.151 1.305 0.43l0.008 0.006 0.007 0.007c0.397 0.382 0.664 0.879 0.761 1.42 0.097 0.539 0.022 1.093-0.216 1.585-0.117 0.294-0.412 0.569-0.756 0.789-0.353 0.225-0.783 0.409-1.2 0.506-0.413 0.096-0.837 0.114-1.164-0.020-0.167-0.069-0.31-0.179-0.409-0.338-0.023-0.037-0.043-0.076-0.060-0.117v0.222c0 0.639-0.003 1.229-0.009 1.768v1.503c0 0.47-0.003 0.928-0.009 1.373v2.847c0 0.193-0.091 0.351-0.251 0.464-0.151 0.118-0.336 0.172-0.544 0.172-0.114 0-0.223-0.023-0.324-0.069-0.066-0.026-0.124-0.070-0.163-0.134s-0.054-0.136-0.054-0.207v-2.877c0.006-0.94 0.009-1.889 0.009-2.847 0-0.72-0.006-1.433-0.019-2.14v-0.001zM22.018 22.403c-0.121 0.081-0.218 0.191-0.282 0.319v-1.216l-0.002-0.098c0.024-0.027 0.045-0.057 0.062-0.089 0.034-0.063 0.053-0.133 0.055-0.205 0.186-0.189 0.414-0.334 0.665-0.423 0.088-0.029 0.176-0.066 0.257-0.1v-0l0.003-0.001c0.299-0.127 0.542-0.224 0.846-0.063 0.393 0.208 0.533 0.712 0.314 1.19-0.1 0.219-0.292 0.364-0.533 0.453-0.24 0.088-0.518 0.115-0.77 0.102-0.214-0.036-0.434 0.011-0.614 0.131zM27.067 25.298c-0.229 0-0.437-0.038-0.624-0.114-0.18-0.076-0.347-0.177-0.5-0.302s-0.298-0.271-0.437-0.437-0.277-0.34-0.416-0.52c-0.035-0.042-0.066-0.108-0.094-0.198s-0.042-0.17-0.042-0.239 0.014-0.146 0.042-0.229c0.028-0.090 0.073-0.173 0.135-0.25 0.062-0.083 0.142-0.153 0.239-0.208 0.090-0.055 0.205-0.083 0.343-0.083 0.173 0 0.323 0.052 0.447 0.156 0.132 0.097 0.25 0.208 0.354 0.333 0.104 0.118 0.201 0.229 0.291 0.333 0.090 0.097 0.18 0.146 0.271 0.146 0.035 0 0.111-0.049 0.229-0.146 0.118-0.104 0.232-0.246 0.343-0.427-0.167-0.014-0.33-0.080-0.489-0.198s-0.305-0.267-0.437-0.447c-0.125-0.187-0.225-0.399-0.302-0.635s-0.114-0.479-0.114-0.728c0-0.257 0.049-0.5 0.146-0.728s0.232-0.427 0.406-0.593c0.18-0.167 0.392-0.298 0.635-0.395 0.25-0.097 0.524-0.146 0.822-0.146 0.312 0 0.583 0.059 0.812 0.177 0.236 0.111 0.43 0.257 0.583 0.437 0.16 0.18 0.284 0.382 0.375 0.604 0.090 0.215 0.149 0.423 0.177 0.624 0.208 0.055 0.368 0.156 0.479 0.302 0.111 0.139 0.17 0.291 0.177 0.458 0 0.118-0.017 0.236-0.052 0.354-0.028 0.111-0.062 0.222-0.104 0.333-0.035 0.111-0.069 0.219-0.104 0.323-0.028 0.097-0.042 0.191-0.042 0.281 0 0.069 0.010 0.146 0.031 0.229 0.021 0.076 0.052 0.149 0.094 0.219 0.049 0.062 0.104 0.118 0.166 0.167 0.069 0.042 0.146 0.062 0.229 0.062 0.153 0 0.291-0.056 0.416-0.167 0.1-0.089 0.2-0.185 0.3-0.287 0.015-0.147 0.073-0.294 0.173-0.441 0.118-0.173 0.267-0.378 0.448-0.614 0.18-0.243 0.378-0.531 0.593-0.864 0.222-0.333 0.437-0.746 0.645-1.238 0.104-0.25 0.219-0.416 0.343-0.5 0.132-0.090 0.274-0.135 0.427-0.135 0.236 0 0.42 0.049 0.552 0.146s0.198 0.239 0.198 0.427c0 0.055-0.003 0.114-0.010 0.177v0.166c0 0.076 0.014 0.156 0.042 0.239 0.035 0.076 0.101 0.114 0.198 0.114 0.076 0 0.135-0.055 0.177-0.166 0.049-0.118 0.101-0.246 0.156-0.385 0.056-0.146 0.125-0.274 0.208-0.385 0.090-0.118 0.219-0.177 0.385-0.177 0.236 0 0.409 0.087 0.52 0.26 0.118 0.173 0.177 0.364 0.177 0.572 0 0.083-0.014 0.201-0.042 0.354s-0.062 0.33-0.104 0.531c-0.035 0.201-0.066 0.423-0.094 0.666-0.028 0.236-0.042 0.479-0.042 0.728 0 0.278 0.014 0.506 0.042 0.687 0.028 0.173 0.062 0.312 0.104 0.416 0.049 0.104 0.101 0.177 0.156 0.219 0.062 0.035 0.125 0.052 0.187 0.052 0.215 0 0.385-0.073 0.51-0.219 0.132-0.153 0.253-0.319 0.364-0.5l0.001-0.001c-0.169-0.391-0.253-0.803-0.253-1.237 0-0.278 0.042-0.572 0.125-0.885 0.076-0.312 0.205-0.6 0.385-0.864 0.18-0.271 0.416-0.493 0.708-0.666 0.298-0.173 0.666-0.26 1.103-0.26 0.326 0 0.607 0.055 0.843 0.166 0.236 0.104 0.427 0.243 0.572 0.416 0.153 0.173 0.264 0.371 0.333 0.593 0.076 0.222 0.114 0.444 0.114 0.666s-0.038 0.447-0.114 0.676c-0.069 0.229-0.166 0.451-0.291 0.666s-0.274 0.416-0.448 0.604c-0.166 0.18-0.347 0.34-0.541 0.479 0.146 0.090 0.271 0.146 0.375 0.166 0.111 0.021 0.25 0.031 0.416 0.031 0.264 0 0.51-0.052 0.739-0.156 0.229-0.111 0.434-0.285 0.614-0.52 0.104-0.146 0.194-0.26 0.271-0.343 0.083-0.083 0.16-0.146 0.229-0.187 0.069-0.049 0.135-0.080 0.198-0.094s0.132-0.021 0.208-0.021c0.229 0 0.416 0.076 0.562 0.229s0.219 0.333 0.219 0.541c0 0.111-0.028 0.222-0.083 0.333-0.049 0.111-0.111 0.215-0.187 0.312-0.18 0.25-0.382 0.468-0.604 0.656-0.222 0.18-0.454 0.333-0.697 0.458-0.236 0.118-0.482 0.205-0.739 0.26-0.25 0.055-0.493 0.083-0.728 0.083-0.506 0-0.978-0.090-1.415-0.271-0.337-0.136-0.64-0.31-0.908-0.522-0.069 0.076-0.143 0.153-0.224 0.231-0.236 0.222-0.517 0.416-0.843 0.583-0.326 0.173-0.69 0.26-1.093 0.26-0.271 0-0.503-0.073-0.697-0.219-0.194-0.139-0.357-0.319-0.489-0.541-0.125-0.229-0.225-0.482-0.302-0.76s-0.135-0.548-0.177-0.812c-0.042-0.264-0.069-0.506-0.083-0.728-0.007-0.229-0.010-0.402-0.010-0.52-0.028 0.007-0.062 0.010-0.104 0.010-0.215 0-0.368-0.108-0.458-0.323-0.062 0.090-0.16 0.229-0.291 0.416-0.125 0.187-0.264 0.385-0.416 0.593s-0.305 0.413-0.458 0.614c-0.015 0.019-0.029 0.037-0.043 0.055-0.014 0.067-0.036 0.128-0.066 0.185-0.056 0.097-0.097 0.156-0.125 0.177l-0.458 0.458c-0.16 0.16-0.333 0.312-0.52 0.458-0.18 0.139-0.375 0.253-0.583 0.343-0.201 0.097-0.416 0.146-0.645 0.146-0.236 0-0.461-0.049-0.676-0.146-0.208-0.090-0.395-0.208-0.562-0.354-0.166-0.153-0.312-0.323-0.437-0.51-0.118-0.194-0.205-0.389-0.26-0.583-0.194 0.278-0.392 0.51-0.593 0.697-0.194 0.187-0.385 0.34-0.572 0.458-0.18 0.111-0.35 0.191-0.51 0.239-0.153 0.049-0.288 0.073-0.406 0.073zM28.545 22.155c0.076 0 0.142-0.024 0.198-0.073 0.062-0.049 0.114-0.108 0.156-0.177s0.073-0.146 0.094-0.229c0.028-0.083 0.042-0.16 0.042-0.229 0-0.166-0.059-0.316-0.177-0.447-0.118-0.139-0.274-0.208-0.468-0.208-0.118 0-0.215 0.028-0.291 0.083-0.069 0.055-0.125 0.121-0.166 0.198-0.035 0.076-0.059 0.153-0.073 0.229-0.007 0.069-0.010 0.121-0.010 0.156 0 0.201 0.073 0.368 0.219 0.5s0.305 0.198 0.479 0.198zM39.87 21.229c0.097-0.069 0.219-0.104 0.364-0.104s0.232 0.035 0.26 0.104c0.028 0.069 0.042 0.132 0.042 0.187 0 0.104-0.031 0.222-0.094 0.354-0.062 0.125-0.142 0.253-0.239 0.385-0.097 0.125-0.205 0.243-0.323 0.354-0.111 0.104-0.219 0.187-0.323 0.25-0.056-0.166-0.083-0.34-0.083-0.52 0-0.132 0.010-0.264 0.031-0.395 0.028-0.132 0.069-0.25 0.125-0.354 0.062-0.111 0.142-0.198 0.239-0.26zM14.711 22.697c0-0.118-0.010-0.257-0.031-0.416-0.014-0.16-0.049-0.312-0.104-0.458s-0.135-0.271-0.239-0.375c-0.097-0.104-0.229-0.156-0.395-0.156-0.125 0-0.239 0.031-0.343 0.094-0.104 0.055-0.194 0.128-0.271 0.219-0.069 0.090-0.125 0.187-0.166 0.291s-0.062 0.198-0.062 0.281c0 0.194 0.045 0.378 0.135 0.552s0.198 0.326 0.323 0.458c0.132 0.125 0.267 0.225 0.406 0.302 0.139 0.069 0.26 0.104 0.364 0.104 0.083 0 0.166-0.069 0.25-0.208 0.090-0.146 0.135-0.375 0.135-0.687zM15.94 23.925c-0.021 0.104-0.066 0.225-0.135 0.364-0.062 0.139-0.156 0.271-0.281 0.395s-0.288 0.232-0.489 0.323c-0.194 0.090-0.43 0.135-0.708 0.135-0.34 0-0.676-0.076-1.009-0.229-0.333-0.16-0.631-0.375-0.895-0.645-0.052-0.055-0.102-0.112-0.15-0.17-0.025 0.029-0.053 0.062-0.083 0.097-0.132 0.146-0.298 0.319-0.499 0.52-0.194 0.194-0.42 0.399-0.676 0.614-0.25 0.222-0.513 0.423-0.791 0.604-0.271 0.187-0.545 0.34-0.822 0.458-0.277 0.125-0.541 0.187-0.791 0.187-0.222 0-0.427-0.038-0.614-0.114-0.187-0.069-0.35-0.167-0.489-0.291-0.132-0.125-0.239-0.274-0.323-0.447-0.076-0.167-0.114-0.35-0.114-0.552 0-0.298 0.076-0.6 0.229-0.905 0.153-0.312 0.333-0.617 0.541-0.916 0.208-0.305 0.42-0.597 0.635-0.874 0.215-0.285 0.385-0.548 0.51-0.791-0.076 0.035-0.153 0.073-0.229 0.114-0.076 0.035-0.156 0.076-0.239 0.125-0.201 0.118-0.406 0.271-0.614 0.458-0.201 0.18-0.406 0.375-0.614 0.583-0.208 0.201-0.416 0.406-0.624 0.614-0.208 0.201-0.416 0.385-0.624 0.552-0.104 0.083-0.225 0.125-0.364 0.125-0.146 0-0.267-0.024-0.364-0.073-0.104-0.055-0.187-0.121-0.25-0.198-0.062-0.083-0.108-0.17-0.135-0.26-0.028-0.097-0.042-0.184-0.042-0.26 0-0.069 0.007-0.139 0.021-0.208 0.007-0.076 0.024-0.135 0.052-0.177 0.042-0.049 0.135-0.16 0.281-0.333 0.139-0.173 0.316-0.375 0.531-0.604s0.458-0.468 0.728-0.718c0.271-0.257 0.552-0.489 0.843-0.697s0.583-0.382 0.874-0.52c0.298-0.139 0.583-0.208 0.853-0.208 0.236 0 0.454 0.038 0.656 0.114 0.201 0.069 0.375 0.166 0.52 0.291s0.26 0.274 0.343 0.448c0.083 0.173 0.125 0.361 0.125 0.562 0 0.194-0.038 0.399-0.114 0.614s-0.174 0.434-0.291 0.656c-0.118 0.215-0.25 0.43-0.395 0.645-0.146 0.208-0.288 0.409-0.427 0.604s-0.267 0.375-0.385 0.541c-0.118 0.166-0.208 0.312-0.271 0.437 0.201-0.069 0.406-0.177 0.614-0.323 0.215-0.153 0.427-0.323 0.635-0.51s0.409-0.382 0.604-0.583c0.194-0.201 0.371-0.385 0.531-0.552 0.106-0.118 0.237-0.185 0.392-0.203-0.043-0.2-0.065-0.406-0.065-0.619 0-0.382 0.080-0.718 0.239-1.009 0.153-0.298 0.35-0.548 0.593-0.749 0.243-0.208 0.506-0.364 0.791-0.468s0.558-0.156 0.822-0.156c0.312 0 0.579 0.049 0.801 0.146 0.222 0.090 0.413 0.219 0.572 0.385 0.166 0.16 0.309 0.35 0.427 0.572 0.125 0.222 0.25 0.465 0.375 0.729 0.062 0.139 0.149 0.326 0.26 0.562 0.111 0.229 0.232 0.454 0.364 0.676s0.267 0.416 0.406 0.583c0.139 0.16 0.264 0.239 0.375 0.239 0.097 0 0.184-0.024 0.26-0.073 0.076-0.055 0.149-0.118 0.219-0.187 0.069-0.076 0.139-0.156 0.208-0.239s0.146-0.16 0.229-0.229c0.076-0.062 0.16-0.107 0.25-0.135 0.097-0.035 0.191-0.052 0.281-0.052 0.201 0 0.378 0.069 0.531 0.208 0.16 0.139 0.239 0.326 0.239 0.562 0 0.104-0.024 0.215-0.073 0.333-0.049 0.111-0.104 0.201-0.166 0.271-0.312 0.333-0.642 0.6-0.989 0.801-0.34 0.194-0.669 0.291-0.989 0.291-0.271 0-0.503-0.031-0.697-0.094-0.187-0.069-0.343-0.16-0.468-0.271-0.125-0.118-0.225-0.253-0.302-0.406-0.069-0.153-0.121-0.316-0.156-0.489z"></path>
<path d="M56.492 14.902c0-0.111-0.014-0.219-0.042-0.323-0.028-0.111-0.042-0.229-0.042-0.354 0-0.229 0.076-0.413 0.229-0.552 0.153-0.146 0.371-0.219 0.656-0.219 0.215 0 0.378 0.049 0.489 0.146s0.191 0.212 0.239 0.343c0.056 0.125 0.087 0.257 0.094 0.395 0.007 0.132 0.010 0.236 0.010 0.312 0 0.118-0.042 0.284-0.125 0.499-0.076 0.222-0.177 0.444-0.302 0.666-0.118 0.222-0.246 0.413-0.385 0.572-0.139 0.166-0.271 0.25-0.395 0.25-0.042 0-0.097-0.017-0.166-0.052-0.069-0.028-0.139-0.066-0.208-0.114-0.062-0.049-0.118-0.108-0.166-0.177-0.042-0.062-0.062-0.128-0.062-0.198 0-0.16 0.024-0.354 0.073-0.583 0.056-0.222 0.090-0.427 0.104-0.614z"></path>
<path d="M12.834 0.923c0.082-0.084 0.188-0.14 0.303-0.161s0.235-0.005 0.341 0.045c0.106 0.050 0.194 0.132 0.251 0.235s0.081 0.22 0.067 0.337c-0.002 0.015-0.006 0.029-0.014 0.042-0.166 0.298-0.221 0.46-0.268 0.597l-0 0c-0.011 0.033-0.022 0.065-0.034 0.097-0.065 0.177-0.153 0.333-0.451 0.662l-0.002 0.002c-1.23 1.297-2.178 2.153-3.577 3.264-0.413 0.382-1.024 0.99-1.43 1.636-0.412 0.655-0.583 1.298-0.222 1.792 0.1 0.116 0.228 0.209 0.373 0.297 0.073 0.044 0.148 0.086 0.226 0.129l0.027 0.015c0.068 0.038 0.138 0.076 0.206 0.116 0.307 0.181 0.61 0.409 0.705 0.837 0.2 0.736 0.113 1.654-0.211 2.474-0.325 0.821-0.897 1.559-1.687 1.914l-0.008 0.004c-0.409 0.145-0.722 0.15-0.95 0.027-0.23-0.125-0.338-0.362-0.381-0.621s-0.026-0.561 0.014-0.848c0.040-0.288 0.104-0.571 0.158-0.795 0.143-0.73 0.341-1.448 0.59-2.148-0.59-0.463-0.853-1.099-0.875-1.771-0.023-0.693 0.209-1.424 0.595-2.053l0.003-0.005c0.844-1.237 1.92-2.3 3.168-3.128 0.825-0.628 1.261-0.962 1.995-1.656 0.007-0.020 0.020-0.039 0.026-0.048 0.009-0.013 0.019-0.027 0.031-0.042 0.047-0.061 0.131-0.159 0.234-0.28l0.021-0.024c0.207-0.242 0.494-0.579 0.769-0.933 0.003-0.003 0.005-0.006 0.008-0.009zM7.322 13.713c0.034-0.818 0.118-1.638 0.204-2.455 0.036 0.016 0.073 0.031 0.108 0.045l0.014 0.006c0.079 0.033 0.152 0.063 0.219 0.1 0.109 0.232 0.143 0.492 0.095 0.745-0.001 0.003-0.001 0.006-0.001 0.009l-0 0.004c-0.042 0.573-0.267 1.114-0.637 1.546zM43.181 14.965c0.146 0.132 0.316 0.198 0.51 0.198 0.201 0 0.375-0.076 0.52-0.229 0.153-0.153 0.229-0.336 0.229-0.552v-0.062c0-0.014-0.004-0.069-0.010-0.166s-0.014-0.201-0.021-0.312c-0.007-0.118-0.017-0.225-0.031-0.323-0.007-0.104-0.014-0.17-0.021-0.198l1.665-0.395c0.062 0.312 0.156 0.6 0.281 0.864 0.132 0.257 0.284 0.482 0.458 0.676s0.364 0.347 0.572 0.458c0.208 0.104 0.423 0.156 0.645 0.156 0.173 0 0.333-0.031 0.479-0.094 0.153-0.069 0.295-0.16 0.427-0.271 0.139-0.118 0.271-0.257 0.395-0.416 0.132-0.16 0.267-0.333 0.406-0.52 0.049-0.062 0.080-0.128 0.094-0.198 0.021-0.076 0.031-0.153 0.031-0.229 0-0.222-0.080-0.406-0.239-0.552-0.153-0.153-0.333-0.229-0.541-0.229-0.153 0-0.284 0.035-0.395 0.104-0.104 0.069-0.198 0.153-0.281 0.25s-0.16 0.194-0.229 0.291c-0.069 0.097-0.142 0.177-0.219 0.239-0.062-0.083-0.121-0.174-0.177-0.271-0.049-0.104-0.094-0.208-0.135-0.312-0.042-0.111-0.076-0.215-0.104-0.312-0.021-0.104-0.035-0.194-0.042-0.271-0.035-0.375-0.066-0.694-0.094-0.957-0.021-0.264-0.045-0.489-0.073-0.676-0.021-0.187-0.042-0.343-0.062-0.468-0.014-0.132-0.031-0.25-0.052-0.354-0.056-0.298-0.142-0.489-0.26-0.572-0.111-0.083-0.225-0.125-0.343-0.125-0.083 0-0.173 0.010-0.271 0.031s-0.184 0.056-0.26 0.104c-0.076 0.042-0.142 0.101-0.198 0.177-0.049 0.076-0.073 0.17-0.073 0.281 0 0.097 0.007 0.278 0.021 0.541 0.014 0.257 0.042 0.638 0.083 1.145l-1.665 0.385c-0.021-0.132-0.042-0.284-0.062-0.458s-0.049-0.35-0.083-0.531c-0.028-0.187-0.069-0.368-0.125-0.541-0.049-0.18-0.114-0.34-0.198-0.479-0.076-0.146-0.173-0.26-0.291-0.343-0.111-0.090-0.246-0.135-0.406-0.135-0.104 0-0.198 0.021-0.281 0.062-0.090 0.042-0.166 0.097-0.229 0.166s-0.111 0.146-0.146 0.229c-0.035 0.083-0.052 0.166-0.052 0.25 0 0.042 0.004 0.083 0.010 0.125s0.017 0.083 0.031 0.125c0.062 0.271 0.118 0.527 0.166 0.77 0.042 0.236 0.080 0.468 0.114 0.697s0.066 0.458 0.094 0.687c0.028 0.222 0.052 0.454 0.073 0.697l0.114 1.332c0.014 0.201 0.097 0.371 0.25 0.51zM36.869 14.829c-0.236 0-0.43-0.052-0.583-0.156s-0.281-0.243-0.385-0.416c-0.104-0.18-0.194-0.392-0.271-0.635-0.069-0.243-0.139-0.506-0.208-0.791l-0.406 0.406c-0.056 0.264-0.125 0.541-0.208 0.832s-0.198 0.559-0.343 0.801c-0.146 0.243-0.33 0.444-0.552 0.604-0.215 0.16-0.482 0.239-0.801 0.239-0.333 0-0.607-0.052-0.822-0.156s-0.389-0.225-0.52-0.364c-0.132-0.132-0.225-0.257-0.281-0.375-0.055-0.125-0.090-0.205-0.104-0.239-0.014-0.028-0.021-0.069-0.021-0.125 0-0.187 0.059-0.368 0.177-0.541 0.125-0.18 0.288-0.35 0.489-0.51 0.208-0.166 0.441-0.323 0.697-0.468 0.264-0.146 0.538-0.281 0.822-0.406-0.021-0.298-0.076-0.552-0.166-0.76-0.083-0.215-0.17-0.375-0.26-0.479-0.042 0.021-0.121 0.080-0.239 0.177-0.111 0.090-0.246 0.208-0.406 0.354-0.16 0.139-0.333 0.295-0.52 0.468-0.187 0.167-0.375 0.336-0.562 0.51-0.841-0.369-1.076-0.666-0.78-1.467 0.215-0.215 0.437-0.42 0.666-0.614s0.454-0.364 0.676-0.51c0.229-0.153 0.448-0.274 0.656-0.364s0.402-0.135 0.583-0.135c0.222 0 0.427 0.059 0.614 0.177s0.357 0.278 0.51 0.479c0.153 0.194 0.281 0.416 0.385 0.666 0.111 0.25 0.198 0.506 0.26 0.77 0.062-0.097 0.118-0.18 0.166-0.25 0.056-0.069 0.083-0.153 0.083-0.25s-0.007-0.212-0.021-0.343c-0.007-0.132-0.010-0.246-0.010-0.343 0-0.229 0.062-0.392 0.187-0.489 0.132-0.097 0.274-0.146 0.427-0.146 0.222 0 0.402 0.087 0.541 0.26 0.139 0.166 0.253 0.385 0.343 0.656 0.097 0.264 0.177 0.562 0.239 0.895 0.069 0.326 0.146 0.649 0.229 0.968 0.083-0.062 0.187-0.153 0.312-0.271 0.125-0.125 0.246-0.26 0.364-0.406 0.125-0.146 0.229-0.295 0.312-0.448s0.125-0.288 0.125-0.406c0-0.104-0.007-0.219-0.021-0.343-0.014-0.132-0.021-0.243-0.021-0.333 0-0.118 0.024-0.215 0.073-0.291 0.056-0.083 0.118-0.146 0.187-0.187 0.076-0.049 0.153-0.083 0.229-0.104 0.083-0.021 0.156-0.031 0.219-0.031 0.166 0 0.302 0.038 0.406 0.114 0.104 0.069 0.191 0.184 0.26 0.343 0.069 0.153 0.132 0.357 0.187 0.614 0.056 0.25 0.114 0.555 0.177 0.916 0.069 0.388 0.128 0.694 0.177 0.916 0.056 0.222 0.101 0.389 0.135 0.499 0.035 0.104 0.066 0.17 0.094 0.198s0.056 0.042 0.083 0.042c0.062 0 0.132-0.038 0.208-0.114 0.083-0.076 0.163-0.16 0.239-0.25 0.083-0.097 0.16-0.187 0.229-0.271 0.069-0.090 0.121-0.149 0.156-0.177 0.118-0.097 0.271-0.146 0.458-0.146 0.097 0 0.194 0.014 0.291 0.042 0.104 0.028 0.194 0.073 0.271 0.135 0.083 0.056 0.149 0.125 0.198 0.208s0.073 0.177 0.073 0.281c0 0.056-0.010 0.142-0.031 0.26s-0.069 0.219-0.146 0.302c-0.194 0.222-0.378 0.413-0.552 0.572-0.173 0.153-0.343 0.277-0.51 0.375s-0.336 0.166-0.51 0.208c-0.173 0.042-0.357 0.062-0.551 0.062-0.278 0-0.513-0.052-0.708-0.156s-0.357-0.243-0.489-0.416c-0.132-0.18-0.236-0.389-0.312-0.624s-0.132-0.486-0.166-0.749c-0.042 0.25-0.101 0.479-0.177 0.687s-0.184 0.389-0.323 0.541c-0.132 0.146-0.298 0.264-0.499 0.354-0.201 0.083-0.444 0.125-0.728 0.125zM32.841 14.673c0.090 0 0.17-0.028 0.239-0.083 0.076-0.056 0.139-0.125 0.187-0.208 0.056-0.090 0.097-0.184 0.125-0.281s0.049-0.187 0.062-0.271c-0.076 0-0.163 0.024-0.26 0.073-0.097 0.042-0.191 0.097-0.281 0.166-0.090 0.062-0.166 0.128-0.229 0.198-0.056 0.069-0.083 0.128-0.083 0.177 0 0.076 0.024 0.135 0.073 0.177 0.049 0.035 0.104 0.052 0.167 0.052zM25.449 9.428c0.326 0 0.607 0.056 0.843 0.166 0.236 0.104 0.427 0.243 0.572 0.416 0.153 0.174 0.264 0.371 0.333 0.593 0.076 0.222 0.114 0.444 0.114 0.666s-0.038 0.447-0.114 0.676c-0.069 0.229-0.166 0.451-0.291 0.666s-0.274 0.416-0.448 0.604c-0.166 0.18-0.347 0.34-0.541 0.479 0.146 0.090 0.271 0.146 0.375 0.167 0.111 0.021 0.25 0.031 0.416 0.031 0.264 0 0.51-0.052 0.739-0.156 0.229-0.111 0.434-0.284 0.614-0.52 0.104-0.146 0.194-0.26 0.271-0.343 0.083-0.083 0.16-0.146 0.229-0.187 0.069-0.049 0.135-0.080 0.198-0.094s0.132-0.021 0.208-0.021c0.229 0 0.416 0.076 0.562 0.229s0.219 0.333 0.219 0.541c0 0.111-0.028 0.222-0.083 0.333-0.049 0.111-0.111 0.215-0.187 0.312-0.18 0.25-0.382 0.468-0.604 0.656-0.222 0.18-0.454 0.333-0.697 0.458-0.236 0.118-0.482 0.205-0.739 0.26-0.25 0.056-0.493 0.083-0.729 0.083-0.506 0-0.978-0.090-1.415-0.271-0.43-0.173-0.805-0.409-1.124-0.708-0.326-0.305-0.579-0.659-0.76-1.061-0.187-0.409-0.281-0.843-0.281-1.301 0-0.277 0.042-0.572 0.125-0.885 0.076-0.312 0.205-0.6 0.385-0.864 0.18-0.271 0.416-0.493 0.708-0.666 0.298-0.173 0.666-0.26 1.103-0.26zM25.449 10.979c-0.146 0-0.267 0.035-0.364 0.104-0.097 0.062-0.177 0.149-0.239 0.26-0.055 0.104-0.097 0.222-0.125 0.354-0.021 0.132-0.031 0.264-0.031 0.395 0 0.18 0.028 0.354 0.083 0.52 0.104-0.062 0.212-0.146 0.323-0.25 0.118-0.111 0.225-0.229 0.323-0.354 0.097-0.132 0.177-0.26 0.239-0.385 0.062-0.132 0.094-0.25 0.094-0.354 0-0.056-0.014-0.118-0.042-0.187s-0.114-0.104-0.26-0.104zM17.047 12.975c0.001 0.499 0.004 0.987 0.008 1.466v0.001c0.013 0.707 0.019 1.421 0.019 2.14 0 0.958-0.003 1.907-0.009 2.847 0.601 0.595 0.862 0.384 1.315 0.017l0.022-0.017v-0.195c0.006-0.445 0.009-0.903 0.009-1.373v-1.503c0.006-0.539 0.009-1.129 0.009-1.768v-0.222c0.017 0.041 0.037 0.080 0.060 0.117 0.098 0.16 0.242 0.269 0.409 0.338 0.327 0.135 0.751 0.117 1.164 0.020 0.417-0.098 0.848-0.281 1.2-0.506 0.344-0.22 0.639-0.495 0.756-0.789 0.237-0.492 0.313-1.046 0.216-1.585-0.098-0.541-0.364-1.038-0.761-1.42l-0.007-0.007-0.008-0.006c-0.378-0.278-0.836-0.429-1.305-0.43-0.466-0.001-0.919 0.146-1.293 0.42-0.13 0.072-0.293 0.168-0.458 0.283v-0.068c0-0.158-0.009-0.291-0.030-0.393-0.015-0.108-0.050-0.209-0.117-0.288-0.062-0.080-0.147-0.128-0.244-0.148-0.081-0.023-0.176-0.032-0.281-0.032-0.102 0-0.214 0.015-0.335 0.041l-0.002 0c-0.168 0.040-0.289 0.169-0.375 0.333-0.095 0.177-0.183 0.351-0.266 0.522l-0.001 0.002c-0.074 0.16-0.158 0.331-0.251 0.511l-0.002 0.004c-0.086 0.178-0.191 0.375-0.315 0.592l-0.001 0.001c-0.114 0.204-0.255 0.436-0.424 0.696-0.029 0.003-0.056 0.008-0.082 0.014-0.062 0.014-0.128 0.045-0.198 0.094-0.069 0.042-0.146 0.104-0.229 0.187-0.076 0.083-0.166 0.198-0.271 0.343-0.18 0.236-0.385 0.409-0.614 0.52-0.229 0.104-0.475 0.156-0.739 0.156-0.166 0-0.305-0.010-0.416-0.031-0.104-0.021-0.229-0.076-0.375-0.167 0.194-0.139 0.375-0.298 0.541-0.479 0.174-0.187 0.323-0.389 0.448-0.604s0.222-0.437 0.291-0.666c0.076-0.229 0.114-0.454 0.114-0.676s-0.038-0.444-0.114-0.666c-0.069-0.222-0.18-0.42-0.333-0.593-0.146-0.173-0.336-0.312-0.572-0.416-0.236-0.111-0.517-0.166-0.843-0.166-0.437 0-0.805 0.087-1.103 0.26-0.291 0.173-0.527 0.395-0.708 0.666-0.18 0.264-0.309 0.552-0.385 0.864-0.083 0.312-0.125 0.607-0.125 0.885 0 0.458 0.094 0.892 0.281 1.301 0.18 0.402 0.434 0.756 0.76 1.061 0.319 0.298 0.694 0.534 1.124 0.708 0.437 0.18 0.909 0.271 1.415 0.271 0.236 0 0.479-0.028 0.729-0.083 0.257-0.056 0.503-0.142 0.739-0.26 0.243-0.125 0.475-0.277 0.697-0.458 0.222-0.187 0.423-0.406 0.604-0.656 0.076-0.097 0.139-0.201 0.187-0.312 0.028-0.056 0.049-0.112 0.063-0.169 0.051-0.032 0.097-0.072 0.139-0.118l0.002-0.002c0.046-0.053 0.097-0.13 0.154-0.225 0.040-0.061 0.079-0.122 0.117-0.186zM18.42 13.663c0.065-0.128 0.161-0.238 0.282-0.319 0.18-0.121 0.4-0.168 0.614-0.132 0.252 0.013 0.531-0.014 0.77-0.102 0.241-0.088 0.433-0.234 0.533-0.453 0.219-0.479 0.079-0.982-0.314-1.19-0.304-0.161-0.547-0.064-0.846 0.063l-0.003 0.001c-0.081 0.034-0.168 0.071-0.257 0.1-0.252 0.089-0.479 0.234-0.665 0.423-0.003 0.071-0.021 0.141-0.055 0.205-0.017 0.032-0.038 0.062-0.062 0.089l0.002 0.098v1.216zM12.357 10.979c-0.146 0-0.267 0.035-0.364 0.104-0.097 0.062-0.177 0.149-0.239 0.26-0.056 0.104-0.097 0.222-0.125 0.354-0.021 0.132-0.031 0.264-0.031 0.395 0 0.18 0.028 0.354 0.083 0.52 0.104-0.062 0.212-0.146 0.323-0.25 0.118-0.111 0.225-0.229 0.323-0.354 0.097-0.132 0.177-0.26 0.239-0.385 0.062-0.132 0.094-0.25 0.094-0.354 0-0.056-0.014-0.118-0.042-0.187s-0.114-0.104-0.26-0.104zM52.586 8.674c-0.472-0.055-0.949 0.033-1.371 0.251-0.42 0.217-0.765 0.555-0.993 0.969-0.168 0.238-0.325 0.485-0.468 0.74l-0.004 0.009c-0.042 0.093-0.063 0.195-0.060 0.298s0.029 0.203 0.076 0.294c0.047 0.091 0.114 0.17 0.197 0.232 0.056 0.042 0.118 0.075 0.184 0.097l-0.003 0.084v0c-0.021 0.508-0.046 1.13 0.076 1.679 0.069 0.308 0.185 0.601 0.38 0.84 0.196 0.241 0.468 0.422 0.836 0.515 0.748 0.219 1.367-0.094 1.823-0.587 0.454-0.49 0.758-1.169 0.893-1.725l0.001-0.003c0.137-0.634 0.129-1.433-0.099-2.135-0.228-0.702-0.682-1.321-1.446-1.555-0.007-0.002-0.013-0.003-0.020-0.004zM52.24 10.039c-0.077 0.012-0.151 0.036-0.22 0.072-0.083 0.043-0.157 0.103-0.216 0.175l-0.005 0.005c-0.254 0.271-0.492 0.556-0.712 0.856 0.011 0.084 0.021 0.189 0.032 0.304l0 0.002 0 0.002c0.008 0.085 0.017 0.177 0.027 0.27 0.027 0.249 0.064 0.522 0.124 0.77 0.061 0.251 0.142 0.466 0.252 0.608 0.1 0.129 0.217 0.193 0.371 0.177 0.472-0.341 0.777-0.952 0.849-1.589 0.071-0.628-0.087-1.256-0.504-1.654zM2.655 9.968c0.468-0.084 0.949-0.026 1.384 0.166 0.006 0.003 0.012 0.006 0.018 0.010 0.66 0.45 0.91 1.175 0.92 1.914 0.010 0.737-0.219 1.504-0.538 2.068l-0.001 0.002c-0.294 0.491-0.785 1.049-1.364 1.383-0.581 0.335-1.265 0.451-1.915 0.020-0.324-0.197-0.529-0.451-0.645-0.739-0.115-0.287-0.14-0.6-0.114-0.915 0.046-0.56 0.255-1.147 0.425-1.626l0.028-0.079c-0.056-0.041-0.105-0.091-0.147-0.148-0.060-0.083-0.101-0.179-0.119-0.28s-0.013-0.205 0.015-0.304c0.028-0.099 0.078-0.19 0.146-0.267l0.006-0.007c0.212-0.201 0.434-0.39 0.666-0.568 0.34-0.328 0.77-0.548 1.235-0.631zM3.073 11.34c0.076-0.014 0.155-0.015 0.231-0.004 0.281 0.504 0.246 1.15-0.009 1.729-0.257 0.586-0.73 1.080-1.281 1.266-0.151-0.030-0.245-0.126-0.301-0.279-0.063-0.168-0.077-0.398-0.060-0.655 0.016-0.255 0.062-0.527 0.109-0.773 0.018-0.093 0.037-0.184 0.054-0.27v0c0.023-0.113 0.045-0.216 0.059-0.3 0.298-0.221 0.61-0.424 0.933-0.607l0.006-0.004c0.078-0.051 0.166-0.086 0.258-0.103z"></path>
</svg>
