<svg width="23" height="4" viewBox="0 0 23 4" fill="none" xmlns="http://www.w3.org/2000/svg">
<path fill-rule="evenodd" clip-rule="evenodd" d="M21.2789 2.19511L20.7011 2.31955L19.3323 2.49733C18.8222 2.56563 18.3089 2.60717 17.7945 2.62177C17.0389 2.62177 16.2834 2.66622 15.5278 2.69288H13.6789C12.4611 2.69288 11.2523 2.54177 10.0345 2.444C8.8167 2.34622 7.66115 2.25733 6.47893 2.26622L2.51448 2.32844L0.905592 2.15955C0.811247 2.14418 0.726393 2.09321 0.66851 2.01714C0.61063 1.94107 0.584133 1.84569 0.594481 1.75066C0.609823 1.65694 0.661144 1.57292 0.737514 1.51647C0.813885 1.46002 0.909271 1.43561 1.00337 1.44844L2.51448 1.52844L6.44337 1.22622C7.36781 1.17288 8.29226 1.17288 9.2167 1.22622C10.4967 1.27955 11.7678 1.39511 13.0389 1.49288C13.8567 1.52844 14.6656 1.59955 15.5545 1.61733C16.4434 1.63511 17.0656 1.69733 17.8211 1.724H19.2967L20.6745 1.63511C21.6878 1.52844 21.4211 1.52844 21.5011 1.52844C21.5642 1.53417 21.6239 1.55957 21.6717 1.60104C21.7196 1.6425 21.7532 1.69795 21.7678 1.75955C21.7807 1.80851 21.7817 1.85981 21.7709 1.90926C21.7601 1.95871 21.7377 2.00488 21.7056 2.044C21.6489 2.10466 21.574 2.14522 21.4923 2.15955L21.2789 2.19511Z" fill="white" stroke="white" stroke-width="0.888889" stroke-linejoin="round"/>
</svg>
