<svg width="26" height="3" viewBox="0 0 26 3" fill="none" xmlns="http://www.w3.org/2000/svg">
<path fill-rule="evenodd" clip-rule="evenodd" d="M24.4808 1.05541L22.7708 1.14541L18.3608 0.805414C17.3108 0.745414 16.2708 0.735414 15.2308 0.805414C13.8008 0.865414 12.3708 0.995413 10.9308 1.10541C10.0008 1.17541 9.06081 1.25541 8.11081 1.28541C7.16081 1.31541 6.42081 1.37541 5.57081 1.39541H3.91081L2.36081 1.29541C1.24081 1.11541 1.20081 1.08541 1.10081 1.40541C1.08342 1.45859 1.08074 1.51549 1.09306 1.57007C1.10539 1.62464 1.13225 1.67487 1.17081 1.71541C1.20422 1.75745 1.24567 1.7918 1.29232 1.81673C1.36013 1.85296 1.43953 1.85541 1.51641 1.85541C1.59912 1.85541 1.6816 1.86406 1.7625 1.88123L2.30081 1.99541L3.83081 2.20541C4.41081 2.27541 4.98081 2.31541 5.56081 2.34541L8.11081 2.41541H10.2008C11.5608 2.41541 12.9308 2.24541 14.2908 2.14541C15.6508 2.04541 16.9708 1.92541 18.2908 1.94541L22.7408 2.01541L24.5608 1.81541C24.6136 1.8081 24.6644 1.79032 24.7102 1.76311C24.756 1.7359 24.7959 1.6998 24.8276 1.65695C24.8593 1.6141 24.8821 1.56535 24.8946 1.51357C24.9072 1.46179 24.9093 1.40802 24.9008 1.35541C24.8775 1.26386 24.8225 1.18352 24.7457 1.12861C24.6688 1.0737 24.575 1.04777 24.4808 1.05541Z" fill="white" stroke="white" stroke-linejoin="round"/>
</svg>
