<svg width="76" height="57" viewBox="0 0 76 57" fill="none" xmlns="http://www.w3.org/2000/svg">
<g filter="url(#filter0_b_444_59275)">
<path fill-rule="evenodd" clip-rule="evenodd" d="M50.4928 27.9556C50.2504 27.9072 49.9987 27.9408 49.7775 28.0512C49.6829 28.0492 49.5883 28.0538 49.4943 28.065C49.9658 31.6873 50.3834 33.6031 51.5471 36.7055C52.1595 38.4016 52.949 40.0286 53.9024 41.5593C56.7884 45.7568 61.0996 48.7644 66.0355 50.0237C68.4161 50.6318 70.863 50.9419 73.3201 50.947C73.4761 50.9457 73.6379 50.953 73.8017 50.9603C74.4252 50.9882 75.0787 51.0175 75.5636 50.5844C76.3567 49.7811 75.8429 48.6644 75.379 47.6561C75.2156 47.3007 75.0582 46.9588 74.9665 46.6488C72.7597 41.673 69.3251 37.3393 64.9849 34.0543C60.6924 30.8562 55.622 29.1763 50.4928 27.9556Z" fill="#194128"/>
<path fill-rule="evenodd" clip-rule="evenodd" d="M41.0892 32.6136C40.9691 32.8296 40.9243 33.0795 40.9618 33.3238C40.931 33.4133 40.9065 33.5049 40.8884 33.5978C44.4817 34.2552 46.4335 34.4428 49.743 34.2823C51.5452 34.2172 53.3355 33.9624 55.0843 33.5221C59.9627 32.0561 64.1434 28.8696 66.8502 24.5542C68.1563 22.4731 69.199 20.2379 69.9543 17.8998C70.0008 17.7508 70.0571 17.599 70.1141 17.4453C70.3312 16.8601 70.5586 16.2467 70.2943 15.6528C69.7717 14.6522 68.5514 14.8003 67.4496 14.934C67.0613 14.9812 66.6877 15.0265 66.3645 15.0192C60.9524 15.6007 55.7768 17.5475 51.323 20.6768C46.9666 23.7874 43.8183 28.1024 41.0892 32.6136Z" fill="#194128"/>
<path fill-rule="evenodd" clip-rule="evenodd" d="M5.53668 22.9786C8.60545 27.1501 6.76126 26.694 7.13383 32.6422C7.41182 37.1443 9.57102 44.1422 12.6707 47.5354C14.7724 49.8239 17.534 52.1116 20.387 53.2059C24.56 54.8188 28.6626 56.5524 33.1134 56.8443C35.6313 57.0115 40.5667 56.0631 42.7268 55.0561C45.8544 53.6105 50.232 50.4828 52.9829 48.4543C58.3308 44.5463 60.9956 38.6253 60.5369 32.1465C60.422 30.4919 60.7432 29.2459 60.6174 27.5376C59.954 18.5554 54.6077 9.29539 48.2006 4.60998C44.4655 1.8838 40.1464 0.295175 35.5051 0.193317C28.9505 0.0354907 28.175 -0.337223 20.862 3.94498C17.7789 5.74497 15.2378 8.55283 13.1716 10.8663C12.0804 10.5359 11.1987 10.4646 10.2178 10.2905C8.89269 10.075 8.33705 9.35524 6.84382 10.4775L7.20016 10.8521C8.16997 10.4523 10.6153 11.2216 11.203 12.8634C11.8819 14.7326 11.3916 16.1363 11.1358 17.5648C10.7796 19.6514 10.2167 19.7162 8.93334 21.6179C8.38455 22.435 8.78019 22.9469 7.65334 23.3174C6.71756 23.6375 6.37159 23.1769 5.57304 22.9376L5.53668 22.9786Z" fill="#D03435"/>
<path fill-rule="evenodd" clip-rule="evenodd" d="M5.34763 22.5473L5.53657 22.9785C6.34377 23.2328 6.69609 23.6698 7.61685 23.3583C8.73505 22.9728 8.34807 22.4759 8.89686 21.6588C10.1803 19.7571 10.7518 19.7073 11.0993 17.6057C11.3402 16.1859 11.8218 14.7672 11.1665 12.9043C10.5701 11.2475 8.1335 10.4932 7.16369 10.893L6.80735 10.5184C5.63128 10.457 4.93994 9.6755 3.60637 9.96518C1.88196 10.3404 1.29851 11.0975 0.893622 12.3718C1.42915 13.4034 1.70983 13.6816 2.61049 13.6819C4.055 13.6883 3.55368 13.0973 4.73456 13.7562C4.46798 14.2303 4.84024 13.8353 4.29593 14.2096L2.00539 15.3719C0.860749 16.0928 0.573441 16.739 1.09458 17.9189C1.73069 19.3326 3.74822 22.0299 5.35397 22.5236L5.34763 22.5473Z" fill="#530700"/>
</g>
<defs>
<filter id="filter0_b_444_59275" x="-19.1558" y="-19.8904" width="115.132" height="96.7539" filterUnits="userSpaceOnUse" color-interpolation-filters="sRGB">
<feFlood flood-opacity="0" result="BackgroundImageFix"/>
<feGaussianBlur in="BackgroundImageFix" stdDeviation="10"/>
<feComposite in2="SourceAlpha" operator="in" result="effect1_backgroundBlur_444_59275"/>
<feBlend mode="normal" in="SourceGraphic" in2="effect1_backgroundBlur_444_59275" result="shape"/>
</filter>
</defs>
</svg>
