<svg width="65" height="50" viewBox="0 0 65 50" fill="none" xmlns="http://www.w3.org/2000/svg">
<g filter="url(#filter0_b_444_59357)">
<path fill-rule="evenodd" clip-rule="evenodd" d="M41.6465 25.9605C41.431 25.9175 41.2073 25.9474 41.0107 26.0455C40.9266 26.0437 40.8425 26.0477 40.759 26.0577C41.1781 29.2776 41.5492 30.9805 42.5837 33.7381C43.128 35.2458 43.8298 36.692 44.6772 38.0526C47.2426 41.7838 51.0748 44.4572 55.4622 45.5766C57.5784 46.1171 59.7534 46.3928 61.9374 46.3973C62.0762 46.3961 62.2199 46.4026 62.3655 46.4091C62.9198 46.4339 63.5007 46.4599 63.9316 46.0749C64.6366 45.3609 64.18 44.3683 63.7676 43.472C63.6223 43.1561 63.4825 42.8522 63.401 42.5767C61.4393 38.1537 58.3863 34.3016 54.5284 31.3815C50.7128 28.5388 46.2058 27.0456 41.6465 25.9605Z" fill="#194128"/>
<path fill-rule="evenodd" clip-rule="evenodd" d="M33.288 30.101C33.1812 30.2931 33.1414 30.5152 33.1747 30.7324C33.1473 30.8119 33.1255 30.8933 33.1095 30.9759C36.3035 31.5603 38.0384 31.727 40.9802 31.5843C42.5822 31.5265 44.1735 31.3 45.728 30.9086C50.0644 29.6055 53.7806 26.773 56.1866 22.9372C57.3476 21.0873 58.2745 19.1004 58.9459 17.0221C58.9872 16.8897 59.0372 16.7548 59.0879 16.6181C59.2808 16.0979 59.483 15.5527 59.2481 15.0248C58.7835 14.1354 57.6988 14.267 56.7195 14.3859C56.3743 14.4278 56.0422 14.4681 55.7549 14.4616C50.9442 14.9785 46.3436 16.7089 42.3847 19.4906C38.5124 22.2555 35.7139 26.0911 33.288 30.101Z" fill="#194128"/>
<path fill-rule="evenodd" clip-rule="evenodd" d="M40.347 6.16155C35.8898 6.6568 37.0303 5.4712 32.408 3.17506C28.9113 1.43419 22.7282 0.0234857 18.8413 0.878912C16.215 1.4642 13.3035 2.54474 11.2475 4.21057C8.23097 6.64178 5.15443 8.96795 3.00836 12.1795C1.79275 13.9955 0.367045 18.1075 0.186949 20.1635C-0.0831813 23.135 0.367044 27.7723 0.69721 30.7138C1.31251 36.4166 4.59915 40.9789 9.65668 43.4402C10.9473 44.0705 11.7427 44.8509 13.0784 45.4962C20.1019 48.8879 29.3615 48.8879 35.6496 46.1115C39.3115 44.4907 42.373 41.9394 44.459 38.5027C47.4155 33.6553 48.0308 33.2351 47.9858 25.8964C47.9708 22.8049 46.9653 19.6833 46.1249 17.132C46.8452 16.4567 47.2805 15.8264 47.8357 15.166C48.5711 14.2656 49.3515 14.1605 49.1564 12.5547L48.7212 12.6598C48.6011 13.5602 46.9653 15.061 45.4796 14.7909C43.7837 14.4907 42.9433 13.5152 41.9828 12.7048C40.5721 11.5342 40.7672 11.084 39.8968 9.29812C39.5216 8.53273 38.9663 8.60777 39.1764 7.60227C39.3415 6.76185 39.8367 6.70182 40.362 6.20657L40.347 6.16155Z" fill="#D03435"/>
<path fill-rule="evenodd" clip-rule="evenodd" d="M40.7523 6.20656L40.3471 6.16154C39.8069 6.65679 39.3266 6.73182 39.1615 7.55723C38.9664 8.56273 39.5067 8.4877 39.8819 9.25308C40.7523 11.039 40.5422 11.4892 41.9679 12.6598C42.9284 13.4552 43.7838 14.4307 45.4647 14.7458C46.9654 15.016 48.5862 13.5152 48.7063 12.6148L49.1415 12.5097C49.6968 11.6543 50.5822 11.4742 50.9424 10.3486C51.4077 8.8929 51.0925 8.12752 50.3121 7.27209C49.3066 7.22707 48.9764 7.31711 48.5862 7.99245C47.9559 9.07299 48.6163 8.95293 47.6108 9.55323C47.3706 9.14803 47.5057 9.59825 47.4607 9.02797L47.5807 6.80686C47.5357 5.63627 47.1755 5.14103 46.065 5.02097C44.7293 4.8859 41.8329 5.23107 40.7673 6.22156L40.7523 6.20656Z" fill="#530700"/>
</g>
<defs>
<filter id="filter0_b_444_59357" x="-17.6735" y="-17.156" width="99.7496" height="84.9337" filterUnits="userSpaceOnUse" color-interpolation-filters="sRGB">
<feFlood flood-opacity="0" result="BackgroundImageFix"/>
<feGaussianBlur in="BackgroundImageFix" stdDeviation="8.88889"/>
<feComposite in2="SourceAlpha" operator="in" result="effect1_backgroundBlur_444_59357"/>
<feBlend mode="normal" in="SourceGraphic" in2="effect1_backgroundBlur_444_59357" result="shape"/>
</filter>
</defs>
</svg>
