<svg width="668" height="1028" viewBox="0 0 668 1028" fill="none" xmlns="http://www.w3.org/2000/svg">
<path d="M594.844 763.572C584.054 763.572 573.936 758.98 563.081 758.563C556.741 758.324 550.054 757.967 543.758 758.801C539.98 759.308 535.117 759.785 531.491 761.455C526.932 763.543 522.655 767.717 518.182 770.013C510.192 774.099 503.397 771.683 495.233 770.997C482.815 769.954 472.589 771.206 461.559 762.618C450.465 754.001 437.938 758.712 425.432 758.593C410.408 758.473 395.753 761.247 380.816 761.097C365.965 760.978 351.115 761.127 336.264 761.008C328.883 760.948 321.935 761.217 314.662 763.006C305.044 765.391 294.492 763.483 284.744 763.632C279.142 763.692 273.932 762.588 268.374 761.634C260.536 760.263 252.676 761.813 244.817 761.187C231.356 760.143 218.916 754.269 205.107 756.386C187.044 759.159 170.261 770.371 152.176 773.144C147.334 773.89 142.644 773.86 137.825 772.936C128.38 771.146 118.263 772.16 109.079 768.582C95.9871 763.483 81.2018 760.799 67.5455 760.978C59.9683 761.068 51.805 759.547 44.3363 760.919C41.0145 761.515 35.9341 762.529 33.5459 766.018C33.6544 757.191 34.1538 750.81 36.7157 742.878C38.1704 738.405 38.6914 733.455 39.0388 728.684C39.2342 726.001 40.0592 724.361 40.3632 722.482C41.3185 716.757 41.0362 711.926 42.6211 706.261C44.0107 701.221 44.9008 697.017 44.6186 691.53C44.2712 685.179 42.2738 682.048 39.0388 677.634C37.5842 675.666 32.9163 672.028 31.9175 669.703C30.7234 666.9 31.7004 662.546 32.1347 659.594C32.634 656.254 32.938 651.066 33.8064 647.935C34.9354 643.82 37.823 641.225 38.7131 636.723C39.5382 632.578 39.6901 626.316 38.6697 622.082C35.9992 611.019 31.5484 602.729 31.7221 590.623C31.8741 579.083 31.8307 567.304 30.4195 555.884C29.9635 552.246 30.5932 532.297 33.5459 528.033C35.9558 524.544 41.0145 523.53 44.3363 522.934C51.805 521.562 59.9683 523.083 67.5455 522.994C81.2018 522.815 95.9871 525.498 109.079 530.597C118.263 534.176 128.402 533.162 137.825 534.951C142.644 535.875 147.334 535.875 152.176 535.16C170.261 532.386 187.044 521.175 205.107 518.401C218.916 516.284 231.356 522.159 244.817 523.202C252.676 523.799 260.514 522.278 268.374 523.65C273.932 524.604 279.164 525.707 284.744 525.647C294.47 525.528 305.044 527.407 314.662 525.021C321.935 523.232 328.883 522.964 336.264 523.023C351.115 523.143 365.965 522.964 380.816 523.113C395.753 523.232 410.408 520.459 425.432 520.608C437.938 520.727 450.465 516.016 461.559 524.634C472.589 533.192 482.836 531.969 495.233 533.013C503.397 533.699 510.192 536.114 518.182 532.029C522.655 529.733 526.953 525.558 531.491 523.471C535.117 521.831 539.98 521.324 543.758 520.817C550.076 519.982 556.741 520.34 563.081 520.578C573.958 520.996 584.075 525.618 594.844 525.588C594.844 550.665 599.382 581.886 594.931 606.129C594.258 609.796 592.217 615.7 590.393 618.653C588.352 621.992 583.989 623.066 583.728 627.807C583.272 635.918 590.415 638.035 592.651 643.343C595.582 650.32 591.436 661.383 591.11 668.361C590.545 680.586 592.912 692.037 593.064 703.964C593.194 714.55 593.65 724.182 594.779 734.469C595.843 744.16 594.844 753.673 594.822 763.572H594.844Z" fill="#D6D6D6"/>
<path d="M29.1853 531.84C29.8715 527.296 33.0237 524.625 33.9228 520.675C35.0963 515.499 34.6409 509.281 35.0208 503.954C35.7597 492.931 38.4122 482.405 39.1854 471.352C39.5809 465.564 40.1769 459.751 40.506 453.96C40.912 446.876 38.4675 440.436 38.0061 433.415C37.2897 422.127 37.6705 389.225 40.7655 378.405C41.9357 374.309 45.3425 362.142 51.7438 361.803L51.1149 364.651C56.6547 367.153 75.085 366.82 81.0011 367.051C92.3002 367.526 103.639 364.854 114.938 364.372C137.168 363.427 143.15 374.307 164.577 376.452C179.337 377.908 193.889 374.697 208.697 375.722C213.446 376.037 218.25 376.663 223.011 376.608C230.569 376.524 237.984 374.738 245.541 374.654C254.231 374.547 262.914 374.655 271.597 374.733C280.513 374.819 289.662 371.98 298.367 370.423C312.632 367.851 325.883 367.682 340.393 368.666C354.072 369.623 367.417 369.642 380.558 373.697C385.861 375.327 390.947 376.487 396.476 377.353C403.097 378.379 409.234 380.932 415.92 382.022C431.211 384.515 430.293 384.731 445.861 383.961C452.429 383.628 457.711 383.899 464.158 385.166C469.184 386.139 473.94 387.195 479.081 386.72C489.964 385.731 500.765 383.226 511.614 382.266C517.021 381.801 522.766 383.137 528.184 383.351C536.56 383.665 544.752 382.523 553.218 383.118C574.766 384.618 595.969 381.571 617.483 382.113C625.829 382.334 633.294 383.018 641.011 386.088C646.626 388.314 652.173 390.601 657.789 392.827C656.193 394.748 654.532 396.637 653.035 398.592C646.388 407.162 638.891 437.941 630.299 444.995C619.894 453.5 605.942 457.657 596.157 466.523C591.008 471.163 587.042 476.244 581.63 480.814C576.868 484.819 571.93 488.139 566.18 490.876C563.373 492.201 554.161 493.957 552.188 496.205C549.767 498.931 550.198 505.859 550.416 509.261C550.945 517.21 557.628 521.355 561.547 528.462C565.152 535.034 567.747 541.942 570.881 548.683C572.214 551.568 573.421 555.25 575.096 557.868C576.899 560.645 581.403 562.279 583.851 564.676C588.589 569.249 590.873 575.499 595.269 580.338C600.659 586.292 607.3 590.652 612.591 596.571C620.641 605.546 625.338 630.981 631.455 641.032C629.189 640.122 626.892 639.181 624.593 638.27C616.876 635.2 609.444 634.517 601.065 634.295C579.551 633.752 558.348 636.8 536.8 635.3C528.334 634.705 520.142 635.847 511.766 635.533C506.314 635.349 500.603 633.983 495.196 634.448C484.347 635.408 473.546 637.913 462.663 638.902C457.555 639.378 452.765 638.321 447.74 637.348C441.293 636.081 436.01 635.84 429.443 636.143C413.875 636.912 414.793 636.697 399.502 634.204C392.816 633.114 386.712 630.562 380.057 629.535C374.529 628.669 369.443 627.509 364.14 625.879C350.998 621.824 337.687 621.806 323.975 620.848C309.466 619.833 296.213 620.032 281.951 622.543C273.212 624.099 264.097 626.939 255.181 626.853C246.498 626.776 237.815 626.667 229.125 626.774C221.568 626.858 214.119 628.643 206.595 628.728C201.834 628.783 197.029 628.188 192.281 627.843C177.506 626.818 162.921 630.028 148.161 628.572C126.7 626.457 120.751 615.547 98.5216 616.493C87.1901 616.974 75.8832 619.677 64.585 619.171C58.7033 618.911 47.2679 619.511 41.6949 617.008L42.3238 614.16C42.9526 611.311 39.8495 588.923 40.0202 585.843C40.163 582.607 40.9019 579.454 40.3122 576.224C39.7755 573.398 38.3113 569.46 38.0259 567.074C37.7924 565.122 38.1553 563.251 37.9208 561.33C37.571 558.88 35.6286 557.272 35.0388 555.03C33.4481 548.927 28.3473 537.922 29.2529 531.812L29.1853 531.84Z" fill="#D6D6D6"/>
<path fill-rule="evenodd" clip-rule="evenodd" d="M32.4872 209.451L31.4761 209.445C31.8148 209.447 32.1527 209.45 32.4897 209.454L32.7096 209.747C33.1383 210.317 33.5656 210.885 33.9413 211.399C32.4866 211.575 31.5591 211.846 31.983 212.411C34.3414 215.513 34.9789 217.307 36.035 221.358C36.9005 224.71 38.0041 227.612 39.1086 230.516L39.1087 230.516C39.3899 231.256 39.6713 231.995 39.9488 232.743C41.1333 235.961 41.8826 239.701 42.2013 243.16C42.4164 245.434 42.9018 247.38 43.3852 249.318C43.8147 251.04 44.2427 252.756 44.4779 254.689C44.7936 257.345 44.0931 258.786 43.3663 260.281C42.9431 261.151 42.5111 262.04 42.2655 263.197C41.6901 265.874 41.8123 268.736 41.9334 271.575C42.0062 273.281 42.0787 274.98 41.9992 276.625C41.906 278.648 41.2877 280.423 40.6775 282.173C40.1244 283.76 39.5781 285.328 39.4356 287.044C39.0761 291.064 41.8015 293.162 44.6375 295.345C45.7196 296.178 46.8177 297.023 47.7668 297.992C54.1886 304.565 47.5157 307.89 40.1982 311.536C35.069 314.091 29.6231 316.804 28.148 320.905C26.5425 325.358 28.5367 326.573 30.817 327.962C32.1488 328.773 33.5783 329.644 34.4451 331.254C35.4575 333.107 34.4577 335.43 33.5019 337.651C32.9875 338.846 32.4858 340.012 32.3175 341.059C32.0614 342.674 31.6932 344.401 31.3177 346.161C30.6109 349.476 29.8782 352.911 29.8195 355.955C29.752 358.916 30.3943 361.802 31.0378 364.693C31.5951 367.197 32.1534 369.705 32.2525 372.27C32.3239 374.275 32.1628 376.335 32.0015 378.397C31.805 380.909 31.6082 383.426 31.8309 385.851C32.2681 390.466 34.0412 391.416 36.4616 392.711C37.8972 393.48 39.5605 394.371 41.3078 396.22L42.6067 396.445C41.3096 410.728 41.9636 434.506 42.8636 443.737C43.1522 446.63 43.7758 449.412 44.3966 452.182C45.2783 456.115 46.1542 460.023 46.0566 464.186C45.9805 467.502 45.8174 470.828 45.6544 474.153C45.5323 476.642 45.4103 479.13 45.3248 481.612C45.1267 487.107 44.4618 492.488 43.7974 497.864C43.123 503.322 42.4491 508.775 42.2648 514.337C42.1969 516.154 42.2292 518.071 42.262 520.016C42.3255 523.781 42.3907 527.647 41.7327 531.085C41.3826 532.905 40.552 534.474 39.7028 536.078C38.6964 537.979 37.6641 539.928 37.3755 542.404L37.442 542.373C37.378 542.935 37.3071 543.537 37.2323 544.171C36.4911 550.454 35.378 559.891 37.0096 565.382C37.0876 565.642 37.1838 565.893 37.2937 566.138C37.266 568.039 37.3133 569.527 37.4198 570.254C38.831 580.03 38.8744 590.112 38.7224 599.989C38.6031 607.108 40.666 612.685 42.835 618.548C43.8235 621.221 44.834 623.952 45.67 626.917C46.6904 630.541 46.5385 635.901 45.7134 639.449C45.2325 641.531 44.1687 643.137 43.1141 644.728C42.2166 646.082 41.3258 647.427 40.8067 649.046C40.2292 650.828 39.9014 653.389 39.5996 655.745C39.4476 656.933 39.3023 658.068 39.135 659.026C39.0737 659.382 39.0016 659.763 38.9263 660.16C38.4682 662.578 37.8923 665.618 38.9179 667.678C39.5258 668.89 41.4936 670.518 43.2684 671.987C44.409 672.931 45.47 673.809 46.0391 674.468C49.2741 678.245 51.2715 680.925 51.6189 686.362C51.9011 691.058 51.011 694.657 49.6214 698.97C48.6587 701.916 48.3849 704.598 48.1042 707.349C47.9228 709.126 47.7385 710.932 47.3635 712.855C47.2453 713.48 47.0484 714.075 46.8403 714.702C46.7616 714.94 46.6812 715.183 46.6029 715.434C44.1378 715.001 41.6483 714.503 39.1236 713.936L46.5505 715.604C46.3342 716.318 46.1406 717.104 46.0506 718.038C45.4741 718.204 44.9263 718.335 44.4058 718.459C41.7535 719.092 39.8105 719.556 38.4072 723.663C37.6766 725.824 37.3392 728.163 37.0023 730.497C36.7258 732.414 36.4496 734.328 35.9565 736.139C35.3179 738.455 34.2401 740.615 33.1642 742.771C31.9216 745.261 30.6816 747.746 30.1232 750.461C29.5387 753.249 29.5342 756.547 29.5298 759.728C29.5274 761.418 29.5251 763.075 29.436 764.606C29.3807 765.598 29.6278 766.775 29.8813 767.981C30.3522 770.222 30.8448 772.566 29.4589 774.026C28.2672 775.297 26.6785 775.767 25.1982 776.205C22.6639 776.955 20.4476 777.61 21.0861 782.034C21.671 786.106 26.4514 789.813 30.9537 793.304C37.377 798.285 43.2344 802.827 35.5359 807.364C34.3987 808.033 33.1411 808.554 31.902 809.068L31.9016 809.069C28.6536 810.416 25.5323 811.711 25.0375 815.457C24.8155 817.054 25.0218 818.607 25.2306 820.179C25.4611 821.913 25.6946 823.67 25.3593 825.536C25.0903 827.054 24.6609 828.585 24.2293 830.124C23.5112 832.685 22.7875 835.266 22.7883 837.837C22.7855 838.948 23.0227 839.855 23.255 840.745C23.654 842.272 24.0387 843.744 23.1682 846.093C22.5291 847.802 21.7465 849.27 20.961 850.742C20.077 852.4 19.1893 854.064 18.4983 856.087C17.4552 859.169 15.9298 862.409 14.0866 865.074C13.6563 865.692 13.2238 866.303 12.7913 866.913C11.093 869.31 9.39594 871.706 7.83804 874.565C5.94551 878.018 4.94037 879.51 1.96798 881.803C1.15921 882.436 3.5168 883.154 6.11181 883.943L6.11237 883.944L6.11318 883.944C8.63637 884.712 11.3835 885.548 11.6625 886.441C8.10975 885.896 4.51504 885.217 0.844238 884.393L11.6297 886.815C11.6925 886.689 11.7011 886.565 11.6625 886.441C25.5472 888.57 38.7912 888.641 53.4335 887.262C63.4749 886.32 70.2932 889.213 79.1244 893.091C81.9323 894.331 84.7744 895.46 87.6057 896.584L87.6096 896.586C95.4918 899.715 103.291 902.812 110.039 908.204C111.077 909.032 111.807 909.696 112.42 910.253L112.421 910.254C114.187 911.861 114.976 912.579 119.355 913.76C127.628 916.003 136.564 918.276 145.009 919.61C148.057 920.083 151.105 920.111 154.15 920.139C157.084 920.166 160.016 920.193 162.942 920.618C165.803 921.032 168.531 921.526 171.222 922.013L171.223 922.013L171.223 922.014C176.558 922.98 181.75 923.92 187.551 924.161C197.3 924.578 207.681 927.325 217.701 929.976L217.702 929.976L217.703 929.976C221.913 931.09 226.059 932.187 230.068 933.087C247.051 936.901 262.458 940.775 278.668 946.755C285.86 949.406 291.237 952.893 297.606 957.076C309.242 964.663 322.116 970.012 335.761 973.342C344.892 975.58 354.096 977.55 363.297 979.52L363.304 979.522L363.307 979.522C368.672 980.671 374.037 981.82 379.385 983.021C383.032 983.84 386.675 984.733 390.32 985.626L390.331 985.629L390.332 985.629C396.673 987.184 403.02 988.74 409.402 989.91C419.081 991.673 428.908 992.72 438.73 993.766H438.731C450.19 994.986 461.644 996.206 472.852 998.563C479.501 999.956 486.062 999.781 492.56 999.607H492.561H492.562C495.656 999.524 498.737 999.442 501.805 999.529C515.162 999.923 528.294 1002.84 541.488 1005.78L541.49 1005.78L541.933 1005.88C545.99 1006.79 550.056 1007.68 554.122 1008.56C560.896 1010.04 567.67 1011.52 574.394 1013.11C578.859 1014.16 582.837 1015.79 586.826 1017.43L586.827 1017.43C589.906 1018.69 592.992 1019.96 596.312 1020.96C601.068 1022.4 606.111 1023.36 611.117 1024.32L611.118 1024.32C613.723 1024.82 616.318 1025.31 618.857 1025.87C618.807 1026.1 619.184 1026.49 619.566 1026.88C619.961 1027.29 620.361 1027.7 620.306 1027.95C620.396 1027.55 620.48 1027.16 620.562 1026.77C621 1024.73 621.402 1022.85 622.411 1020.99C624.651 1016.84 626.255 1012.26 627.421 1006.93C627.813 1005.13 628.128 1003.25 628.448 1001.35C629.098 997.463 629.764 993.492 631.121 990.024C631.692 988.566 632.473 987.284 633.254 986.001C634.105 984.602 634.958 983.202 635.54 981.572L635.55 981.546C636.757 978.163 639.311 971.012 638.358 967.461C637.668 964.936 634.799 962.184 632.192 959.685L632.192 959.685C630.892 958.439 629.658 957.256 628.792 956.195C628.217 955.48 627.663 954.801 627.132 954.151C620.99 946.629 618.131 943.127 625.145 934.918C626.952 932.81 628.647 930.63 630.337 928.456L630.338 928.456C633.703 924.127 637.051 919.822 641.232 916.15C641.925 915.533 642.697 915.312 643.444 915.098C644.331 914.845 645.183 914.601 645.831 913.719C646.639 912.635 646.826 911.074 646.999 909.635C647.06 909.121 647.12 908.622 647.206 908.165C647.279 907.801 647.349 907.436 647.418 907.07C647.489 906.689 647.558 906.308 647.627 905.927C648.261 902.422 648.894 898.92 651.011 896.053C652.295 894.314 653.543 892.948 654.696 891.685C657.417 888.707 659.61 886.305 660.498 880.953C660.953 878.211 660.253 875.808 659.575 873.481C658.637 870.261 657.741 867.185 660.001 863.552C660.337 863.568 659.429 861.497 658.53 859.447L658.53 859.446C657.65 857.441 656.78 855.456 657.094 855.468L657.137 855.419C654.49 854.824 651.782 854.307 649.064 853.787L649.064 853.787C644.168 852.851 639.242 851.91 634.591 850.504C631.271 849.5 628.186 848.234 625.107 846.971L625.106 846.971C621.117 845.335 617.138 843.703 612.674 842.651C605.93 841.062 599.161 839.584 592.392 838.105C588.33 837.218 584.269 836.331 580.213 835.42L580.212 835.42C566.875 832.425 553.598 829.443 540.085 829.073C537.017 828.985 533.936 829.068 530.842 829.151H530.841C524.342 829.324 517.781 829.5 511.132 828.107C499.952 825.771 488.531 824.551 477.104 823.329C467.25 822.276 457.393 821.223 447.682 819.453C441.274 818.297 434.895 816.727 428.532 815.161C424.905 814.268 421.283 813.377 417.665 812.564C412.315 811.363 406.945 810.213 401.575 809.063C392.366 807.092 383.155 805.12 374.041 802.886C360.365 799.548 347.522 794.207 335.885 786.62L335.632 786.455C329.368 782.371 324.074 778.921 316.948 776.298C300.738 770.319 285.331 766.445 268.347 762.63C264.333 761.729 260.179 760.627 255.96 759.508L255.959 759.508L255.958 759.508C245.938 756.85 235.557 754.097 225.831 753.704C220.139 753.472 215.014 752.543 209.759 751.591L209.758 751.591C206.983 751.088 204.172 750.578 201.222 750.161C198.295 749.736 195.364 749.71 192.43 749.683C189.877 749.659 187.323 749.636 184.768 749.35C185.066 749.248 185.364 749.146 185.663 749.043C194.373 746.052 203.08 743.062 212.108 741.876C220.686 740.75 228.737 742.264 236.833 743.787C241.768 744.715 246.719 745.647 251.817 745.985C255.173 746.214 258.529 746.103 261.883 745.992C266.384 745.844 270.883 745.695 275.374 746.368C276.185 746.487 276.989 746.609 277.788 746.73C282.462 747.439 286.96 748.122 291.744 748.078C294.883 748.037 298.105 748.178 301.352 748.321C308.19 748.621 315.141 748.926 321.662 747.542C328.935 746.01 335.883 745.781 343.265 745.832C350.69 745.883 358.115 745.876 365.54 745.87C372.966 745.864 380.391 745.857 387.816 745.908C395.313 745.972 402.738 745.406 410.175 744.84C417.556 744.277 424.949 743.714 432.432 743.764C435.783 743.792 439.135 743.522 442.46 743.255C451.548 742.525 460.438 741.81 468.56 747.21C477.58 753.222 486.063 753.6 495.648 754.027C497.783 754.122 499.972 754.22 502.234 754.382C504.057 754.513 505.812 754.718 507.527 754.919C513.492 755.615 518.977 756.256 525.182 753.54C527.278 752.619 529.33 751.346 531.389 750.068C533.724 748.619 536.068 747.164 538.491 746.215C541.712 744.945 545.91 744.481 549.455 744.089C549.901 744.04 550.336 743.992 550.758 743.943C556.536 743.287 562.643 743.491 568.508 743.687C569.034 743.705 569.559 743.722 570.081 743.739C575.269 743.91 580.288 744.896 585.292 745.88C590.753 746.954 596.196 748.024 601.823 748.027C601.83 745.283 601.939 742.575 602.048 739.885C602.275 734.265 602.499 728.725 601.779 723.116C600.65 714.31 600.194 706.066 600.064 697.005C599.999 692.622 599.526 688.315 599.051 683.998C598.421 678.259 597.788 672.502 598.11 666.53C598.216 664.583 598.728 662.265 599.269 659.818C600.387 654.756 601.627 649.141 599.652 645.115C598.816 643.419 597.297 642.103 595.745 640.759C593.14 638.503 590.443 636.167 590.728 631.818C590.892 629.269 592.674 627.959 594.482 626.629C594.865 626.347 595.249 626.064 595.619 625.769C598.869 625.604 602.126 625.494 605.392 625.466C613.774 625.404 621.224 625.836 629.041 628.643C630.491 629.161 631.941 629.692 633.383 630.22C634.256 630.539 635.127 630.858 635.992 631.172C633.247 626.986 630.665 620.011 627.961 612.706C624.308 602.838 620.434 592.371 615.636 587.373C612.867 584.478 609.766 581.991 606.656 579.496L606.656 579.496C605.583 578.635 604.509 577.774 603.447 576.894C603.265 573.501 603.047 570.107 602.832 566.745C602.333 558.969 601.844 551.363 601.844 544.322C596.212 544.336 590.759 543.26 585.281 542.18C580.881 541.312 576.466 540.441 571.931 540.129C570.916 538.098 569.946 536.052 568.976 534.007L568.974 534.003C566.897 529.624 564.822 525.247 562.319 521.03C560.828 518.53 558.994 516.422 557.219 514.382C554.045 510.734 551.056 507.299 550.544 502.215C550.212 498.823 549.547 491.914 551.875 489.107C553.097 487.616 557.333 486.227 560.929 485.048C562.91 484.398 564.697 483.813 565.678 483.309C571.333 480.379 576.155 476.893 580.779 472.729C583.652 470.133 586.087 467.398 588.52 464.666L588.52 464.665L588.521 464.665L588.522 464.664C590.539 462.399 592.554 460.136 594.815 457.956C599.803 453.119 605.989 449.546 612.204 445.957C617.8 442.725 623.419 439.48 628.209 435.286C632.97 431.1 637.114 419.216 640.975 408.144L640.975 408.144L640.976 408.141L640.977 408.139L640.977 408.137C642.393 404.076 643.771 400.125 645.128 396.703C646.997 396.75 648.872 396.826 650.743 396.902C653.484 397.013 656.215 397.124 658.904 397.14L658.873 397.078C658.568 397.016 659.853 395.157 661.151 393.279L661.151 393.279C662.477 391.36 663.816 389.422 663.489 389.357C662.118 385.031 663.671 382.043 665.297 378.915C666.472 376.654 667.685 374.32 667.858 371.354C668.197 365.567 666.615 362.54 664.653 358.785L664.653 358.784C663.821 357.192 662.921 355.47 662.07 353.352C660.667 349.857 660.837 346.058 661.008 342.256L661.009 342.247C661.045 341.439 661.081 340.63 661.102 339.824C661.122 339.328 661.175 338.794 661.231 338.244C661.386 336.703 661.554 335.033 661.016 333.71C660.587 332.636 659.818 332.177 659.019 331.7C658.345 331.298 657.649 330.883 657.117 330.075C653.899 325.246 651.628 319.959 649.345 314.643C648.198 311.973 647.048 309.296 645.774 306.667C640.834 296.434 644.378 293.474 651.993 287.114C652.65 286.565 653.338 285.991 654.053 285.384C655.126 284.487 656.583 283.551 658.116 282.565L658.117 282.565C661.193 280.588 664.58 278.411 665.81 275.946C667.525 272.477 666.657 264.417 666.246 260.604L666.243 260.574C666.044 258.737 665.534 257.074 665.024 255.413C664.557 253.889 664.09 252.367 663.863 250.712C663.328 246.774 663.573 242.479 663.812 238.28L663.812 238.278C663.93 236.218 664.046 234.181 664.068 232.22C664.134 226.386 663.609 221.227 662.373 216.373C661.814 214.187 661.845 212.137 661.879 209.904C661.886 209.484 661.892 209.057 661.895 208.621C661.893 208.887 661.414 209.222 660.942 209.552C660.484 209.872 660.033 210.188 660.031 210.431C657.453 210.405 654.836 210.299 652.209 210.193C647.16 209.988 642.073 209.782 637.157 210.139C633.725 210.387 630.462 210.964 627.205 211.541C622.986 212.287 618.779 213.032 614.232 213.057C607.383 213.092 600.51 213.007 593.636 212.922H593.636H593.635H593.635C589.509 212.872 585.383 212.821 581.262 212.796L580.812 212.792C567.411 212.681 554.073 212.57 541.084 209.775C538.1 209.129 535.143 208.304 532.173 207.475C525.935 205.734 519.636 203.976 512.903 203.831C501.55 203.596 490.214 202.117 478.873 200.638C475.567 200.207 472.262 199.775 468.955 199.375C470.732 199.092 472.477 198.748 474.181 198.33C479.681 196.985 484.825 196.516 490.099 196.035L490.1 196.034C492.884 195.781 495.705 195.523 498.634 195.132C501.543 194.755 504.351 193.966 507.162 193.177C510.079 192.357 512.999 191.537 516.036 191.177C524.458 190.17 533.569 190.059 542.1 190.067C546.576 190.067 547.515 190.583 549.613 191.738C550.353 192.146 551.238 192.633 552.474 193.205C560.351 196.888 568.623 197.911 576.984 198.945C579.989 199.316 583.005 199.689 586.018 200.187C595.486 201.759 602.766 202.814 612.111 199.045C629.193 192.169 644.833 188.203 663.121 187.359L652.173 187.864C653.845 185.946 655.471 184.99 656.875 184.164C659.241 182.773 660.975 181.753 661.227 177.125C661.352 174.692 661.055 172.186 660.758 169.683C660.514 167.629 660.271 165.577 660.262 163.571C660.258 161.004 660.716 158.475 661.172 155.951L661.172 155.95C661.7 153.036 662.226 150.127 662.04 147.171C661.859 144.132 660.989 140.729 660.15 137.445C659.705 135.701 659.268 133.991 658.947 132.387C658.737 131.348 658.189 130.203 657.627 129.029C656.583 126.849 655.491 124.567 656.429 122.676C657.23 121.032 658.624 120.105 659.922 119.241C662.145 117.761 664.089 116.468 662.306 112.082C660.668 108.044 655.118 105.551 649.891 103.203C642.433 99.8535 635.632 96.7988 641.786 89.9741C642.695 88.9677 643.759 88.0791 644.807 87.2036C647.553 84.9088 650.192 82.7036 649.672 78.701C649.461 76.9918 648.852 75.4477 648.236 73.8845L648.236 73.884C647.556 72.1591 646.867 70.4111 646.693 68.3927C646.548 66.7525 646.552 65.0533 646.557 63.3459V63.3451V63.3444C646.564 60.5025 646.571 57.638 645.889 54.9862C645.598 53.8397 645.13 52.9691 644.673 52.1165C643.887 50.652 643.129 49.2403 643.338 46.5742C643.496 44.6329 643.854 42.9012 644.215 41.1631C644.62 39.2073 645.027 37.2433 645.151 34.9632C645.331 31.4936 645.93 27.7265 646.985 24.4637C647.231 23.708 647.482 22.9597 647.733 22.2115L647.734 22.209L647.735 22.2053L647.735 22.2046C648.722 19.2586 649.709 16.3149 650.439 12.9315C651.332 8.84179 651.898 7.02325 654.13 3.82982C654.735 2.95105 652.292 2.86747 649.603 2.77549C646.988 2.68604 644.141 2.58865 643.637 1.74462C647.177 1.31713 650.792 1.01696 654.518 0.845093L643.57 1.35007C643.543 1.49714 643.568 1.62801 643.637 1.74462C629.806 3.41525 617.133 7.03034 603.508 12.5312C594.163 16.2999 586.881 15.2142 577.415 13.6729C574.402 13.1746 571.386 12.8017 568.381 12.4303C560.02 11.3966 551.747 10.3739 543.871 6.69047C542.658 6.12547 541.784 5.64329 541.051 5.23878C538.937 4.07289 537.993 3.55222 533.496 3.55315C524.997 3.54342 515.856 3.68692 507.433 4.66262C504.396 5.02309 501.476 5.84318 498.559 6.66264C495.748 7.452 492.94 8.24078 490.031 8.61758C487.188 8.98707 484.45 9.23701 481.749 9.48362C476.395 9.97247 471.185 10.4482 465.578 11.8161C456.152 14.1006 445.505 14.1583 435.228 14.2139C430.91 14.2373 426.657 14.2604 422.588 14.4481C405.349 15.2432 389.601 15.5369 372.527 13.883C364.953 13.1507 358.891 11.0507 351.697 8.50837C338.567 3.92201 324.849 1.98968 310.928 2.35366C301.608 2.58836 292.289 3.11892 282.973 3.6493C277.541 3.95859 272.109 4.26781 266.68 4.51826C262.974 4.68918 259.253 4.78251 255.53 4.87589C249.058 5.0382 242.581 5.20065 236.173 5.77089C226.457 6.64695 216.79 8.30414 207.127 9.96065C195.854 11.8932 184.586 13.8249 173.252 14.5141C166.53 14.9288 160.307 16.9373 154.144 18.9265C151.209 19.8738 148.287 20.8167 145.331 21.5811C132.465 24.8947 119.142 25.5393 105.756 26.187L105.307 26.2087C101.19 26.3986 97.069 26.6148 92.9489 26.8309L92.9489 26.8309L92.9488 26.8309L92.9483 26.8309C86.0829 27.1911 79.2191 27.5511 72.3739 27.7896C67.8293 27.9469 63.5955 27.3714 59.3506 26.7945C56.0732 26.349 52.7891 25.9027 49.3505 25.792C44.4239 25.633 39.3497 26.0424 34.3127 26.4488L34.3125 26.4488C31.6916 26.6603 29.0807 26.8709 26.5059 27.0002C26.4947 26.7573 26.0314 26.4602 25.561 26.1587C25.0762 25.8478 24.5839 25.5322 24.5716 25.2661C24.5917 25.7012 24.6152 26.1276 24.6384 26.5476L24.6385 26.5479L24.6385 26.5482V26.5482C24.7616 28.7772 24.8747 30.8249 24.4044 33.0309C23.3633 37.9309 23.0458 43.1066 23.3455 48.9338C23.446 50.8925 23.6436 52.9237 23.8435 54.9779C24.2508 59.1642 24.6673 63.4456 24.29 67.4021C24.1302 69.065 23.7244 70.6049 23.3183 72.1457C22.8753 73.8265 22.4321 75.5083 22.3075 77.3521L22.3055 77.3821C22.0479 81.2076 21.5031 89.2966 23.3551 92.6943C24.6833 95.1079 28.1549 97.1473 31.3081 98.9997C32.88 99.9231 34.3727 100.8 35.4813 101.654C36.22 102.231 36.9299 102.777 37.6086 103.299L37.6088 103.3C45.4717 109.35 49.132 112.166 44.6057 122.588C43.4376 125.266 42.3959 127.987 41.357 130.701C39.2885 136.104 37.2309 141.478 34.209 146.431C33.7099 147.26 33.0313 147.703 32.3738 148.132C31.5943 148.64 30.8444 149.129 30.4588 150.22C29.9743 151.563 30.2091 153.225 30.4256 154.758L30.4256 154.758C30.503 155.306 30.578 155.837 30.6171 156.332C30.6707 157.139 30.7396 157.949 30.8086 158.759C31.1316 162.551 31.4543 166.34 30.1916 169.888C29.4261 172.039 28.5959 173.796 27.8286 175.42C26.0185 179.251 24.5593 182.339 25.1293 188.108C25.4212 191.064 26.7269 193.347 27.9918 195.56C29.7414 198.62 31.4129 201.543 30.2158 205.921C29.9085 205.995 31.1628 207.688 32.4872 209.451ZM367.627 197.503C365.339 196.782 363.028 195.975 360.587 195.123L360.586 195.123L360.3 195.023C347.17 190.436 333.483 188.503 319.531 188.868C310.23 189.102 300.907 189.633 291.585 190.163L291.583 190.163C286.147 190.473 280.712 190.782 275.283 191.033C271.61 191.202 267.913 191.291 264.211 191.38C257.716 191.537 251.205 191.693 244.776 192.285C235.028 193.164 225.33 194.823 215.635 196.481C204.394 198.403 193.157 200.325 181.855 201.028C175.133 201.443 168.91 203.452 162.747 205.441L162.746 205.441L162.746 205.441C160.962 206.017 159.184 206.591 157.4 207.124C164.442 206.901 171.743 206.853 178.595 207.369C181.645 207.608 184.595 208.31 187.543 209.012C190.383 209.689 193.22 210.364 196.142 210.624C198.998 210.88 201.743 211.02 204.451 211.158H204.452C209.821 211.432 215.046 211.699 220.703 212.841C230.213 214.746 240.854 214.378 251.126 214.022H251.126H251.127H251.127C255.442 213.872 259.692 213.725 263.765 213.749C281.022 213.854 296.769 213.517 313.763 211.18C321.302 210.145 327.274 207.804 334.361 204.976C345.051 200.754 356.214 198.328 367.627 197.503ZM143.342 210.279C133.67 211.812 123.807 212.267 113.91 212.723H113.91C109.793 212.913 105.678 213.129 101.562 213.345C94.7021 213.705 87.8423 214.064 80.977 214.304C76.4325 214.461 72.1987 213.886 67.9538 213.309H67.9537C65.2055 212.935 62.4528 212.561 59.6081 212.385C67.3042 213.984 74.9381 216.225 82.913 219.079C92.4013 222.47 99.6337 221.094 109.03 219.175C112.021 218.556 115.02 218.063 118.007 217.571L118.008 217.571H118.008C126.32 216.204 134.545 214.851 142.268 210.855C142.661 210.652 143.016 210.461 143.342 210.279Z" fill="white"/>
</svg>
