<svg width="140" height="827" viewBox="0 0 140 827" fill="none" xmlns="http://www.w3.org/2000/svg">
<path fill-rule="evenodd" clip-rule="evenodd" d="M7.96189 0.0308533H140V826.999H0.498535C1.09456 825.704 1.6177 824.382 2.05577 823.087C2.74682 821.064 3.6345 819.4 4.51848 817.742C5.30398 816.27 6.08657 814.802 6.72566 813.093C7.59615 810.744 7.21153 809.272 6.81251 807.745C6.5802 806.855 6.343 805.948 6.34578 804.837C6.34496 802.266 7.06873 799.685 7.78682 797.124C8.21834 795.585 8.64781 794.054 8.91674 792.536C9.25207 790.67 9.01855 788.913 8.78812 787.179C8.57927 785.607 8.37296 784.054 8.59503 782.457C9.08979 778.711 12.2115 777.416 15.4595 776.068C16.6986 775.554 17.9562 775.033 19.0933 774.364C26.7919 769.827 20.9345 765.285 14.5112 760.304C10.0089 756.813 5.22848 753.106 4.64362 749.034C4.00504 744.61 6.22139 743.955 8.7557 743.205C10.236 742.767 11.8247 742.297 13.0164 741.026C14.4023 739.566 13.9097 737.222 13.4388 734.981C13.1853 733.775 12.9382 732.598 12.9935 731.606C13.0826 730.075 13.0849 728.418 13.0873 726.728C13.0917 723.547 13.0962 720.249 13.6807 717.461C14.2391 714.746 15.4791 712.261 16.7216 709.771C17.7976 707.615 18.8754 705.455 19.514 703.139C20.0071 701.328 20.2833 699.414 20.5598 697.497C20.8967 695.163 21.2341 692.824 21.9647 690.663C22.6156 688.758 23.3825 687.637 24.2826 686.919C24.4386 685.601 24.5506 684.319 24.6615 683.049L24.6617 683.047C24.7094 682.501 24.7569 681.957 24.8076 681.414L22.6953 680.939C23.4025 681.098 24.107 681.251 24.809 681.399C25.0565 678.751 25.3813 676.111 26.1788 673.26C27.5683 668.221 28.4585 664.017 28.1762 658.53C27.8288 652.178 25.8314 649.048 22.5965 644.634C22.0274 643.864 20.9665 642.839 19.8259 641.736C18.051 640.021 16.0832 638.118 15.4752 636.702C14.4496 634.295 15.0255 630.744 15.4836 627.919C15.5589 627.455 15.631 627.011 15.6923 626.594C15.8596 625.475 16.005 624.149 16.157 622.762C16.4587 620.009 16.7866 617.017 17.3641 614.935C17.8832 613.043 18.774 611.472 19.6715 609.89C20.7261 608.031 21.7899 606.155 22.2708 603.723C23.0958 599.578 23.2478 593.316 22.2274 589.082C21.3913 585.618 20.3808 582.427 19.3923 579.305C17.2234 572.454 15.1605 565.939 15.2798 557.623C15.4318 546.083 15.3884 534.304 13.9771 522.884C13.745 521.032 13.7942 514.954 14.288 508.869C13.1741 505.126 12.4126 501.496 12.8105 498.812L12.7429 498.84C13.1151 496.376 14.2127 494.462 15.2828 492.596C16.1857 491.022 17.0689 489.483 17.4804 487.675C18.2542 484.262 18.3198 480.395 18.3836 476.63C18.4165 474.686 18.449 472.768 18.5784 470.954C18.9506 465.402 19.8084 459.975 20.667 454.543C21.5128 449.193 22.3593 443.837 22.743 438.352C22.9123 435.874 23.1184 433.391 23.3246 430.908C23.5999 427.591 23.8754 424.272 24.0636 420.96C24.3018 416.803 23.5585 412.868 22.8104 408.907C22.2835 406.118 21.7543 403.316 21.5637 400.415C21.0742 392.702 21.0969 374.898 22.1478 360.942C21.3988 360.45 20.6845 360.068 20.0191 359.711C17.5987 358.416 15.8256 357.466 15.3884 352.851C15.1657 350.426 15.3625 347.909 15.559 345.397C15.7203 343.335 15.8814 341.275 15.81 339.27C15.7109 336.705 15.1526 334.197 14.5953 331.693C13.9518 328.802 13.3095 325.916 13.377 322.955C13.4357 319.911 14.1684 316.476 14.8752 313.161C15.2507 311.401 15.6189 309.674 15.875 308.059C16.0433 307.012 16.545 305.846 17.0594 304.651C18.0152 302.43 19.015 300.107 18.0026 298.254C17.1358 296.644 15.7063 295.773 14.3744 294.962C12.0942 293.573 10.1 292.358 11.7055 287.905C13.1806 283.804 18.6265 281.091 23.7556 278.536C31.0732 274.89 37.746 271.565 31.3243 264.992C30.3752 264.023 29.2771 263.178 28.195 262.345C25.359 260.162 22.6336 258.064 22.9931 254.044C23.1355 252.328 23.6819 250.76 24.2349 249.173C24.8451 247.423 25.4635 245.648 25.5567 243.625C25.6362 241.98 25.5637 240.281 25.4909 238.575C25.3697 235.736 25.2476 232.874 25.823 230.197C26.0686 229.04 26.5006 228.151 26.9238 227.281C27.6506 225.786 28.3511 224.345 28.0354 221.689C27.8002 219.756 27.3722 218.04 26.9427 216.318C26.4593 214.38 25.9739 212.434 25.7588 210.16C25.4401 206.701 24.6908 202.961 23.5063 199.743C23.2288 198.995 22.9474 198.255 22.6661 197.516C21.5616 194.611 20.458 191.71 19.5925 188.358C18.5364 184.307 17.8989 182.513 15.5404 179.411C15.1166 178.846 16.0441 178.575 17.4988 178.399C17.1231 177.885 16.6958 177.317 16.2671 176.747L16.0472 176.454C15.7102 176.45 15.3723 176.447 15.0336 176.445L16.0447 176.451C14.7203 174.688 13.466 172.995 13.7733 172.921C14.9704 168.543 13.2988 165.62 11.5493 162.56C10.2844 160.347 8.97872 158.064 8.68675 155.108C8.11678 149.339 9.57598 146.251 11.3861 142.42C12.1533 140.796 12.9836 139.039 13.7491 136.888C15.0117 133.34 14.689 129.551 14.3661 125.759C14.2971 124.949 14.2282 124.139 14.1746 123.332C14.1355 122.837 14.0605 122.306 13.9831 121.758C13.7666 120.225 13.5318 118.563 14.0163 117.22C14.4019 116.129 15.1518 115.64 15.9313 115.132C16.5888 114.703 17.2674 114.26 17.7664 113.431C20.7883 108.478 22.8459 103.104 24.9145 97.7008C25.9534 94.9871 26.9951 92.2662 28.1632 89.5878C32.6894 79.1659 29.0289 76.3493 21.166 70.2993C20.4874 69.7772 19.7774 69.2309 19.0387 68.6536C17.9302 67.8 16.4375 66.9231 14.8656 65.9997C11.7124 64.1473 8.24076 62.1079 6.91263 59.6943C5.0606 56.2966 5.60536 48.2076 5.863 44.3821L5.86502 44.3521C5.98957 42.5083 6.43283 40.8264 6.87579 39.1457C7.28188 37.6049 7.68773 36.065 7.84753 34.4021C8.2248 30.4456 7.80825 26.1642 7.40095 21.9779C7.2011 19.9237 7.00347 17.8925 6.90295 15.9338C6.60327 10.1066 6.92082 4.9309 7.96189 0.0308533Z" fill="white"/>
</svg>
