<svg width="110" height="106" viewBox="0 0 110 106" fill="none" xmlns="http://www.w3.org/2000/svg">
<g clip-path="url(#clip0_1469_2600)">
<path d="M59.3773 57.9166C59.7185 57.9871 60.0266 58.1692 60.253 58.434C64.8718 64.2568 69.0252 70.5369 70.9937 77.8212C72.9392 85.2434 72.9675 93.038 71.0758 100.474C70.429 102.099 70.4426 105.086 68.3073 105.355C67.1524 105.427 66.342 104.448 65.5057 103.801C62.788 101.654 60.3473 99.1779 58.2397 96.4295C53.8688 90.7325 51.7136 83.643 52.1744 76.4772C52.4522 73.9504 52.9955 71.4599 53.7953 69.0469C51.4828 71.3929 48.7493 73.2824 45.7377 74.6168C44.6812 75.0624 43.5938 75.431 42.4841 75.7196L42.1408 75.8083C37.2015 77.287 31.8858 76.8434 27.2599 74.5665C24.1755 73.348 21.2843 71.6883 18.6769 69.6391C17.536 68.5829 15.9538 67.5809 15.3927 66.0786C14.2457 64.5627 16.9999 61.3534 18.0312 60.2474C22.429 55.6008 27.9984 52.226 34.1529 50.4785C39.626 48.9391 45.3493 50.1523 50.4787 52.1519C53.6093 53.5343 56.5023 55.4016 59.0514 57.685C59.1653 57.7545 59.2742 57.8319 59.3773 57.9166Z" fill="#194128"/>
<path fill-rule="evenodd" clip-rule="evenodd" d="M89.6277 4.8536C82.5556 6.91536 84.0658 4.67443 75.9372 2.26616C69.7869 0.438085 59.3832 -0.0961117 53.3357 2.38719C49.2516 4.07691 44.8462 6.6486 41.9904 9.92547C37.7969 14.7124 33.4766 19.3463 30.9123 25.1498C29.4588 28.4319 28.3147 35.4887 28.6047 38.8664C29.0079 43.751 31.0477 51.1272 32.4137 55.7934C35.022 64.8471 41.6302 71.2999 50.5097 73.8522C52.7763 74.5072 54.284 75.545 56.6277 76.2115C68.9514 79.7134 83.9343 77.095 93.324 70.8244C98.7908 67.1663 103.023 62.1724 105.427 56.0216C108.84 47.342 109.717 46.4881 107.569 34.6262C106.67 29.6281 104.16 24.8615 102.079 20.9709C103.054 19.6745 103.58 18.5315 104.291 17.306C105.227 15.6411 106.46 15.2504 105.69 12.7072L105.015 13.0003C105.076 14.4912 102.853 17.3822 100.373 17.3652C97.5439 17.3591 95.9082 16.0183 94.1249 14.9786C91.5112 13.4834 91.6996 12.6997 89.7862 10.0562C88.9626 8.92379 88.0854 9.20223 88.141 7.51582C88.1705 6.10927 88.9548 5.87209 89.6647 4.9222L89.6277 4.8536Z" fill="#D03435"/>
<path fill-rule="evenodd" clip-rule="evenodd" d="M90.2962 4.81171L89.6278 4.85344C88.8936 5.80757 88.1378 6.06478 88.1041 7.44706C88.0727 9.12921 88.9257 8.85502 89.7492 9.98738C91.6627 12.631 91.45 13.4189 94.088 14.9098C95.867 15.9253 97.527 17.2618 100.336 17.2964C102.841 17.3092 105.039 14.4225 104.978 12.9315L105.653 12.6385C106.31 11.0973 107.691 10.5555 107.956 8.63239C108.297 6.14534 107.571 4.99601 106.066 3.83253C104.426 4.04402 103.918 4.28308 103.477 5.48617C102.763 7.41282 103.797 7.03183 102.34 8.2875C101.837 7.69975 102.183 8.39006 101.949 7.48002L101.515 3.85211C101.111 1.97074 100.388 1.27124 98.5572 1.39101C96.3578 1.55016 91.7687 2.92773 90.3247 4.83174L90.2962 4.81171Z" fill="#530700"/>
<path fill-rule="evenodd" clip-rule="evenodd" d="M13.3126 12.4019C13.8598 12.3589 14.4036 12.28 14.9405 12.1658C16.4334 12.0454 17.9287 12.3679 19.2394 13.0929C20.55 13.8178 21.6179 14.9131 22.3094 16.2417C22.8438 17.3104 23.0053 18.0684 21.8745 19.5844C21.0577 19.7812 20.2059 19.7812 19.3892 19.5844L18.1465 21.4111C17.637 21.4111 16.7796 21.1005 16.3323 21.1253C15.5742 24.0828 14.6422 24.1947 12.7907 23.5237C11.2746 26.3445 9.0627 23.3746 8.00644 22.1319C6.63952 20.6159 7.57151 18.2175 8.67748 15.9186C5.8815 16.8258 3.70685 20.0318 1.905 23.3746C-1.07738 29.1281 0.898444 33.0921 1.58191 36.845C2.17825 39.5692 3.20158 42.182 4.61399 44.5867C5.27741 45.8503 6.03335 47.0631 6.87563 48.2153C8.90794 50.8577 11.5174 53.0006 14.5046 54.4802C17.4918 55.9598 20.7777 56.737 24.1113 56.7523C37.7805 56.7523 40.5889 52.3782 46.0069 42.1884C48.8402 36.8947 50.7414 33.8129 50.2071 27.6617C49.9179 24.8871 49.0727 22.1992 47.7218 19.7584C45.8081 15.8316 42.7511 11.5941 38.5385 9.48162C35.6833 8.06346 32.5306 7.34772 29.3429 7.39397C26.0995 7.60522 15.5618 10.0657 13.3126 12.4019Z" fill="#B72223"/>
<path fill-rule="evenodd" clip-rule="evenodd" d="M13.3133 12.4021L13.0275 12.8246C12.4023 12.9083 11.8009 13.1191 11.2602 13.4439C10.7195 13.7688 10.251 14.2008 9.88357 14.7135C9.3368 14.9123 9.07584 15.2976 8.7279 15.9562C7.62193 18.2302 6.68994 20.6286 8.05686 22.1695C9.17526 23.4121 11.3251 26.3821 12.8411 23.5612C14.6927 24.2323 15.6247 24.1204 16.3827 21.1629C16.83 21.1629 17.6875 21.4487 18.197 21.4487L19.4396 19.622C20.2564 19.8187 21.1082 19.8187 21.9249 19.622C23.0557 18.1059 22.8942 17.3479 22.3599 16.2792C21.67 14.9548 20.6061 13.8623 19.3003 13.1376C17.9946 12.4129 16.5046 12.088 15.0157 12.2033C14.4555 12.3215 13.8857 12.3881 13.3133 12.4021Z" fill="#520000"/>
</g>
<defs>
<clipPath id="clip0_1469_2600">
<rect width="110" height="106" fill="white"/>
</clipPath>
</defs>
</svg>
