<svg width="72" height="70" viewBox="0 0 72 70" fill="none" xmlns="http://www.w3.org/2000/svg">
<g clip-path="url(#clip0_1469_2620)">
<path d="M38.825 38.1734C39.0453 38.219 39.2441 38.3365 39.3903 38.5074C42.3715 42.2657 45.0523 46.3193 46.3229 51.021C47.5786 55.8116 47.5969 60.8427 46.3759 65.6424C45.9584 66.6909 45.9672 68.619 44.589 68.7925C43.8435 68.8392 43.3204 68.2074 42.7806 67.7898C41.0265 66.404 39.4511 64.8058 38.0908 63.0317C35.2695 59.3546 33.8785 54.7787 34.1759 50.1535C34.3552 48.5225 34.7059 46.915 35.2221 45.3576C33.7295 46.8717 31.9652 48.0913 30.0213 48.9526C29.3394 49.2403 28.6375 49.4782 27.9213 49.6645L27.6997 49.7217C24.5116 50.6762 21.0805 50.3898 18.0947 48.9202C16.1039 48.1337 14.2378 47.0624 12.5548 45.7398C11.8184 45.0581 10.7971 44.4113 10.435 43.4416C9.69467 42.4632 11.4723 40.3918 12.138 39.6779C14.9766 36.6787 18.5714 34.5004 22.5439 33.3725C26.0764 32.3789 29.7706 33.1619 33.0814 34.4526C35.102 35.3449 36.9694 36.5501 38.6147 38.024C38.6882 38.0688 38.7585 38.1188 38.825 38.1734Z" fill="#194128"/>
<path fill-rule="evenodd" clip-rule="evenodd" d="M58.3503 3.92368C53.7856 5.25445 54.7604 3.80804 49.5137 2.2536C45.544 1.07367 38.8289 0.728867 34.9255 2.33172C32.2894 3.42236 29.4459 5.08227 27.6026 7.19734C24.8959 10.2871 22.1073 13.2781 20.4522 17.024C19.514 19.1424 18.7755 23.6972 18.9627 25.8774C19.223 29.0302 20.5396 33.7912 21.4213 36.803C23.1048 42.6468 27.3701 46.8118 33.1014 48.4592C34.5644 48.8819 35.5375 49.5518 37.0503 49.9819C45.0047 52.2423 54.6755 50.5522 60.7361 46.5048C64.2647 44.1437 66.9965 40.9204 68.5479 36.9503C70.7509 31.348 71.3168 30.7969 69.9303 23.1406C69.3504 19.9145 67.7305 16.8378 66.3871 14.3267C67.0162 13.4899 67.3557 12.7521 67.8151 11.9611C68.4187 10.8865 69.2146 10.6343 68.7178 8.99284L68.2824 9.182C68.3213 10.1443 66.8868 12.0103 65.2858 11.9993C63.4599 11.9954 62.4041 11.13 61.253 10.4589C59.566 9.49383 59.6876 8.98801 58.4526 7.28169C57.921 6.5508 57.3548 6.73052 57.3907 5.64202C57.4097 4.73416 57.916 4.58107 58.3742 3.96796L58.3503 3.92368Z" fill="#D03435"/>
<path fill-rule="evenodd" clip-rule="evenodd" d="M58.7817 3.89666L58.3503 3.9236C57.8765 4.53945 57.3886 4.70546 57.3668 5.59766C57.3466 6.68342 57.8972 6.50644 58.4287 7.23732C59.6637 8.94364 59.5265 9.45221 61.2292 10.4145C62.3775 11.07 63.4489 11.9326 65.2619 11.955C66.8786 11.9632 68.2975 10.1 68.2585 9.13763L68.6939 8.94848C69.1177 7.95372 70.0096 7.60402 70.1803 6.36274C70.4005 4.75746 69.9316 4.01562 68.9605 3.26465C67.9021 3.40115 67.5737 3.55546 67.2894 4.332C66.8284 5.57556 67.4961 5.32965 66.5555 6.14013C66.2308 5.76076 66.454 6.20632 66.3029 5.61894L66.0229 3.27729C65.7622 2.06294 65.2957 1.61145 64.1139 1.68876C62.6943 1.79148 59.7322 2.68064 58.8001 3.90959L58.7817 3.89666Z" fill="#530700"/>
<path fill-rule="evenodd" clip-rule="evenodd" d="M9.0927 8.79574C9.44589 8.768 9.79689 8.71709 10.1434 8.64334C11.1071 8.56568 12.0722 8.77382 12.9182 9.24174C13.7641 9.70967 14.4534 10.4166 14.8997 11.2742C15.2446 11.9639 15.3489 12.4532 14.619 13.4318C14.0918 13.5587 13.542 13.5587 13.0149 13.4318L12.2128 14.6108C11.8839 14.6108 11.3305 14.4103 11.0417 14.4263C10.5525 16.3353 9.95092 16.4075 8.75582 15.9744C7.77728 17.7951 6.34958 15.8781 5.66782 15.076C4.78553 14.0975 5.38709 12.5495 6.10094 11.0656C4.29626 11.6512 2.89263 13.7205 1.72961 15.8781C-0.195378 19.5917 1.07993 22.1504 1.52107 24.5726C1.90598 26.331 2.5665 28.0175 3.47814 29.5696C3.90635 30.3852 4.39428 31.168 4.93793 31.9117C6.24969 33.6172 7.93398 35.0004 9.86209 35.9554C11.7902 36.9104 13.9111 37.412 16.0628 37.4219C24.8856 37.4219 26.6983 34.5986 30.1954 28.0216C32.0241 24.6047 33.2513 22.6156 32.9064 18.6453C32.7198 16.8544 32.1742 15.1194 31.3023 13.5441C30.0671 11.0095 28.0939 8.27438 25.3749 6.91085C23.5319 5.99549 21.497 5.53352 19.4395 5.56336C17.3461 5.69972 10.5445 7.28783 9.0927 8.79574Z" fill="#B72223"/>
<path fill-rule="evenodd" clip-rule="evenodd" d="M9.0928 8.79594L8.90832 9.06865C8.50479 9.12267 8.11659 9.2587 7.76761 9.46837C7.41862 9.67803 7.11623 9.95692 6.87906 10.2878C6.52615 10.4162 6.35771 10.6648 6.13313 11.0899C5.41928 12.5577 4.81772 14.1057 5.7 15.1003C6.42187 15.9024 7.80947 17.8193 8.78801 15.9986C9.9831 16.4317 10.5847 16.3595 11.0739 14.4506C11.3627 14.4506 11.9161 14.6351 12.245 14.6351L13.047 13.456C13.5742 13.583 14.124 13.583 14.6512 13.456C15.3811 12.4775 15.2768 11.9882 14.9319 11.2984C14.4867 10.4435 13.7999 9.73838 12.9571 9.27064C12.1144 8.80289 11.1527 8.59319 10.1916 8.66761C9.83006 8.74391 9.46224 8.78687 9.0928 8.79594Z" fill="#520000"/>
</g>
<defs>
<clipPath id="clip0_1469_2620">
<rect width="71" height="68.4182" fill="white" transform="translate(0.5 0.790894)"/>
</clipPath>
</defs>
</svg>
