<svg width="376" height="337" viewBox="0 0 376 337" fill="none" xmlns="http://www.w3.org/2000/svg">
<path fill-rule="evenodd" clip-rule="evenodd" d="M142.272 9.64738L142.281 8.87039C142.278 9.13069 142.274 9.39031 142.27 9.64928C142.195 9.70525 142.119 9.76139 142.044 9.81749C141.604 10.1454 141.165 10.4722 140.768 10.7594C140.638 9.63955 140.433 8.92501 139.996 9.24917C137.602 11.0531 136.219 11.5374 133.098 12.336C130.516 12.9904 128.28 13.8295 126.041 14.6693C125.471 14.8832 124.901 15.0971 124.325 15.308C121.845 16.2083 118.965 16.7719 116.301 17.0052C114.551 17.1628 113.052 17.5296 111.559 17.8948C110.233 18.2193 108.911 18.5426 107.423 18.717C105.378 18.9507 104.272 18.4066 103.124 17.8423C102.456 17.5137 101.774 17.1782 100.884 16.9852C98.8266 16.5332 96.6241 16.6173 94.439 16.7007C93.1258 16.7508 91.8189 16.8007 90.5534 16.7339C88.9966 16.6551 87.6336 16.1732 86.2886 15.6976C85.0696 15.2666 83.8654 14.8408 82.5452 14.7252C79.4532 14.4347 77.8296 16.5245 76.1402 18.6991C75.4956 19.5288 74.8414 20.3708 74.0924 21.0977C69.0128 26.0161 66.4778 20.8702 63.698 15.2272C61.7494 11.2718 59.6806 7.07212 56.5307 5.92294C53.1098 4.67221 52.1682 6.20241 51.0915 7.95214C50.4627 8.97415 49.7877 10.071 48.5457 10.7324C47.1168 11.505 45.3327 10.7276 43.6271 9.98453C42.7092 9.58457 41.8139 9.19453 41.0091 9.06136C39.7669 8.85874 38.4399 8.56948 37.0867 8.27451C34.5389 7.71913 31.8982 7.14351 29.556 7.0878C27.2778 7.0256 25.0552 7.50982 22.8283 7.99499C20.8998 8.41513 18.9681 8.83599 16.994 8.90339C15.4513 8.95139 13.867 8.8203 12.2806 8.68903C10.3482 8.52914 8.41276 8.369 6.54552 8.53196C2.99323 8.8524 2.25667 10.2134 1.2512 12.0713C0.654837 13.1732 -0.0361237 14.4499 -1.46528 15.788L-2.23693 20.125C-3.38503 29.1669 -5.6582 37.7534 -8.96726 46.8999C-11.6096 54.1887 -10.5993 59.7581 -9.13146 66.9952C-8.66589 69.2986 -8.29667 71.6076 -7.92883 73.9079C-6.90531 80.3089 -5.89261 86.6423 -2.84475 92.5986C-2.37117 93.5332 -1.97237 94.2003 -1.63867 94.7585C-0.693316 96.3398 -0.270256 97.0475 -0.14853 100.49C0.0911982 107.049 0.254895 114.059 -0.288734 120.562C-0.482847 122.907 -1.03361 125.175 -1.58394 127.441C-2.11405 129.623 -2.64376 131.804 -2.85395 134.052C-3.07479 136.315 -3.19545 138.491 -3.31455 140.64C-3.54013 144.708 -3.76012 148.676 -4.64458 152.942C-6.15904 160.232 -5.90663 168.422 -5.66304 176.327C-5.56048 179.655 -5.45947 182.933 -5.49254 186.072C-5.63243 199.35 -5.42756 211.467 -3.68872 224.551C-2.92896 230.302 -1.16187 234.837 0.929068 240.204L0.929249 240.205L1.01387 240.422C4.89973 250.393 6.76113 260.865 6.86176 271.603C6.93638 278.761 6.78328 285.945 6.63022 293.128C6.54094 297.317 6.45167 301.505 6.40759 305.687C6.37777 308.516 6.41042 311.361 6.44314 314.211C6.50052 319.209 6.55803 324.221 6.27882 329.18C5.8696 336.7 4.85956 344.203 3.8499 351.703C2.67909 360.4 1.50881 369.093 1.27674 377.802C1.14168 382.983 -0.23249 387.823 -1.59351 392.617C-2.24166 394.9 -2.88684 397.172 -3.39377 399.466C-5.63818 409.562 -5.74755 419.942 -5.8574 430.369C-5.89083 433.54 -5.94427 436.71 -5.99772 439.881C-6.0868 445.166 -6.17591 450.451 -6.17221 455.737C-6.16888 459.236 -5.61057 462.476 -5.0508 465.724C-4.61862 468.232 -4.18556 470.745 -4.00639 473.386C-3.75515 477.086 -3.92755 480.908 -4.09894 484.707C-4.19405 486.816 -4.28883 488.917 -4.31062 490.986L-4.26288 490.963C-4.21342 490.728 -2.78789 491.723 -1.34754 492.728C0.124177 493.755 1.61138 494.792 1.66204 494.541C4.99582 493.5 7.28965 494.706 9.69055 495.967C11.4263 496.88 13.218 497.821 15.4992 497.965C19.9508 498.245 22.2856 497.039 25.1818 495.542C26.4094 494.908 27.7378 494.221 29.3711 493.574C32.0644 492.506 34.9868 492.65 37.912 492.795C38.5364 492.826 39.1609 492.857 39.7833 492.876C40.1647 492.892 40.5754 492.935 40.9988 492.98C42.1836 493.104 43.468 493.24 44.4874 492.83C45.3156 492.504 45.6712 491.914 46.0409 491.301C46.3527 490.783 46.6745 490.249 47.2983 489.843C51.0244 487.384 55.1008 485.655 59.1988 483.916C61.2571 483.043 63.3209 482.168 65.3485 481.196C73.2387 477.43 75.5045 480.168 80.3717 486.049C80.7918 486.556 81.2314 487.087 81.6956 487.64C82.3823 488.469 83.0974 489.593 83.8505 490.776C85.3611 493.15 87.0244 495.764 88.9166 496.719C91.5799 498.05 97.7851 497.41 100.72 497.107L100.743 497.105C102.157 496.959 103.438 496.572 104.719 496.185C105.892 495.831 107.065 495.477 108.34 495.308C111.372 494.91 114.675 495.113 117.906 495.312C119.491 495.41 121.058 495.506 122.567 495.53C127.056 495.601 131.027 495.215 134.767 494.28C136.45 493.858 138.028 493.889 139.745 493.923C140.069 493.929 140.397 493.936 140.733 493.939C140.528 493.937 140.272 493.567 140.019 493.203C139.775 492.85 139.534 492.501 139.346 492.499C139.375 490.516 139.466 488.502 139.557 486.481C139.732 482.597 139.908 478.684 139.651 474.9C139.471 472.259 139.038 469.746 138.606 467.238C138.046 463.989 137.488 460.749 137.485 457.251C137.481 451.98 137.57 446.692 137.659 441.403C137.713 438.229 137.766 435.054 137.8 431.883L137.804 431.537C137.936 421.226 138.067 410.964 140.263 400.979C140.77 398.686 141.415 396.413 142.063 394.131C143.425 389.337 144.799 384.496 144.934 379.316C145.154 370.582 146.331 361.865 147.509 353.143C147.852 350.602 148.195 348.06 148.515 345.517C148.726 346.885 148.985 348.229 149.3 349.542C150.317 353.778 150.66 357.737 151.012 361.797C151.197 363.94 151.386 366.112 151.677 368.367C151.956 370.607 152.554 372.771 153.151 374.936C153.772 377.183 154.393 379.433 154.66 381.771C155.405 388.254 155.459 395.266 155.423 401.829C155.408 405.273 155.007 405.994 154.112 407.604C153.795 408.172 153.417 408.851 152.973 409.8C150.112 415.848 149.296 422.21 148.472 428.64C148.176 430.95 147.878 433.27 147.484 435.586C146.242 442.866 145.405 448.464 148.273 455.667C153.504 468.834 156.502 480.882 157.088 494.956L156.737 486.531C158.207 487.824 158.937 489.079 159.568 490.162C160.63 491.987 161.409 493.325 164.969 493.535C166.841 493.64 168.77 493.419 170.697 493.2C172.278 493.019 173.858 492.839 175.401 492.839C177.377 492.845 179.321 493.206 181.261 493.566C183.502 493.982 185.739 494.397 188.014 494.264C190.353 494.135 192.974 493.478 195.504 492.844C196.847 492.507 198.165 492.176 199.4 491.935C200.2 491.777 201.083 491.36 201.988 490.931C203.67 490.136 205.429 489.303 206.881 490.031C208.143 490.654 208.852 491.729 209.512 492.731C210.642 494.446 211.631 495.947 215.012 494.59C218.124 493.344 220.062 489.082 221.886 485.068C224.49 479.341 226.864 474.119 232.094 478.877C232.865 479.581 233.545 480.402 234.215 481.211C235.971 483.332 237.659 485.371 240.74 484.984C242.056 484.828 243.247 484.365 244.452 483.896C245.781 483.379 247.128 482.855 248.682 482.728C249.945 482.622 251.253 482.631 252.567 482.64C254.754 482.656 256.958 482.672 259 482.156C259.883 481.935 260.555 481.579 261.213 481.23C262.342 480.63 263.431 480.052 265.482 480.222C266.975 480.35 268.306 480.632 269.642 480.915C271.145 481.234 272.655 481.554 274.409 481.657C277.078 481.808 279.975 482.281 282.482 483.104C283.064 483.297 283.64 483.493 284.217 483.689C286.48 484.459 288.742 485.229 291.343 485.803C294.487 486.504 295.884 486.945 298.333 488.674C299.007 489.142 299.08 487.262 299.16 485.194C299.238 483.182 299.323 480.992 299.974 480.608C300.291 483.332 300.509 486.115 300.629 488.982L300.278 480.557C300.165 480.536 300.064 480.554 299.974 480.608C298.737 469.96 295.999 460.196 291.813 449.693C288.946 442.49 289.807 436.891 291.025 429.612C291.419 427.296 291.716 424.976 292.013 422.666C292.837 416.236 293.652 409.874 296.514 403.826C296.953 402.895 297.327 402.224 297.641 401.662C298.545 400.039 298.949 399.315 298.964 395.855C299.001 389.315 298.922 382.281 298.2 375.797C297.933 373.459 297.312 371.209 296.692 368.962C296.094 366.796 295.497 364.633 295.217 362.393C294.943 360.204 294.76 358.097 294.58 356.018C294.222 351.897 293.874 347.886 292.841 343.567C291.116 336.307 291.108 328.114 291.101 320.206C291.098 316.884 291.095 313.612 290.965 310.48C290.412 297.213 290.241 285.095 291.573 271.963C292.162 266.138 293.799 261.481 295.78 255.954C299.354 245.868 300.889 235.319 300.657 224.606C300.509 217.434 300.133 210.262 299.757 203.092C299.538 198.912 299.318 194.731 299.144 190.553C299.026 187.701 298.967 184.837 298.908 181.972C298.805 176.992 298.703 172.008 298.286 167.075C297.646 159.596 296.404 152.153 295.163 144.712C293.715 136.031 292.268 127.355 291.777 118.632C291.481 113.458 289.957 108.663 288.448 103.914C287.729 101.652 287.014 99.4008 286.436 97.124C283.931 87.2123 283.481 76.9592 283.029 66.6574L283.013 66.3118C282.882 63.143 282.73 59.9716 282.578 56.8007C282.324 51.5169 282.071 46.2343 281.911 40.9663C281.806 37.4691 282.263 34.2134 282.722 30.9492C283.076 28.4289 283.431 25.9036 283.528 23.2582C283.667 19.468 283.37 15.5624 283.074 11.6853C282.921 9.66785 282.768 7.65818 282.677 5.67654C282.864 5.66876 283.094 5.31329 283.328 4.95243C283.569 4.58046 283.813 4.20277 284.018 4.19425C283.683 4.20819 283.355 4.22485 283.031 4.24125C281.316 4.32827 279.74 4.40822 278.044 4.03871C274.278 3.22072 270.296 2.95847 265.812 3.16889C264.304 3.23946 262.741 3.38449 261.159 3.53115C257.937 3.83005 254.641 4.13575 251.598 3.83177C250.319 3.70306 249.136 3.38546 247.952 3.06766C246.66 2.72102 245.367 2.37414 243.949 2.27192L243.926 2.27026C240.983 2.05879 234.761 1.61164 232.141 3.0249C230.279 4.03846 228.698 6.70263 227.262 9.12239C226.546 10.3286 225.866 11.4741 225.205 12.3242C224.758 12.8906 224.335 13.4351 223.931 13.9555C219.249 19.9845 217.069 22.7911 209.066 19.2724C207.009 18.3644 204.919 17.5534 202.835 16.7447C198.685 15.1344 194.557 13.5326 190.756 11.1903C190.12 10.8034 189.782 10.2797 189.454 9.77236C189.065 9.17078 188.692 8.59212 187.854 8.29166C186.822 7.91422 185.542 8.08909 184.362 8.2504C183.94 8.30804 183.531 8.36395 183.15 8.39231C182.529 8.43072 181.906 8.48097 181.283 8.53121C178.363 8.76661 175.447 9.00179 172.722 8.01801C171.069 7.42154 169.72 6.77663 168.473 6.18069C165.532 4.77464 163.161 3.64119 158.72 4.05978C156.444 4.2742 154.683 5.27093 152.976 6.23651C150.616 7.57212 148.36 8.84816 144.996 7.91188C144.94 7.67522 143.633 8.63445 142.272 9.64738ZM150.306 267.557C150.868 265.799 151.497 264.024 152.161 262.149L152.239 261.928C155.814 251.842 157.349 241.317 157.116 230.581C156.968 223.424 156.592 216.248 156.216 209.074C155.997 204.89 155.778 200.706 155.604 196.527C155.486 193.7 155.43 190.856 155.375 188.007C155.277 183.009 155.179 177.998 154.745 173.049C154.103 165.546 152.86 158.078 151.618 150.613C150.178 141.957 148.738 133.304 148.236 124.606C147.94 119.432 146.416 114.637 144.907 109.888C144.47 108.513 144.035 107.143 143.63 105.768C143.778 111.187 143.79 116.805 143.368 122.076C143.174 124.421 142.623 126.689 142.073 128.954C141.543 131.137 141.013 133.318 140.803 135.565C140.597 137.762 140.479 139.874 140.364 141.957C140.134 146.088 139.911 150.107 139.012 154.456C137.514 161.767 137.76 169.956 137.999 177.86C138.099 181.181 138.198 184.452 138.164 187.586C138.025 200.864 138.229 212.981 139.968 226.065C140.739 231.869 142.519 236.473 144.671 241.936C147.882 250.175 149.711 258.773 150.306 267.557ZM141.251 94.9405C140.106 87.4931 139.79 79.9022 139.473 72.2859C139.341 69.1175 139.189 65.9499 139.037 62.7824C138.784 57.503 138.531 52.2236 138.37 46.9404C138.265 43.4431 138.722 40.1875 139.181 36.9233C139.478 34.8102 139.775 32.6935 139.921 30.5054C138.664 36.4214 136.913 42.2874 134.69 48.4136C132.047 55.7024 133.081 61.272 134.526 68.5089C134.991 70.8123 135.36 73.1214 135.728 75.4217C136.752 81.8227 137.764 88.156 140.812 94.1123C140.967 94.4146 141.113 94.6888 141.251 94.9405Z" fill="white"/>
<path d="M277.219 411.626C277.219 403.796 280.586 396.456 280.893 388.579C281.067 383.979 281.33 379.127 280.718 374.559C280.346 371.818 279.996 368.289 278.771 365.659C277.24 362.35 274.179 359.247 272.495 356.002C269.499 350.205 271.27 345.274 271.773 339.351C272.539 330.341 271.62 322.921 277.918 314.918C284.238 306.869 280.783 297.779 280.871 288.706C280.958 277.805 278.924 267.171 279.034 256.333C279.121 245.558 279.012 234.783 279.099 224.008C279.143 218.652 278.946 213.611 277.634 208.334C275.885 201.356 277.284 193.7 277.175 186.627C277.131 182.562 277.94 178.782 278.64 174.749C279.646 169.062 278.509 163.36 278.968 157.657C279.733 147.89 284.042 138.864 282.489 128.845C280.455 115.739 272.232 103.562 270.199 90.4394C269.652 86.9265 269.674 83.5239 270.352 80.0268C271.664 73.1742 270.92 65.8334 273.545 59.1699C277.284 49.6709 279.252 38.9431 279.121 29.0346C279.056 23.5368 280.171 17.6137 279.165 12.1947C278.728 9.78451 277.984 6.09833 275.425 4.36551C281.898 4.44427 286.578 4.80659 292.396 6.66543C295.676 7.72088 299.306 8.09895 302.805 8.351C304.773 8.49277 305.976 9.09138 307.354 9.31193C311.553 10.0051 315.095 9.80027 319.251 10.9502C322.946 11.9584 326.03 12.6043 330.054 12.3995C334.712 12.1474 337.008 10.6982 340.245 8.351C341.688 7.29555 344.356 3.90868 346.062 3.18404C348.117 2.31763 351.31 3.02651 353.475 3.34157C355.925 3.70389 359.73 3.92444 362.026 4.55455C365.044 5.3737 366.946 7.46883 370.249 8.1147C373.288 8.71331 377.881 8.82359 380.986 8.0832C389.1 6.14559 395.179 2.91624 404.058 3.04226C412.521 3.15254 421.159 3.12103 429.535 2.09709C432.203 1.76628 446.833 2.22312 449.961 4.36552C452.519 6.11409 453.263 9.78452 453.7 12.1947C454.706 17.6137 453.591 23.5368 453.656 29.0346C453.788 38.9432 451.819 49.6709 448.08 59.1699C445.456 65.8334 446.199 73.19 444.887 80.0268C444.209 83.5239 444.209 86.9265 444.734 90.4394C446.768 103.562 454.99 115.739 457.024 128.845C458.577 138.864 454.269 147.89 453.503 157.657C453.066 163.36 454.181 169.046 453.175 174.749C452.476 178.782 451.666 182.578 451.71 186.627C451.798 193.684 450.42 201.356 452.169 208.334C453.482 213.611 453.678 218.652 453.635 224.008C453.547 234.783 453.678 245.558 453.569 256.333C453.482 267.171 455.515 277.805 455.406 288.706C455.318 297.779 458.774 306.869 452.454 314.918C446.177 322.921 447.074 330.356 446.309 339.351C445.806 345.274 444.034 350.205 447.03 356.002C448.714 359.247 451.776 362.366 453.307 365.659C454.509 368.289 454.881 371.818 455.253 374.559C455.865 379.143 455.603 383.979 455.428 388.579C455.122 396.471 451.732 403.812 451.754 411.626C433.362 411.626 410.465 414.918 392.686 411.689C389.996 411.2 385.666 409.719 383.501 408.396C381.052 406.915 380.265 403.749 376.787 403.56C370.839 403.229 369.286 408.412 365.394 410.035C360.276 412.161 352.163 409.152 347.046 408.916C338.08 408.506 329.682 410.224 320.934 410.334C313.171 410.428 306.107 410.759 298.563 411.578C291.455 412.35 284.479 411.626 277.219 411.61L277.219 411.626Z" fill="white"/>
</svg>
