<svg width="163" height="45" viewBox="0 0 163 45" fill="none" xmlns="http://www.w3.org/2000/svg">
<path d="M23.1945 22.1324C18.9391 22.7981 14.5951 22.6347 10.4017 21.651C9.50595 21.4367 8.66215 21.0454 7.91972 20.5004C7.17729 19.9553 6.55123 19.2674 6.07839 18.477C5.60555 17.6866 5.29545 16.8097 5.16626 15.8978C5.03706 14.9859 5.09139 14.0573 5.32609 13.1667C7.03031 7.96627 12.7475 5.08792 17.8629 4.36084C22.9782 3.63375 30.4017 6.56495 32.2004 12.2583C33.999 17.9516 28.2204 21.7661 23.1945 22.1324Z" fill="#EAEAEA"/>
<path d="M28.7274 11.2977C28.4805 10.9359 28.3662 10.4999 28.404 10.0636C25.7697 4.92663 33.249 1.98525 37.102 4.16526C37.7012 4.53448 38.1975 5.04891 38.545 5.66093C38.8926 6.27295 39.0801 6.96275 39.0902 7.66649C39.1004 8.37023 38.9327 9.06518 38.6029 9.68693C38.273 10.3087 37.7917 10.8372 37.2034 11.2234C34.8625 12.941 30.7299 14.0239 28.7274 11.2977Z" fill="#231F20"/>
<path d="M7.63072 26.6401C5.4239 24.3048 8.88539 22.4163 9.54452 20.25C9.66535 20.0018 9.70974 19.7233 9.67215 19.4498C9.54889 19.0793 9.49987 18.6882 9.52776 18.2987C9.55566 17.9093 9.65996 17.5292 9.83476 17.1801C10.0096 16.831 10.2513 16.5197 10.5464 16.2641C10.8415 16.0084 11.1841 15.8134 11.5546 15.6901C11.925 15.5669 12.3162 15.5178 12.7056 15.5457C13.095 15.5736 13.4751 15.6779 13.8242 15.8527C14.1733 16.0275 14.4846 16.2694 14.7402 16.5645C14.9959 16.8596 15.191 17.2021 15.3142 17.5726C17.202 20.3289 10.8996 29.9853 7.63072 26.6401Z" fill="#231F20"/>
<path d="M25.0596 28.301C23.4795 26.3548 22.0057 24.3248 20.6444 22.2199C20.2724 21.821 20.0062 21.3353 19.8704 20.807C19.7345 20.2788 19.7332 19.7249 19.8666 19.1961C20 18.6672 20.2638 18.1802 20.634 17.7796C21.0041 17.379 21.4687 17.0775 21.9854 16.9027C22.5021 16.728 23.0542 16.6855 23.5915 16.7792C24.1289 16.8728 24.6343 17.0996 25.0613 17.4389C25.4884 17.7782 25.8236 18.2192 26.0363 18.7214C26.249 19.2236 26.3324 19.7712 26.279 20.314C27.8633 22.9658 32.3879 25.3685 29.6543 28.6304C29.3523 28.9523 28.9824 29.2027 28.5714 29.3635C28.1604 29.5242 27.7188 29.5913 27.2786 29.5597C26.8384 29.5281 26.4107 29.3988 26.0268 29.1811C25.6429 28.9633 25.3125 28.6626 25.0596 28.301Z" fill="#231F20"/>
<path d="M159.442 37C144.501 42.1722 132.002 41.4133 116.665 39.2223C106.124 37.7165 93.9087 38.9586 83.8312 41.9445C76.1965 44.2066 68.4986 45.5174 61.4424 41.2223C55.4996 37.605 50.6487 32.5188 45.0535 28.3889C23.6305 22.637 13.3645 22.7382 2.44238 37" stroke="#353B3F" stroke-width="2" stroke-linecap="round" stroke-linejoin="round" stroke-dasharray="10.04 10.04"/>
</svg>
