<svg width="141" height="116" viewBox="0 0 141 116" fill="none" xmlns="http://www.w3.org/2000/svg">
<path d="M123.82 43.0377C124.283 45.7916 124.19 48.6102 123.546 51.3276C122.903 54.045 121.722 56.6062 120.074 58.8602C120.465 63.0114 120.998 67.1424 121.717 71.2612C120.765 71.1047 119.789 71.3216 118.994 71.8666C116.673 72.8729 114.247 73.616 111.76 74.0821C104.117 75.5587 96.3217 76.0972 88.5477 75.6857C69.4182 75.7962 50.3384 73.7285 31.6767 69.5226C27.9047 68.8371 23.4669 68.0307 19.6868 66.8853C17.9673 66.2148 16.1652 65.7794 14.3292 65.5908C13.9338 65.2439 13.4861 65.4375 13.0625 66.0024C13.5096 71.3803 14.2834 76.726 15.3796 82.0099C15.8478 84.4788 16.3926 86.7783 16.9334 89.3521C15.1618 82.7039 13.9792 75.8418 12.7804 69.0684C11.848 63.8563 10.9681 58.6079 10.4069 53.3715C9.95746 50.7671 9.86894 48.1131 10.1439 45.4846C10.1275 45.3624 10.1501 45.2382 10.2084 45.1295C9.90681 43.6763 9.94771 42.1728 10.3278 40.738C10.7079 39.3032 11.4167 37.9766 12.3983 36.8632C25.4111 19.7449 72.9214 10.8209 93.6011 14.0747C103.905 15.3969 114.58 19.7207 119.756 29.3257C122.012 33.5795 123.394 38.2417 123.82 43.0377Z" fill="#F3A239"/>
<path d="M127.661 94.07C127.66 94.3995 127.59 94.7252 127.457 95.0266C127.324 95.3279 127.129 95.5985 126.887 95.8213C126.644 96.0441 126.358 96.2143 126.046 96.3212C125.734 96.428 125.404 96.4693 125.075 96.4424L124.41 96.3214L123.776 96.5272C119.37 97.9851 114.802 98.8946 110.173 99.2354C104.255 99.7644 98.2641 99.6843 92.3137 99.8865C84.7697 100.533 77.2218 101.453 69.6375 101.817C64.7488 102.068 59.8485 101.974 54.973 101.536L52.9317 101.165C47.659 100.665 42.3781 100.21 37.1538 99.4437C31.1469 98.6446 25.2694 97.068 19.669 94.7534C17.7366 94.0355 17.4055 91.8208 16.9495 90.0417L16.7679 89.2753C16.2029 86.8346 15.6661 84.4908 15.214 81.9331C14.1178 76.6492 13.344 71.3035 12.8969 65.9255C13.3447 65.2276 13.7683 65.167 14.1637 65.5139C15.9996 65.7026 17.8017 66.138 19.5212 66.8084C23.3094 67.9094 27.7633 68.6271 31.5111 69.4457C50.1728 73.6517 69.2527 75.7194 88.3822 75.6089C96.1562 76.0204 103.951 75.4818 111.595 74.0052C114.081 73.5391 116.507 72.7961 118.828 71.7898C119.624 71.2448 120.599 71.0279 121.551 71.1844C123.726 71.5796 124.299 75.4887 124.686 77.8971C125.409 81.7416 125.603 85.7194 126.317 89.6083C126.559 90.7984 127.084 91.948 127.362 93.1905L127.661 94.07Z" fill="#783619"/>
<path d="M33.7919 64.9569C28.6496 64.001 23.5949 62.6225 18.6793 60.8352C17.7776 60.5885 16.9336 60.1656 16.1962 59.591C15.4587 59.0163 14.8423 58.3013 14.3826 57.4872C13.5312 55.3613 15.6572 55.0142 17.1983 55.6152C21.2326 56.6234 25.2669 57.6315 29.2851 58.7285C30.8827 59.0188 32.4803 59.3091 34.0053 59.9988C34.9867 60.135 35.8788 60.6416 36.4985 61.4146C36.7265 61.8285 36.8292 62.2998 36.794 62.771C36.7588 63.2422 36.5874 63.693 36.3005 64.0684C36.0136 64.4439 35.6237 64.7278 35.1783 64.8856C34.7328 65.0433 34.2512 65.0681 33.7919 64.9569Z" fill="#AE6515"/>
<path d="M89.805 69.771C80.0355 69.7838 70.277 69.1133 60.601 67.7646C58.9591 67.4662 51.6611 66.5067 53.1212 64.0215C53.3078 63.8164 53.5381 63.6559 53.7951 63.5518C54.0521 63.4478 54.3291 63.4029 54.6058 63.4203C69.0738 64.5845 83.5912 65.0195 98.1029 64.7235C104.269 64.3345 110.381 63.3257 116.345 61.7123C117.895 61.2603 118.709 60.3081 120.226 60.538C120.824 60.6494 121.364 60.9694 121.748 61.4412C122.133 61.913 122.338 62.5058 122.326 63.1143C122.314 63.7228 122.087 64.3075 121.685 64.7643C121.283 65.2211 120.732 65.5204 120.13 65.609C110.381 68.9261 100.087 70.339 89.805 69.771Z" fill="#AE6515"/>
<path d="M32.7612 55.509C20.8158 54.3926 10.5962 43.2751 20.6203 32.7651C22.4462 31.0941 24.8419 30.1847 27.3168 30.2229C29.0474 30.0332 28.8218 32.7885 26.97 32.1311C25.3222 32.9698 23.9458 34.2581 22.9999 35.8468C22.054 37.4354 21.5775 39.2595 21.6255 41.1077C22.106 46.2836 27.7098 48.4939 32.1596 49.4859C37.3034 51.2 46.4647 46.4469 42.0346 40.5533C39.392 38.1935 34.115 35.9509 30.9846 38.5452C30.1133 39.3037 29.4075 40.9175 30.404 41.7404C31.2406 42.3668 32.2687 42.6833 33.3127 42.6357C33.8206 42.3124 34.4317 42.1925 35.0241 42.3001C35.6164 42.4078 36.1463 42.735 36.5079 43.2164C37.9565 46.0926 34.0152 47.3476 31.7842 47.2631C30.7379 47.3081 29.6933 47.142 28.7125 46.7747C27.7318 46.4075 26.835 45.8466 26.0756 45.1255C19.7049 38.0541 28.9627 29.2385 36.7973 31.5332C56.053 35.3075 50.4272 56.9315 32.7612 55.509Z" fill="#AE6515"/>
<path d="M60.1406 50.3983C48.8205 49.6248 35.6154 36.7729 38.8982 24.7628C39.132 23.4758 39.4707 21.612 41.0198 21.16C41.1596 21.1497 41.2998 21.1722 41.4294 21.2255C41.559 21.2789 41.6744 21.3617 41.7664 21.4674C41.8584 21.5731 41.9245 21.6988 41.9595 21.8345C41.9945 21.9702 41.9974 22.1121 41.9679 22.2492C41.8188 23.9088 41.8069 25.5779 41.9321 27.2395C42.1936 30.4277 43.437 33.4564 45.491 35.9087C44.6453 33.6886 44.3991 31.2849 44.7771 28.9394C45.155 26.5939 46.1438 24.3893 47.6441 22.5472C50.6504 19.2663 54.7413 17.1828 59.1628 16.6805C63.5843 16.1782 68.0383 17.291 71.704 19.8139C74.7387 21.9838 76.9709 25.0961 78.0531 28.6664C79.1352 32.2367 79.0067 36.0646 77.6873 39.5542C76.368 43.0438 73.9319 45.9993 70.7583 47.9606C67.5848 49.9219 63.8518 50.7789 60.1406 50.3983ZM62.7543 45.0971C79.1411 43.2157 76.5815 21.4796 60.6625 21.7957C57.8379 21.7694 55.104 22.7916 52.9897 24.6647C50.0409 28.0254 48.9522 33.5121 53.8822 35.6457C56.0568 36.5452 59.8168 38.0537 61.4908 35.6532C62.0313 34.697 62.0552 32.5467 60.4577 32.7607C60.0708 32.9869 59.6424 33.1329 59.1979 33.19C58.7534 33.247 58.3019 33.2139 57.8704 33.0927C57.4389 32.9716 57.0363 32.7647 56.6865 32.4845C56.3367 32.2044 56.0469 31.8567 55.8344 31.4621C54.531 27.787 59.7149 26.2535 62.4461 27.1166C63.7528 27.6321 64.9014 28.4814 65.7771 29.5797C66.6529 30.678 67.2252 31.9868 67.4369 33.3755C67.6485 34.7641 67.4921 36.184 66.9832 37.4933C66.4744 38.8026 65.6309 39.9555 64.5371 40.8368C62.4627 42.0931 60.08 42.7479 57.655 42.7281C55.23 42.7084 52.8582 42.0149 50.8046 40.7251C54.0841 43.6538 58.3591 45.2179 62.7543 45.0971Z" fill="#AE6515"/>
<path d="M91.9365 63.3277C82.3793 62.6912 69.6467 56.0681 72.3849 44.7842C72.9765 41.7839 74.4316 39.0217 76.5714 36.837C78.7112 34.6524 81.4426 33.1403 84.43 32.4868C89.2748 28.7829 96.0202 30.0087 101.454 31.638C104.298 32.4688 106.894 33.9872 109.012 36.0591C111.13 38.131 112.705 40.6926 113.598 43.5177C114.155 46.443 113.904 49.4647 112.871 52.2578C111.839 55.0508 110.064 57.5093 107.738 59.3687C105.506 61.0583 102.956 62.2798 100.241 62.9601C97.5259 63.6404 94.7012 63.7654 91.9365 63.3277ZM96.8335 58.0747C99.7885 58.0664 102.637 56.968 104.832 54.9898C107.027 53.0116 108.415 50.2929 108.729 47.3547C108.882 38.4431 97.7997 35.0997 90.4373 36.0081C88.7151 36.5142 87.2285 37.6153 86.2423 39.1151C85.2561 40.615 84.8345 42.4163 85.0524 44.198C85.4065 45.9634 86.3021 47.5745 87.6145 48.8072C88.9269 50.0399 90.591 50.8329 92.3751 51.0758C96.1915 51.7693 98.773 47.1499 94.5087 45.6415C93.7866 45.4403 93.1732 44.9621 92.8021 44.3107C92.4311 43.6594 92.3324 42.8878 92.5276 42.1641C94.5564 37.3067 100.709 42.0464 101.698 45.435C102.179 46.753 102.301 48.1755 102.05 49.5562C101.799 50.9368 101.185 52.2256 100.27 53.2898C95.4701 59.5231 85.8926 56.7282 81.5311 51.2139C80.1701 49.379 79.3116 47.2208 79.0404 44.9524C78.7692 42.6841 79.0948 40.3843 79.9849 38.2803C69.84 50.9689 85.211 58.7131 97.0554 58.115L96.8335 58.0747Z" fill="#AE6515"/>
<path d="M95.5293 33.9998C87.7594 33.8714 80.0614 25.7795 83.3485 18.0335C83.9374 16.811 85.204 14.8866 86.7815 15.54C87.4875 15.9434 87.6853 17.1254 86.7252 17.3635C86.1003 19.2841 86.1381 21.3588 86.8324 23.2554C87.5267 25.152 88.8374 26.7607 90.5546 27.8239C93.4361 29.5387 96.8393 30.1572 100.14 29.5658C103.779 29.2185 105.65 25.9829 107.006 23.0661C107.247 22.6729 107.621 22.3789 108.06 22.2367C108.5 22.0946 108.975 22.1137 109.401 22.2905C109.827 22.4674 110.177 22.7904 110.386 23.2017C110.596 23.6129 110.651 24.0854 110.544 24.5342C109.602 27.6564 107.564 30.3335 104.805 32.0727C102.047 33.8119 98.7526 34.4963 95.5293 33.9998Z" fill="#AE6515"/>
<path d="M96.167 27.1947C85.5204 24.4806 90.6428 12.4379 93.3742 15.3181C93.6567 15.782 94.1005 16.8713 93.1242 16.6939C92.9244 17.3757 92.8669 18.0914 92.9552 18.7964C93.0434 19.5015 93.2755 20.1809 93.6372 20.7925C93.9989 21.4041 94.4824 21.9349 95.0577 22.3519C95.6329 22.769 96.2878 23.0633 96.9816 23.2168C97.6116 23.5143 98.2959 23.6794 98.9923 23.702C99.6886 23.7245 100.382 23.6041 101.03 23.3481C101.678 23.0921 102.267 22.706 102.76 22.2135C103.253 21.7211 103.639 21.1328 103.896 20.485C104.153 20.0828 104.556 19.7956 105.02 19.6837C105.485 19.5717 105.974 19.6436 106.386 19.8844C106.799 20.1252 107.102 20.5162 107.233 20.9755C107.363 21.4348 107.311 21.9268 107.087 22.3486C106.171 24.3492 104.556 25.946 102.544 26.8385C100.533 27.731 98.2651 27.8577 96.167 27.1947Z" fill="#AE6515"/>
<path d="M97.6215 20.9476C95.5116 20.1974 94.6318 16.4618 97.0039 15.5176C97.8389 15.2109 99.0331 16.2073 98.5088 17.0747C98.5942 17.301 98.7243 17.5078 98.8913 17.6828C99.0583 17.8578 99.2588 17.9974 99.4809 18.0934C99.703 18.1893 99.9421 18.2396 100.184 18.2413C100.426 18.243 100.666 18.1961 100.889 18.1032C101.26 17.8541 101.713 17.7594 102.152 17.8392C102.591 17.919 102.982 18.1671 103.241 18.5306C104.395 21.766 99.4532 21.9681 97.6215 20.9476Z" fill="#AE6515"/>
</svg>
