<svg width="295" height="188" viewBox="0 0 295 188" fill="none" xmlns="http://www.w3.org/2000/svg">
<path fill-rule="evenodd" clip-rule="evenodd" d="M18.8164 2.62295C17.2187 1.70552 15.5907 0.770653 13.757 0.594158C13.6556 0.58174 13.5529 0.602978 13.4647 0.654607C13.3765 0.706238 13.3077 0.785402 13.2688 0.879936C13.23 0.974466 13.2233 1.07913 13.2498 1.17784C13.2762 1.27656 13.3343 1.36386 13.4152 1.42632C13.3995 1.41298 13.5857 1.54408 13.5857 1.54408C14.6986 2.80684 16.2577 3.59857 17.807 4.38535C18.6352 4.80591 19.4606 5.22507 20.2136 5.71399C28.3873 10.3214 36.2625 15.4396 43.7922 21.0382C46.1041 21.3789 41.8641 18.1232 39.5304 16.3312C38.8309 15.7941 38.3027 15.3884 38.1734 15.2506C32.4755 10.9116 26.4913 6.96198 20.2616 3.42863C19.7797 3.17612 19.2999 2.90062 18.8174 2.62352L18.8172 2.62338L18.8164 2.62295ZM87.654 38.3247C88.1976 37.5892 90.6858 38.6959 92.3509 39.4366L92.3513 39.4368L92.3525 39.4373L92.3528 39.4374C92.9062 39.6836 93.3684 39.8892 93.6379 39.973C98.8941 42.3826 104.019 44.9783 109.077 47.8281C119.752 53.5861 129.882 60.3001 139.344 67.8876C139.643 68.1412 139.323 68.7083 138.955 68.4897C137.06 67.2767 135.17 66.0543 133.281 64.832C125.509 59.8041 117.738 54.7765 109.594 50.4039C104.541 47.6122 99.4241 44.9427 94.2045 42.4424C93.7359 42.1397 92.9822 41.7818 92.1491 41.3861C90.2653 40.4915 87.975 39.4038 87.654 38.3247ZM212.432 116.155C201.322 107.041 189.739 98.0533 176.796 91.5746C173.932 91.5101 179.9 95.2139 183.618 97.5211C185.017 98.3889 186.097 99.0591 186.269 99.257C195.952 105.439 204.935 112.567 213.89 119.672L213.89 119.672L213.89 119.672L213.89 119.672L213.89 119.672L213.89 119.672L213.89 119.672L213.891 119.673L213.891 119.673L213.891 119.673L213.892 119.674L213.892 119.674L213.893 119.674L213.893 119.675L213.894 119.675L213.895 119.676L213.895 119.676C216.194 121.5 218.49 123.322 220.796 125.127C223.312 125.586 215.63 118.931 213.141 116.774L213.141 116.774C212.78 116.461 212.528 116.243 212.432 116.155ZM272.591 124.174L264.564 148.095L246.492 123.519L255.207 148.856L229.885 144.277L251.97 156.885L235.9 170.39L257.372 161.989L262.238 187.639L266.325 162.913L285.964 179.611L270.787 156.466L294.841 145.632L269.653 149.348L272.591 124.174ZM159.66 101.86C160.339 100.625 165.401 102.853 168.91 104.397C170.271 104.996 171.398 105.492 171.945 105.643C179.439 108.777 186.822 112.155 194.093 115.79C194.293 115.9 194.896 116.207 195.783 116.658L195.784 116.659L195.79 116.662L195.797 116.666L195.799 116.667L195.8 116.667L195.8 116.667C201.719 119.682 220.15 129.071 216.092 129.312C212.124 127.348 208.181 125.305 204.236 123.261L204.236 123.261L204.235 123.261L204.235 123.26L204.235 123.26L204.234 123.26L204.234 123.26L204.233 123.259L204.232 123.259L204.231 123.259C197.407 119.723 190.577 116.185 183.604 113.045C178.108 110.568 172.525 108.097 166.926 105.788C166.443 105.507 165.569 105.192 164.591 104.84C162.401 104.05 159.688 103.071 159.66 101.86ZM176.863 127.235C172.662 125.875 168.465 124.517 164.131 123.755C160.288 124.749 175.87 129.21 185.307 131.912C188.85 132.926 191.527 133.693 191.985 133.935C193.039 134.241 194.091 134.551 195.144 134.861L195.144 134.861L195.145 134.861L195.145 134.861L195.145 134.861L195.145 134.861L195.145 134.861C200.141 136.332 205.142 137.804 210.231 138.9C210.709 139.022 210.969 138.255 210.502 138.088C203.923 135.602 197.186 133.537 190.451 131.473C187.733 130.639 185.014 129.806 182.307 128.946C180.484 128.407 178.673 127.821 176.863 127.235ZM67.9819 42.2208C65.8001 41.236 62.5816 39.7834 62.1597 40.7938C62.128 41.581 63.2447 42.0932 64.2755 42.566L64.2756 42.5661C64.8203 42.8159 65.3409 43.0547 65.6555 43.3173C67.1065 43.9915 68.5612 44.6612 70.017 45.3313C72.4043 46.4303 74.7945 47.5305 77.1752 48.6541C94.7444 56.8039 111.888 65.8365 128.929 75.0384C129.374 75.2947 129.737 74.5485 129.291 74.2777L127.753 73.3498C119.881 68.2424 111.623 63.7664 103.378 59.2968L103.378 59.2967L103.377 59.2965L102.499 58.8201C91.798 53.1242 80.8591 47.9157 69.7659 42.9683C69.4309 42.8747 68.7749 42.5786 67.9819 42.2208ZM77.292 73.0967C85.0921 75.6469 92.7221 78.7085 100.354 81.7708C105.408 83.7989 110.463 85.8273 115.569 87.7076C116.297 88.0139 117.047 88.3049 117.806 88.5994L117.809 88.6003L117.809 88.6004L117.809 88.6005L117.81 88.6006L117.81 88.6008L117.81 88.6009C118.63 88.9187 119.46 89.2408 120.285 89.5908C120.798 89.783 120.506 90.6843 119.98 90.5223C119.467 90.3607 118.953 90.2 118.44 90.0395L118.439 90.0393C116.073 89.2993 113.712 88.5609 111.374 87.7418C102.874 84.8211 94.4925 81.5689 86.1732 78.1801C86.0369 78.1108 85.613 77.932 85.0166 77.6804C82.1413 76.4677 75.2588 73.5649 77.292 73.0967ZM11.2117 19.0968C11.7784 17.8579 19.3989 21.3016 24.1017 23.4268C25.6842 24.1419 26.9363 24.7077 27.4782 24.8956C27.7738 25.032 28.0688 25.1684 28.3635 25.3047L28.3737 25.3095L28.3753 25.3102C29.5007 25.8306 30.6226 26.3495 31.762 26.8578C32.4598 27.1666 31.9445 28.203 31.2478 27.9087C28.9776 27.0047 26.6927 26.1303 24.4071 25.2556L24.4051 25.2548C21.5024 24.144 18.5984 23.0326 15.7215 21.8596C15.378 21.6463 14.796 21.4537 14.1617 21.2439C12.7195 20.7668 11.007 20.2002 11.2117 19.0968ZM10.1118 45.3717C7.06801 44.4379 4.02567 43.5046 0.949616 42.7025C-0.793815 43.2739 3.76679 44.9779 5.88507 45.7694C6.36291 45.948 6.71646 46.0801 6.84534 46.1423C14.5223 48.6473 22.3776 51.0063 30.464 51.533C31.7982 50.8064 28.2475 50.0796 25.8619 49.5912C24.9169 49.3977 24.1547 49.2417 23.9513 49.1379C19.2557 48.1769 14.6821 46.7738 10.1118 45.3717Z" fill="#E2EBF7"/>
</svg>
