<svg width="302" height="230" viewBox="0 0 302 230" fill="none" xmlns="http://www.w3.org/2000/svg">
<g clip-path="url(#clip0_792_1742)">
<path d="M267.562 170.095L275.59 146.174L272.651 171.349L297.84 167.632L273.786 178.466L288.963 201.611L269.323 184.913L265.237 209.64L260.371 183.989L238.898 192.39L254.969 178.886L232.883 166.277L258.206 170.857L249.49 145.519L267.562 170.095Z" fill="#E2EBF7"/>
<path d="M179.794 113.575C192.738 120.053 204.321 129.041 215.431 138.155C216.19 138.854 226.675 147.653 223.795 147.127C212.503 138.291 201.438 129.027 189.267 121.257C188.638 120.533 175.853 113.486 179.794 113.575Z" fill="#E2EBF7"/>
<path d="M162.658 123.861C163.601 122.146 172.984 127.101 174.944 127.643C182.438 130.778 189.82 134.155 197.092 137.79C198.623 138.631 223.763 151.034 219.091 151.312C208.256 145.949 197.608 140 186.602 135.046C181.107 132.568 175.524 130.097 169.925 127.789C168.359 126.878 162.699 125.612 162.658 123.861Z" fill="#E2EBF7"/>
<path d="M167.129 145.756C173.331 146.845 179.252 149.157 185.306 150.946C194.719 153.938 204.266 156.599 213.5 160.088C213.967 160.255 213.708 161.022 213.23 160.9C207.067 159.573 201.035 157.695 194.984 155.935C193.303 155.048 161.844 147.122 167.129 145.756Z" fill="#E2EBF7"/>
<path d="M90.6525 60.3249C91.3771 59.3446 95.5562 61.637 96.6365 61.9732C101.893 64.3828 107.018 66.9785 112.076 69.8283C122.75 75.5863 132.881 82.3003 142.343 89.8878C142.641 90.1414 142.322 90.7085 141.953 90.4899C132.264 84.2876 122.716 77.8398 112.592 72.4041C107.539 69.6124 102.423 66.9429 97.203 64.4426C95.6749 63.4554 91.1155 61.8813 90.6525 60.3249Z" fill="#E2EBF7"/>
<path d="M65.1582 62.794C65.7335 61.4164 71.5075 64.6174 72.7645 64.9685C83.8576 69.9159 94.7965 75.1244 105.497 80.8203C114.034 85.4491 122.599 90.061 130.752 95.35L132.289 96.2779C132.736 96.5487 132.372 97.2949 131.927 97.0386C114.887 87.8367 97.743 78.8041 80.1738 70.6543C76.3412 68.8455 72.4843 67.0973 68.6541 65.3175C67.7441 64.558 65.1099 63.9972 65.1582 62.794Z" fill="#E2EBF7"/>
<path d="M80.2905 95.0969C93.2565 99.3361 105.752 104.988 118.567 109.708C120.082 110.345 121.693 110.916 123.284 111.591C123.796 111.783 123.504 112.685 122.979 112.522C120.097 111.616 117.218 110.739 114.373 109.742C105.872 106.821 97.4911 103.569 89.1718 100.18C88.3785 99.7769 77.8357 95.6622 80.2905 95.0969Z" fill="#E2EBF7"/>
<path d="M16.7556 22.5944C19.1435 22.8242 21.1827 24.3401 23.2602 25.4288C29.4899 28.9622 35.474 32.9118 41.172 37.2508C41.7325 37.8487 49.7956 43.4813 46.7907 43.0384C39.2611 37.4399 31.3859 32.3216 23.2121 27.7142C21.0505 26.3106 18.2921 25.482 16.5843 23.5443C16.5843 23.5443 16.3981 23.4132 16.4138 23.4265C16.3329 23.3641 16.2748 23.2768 16.2484 23.1781C16.2219 23.0793 16.2286 22.9747 16.2674 22.8801C16.3063 22.7856 16.3751 22.7065 16.4633 22.6548C16.5515 22.6032 16.6542 22.582 16.7556 22.5944Z" fill="#E2EBF7"/>
<path d="M14.2103 41.097C14.9677 39.4413 28.3247 46.1496 30.4767 46.8958C31.9051 47.5547 33.3189 48.2148 34.7605 48.858C35.4584 49.1668 34.9431 50.2032 34.2464 49.9089C29.0924 47.8567 23.8631 45.9568 18.7201 43.8598C17.5957 43.1615 13.9155 42.6858 14.2103 41.097Z" fill="#E2EBF7"/>
<path d="M3.94819 64.7027C11.6431 66.7091 19.127 69.537 26.9499 71.1382C27.667 71.5039 35.3252 72.5188 33.4626 73.5332C25.3762 73.0065 17.5209 70.6476 9.84392 68.1425C9.14369 67.8046 1.81147 65.403 3.94819 64.7027Z" fill="#E2EBF7"/>
</g>
<defs>
<clipPath id="clip0_792_1742">
<rect width="285" height="206.578" fill="white" transform="matrix(-0.996707 0.0810899 0.0810899 0.996707 284.27 0.830078)"/>
</clipPath>
</defs>
</svg>
