<svg width="135" height="135" viewBox="0 0 135 135" fill="none" xmlns="http://www.w3.org/2000/svg">
<path fill-rule="evenodd" clip-rule="evenodd" d="M77.4468 25.2352C78.2421 25.9147 79.0812 26.5412 79.9587 27.1107C82.1327 28.9605 83.7132 31.4101 84.5025 34.1533C85.2918 36.8965 85.2549 39.8115 84.3964 42.5338C83.6763 44.6941 82.8725 45.9333 79.3056 46.4524C77.9398 45.6169 76.7919 44.469 75.9564 43.1032L71.8201 43.8903C71.1335 43.2037 70.3967 41.6295 69.7603 41.0602C64.7533 44.0242 63.3466 42.919 61.7557 39.5196C55.9113 41.2779 56.9328 34.2948 57.184 31.1968C57.385 27.3117 61.8729 25.3357 66.4613 23.7281C61.471 21.1826 54.22 22.5726 47.2871 24.6491C35.5146 28.3835 32.8352 36.3881 28.699 42.3664C25.8314 46.8413 23.6894 51.7413 22.3522 56.8852C21.5434 59.4821 20.9277 62.1352 20.5102 64.8229C19.688 71.1225 20.3167 77.5268 22.3484 83.5463C24.38 89.5658 27.7608 95.0412 32.2324 99.5542C50.6531 117.975 60.3323 115.865 81.3653 109.434C92.3173 106.119 99.0324 104.528 106.602 95.5184C109.951 91.3896 112.434 86.6283 113.903 81.5187C116.616 73.648 118.207 63.8181 115.377 55.2943C113.44 49.5355 110.156 44.3224 105.798 40.0889C101.142 36.0029 83.6261 25.1179 77.4468 25.2352Z" fill="#B72223"/>
<path fill-rule="evenodd" clip-rule="evenodd" d="M77.4484 25.2367L76.4939 25.4209C75.5386 24.6911 74.4441 24.1647 73.2778 23.8738C72.1114 23.5829 70.8978 23.5338 69.7117 23.7295C68.707 23.2607 67.8362 23.4281 66.4797 23.8468C61.9248 25.4209 57.4369 27.3969 57.2024 31.3155C57.035 34.4973 55.9297 41.3966 61.7741 39.6383C63.365 43.0377 64.7717 44.1429 69.7788 41.1789C70.3816 41.7818 71.1519 43.3224 71.8385 44.009L75.9748 43.2219C76.8103 44.5877 77.9582 45.7356 79.324 46.5711C82.8909 46.052 83.6947 44.8128 84.4148 42.6526C85.27 39.9381 85.3085 37.032 84.5255 34.2959C83.7424 31.5597 82.1724 29.114 80.0106 27.2629C79.0963 26.6673 78.2387 25.989 77.4484 25.2367Z" fill="#520000"/>
</svg>
