<svg width="107" height="78" viewBox="0 0 107 78" fill="none" xmlns="http://www.w3.org/2000/svg">
<path d="M39.1201 71.9199C38.5438 71.9651 37.9688 71.8174 37.4857 71.5C27.4374 64.3558 17.9191 56.2679 11.4185 45.571C4.89072 34.6439 1.24562 22.2376 0.825117 9.51608C1.10535 6.62895 -0.295853 1.8757 2.98209 0.461247C4.78875 -0.187452 6.53219 0.997959 8.16341 1.64253C13.4852 3.80817 18.5176 6.6262 23.145 10.0319C32.7404 17.0901 39.4486 27.3905 42.024 39.0205C42.7483 43.1748 43.033 47.3939 42.8732 51.6078C45.4741 46.8021 48.9567 42.529 53.1389 39.012C54.6163 37.8139 56.1786 36.7244 57.8134 35.7521L58.3195 35.4522C65.5063 30.8149 74.1808 29.0666 82.6028 30.558C88.0799 31.0747 93.453 32.3839 98.5539 34.4446C100.859 35.6005 103.843 36.4663 105.431 38.6007C107.959 40.4862 105.053 46.8716 103.92 49.1101C99.0594 58.5449 91.7443 66.4942 82.7453 72.1209C74.7362 77.1014 65.0568 77.8118 55.9607 76.995C50.3342 76.2382 44.8622 74.5992 39.7461 72.1384C39.5326 72.0803 39.3234 72.0073 39.1201 71.9199Z" fill="#194128"/>
</svg>
