<svg width="268" height="271" viewBox="0 0 268 271" fill="none" xmlns="http://www.w3.org/2000/svg">
<path fill-rule="evenodd" clip-rule="evenodd" d="M63.8578 98.2762C68.6716 112.498 63.977 109.617 59.7804 126.379C56.5931 139.062 56.4107 160.294 61.9937 172.392C65.7899 180.562 71.41 189.309 78.3312 194.839C88.4438 202.961 98.2558 211.356 110.297 216.072C117.106 218.746 131.576 220.462 138.429 219.578C148.34 218.332 163.183 213.536 172.566 210.348C190.775 204.249 203.34 190.231 207.764 171.928C208.901 167.255 210.883 164.095 212.036 159.264C218.094 133.865 211.459 103.583 197.873 85.0084C189.948 74.1946 179.41 66.0108 166.676 61.6517C148.705 55.4569 146.89 53.7458 122.923 59.1522C112.823 61.4168 103.335 66.9421 95.594 71.5189C92.8692 69.6471 90.496 68.6755 87.9385 67.3328C84.4668 65.5732 83.564 63.0964 78.4523 64.8852L79.1078 66.2332C82.1386 65.9805 88.2188 70.2547 88.4001 75.3071C88.6338 81.0681 86.0459 84.5156 84.084 88.2375C81.2668 93.6898 79.6546 93.3744 74.438 97.5008C72.2038 99.2763 72.8471 101.038 69.4082 101.072C66.5415 101.134 65.9903 99.5577 63.9942 98.1949L63.8578 98.2762Z" fill="#D03435"/>
<path fill-rule="evenodd" clip-rule="evenodd" d="M63.7124 96.9188L63.8555 98.2762C65.8623 99.6881 66.4519 101.205 69.2695 101.153C72.6976 101.071 72.0651 99.3576 74.2992 97.5821C79.5159 93.4557 81.1388 93.8202 83.9453 88.3188C85.8581 84.6077 88.4353 81.1111 88.2614 75.3884C88.0693 70.2869 81.9999 66.0618 78.9691 66.3145L78.3136 64.9665C75.1182 63.7636 73.8947 60.997 69.9556 60.6257C64.8616 60.1475 62.5844 61.7266 60.3461 64.8918C60.9195 68.2123 61.4505 69.2276 63.9387 70.0196C67.9241 71.3066 67.0583 69.2332 69.742 72.0913C68.589 73.1669 69.9646 72.4026 68.1318 72.9585L60.7821 74.1576C56.9862 75.1437 55.6247 76.6765 56.0279 80.3944C56.5434 84.8592 59.7479 94.0842 63.7507 96.8589L63.7124 96.9188Z" fill="#530700"/>
</svg>
