<svg width="551" height="294" viewBox="0 0 551 294" fill="none" xmlns="http://www.w3.org/2000/svg">
<path fill-rule="evenodd" clip-rule="evenodd" d="M5.01319 154.322C4.85925 153.8 4.74283 153.189 4.66809 152.464C4.47489 150.533 4.62274 148.528 4.77035 146.526C4.89153 144.883 5.01255 143.242 4.94458 141.645C4.85128 139.603 4.3845 137.608 3.91853 135.617C3.38043 133.317 2.84339 131.022 2.88379 128.663C2.91664 126.239 3.49614 123.499 4.05526 120.856C4.35225 119.452 4.64348 118.076 4.84399 116.788C4.97589 115.953 5.37854 115.022 5.79142 114.068C6.55855 112.294 7.36099 110.439 6.52777 108.969C5.81427 107.691 4.64634 107.004 3.55815 106.364C1.69512 105.269 0.0658152 104.311 1.35083 100.757C2.53144 97.484 6.95119 95.2969 11.1139 93.237C17.0526 90.2982 22.4681 87.6184 17.2083 82.4145C16.431 81.6472 15.533 80.9793 14.6481 80.3212C12.3287 78.5963 10.0999 76.9387 10.3728 73.7352C10.4803 72.3675 10.9173 71.1165 11.3597 69.8501C11.8478 68.4529 12.3425 67.0369 12.4084 65.4247C12.465 64.1141 12.3977 62.762 12.33 61.4034C12.2174 59.1426 12.1039 56.8639 12.5592 54.7292C12.7534 53.8063 13.1007 53.0965 13.4409 52.4014C14.0251 51.2074 14.5883 50.0565 14.3183 47.9431C14.1173 46.4044 13.7605 45.0399 13.4024 43.6704C12.9994 42.1292 12.5947 40.5816 12.4084 38.772C12.132 36.0182 11.5037 33.0431 10.5236 30.486C10.2941 29.8922 10.0614 29.3044 9.8288 28.7167C8.91543 26.409 8.00277 24.1031 7.28168 21.4379C6.4021 18.217 5.87439 16.7909 3.93927 14.3322C3.4144 13.6552 5.39807 13.4991 7.58131 13.3272C9.70412 13.1601 12.0156 12.9781 12.3933 12.2882C23.703 13.1097 34.1444 15.5208 45.4302 19.3971C53.1705 22.0526 59.0511 20.9216 66.6909 19.348C69.1225 18.841 71.5611 18.4336 73.9905 18.0278C80.7506 16.8986 87.4393 15.7814 93.7065 12.5619C94.671 12.0679 95.3637 11.6522 95.9449 11.3034C97.6198 10.2983 98.3679 9.84943 102.025 9.68514C108.936 9.36551 116.374 9.14422 123.26 9.61138C125.744 9.78671 128.149 10.332 130.552 10.8769C132.867 11.4018 135.18 11.9263 137.56 12.1193C139.885 12.3089 142.121 12.4073 144.326 12.5044C148.698 12.6968 152.953 12.8841 157.564 13.7666C165.315 15.2383 173.975 14.8934 182.334 14.5606C185.846 14.4207 189.305 14.283 192.621 14.283C206.669 14.283 219.486 13.9388 233.308 11.9964C239.44 11.1358 244.29 9.24257 250.045 6.95595C260.55 2.82527 271.632 0.784521 282.966 0.563235C290.554 0.407928 298.152 0.488061 305.747 0.568167C310.176 0.61488 314.604 0.661584 319.029 0.661584C322.049 0.661584 325.078 0.599277 328.109 0.536938C333.378 0.428583 338.651 0.320136 343.883 0.538647C351.817 0.879086 359.74 1.84279 367.659 2.80609C376.899 3.92995 386.134 5.05326 395.376 5.18566C400.858 5.26894 405.994 6.63847 411.08 7.9949C413.503 8.64084 415.914 9.28381 418.346 9.78349C428.933 11.9476 439.791 11.9715 450.7 11.9955L451.066 11.9964C454.421 11.9964 457.78 12.0171 461.139 12.0379C466.735 12.0724 472.33 12.107 477.906 12.0455C481.607 12.0039 485.028 11.3907 488.459 10.7759C491.107 10.3013 493.761 9.82563 496.553 9.61138C500.553 9.30411 504.695 9.4436 508.806 9.58207C510.945 9.65413 513.076 9.7259 515.175 9.73432C515.175 9.5406 515.54 9.28726 515.911 9.03009C516.294 8.765 516.683 8.49582 516.683 8.28366C516.683 8.63076 516.679 8.97105 516.676 9.3062C516.66 11.084 516.645 12.7173 517.11 14.4551C518.14 18.3153 518.592 22.4214 518.567 27.0684C518.559 28.6304 518.475 30.2537 518.389 31.8953C518.215 35.2408 518.037 38.6624 518.492 41.7962C518.684 43.1133 519.072 44.3236 519.46 45.5346C519.883 46.8555 520.307 48.1773 520.477 49.6396L520.48 49.6639C520.833 52.6982 521.579 59.1131 520.201 61.8841C519.211 63.8531 516.465 65.603 513.97 67.1925C512.727 67.9848 511.546 68.7372 510.676 69.457C510.097 69.9435 509.54 70.4042 509.008 70.8446C502.841 75.9464 499.97 78.3214 504.042 86.4469C505.092 88.5348 506.041 90.6613 506.988 92.7821C508.872 97.0047 510.747 101.205 513.39 105.035C513.827 105.676 514.396 106.003 514.946 106.32C515.599 106.696 516.228 107.058 516.582 107.912C517.026 108.962 516.898 110.293 516.779 111.521C516.737 111.959 516.696 112.385 516.683 112.78C516.669 113.424 516.644 114.071 516.618 114.718C516.497 117.747 516.377 120.773 517.537 123.549C518.24 125.233 518.981 126.6 519.666 127.864C521.282 130.845 522.584 133.248 522.337 137.859C522.329 138.003 522.318 138.146 522.305 138.286C527.712 137.205 533.134 136.464 538.76 136.076C539.158 136.766 541.596 136.948 543.835 137.115C546.138 137.287 548.23 137.443 547.676 138.12C545.635 140.579 545.079 142.005 544.151 145.226C543.39 147.891 542.428 150.197 541.464 152.505C541.219 153.092 540.974 153.68 540.732 154.274C539.698 156.831 539.035 159.806 538.744 162.56C538.547 164.37 538.12 165.917 537.695 167.459C537.318 168.828 536.941 170.193 536.729 171.731C536.445 173.845 537.039 174.995 537.655 176.189C538.014 176.885 538.38 177.594 538.585 178.517C539.065 180.652 538.945 182.931 538.827 185.192C538.755 186.55 538.684 187.902 538.744 189.213C538.813 190.825 539.335 192.241 539.85 193.638C540.316 194.905 540.777 196.156 540.891 197.523C541.179 200.727 538.828 202.384 536.382 204.109C535.448 204.767 534.501 205.435 533.681 206.203C528.134 211.406 533.846 214.086 540.109 217.025C544.5 219.085 549.161 221.272 550.406 224.545C551.762 228.099 550.043 229.057 548.078 230.152C546.93 230.792 545.699 231.479 544.946 232.757C544.067 234.228 544.914 236.083 545.723 237.856C546.158 238.81 546.583 239.741 546.722 240.576C546.933 241.864 547.241 243.24 547.554 244.644C548.144 247.287 548.755 250.027 548.789 252.451C548.832 254.81 548.266 257.105 547.698 259.405C547.207 261.396 546.714 263.391 546.616 265.434C546.544 267.03 546.672 268.671 546.8 270.314C546.955 272.316 547.111 274.321 546.908 276.252C546.508 279.925 544.981 280.673 542.896 281.693C541.66 282.298 540.227 283 538.717 284.464H548.127C532.409 284.464 518.838 287.046 503.916 291.89C495.752 294.545 489.55 293.439 481.492 291.84C478.928 291.333 476.356 290.926 473.793 290.52C466.663 289.391 459.609 288.274 452.999 285.054C451.962 284.554 451.222 284.134 450.603 283.782C448.85 282.787 448.065 282.341 444.226 282.178C436.91 281.858 429.091 281.612 421.828 282.104C419.209 282.279 416.673 282.824 414.138 283.369C411.697 283.894 409.257 284.419 406.747 284.612C404.219 284.816 401.789 284.917 399.391 285.017C394.849 285.206 390.419 285.39 385.649 286.259C377.498 287.747 368.362 287.396 359.545 287.058C355.832 286.916 352.176 286.775 348.674 286.775C333.857 286.775 320.339 286.431 305.761 284.489C299.354 283.64 294.314 281.761 288.35 279.538L288.109 279.448C277.029 275.318 265.367 273.277 253.387 273.056C245.401 272.9 237.384 272.98 229.368 273.061C224.693 273.107 220.019 273.154 215.351 273.154C212.195 273.154 209.021 273.089 205.842 273.024C200.266 272.91 194.675 272.796 189.137 273.031C180.743 273.373 172.359 274.336 163.979 275.299C154.262 276.416 144.549 277.533 134.828 277.678C129.046 277.761 123.63 279.131 118.265 280.487C115.71 281.133 113.167 281.776 110.602 282.276C99.3106 284.489 87.7277 284.489 76.0919 284.489C72.5535 284.489 69.0151 284.509 65.4767 284.53C59.5792 284.565 53.6816 284.599 47.7841 284.538C43.8802 284.496 40.2718 283.883 36.6539 283.268C33.8606 282.794 31.0618 282.318 28.117 282.104C23.9923 281.803 19.7251 281.94 15.4846 282.076C13.1307 282.151 10.7851 282.227 8.47653 282.227L8.50304 282.178C8.76524 282.129 7.67219 280.643 6.56775 279.141C5.43928 277.606 4.29894 276.056 4.58024 276.006C5.78017 272.567 4.46221 270.18 3.08272 267.681C2.08542 265.874 1.05595 264.01 0.92249 261.647C0.661874 257.036 2.03552 254.633 3.73955 251.652C4.46178 250.388 5.24337 249.021 5.98502 247.337C7.20825 244.561 7.08138 241.535 6.9544 238.506C6.9273 237.859 6.9002 237.212 6.88621 236.568C6.87225 236.173 6.82891 235.748 6.78421 235.309C6.65915 234.081 6.52357 232.75 6.99223 231.7C7.36608 230.846 8.02854 230.484 8.71726 230.108C9.2981 229.791 9.89761 229.464 10.3584 228.823C13.1461 224.993 15.1234 220.793 17.1112 216.57C18.1096 214.449 19.1107 212.323 20.2184 210.235C24.5127 202.109 21.4849 199.735 14.9806 194.633C14.4192 194.192 13.8318 193.732 13.221 193.245C12.304 192.525 11.0584 191.773 9.74686 190.981C7.11582 189.391 4.21904 187.641 3.17545 185.672C1.72146 182.901 2.50867 176.486 2.88097 173.451L2.88389 173.428C3.06366 171.965 3.51035 170.644 3.95674 169.323C4.36599 168.112 4.77498 166.901 4.97782 165.584C5.21905 164.01 5.29163 162.362 5.28083 160.688C4.69433 160.68 4.10482 160.676 3.51208 160.676H5.28075C5.26968 159.023 5.17748 157.344 5.08631 155.683C5.06129 155.228 5.03635 154.774 5.01319 154.322ZM538.76 136.076C541.812 135.866 544.924 135.76 548.127 135.76H538.717C538.689 135.876 538.705 135.981 538.76 136.076ZM12.3933 12.2882C12.4455 12.1928 12.4607 12.0878 12.4335 11.9718H3.51208C6.54847 11.9718 9.49931 12.0779 12.3933 12.2882Z" fill="white"/>
<path fill-rule="evenodd" clip-rule="evenodd" d="M397.978 28.4751C397.72 29.9136 398.006 31.396 398.78 32.6385C404.213 39.2636 415.408 30.2491 411.908 23.1895C409.392 17.7953 401.406 19.3882 398.744 23.8411C397.882 25.2246 397.606 26.8907 397.978 28.4751ZM421.044 39.0612C421.381 39.7108 421.864 40.2747 422.456 40.7095C430.357 45.8317 436.813 32.3677 428.676 28.5626C423.871 26.3967 417.945 31.4018 420.51 36.4069C420.495 36.5919 420.495 36.7779 420.51 36.963C420.524 37.6937 420.706 38.4116 421.044 39.0612ZM479.382 104.71C478.79 104.275 478.307 103.711 477.969 103.061C477.632 102.412 477.449 101.694 477.436 100.963C477.42 100.778 477.42 100.592 477.436 100.407C474.871 95.4018 480.797 90.3967 485.602 92.5626C493.739 96.3677 487.283 109.832 479.382 104.71ZM501.814 248.887C496.161 247.113 495.213 241.646 498.167 237.085C499.538 235.388 501.365 234.113 503.438 233.408C505.51 232.703 507.742 232.597 509.872 233.103C521.833 237.881 511.951 251.964 501.814 248.887ZM489.634 262.863C488.258 262.747 486.961 262.172 485.955 261.232C484.949 260.293 484.292 259.043 484.092 257.686C484.183 256.722 484.137 255.812 484.091 254.916C484.046 254.03 484.001 253.156 484.092 252.255C484.712 248.635 488.613 247.151 491.859 246.68C492.765 246.62 493.672 246.767 494.512 247.109C495.352 247.451 496.101 247.98 496.703 248.655C497.305 249.329 497.744 250.132 497.985 251.001C498.226 251.87 498.263 252.782 498.094 253.667C498.283 254.849 498.201 256.058 497.855 257.204C497.509 258.35 496.907 259.404 496.094 260.287C495.282 261.171 494.279 261.861 493.16 262.307C492.042 262.753 490.837 262.943 489.634 262.863Z" fill="#D23F3F"/>
<path d="M476.879 34.9504C477.262 35.0518 477.618 35.2341 477.924 35.4848C478.712 35.0403 479.638 34.9035 480.522 35.1011C481.406 35.2987 482.184 35.8166 482.704 36.5534C483.196 37.3926 483.447 38.3489 483.433 39.3194C483.871 40.7336 484.074 42.2093 484.034 43.6884C483.591 48.8118 484.034 54.6266 481.596 59.4042C481.253 59.9026 480.787 60.3049 480.242 60.5725C479.697 60.8402 479.091 60.9642 478.484 60.9327C477.877 60.9011 477.288 60.715 476.774 60.3923C476.26 60.0696 475.838 59.6211 475.549 59.0899C474.897 57.0573 474.566 54.9367 474.568 52.8036C473.017 55.0352 470.642 58.2412 467.54 56.8268C466.819 56.4713 466.235 55.8926 465.875 55.1781C465.515 54.4635 465.399 53.6521 465.545 52.8664C466.624 49.9912 468.071 47.2657 469.851 44.7571C466.845 45.8428 463.549 45.8428 460.543 44.7571C460.008 44.4044 459.568 43.9257 459.264 43.3635C458.961 42.8014 458.802 42.1733 458.802 41.5353C458.802 40.8974 458.961 40.2693 459.264 39.7071C459.568 39.145 460.008 38.6662 460.543 38.3136C463.678 37.0574 466.968 36.2224 470.326 35.8305C472.461 35.2479 474.665 34.9519 476.879 34.9504Z" fill="#231F20"/>
</svg>
