<svg width="551" height="294" viewBox="0 0 551 294" fill="none" xmlns="http://www.w3.org/2000/svg">
<path d="M8.47653 282.227C14.9439 282.227 21.7027 281.637 28.117 282.104C34.8759 282.596 40.8662 284.464 47.7841 284.538C57.22 284.636 66.6559 284.489 76.0919 284.489C87.7277 284.489 99.3106 284.489 110.602 282.276C118.554 280.727 126.293 277.801 134.828 277.678C152.931 277.408 171.008 273.769 189.137 273.031C197.831 272.662 206.658 273.154 215.351 273.154C228.021 273.154 240.743 272.81 253.387 273.056C265.367 273.277 277.029 275.318 288.109 279.448C294.178 281.71 299.267 283.628 305.761 284.489C320.339 286.431 333.857 286.775 348.674 286.775C360.495 286.775 374.066 288.374 385.649 286.259C392.938 284.931 399.431 285.202 406.747 284.612C411.862 284.218 416.686 282.448 421.828 282.104C429.091 281.612 436.91 281.858 444.226 282.178C449.421 282.399 449.023 283.136 452.999 285.054C461.984 289.431 471.791 289.923 481.492 291.84C489.55 293.439 495.752 294.545 503.916 291.89C518.838 287.046 532.409 284.464 548.127 284.464H538.717C542.773 280.53 546.271 282.104 546.908 276.252C547.279 272.736 546.457 268.974 546.616 265.434C546.828 261.032 548.869 256.853 548.789 252.451C548.736 248.739 547.332 244.288 546.722 240.576C546.324 238.191 543.594 235.019 544.946 232.757C546.987 229.29 552.553 230.175 550.406 224.545C547.385 216.603 524.245 215.054 533.681 206.203C536.65 203.424 541.288 201.949 540.891 197.523C540.652 194.647 538.876 192.286 538.744 189.213C538.585 185.721 539.353 181.935 538.585 178.517C538.028 176.009 536.279 175.075 536.729 171.731C537.18 168.461 538.373 165.978 538.744 162.56C539.035 159.806 539.698 156.831 540.732 154.274C541.924 151.348 543.197 148.57 544.151 145.226C545.079 142.005 545.635 140.579 547.676 138.12C548.842 136.694 538.267 137.579 538.717 135.76H548.127C532.409 135.76 518.865 138.317 503.916 143.185C495.752 145.841 489.55 144.71 481.492 143.136C471.791 141.218 461.984 140.726 452.999 136.35C449.05 134.432 449.421 133.695 444.226 133.473C436.937 133.154 429.091 132.932 421.828 133.399C416.686 133.744 411.862 135.514 406.747 135.907C399.431 136.473 392.964 136.227 385.649 137.555C374.039 139.645 360.495 138.071 348.674 138.071C333.857 138.071 320.339 137.727 305.761 135.784C299.294 134.924 294.178 133.031 288.109 130.744C277.029 126.613 265.34 124.573 253.387 124.351C240.717 124.105 228.021 124.45 215.351 124.45C206.631 124.45 197.831 123.983 189.137 124.327C171.008 125.064 152.931 128.728 134.828 128.974C126.293 129.097 118.554 132.023 110.602 133.572C99.3106 135.76 87.7277 135.76 76.0919 135.784C66.6559 135.784 57.1935 135.932 47.7841 135.834C40.8662 135.76 34.8759 133.891 28.117 133.399C21.7027 132.932 14.9439 133.498 8.47653 133.522C8.47653 133.129 6.88621 132.49 6.88621 132.072C6.88621 134.26 7.01874 136.178 6.43562 138.243C5.34889 142.103 4.8718 146.209 4.8983 150.856C4.92481 155.602 5.69346 160.913 4.97782 165.584C4.55373 168.338 3.22846 170.625 2.88389 173.428C2.51281 176.452 1.71765 182.894 3.17545 185.672C4.73927 188.623 10.4644 191.081 13.221 193.245C20.9076 199.367 24.8834 201.408 20.2184 210.235C16.9053 216.48 14.5463 223.07 10.3584 228.823C9.35121 230.224 7.68137 230.126 6.99223 231.7C6.3561 233.126 6.8332 235.068 6.88621 236.568C6.96572 240.232 7.46933 243.969 5.98502 247.337C3.49352 252.992 0.551414 255.082 0.92249 261.647C1.24056 267.278 6.64766 270.081 4.58024 276.006C4.02362 276.104 9.03315 282.079 8.50304 282.178L8.47653 282.227Z" fill="white"/>
<path d="M515.175 158.439C509.043 158.439 502.634 157.849 496.553 158.316C490.144 158.807 484.465 160.676 477.906 160.75C468.959 160.848 460.013 160.701 451.066 160.701C440.034 160.701 429.052 160.701 418.346 158.488C410.807 156.939 403.468 154.013 395.376 153.89C378.212 153.62 361.073 149.981 343.883 149.243C335.64 148.874 327.272 149.366 319.029 149.366C307.016 149.366 294.954 149.022 282.966 149.268C271.607 149.489 260.55 151.53 250.045 155.66C244.29 157.922 239.465 159.84 233.308 160.701C219.486 162.643 206.669 162.987 192.621 162.987C181.413 162.987 168.546 164.585 157.564 162.471C150.653 161.143 144.496 161.414 137.56 160.824C132.709 160.43 128.136 158.66 123.26 158.316C116.374 157.824 108.961 158.07 102.025 158.389C97.0991 158.611 97.476 159.348 93.7065 161.266C85.1871 165.643 75.8887 166.134 66.6909 168.052C59.0511 169.65 53.1705 170.757 45.4302 168.101C31.2816 163.258 18.4146 160.676 3.51208 160.676H12.4335C8.5885 156.742 5.27124 158.316 4.66809 152.464C4.31628 148.948 5.09534 145.186 4.94458 141.645C4.74353 137.244 2.80841 133.064 2.88379 128.663C2.93408 124.951 4.26599 120.5 4.84399 116.788C5.22095 114.403 7.80945 111.231 6.52777 108.969C4.59271 105.502 -0.684753 106.387 1.35083 100.757C4.21576 92.815 26.1549 91.266 17.2083 82.4145C14.3937 79.6362 9.99579 78.1609 10.3728 73.7352C10.5989 70.8585 12.2827 68.4981 12.4084 65.4247C12.5592 61.9333 11.8304 58.1468 12.5592 54.7292C13.0869 52.2213 14.7455 51.2869 14.3183 47.9431C13.8911 44.6729 12.7602 42.1896 12.4084 38.772C12.132 36.0182 11.5037 33.0431 10.5236 30.486C9.3927 27.5601 8.1864 24.7818 7.28168 21.4379C6.4021 18.217 5.87439 16.7909 3.93927 14.3322C2.83356 12.9061 12.8607 13.7912 12.4335 11.9718H3.51208C18.4146 11.9718 31.2565 14.5289 45.4302 19.3971C53.1705 22.0526 59.0511 20.9216 66.6909 19.348C75.8887 17.4302 85.1871 16.9384 93.7065 12.5619C97.4509 10.644 97.0991 9.90643 102.025 9.68514C108.936 9.36551 116.374 9.14422 123.26 9.61138C128.136 9.9556 132.709 11.7259 137.56 12.1193C144.496 12.6848 150.628 12.4389 157.564 13.7666C168.571 15.8566 181.413 14.283 192.621 14.283C206.669 14.283 219.486 13.9388 233.308 11.9964C239.44 11.1358 244.29 9.24257 250.045 6.95595C260.55 2.82527 271.632 0.784521 282.966 0.563235C294.979 0.317361 307.016 0.661584 319.029 0.661584C327.297 0.661584 335.64 0.194424 343.883 0.538647C361.073 1.27627 378.212 4.93978 395.376 5.18566C403.468 5.30859 410.807 8.23449 418.346 9.78349C429.052 11.9718 440.034 11.9718 451.066 11.9964C460.013 11.9964 468.984 12.1439 477.906 12.0455C484.465 11.9718 490.144 10.1031 496.553 9.61138C502.634 9.14422 509.043 9.70973 515.175 9.73432C515.175 9.34092 516.683 8.70165 516.683 8.28366C516.683 10.4719 516.557 12.3898 517.11 14.4551C518.14 18.3153 518.592 22.4214 518.567 27.0684C518.542 31.8138 517.813 37.1246 518.492 41.7962C518.894 44.55 520.151 46.8366 520.477 49.6396C520.829 52.6638 521.583 59.1057 520.201 61.8841C518.718 64.8346 513.29 67.2933 510.676 69.457C503.388 75.5793 499.619 77.62 504.042 86.4469C507.183 92.692 509.42 99.2815 513.39 105.035C514.345 106.436 515.929 106.338 516.582 107.912C517.185 109.338 516.733 111.28 516.683 112.78C516.607 116.443 516.13 120.181 517.537 123.549C519.899 129.204 522.689 131.294 522.337 137.859C522.035 143.49 516.909 146.292 518.869 152.218C519.397 152.316 514.647 158.291 515.15 158.389L515.175 158.439Z" fill="white"/>
<path d="M398.78 32.6385C398.006 31.396 397.72 29.9136 397.978 28.4751C397.606 26.8907 397.882 25.2246 398.744 23.8411C401.406 19.3882 409.392 17.7953 411.908 23.1895C415.408 30.2491 404.213 39.2636 398.78 32.6385Z" fill="#D23F3F"/>
<path d="M489.634 262.863C488.258 262.747 486.961 262.172 485.955 261.232C484.949 260.293 484.292 259.043 484.092 257.686C484.274 255.767 483.909 254.065 484.092 252.255C484.712 248.635 488.613 247.151 491.859 246.68C492.765 246.62 493.672 246.767 494.512 247.109C495.352 247.451 496.101 247.98 496.703 248.655C497.305 249.329 497.744 250.132 497.985 251.001C498.226 251.87 498.263 252.782 498.094 253.667C498.283 254.849 498.201 256.058 497.855 257.204C497.509 258.35 496.907 259.404 496.094 260.287C495.282 261.171 494.279 261.861 493.16 262.307C492.042 262.753 490.837 262.943 489.634 262.863Z" fill="#D23F3F"/>
<path d="M501.814 248.887C496.161 247.113 495.213 241.646 498.167 237.085C499.538 235.388 501.365 234.113 503.438 233.408C505.51 232.703 507.742 232.597 509.872 233.103C521.833 237.881 511.951 251.964 501.814 248.887Z" fill="#D23F3F"/>
<path d="M422.456 40.7095C421.864 40.2747 421.381 39.7108 421.044 39.0612C420.706 38.4116 420.524 37.6937 420.51 36.963C420.495 36.7779 420.495 36.592 420.51 36.4069C417.945 31.4018 423.871 26.3967 428.676 28.5626C436.813 32.3677 430.357 45.8317 422.456 40.7095Z" fill="#D23F3F"/>
<path d="M479.382 104.71C478.79 104.275 478.307 103.711 477.969 103.061C477.632 102.412 477.449 101.694 477.436 100.963C477.42 100.778 477.42 100.592 477.436 100.407C474.871 95.4018 480.797 90.3967 485.602 92.5626C493.739 96.3677 487.283 109.832 479.382 104.71Z" fill="#D23F3F"/>
<path d="M476.879 34.9504C477.262 35.0518 477.618 35.2341 477.924 35.4848C478.712 35.0403 479.638 34.9035 480.522 35.1011C481.406 35.2987 482.184 35.8166 482.704 36.5534C483.196 37.3926 483.447 38.3489 483.433 39.3194C483.871 40.7336 484.074 42.2093 484.034 43.6884C483.591 48.8118 484.034 54.6266 481.596 59.4042C481.253 59.9026 480.787 60.3049 480.242 60.5725C479.697 60.8402 479.091 60.9642 478.484 60.9327C477.877 60.9011 477.288 60.715 476.774 60.3923C476.26 60.0696 475.838 59.6211 475.549 59.0899C474.897 57.0573 474.566 54.9367 474.568 52.8036C473.017 55.0352 470.642 58.2412 467.54 56.8268C466.819 56.4713 466.235 55.8926 465.875 55.1781C465.515 54.4635 465.399 53.6521 465.545 52.8664C466.624 49.9912 468.071 47.2657 469.851 44.7571C466.845 45.8428 463.549 45.8428 460.543 44.7571C460.008 44.4044 459.568 43.9257 459.264 43.3635C458.961 42.8014 458.802 42.1733 458.802 41.5353C458.802 40.8974 458.961 40.2693 459.264 39.7071C459.568 39.145 460.008 38.6662 460.543 38.3136C463.678 37.0574 466.968 36.2224 470.326 35.8305C472.461 35.2479 474.665 34.9519 476.879 34.9504Z" fill="#231F20"/>
</svg>
