<svg width="702" height="164" viewBox="0 0 702 164" fill="none" xmlns="http://www.w3.org/2000/svg">
<path fill-rule="evenodd" clip-rule="evenodd" d="M683.22 106.642C684.842 106.648 686.462 106.743 688.074 106.928C691.386 107.622 690.7 112.907 687.566 112.245C683.509 111.651 679.288 111.47 675.133 111.292C672.611 111.184 670.112 111.077 667.689 110.879L663.647 110.42C663.444 110.444 663.242 110.463 663.039 110.483C662.635 110.521 662.231 110.56 661.819 110.638L652.516 111.377C649.648 111.564 646.825 111.894 644.003 112.224C640.434 112.641 636.867 113.057 633.209 113.186C628.453 113.353 623.685 113.06 618.943 112.767C617.152 112.657 615.364 112.547 613.582 112.462C601.078 111.923 588.694 110.938 576.313 109.954C575.272 109.871 574.232 109.788 573.191 109.706C566.948 109.211 560.648 109.023 554.386 108.837C547.185 108.623 540.033 108.41 533.071 107.733C524.532 106.903 516.006 106.331 507.5 105.761C503.037 105.462 498.579 105.163 494.128 104.828L488.573 104.368C488.261 104.536 487.915 104.63 487.56 104.643C479.975 104.851 472.386 104.422 464.872 103.362C460.813 102.705 456.754 102.485 452.699 102.266C449.813 102.11 446.93 101.955 444.051 101.641C440.938 101.256 437.808 100.774 434.656 100.288C429 99.4164 423.273 98.5339 417.449 98.1821C410.266 97.9655 403.17 98.795 396.083 99.6235C390.935 100.225 385.792 100.826 380.625 101.026C371.919 101.002 362.883 101.79 354.342 102.621C347.617 103.05 340.892 103.478 334.143 103.535C326.894 103.068 319.684 102.125 312.56 100.713C310.294 100.455 308.027 100.324 305.76 100.194C303.308 100.052 300.858 99.9105 298.411 99.6089C289.416 97.8647 280.317 96.7012 271.172 96.1257C248.302 95.5912 226.264 101.076 204.701 106.968C201.239 107.865 197.8 108.832 194.366 109.797C183.773 112.776 173.235 115.739 162.246 116.581C148.535 117.989 135.017 120.412 121.539 122.828C115.684 123.878 109.837 124.926 103.984 125.889C98.1265 126.813 92.2201 127.18 86.3042 127.546C82.4017 127.788 78.4951 128.031 74.5954 128.433C61.8606 130.149 49.2464 132.664 36.8277 135.965C32.7573 136.921 28.6263 137.958 24.6487 139.161C23.6815 139.374 22.7515 139.731 21.8894 140.218C21.8843 140.598 21.7532 140.965 21.5166 141.263C21.2801 141.56 20.9515 141.77 20.5825 141.86C16.7367 143.192 12.9766 144.759 9.32335 146.553C9.02488 146.652 8.71768 146.799 8.40399 146.948C7.5899 147.338 6.73214 147.748 5.87012 147.392C5.59981 147.114 5.53115 146.231 6.104 146.105C6.42626 145.985 6.7232 145.806 6.9794 145.577C9.7681 143.497 12.6601 141.559 15.6444 139.771C15.3351 139.25 15.1436 138.667 15.0835 138.064C11.2359 139.042 7.50743 140.44 3.96553 142.233C3.9408 142.522 3.82078 142.794 3.62437 143.007C3.42796 143.221 3.16627 143.363 2.88042 143.411C2.60546 143.407 2.33701 143.327 2.10484 143.179C1.87268 143.032 1.68589 142.823 1.56519 142.576C0.649529 140.663 2.90058 139.386 4.48472 138.488C4.85517 138.278 5.18916 138.088 5.43764 137.916C8.76336 136.031 12.206 134.359 15.7446 132.913L16.3494 129.584C14.8528 130 13.3642 130.371 11.8393 130.69C10.3954 130.926 9.08793 131.224 7.81477 131.514C6.62992 131.784 5.4748 132.048 4.26719 132.248C4.00882 132.319 3.73497 132.308 3.48267 132.218C3.23037 132.128 3.01178 131.963 2.85644 131.745C2.70111 131.527 2.61651 131.266 2.61409 130.998C2.61167 130.73 2.69156 130.468 2.84294 130.247C5.67714 128.591 8.67406 127.231 11.7864 126.188C13.0026 125.766 14.2138 125.269 15.4305 124.77C16.1228 124.485 16.817 124.201 17.5148 123.928C17.5384 122.915 17.7208 121.912 18.0551 120.955C17.1661 121.114 16.2868 121.287 15.411 121.459C13.9063 121.756 12.4117 122.05 10.8945 122.267C10.6079 122.215 10.2864 122.223 9.95488 122.232C9.25964 122.25 8.52018 122.27 7.96562 121.735C7.82858 121.614 7.7193 121.465 7.64532 121.298C7.57133 121.131 7.53441 120.95 7.53708 120.768C7.53975 120.585 7.58195 120.406 7.66078 120.241C7.73961 120.076 7.85318 119.931 7.99369 119.814C12.0237 118.071 16.1748 116.671 20.3622 115.323C20.8597 114.099 21.4042 112.869 21.9957 111.632C21.5812 111.662 21.173 111.693 20.7697 111.723C18.7312 111.876 16.8173 112.019 14.8471 112.12C14.5724 112.07 14.2329 112.135 13.8859 112.202C13.168 112.339 12.4176 112.482 12.1401 111.628C12.4417 109.016 17.7498 107.942 21.5258 107.178C22.7476 106.93 23.8089 106.716 24.4884 106.492L25.021 106.589C26.0374 105.031 27.0983 103.482 28.1955 101.985C25.4079 102.441 23.1931 102.772 20.704 103.099C18.8313 103.584 16.8945 103.773 14.9634 103.661C14.8578 103.571 14.7714 103.46 14.7092 103.336C14.647 103.212 14.6103 103.077 14.6012 102.939C14.5922 102.8 14.611 102.662 14.6566 102.531C14.7021 102.399 14.7735 102.279 14.8664 102.176C18.593 99.7635 22.7569 98.106 27.1219 97.2975C28.4948 96.9323 29.8458 96.489 31.1681 95.9699C31.5352 95.2114 31.9466 94.461 32.358 93.7106C27.2104 94.288 20.3846 94.5145 19.2185 92.6064C18.309 91.1182 23.488 90.3461 26.3627 89.9175C27.1738 89.7965 27.8015 89.703 28.0572 89.6284C29.9842 89.4058 31.7369 89.0526 33.5106 88.6951C34.1505 88.5662 34.7932 88.4367 35.4478 88.3125C36.1536 87.203 36.9039 86.1016 37.7429 85.0164C34.9689 84.9677 32.1943 85.0757 29.4325 85.3399C27.9096 85.6706 26.346 85.7727 24.7931 85.6429C24.5922 85.5951 24.4049 85.502 24.2455 85.3707C24.0861 85.2394 23.9589 85.0733 23.8736 84.8853C23.7884 84.6972 23.7472 84.4921 23.7534 84.2857C23.7597 84.0793 23.813 83.877 23.9095 83.6944C23.9997 83.4802 24.1594 83.3024 24.3627 83.1897C24.5661 83.077 24.8014 83.036 25.0309 83.073C27.4241 82.0523 29.9684 81.4306 32.5627 81.2328C34.6094 81.035 36.682 80.9644 38.7678 80.8933C39.5353 80.8672 40.3045 80.841 41.0748 80.8084C41.108 80.8008 41.1412 80.794 41.1746 80.788C41.1957 80.7436 41.2167 80.6991 41.2377 80.6547L41.8633 80.7683C41.9074 80.7737 41.9515 80.7804 41.9953 80.7884C42.1612 80.8185 42.3229 80.8667 42.4775 80.9319C42.6207 80.9843 42.7612 81.0497 42.8593 81.1275C44.0047 80.7121 45.189 80.3795 46.3692 80.048C47.6138 79.6984 48.8538 79.3501 50.0387 78.9075C55.6803 77.1801 61.4364 75.8517 67.2645 74.9322C73.8041 73.5984 80.4586 72.3541 87.1406 71.1352L87.5416 71.053L96.9972 63.9374L109.997 54.9374L131.433 46.6176L141.337 44.3374C149.405 42.3195 157.505 40.3837 165.635 38.5299C168.329 37.8277 171.017 37.1649 173.705 36.5022L173.717 36.4992C175.057 36.1688 176.396 35.8384 177.737 35.5031C187.193 33.9209 197.129 32.4717 206.864 31.1234L214.496 30.4933L218.268 30.1703L229.931 29.3099C241.905 28.0018 253.862 26.7824 265.928 25.7203L272.294 24.9976L284.974 23.5885L293.054 22.7648C299.428 22.3339 305.826 21.9891 312.225 21.6443L312.226 21.6443C315.425 21.4719 318.625 21.2994 321.822 21.1162L326.986 20.9544C334.546 20.7238 342.09 20.5819 349.67 20.4924C360.542 20.4511 371.435 20.551 382.364 20.7033L388.669 21.0699L398.234 21.662L403.761 22.0246L416.893 22.6689C422.14 22.5585 429.256 24.8646 436.363 27.1679C443.342 29.4296 450.312 31.6886 455.497 31.6542C458.678 31.5402 461.792 33.0514 464.911 34.5645C467.99 36.0584 471.072 37.5542 474.227 37.4897L490.888 37.1252L511.253 37.0669L529.092 36.7788C538.379 36.1285 547.649 35.5669 556.912 35.0497L576.082 32.9864L586.914 31.6542L587.48 32.0845C588.486 32.1338 589.49 32.2674 590.479 32.4853C592.904 31.9946 595.356 31.6441 597.821 31.4358C600.957 31.1313 604.111 31.0609 607.257 31.2251C607.479 31.2315 607.716 31.2335 607.963 31.2355C610.05 31.2527 612.836 31.2757 613.075 34.0244C613.059 37.2096 609.718 36.9059 607.175 36.6748C606.61 36.6235 606.085 36.5757 605.644 36.5706C602.614 36.2574 599.608 36.1878 596.581 36.1177C596.102 36.1066 595.623 36.0955 595.143 36.0834L598.976 40.2181C600.866 39.8926 602.768 39.6504 604.677 39.4074C605.253 39.334 605.83 39.2606 606.407 39.1848C609.808 38.7639 613.237 38.6205 616.662 38.7562C617.151 38.7834 617.624 38.9455 618.028 39.2245C618.431 39.5036 618.75 39.8887 618.948 40.3374C619.146 40.7862 619.217 41.281 619.152 41.7673C619.086 42.2535 618.888 42.7123 618.578 43.0928C618.375 43.3151 618.128 43.4934 617.854 43.6169C617.579 43.7404 617.282 43.8065 616.981 43.811C614.96 43.9365 612.941 43.8663 610.929 43.7963C609.572 43.7491 608.217 43.702 606.867 43.7152L602.276 43.7519C603.583 45.1355 604.854 46.4666 606.133 47.7534L610.26 47.4949L620.918 46.8646C621.092 46.8578 621.277 46.8481 621.472 46.838C623.606 46.7266 626.823 46.5589 627.071 49.5871C627.092 49.9193 627.045 50.2522 626.935 50.5661C626.824 50.8799 626.652 51.1684 626.427 51.4142C626.203 51.66 625.932 51.8582 625.629 51.9969C625.327 52.1356 624.999 52.2121 624.667 52.2217C619.785 52.1993 614.908 51.9251 610.055 51.4L613.992 54.9579C619.83 54.3852 625.699 54.1959 631.561 54.3915L635.442 54.73C638.44 55.1372 638.331 60.0226 635.322 59.9341C632.134 59.708 628.959 59.4147 625.792 59.1222C623.202 58.883 620.617 58.6442 618.035 58.443C618.931 59.1931 619.825 59.9498 620.722 60.7084C622.136 61.9043 623.556 63.1049 624.995 64.292C628.75 64.0577 632.781 63.8274 636.238 63.7222C637.288 63.6903 638.341 63.6379 639.397 63.5854C641.819 63.4649 644.255 63.3437 646.691 63.4671C647.384 63.5108 648.034 63.8149 648.513 64.3184C648.991 64.8219 649.261 65.4876 649.269 66.1819C649.29 66.5113 649.244 66.8413 649.133 67.1523C649.022 67.4632 648.85 67.7484 648.626 67.9907C648.402 68.2329 648.131 68.4271 647.83 68.5614C647.528 68.6957 647.203 68.7674 646.873 68.7721L629.449 68.0354L633.822 71.7183C635.355 71.6311 636.886 71.5316 638.418 71.4321C642.071 71.1948 645.728 70.9572 649.422 70.8858C651.403 70.8332 653.428 70.7886 655.466 70.9296C656.158 70.9876 656.803 71.3011 657.277 71.8089C657.581 72.1671 657.782 72.6006 657.861 73.0636C657.939 73.5266 657.891 74.0021 657.723 74.4404C657.554 74.8786 657.27 75.2633 656.902 75.5542C656.533 75.8451 656.093 76.0313 655.628 76.0934C654.167 76.1016 652.669 75.982 651.177 75.8629C650.419 75.8025 649.663 75.7421 648.915 75.6987C645.328 75.5054 641.778 75.3645 638.212 75.3123L640.636 77.3575L644.623 80.6491C647.999 80.4834 651.412 80.3701 654.631 80.3133C657.078 80.0888 659.537 80.0454 661.99 80.1835C662.575 80.3081 663.101 80.6263 663.483 81.0867C663.865 81.5471 664.081 82.1227 664.096 82.7209C663.864 86.0686 660.547 85.4515 657.925 84.9639C657.356 84.858 656.819 84.7582 656.354 84.7064C653.748 84.4162 651.178 84.1784 648.601 83.985L655.693 89.8582C657.911 89.7038 659.961 89.5191 662.233 89.3145C662.577 89.2835 662.926 89.252 663.282 89.2201L663.48 89.2023C666.141 88.9639 669.252 88.685 671.354 88.4408C673.508 88.1905 677.147 87.8432 677.075 91.2682C677.015 94.1175 674.508 94.016 672.369 93.9293C671.937 93.9118 671.52 93.8949 671.141 93.9031L661.329 93.908L660.353 93.7306L660.354 93.7311C662.125 95.3364 663.896 96.9417 665.614 98.5833L666.712 99.6079C671.605 99.1677 676.252 98.8203 680.868 98.6505C681.365 98.7149 681.836 98.9142 682.229 99.2269C682.621 99.5397 682.921 99.9538 683.095 100.425C683.269 100.895 683.311 101.405 683.217 101.898C683.122 102.391 682.894 102.848 682.558 103.221C682.307 103.468 682.007 103.659 681.676 103.781C681.346 103.902 680.993 103.952 680.642 103.927L675.652 103.891C674.188 103.91 672.739 103.849 671.269 103.787C670.847 103.769 670.423 103.751 669.996 103.735C670.536 104.706 670.674 105.85 670.379 106.922C671.164 106.896 671.947 106.87 672.73 106.843C676.225 106.723 679.706 106.603 683.22 106.642Z" fill="white"/>
<path fill-rule="evenodd" clip-rule="evenodd" d="M605.574 112.21C599.261 97.7572 593.094 83.0091 586.996 68.0691C584.846 63.3683 582.614 58.6757 580.372 53.9632L580.371 53.9621L580.371 53.961C577.165 47.223 573.94 40.4444 570.91 33.543L573.869 33.2245C575.833 37.0775 577.819 40.8997 579.8 44.7128L579.801 44.714L579.802 44.7159L579.803 44.7185L579.805 44.722L579.808 44.7274L579.81 44.7311L579.811 44.7327L579.811 44.7333C583.465 51.7663 587.104 58.7682 590.558 65.8742C592.79 70.6684 594.796 75.5112 596.796 80.3411L596.797 80.3427C598.578 84.6442 600.355 88.9353 602.284 93.1727C605.105 99.488 607.741 105.914 610.192 112.451L605.574 112.21ZM604.619 112.16C600.957 104.561 597.023 96.6215 592.745 89.421L592.696 89.6872C590.93 86.4997 589.22 83.2298 587.505 79.9492C585.599 76.3045 583.686 72.6465 581.681 69.0734C579.61 65.4413 577.45 61.8973 575.279 58.3364C572.896 54.4263 570.501 50.4959 568.197 46.4063C565.878 42.3346 563.307 38.4127 560.499 34.6635L557.588 34.9767C557.898 35.4464 558.205 35.9188 558.51 36.3942C561.412 40.9577 563.955 45.7933 566.5 50.6319C568.552 54.5316 570.604 58.4332 572.846 62.1958C573.005 62.4734 573.166 62.759 573.329 63.0482L573.33 63.0492C573.738 63.7721 574.159 64.5174 574.589 65.2173C577.786 70.68 580.713 76.3478 583.626 81.9895L583.626 81.991C586.895 88.3224 590.147 94.6208 593.746 100.559C595.603 104.385 597.56 108.161 599.615 111.883L604.603 112.159L604.619 112.16ZM539.487 108.418C538.649 106.479 537.845 104.51 537.093 102.506C529.311 80.2524 520.122 58.5637 510.265 37.0696L507.51 37.0775C508.864 40.8669 510.385 44.5736 511.895 48.2519L511.895 48.2524L511.896 48.2546L511.896 48.2557C512.85 50.5793 513.799 52.8917 514.698 55.2063C517.025 61.1095 519.38 66.9616 521.731 72.8047L521.733 72.8081C523.059 76.104 524.384 79.3969 525.702 82.6946C528.605 91.3344 531.903 99.8344 535.585 108.168L539.487 108.418ZM530.244 107.701C528.405 103.764 526.731 99.7515 525.228 95.6733C523.494 91.0523 521.55 86.5134 519.615 81.9928C518.17 78.6206 516.731 75.2586 515.386 71.8804C510.86 59.9216 505.498 48.3 499.344 37.1009L496.849 37.108C499.726 43.262 502.59 49.4195 505.315 55.6556C507.407 60.3777 509.261 65.293 511.103 70.176C512.295 73.3358 513.482 76.4821 514.725 79.5535C516.741 84.1209 518.566 88.8556 520.386 93.5802L520.386 93.5809C522.175 98.2231 523.959 102.856 525.919 107.31L530.244 107.701ZM491.956 105.04C491.886 104.873 491.818 104.705 491.75 104.536C486.133 89.5337 479.959 74.5673 473.18 59.9035C471.561 56.4587 469.899 53.0325 468.233 49.5996L468.232 49.5983L468.232 49.5971L468.231 49.5959L468.231 49.5952L468.231 49.5949C465.51 43.988 462.781 38.3629 460.216 32.6091C460.202 32.564 460.185 32.5201 460.166 32.4776C459.662 32.3014 459.157 32.1466 458.651 32.0199C458.588 32.0938 458.532 32.1848 458.485 32.2946C458.071 33.4308 458.526 34.6727 458.969 35.8797L458.969 35.8807C459.113 36.272 459.255 36.6596 459.365 37.0388C460.888 41.1051 462.498 45.1109 464.195 49.0562C466.347 54.0312 468.534 59.0125 470.72 63.9938C475.093 73.9574 479.466 83.9209 483.564 93.8343C484.221 95.4821 484.863 97.1405 485.504 98.7976L485.504 98.7983L485.505 98.7986C486.288 100.822 487.07 102.843 487.879 104.842C489.238 104.903 490.597 104.969 491.956 105.04ZM480.594 104.669C480.511 104.476 480.428 104.282 480.345 104.089L480.344 104.086L480.343 104.085C478.942 100.828 477.541 97.5708 476.155 94.2297C474.267 89.6203 472.282 85.0784 470.293 80.5293L470.292 80.5272L470.291 80.5252L470.291 80.5242C467.665 74.5165 465.033 68.4963 462.613 62.2919C458.165 51.4328 453.133 40.8224 447.538 30.5071C446.829 30.334 446.107 30.1455 445.376 29.9449C445.373 30.2922 445.459 30.6472 445.667 30.9274C446.499 33.2254 447.513 35.4114 448.526 37.5955C449.222 39.096 449.917 40.5956 450.553 42.13C455.314 52.2554 459.297 62.3769 463.328 72.7364C466.075 79.0733 468.784 85.4035 471.483 91.7069L471.486 91.7143L471.49 91.723C473.337 96.0383 475.179 100.341 477.023 104.625C478.214 104.636 479.402 104.651 480.594 104.669ZM423.381 98.92C423.303 98.7295 423.225 98.5389 423.148 98.348C414.15 75.7168 403.837 53.7635 392.801 31.9999C392.786 31.9191 392.754 31.8424 392.708 31.7747C392.661 31.707 392.601 31.6498 392.531 31.6068C392.461 31.5639 392.383 31.536 392.302 31.5252C392.22 31.5144 392.137 31.5209 392.059 31.5441C391.266 32.0927 391.81 33.4652 392.22 34.5004C392.298 34.6986 392.372 34.8845 392.43 35.0498C396.242 43.7948 400.202 52.4029 404.144 60.9704L404.146 60.9752C407.429 68.1121 410.699 75.2209 413.86 82.3572C415.121 85.1569 416.327 87.9982 417.532 90.8355L417.532 90.836L417.532 90.8364L417.532 90.8369L417.533 90.8373L417.533 90.8378L417.533 90.8382L417.533 90.8387L417.533 90.8391L417.534 90.8396L417.534 90.8401L417.534 90.8405L417.534 90.841C418.643 93.4527 419.75 96.061 420.897 98.6301L423.381 98.92ZM413.459 98.352C413.22 97.8325 412.986 97.3087 412.757 96.7801C408.629 86.9531 404.187 77.344 399.7 67.7268C398.618 65.3086 397.565 62.8664 396.511 60.42L396.51 60.4185C394.322 55.3442 392.127 50.2519 389.652 45.3176L384.347 34.9098C384.154 34.6323 383.924 34.15 383.666 33.6107L383.666 33.6104C382.901 32.0094 381.896 29.907 380.945 31.1745C380.87 31.4062 380.846 31.6513 380.873 31.8934C380.9 32.1354 380.978 32.3689 381.103 32.5783L382.18 34.9746C383.576 38.0095 385.008 40.9852 386.436 43.9517C388.774 48.8084 391.1 53.6403 393.232 58.6665C396.288 65.9703 399.659 72.9883 403.019 79.9815C404.087 82.2043 405.154 84.4246 406.209 86.6507C407.075 88.5214 407.939 90.4074 408.803 92.2934C409.74 94.3398 410.677 96.3863 411.618 98.4131L413.459 98.352ZM359.517 102.376L359.423 102.17L354.169 89.7091C345.897 70.4801 337.827 50.9821 329.959 31.2151C330.169 30.8313 329.975 30.5813 329.748 30.2886C329.606 30.1045 329.45 29.9036 329.373 29.6418C329.176 28.9641 328.809 28.2098 328.211 28.468C327.243 28.9162 328.059 31.0775 328.705 32.7921C328.961 33.4701 329.191 34.0782 329.273 34.4829C331.766 41.5579 334.56 48.4253 337.342 55.2665C338.239 57.4711 339.135 59.673 340.019 61.8783C344.924 74.259 350.249 86.1741 355.565 98.0683C356.231 99.559 356.897 101.049 357.563 102.54L359.517 102.376ZM352.854 102.899C351.217 98.7817 349.617 94.6487 348.017 90.5157C343.36 78.8048 338.687 67.1826 333.829 55.5725C330.436 47.1343 326.491 38.9288 322.019 31.0092C321.345 29.9241 319.868 28.9681 319.312 30.5173C319.219 30.8753 319.216 31.2505 319.303 31.61C319.389 31.9695 319.563 32.3022 319.808 32.5788C320.548 34.1241 321.323 35.6966 322.107 37.2863L322.115 37.3015L322.123 37.318L322.125 37.3208L322.13 37.3326L322.133 37.3378L322.135 37.3411L322.138 37.3476L322.142 37.3555L322.147 37.3659C323.006 39.1076 323.875 40.8698 324.719 42.6397C329.769 53.9743 334.417 65.5121 339.035 76.9734L339.035 76.9742L339.036 76.9755C342.584 85.7816 346.113 94.5425 349.793 103.132L352.854 102.899ZM294.778 99.3198C293.594 95.4717 292.41 91.6043 291.223 87.7243L291.223 87.7235C286.654 72.7928 282.028 57.6746 277.082 42.7473C277.159 42.5801 277.207 42.3911 277.219 42.1873C277.256 41.5162 276.996 40.9478 276.729 40.3631L276.729 40.363C276.562 39.9986 276.393 39.628 276.29 39.2222C274.836 34.5235 273.386 29.7916 271.931 25.0387L269.396 25.3264C270.818 29.785 272.262 34.2086 273.743 38.5758C274.489 41.4404 275.303 44.2354 276.12 47.0378C276.848 49.5341 277.577 52.0363 278.261 54.5989C280.009 60.1259 281.726 65.6862 283.44 71.2397L283.441 71.2414C286.316 80.5555 289.185 89.8505 292.19 98.9375L294.778 99.3198ZM285.775 97.99C285.471 96.9106 285.183 95.8229 284.912 94.7269C280.006 75.0949 274.336 55.3241 267.849 36.1767C267.905 35.8661 267.872 35.5445 267.752 35.25C267.072 33.1092 266.458 30.9349 265.912 28.7269C265.667 27.7472 265.42 26.7672 265.172 25.787C264.356 25.8593 263.541 25.9323 262.726 26.0059C262.975 26.8855 263.224 27.7649 263.473 28.6441L263.474 28.6474L263.482 28.6768L263.504 28.7542C264.225 31.2993 264.946 33.8427 265.667 36.3838C265.764 36.6917 265.916 36.9459 266.098 37.1231C267.12 41.515 268.388 45.7994 269.652 50.0679C270.166 51.8063 270.68 53.5421 271.176 55.2815C275.036 68.3922 278.761 81.5423 282.474 94.6472L282.482 94.6766C282.761 95.6604 283.039 96.6439 283.318 97.6271L285.775 97.99ZM230.915 100.847C230.111 97.6813 229.337 94.4994 228.591 91.3225C227.747 87.9004 226.932 84.4741 226.117 81.0506C224.385 73.7672 222.655 66.4962 220.657 59.3036L220.508 58.776C218.799 52.7109 217.05 46.5036 215.983 40.1173C216.25 40.1657 216.298 39.8995 216.346 39.6332C216.337 39.5282 216.303 39.4269 216.248 39.3373C216.193 39.2476 216.117 39.1721 216.028 39.1168C215.737 38.193 214.805 38.0236 214.386 38.8184C214.137 42.185 214.484 45.5692 215.411 48.8151C216.459 53.9921 217.791 59.0862 219.12 64.1697C219.844 66.9375 220.567 69.7022 221.243 72.4753C223.387 82.1015 225.755 91.7309 228.139 101.393L230.915 100.847ZM224.793 102.073C224.533 100.981 224.274 99.8895 224.016 98.7986L224.016 98.7984L224.015 98.7976C223.126 95.0467 222.239 91.3027 221.295 87.5669C221.11 86.8156 220.924 86.064 220.739 85.3122L220.716 85.2196L220.699 85.1503C217.68 72.8935 214.65 60.5913 210.629 48.6336C210.255 47.6104 209.913 46.5752 209.572 45.5437L209.572 45.5434L209.572 45.543L209.571 45.5427L209.571 45.5424L209.571 45.5421L209.571 45.5417L209.571 45.5414L209.571 45.5411L209.571 45.5408C208.963 43.7022 208.359 41.8756 207.586 40.1499C207.195 39.0244 206.082 39.0971 205.864 40.2953C206.356 43.1361 207.199 45.9588 208.037 48.7672L208.037 48.7675L208.037 48.7684L208.037 48.7693L208.038 48.7702L208.038 48.7711L208.038 48.772L208.038 48.7729L208.039 48.7738L208.039 48.7747L208.039 48.7756L208.039 48.7766L208.04 48.7775L208.04 48.7784L208.04 48.7793L208.04 48.7802L208.042 48.7851C208.459 50.1823 208.875 51.576 209.246 52.9665C211.955 62.1216 214.255 71.3885 216.55 80.6349L216.55 80.6351L216.55 80.6353L216.55 80.6355L216.55 80.6357L216.55 80.6359L216.55 80.6361L216.55 80.6363L216.55 80.6365L216.55 80.6367L216.55 80.6369L216.55 80.6371L216.55 80.6373L216.551 80.6375L216.551 80.6377L216.551 80.6379L216.551 80.6381C218.032 86.6083 219.512 92.57 221.098 98.4876L222.156 102.657L224.793 102.073ZM175.296 114.988C174.94 112.956 174.599 110.921 174.259 108.886C173.814 106.227 173.369 103.567 172.889 100.913C172.059 96.5998 171.26 92.2776 170.461 87.9554L170.461 87.9541L170.461 87.9526C169.262 81.4699 168.064 74.9872 166.762 68.5349C166.375 66.4713 165.934 64.4209 165.494 62.3732L165.494 62.3729C164.69 58.6282 163.887 54.8928 163.42 51.1034C163.343 50.2642 162.169 49.9134 162 50.8453C162.444 58.0027 163.451 65.114 165.011 72.1134C166.56 81.4273 168.284 90.7298 170.005 100.018L170.006 100.019C170.792 104.26 171.577 108.498 172.345 112.733L172.877 115.461L175.296 114.988ZM169.238 116.042C167.506 102.703 165.497 89.4033 162.957 76.0956C162.222 72.3042 161.438 68.5268 160.656 64.7564L160.656 64.7561L160.656 64.7559L160.656 64.7556L160.656 64.7553L160.656 64.755L160.656 64.7547L160.655 64.7544L160.655 64.7541C160.33 63.1856 160.005 61.6184 159.684 60.0518C159.197 57.2159 158.495 54.4215 157.581 51.6931C157.505 51.5706 157.392 51.4755 157.258 51.4219C157.124 51.3682 156.977 51.3587 156.837 51.3948C156.697 51.4308 156.573 51.5105 156.482 51.6222C156.391 51.734 156.338 51.872 156.331 52.016C157.384 60.1459 158.851 68.2841 160.32 76.4279C161.565 83.3331 162.811 90.2424 163.806 97.1542C164.159 99.3446 164.499 101.532 164.838 103.72L164.838 103.724C165.347 107.007 165.857 110.29 166.414 113.581L166.506 114.145L166.585 114.625L166.585 114.626C166.681 115.209 166.777 115.794 166.874 116.38L169.238 116.042ZM135.662 120.618C135.394 118.653 135.218 116.687 135.041 114.716C135 114.263 134.959 113.81 134.917 113.357C133.62 99.9795 132.246 86.6035 130.795 73.2289C130.705 72.9205 130.521 71.4035 130.279 69.3981L130.278 69.3958L130.278 69.3956L130.278 69.3955C129.607 63.8448 128.483 54.5566 127.639 56.7937C127.673 56.998 127.649 57.2551 127.625 57.5174C127.586 57.9235 127.547 58.3421 127.723 58.597C127.866 60.2361 128.007 61.8759 128.148 63.5162C129.066 74.1815 129.987 84.8724 131.18 95.5784C131.264 96.1483 131.347 96.718 131.431 97.2875L131.431 97.2879C132.517 104.673 133.6 112.032 134.042 119.433C134.083 119.714 134.087 120.066 134.092 120.44C134.094 120.58 134.096 120.723 134.1 120.867L135.662 120.618ZM129.459 121.665C129.315 119.586 129.176 117.513 129.037 115.437L129.037 115.436L129.037 115.433L129.037 115.432L129.037 115.431L129.037 115.43L129.037 115.428L129.037 115.427L129.037 115.426L129.037 115.425L129.036 115.424C128.617 109.152 128.195 102.855 127.613 96.3054C127.482 94.8385 127.353 93.3718 127.223 91.9052L127.223 91.9046L127.223 91.9042C126.41 82.7027 125.597 73.5059 124.58 64.3062C124.462 63.879 124.442 63.2393 124.421 62.5497C124.372 60.9796 124.316 59.1517 123.071 58.9892C121.801 58.8234 122.3 63.8865 122.663 67.5767C122.812 69.0918 122.939 70.3755 122.911 70.9708C123.472 79.7236 124.281 88.5587 125.086 97.363L125.086 97.3634L125.086 97.3645L125.088 97.3802C125.174 98.3214 125.26 99.2622 125.346 100.203C125.956 107.471 126.577 114.756 127.209 122.057L129.459 121.665ZM79.1446 128.056L79.4985 124.694C79.7116 122.095 79.9392 119.499 80.167 116.902C81.0674 106.632 81.9698 96.3383 81.9881 85.7676C82.0012 85.0124 82.0156 84.2592 82.0299 83.5071L82.03 83.5058L82.03 83.5045L82.03 83.5032C82.1021 79.7254 82.1737 75.9785 82.073 72.1735L80.211 72.5551C80.1275 74.5642 80.0463 76.5742 79.9652 78.5842L79.9651 78.5845C79.4376 91.6508 78.9098 104.721 77.7188 117.586C77.6599 118.424 77.6024 119.262 77.5448 120.1L77.5448 120.1L77.5448 120.101L77.5448 120.101L77.5447 120.101L77.5447 120.101L77.5447 120.101L77.5447 120.101L77.5447 120.101L77.5447 120.101L77.5447 120.102L77.5446 120.102L77.5446 120.102L77.5446 120.102L77.5446 120.102L77.5446 120.102L77.5446 120.102L77.5446 120.103L77.5446 120.103L77.5445 120.103L77.5445 120.103L77.5445 120.103C77.3567 122.838 77.169 125.571 76.9375 128.286L79.1446 128.056ZM74.0641 128.586C74.0856 128.317 74.0975 128.036 74.1091 127.761C74.1321 127.214 74.1544 126.687 74.25 126.31L74.364 125.228L74.3641 125.228C74.8968 120.174 75.4405 115.016 75.8542 109.915C76.0306 107.451 76.219 104.993 76.4073 102.535L76.4073 102.535C77.0147 94.6076 77.6216 86.6878 77.8241 78.6411C77.988 76.773 78.0163 74.8967 77.9092 73.0268L75.7094 73.4776C75.6969 73.6405 75.6816 73.7815 75.6613 73.893C74.9758 80.3864 74.5985 87.0935 74.2299 93.6459L74.2298 93.6467C74.1542 94.9916 74.0789 96.3301 74.0014 97.6588C73.8339 100.53 73.6904 103.406 73.5471 106.279L73.5471 106.279C73.3009 111.214 73.055 116.142 72.6883 121.029C72.6319 121.782 72.5912 122.534 72.5507 123.283L72.5507 123.283C72.4525 125.099 72.3552 126.899 72.0355 128.658C72.0318 128.705 72.0301 128.752 72.0305 128.798L74.0641 128.586ZM30.2202 137.751C30.3242 137.004 30.4255 136.294 30.6209 135.846C32.1371 128.007 34.1535 120.443 36.2063 112.931C37.3594 108.315 38.6524 103.791 39.946 99.2653C41.7004 93.1273 43.4558 86.9857 44.8649 80.6048L44.8199 80.6179L42.9642 81.2434C42.8648 81.0677 42.5311 80.9398 42.2641 80.8625C35.8588 99.2972 30.9622 118.224 27.6237 137.455L27.4785 138.254C27.459 138.322 27.4425 138.39 27.4291 138.458C28.3597 138.221 29.2901 137.985 30.2202 137.751Z" fill="#FBB921"/>
<path fill-rule="evenodd" clip-rule="evenodd" d="M608.404 112.358L613.264 112.611C612.015 109.754 610.806 106.864 609.627 103.952C609.056 102.34 608.485 100.727 607.914 99.1126L607.891 99.0476L607.874 98.9996L607.873 98.9961C602.643 84.2138 597.391 69.3684 591.42 54.8004C589.755 50.6267 587.753 46.6559 585.746 42.6751C584.045 39.3012 582.34 35.9202 580.833 32.4023L577.258 32.8421C579.21 38.6107 582.31 45.6253 584.634 50.8846C586.197 54.4222 587.409 57.1657 587.685 58.2016C593.377 72.9583 598.872 87.7096 604.169 102.456C605.419 105.908 606.863 109.171 608.404 112.358ZM511.783 37.0583L515.414 36.9996C515.461 37.1023 515.508 37.2051 515.554 37.3078C515.981 38.2416 516.407 39.1762 516.847 40.1017C526.02 59.7935 533.93 80.0492 540.529 100.746C541.52 103.434 542.607 106.085 543.789 108.693L538.994 108.386C537.134 104.133 535.526 99.7731 534.179 95.3286C531.661 87.6664 528.759 80.1825 525.845 72.6668L525.844 72.6653L525.844 72.6639L525.842 72.658L525.84 72.653C524.417 68.983 522.991 65.3054 521.605 61.5956C520.2 57.8702 518.668 54.194 517.131 50.5071L517.131 50.5063L517.13 50.5052C515.283 46.0728 513.429 41.6251 511.783 37.0583ZM470.715 36.9887C472.736 40.6547 474.602 44.4051 476.308 48.2301C482.711 63.0259 488.317 78.1539 493.103 93.549C493.679 95.1072 494.243 96.6722 494.806 98.235L494.807 98.2364L494.807 98.2377L494.808 98.239C495.666 100.622 496.523 103 497.42 105.341C496.059 105.262 494.699 105.185 493.339 105.113C488.573 94.005 484.393 82.6518 480.816 71.0997C477.08 60.3812 472.661 50.1346 468.178 39.7388C467.547 38.3019 466.995 36.8325 466.523 35.337C467.915 35.9907 469.31 36.5892 470.715 36.9887ZM279.411 24.2069C280.13 26.8355 280.85 29.4603 281.577 32.0774C281.886 33.2682 282.215 34.4507 282.554 35.621C282.578 35.6336 282.602 35.6473 282.626 35.6619C282.805 35.7719 282.948 35.9316 283.038 36.1215C285.334 43.4152 287.763 50.7331 290.136 57.8573C293.33 67.9792 296.145 78.2722 298.949 88.5184L298.95 88.5218L298.953 88.5329C299.825 91.7211 300.696 94.9048 301.577 98.0774C301.75 98.7442 301.93 99.4083 302.113 100.069C300.936 99.9786 299.758 99.891 298.579 99.8065C296.576 93.2984 294.695 86.7054 292.812 80.1025L292.812 80.1021L292.812 80.1016C290.856 73.2464 288.898 66.3805 286.796 59.5883C286.31 57.9891 285.81 56.396 285.31 54.8037L285.309 54.8024L285.309 54.8017C284.208 51.2938 283.107 47.7893 282.162 44.2302C281.973 44.0473 281.813 43.8057 281.699 43.5144C279.606 37.3038 277.688 30.9777 275.83 24.6049L279.411 24.2069ZM236.326 99.7827C233.934 89.785 231.432 79.8124 228.821 69.8648C227.844 66.2113 226.84 62.5692 225.835 58.9261C224.456 53.9208 223.076 48.9138 221.763 43.8729C221.555 43.3929 221.382 42.6605 221.196 41.878C220.748 39.9843 220.23 37.7978 218.991 38.189C217.682 38.6024 218.525 42.1236 219.136 44.6784C219.343 45.5403 219.523 46.2923 219.585 46.7778C220.63 51.8729 221.986 57.0245 223.358 62.0873C224.375 65.9503 225.388 69.8321 226.402 73.7138L226.403 73.7185L226.404 73.7223L226.404 73.7229L226.404 73.7234L226.404 73.7239L226.404 73.7244L226.405 73.7249L226.405 73.7254L226.405 73.7259C228.093 80.1933 229.782 86.6605 231.486 93.0412C232.047 94.9234 232.549 96.8095 233.051 98.6936L233.051 98.695C233.197 99.2438 233.343 99.7923 233.491 100.341L236.326 99.7827ZM180.412 113.739C179.478 107.739 178.5 101.756 177.479 95.7891C175.26 82.0569 172.575 68.6808 169.897 55.3346L169.894 55.3186L169.89 55.3028L169.699 54.3483L169.338 52.547C169.387 52.1526 169.234 51.7871 169.081 51.4232C168.922 51.0427 168.763 50.6639 168.837 50.2556C168.228 48.3112 166.312 49.0173 166.388 50.865C166.895 57.1399 168.081 63.4645 169.261 69.7501L169.261 69.7507L169.261 69.7514L169.261 69.752L169.261 69.7527L169.262 69.7533L169.262 69.754L169.262 69.7546L169.262 69.7553L169.262 69.7559C169.691 72.0436 170.12 74.326 170.514 76.599C171.667 82.6102 172.829 88.6154 173.991 94.6159L173.999 94.6605L174.004 94.6878L174.005 94.6888L174.005 94.6899L174.007 94.7036C175.278 101.271 176.548 107.833 177.805 114.392L180.412 113.739ZM139.778 119.964C139.613 116.941 139.418 113.911 139.146 111.009C138.69 106.173 138.276 101.337 137.863 96.4998L137.863 96.4991L137.863 96.4985L137.863 96.4981C136.856 84.7276 135.849 72.9511 134.224 61.1545C134.648 61.094 134.611 60.5373 134.345 60.4889C134.292 59.0124 133.538 57.3624 132.497 58.0443C131.632 58.6112 131.659 60.1956 131.684 61.6341C131.689 61.926 131.693 62.2119 131.691 62.482C131.747 65.1971 131.937 67.9363 132.216 70.6916L133.379 85.4809C134.094 95.4212 135.128 105.374 136.391 115.322C136.582 117.024 136.749 118.723 136.911 120.42L139.778 119.964ZM85.3857 127.603C85.3986 127.509 85.4134 127.419 85.4305 127.333C85.5372 125.094 85.6648 122.862 85.7924 120.63L85.7924 120.63L85.7924 120.63C86.1127 115.027 86.4328 109.428 86.4208 103.721C86.4059 100.831 86.3728 97.8332 86.3394 94.8174L86.3394 94.8157L86.3394 94.8153C86.2992 91.1774 86.2587 87.5131 86.2496 83.9777C86.2161 83.0285 86.2552 81.6516 86.3001 80.0712C86.3767 77.3746 86.4702 74.0856 86.2485 71.3184L82.9071 72.0031C82.4334 82.9089 82.2981 93.9137 82.4351 104.968C82.3976 107.375 82.3636 109.787 82.3297 112.2L82.3296 112.202L82.3296 112.204L82.3296 112.206L82.3296 112.207L82.3295 112.209L82.3295 112.211L82.3295 112.213L82.3294 112.215L82.3294 112.216L82.3294 112.218L82.3294 112.22L82.3294 112.221L82.3293 112.222L82.3293 112.222L82.3293 112.223L82.3293 112.224L82.3293 112.225L82.3293 112.226L82.3292 112.226L82.3292 112.227L82.3292 112.228L82.3292 112.229C82.256 117.432 82.1826 122.644 82.0736 127.829L85.3857 127.603ZM38.6206 135.662C38.6333 135.506 38.6463 135.352 38.6602 135.199C38.8137 133.512 39.158 131.901 39.4995 130.302C39.6692 129.508 39.8382 128.717 39.9828 127.921C43.1251 117.538 45.4522 106.925 46.943 96.1794C47.8094 90.6327 48.4338 85.0513 48.8144 79.4511L48.5984 79.5163L45.6749 80.3693C44.7355 84.4009 43.8834 88.3288 43.2433 93.0775C42.4531 98.9392 41.5621 104.599 40.1224 110.251C38 117.478 36.3273 124.829 35.1139 132.263C35.0746 132.72 34.9926 133.246 34.9053 133.807C34.7638 134.715 34.6083 135.714 34.5973 136.655C35.9389 136.321 37.28 135.99 38.6206 135.662ZM360.945 102.256C358.416 95.6742 356.276 88.8104 354.132 81.9301L354.131 81.9293L354.131 81.9268C352.804 77.6712 351.475 73.4093 350.052 69.2041C347.47 61.1504 344.27 53.5246 341.043 45.8332L341.043 45.8329C339.296 41.6699 337.541 37.4878 335.872 33.2081C335.158 31.3363 336.574 29.3472 337.687 31.2916C348.155 50.7415 356.256 71.3748 361.817 92.7508C362.742 95.8832 363.834 98.9193 364.99 101.915L360.945 102.256ZM400.985 99.1039C400.581 98.246 400.176 97.3879 399.771 96.5295L399.771 96.5291C396.294 89.1586 392.804 81.7606 389.538 74.1361C386.33 67.1481 382.886 60.2693 379.431 53.3673C376.308 47.1288 373.176 40.8713 370.199 34.4975C368.924 32.4321 370.392 30.4069 371.853 32.4601C382.075 49.7098 391.068 67.6587 398.766 86.1734C399.726 88.2476 400.679 90.3239 401.631 92.3968L401.632 92.3986L401.632 92.3989C402.622 94.555 403.61 96.7075 404.603 98.8502C403.396 98.9331 402.19 99.0177 400.985 99.1039Z" fill="#87B8DD"/>
<path fill-rule="evenodd" clip-rule="evenodd" d="M615.932 112.755C614.162 108.537 612.261 104.408 610.359 100.276L610.358 100.274C607.496 94.0558 604.63 87.8303 602.199 81.2842C597.63 69.9773 593.382 58.3769 589.103 46.6926L589.102 46.6893C587.319 41.8186 585.53 36.9334 583.71 32.0487L586.71 31.6798C586.889 32.0756 587.04 32.3969 587.159 32.6167C590.641 39.9426 593.615 47.5428 596.476 55.26C599.003 61.2766 601.464 67.3392 603.917 73.3825L603.92 73.3914C606.343 79.3591 608.757 85.308 611.22 91.1753C611.868 92.7238 612.521 94.2673 613.173 95.8095L613.174 95.8112C615.575 101.487 617.969 107.147 620.057 112.987L615.932 112.755ZM552.027 109.04C548.42 97.469 544.237 86.0851 539.493 74.931C537.557 70.5763 535.762 66.096 533.963 61.6078C531.559 55.61 529.149 49.5979 526.391 43.8525C525.408 41.4445 524.256 39.1142 522.945 36.8783L518.837 36.9446C524.488 48.6406 529.568 60.6056 534.059 72.7974C537.743 81.5351 541.234 90.3294 544.68 99.1156C545.507 101.304 546.277 103.522 547.046 105.738L547.046 105.738L547.046 105.739C547.418 106.81 547.789 107.88 548.167 108.946L552.027 109.04ZM503.829 105.725C500.402 94.9752 496.346 84.4358 492.277 73.8618L492.276 73.8587L492.271 73.8458L492.269 73.8394C491.288 71.2901 490.306 68.7388 489.332 66.182C485.903 56.3198 481.791 46.7122 477.027 37.4287L474.23 37.4899C473.98 37.495 473.731 37.4903 473.482 37.4767C473.681 37.9048 473.887 38.3295 474.1 38.7507C476.537 44.007 478.825 49.328 481.016 54.6771C484.907 64.5867 488.853 74.3573 492.786 84.0968L492.786 84.0976C493.732 86.4387 494.676 88.778 495.619 91.117C497.313 95.1162 498.777 99.2665 500.237 103.408L500.238 103.408C500.49 104.124 500.742 104.839 500.995 105.553C501.939 105.609 502.884 105.667 503.829 105.725ZM400.272 99.1554C399.998 98.4669 399.724 97.78 399.448 97.0973C393.182 81.3805 386.258 66.0027 379.112 50.5845C378.051 48.4207 377.061 46.1787 376.069 43.9315L376.069 43.9308C374.246 39.8018 372.416 35.6551 370.122 31.9432C369.052 30.5111 367.165 31.8184 367.552 33.7225C367.712 34.6053 367.97 35.4673 368.323 36.2923C371.571 44.712 375.429 52.8594 379.248 60.9236L379.249 60.9263C380.192 62.9185 381.133 64.9056 382.062 66.8906C386.371 75.9712 390.532 85.1165 394.603 94.2455C395.275 95.9844 395.983 97.7084 396.728 99.4161C397.908 99.3277 399.089 99.2407 400.272 99.1554ZM372.77 101.403C372.698 101.201 372.626 100.999 372.554 100.797C369.092 90.5871 365.363 80.8327 361.312 70.8362C359.744 66.9677 358.23 63.0678 356.715 59.1635L356.714 59.1625L356.714 59.1615L356.714 59.1605L356.713 59.1595L356.713 59.1585L356.712 59.1579L356.712 59.1573L356.712 59.1568L356.712 59.1562L356.711 59.1556C354.312 52.9737 351.908 46.7811 349.279 40.6855C349.013 40.0383 348.754 39.3979 348.497 38.7636L348.493 38.7547C347.709 36.8183 346.947 34.9378 346.076 33.0894C345.539 31.7541 344.494 29.6847 343.312 30.891C342.497 32.0047 343.036 33.6197 343.516 35.0554C343.646 35.4453 343.772 35.822 343.865 36.1718C345.389 40.9943 347.148 45.6683 348.903 50.3325L348.904 50.3336L348.904 50.3343C349.998 53.2426 351.092 56.1471 352.125 59.0814C357.665 73.6115 363.413 87.6463 369.148 101.622L372.77 101.403ZM312.896 100.904C312.742 100.39 312.586 99.8771 312.429 99.3651C310.463 93.3936 308.504 87.3828 306.545 81.3719L306.542 81.3602L306.537 81.3475L306.535 81.3407C305.554 78.3309 304.574 75.3212 303.592 72.3165C301.882 67.2482 300.092 62.2034 298.299 57.1496L298.299 57.1487L298.299 57.1477L298.298 57.1467L298.298 57.1458L298.298 57.1448L298.297 57.1438L298.297 57.1429L298.297 57.1426L298.297 57.142L298.296 57.1414L298.296 57.1409L298.296 57.1403L298.296 57.1397L298.296 57.1391C296.758 52.8058 295.219 48.466 293.725 44.0991C293.96 43.8034 294.118 43.4539 294.186 43.0811C294.263 42.6575 294.219 42.2207 294.06 41.8206C293.362 39.794 292.743 37.7334 292.125 35.6773C291.893 34.9053 291.661 34.1338 291.425 33.3651C290.321 30.0097 289.218 26.6418 288.117 23.2685L284.976 23.5886L284.67 23.6226C285.862 27.1516 287.056 30.6692 288.267 34.1628C288.237 34.2511 288.212 34.3464 288.194 34.4486C288.48 38.0326 289.275 41.5575 290.555 44.9172C292.56 51.287 294.707 57.6368 296.862 63.942C299.453 71.1585 301.912 78.457 304.361 85.7272C306.048 90.7346 307.731 95.7286 309.448 100.673C310.02 100.723 310.592 100.774 311.164 100.826C311.741 100.851 312.319 100.878 312.896 100.904ZM242.659 98.5365C242.584 98.238 242.51 97.9403 242.437 97.6429C239.56 85.9802 236.392 74.4023 233.083 62.8446C231.545 56.9265 229.866 51.0287 228.135 45.1671C227.777 44.4037 227.495 43.4858 227.207 42.5519L227.207 42.5517C226.646 40.727 226.065 38.8411 224.867 37.9259C223.919 37.341 223.104 38.7975 223.233 39.6003C223.298 40.0017 223.409 40.4001 223.52 40.7984C223.631 41.1968 223.742 41.5952 223.806 41.9966C223.777 42.4245 223.893 42.8498 224.137 43.2028C228.658 62.0947 233.847 80.904 239.161 99.2249L242.659 98.5365ZM186.097 112.317C186.077 112.193 186.058 112.069 186.038 111.945C185.744 110.092 185.45 108.24 185.144 106.396C184.692 103.768 184.245 101.133 183.797 98.4946C181.02 82.1295 178.215 65.6007 174.097 49.3772C174.036 49.2117 173.986 49.0499 173.936 48.8919L173.936 48.8916C173.736 48.2522 173.555 47.675 172.802 47.1705C171.862 46.5413 171.136 47.5096 171.475 48.6714C173.159 57.9324 174.697 67.3417 176.238 76.7708L176.238 76.7713C178.233 88.9747 180.234 101.211 182.563 113.201L186.097 112.317ZM146.709 118.862C146.61 117.954 146.507 117.044 146.403 116.135L146.403 116.133C146.196 114.308 145.989 112.482 145.816 110.663C144.665 99.2722 143.343 87.8695 142.021 76.4739L142.02 76.4706C141.31 70.3473 140.6 64.226 139.917 58.1096C139.808 56.4395 137.742 55.6973 137.468 57.2061C137.248 57.9276 137.113 58.6722 137.065 59.425C137.236 70.8426 138.402 82.3733 139.567 93.8943L139.568 93.8964L139.568 93.8986L139.568 93.9007L139.568 93.9028L139.568 93.905L139.569 93.9071L139.569 93.9092L139.569 93.9114L139.569 93.9135L139.57 93.9156C139.759 95.7925 139.949 97.6692 140.135 99.5451C140.345 101.388 140.545 103.236 140.746 105.085L140.747 105.086L140.747 105.087L140.747 105.088L140.747 105.089L140.747 105.09L140.747 105.091L140.747 105.092L140.747 105.093L140.747 105.094L140.748 105.095C141.27 109.904 141.795 114.727 142.485 119.534L146.709 118.862ZM90.9129 127.227C91.3577 122.951 91.6328 118.625 91.9082 114.295L91.9082 114.295L91.9082 114.295L91.9082 114.295L91.9083 114.294L91.9083 114.294L91.9083 114.294L91.9083 114.294L91.9083 114.294L91.9083 114.294L91.9083 114.294L91.9084 114.293L91.9085 114.292C92.0044 112.784 92.1003 111.275 92.2035 109.768C93.6231 96.6734 94.1399 83.2904 94.6584 69.8622L94.7372 67.8238C94.8144 67.1356 94.8906 66.3305 94.8681 65.5417L90.7067 68.6734C90.6998 68.9575 90.6933 69.2419 90.6867 69.5264L90.6867 69.5264L90.6867 69.5266C90.6515 71.0615 90.6161 72.5993 90.5221 74.1175C90.353 81.464 89.9475 88.7236 89.542 95.9823C89.1185 103.564 88.6951 111.144 88.5412 118.821C88.4962 120.246 88.4415 121.668 88.387 123.087L88.387 123.087L88.3869 123.089L88.3868 123.091C88.3313 124.536 88.2759 125.977 88.2311 127.41L90.9129 127.227ZM44.9168 134.135C46.1042 129.839 46.9385 125.247 47.7133 120.984L47.7134 120.983C48.3925 117.588 49.1916 114.252 49.991 110.916C50.962 106.862 51.9332 102.808 52.6896 98.6456C53.1914 95.8843 53.6624 93.0972 54.1342 90.305C54.8712 85.9436 55.6102 81.5701 56.4719 77.2643L54.8557 77.6279L52.1804 78.4354C51.2308 83.2128 50.3528 88.044 49.482 92.8357L49.4819 92.8366C48.765 96.252 48.0155 99.5749 47.2722 102.87C45.536 110.568 43.8334 118.117 42.659 126.345C42.0849 129.191 41.6911 132.07 41.4797 134.964C42.6257 134.686 43.7714 134.41 44.9168 134.135Z" fill="#375226"/>
</svg>
