<svg width="703" height="325" viewBox="0 0 703 325" fill="none" xmlns="http://www.w3.org/2000/svg">
<path d="M689.077 179.928C687.466 179.743 685.846 179.648 684.224 179.642C679.924 179.594 675.672 179.784 671.383 179.922C671.678 178.85 671.54 177.706 671 176.735C672.912 176.807 674.772 176.916 676.656 176.891L681.646 176.927C681.997 176.952 682.35 176.902 682.68 176.781C683.011 176.659 683.311 176.468 683.562 176.221C683.898 175.848 684.126 175.391 684.221 174.898C684.315 174.405 684.273 173.895 684.099 173.425C683.925 172.954 683.625 172.54 683.233 172.227C682.84 171.914 682.369 171.715 681.872 171.65C677.256 171.82 672.609 172.168 667.716 172.608L666.618 171.583C664.899 169.942 663.128 168.336 661.357 166.731L662.333 166.908L672.145 166.903C674.4 166.854 678.006 167.693 678.079 164.268C678.151 160.843 674.512 161.19 672.358 161.441C670.204 161.691 666.988 161.978 664.286 162.22C661.583 162.462 659.251 162.68 656.697 162.858L649.605 156.985C652.182 157.178 654.752 157.416 657.358 157.706C659.964 157.997 664.818 159.795 665.1 155.721C665.085 155.123 664.869 154.547 664.487 154.087C664.105 153.626 663.579 153.308 662.994 153.184C660.541 153.045 658.082 153.089 655.635 153.313C652.416 153.37 649.003 153.483 645.626 153.649L641.64 150.358L639.216 148.312C642.782 148.364 646.332 148.505 649.918 148.699C652.141 148.828 654.429 149.106 656.631 149.093C657.097 149.031 657.537 148.845 657.906 148.554C658.274 148.263 658.558 147.879 658.727 147.44C658.895 147.002 658.943 146.527 658.865 146.064C658.786 145.601 658.585 145.167 658.281 144.809C657.807 144.301 657.162 143.988 656.47 143.93C654.432 143.789 652.407 143.833 650.426 143.886C645.182 143.987 640.014 144.423 634.826 144.718L630.453 141.035L647.877 141.772C648.206 141.767 648.532 141.696 648.833 141.561C649.135 141.427 649.406 141.233 649.63 140.991C649.854 140.748 650.026 140.463 650.137 140.152C650.247 139.841 650.294 139.511 650.273 139.182C650.265 138.488 649.995 137.822 649.517 137.318C649.038 136.815 648.388 136.511 647.694 136.467C644.197 136.29 640.699 136.617 637.242 136.722C633.784 136.827 629.754 137.058 625.999 137.292C623.646 135.352 621.347 133.375 619.039 131.443C624.78 131.89 630.533 132.523 636.326 132.934C639.335 133.023 639.444 128.137 636.446 127.73L632.565 127.391C626.703 127.196 620.834 127.385 614.996 127.958L611.059 124.4C615.912 124.925 620.789 125.199 625.671 125.222C626.003 125.212 626.331 125.136 626.633 124.997C626.936 124.858 627.207 124.66 627.431 124.414C627.656 124.168 627.828 123.88 627.939 123.566C628.049 123.252 628.096 122.919 628.075 122.587C627.804 119.283 624 119.784 621.922 119.865L611.264 120.495L607.137 120.753C605.858 119.467 604.587 118.136 603.28 116.752L607.871 116.715C611.223 116.683 614.6 117.021 617.985 116.811C618.286 116.806 618.583 116.74 618.858 116.617C619.132 116.493 619.379 116.315 619.582 116.093C619.892 115.712 620.09 115.254 620.156 114.767C620.221 114.281 620.15 113.786 619.952 113.337C619.754 112.889 619.435 112.504 619.032 112.225C618.628 111.945 618.155 111.783 617.666 111.756C614.241 111.621 610.812 111.764 607.411 112.185C604.922 112.512 602.44 112.794 599.98 113.218L596.147 109.083C599.661 109.172 603.138 109.208 606.648 109.571C609.072 109.599 614.059 110.917 614.079 107.024C613.812 103.95 610.359 104.285 608.261 104.225C605.115 104.061 601.961 104.131 598.825 104.436C596.359 104.644 593.908 104.995 591.483 105.485C589.075 104.955 586.585 104.924 584.165 105.393C560.152 108.835 535.924 110.561 511.666 110.556C483.519 110.3 455.683 111.613 427.997 112.358C412.808 112.44 397.369 110.872 382.184 110.176C368.237 109.475 354.441 109.718 340.587 110.272C326.734 110.826 312.711 110.799 299.035 111.89C274.963 113.933 251.423 117.586 227.351 119.126C210.991 119.724 194.697 121.528 178.602 124.524C159.779 129.217 141.061 133.838 122.189 137.789C104.531 141.365 85.9783 144.32 68.2684 147.932C62.4403 148.852 56.6842 150.18 51.0426 151.907C48.7311 152.771 46.2097 153.275 43.8538 154.131C43.595 153.96 43.3043 153.844 42.9992 153.788C42.6942 153.733 42.3811 153.74 42.0787 153.808C39.2144 153.93 36.3663 153.962 33.5666 154.233C30.9723 154.431 28.428 155.052 26.0349 156.073C25.8053 156.036 25.57 156.077 25.3666 156.19C25.1633 156.302 25.0036 156.48 24.9134 156.694C24.8169 156.877 24.7636 157.079 24.7574 157.286C24.7511 157.492 24.7923 157.697 24.8776 157.885C24.9629 158.073 25.0901 158.239 25.2494 158.371C25.4088 158.502 25.5961 158.595 25.797 158.643C27.3499 158.773 28.9135 158.671 30.4364 158.34C33.1982 158.076 35.9728 157.968 38.7469 158.016C37.9078 159.102 37.1576 160.203 36.4517 161.313C33.9828 161.781 31.6833 162.326 29.0611 162.628C27.8993 162.967 19.0563 163.698 20.2224 165.606C21.3885 167.514 28.2143 167.288 33.3619 166.711C32.9505 167.461 32.5391 168.211 32.1721 168.97C30.8497 169.489 29.4987 169.932 28.1258 170.298C23.7608 171.106 19.5969 172.763 15.8703 175.176C15.7774 175.279 15.706 175.399 15.6605 175.531C15.6149 175.662 15.5961 175.8 15.6051 175.939C15.6142 176.077 15.6509 176.212 15.7131 176.336C15.7753 176.46 15.8617 176.571 15.9673 176.661C17.8984 176.773 19.8353 176.584 21.7079 176.099C24.197 175.772 26.4118 175.441 29.1994 174.985C28.1022 176.482 27.0414 178.031 26.0249 179.589L25.4923 179.492C22.7128 180.408 13.5431 181.171 13.144 184.628C13.5557 185.895 15.0079 184.967 15.8511 185.12C18.2111 184.999 20.4904 184.817 22.9997 184.632C22.4081 185.869 21.8636 187.099 21.3661 188.323C17.1787 189.671 13.0276 191.071 8.9976 192.814C8.85709 192.931 8.74352 193.076 8.66469 193.241C8.58586 193.406 8.54366 193.585 8.54099 193.768C8.53833 193.95 8.57525 194.131 8.64923 194.298C8.72321 194.465 8.83249 194.614 8.96953 194.735C9.78855 195.525 11.0109 195.105 11.8984 195.267C14.2988 194.924 16.6426 194.387 19.059 193.955C18.7247 194.912 18.5423 195.915 18.5187 196.928C16.5945 197.679 14.6985 198.526 12.7903 199.188C9.67797 200.231 6.68106 201.591 3.84685 203.247C3.69547 203.468 3.61559 203.73 3.618 203.998C3.62042 204.266 3.70502 204.527 3.86036 204.745C4.01569 204.963 4.23428 205.128 4.48658 205.218C4.73888 205.308 5.01273 205.319 5.2711 205.248C7.77632 204.832 10.0556 204.146 12.8432 203.69C14.3681 203.371 15.8567 203 17.3533 202.584L16.7485 205.913C13.2099 207.359 9.76727 209.031 6.44155 210.916C5.13051 211.824 1.43931 213.216 2.5691 215.576C2.6898 215.823 2.8766 216.032 3.10876 216.179C3.34092 216.327 3.60937 216.407 3.88433 216.411C4.17018 216.363 4.43187 216.221 4.62828 216.007C4.82469 215.794 4.94471 215.522 4.96944 215.233C8.51134 213.44 12.2398 212.042 16.0874 211.064C16.1475 211.667 16.339 212.25 16.6483 212.771C13.664 214.559 10.772 216.497 7.98331 218.577C7.72711 218.806 7.43017 218.985 7.10791 219.105C6.53506 219.231 6.60372 220.114 6.87404 220.392C8.06821 220.884 9.2542 219.908 10.3273 219.553C13.9805 217.759 17.7407 216.192 21.5864 214.86C21.9554 214.77 22.284 214.56 22.5205 214.262C22.7571 213.965 22.8882 213.598 22.8933 213.218C23.7555 212.73 24.6854 212.374 25.6526 212.161C29.6303 210.958 33.7612 209.921 37.8316 208.965C50.2504 205.664 62.8645 203.149 75.5993 201.433C85.4105 200.42 95.2661 200.423 104.988 198.889C124.316 195.708 143.583 191.6 163.25 189.581C177.801 188.466 191.561 183.632 205.705 179.968C227.267 174.076 249.306 168.591 272.176 169.126C281.321 169.701 290.42 170.865 299.415 172.609C304.123 173.189 308.847 173.177 313.563 173.713C320.688 175.125 327.898 176.068 335.147 176.535C341.896 176.478 348.621 176.05 355.346 175.621C363.886 174.79 372.923 174.002 381.629 174.026C393.909 173.552 406.052 170.808 418.453 171.182C427.522 171.73 436.357 173.565 445.055 174.641C451.978 175.395 458.929 175.237 465.876 176.362C473.389 177.422 480.979 177.851 488.564 177.643C488.918 177.63 489.265 177.536 489.577 177.368L495.132 177.828C508.066 178.803 521.056 179.467 534.075 180.733C547.093 181.998 560.773 181.642 574.195 182.706C587.617 183.77 601.031 184.878 614.586 185.462C621.085 185.772 627.661 186.417 634.213 186.186C640.764 185.956 647.025 184.801 653.52 184.377L662.823 183.638C663.44 183.521 664.041 183.493 664.651 183.42L668.693 183.879C675.107 184.403 682.05 184.29 688.57 185.245C691.704 185.907 692.39 180.622 689.077 179.928Z" fill="white"/>
<mask id="mask0_792_1753" style="mask-type:luminance" maskUnits="userSpaceOnUse" x="27" y="93" width="597" height="119">
<path d="M42.2417 153.655L42.9073 153.776C42.9073 153.776 43.7948 153.937 43.9683 154.243L45.824 153.618L49.6 152.516L55.8569 150.628L61.8314 149.284C66.5998 148.271 71.7151 147.367 76.6892 146.483L88.5456 144.053L98.0011 136.937L111.001 127.937L132.437 119.618L142.341 117.337C150.409 115.32 158.508 113.384 166.639 111.53C170.681 110.477 174.707 109.512 178.741 108.503C188.197 106.921 198.133 105.472 207.868 104.123L215.5 103.493L219.272 103.17L230.935 102.31C242.909 101.002 254.866 99.7824 266.932 98.7203L273.298 97.9976L285.977 96.5885L294.058 95.7648C303.619 95.1184 313.237 94.6658 322.826 94.1162L327.99 93.9544C335.55 93.7237 343.094 93.5819 350.674 93.4924C361.546 93.4511 372.439 93.551 383.367 93.7033L389.673 94.0699L399.238 94.662L404.765 95.0246L417.897 95.6689C428.297 95.4501 446.036 104.724 456.501 104.654C462.823 104.428 468.881 110.619 475.231 110.49L491.892 110.125L512.257 110.067L530.096 109.779C539.383 109.128 548.653 108.567 557.916 108.05L577.086 105.986L587.918 104.654L594.805 109.894C605.019 135.252 614.476 160.656 623.176 186.106L615.87 185.695L605.607 185.159L598.709 184.777C583.968 183.657 569.263 182.757 554.594 182.078L548.478 181.929L536.017 181.132L522.982 179.955L505.639 178.774C499.926 178.424 494.258 178.081 488.574 177.828C484.015 177.687 479.67 177.631 475.229 177.603C463.368 176.273 451.519 175.128 439.699 174.08L428.318 172.379L421.27 171.557L415.215 171.327L411.802 171.44C399.28 172.236 386.814 173.226 374.599 174.352L367.785 174.765L358.474 175.548L350.293 176.17C337.589 175.191 324.853 174.389 312.165 173.826C307.655 173.419 303.136 173.056 298.61 172.738L283.788 170.548C270.72 170.649 257.652 170.918 244.584 171.355L226.66 174.882L221.883 175.94C210.346 178.886 198.873 181.981 187.464 185.225L176.851 187.881L172.716 188.688L165.938 189.657L147.893 191.833L134.439 193.972L121.562 196.217C112.155 197.533 102.376 198.873 92.835 200.165L80.9059 200.977L70.8123 202.03C62.974 203.54 55.0832 205.086 47.0108 206.874C40.3976 208.453 33.7735 210.091 27.1387 211.789C28.789 199.681 30.4621 187.531 32.158 175.339C35.4574 168.115 38.8186 160.887 42.2417 153.655Z" fill="white"/>
</mask>
<g mask="url(#mask0_792_1753)">
<path d="M689.077 147.928C687.466 147.743 685.846 147.648 684.224 147.642C679.924 147.594 675.672 147.784 671.383 147.922C671.678 146.85 671.54 145.706 671 144.735C672.912 144.807 674.772 144.916 676.656 144.891L681.646 144.927C681.997 144.952 682.35 144.902 682.68 144.781C683.011 144.659 683.311 144.468 683.562 144.221C683.898 143.848 684.126 143.391 684.221 142.898C684.315 142.405 684.273 141.895 684.099 141.425C683.925 140.954 683.625 140.54 683.233 140.227C682.84 139.914 682.369 139.715 681.872 139.65C677.256 139.82 672.609 140.168 667.716 140.608L666.618 139.583C664.899 137.942 663.128 136.336 661.357 134.731L662.333 134.908L672.145 134.903C674.4 134.854 678.006 135.693 678.079 132.268C678.151 128.843 674.512 129.19 672.358 129.441C670.204 129.691 666.988 129.978 664.286 130.22C661.583 130.462 659.251 130.68 656.697 130.858L649.605 124.985C652.182 125.178 654.752 125.416 657.358 125.706C659.964 125.997 664.818 127.795 665.1 123.721C665.085 123.123 664.869 122.547 664.487 122.087C664.105 121.626 663.579 121.308 662.994 121.184C660.541 121.045 658.082 121.089 655.635 121.313C652.416 121.37 649.003 121.483 645.626 121.649L641.64 118.358L639.216 116.312C642.782 116.364 646.332 116.505 649.918 116.699C652.141 116.828 654.429 117.106 656.631 117.093C657.097 117.031 657.537 116.845 657.906 116.554C658.274 116.263 658.558 115.879 658.727 115.44C658.895 115.002 658.943 114.527 658.865 114.064C658.786 113.601 658.585 113.167 658.281 112.809C657.807 112.301 657.162 111.988 656.47 111.93C654.432 111.789 652.407 111.833 650.426 111.886C645.182 111.987 640.014 112.423 634.826 112.718L630.453 109.035L647.877 109.772C648.206 109.767 648.532 109.696 648.833 109.561C649.135 109.427 649.406 109.233 649.63 108.991C649.854 108.748 650.026 108.463 650.137 108.152C650.247 107.841 650.294 107.511 650.273 107.182C650.265 106.488 649.995 105.822 649.517 105.318C649.038 104.815 648.388 104.511 647.694 104.467C644.197 104.29 640.699 104.617 637.242 104.722C633.784 104.827 629.754 105.058 625.999 105.292C623.646 103.352 621.347 101.375 619.039 99.443C624.78 99.8903 630.533 100.523 636.326 100.934C639.335 101.023 639.444 96.1372 636.446 95.73L632.565 95.3915C626.703 95.1959 620.834 95.3852 614.996 95.9579L611.059 92.4C615.912 92.9251 620.789 93.1993 625.671 93.2217C626.003 93.2121 626.331 93.1356 626.633 92.9969C626.936 92.8582 627.207 92.66 627.431 92.4142C627.656 92.1684 627.828 91.8799 627.939 91.5661C628.049 91.2522 628.096 90.9193 628.075 90.5871C627.804 87.2831 624 87.7837 621.922 87.8646L611.264 88.4949L607.137 88.7534C605.858 87.4666 604.587 86.1355 603.28 84.7519L607.871 84.7151C611.223 84.6826 614.6 85.0211 617.985 84.811C618.286 84.8065 618.583 84.7404 618.858 84.6169C619.132 84.4934 619.379 84.3151 619.582 84.0928C619.892 83.7123 620.09 83.2535 620.156 82.7673C620.221 82.281 620.15 81.7862 619.952 81.3374C619.754 80.8887 619.435 80.5036 619.032 80.2245C618.628 79.9455 618.155 79.7834 617.666 79.7562C614.241 79.6205 610.812 79.7639 607.411 80.1848C604.922 80.5118 602.44 80.7943 599.98 81.2181L596.147 77.0834C599.661 77.1718 603.138 77.2078 606.648 77.5706C609.072 77.5986 614.059 78.9174 614.079 75.0244C613.812 71.9503 610.359 72.2855 608.261 72.2251C605.115 72.0609 601.961 72.1313 598.825 72.4358C596.359 72.6441 593.908 72.9946 591.483 73.4853C589.075 72.955 586.585 72.9237 584.165 73.3932C560.152 76.8354 535.924 78.5606 511.666 78.5555C483.519 78.2999 455.683 79.6134 427.997 80.3582C412.808 80.4403 397.369 78.8724 382.184 78.1758C368.237 77.4751 354.441 77.7185 340.587 78.2724C326.734 78.8263 312.711 78.7994 299.035 79.8898C274.963 81.9333 251.423 85.5864 227.351 87.1256C210.991 87.7241 194.697 89.5284 178.602 92.5238C159.779 97.2173 141.061 101.838 122.189 105.789C104.531 109.365 85.9783 112.32 68.2684 115.932C62.4403 116.852 56.6842 118.18 51.0426 119.907C48.7311 120.771 46.2097 121.275 43.8538 122.131C43.595 121.96 43.3043 121.844 42.9992 121.788C42.6942 121.733 42.3811 121.74 42.0787 121.808C39.2144 121.93 36.3663 121.962 33.5666 122.233C30.9723 122.431 28.428 123.052 26.0349 124.073C25.8053 124.036 25.57 124.077 25.3666 124.19C25.1633 124.302 25.0036 124.48 24.9134 124.694C24.8169 124.877 24.7636 125.079 24.7574 125.286C24.7511 125.492 24.7923 125.697 24.8776 125.885C24.9629 126.073 25.0901 126.239 25.2494 126.371C25.4088 126.502 25.5961 126.595 25.797 126.643C27.3499 126.773 28.9135 126.671 30.4364 126.34C33.1982 126.076 35.9728 125.968 38.7469 126.016C37.9078 127.102 37.1576 128.203 36.4517 129.313C33.9828 129.781 31.6833 130.326 29.0611 130.628C27.8993 130.967 19.0563 131.698 20.2224 133.606C21.3885 135.514 28.2143 135.288 33.3619 134.711C32.9505 135.461 32.5391 136.211 32.1721 136.97C30.8497 137.489 29.4987 137.932 28.1258 138.298C23.7608 139.106 19.5969 140.763 15.8703 143.176C15.7774 143.279 15.706 143.399 15.6605 143.531C15.6149 143.662 15.5961 143.8 15.6051 143.939C15.6142 144.077 15.6509 144.212 15.7131 144.336C15.7753 144.46 15.8617 144.571 15.9673 144.661C17.8984 144.773 19.8353 144.584 21.7079 144.099C24.197 143.772 26.4118 143.441 29.1994 142.985C28.1022 144.482 27.0414 146.031 26.0249 147.589L25.4923 147.492C22.7128 148.408 13.5431 149.171 13.144 152.628C13.5557 153.895 15.0079 152.967 15.8511 153.12C18.2111 152.999 20.4904 152.817 22.9997 152.632C22.4081 153.869 21.8636 155.099 21.3661 156.323C17.1787 157.671 13.0276 159.071 8.9976 160.814C8.85709 160.931 8.74352 161.076 8.66469 161.241C8.58586 161.406 8.54366 161.585 8.54099 161.768C8.53833 161.95 8.57525 162.131 8.64923 162.298C8.72321 162.465 8.83249 162.614 8.96953 162.735C9.78855 163.525 11.0109 163.105 11.8984 163.267C14.2988 162.924 16.6426 162.387 19.059 161.955C18.7247 162.912 18.5423 163.915 18.5187 164.928C16.5945 165.679 14.6985 166.526 12.7903 167.188C9.67797 168.231 6.68106 169.591 3.84685 171.247C3.69547 171.468 3.61559 171.73 3.618 171.998C3.62042 172.266 3.70502 172.527 3.86036 172.745C4.01569 172.963 4.23428 173.128 4.48658 173.218C4.73888 173.308 5.01273 173.319 5.2711 173.248C7.77632 172.832 10.0556 172.146 12.8432 171.69C14.3681 171.371 15.8567 171 17.3533 170.584L16.7485 173.913C13.2099 175.359 9.76727 177.031 6.44155 178.916C5.13051 179.824 1.43931 181.216 2.5691 183.576C2.6898 183.823 2.8766 184.032 3.10876 184.179C3.34092 184.327 3.60937 184.407 3.88433 184.411C4.17018 184.363 4.43187 184.221 4.62828 184.007C4.82469 183.794 4.94471 183.522 4.96944 183.233C8.51134 181.44 12.2398 180.042 16.0874 179.064C16.1475 179.667 16.339 180.25 16.6483 180.771C13.664 182.559 10.772 184.497 7.98331 186.577C7.72711 186.806 7.43017 186.985 7.10791 187.105C6.53506 187.231 6.60372 188.114 6.87404 188.392C8.06821 188.884 9.2542 187.908 10.3273 187.553C13.9805 185.759 17.7407 184.192 21.5864 182.86C21.9554 182.77 22.284 182.56 22.5205 182.262C22.7571 181.965 22.8882 181.598 22.8933 181.218C23.7555 180.73 24.6854 180.374 25.6526 180.161C29.6303 178.958 33.7612 177.921 37.8316 176.965C50.2504 173.664 62.8645 171.149 75.5993 169.433C85.4105 168.42 95.2661 168.423 104.988 166.889C124.316 163.708 143.583 159.6 163.25 157.581C177.801 156.466 191.561 151.632 205.705 147.968C227.267 142.076 249.306 136.591 272.176 137.126C281.321 137.701 290.42 138.865 299.415 140.609C304.123 141.189 308.847 141.177 313.563 141.713C320.688 143.125 327.898 144.068 335.147 144.535C341.896 144.478 348.621 144.05 355.346 143.621C363.886 142.79 372.923 142.002 381.629 142.026C393.909 141.552 406.052 138.808 418.453 139.182C427.522 139.73 436.357 141.565 445.055 142.641C451.978 143.395 458.929 143.237 465.876 144.362C473.389 145.422 480.979 145.851 488.564 145.643C488.918 145.63 489.265 145.536 489.577 145.368L495.132 145.828C508.066 146.803 521.056 147.467 534.075 148.733C547.093 149.998 560.773 149.642 574.195 150.706C587.617 151.77 601.031 152.878 614.586 153.462C621.085 153.772 627.661 154.417 634.213 154.186C640.764 153.956 647.025 152.801 653.52 152.377L662.823 151.638C663.44 151.521 664.041 151.493 664.651 151.42L668.693 151.879C675.107 152.403 682.05 152.29 688.57 153.245C691.704 153.907 692.39 148.622 689.077 147.928Z" fill="white"/>
<path d="M29.4262 213.856C29.0124 213.579 28.6975 213.178 28.527 212.71C28.3565 212.242 28.3394 211.732 28.4779 211.254L28.6231 210.455C32.14 190.197 37.3857 170.276 44.3028 150.913C44.2389 150.766 44.2201 150.603 44.2488 150.445C44.2775 150.287 44.3524 150.141 44.4641 150.025C44.6092 149.227 44.7947 148.206 45.7952 148.755C46.7958 149.303 46.4167 150.885 46.2393 151.861C43.7835 163.609 40.0649 174.485 37.2057 185.931C35.1529 193.443 33.1365 201.007 31.6204 208.846C30.9911 210.29 31.3385 214.433 29.4262 213.856Z" fill="#FBB921"/>
<path d="M73.9387 203.243C73.6465 203.1 73.4041 202.872 73.243 202.59C73.0818 202.307 73.0093 201.982 73.0349 201.658C73.4865 199.173 73.4943 196.607 73.6877 194.029C74.268 186.295 74.5456 178.461 75.0008 170.659C75.456 162.857 75.8344 154.719 76.6607 146.893C76.8785 145.695 76.523 141.092 78.2216 142.592C78.4363 142.823 78.5902 143.103 78.6695 143.407C79.0125 146.139 79.0641 148.899 78.8235 151.641C78.5582 162.183 77.599 172.506 76.8536 182.915C76.4103 188.381 75.8178 193.912 75.2495 199.31C74.9268 200.581 75.4395 203.562 73.9387 203.243Z" fill="#FBB921"/>
<path d="M78.1671 208.502C77.1222 207.945 77.4206 206.303 77.5536 205.319C78.0696 200.462 78.3717 195.52 78.7182 190.586C80.2416 174.13 80.6799 157.34 81.4207 140.65C81.4207 140.65 81.4932 140.251 81.5336 140.029C81.5739 139.807 81.711 139.052 82.1669 139.319C82.6228 139.585 82.8367 141.182 82.9498 142.074C83.2528 147.722 83.0839 153.192 82.9876 158.768C82.9645 172.012 81.5537 184.821 80.4979 197.694L79.5507 206.69C79.4782 207.594 79.1515 209.139 78.1671 208.502Z" fill="#FBB921"/>
<path d="M129.954 201.777C128.091 201.438 128.639 197.412 128.264 195.693C127.612 188.179 126.973 180.682 126.345 173.203C125.457 163.46 124.532 153.665 123.91 143.971C124.007 141.925 122.279 131.755 124.07 131.989C125.862 132.223 125.192 135.906 125.58 137.306C126.759 147.973 127.663 158.635 128.612 169.305C129.561 179.976 130.082 189.973 130.866 200.292C130.898 201.123 130.503 201.785 129.954 201.777Z" fill="#FBB921"/>
<path d="M136.123 196.067C134.792 195.825 135.203 193.562 135.042 192.433C134.565 184.461 133.346 176.538 132.179 168.578C130.803 156.226 129.789 143.893 128.723 131.597C128.432 131.177 128.727 130.314 128.638 129.794C129.787 126.748 131.455 145.067 131.794 146.229C133.245 159.604 134.619 172.98 135.917 186.357C136.179 189.201 136.397 192.037 136.845 194.869C136.91 195.523 136.539 196.051 136.123 196.067Z" fill="#FBB921"/>
<path d="M170.205 195.936C169.588 196.053 169.019 195.4 168.801 194.581C168.277 191.919 167.849 189.228 167.413 186.581C166.485 181.095 165.689 175.633 164.805 170.154C162.638 155.091 159.276 140.039 157.33 125.016C157.337 124.872 157.39 124.734 157.481 124.622C157.572 124.51 157.697 124.431 157.837 124.395C157.976 124.359 158.124 124.368 158.257 124.422C158.391 124.476 158.504 124.571 158.581 124.693C159.494 127.421 160.197 130.216 160.683 133.052C161.777 138.385 162.915 143.726 163.956 149.096C166.539 162.63 168.574 176.157 170.326 189.724C170.306 191.6 171.851 195.456 170.205 195.936Z" fill="#FBB921"/>
<path d="M176.335 195.262C175.758 195.157 175.068 194.665 174.91 193.765L173.344 185.733C170.894 172.223 168.267 158.68 166.011 145.113C164.45 138.114 163.443 131.003 162.999 123.845C163.168 122.913 164.342 123.264 164.419 124.103C165.142 129.965 166.667 135.697 167.761 141.535C169.932 152.29 171.813 163.13 173.888 173.913C174.849 179.222 175.668 184.551 176.629 189.86C176.794 191.724 178.122 194.761 176.335 195.262Z" fill="#FBB921"/>
<path d="M225.144 181.21C224.285 180.641 224.136 179.193 223.78 178.12L222.098 171.488C218.054 156.404 214.704 141.034 210.245 125.967C209.127 121.775 207.602 117.555 206.863 113.295C207.081 112.097 208.194 112.024 208.586 113.15C209.792 115.845 210.587 118.786 211.628 121.634C215.914 134.377 219.074 147.512 222.294 160.567C223.788 166.477 225.14 172.407 226.58 178.353C227.085 179.866 226.645 182.033 225.144 181.21Z" fill="#FBB921"/>
<path d="M229.902 177.49C227.263 166.788 224.615 156.13 222.242 145.475C220.325 137.609 218.029 129.811 216.411 121.815C215.483 118.569 215.136 115.185 215.385 111.818C215.805 111.024 216.737 111.193 217.027 112.117C217.117 112.172 217.192 112.248 217.248 112.337C217.303 112.427 217.337 112.528 217.346 112.633C217.297 112.899 217.249 113.166 216.983 113.117C218.081 119.689 219.901 126.071 221.656 132.304C224.594 142.877 226.951 153.62 229.59 164.323C230.547 168.393 231.548 172.471 232.601 176.514C232.875 179.039 230.483 179.842 229.902 177.49Z" fill="#FBB921"/>
<path d="M354.722 185.09C344.631 162.673 336.007 138.735 325.718 115.64C324.092 112.227 322.369 108.842 320.808 105.579C320.562 105.302 320.389 104.969 320.302 104.61C320.215 104.251 320.219 103.875 320.311 103.517C320.868 101.968 322.344 102.924 323.018 104.009C327.49 111.929 331.435 120.134 334.829 128.573C339.687 140.183 344.359 151.805 349.016 163.516C351.574 170.124 354.133 176.731 356.84 183.275C357.47 185.36 355.586 186.897 354.722 185.09Z" fill="#FBB921"/>
<path d="M361.851 182.948C354.838 167.05 347.555 151.378 341.018 134.878C337.39 125.83 333.569 116.838 330.272 107.483C329.982 106.055 327.86 102.093 329.211 101.468C329.808 101.21 330.175 101.964 330.373 102.642C330.571 103.32 331.301 103.59 330.958 104.215C338.826 123.982 346.897 143.48 355.169 162.709L360.422 175.17L363.376 181.621C363.49 181.91 363.521 182.225 363.465 182.531C363.41 182.837 363.27 183.121 363.061 183.352C362.957 183.411 362.841 183.448 362.721 183.46C362.601 183.472 362.48 183.458 362.366 183.42C362.252 183.382 362.147 183.32 362.058 183.239C361.97 183.158 361.899 183.059 361.851 182.948Z" fill="#FBB921"/>
<path d="M417.118 180.797C413.753 174.089 410.501 166.759 407.208 159.651C402.834 150.421 398.259 141.292 394.232 131.667C390.798 123.57 386.86 115.978 383.18 107.975L382.102 105.578C381.978 105.369 381.899 105.135 381.872 104.893C381.845 104.651 381.87 104.406 381.945 104.174C383.215 102.48 384.583 106.809 385.346 107.91L390.652 118.318C394.32 125.631 397.374 133.292 400.699 140.727C405.186 150.344 409.629 159.953 413.757 169.78C415.177 173.064 416.815 176.158 418.364 179.236C419.115 180.656 417.768 182.016 417.118 180.797Z" fill="#FBB921"/>
<path d="M427.3 182.51C422.506 174.075 418.975 164.494 414.86 155.357C407.903 139.653 400.418 124.081 393.43 108.05C393.066 107.021 392.114 105.198 393.058 104.544C393.137 104.521 393.22 104.514 393.301 104.525C393.382 104.536 393.461 104.564 393.531 104.607C393.601 104.65 393.661 104.707 393.707 104.775C393.754 104.842 393.785 104.919 393.8 105C404.836 126.763 415.149 148.717 424.148 171.348C425.486 174.661 426.993 177.903 428.663 181.062C429.401 182.296 428.038 183.745 427.3 182.51Z" fill="#FBB921"/>
<path d="M484.289 192.044C477.607 176.847 471.078 161.312 464.328 145.736C460.296 135.377 456.314 125.255 451.553 115.13C449.991 111.362 448.07 107.804 446.666 103.927C446.077 103.133 446.468 101.737 447.085 101.62C447.703 101.503 448.425 102.322 448.36 103.181C454.026 113.599 459.118 124.318 463.613 135.292C467.866 146.196 472.772 156.531 477.154 167.23C480.342 174.915 483.61 182.156 486.774 189.974C488.013 192.491 485.35 194.529 484.289 192.044Z" fill="#FBB921"/>
<path d="M492.916 185.956C492.474 185.744 492.131 185.37 491.959 184.911C489.203 179.138 486.988 172.914 484.563 166.834C478.418 151.965 471.651 136.982 465.195 122.056C463.497 118.111 461.887 114.105 460.365 110.039C459.913 108.49 458.936 106.799 459.485 105.295C459.884 104.359 460.953 104.782 461.215 105.609C465.351 114.887 469.915 123.831 474.18 132.903C480.959 147.567 487.132 162.534 492.749 177.536C493.443 179.267 494.242 180.925 495.005 182.531C495.768 184.136 494.344 186.674 492.916 185.956Z" fill="#FBB921"/>
<path d="M533.858 193.532C526.127 181.583 521.797 166.31 515.724 152.554C512.561 144.736 509.76 136.433 506.314 128.656C502.267 119.393 497.914 110.305 493.665 101.143C493.46 100.68 493.363 100.177 493.382 99.6709C493.463 99.2271 493.911 99.0334 494.112 99.4369C494.314 99.8403 495.069 100.986 495.569 101.765C503.759 115.498 510.725 129.926 516.385 144.88C519.533 152.787 523.201 160.605 526.227 168.673C528.276 174.23 530.64 179.664 533.309 184.951C534.091 187.202 537.694 191.341 535.927 193.495C535.814 193.663 535.662 193.802 535.483 193.899C535.305 193.996 535.105 194.049 534.902 194.052C534.699 194.056 534.498 194.01 534.316 193.92C534.135 193.829 533.977 193.696 533.858 193.532Z" fill="#FBB921"/>
<path d="M541.244 191.207C535.638 179.694 530.78 167.832 526.702 155.695C523.046 146.549 519.337 137.44 515.698 128.206C512.575 120.166 508.85 112.155 506.417 103.598C506.158 101.993 507.441 101.492 508.026 103.066C519.107 126.855 529.465 150.833 538.092 175.506C539.791 180.032 541.752 184.377 543.781 188.596C544.722 190.738 542.491 193.175 541.244 191.207Z" fill="#FBB921"/>
<path d="M606.491 194.948C602.22 188.02 598.3 180.881 594.746 173.559C587.939 162.329 582.375 149.811 575.588 138.217C574.987 137.237 574.402 136.168 573.845 135.196C568.822 126.765 564.75 117.636 559.509 109.394C557.617 106.437 555.612 103.597 553.554 100.794C553.166 100.403 553.469 99.4948 553.953 99.8578C556.234 101.383 558.229 103.297 559.848 105.513C563.305 109.905 566.43 114.549 569.196 119.406C573.598 127.22 578.335 134.453 582.681 142.073C586.489 148.863 589.968 155.958 593.696 162.687L593.744 162.421C598.203 169.924 602.286 178.23 606.079 186.117C607.16 188.239 608.23 190.175 609.319 192.253C610.408 194.33 607.811 196.517 606.491 194.948Z" fill="#FBB921"/>
<path d="M609.616 192.124C602.235 175.472 595.069 158.399 587.996 141.069C581.959 127.87 575.269 114.735 569.552 101.043C568.107 97.3883 570.959 96.0729 571.819 100.172C578.331 113.274 585.251 125.901 591.558 138.874C595.778 147.939 599.188 157.177 603.284 166.173C606.716 173.856 609.874 181.704 612.758 189.716C613.726 192.459 610.749 194.714 609.616 192.124Z" fill="#FBB921"/>
<path d="M37.3452 213.141C34.5373 211.944 35.9126 207.655 36.1181 205.263C37.3316 197.829 39.0043 190.478 41.1266 183.252C42.5663 177.599 43.4574 171.939 44.2475 166.078C45.0377 160.216 46.1508 155.605 47.3525 150.505C47.4742 149.779 47.7719 149.093 48.2197 148.508C48.8288 147.931 49.8213 148.524 49.9908 149.609C49.6422 156.163 48.9601 162.695 47.9472 169.18C46.4564 179.925 44.1293 190.538 40.987 200.921C40.5516 203.318 39.8942 205.674 39.6645 208.199C39.4347 210.725 39.4431 213.706 37.3452 213.141Z" fill="#87B8DD"/>
<path d="M84.4224 208.632C81.8727 207.527 83.1027 203.533 83.0702 201.189C83.235 193.472 83.319 185.694 83.4393 177.968C83.293 166.16 83.4573 154.408 84.013 142.774C84.2227 141.62 83.6578 140.188 84.1257 139.127C84.2046 139 84.3112 138.892 84.4375 138.812C84.5639 138.732 84.7067 138.681 84.8553 138.664C85.0039 138.647 85.1544 138.664 85.2956 138.713C85.4368 138.763 85.5651 138.843 85.6708 138.949C88.269 141.301 87.1122 152.964 87.2538 156.978C87.2705 163.445 87.3922 170.343 87.425 176.721C87.4419 184.701 86.8092 192.471 86.4347 200.334C85.9387 202.811 87.319 209.342 84.4224 208.632Z" fill="#87B8DD"/>
<path d="M140.092 200.227C139.293 200.082 138.482 199.247 138.365 198.125C138.042 194.857 137.763 191.598 137.396 188.322C136.132 178.374 135.098 168.421 134.383 158.481L133.22 143.692C132.942 140.936 132.752 138.197 132.695 135.482C132.711 133.881 132.461 131.726 133.501 131.044C134.542 130.363 135.297 132.013 135.349 133.489C135.616 133.537 135.652 134.094 135.228 134.155C137.521 150.8 138.584 167.404 140.151 184.009C140.587 188.673 140.825 193.667 141.06 198.431C141.119 198.796 141.057 199.169 140.882 199.494C140.707 199.819 140.429 200.077 140.092 200.227Z" fill="#87B8DD"/>
<path d="M180.01 193.684C177.221 179.012 174.343 164.324 171.518 149.599C170.041 141.079 168.083 132.426 167.393 123.865C167.316 122.017 169.232 121.311 169.841 123.256C169.696 124.055 170.443 124.74 170.342 125.547C173.203 139.82 176.109 154.101 178.483 168.789C179.877 176.927 181.188 185.097 182.418 193.297C182.794 195.52 180.422 195.96 180.01 193.684Z" fill="#87B8DD"/>
<path d="M235.952 177.26C235.603 176.947 235.358 176.535 235.25 176.078C234.298 172.742 233.487 169.386 232.49 166.041C229.762 155.827 227.074 145.391 224.362 135.087C222.99 130.025 221.634 124.873 220.589 119.778C220.343 117.854 218.244 111.742 219.995 111.189C221.746 110.636 222.057 115.231 222.767 116.873C225.035 125.583 227.505 134.192 229.825 142.865C232.462 152.91 234.987 162.98 237.4 173.077C237.546 173.791 237.735 174.513 237.889 175.182C238.369 176.828 237.058 178.24 235.952 177.26Z" fill="#87B8DD"/>
<path d="M366.62 185.97C359.897 172.509 356.068 157.005 351.056 142.204C347.077 129.791 341.63 118.395 336.876 106.208C336.162 104.336 337.578 102.347 338.691 104.292C349.159 123.742 357.26 144.375 362.822 165.751C364.666 172 367.176 177.865 369.536 183.795C370.44 186.389 367.899 188.266 366.62 185.97Z" fill="#87B8DD"/>
<path d="M407.534 184.056C401.974 171.768 395.95 159.763 390.543 147.136C384.434 133.832 377.474 120.923 371.203 107.498C369.928 105.432 371.396 103.407 372.857 105.46C383.079 122.71 392.073 140.659 399.77 159.174C403.293 166.782 406.718 174.418 410.326 181.813C411.431 184.306 408.636 186.823 407.534 184.056Z" fill="#87B8DD"/>
<path d="M499.704 189.983C492.658 175.135 486.681 159.801 481.821 144.1C478.084 133.381 473.666 123.135 469.183 112.739C468.231 110.572 467.458 108.331 466.87 106.038C466.689 104.768 467.867 103.836 468.67 104.715C471.893 110.034 474.779 115.55 477.312 121.23C483.715 136.026 489.321 151.154 494.107 166.549C496.689 173.528 499.018 180.644 502.157 187.083C503.436 189.378 500.971 192.093 499.704 189.983Z" fill="#87B8DD"/>
<path d="M545.291 190.657C545.032 190.563 544.795 190.419 544.593 190.233C544.391 190.047 544.227 189.822 544.113 189.572C543.181 187.89 542.309 186.127 541.413 184.497C538.943 179.268 536.861 173.864 535.183 168.329C531.434 156.92 526.834 145.907 522.609 134.596C518.897 124.753 514.297 115.252 511.073 104.994C510.71 103.965 510.851 102.432 511.896 102.484C512.191 102.528 512.469 102.649 512.701 102.837C512.933 103.024 513.11 103.27 513.215 103.549C514.958 106.571 516.326 109.891 517.851 113.102C527.024 132.794 534.934 153.049 541.533 173.746C543.191 178.242 545.118 182.633 547.303 186.897C548.155 188.519 546.981 191.194 545.291 190.657Z" fill="#87B8DD"/>
<path d="M614.595 195.505C611.197 188.974 607.768 182.62 605.173 175.456C599.876 160.71 594.382 145.958 588.689 131.202C587.572 127.01 571.133 94.8671 578.121 95.2659C578.839 94.342 579.613 96.1331 578.673 96.5124C581.821 107.949 588.204 117.223 592.425 127.801C599.062 143.997 604.813 160.537 610.632 176.952C612.815 182.345 615.102 187.666 617.556 192.834C618.686 195.194 616.007 197.824 614.595 195.505Z" fill="#87B8DD"/>
<path d="M42.8611 211.303C42.5113 210.71 42.3482 210.025 42.3929 209.338C42.5709 205.981 42.994 202.641 43.6588 199.345C45.3359 187.593 48.0904 177.229 50.4817 165.836C51.7881 158.647 53.1107 151.369 54.6672 144.317C55.1834 141.477 58.9475 143.72 58.2377 146.617C56.4271 154.814 55.1974 163.347 53.6894 171.645C52.3104 179.234 50.2173 186.463 48.7132 193.983C47.9067 198.421 47.0358 203.214 45.7694 207.659C45.3379 209.277 44.8582 213.683 42.8611 211.303Z" fill="#375226"/>
<path d="M90.5831 205.258C89.0299 204.976 89.1789 202.39 89.2151 200.93C89.3036 197.92 89.4445 194.874 89.541 191.821C89.8422 176.793 91.1763 162.137 91.5219 147.117C91.7354 143.672 91.6463 140.126 91.9405 136.741C91.9436 136.485 92.0057 136.233 92.1218 136.005C92.238 135.777 92.405 135.578 92.6102 135.425C92.8153 135.272 93.0531 135.167 93.3049 135.121C93.5567 135.074 93.8159 135.086 94.0623 135.155C96.1723 135.906 95.9587 138.847 95.737 140.823C95.1897 154.935 94.6947 169.011 93.2033 182.767C92.7601 189.242 92.4501 195.742 91.7043 202.116C91.539 203.278 91.7409 205.194 90.5831 205.258Z" fill="#375226"/>
<path d="M146.462 200.469C144.364 200.409 144.138 197.113 143.844 194.951C142.677 187.495 141.978 179.988 141.131 172.545C139.806 159.147 138.26 145.709 138.061 132.425C138.109 131.672 138.244 130.927 138.464 130.206C138.738 128.697 140.804 129.439 140.913 131.109C142.867 148.61 145.043 166.15 146.812 183.663C147.159 187.301 147.639 190.964 147.987 194.603C148.096 196.778 148.717 200.421 146.462 200.469Z" fill="#375226"/>
<path d="M185.035 193.543C180.136 170.052 176.781 145.375 172.47 121.671C172.132 120.509 172.858 119.54 173.798 120.17C174.738 120.799 174.786 121.541 175.093 122.376C179.875 141.216 182.886 160.467 186.14 179.395C186.753 183.082 187.314 186.806 187.928 190.493C188.28 191.636 188.374 192.843 188.202 194.027C187.581 195.931 185.592 195.524 185.035 193.543Z" fill="#375226"/>
<path d="M241.122 175.54C235.472 156.177 229.928 136.236 225.133 116.202C224.889 115.849 224.773 115.424 224.802 114.996C224.673 114.193 224.358 113.403 224.229 112.6C224.1 111.797 224.915 110.341 225.863 110.926C227.674 112.309 228.074 115.912 229.131 118.167C230.862 124.028 232.541 129.926 234.079 135.844C237.388 147.402 240.556 158.98 243.433 170.643C243.748 171.938 244.107 173.241 244.369 174.572C244.6 177.089 241.961 177.985 241.122 175.54Z" fill="#375226"/>
<path d="M285.666 175.384C281.223 159.723 276.796 143.974 272.175 128.281C270.355 121.9 268.297 115.566 266.836 108.974C266.384 107.425 267.707 106.199 268.41 107.885C275.08 127.434 280.895 147.653 285.911 167.727C286.458 169.935 287.071 172.109 287.752 174.25C287.895 174.601 287.914 174.991 287.807 175.355C287.699 175.718 287.47 176.035 287.159 176.251C286.582 176.65 285.928 176.211 285.666 175.384Z" fill="#FBB921"/>
<path d="M296.306 181.123C290.277 163.845 284.938 145.547 279.26 127.599C277.679 121.673 275.855 116.069 274.369 110.115C273.885 108.743 274.902 107.186 275.753 108.808C283.46 131.479 290.329 154.732 297.29 177.222C297.556 178.279 298.278 179.098 298.218 180.187C298.158 181.277 297.028 181.942 296.306 181.123Z" fill="#FBB921"/>
<path d="M302.703 182.515C297.223 166.253 292.941 149.201 287.8 132.588C286.222 127.397 284.495 122.269 283.111 117.021C282.197 114.512 281.839 111.835 282.061 109.174C282.141 108.98 282.275 108.813 282.448 108.693C282.621 108.574 282.825 108.507 283.035 108.502C283.245 108.496 283.452 108.552 283.63 108.662C283.809 108.772 283.952 108.932 284.042 109.122C286.338 116.415 288.768 123.733 291.14 130.857C295.329 144.134 298.868 157.704 302.581 171.078C303.445 174.398 304.457 177.653 305.406 180.759C305.581 181.189 305.63 181.659 305.547 182.115C305.464 182.57 305.253 182.993 304.938 183.333C304.091 183.959 303.11 183.551 302.703 182.515Z" fill="#87B8DD"/>
<path d="M311.41 182.035C306.063 167.31 301.245 151.949 295.858 136.942C293.703 130.636 291.556 124.287 289.551 117.917C288.27 114.557 287.475 111.032 287.19 107.448C287.488 105.806 289.384 105.968 289.675 107.9C293.702 120.551 298.387 132.863 302.588 145.316C305.534 154.332 308.471 163.393 311.425 172.365C312.289 175.181 313.1 178.033 314.06 180.82C314.219 181.22 314.263 181.657 314.186 182.081C314.109 182.504 313.914 182.898 313.625 183.217C313.427 183.419 313.169 183.551 312.89 183.594C312.61 183.637 312.324 183.588 312.075 183.455C311.825 183.322 311.626 183.112 311.506 182.856C311.386 182.6 311.352 182.312 311.41 182.035Z" fill="#375226"/>
<path d="M266.666 109.384C262.223 93.7233 257.796 77.9742 253.175 62.2815C251.355 55.8995 249.297 49.566 247.836 42.9742C247.384 41.4251 248.707 40.1985 249.41 41.8848C256.08 61.434 261.895 81.653 266.911 101.727C267.458 103.935 268.071 106.109 268.752 108.25C268.895 108.601 268.914 108.991 268.807 109.355C268.699 109.718 268.47 110.035 268.159 110.251C267.582 110.65 266.928 110.211 266.666 109.384Z" fill="#FBB921"/>
<path d="M276.306 116.123C270.277 98.8453 264.938 80.5466 259.26 62.5989C257.679 56.6727 255.855 51.0694 254.369 45.115C253.885 43.7434 254.902 42.1861 255.753 43.8078C263.46 66.4794 270.329 89.732 277.29 112.222C277.556 113.279 278.278 114.098 278.218 115.187C278.158 116.277 277.028 116.942 276.306 116.123Z" fill="#FBB921"/>
<path d="M282.703 116.515C277.223 100.253 272.941 83.2009 267.8 66.5884C266.222 61.3965 264.495 56.2692 263.111 51.0208C262.197 48.5121 261.839 45.8349 262.061 43.1743C262.141 42.9799 262.275 42.8128 262.448 42.6934C262.621 42.574 262.825 42.5075 263.035 42.5019C263.245 42.4963 263.452 42.5519 263.63 42.662C263.809 42.7721 263.952 42.9317 264.042 43.1217C266.338 50.4153 268.768 57.7332 271.14 64.8575C275.329 78.1337 278.868 91.7045 282.581 105.078C283.445 108.398 284.457 111.653 285.406 114.759C285.581 115.189 285.63 115.659 285.547 116.115C285.464 116.57 285.253 116.993 284.938 117.333C284.091 117.959 283.11 117.551 282.703 116.515Z" fill="#87B8DD"/>
<path d="M292.41 116.035C287.063 101.31 282.245 85.9485 276.858 70.9417C274.703 64.6364 272.556 58.2867 270.551 51.9168C269.27 48.5572 268.475 45.0323 268.19 41.4483C268.488 39.8063 270.384 39.9676 270.675 41.8999C274.702 54.5509 279.387 66.8629 283.588 79.3161C286.534 88.3323 289.471 97.3929 292.425 106.365C293.289 109.181 294.1 112.033 295.06 114.82C295.219 115.22 295.263 115.657 295.186 116.081C295.109 116.504 294.914 116.898 294.625 117.217C294.427 117.419 294.169 117.551 293.89 117.594C293.61 117.637 293.324 117.588 293.075 117.455C292.825 117.322 292.626 117.112 292.506 116.856C292.386 116.6 292.352 116.312 292.41 116.035Z" fill="#375226"/>
<path d="M374.338 184.851C367.228 167.468 360.013 150.158 353.121 132.081C350.43 124.44 347.335 117.002 344.861 109.171C344.425 107.534 343.271 105.307 344.308 103.891C345.49 102.684 346.535 104.754 347.071 106.089C348.23 108.546 349.194 111.059 350.275 113.685C354.565 123.633 358.257 133.839 362.308 143.836C366.359 153.832 370.088 163.587 373.55 173.797C374.369 176.1 375.233 178.412 376.044 180.76C376.556 182.228 377.682 184.358 376.391 185.407C375.754 185.887 374.794 185.621 374.338 184.851Z" fill="#375226"/>
<path d="M403.951 184.854C400.735 179.199 397.943 173.314 395.599 167.245C391.527 158.116 387.367 148.971 383.058 139.89C378.369 129.87 373.37 119.793 369.319 109.292C368.966 108.467 368.708 107.605 368.548 106.722C368.16 104.818 370.048 103.511 371.118 104.943C374.66 110.675 377.097 117.444 380.108 123.584C387.254 139.002 394.178 154.38 400.444 170.097C402.183 174.401 403.846 178.875 405.924 182.828C406.723 184.486 404.96 186.367 403.951 184.854Z" fill="#375226"/>
<path d="M507.058 191.411C503.04 182.75 500.4 173.056 496.615 164.116C491.749 152.046 486.838 139.968 482.012 127.676C479.821 122.327 477.533 117.006 475.096 111.75C473.912 109.415 472.959 106.969 472.251 104.448C472.062 103.222 473.159 102.229 473.994 102.931C480.501 114.507 485.967 126.638 490.328 139.181C495.356 152.381 500.593 165.435 504.855 178.816C506.165 182.538 507.521 186.177 508.922 189.732C509.713 191.435 507.865 193.024 507.058 191.411Z" fill="#375226"/>
<path d="M553.782 193.117C550.401 186.497 548.343 179.155 545.679 172.115C542.233 163.329 538.743 154.535 535.059 145.797C529.672 131.174 523.438 116.877 516.389 102.979C516.389 102.979 515.989 102.907 516.098 102.56C515.465 101.253 516.509 100.297 517.478 101.023C521.667 105.691 525.02 111.046 527.391 116.852C532.213 126.897 535.97 137.757 540.493 147.931C545.42 159.516 549.742 171.349 553.442 183.382C554.221 185.908 555.165 188.28 556.138 190.748C556.431 191.284 556.544 191.899 556.461 192.503C556.223 194.065 554.464 194.662 553.782 193.117Z" fill="#375226"/>
<path d="M619.311 191.732C614.493 178.892 607.997 167.213 603.195 154.284C595.637 135.582 588.959 116.077 581.566 96.7175C581.437 97.4275 580.481 96.887 580.699 96.1931C580.742 95.6977 580.831 95.2074 580.965 94.7286C583.135 92.8767 587.058 103.583 588.155 105.616C591.637 112.942 594.611 120.542 597.472 128.26C602.496 140.221 607.257 152.363 612.216 164.175C615.763 172.659 619.476 180.989 622.365 189.812C623.253 192.494 620.243 194.423 619.311 191.732Z" fill="#375226"/>
</g>
</svg>
