<svg width="309" height="307" viewBox="0 0 309 307" fill="none" xmlns="http://www.w3.org/2000/svg">
<path fill-rule="evenodd" clip-rule="evenodd" d="M254.924 200.383C254.998 201.066 255.275 201.712 255.72 202.236C256.281 202.93 257.094 203.372 257.981 203.465C258.868 203.559 259.755 203.296 260.448 202.736C260.993 202.316 261.399 201.742 261.614 201.09C261.83 200.437 261.845 199.734 261.657 199.073C261.47 198.411 261.089 197.821 260.563 197.378C260.037 196.935 259.391 196.66 258.707 196.587C258.023 196.515 257.334 196.65 256.727 196.973C256.12 197.296 255.624 197.794 255.303 198.402C254.981 199.009 254.849 199.699 254.924 200.383ZM273.661 178.971C272.827 177.939 272.987 176.427 274.018 175.593C275.049 174.759 276.561 174.919 277.395 175.95C278.23 176.981 278.07 178.493 277.039 179.327C276.008 180.161 274.495 180.002 273.661 178.971ZM246.423 174.956C244.498 176.513 244.2 179.336 245.757 181.26C247.314 183.185 250.137 183.483 252.062 181.926C253.987 180.369 254.285 177.547 252.728 175.622C251.171 173.697 248.348 173.399 246.423 174.956ZM44.8105 197.717C44.9865 198.293 45.2766 198.827 45.6638 199.289C46.0341 199.764 46.4964 200.159 47.0229 200.452C47.5495 200.744 48.1295 200.927 48.7284 200.991C49.3273 201.054 49.9329 200.996 50.5089 200.82C51.0849 200.644 51.6195 200.354 52.0809 199.966C53.0217 199.205 53.6216 198.102 53.7487 196.898C53.8758 195.695 53.5197 194.49 52.7587 193.549C51.9976 192.608 50.8938 192.009 49.6904 191.881C48.487 191.754 47.2824 192.111 46.3415 192.872C45.8665 193.242 45.471 193.704 45.1786 194.231C44.8862 194.757 44.7029 195.337 44.6397 195.936C44.5764 196.535 44.6346 197.141 44.8105 197.717ZM64.9769 187.269C64.6831 186.906 64.5457 186.441 64.5948 185.976C64.6438 185.512 64.8753 185.086 65.2384 184.792C65.6016 184.498 66.0666 184.361 66.5311 184.41C66.9956 184.459 67.4215 184.69 67.7152 185.054C68.009 185.417 68.1465 185.882 68.0975 186.346C68.0484 186.811 67.8168 187.237 67.4536 187.53C67.0905 187.824 66.6257 187.961 66.1612 187.912C65.6967 187.863 65.2706 187.632 64.9769 187.269ZM180.001 94.6319C178.555 92.8446 178.832 90.2237 180.619 88.7778C182.406 87.3319 185.028 87.6087 186.473 89.396C187.919 91.1833 187.642 93.8044 185.855 95.2502C184.068 96.6961 181.447 96.4193 180.001 94.6319ZM175.399 81.057C175.14 80.737 174.982 80.3474 174.944 79.9374C174.907 79.5275 174.992 79.1157 175.188 78.7541C175.385 78.3924 175.685 78.0971 176.049 77.9056C176.413 77.7141 176.826 77.635 177.236 77.6783C177.645 77.7215 178.032 77.8851 178.349 78.1485C178.665 78.4118 178.896 78.7632 179.013 79.1579C179.13 79.5526 179.127 79.9731 179.004 80.3662C178.882 80.7593 178.646 81.1072 178.326 81.3661C177.897 81.7132 177.347 81.8758 176.798 81.8179C176.249 81.7599 175.746 81.4862 175.399 81.057ZM218.186 61.6983C218.309 62.0855 218.508 62.4442 218.772 62.7533C219.279 63.3805 220.015 63.7805 220.817 63.8652C221.62 63.9499 222.423 63.7124 223.05 63.2051C223.442 62.9805 223.781 62.6733 224.043 62.3049C224.305 61.9364 224.484 61.5154 224.568 61.071C224.651 60.6266 224.637 60.1695 224.526 59.7311C224.415 59.2928 224.211 58.8837 223.926 58.5322C223.642 58.1807 223.285 57.8951 222.879 57.6953C222.473 57.4954 222.029 57.386 221.577 57.3747C221.125 57.3633 220.676 57.4503 220.261 57.6296C219.846 57.8089 219.475 58.0762 219.173 58.413C218.857 58.6684 218.596 58.9845 218.404 59.3427C218.212 59.7009 218.094 60.0939 218.057 60.4985C218.019 60.903 218.063 61.311 218.186 61.6983ZM158.563 132.155C157.703 132.85 157.57 134.11 158.265 134.969C158.96 135.829 160.221 135.962 161.08 135.267C161.939 134.572 162.072 133.311 161.377 132.452C160.682 131.593 159.422 131.46 158.563 132.155ZM142.81 113.185C141.976 112.154 142.136 110.642 143.167 109.808C144.198 108.974 145.71 109.134 146.544 110.165C147.378 111.196 147.219 112.708 146.187 113.542C145.156 114.376 143.644 114.217 142.81 113.185ZM152.841 21.9811C152.492 21.5168 152.336 20.9352 152.408 20.3588C152.479 19.7823 152.772 19.2562 153.224 18.8911C153.669 18.5306 154.24 18.3619 154.81 18.4221C155.38 18.4823 155.903 18.7665 156.263 19.2122C156.624 19.6579 156.793 20.2284 156.733 20.7985C156.672 21.3685 156.388 21.8913 155.942 22.2518C155.491 22.6174 154.915 22.7936 154.337 22.7431C153.758 22.6926 153.222 22.4194 152.841 21.9811ZM150.201 45.4377C150.131 46.0922 150.325 46.7473 150.739 47.259C150.944 47.5124 151.197 47.7229 151.483 47.8785C151.77 48.0342 152.084 48.1319 152.408 48.1661C152.732 48.2003 153.059 48.1705 153.372 48.0781C153.684 47.9857 153.976 47.8325 154.229 47.6276C154.741 47.2137 155.067 46.6134 155.136 45.9589C155.205 45.3044 155.012 44.6493 154.598 44.1376C154.184 43.6259 153.584 43.2996 152.929 43.2305C152.275 43.1613 151.619 43.3551 151.108 43.769C150.596 44.183 150.27 44.7832 150.201 45.4377Z" fill="#939CCB"/>
</svg>
