<svg width="23" height="25" viewBox="0 0 23 25" fill="none" xmlns="http://www.w3.org/2000/svg">
<path d="M13.2945 18.6738C13.553 18.6277 13.7984 18.5268 14.014 18.3779C14.5102 18.7146 15.1148 18.8557 15.7096 18.7734C16.3045 18.6912 16.8468 18.3916 17.2306 17.9333C17.6011 17.4057 17.8197 16.7877 17.8629 16.1457C18.2299 15.2354 18.4448 14.2716 18.4992 13.2923C18.4865 9.8833 19.0973 6.06597 17.748 2.77637C17.5485 2.42838 17.2622 2.13708 16.9168 1.93045C16.5713 1.72381 16.1783 1.60878 15.7754 1.59643C15.3725 1.58408 14.9733 1.67483 14.6161 1.85993C14.259 2.04503 13.9559 2.31828 13.7359 2.65342C13.1939 3.96055 12.8593 5.34342 12.7438 6.7528C11.841 5.19366 10.4476 2.94578 8.32057 3.71058C7.82506 3.90602 7.40733 4.25641 7.13052 4.70879C6.85372 5.16118 6.73289 5.69093 6.78635 6.21793C7.34194 8.17647 8.14894 10.0562 9.18747 11.8108C7.26078 10.9291 5.08373 10.7489 3.03831 11.3019C2.66525 11.5056 2.34889 11.7978 2.1174 12.1526C1.88592 12.5074 1.74649 12.9136 1.71161 13.3351C1.67673 13.7566 1.74747 14.1802 1.91749 14.5682C2.0875 14.9562 2.35151 15.2965 2.68601 15.5587C4.68851 16.56 6.81636 17.2916 9.01316 17.7341C10.3918 18.2357 11.8318 18.5518 13.2945 18.6738Z" fill="#D03435"/>
</svg>
