<svg width="23" height="25" viewBox="0 0 23 25" fill="none" xmlns="http://www.w3.org/2000/svg">
<path d="M17.673 17.3167C17.6459 17.8601 17.48 18.3874 17.1912 18.8485C16.9024 19.3095 16.5002 19.6888 16.0231 19.9503C15.5461 20.2118 15.01 20.3467 14.466 20.3421C13.922 20.3376 13.3882 20.1937 12.9156 19.9243C11.9487 19.2429 11.1698 18.3282 10.6511 17.2651C10.1564 18.4661 9.31247 19.4909 8.22867 20.2068C7.63895 20.724 6.87349 20.9956 6.08967 20.9656C5.30585 20.9356 4.56325 20.6065 4.01473 20.0457C3.46622 19.485 3.15344 18.7354 3.14073 17.9511C3.12802 17.1668 3.41637 16.4075 3.94642 15.8293C5.13457 14.4087 6.69298 13.3451 8.4488 12.7563L8.16535 12.2392C7.2029 10.3662 6.7938 8.25794 6.98583 6.16099C6.99006 5.85885 7.05873 5.56114 7.18727 5.28767C7.3158 5.01421 7.50121 4.77128 7.73114 4.57523C7.96107 4.37918 8.2302 4.23456 8.52055 4.15087C8.81089 4.06718 9.11576 4.04638 9.41476 4.08996C10.0792 4.24735 10.6598 4.64954 11.0407 5.2162C11.822 6.11414 12.513 7.08695 13.1033 8.1205C14.2041 7.28215 15.4243 6.6134 16.7231 6.13648C17.2666 5.97094 17.8448 5.95664 18.3957 6.09512C18.9466 6.23359 19.4494 6.51955 19.85 6.92235C20.2505 7.32515 20.5338 7.82956 20.6692 8.38126C20.8046 8.93295 20.7871 9.5111 20.6185 10.0536C19.7991 12.1166 17.574 12.5965 15.4473 12.8879C16.179 13.3612 16.771 14.0211 17.1623 14.7997C17.5535 15.5783 17.7299 16.4472 17.673 17.3167Z" fill="#F58429"/>
</svg>
