<svg width="23" height="25" viewBox="0 0 23 25" fill="none" xmlns="http://www.w3.org/2000/svg">
<path d="M17.5665 7.54738C18.0879 7.70268 18.5608 7.98898 18.9401 8.37896C19.3194 8.76894 19.5925 9.24962 19.7333 9.77511C19.8741 10.3006 19.878 10.8533 19.7444 11.3807C19.6109 11.9081 19.3445 12.3925 18.9706 12.7877C18.0793 13.5653 17.0058 14.1049 15.85 14.3565C16.8993 15.1221 17.6946 16.1851 18.1329 17.4078C18.4954 18.1034 18.5775 18.9115 18.3624 19.6658C18.1473 20.4201 17.6513 21.0634 16.9764 21.4632C16.3016 21.8629 15.4991 21.9889 14.7342 21.8151C13.9693 21.6414 13.3001 21.1811 12.8642 20.5289C11.7662 19.0376 11.1027 17.2713 10.9474 15.426L10.3778 15.5786C8.32996 16.0691 6.1848 15.9662 4.19331 15.2821C3.90081 15.2063 3.62789 15.0689 3.39274 14.8791C3.15759 14.6894 2.9656 14.4516 2.82971 14.1817C2.69383 13.9119 2.6172 13.6161 2.6048 13.3142C2.5924 13.0123 2.64453 12.7112 2.75783 12.4311C3.06838 11.823 3.59686 11.3544 4.23773 11.1188C5.29543 10.5729 6.40442 10.1325 7.54855 9.80428C6.99536 8.53599 6.63525 7.19202 6.48018 5.81706C6.44832 5.24989 6.57164 4.68481 6.83689 4.18247C7.10215 3.68013 7.49924 3.25958 7.98559 2.96604C8.47194 2.6725 9.02917 2.51703 9.59724 2.51641C10.1653 2.51579 10.7228 2.67003 11.2098 2.96251C13.0194 4.24806 12.9576 6.52348 12.736 8.65855C13.3694 8.06013 14.151 7.64162 15.0001 7.44628C15.8493 7.25094 16.7353 7.28585 17.5665 7.54738Z" fill="#231F20"/>
</svg>
