<svg width="23" height="25" viewBox="0 0 23 25" fill="none" xmlns="http://www.w3.org/2000/svg">
<path fill-rule="evenodd" clip-rule="evenodd" d="M6.44819 5.59399C6.336 6.93387 6.01749 6.52017 4.98549 7.69952C4.0568 8.75653 3.49445 10.0831 3.38099 11.4845C3.39545 12.3311 3.60071 13.1646 3.98159 13.9235C4.51265 14.9995 5.20366 15.9903 6.03129 16.8625C6.7414 17.4648 7.55024 17.941 8.42216 18.2703C9.54725 18.5552 10.692 18.7554 11.8466 18.8692C12.7067 19.0111 13.588 18.9337 14.408 18.6443C15.2279 18.3549 15.9596 17.8628 16.5344 17.2143C16.8311 16.8809 17.116 16.708 17.4126 16.3746C18.1626 15.488 18.7036 14.4455 18.9963 13.3229C19.289 12.2004 19.3261 11.026 19.1048 9.88516C18.7292 8.5848 17.9879 7.41671 16.9684 6.51856C15.949 5.62042 14.6937 5.02964 13.3507 4.81591C12.3701 4.64313 11.3705 4.6099 10.3817 4.71718C10.222 4.48774 10.0445 4.27097 9.85101 4.06885C9.60766 3.80335 9.62527 3.56253 9.08473 3.50697L9.04795 3.61811C9.23846 3.72526 9.38875 3.89127 9.47594 4.09081C9.56314 4.29035 9.58247 4.51249 9.53094 4.72336C9.32306 5.09134 9.00846 5.38823 8.62796 5.57546C8.16366 5.91506 8.02664 5.82862 7.38748 5.94595C7.12068 6.00152 7.10892 6.16204 6.79787 6.03856C6.48682 5.91507 6.54868 5.85332 6.44819 5.59399Z" fill="#D23F3F"/>
<path fill-rule="evenodd" clip-rule="evenodd" d="M6.4824 5.48199L6.44562 5.59312C6.5645 5.79688 6.57758 5.94508 6.83266 6.05005C7.08773 6.15501 7.15541 6.01299 7.42221 5.95742C8.06137 5.84009 8.19839 5.92653 8.66269 5.58693C9.0432 5.3997 9.35779 5.10281 9.56567 4.73483C9.61394 4.52398 9.59314 4.30303 9.50625 4.1042C9.41936 3.90538 9.27094 3.73907 9.08268 3.62958L9.11946 3.51844C8.8825 3.29616 8.86893 3.02451 8.53895 2.8331C8.38326 2.7316 8.202 2.67596 8.01621 2.67269C7.83041 2.66941 7.64768 2.7186 7.48932 2.81456C7.39737 3.09242 7.36671 3.18504 7.62205 3.35175C7.8774 3.51846 7.92058 3.45053 8.07091 3.74691C7.90965 3.7963 8.07091 3.74691 7.903 3.69134L7.19399 3.45671C6.8395 3.3394 6.63508 3.45674 6.53087 3.77165C6.29643 4.31393 6.27909 4.92556 6.4824 5.48199Z" fill="#4B0009"/>
</svg>
