<svg width="23" height="25" viewBox="0 0 23 25" fill="none" xmlns="http://www.w3.org/2000/svg">
<path d="M17.5665 7.54744C18.0879 7.70274 18.5608 7.98904 18.9401 8.37902C19.3194 8.769 19.5925 9.24968 19.7333 9.77517C19.8741 10.3007 19.878 10.8534 19.7444 11.3808C19.6109 11.9082 19.3445 12.3926 18.9706 12.7878C18.0793 13.5653 17.0058 14.105 15.85 14.3565C16.8993 15.1221 17.6946 16.1851 18.1329 17.4079C18.4954 18.1035 18.5775 18.9115 18.3624 19.6658C18.1473 20.4202 17.6513 21.0634 16.9764 21.4632C16.3016 21.863 15.4991 21.989 14.7342 21.8152C13.9693 21.6414 13.3001 21.1811 12.8642 20.529C11.7662 19.0377 11.1027 17.2714 10.9474 15.426L10.3778 15.5786C8.32996 16.0692 6.1848 15.9663 4.19331 15.2821C3.90081 15.2063 3.62789 15.069 3.39274 14.8792C3.15759 14.6894 2.9656 14.4517 2.82971 14.1818C2.69383 13.9119 2.6172 13.6161 2.6048 13.3142C2.5924 13.0123 2.64453 12.7112 2.75783 12.4311C3.06838 11.823 3.59686 11.3544 4.23773 11.1189C5.29543 10.5729 6.40442 10.1326 7.54855 9.80434C6.99536 8.53605 6.63525 7.19208 6.48018 5.81712C6.44832 5.24995 6.57164 4.68487 6.83689 4.18253C7.10215 3.68019 7.49924 3.25964 7.98559 2.9661C8.47194 2.67256 9.02917 2.51709 9.59724 2.51647C10.1653 2.51585 10.7228 2.67009 11.2098 2.96257C13.0194 4.24812 12.9576 6.52354 12.736 8.65861C13.3694 8.06019 14.151 7.64168 15.0001 7.44634C15.8493 7.251 16.7353 7.28591 17.5665 7.54744Z" fill="#D03435"/>
</svg>
