<svg width="23" height="25" viewBox="0 0 23 25" fill="none" xmlns="http://www.w3.org/2000/svg">
<path d="M6.80963 21.8184C2.51029 19.0355 7.30504 14.7951 8.79861 11.8405C10.3628 9.14705 11.6475 6.30065 12.6325 3.34581C12.6901 3.21659 12.7748 3.10128 12.881 3.00777C12.9871 2.91426 13.1122 2.84475 13.2476 2.80394C16.6596 1.9265 13.6285 14.2042 13.0158 15.9249C12.1161 18.806 10.6764 23.6088 6.80963 21.8184Z" fill="#FBB921"/>
<path d="M15.6483 17.0465C13.3608 16.3452 11.2533 15.1542 9.47243 13.5564C7.69153 11.9586 6.27979 9.99223 5.3354 7.79388C4.92186 6.90512 4.46044 5.56063 5.16925 4.75138C5.87806 3.94214 7.28835 5.00496 7.9939 5.73284C9.58195 7.37286 11.4743 8.68772 13.5653 9.60393C14.9621 10.2047 16.409 10.6891 17.8559 11.1735C18.6347 11.4662 19.2653 12.0564 19.609 12.8141C19.9527 13.5718 19.9813 14.435 19.6886 15.2138C19.3958 15.9926 18.8057 16.6232 18.048 16.9669C17.2903 17.3106 16.4271 17.3392 15.6483 17.0465Z" fill="#FBB921"/>
</svg>
