<svg width="23" height="25" viewBox="0 0 23 25" fill="none" xmlns="http://www.w3.org/2000/svg">
<path d="M9.50259 18.6739C9.24407 18.6278 8.99867 18.5269 8.78316 18.378C8.28695 18.7147 7.68234 18.8557 7.08748 18.7735C6.49263 18.6913 5.9503 18.3917 5.5665 17.9333C5.19606 17.4058 4.97745 16.7878 4.93418 16.1458C4.56724 15.2355 4.35236 14.2717 4.29794 13.2923C4.31063 9.88336 3.69986 6.06603 5.04914 2.77644C5.24864 2.42844 5.53489 2.13714 5.88033 1.93051C6.22578 1.72387 6.61882 1.60884 7.02172 1.59649C7.42462 1.58414 7.82385 1.67489 8.18101 1.85999C8.53817 2.04509 8.84126 2.31834 9.06119 2.65348C9.60321 3.96061 9.93787 5.34348 10.0533 6.75287C10.9561 5.19372 12.3495 2.94584 14.4765 3.71064C14.9721 3.90608 15.3898 4.25647 15.6666 4.70885C15.9434 5.16124 16.0642 5.69099 16.0108 6.21799C15.4552 8.17653 14.6482 10.0562 13.6096 11.8108C15.5363 10.9292 17.7134 10.749 19.7588 11.3019C20.1319 11.5056 20.4482 11.7979 20.6797 12.1527C20.9112 12.5074 21.0506 12.9136 21.0855 13.3351C21.1204 13.7566 21.0496 14.1803 20.8796 14.5682C20.7096 14.9562 20.4456 15.2965 20.1111 15.5588C18.1086 16.5601 15.9808 17.2917 13.784 17.7341C12.4053 18.2358 10.9654 18.5518 9.50259 18.6739Z" fill="#231F20"/>
</svg>
