<svg width="436" height="219" viewBox="0 0 436 219" fill="none" xmlns="http://www.w3.org/2000/svg">
<path d="M422.815 169.567C422.901 180.063 422.088 190.547 420.384 200.904C419.179 205.462 417.504 209.882 415.384 214.093C414.713 215.538 414.067 218.218 412.162 217.235C411.898 217.058 411.695 216.804 411.58 216.508C411.466 216.211 411.446 215.887 411.524 215.578C408.915 215.346 406.361 214.955 403.779 214.887C400.625 214.874 397.474 214.696 394.338 214.356C385.898 213.25 377.509 211.715 369.104 210.368C360.315 208.919 351.575 207.217 342.796 205.661C332.046 203.861 321.179 202.905 310.428 201.118C303.331 199.996 296.177 198.599 289.089 197.22C280.817 195.75 272.431 195.096 264.078 194.229C255.725 193.361 247.575 192.647 239.3 192.423C229.668 192.214 220.033 192.492 210.421 192.068C200.368 191.563 190.34 190.628 180.291 190.232C171.474 189.702 162.705 189.855 153.832 189.645C147.36 189.42 140.922 188.805 134.449 188.593C125.861 188.232 117.254 188.535 108.673 187.945C98.1943 187.199 87.8529 185.07 77.3478 184.471C69.5621 183.776 61.7216 183.997 53.9356 183.153C50.0444 182.711 46.1712 182.067 42.2666 181.624C38.6628 181.302 35.0725 180.981 31.5163 180.582C25.8367 179.981 20.1295 180.447 14.4388 180.576C11.8956 180.611 9.35445 180.416 6.84638 179.993C5.83018 179.885 4.84762 179.567 3.96154 179.058C3.85161 179.11 3.73414 179.146 3.61336 179.162C3.35514 179.187 3.09616 179.124 2.87773 178.984C2.6593 178.844 2.49399 178.635 2.40818 178.391C2.36642 178.333 2.33108 178.27 2.30277 178.205C2.25678 178.035 2.27295 177.853 2.34838 177.694C2.23285 173.247 2.36765 168.797 2.75212 164.366C3.13193 158.138 3.44449 151.904 4.0248 145.707C5.39857 135.541 7.41116 125.472 10.0506 115.559C10.8766 111.895 11.986 108.3 13.3687 104.808C15.6388 99.7248 18.452 94.9339 21.0842 90.0454C25.0946 82.6234 29.193 75.128 34.5591 68.6131C39.9813 62.1437 45.7535 55.9759 51.8499 50.1375C56.3459 45.4731 61.1764 41.1433 66.303 37.1825C76.2288 30.3021 87.8584 26.3525 99.4539 23.2401C115.552 19.337 132.372 18.8868 148.805 19.893C153.047 20.2039 157.571 20.54 161.721 20.504C164.364 20.5095 167.004 20.5419 169.637 20.804C170.848 20.9121 173.349 21.2845 175.714 21.8209C176.783 21.5368 177.959 21.574 179.031 21.3987C179.944 21.2112 180.893 21.3585 181.705 21.8136C182.87 22.7309 184.033 23.675 185.227 24.5678C190.434 28.0416 194.979 32.3916 200.237 35.748C204.976 38.6786 210.3 39.7773 215.603 41.1047C223.204 43.1963 231.097 44.0291 238.967 43.57C245.477 42.9178 250.647 38.4457 256.36 35.635C260.945 33.1708 265.61 30.8629 270.149 28.2998C271.505 27.592 272.791 26.7583 273.99 25.81C274.355 25.5172 274.36 25.0027 274.664 24.6367C275.645 23.3688 276.911 24.0647 278.101 24.5504C279.281 24.8826 280.48 25.1436 281.691 25.3318C284.164 25.6352 286.612 26.1119 289.018 26.7585C294.445 28.2189 299.979 29.3906 305.158 31.6556C310.786 33.893 315.683 37.041 320.936 39.8412C324.699 41.4106 328.669 42.3343 332.471 43.7851C336.718 45.3362 340.775 47.3673 344.562 49.8389C348.205 52.1566 351.827 54.5537 355.502 56.8065C359.177 59.0593 362.767 60.9113 366.139 63.3675C371.833 67.5604 377.207 72.172 382.216 77.164C385.752 80.8275 389.747 83.895 393.263 87.638C396.937 91.7948 400.239 96.2667 403.13 101.002C405.526 104.523 407.997 107.97 410.251 111.573C416.25 121.19 418.939 132.517 420.681 143.678C422.127 152.232 422.841 160.893 422.815 169.567Z" fill="#B65E99"/>
<mask id="mask0_792_1535" style="mask-type:luminance" maskUnits="userSpaceOnUse" x="2" y="19" width="421" height="199">
<path d="M422.815 169.567C422.901 180.063 422.088 190.547 420.384 200.904C419.179 205.462 417.504 209.882 415.384 214.093C414.713 215.538 414.067 218.218 412.162 217.235C411.898 217.058 411.695 216.804 411.58 216.508C411.466 216.211 411.446 215.887 411.524 215.578C408.915 215.346 406.361 214.955 403.779 214.887C400.625 214.874 397.474 214.696 394.338 214.356C385.898 213.25 377.509 211.715 369.104 210.368C360.315 208.919 351.575 207.217 342.796 205.661C332.046 203.861 321.179 202.905 310.428 201.118C303.331 199.996 296.177 198.599 289.089 197.22C280.817 195.75 272.431 195.096 264.078 194.229C255.725 193.361 247.575 192.647 239.3 192.423C229.668 192.214 220.033 192.492 210.421 192.068C200.368 191.563 190.34 190.628 180.291 190.232C171.474 189.702 162.705 189.855 153.832 189.645C147.36 189.42 140.922 188.805 134.449 188.593C125.861 188.232 117.254 188.535 108.673 187.945C98.1943 187.199 87.8529 185.07 77.3478 184.471C69.5621 183.776 61.7216 183.997 53.9356 183.153C50.0444 182.711 46.1712 182.067 42.2666 181.624C38.6628 181.302 35.0725 180.981 31.5163 180.582C25.8367 179.981 20.1295 180.447 14.4388 180.576C11.8956 180.611 9.35445 180.416 6.84638 179.993C5.83018 179.885 4.84762 179.567 3.96154 179.058C3.85161 179.11 3.73414 179.146 3.61336 179.162C3.35514 179.187 3.09616 179.124 2.87773 178.984C2.6593 178.844 2.49399 178.635 2.40818 178.391C2.36642 178.333 2.33108 178.27 2.30277 178.205C2.25678 178.035 2.27295 177.853 2.34838 177.694C2.23285 173.247 2.36765 168.797 2.75212 164.366C3.13193 158.138 3.44449 151.904 4.0248 145.707C5.39857 135.541 7.41116 125.472 10.0506 115.559C10.8766 111.895 11.986 108.3 13.3687 104.808C15.6388 99.7248 18.452 94.9339 21.0842 90.0454C25.0946 82.6234 29.193 75.128 34.5591 68.6131C39.9813 62.1437 45.7535 55.9759 51.8499 50.1375C56.3459 45.4731 61.1764 41.1433 66.303 37.1825C76.2288 30.3021 87.8584 26.3525 99.4539 23.2401C115.552 19.337 132.372 18.8868 148.805 19.893C153.047 20.2039 157.571 20.54 161.721 20.504C164.364 20.5095 167.004 20.5419 169.637 20.804C170.848 20.9121 173.349 21.2845 175.714 21.8209C176.783 21.5368 177.959 21.574 179.031 21.3987C179.944 21.2112 180.893 21.3585 181.705 21.8136C182.87 22.7309 184.033 23.675 185.227 24.5678C190.434 28.0416 194.979 32.3916 200.237 35.748C204.976 38.6786 210.3 39.7773 215.603 41.1047C223.204 43.1963 231.097 44.0291 238.967 43.57C245.477 42.9178 250.647 38.4457 256.36 35.635C260.945 33.1708 265.61 30.8629 270.149 28.2998C271.505 27.592 272.791 26.7583 273.99 25.81C274.355 25.5172 274.36 25.0027 274.664 24.6367C275.645 23.3688 276.911 24.0647 278.101 24.5504C279.281 24.8826 280.48 25.1436 281.691 25.3318C284.164 25.6352 286.612 26.1119 289.018 26.7585C294.445 28.2189 299.979 29.3906 305.158 31.6556C310.786 33.893 315.683 37.041 320.936 39.8412C324.699 41.4106 328.669 42.3343 332.471 43.7851C336.718 45.3362 340.775 47.3673 344.562 49.8389C348.205 52.1566 351.827 54.5537 355.502 56.8065C359.177 59.0593 362.767 60.9113 366.139 63.3675C371.833 67.5604 377.207 72.172 382.216 77.164C385.752 80.8275 389.747 83.895 393.263 87.638C396.937 91.7948 400.239 96.2667 403.13 101.002C405.526 104.523 407.997 107.97 410.251 111.573C416.25 121.19 418.939 132.517 420.681 143.678C422.127 152.232 422.841 160.893 422.815 169.567Z" fill="white"/>
</mask>
<g mask="url(#mask0_792_1535)">
<path d="M141.625 186.577C140.44 183.909 142.866 183.001 144.724 182.232C146.116 181.814 147.412 180.357 148.905 180.938C149.103 180.921 149.302 180.949 149.488 181.018C149.674 181.088 149.842 181.197 149.981 181.339C150.119 181.481 150.225 181.651 150.29 181.839C150.356 182.026 150.379 182.226 150.359 182.423C149.811 184.15 148.028 184.993 146.62 185.884C146.078 186.337 145.535 186.804 144.981 187.242C144.727 187.448 144.431 187.595 144.114 187.673C143.798 187.751 143.467 187.759 143.147 187.695C142.827 187.632 142.525 187.499 142.262 187.305C141.998 187.112 141.781 186.863 141.625 186.577Z" fill="#B65E99"/>
<path d="M141.886 186.993C140.77 186.744 140.678 185.34 140.764 184.372C140.858 183.68 141.215 183.051 141.761 182.617L142.484 182.113C144.1 180.934 145.817 179.899 147.613 179.019C147.909 178.898 148.227 178.838 148.547 178.842C148.867 178.846 149.183 178.914 149.476 179.043C149.77 179.172 150.034 179.358 150.254 179.59C150.474 179.823 150.644 180.098 150.756 180.398C150.965 180.97 150.975 181.597 150.783 182.175C150.591 182.753 150.209 183.25 149.699 183.584C148.033 184.79 146.313 185.992 144.56 187.096C144.153 187.343 143.683 187.464 143.208 187.446C142.732 187.428 142.273 187.27 141.886 186.993Z" fill="#B65E99"/>
<path d="M64.3034 196.82C61.5016 194.347 64.7836 191.441 66.4205 189.351C68.7662 186.456 71.014 183.445 73.1774 180.466C78.1576 173.535 82.6556 166.269 86.6397 158.721C99.948 135.512 107.85 96.1922 76.5825 84.6313C60.3694 78.7382 42.2071 82.8366 27.2542 90.61C23.5687 92.6368 20.0276 94.9156 16.656 97.4303C14.8181 98.4318 11.1222 103.09 10.0647 99.146C23.4825 78.6574 59.9011 69.5609 81.8395 80.0992C94.8278 85.6773 102.918 99.9672 104.037 114.001C105.668 134.898 95.855 154.637 85.5316 171.891C81.6575 178.128 77.4636 184.159 72.9667 189.962C70.4942 192.303 68.3749 199.189 64.3034 196.82Z" fill="#E55E25"/>
<path d="M41.7785 195.012C36.9888 190.667 46.6291 183.341 48.7323 179.368C52.6997 174.115 56.3075 168.6 59.5312 162.861C71.1524 143.215 80.5422 102.713 48.3453 99.7441C33.3307 98.7967 19.092 106.01 7.17195 114.732C5.202 115.695 -6.15952 127.421 -4.34908 120.047C11.2721 103.117 34.9999 87.2351 58.5598 94.4889C90.9412 107.234 77.7474 151.326 62.8963 173.598C59.7614 177.438 46.3102 199.971 41.7785 195.012Z" fill="#E55E25"/>
<path d="M82.5399 203.449C81.8665 202.879 81.4318 202.076 81.3217 201.2C81.2117 200.325 81.4343 199.439 81.9455 198.72C84.995 194.926 88.0445 191.132 91.094 187.338C97.9394 178.519 103.84 169.006 108.7 158.955C114.892 146.374 121.38 133.372 123.095 119.172C123.179 98.6449 118.075 78.5359 98.0856 69.8523C79.235 59.4949 56.4368 62.9896 37.1908 70.4204C31.5962 72.7761 26.2179 75.6158 21.1171 78.907C18.6811 80.3838 17.6195 76.9411 19.7453 75.5993C42.5769 55.7885 79.2898 48.8598 105.738 65.2088C124.455 74.0227 130.539 96.3608 131.037 115.842C130.753 131.16 123.735 145.402 117.159 158.789C111.657 170.49 104.833 181.523 96.8201 191.671C93.6169 195.669 90.1395 199.397 86.7367 203.2C86.1974 203.763 85.4654 204.102 84.6871 204.148C83.9089 204.194 83.1419 203.945 82.5399 203.449Z" fill="#E55E25"/>
<path d="M103.69 205.649C98.6339 201.552 109.666 192.303 111.811 188.158C118.116 179.477 124.614 170.921 130.542 161.908C140.269 145.563 149.896 121.985 146.506 102.571C142.302 87.7197 137.756 71.2253 125.972 60.6583C107.335 43.814 80.6832 39.9166 56.6136 43.9891C52.0572 44.9124 47.574 46.1656 43.1992 47.7387C41.4379 48.4896 37.2819 49.7993 37.8913 46.4652C67.1119 29.0274 109.076 33.7225 133.701 57.5938C144.631 68.6131 151.058 88.1761 154.332 103.269C156.848 123.974 148.193 146.23 138.279 163.9C132.824 172.63 126.607 180.777 120.646 189.095C117.722 193.158 114.824 197.223 111.813 201.197C109.83 203.825 107.225 208.404 103.69 205.649Z" fill="#E55E25"/>
<path d="M218.661 42.6924C219.363 42.3425 220.152 42.2039 220.931 42.2937C221.71 42.3834 222.447 42.6976 223.051 43.198C223.655 43.6984 224.101 44.3634 224.334 45.1124C224.568 45.8614 224.579 46.662 224.366 47.417C224.31 47.612 224.234 47.8006 224.139 47.9796C223.772 48.7304 223.187 49.3535 222.462 49.7681C220.351 50.9351 218.279 52.2817 216.14 53.4732C211.668 56.0172 207.009 58.2157 202.202 60.0496C192.236 63.7326 181.567 65.1199 170.991 64.108C156.554 63.1639 142.511 59.0115 129.882 51.9532C125.31 49.5763 120.963 46.7883 116.895 43.6238C111.024 39.2502 105.576 33.776 102.31 27.0869C101.768 25.9617 101.292 24.8059 100.884 23.6253C100.356 21.8026 99.7653 19.4592 101.244 17.9241C101.415 17.7384 101.644 17.616 101.894 17.5768C102.144 17.5375 102.399 17.5838 102.619 17.708C102.738 17.7512 102.841 17.8298 102.914 17.9332C102.987 18.0367 103.027 18.16 103.028 18.2867C103.146 18.8173 103.323 19.3331 103.555 19.8247C104.589 21.7952 105.811 23.661 107.205 25.3959C110.61 29.7631 114.649 33.5958 119.188 36.7668C120.296 37.5705 121.435 38.3228 122.589 39.0628C127.621 42.3993 132.944 45.2743 138.493 47.6528C146.886 51.5392 155.827 54.1068 165.003 55.2648L165.097 55.2732C173.187 56.5206 181.423 56.4875 189.503 55.175C199.939 52.9398 209.841 48.7006 218.661 42.6924Z" fill="#E55E25"/>
<path d="M203.591 34.7869C203.937 35.2703 204.099 35.8618 204.046 36.454C203.993 37.0462 203.729 37.5998 203.303 38.0142C199.009 41.4152 193.932 43.6877 188.535 44.6249C181.175 45.8016 173.693 46.0085 166.279 45.2404C159.985 44.861 153.753 43.7773 147.7 42.0095C145.471 41.3841 143.275 40.6452 141.121 39.7956C138.261 38.6642 135.527 37.2391 132.961 35.5431C131.682 34.6969 130.298 33.8008 129.014 32.8459C125.363 30.2778 122.275 26.9902 119.941 23.1851C119.107 21.7552 117.121 17.5795 120.139 17.7812C121.635 18.4447 122.964 19.4339 124.028 20.6765L125.476 22.0663C126.857 23.4467 128.332 24.7288 129.891 25.9032C133.96 28.8198 138.355 31.2501 142.989 33.1447C151.233 36.1092 159.844 37.9358 168.582 38.5741C177.107 39.186 185.94 39.69 194.198 37.0658C195.691 36.5309 197.133 35.866 198.51 35.0788C199.592 34.4976 200.652 33.5487 201.949 33.7458C202.283 33.7877 202.603 33.9027 202.887 34.0827C203.171 34.2627 203.411 34.5032 203.591 34.7869Z" fill="#E55E25"/>
<path d="M160.433 32.9943C153.029 32.5821 145.915 29.9747 139.998 25.5044C137.471 23.4489 134.438 20.5216 135.111 16.9356C135.781 15.5045 136.919 16.2702 137.807 17.0951C138.671 17.8615 139.586 18.5681 140.546 19.21C145.871 22.8804 152.009 25.2006 158.43 25.9707C164.987 26.6829 171.61 26.5036 178.118 25.4377C179.562 25.1258 180.968 24.6558 182.309 24.0363C183.892 23.3101 185.656 22.0716 187.441 22.8815C188 23.1455 188.471 23.566 188.796 24.092C189.121 24.6179 189.287 25.2269 189.273 25.8452C189.26 26.4634 189.067 27.0645 188.719 27.5757C188.371 28.0868 187.882 28.4862 187.312 28.7253C185.476 29.4018 183.68 30.2444 181.855 30.9489C178.012 32.1522 174.026 32.8401 170.002 32.9947C166.817 33.2327 163.618 33.2326 160.433 32.9943Z" fill="#E55E25"/>
<path d="M220.81 131.88C217.501 132.397 214.235 133.157 211.038 134.152C201.249 137.319 192 141.96 183.609 147.914C177.243 152.617 171.259 157.816 165.712 163.462C160.708 168.323 156.073 173.549 151.847 179.099L152.176 178.6C160.113 165.605 171.67 155.333 183.914 146.776C194.928 138.949 207.287 132.598 220.81 131.88Z" fill="#E55E25"/>
<path d="M292.074 180.206C292.302 186.03 291.626 191.854 290.071 197.471C289.163 201.117 288.07 204.706 286.806 208.24C286.66 208.66 286.499 209.098 286.323 209.552C286.63 201.986 287.483 194.452 288.877 187.009C289.18 185.545 289.5 184.083 289.838 182.622C289.741 182.459 289.692 182.271 289.697 182.081C289.72 179.237 289.881 176.377 289.946 173.523C289.755 172.498 289.762 171.445 289.965 170.421C289.99 170.139 289.95 169.837 289.949 169.539C288.186 164.393 286.198 159.323 284.268 154.231C283.249 151.673 281.328 149.658 280.196 147.158C280.144 147.038 280.109 146.912 280.094 146.783C282.925 150.301 285.255 154.194 287.017 158.352C287.386 159.226 287.729 160.097 288.043 160.979C289.262 164.294 290.213 167.701 290.888 171.168C290.972 171.595 291.041 172.035 291.125 172.463C291.262 173.207 291.372 173.949 291.48 174.704C291.522 174.992 291.552 175.266 291.595 175.541C291.692 176.282 291.776 177.008 291.846 177.746C291.916 178.484 292.027 179.361 292.074 180.206Z" fill="#E55E25"/>
<path d="M251.906 211.386C243.269 209.747 256.19 190.272 248.522 173.376C241.776 153.297 216.735 155.195 201.225 162.377C188.781 168.463 180.611 180.732 172.366 191.707C172.42 192.769 171.231 193.178 170.804 194.021C169.552 195.901 167.368 193.795 168.167 191.982C173.084 181.285 179.635 171.416 187.585 162.731C194.924 154.915 204.952 150.389 215.158 148.562C238.934 143.528 258.278 156.559 260.104 182.258C260.622 187.699 259.41 212.964 251.906 211.386Z" fill="#E55E25"/>
<path d="M229.587 209.678C222.418 208.143 231.029 191.4 227.659 184.973C225.015 173.894 211.651 178.746 204.753 182.386C197.063 186.538 191.242 193.595 186.574 201.094C178.479 202.648 192.322 183.472 194.504 181.796C200.169 175.439 207.764 171.117 216.123 169.494C230.458 166.071 238.995 179.899 236.656 193.502C235.486 197.952 235.745 210.241 229.587 209.678Z" fill="#E55E25"/>
<path d="M246.584 46.4595C246.756 46.7293 246.857 47.0388 246.876 47.3583C246.895 47.6779 246.831 47.9971 246.692 48.2853C245.952 49.3349 245.031 50.2441 243.972 50.9702C241.646 52.8905 239.369 54.8559 237.081 56.8067C236.099 57.6272 235.115 58.4746 234.143 59.3501C237.863 54.6609 242.03 50.3437 246.584 46.4595Z" fill="#E55E25"/>
<path d="M291.143 25.6064C291.496 26.6545 291.047 27.8886 289.264 27.9733C281.096 32.476 272.747 36.7185 264.982 41.8671C268.109 39.0613 271.424 36.4725 274.904 34.1189C279.926 30.5909 285.384 27.7295 291.143 25.6064Z" fill="#E55E25"/>
<path d="M341.484 106.79C344.279 105.846 347.146 104.855 349.884 103.799C344.918 106.283 339.958 108.7 334.838 110.94C337.03 109.469 339.263 108.136 341.484 106.79Z" fill="#E55E25"/>
<path d="M375.387 58.7718C378.187 63.847 371.004 66.1199 367.77 68.1895C363.224 70.6708 358.705 73.1678 354.172 75.6637C340.319 83.6359 325.628 90.0519 310.365 94.7948L310.284 94.7876C299.994 97.7047 289.18 99.5043 278.548 98.0536C247.461 92.6624 254.028 69.0547 269.058 50.7025C275.822 42.4962 284.304 35.3921 291.755 31.4895C293.689 30.4695 295.599 29.1219 297.564 28.0639C299.223 27.0754 301.047 26.3934 302.948 26.0507C303.271 26.0713 303.586 26.1643 303.868 26.3229C304.15 26.4814 304.394 26.7014 304.579 26.9665C304.765 27.2317 304.889 27.5352 304.942 27.8547C304.995 28.1742 304.975 28.5015 304.884 28.8123C304.785 29.3113 304.502 29.7549 304.091 30.0547C303.68 30.3546 303.171 30.4887 302.666 30.4305C299.926 32.1241 297.195 33.8592 294.511 35.6933C288.034 39.8477 282.173 44.8908 277.098 50.6748C261.836 69.806 255.625 90.1924 287.674 89.8007C308.092 88.8313 327.37 80.2784 345.415 70.8158C351.882 67.3088 358.342 63.7696 364.796 60.1983C368.005 58.7227 372.593 54.8492 375.387 58.7718Z" fill="#E55E25"/>
<path d="M290.055 75.2798C273.417 67.9121 288.839 49.4187 297.504 41.7887C300.143 39.5574 313.023 26.6111 315.442 31.3948C316.361 33.2524 314.794 34.5493 313.211 35.1263C310.283 37.0669 307.566 39.3092 305.105 41.8167C282.264 65.3811 286.666 74.2183 318.065 63.6571C326.493 60.7171 334.759 57.3287 342.826 53.5064C346.678 52.2645 352.872 47.2602 355.881 51.9611C358.582 58.5997 341.944 62.17 337.695 64.9759C322.746 70.7301 306.249 79.7075 290.055 75.2798Z" fill="#E55E25"/>
<path d="M339.425 39.0795C344.02 38.0124 346.004 45.0885 341.464 46.6078C331.279 49.1006 321.291 56.3685 310.591 54.0037C306.166 52.2532 304.734 49.9296 305.049 47.6129C305.469 44.5736 308.881 41.4354 312.592 39.0289C314.577 37.738 316.677 36.6324 318.865 35.7259C319.075 35.6047 319.308 35.5284 319.55 35.502C319.791 35.4756 320.036 35.4996 320.268 35.5725C320.499 35.6454 320.713 35.7657 320.896 35.9256C321.079 36.0856 321.227 36.2818 321.33 36.5017C321.487 36.737 321.587 37.0052 321.623 37.2855C321.659 37.5659 321.63 37.8508 321.538 38.118C321.446 38.3853 321.293 38.6276 321.092 38.8263C320.891 39.0249 320.647 39.1744 320.379 39.2632C317.838 40.7672 315.551 42.6626 313.602 44.8795C313.087 45.4819 312.622 46.1248 312.21 46.8019C313.063 46.9191 313.925 46.9688 314.786 46.9505C322.782 46.8104 330.205 41.2383 338.004 39.3593C338.501 39.2591 338.974 39.1658 339.425 39.0795Z" fill="#E55E25"/>
<path d="M300.761 214.202C296.249 212.973 297.247 189.491 297.737 184.913C299.023 170.511 305.498 157.346 313.071 145.389C323.951 127.819 335.39 118.417 352.851 108.211C363.833 101.791 375.595 96.3621 388.129 93.9705C395.447 92.347 402.954 91.7356 410.439 92.1535C411.33 92.2584 412.15 92.6908 412.741 93.3666C413.331 94.0425 413.649 94.9137 413.633 95.811C413.617 96.7083 413.269 97.5677 412.655 98.2222C412.041 98.8767 411.205 99.2797 410.311 99.3529L403.809 99.7619C395.745 100.272 387.768 101.726 380.042 104.092C372.17 106.775 364.593 110.254 357.428 114.475C348.981 119.522 340.64 124.89 333.51 131.735C326.997 138.419 321.341 145.886 316.67 153.965C310.832 163.488 306.017 173.847 304.285 185.05C303.099 193.195 302.43 201.406 302.28 209.635C302.176 210.804 302.493 211.958 302.512 213.112C302.484 213.306 302.413 213.492 302.306 213.656C302.198 213.821 302.056 213.96 301.89 214.063C301.723 214.167 301.535 214.234 301.341 214.257C301.146 214.281 300.948 214.263 300.761 214.202Z" fill="#E55E25"/>
<path d="M317.973 219.547C302.531 187.713 331.227 141.385 357.116 123C371.799 112.179 393.74 100.977 411.544 109.696C417.809 113.305 422.199 119.403 425.75 125.63C427.006 128.561 431.216 132.57 428.291 135.575C418.712 140.236 418.275 107.329 390.079 114.814C355.273 123.458 327.137 158.505 320 193.664C318.861 199.567 318.715 205.619 319.567 211.571C319.437 214.08 322.922 221.656 317.973 219.547Z" fill="#E55E25"/>
<path d="M340.332 219.009C336.885 217.535 336.313 211.195 335.914 207.771C334.792 197.261 337.39 186.826 340.92 177.044C344.45 167.261 349.425 157.689 356.856 150.369C369.002 137.899 386.712 132.486 403.56 134.465C411.872 135.226 419.616 139.009 425.327 145.096C426.928 146.744 428.502 148.402 430.043 150.112C431.251 151.291 432.179 152.727 432.759 154.312C433.232 156.148 433.333 158.061 433.056 159.937C432.957 160.897 432.517 161.791 431.816 162.456C431.116 163.121 430.201 163.514 429.236 163.564C428.271 163.614 427.32 163.317 426.555 162.727C425.79 162.137 425.261 161.293 425.063 160.348C425.008 159.661 424.844 158.988 424.577 158.353C423.89 157.546 423.157 156.803 422.442 156.007C419.904 153.015 417.034 150.321 413.888 147.978C408.576 144.468 402.914 143.664 396.667 143.5C388.59 143.273 380.582 145.044 373.355 148.656C360.813 154.626 352.453 166.891 347.086 179.641C343.659 187.657 340.718 196.015 340.072 204.767C339.841 207.642 339.855 210.532 340.114 213.405C340.22 214.52 340.512 215.608 340.978 216.627C341.153 215.883 341.432 215.041 342.329 215.31C342.553 215.403 342.732 215.577 342.831 215.798C342.93 216.018 342.94 216.268 342.86 216.496C342.421 217.921 342.005 219.402 340.332 219.009Z" fill="#E55E25"/>
<path d="M353.834 229.147C349.82 220.059 350.628 208.882 352.602 199.218C355.531 186.305 361.934 173.485 373.031 166.235C376.784 163.851 380.759 161.836 384.9 160.219C392.049 157.266 400.084 155.475 407.628 157.653C410.982 158.701 414.085 160.427 416.745 162.723C423.077 167.707 427.301 174.902 430.342 182.438C431.446 185.248 434.307 191.155 433.261 194.071C433.002 194.817 432.538 195.475 431.921 195.968C431.305 196.462 430.561 196.771 429.777 196.859C428.992 196.948 428.198 196.813 427.487 196.47C426.776 196.126 426.176 195.589 425.758 194.919C425.137 193.82 424.474 192.744 423.869 191.633C421.303 186.673 419.371 181.283 416.232 176.665C412.908 172.302 408.521 167.844 403.016 166.96C398.041 166.204 393.119 167.594 388.464 169.334C385.144 170.617 381.923 172.141 378.826 173.895C368.001 180.221 362.171 192.536 358.907 204.511C356.919 211.907 356.125 219.574 356.554 227.221C356.623 227.993 356.644 228.769 356.618 229.544C356.556 230.23 356.18 230.955 355.435 230.794C354.691 230.633 354.167 229.813 353.834 229.147Z" fill="#E55E25"/>
<path d="M370.619 229.398C364.694 217.877 375.897 195.333 385.661 188.289C396.453 180.212 416.876 186.766 423.21 198.107C425.496 202.826 426.281 208.133 425.458 213.312C424.999 218.449 417.46 218.331 417.338 213.17C417.216 208.008 416.209 202.443 412.205 199.158C407.015 195.509 400.565 192.9 394.163 193.101C382.156 195.513 373.072 214.518 373.154 226.358C374.653 228.091 372.397 230.736 370.619 229.398Z" fill="#E55E25"/>
<path d="M26.4874 191.817C21.6462 187.441 28.3062 182.072 30.4252 178.073C34.7894 171.63 38.8223 164.969 42.508 158.115C53.0078 138.884 52.6437 109.562 23.736 120.914C17.3664 123.414 11.5218 127.085 6.50492 131.737C3.56465 134.308 1.34116 137.959 -1.71797 140.342C-5.48645 140.954 -4.35624 136.189 -2.86702 134.235C5.91096 118.957 23.7109 107.684 41.2286 110.047C56.079 112.986 59.3148 130.637 56.9442 143.831C55.2635 154.307 49.9679 163.674 44.7021 172.557C42.0277 177.008 39.248 181.372 36.3631 185.651C34.111 189.015 30.971 195.037 26.4874 191.817Z" fill="#D3E5CF"/>
<path d="M8.00155 197.296C3.42646 193.431 8.87479 188.577 10.899 184.882C14.0261 180.321 16.7638 175.506 19.0832 170.486C33.9761 135.599 11.89 144.782 -5.44833 161.058C-19.9236 162.572 17.2361 125.891 28.1782 139.663C37.8867 149.489 32.0653 164.746 27.0471 175.561C23.5059 183.115 19.0584 190.21 13.8027 196.689C13.0917 197.505 12.098 198.021 11.0216 198.134C9.94518 198.246 8.86607 197.947 8.00155 197.296Z" fill="#D3E5CF"/>
<path d="M61.2548 187.548C56.7888 184.587 61.3191 179.692 63.0923 176.53C65.7024 172.344 68.4239 168.277 70.8419 163.966C77.3555 152.172 82.3911 139.62 85.8348 126.594C95.5323 74.5989 32.7221 87.9672 7.34958 107.09C7.25924 107.501 7.01535 107.861 6.66784 108.098C6.32033 108.335 5.89552 108.429 5.48044 108.363C5.06535 108.296 4.6914 108.074 4.4352 107.74C4.179 107.407 4.05995 106.988 4.10241 106.57C4.30048 103.592 7.39252 101.903 9.28394 99.9981C29.3544 83.1802 63.388 71.6479 86.147 89.2398C97.3992 99.0816 98.0225 116.391 95.2485 130.308C92.8652 140.152 87.8561 149.044 84.0332 158.312C80.6126 165.137 76.7103 171.71 72.3558 177.98C69.2748 181.216 66.5904 190.03 61.2548 187.548Z" fill="#D3E5CF"/>
<path d="M76.8342 201.937C75.8565 201.294 75.1548 200.308 74.8672 199.174C74.5797 198.039 74.7271 196.838 75.2806 195.807C77.6923 191.414 80.2717 187.117 82.8253 182.805C87.4721 175.087 91.4703 166.892 95.5175 158.754C100.801 147.293 104.843 135.299 107.576 122.978C110.145 111.808 108.896 100.907 102.383 91.421C98.7999 86.0048 93.2597 82.4741 87.6985 79.4837C84.8306 78.0365 81.8742 76.7721 78.8468 75.698C75.7805 74.9186 72.6466 74.4346 69.488 74.2526C58.5516 73.7777 47.7248 76.0235 37.25 79.0326C31.2092 80.5212 25.3692 82.7302 19.8556 85.6121C18.3082 86.3957 16.7719 87.2073 15.2356 88.0189C14.0189 88.8168 12.6572 89.3676 11.228 89.64C8.3511 89.0714 14.9522 83.6021 15.7161 82.7893C17.6797 81.0976 19.7657 79.5532 21.9568 78.1688C28.3303 74.0345 35.534 71.5331 42.6656 69.0794C54.9014 65.1703 69.1378 64.0558 81.5291 67.8186C87.4753 70.0049 93.1544 72.8582 98.4579 76.3238C104.164 79.9193 108.804 84.9759 111.897 90.9692C118.905 103.563 117.529 116.859 113.728 130.277C110.266 143.103 105.617 155.579 99.8427 167.544C95.6457 176.752 90.7403 185.545 85.8741 194.354C84.7883 196.344 83.7036 198.321 82.6313 200.313C82.3658 200.809 82.0029 201.246 81.5643 201.597C81.1257 201.949 80.6205 202.209 80.079 202.361C79.5375 202.512 78.9709 202.553 78.4133 202.48C77.8557 202.407 77.3186 202.223 76.8342 201.937Z" fill="#D3E5CF"/>
<path d="M210.805 38.386C211.292 38.2067 211.82 38.1662 212.329 38.2688C212.838 38.3715 213.309 38.6133 213.689 38.9675C214.069 39.3217 214.343 39.7742 214.481 40.2749C214.619 40.7756 214.616 41.3048 214.471 41.8036C214.249 42.4973 213.776 43.0833 213.145 43.4473C206.7 47.4265 199.798 50.6149 192.59 52.9434C183.594 55.0923 174.327 55.8778 165.098 55.2736C164.049 55.18 163 55.0863 161.938 54.9915C151.568 54.3911 141.309 51.7945 132.475 46.1399C127.839 43.3444 123.403 40.231 119.197 36.8221C114.022 32.3888 109.781 27.0629 108.577 20.2055C109.842 15.6017 114.265 20.7133 115.953 22.4499C119.172 25.5991 122.658 28.4634 126.371 31.0109C127.263 31.6462 128.143 32.2669 129.012 32.8595C132.853 35.4989 136.902 37.823 141.119 39.8093C150.339 43.9652 160.265 46.3324 170.369 46.785C178.547 47.1668 186.739 46.4111 194.709 44.5393C200.116 42.5823 205.346 40.1757 210.805 38.386Z" fill="#D3E5CF"/>
<path d="M184.705 26.3377C184.746 27.0498 184.559 27.7564 184.172 28.3553C183.784 28.9542 183.216 29.4145 182.55 29.6694C175.847 31.8767 167.715 33.2381 160.79 31.5626C158.657 31.0175 156.611 30.1779 154.71 29.068C152.481 27.7583 150.384 26.2365 148.447 24.524C146.854 22.9315 144.084 20.5562 144.287 18.1346C144.32 17.9183 144.402 17.7126 144.527 17.5331C144.653 17.3536 144.817 17.2051 145.008 17.0992C145.2 16.9932 145.413 16.9326 145.632 16.9219C145.85 16.9112 146.068 16.9507 146.269 17.0375C151.489 19.2926 156.344 22.7621 161.895 24.1929C166.166 24.9597 170.545 24.8904 174.79 23.9887L180.127 23.1098C180.955 22.8732 181.839 22.9234 182.635 23.2524C183.244 23.5078 183.765 23.9363 184.133 24.4847C184.501 25.0331 184.699 25.6774 184.705 26.3377Z" fill="#D3E5CF"/>
<path d="M100.356 37.8913C90.5205 36.1729 80.7324 33.7674 70.8652 32.3986C70.4903 32.2359 70.1705 31.9682 69.9442 31.6279C69.7179 31.2876 69.5948 30.8891 69.5897 30.4805C69.5847 30.0718 69.6979 29.6704 69.9157 29.3246C70.1335 28.9788 70.4467 28.7034 70.8174 28.5314C73.1815 27.973 75.6098 27.7339 78.0374 27.8206C78.4271 26.1882 80.179 25.694 81.6443 25.5266C83.7633 25.0815 85.8521 24.5029 87.8982 23.7943C91.2424 23.0763 97.9389 17.602 100.071 22.2651C101.544 26.1807 102.599 30.2412 103.218 34.3788C103.902 36.4323 102.712 38.6844 100.356 37.8913Z" fill="#D3E5CF"/>
<path d="M350.797 50.165C350.754 50.7877 350.561 51.3908 350.235 51.9232C349.909 52.4556 349.46 52.9017 348.925 53.2237C346.545 54.4312 344.105 55.5163 341.614 56.4746C330.562 60.7876 316.948 67.8266 304.59 67.3333C302.474 67.2735 300.373 66.9631 298.33 66.4084C293.367 64.61 292.124 61.0699 292.771 57.1698C293.607 52.2024 297.533 46.6433 300.683 43.3869C304.096 39.6254 310.324 33.0248 315.704 32.2717C316.055 32.2159 316.411 32.1932 316.767 32.204C319.766 33.9898 315.304 36.1396 314.094 37.5496L312.607 39.0298C309.883 41.7002 307.362 44.5694 305.063 47.6137C302.628 50.7901 300.893 54.4461 299.972 58.3413C313.089 61.8707 333.025 49.744 345.591 45.3223C348.724 44.5447 351.009 47.4867 350.797 50.165Z" fill="#D3E5CF"/>
<path d="M412.569 98.3752C417.351 99.0189 420.27 100.933 417.442 105.587C414.492 108.265 408.301 106.411 404.441 107.137L403.718 107.181C396.144 107.619 388.622 108.717 381.238 110.46C379.094 110.992 376.987 111.613 374.918 112.322C357.716 118.268 343.176 130.674 333.466 146.37C332.126 148.527 330.811 150.705 329.522 152.903C323.942 162.235 319.419 172.16 316.037 182.494C315.32 184.748 314.697 187.023 314.139 189.332C312.086 196.682 310.831 204.231 310.393 211.85C310.12 213.398 311.018 214.264 310.715 215.687C310.596 216.072 310.358 216.409 310.035 216.649C309.712 216.89 309.322 217.022 308.919 217.027C308.516 217.032 308.123 216.909 307.795 216.676C307.466 216.443 307.22 216.111 307.092 215.73C302.924 193.034 310.629 169.284 321.152 149.337C323.008 145.616 325.099 142.018 327.413 138.564C342.118 116.564 365.366 101.507 392.001 99.3582C395.091 99.2139 405.751 97.4683 412.569 98.3752Z" fill="#D3E5CF"/>
<path d="M425.338 123.411C425.976 123.602 426.57 123.92 427.082 124.346C427.595 124.772 428.016 125.298 428.32 125.891C428.624 126.484 428.805 127.133 428.852 127.798C428.899 128.463 428.811 129.13 428.593 129.76C428.541 129.923 428.472 130.081 428.389 130.23C427.933 131.15 427.185 131.893 426.262 132.343C425.339 132.792 424.293 132.924 423.287 132.716L421.519 132.327C420.097 132.011 418.686 131.722 417.273 131.46C408.753 130.334 400.342 129.502 391.886 130.549C386.688 131.556 381.664 133.313 376.972 135.765C371.021 138.624 365.531 142.355 360.681 146.834C354.513 152.575 349.334 159.293 345.352 166.718C340.823 175.181 337.383 184.183 335.112 193.509C333.705 198.762 332.623 204.098 331.87 209.484C331.643 211.117 331.444 212.74 331.231 214.361C331.215 215.086 331.017 215.795 330.654 216.424C330.538 216.597 330.378 216.736 330.19 216.826C330.002 216.916 329.793 216.954 329.585 216.936C329.377 216.917 329.178 216.843 329.009 216.721C328.84 216.599 328.707 216.434 328.624 216.242C327.71 213.572 327.944 210.652 327.8 207.86C327.631 202.588 327.97 197.313 328.813 192.106C329.522 186.491 330.711 180.947 332.366 175.535C335.375 165.612 340.159 156.317 346.485 148.101C354.149 138.177 364.201 130.354 375.705 125.364C383.636 121.485 392.409 119.646 401.23 120.012C405.399 120.131 409.558 120.466 413.692 121.016C414.781 121.113 415.86 121.318 416.931 121.468C419.081 121.836 421.229 122.217 423.333 122.785L424.22 123.027L425.338 123.411Z" fill="#D3E5CF"/>
<path d="M431.344 163.023C434.782 165.81 437.113 169.15 435.046 172.259C431.399 176.528 428.493 172.785 422.745 168.856C416.731 164.543 409.382 162.504 402.006 163.101C379.9 165.519 357.787 181.843 351.68 204.543C351.657 204.799 351.539 205.059 351.476 205.311C350.105 211.082 349.156 216.945 348.636 222.854C348.138 224.639 349.253 227.477 347.402 228.477C347.051 228.598 346.667 228.582 346.326 228.434C345.986 228.286 345.713 228.015 345.562 227.676C344.692 222.005 344.446 216.256 344.829 210.532C345.317 200.923 348.109 191.573 352.969 183.27C360.361 172.179 370.797 163.457 383.025 158.154C384.05 157.703 385.089 157.294 386.143 156.928C397.446 152.84 409.711 152.255 421.012 156.991C421.94 157.372 423.255 157.977 424.73 158.76C426.115 159.48 427.46 160.275 428.76 161.139C429.657 161.717 430.52 162.346 431.344 163.023Z" fill="#D3E5CF"/>
<path d="M434.28 192.535C437.349 196.265 432.377 201.853 428.603 198.886C426.65 197.48 424.826 195.902 423.155 194.171C417.409 188.237 411.449 183.638 402.881 185.177L402.652 185.157C395.435 186.451 387.619 187.461 381.529 192.054L381.24 192.259C371.73 200.559 367.097 214.038 366.543 226.621C366.266 228.507 367.418 230.183 367.055 231.966C366.948 232.315 366.76 232.633 366.506 232.894C366.251 233.155 365.938 233.352 365.593 233.468C365.247 233.585 364.879 233.617 364.519 233.562C364.158 233.508 363.816 233.368 363.52 233.155C355.949 217.909 365.864 191.713 379.488 182.588C389.428 176.832 400.947 174.403 412.365 175.655C413.72 175.941 415.044 176.354 416.321 176.89C423.14 179.762 428.457 185.943 433.369 191.505C433.697 191.927 433.982 192.224 434.28 192.535Z" fill="#D3E5CF"/>
<path d="M246.833 177.116C248.202 183.188 250.08 213.771 240.607 211.936C234.735 210.598 237.887 203.384 237.964 199.027C238.498 189.709 239.851 177.888 232.96 170.821C223.087 164.966 208.629 169.313 199.246 174.819C196.532 176.449 193.904 178.218 191.373 180.121C189.919 181.224 188.461 182.368 187.094 183.561C184.79 184.927 177.448 194.898 176.634 188.374C178.923 183.455 182.1 179.001 186.007 175.237C191.849 169.597 198.638 165.033 206.065 161.752C221.854 155.693 243.135 156.292 246.833 177.116Z" fill="#D3E5CF"/>
<path d="M264.361 164.042C269.778 176.236 269.54 190.596 266.419 203.532C266.248 204.163 265.898 204.732 265.412 205.169C264.926 205.606 264.324 205.894 263.678 205.998C263.132 206.104 262.568 206.082 262.032 205.935C261.496 205.787 261 205.518 260.585 205.147C260.17 204.777 259.845 204.316 259.637 203.8C259.429 203.284 259.342 202.727 259.384 202.172C259.586 195.657 260.989 189.209 260.569 182.679C260.452 176.691 258.784 170.835 255.729 165.684C252.451 160.677 248.234 156.351 243.312 152.946C240.734 151.174 237.922 149.769 234.956 148.771C219.096 143.479 201.104 150.682 186.976 159.085C175.417 166.186 167.412 177.67 160.065 189.212C158.501 191.553 157.084 193.907 155.616 196.229C155.339 196.589 154.953 196.85 154.517 196.975C154.08 197.101 153.615 197.083 153.189 196.926C152.763 196.768 152.398 196.479 152.148 196.1C151.898 195.72 151.775 195.271 151.798 194.818C153.591 188.473 156.318 182.431 159.891 176.89C165.35 167.971 172.475 159.363 178.513 154.589C198.255 140.086 227.58 130.126 248.881 146.436C254.342 151.166 260.238 155.867 263.567 162.453C263.863 162.94 264.112 163.491 264.361 164.042Z" fill="#D3E5CF"/>
<path d="M189.59 174.73C190.177 174.568 190.802 174.61 191.362 174.848C191.922 175.086 192.386 175.506 192.677 176.041C192.968 176.576 193.07 177.193 192.967 177.793C192.863 178.393 192.56 178.94 192.106 179.346L191.386 180.122C190.02 181.613 188.695 183.094 187.401 184.523C185.766 186.749 183.931 188.93 182.135 190.979C180.648 192.46 179.469 195.038 177.096 194.596C176.629 194.52 176.187 194.331 175.811 194.045C175.435 193.758 175.135 193.383 174.938 192.953C174.436 192.538 174.077 191.976 173.912 191.346C173.746 190.715 173.784 190.049 174.018 189.441C174.638 188.021 175.436 186.685 176.393 185.465C178.536 182.389 180.98 179.534 183.687 176.94C184.399 176.294 185.177 175.723 186.008 175.236C186.514 174.858 187.108 174.613 187.734 174.525C188.36 174.436 188.999 174.506 189.59 174.73Z" fill="#D3E5CF"/>
<path d="M36.4694 188.899C35.9934 188.407 35.6856 187.776 35.5903 187.098C35.495 186.42 35.617 185.729 35.9389 185.125C36.635 184.008 37.2932 182.86 38.0015 181.758C39.9707 178.83 42.0158 175.962 43.9214 172.988C46.8352 168.223 49.1069 163.093 50.6778 157.733C52.8133 150.333 54.2042 142.738 54.8298 135.062C54.9937 129.885 55.3101 124.519 53.6398 119.545C52.9269 117.544 51.9728 115.639 50.7986 113.869C47.013 109.967 42.7897 108.993 37.629 109.563C28.5781 110.286 20.1755 114.375 12.2095 118.584C8.60361 120.715 4.87502 122.551 1.13417 124.372C0.113421 125.026 -1.86375 125.311 -1.82751 123.538C-1.42664 122.356 -0.770299 121.276 0.0948841 120.376C2.55807 117.519 5.28775 114.903 8.24695 112.564C18.3138 104.409 36.5166 95.9093 49.2134 101.109C54.2284 103.232 58.215 107.231 60.3223 112.253C63.6082 119.323 63.5737 127.452 63.0912 135.135C61.9575 149.808 57.6131 166.132 49.2526 178.099C47.2954 180.893 45.2232 183.609 43.102 186.266C41.5628 188.324 38.9006 191.271 36.4694 188.899Z" fill="#28130D"/>
<path d="M18.0321 192.12C15.1895 188.586 20.0911 183.48 21.2734 179.953C24.2051 174.38 26.732 168.604 28.8344 162.669C30.455 156.433 31.0993 149.985 30.7444 143.552C30.2967 138.09 28.7359 134.318 22.7482 135.193C17.1669 136.028 11.8046 137.954 6.96697 140.86C4.29873 141.597 -6.00193 151.765 -5.55058 144.432C-2.51911 139.276 1.65325 134.884 6.64626 131.592C11.6393 128.299 17.3202 126.194 23.2531 125.439C39.5111 124.302 40.1889 141.305 38.3403 153.813C37.6289 164.362 32.7075 173.79 27.8722 182.86C25.6387 186.32 23.3672 195.822 18.0321 192.12Z" fill="#28130D"/>
<path d="M-0.0491644 190.451C-6.91214 186.707 9.06737 172.14 7.96848 163.801C5.40764 165.042 3.19012 166.892 1.5102 169.189C0.380473 173.493 -4.99494 170.546 -1.43711 165.157C1.55908 159.38 11.3231 149.91 15.4113 159.532C17.9211 168.16 12.7888 176.457 8.50633 183.435C6.28523 186.3 4.34846 192.66 -0.0491644 190.451Z" fill="#28130D"/>
<path d="M230.503 49.5781C230.464 50.0129 230.334 50.4346 230.12 50.8151C229.906 51.1956 229.613 51.5262 229.262 51.7851C228.608 52.2824 227.826 52.687 227.188 53.1586C223.521 56.1202 219.553 58.6871 215.349 60.817C209.805 63.5693 203.964 65.6764 197.941 67.0971C193.046 68.3789 188.062 69.2932 183.031 69.8322C178.18 70.3317 173.287 70.2543 168.454 69.6016C154.765 68.3796 145.706 64.9413 134.968 58.9C132.955 57.7625 130.865 56.5367 128.696 55.2226C122.202 51.6499 115.976 47.6106 110.067 43.1364L107.707 41.3399C102.444 37.2783 97.1911 32.8109 94.8632 26.3953C94.2293 24.3869 92.9984 22.0813 93.8897 19.9922C94.0416 19.6649 94.2992 19.3982 94.6211 19.2351C94.943 19.0721 95.3105 19.0222 95.6642 19.0934C96.2531 19.314 96.7509 19.726 97.0778 20.2633C97.907 21.2996 98.6348 22.4083 99.4065 23.4802C100.178 24.5521 101.289 25.9253 102.312 27.0738C104.145 29.1409 106.179 31.0206 108.384 32.6851C115.469 38.2334 122.971 43.2262 130.825 47.6191C138.865 52.1455 146.841 57.0865 155.718 59.6816C159.241 60.6432 162.829 61.3485 166.454 61.7922C170.599 62.3859 174.774 62.7586 178.959 62.9086C188.18 62.4223 197.298 60.7348 206.082 57.8888C209.771 56.684 213.303 55.0427 216.602 52.9998C219.159 51.3847 221.657 49.6695 224.143 47.9396L226.079 46.5944C226.563 46.338 227.108 46.2179 227.655 46.247C228.203 46.2762 228.731 46.4534 229.186 46.7598C229.64 47.0662 230.002 47.4903 230.234 47.9867C230.466 48.483 230.559 49.0331 230.503 49.5781Z" fill="#28130D"/>
<path d="M207.163 29.386C208.598 32.2926 205.935 33.7221 203.594 34.7465L202.188 35.3122C200.05 36.4081 197.849 37.3793 195.599 38.2209C188.267 40.7721 180.472 41.7128 172.744 40.9787C156.388 38.5155 136.665 37.1614 125.89 22.7402C125.741 22.483 125.574 22.2242 125.39 21.9637C124.195 20.1628 122.401 18.0915 123.387 16.0108C125.477 12.3345 132.551 21.9118 135.323 23.0537C137.044 24.2335 138.866 25.258 140.769 26.1153C147.975 29.3609 156.082 30.3965 163.738 32.0965C165.062 32.4451 166.391 32.74 167.723 33.0079C179.711 35.3658 192.205 34.6378 202.881 28.1633C203.24 27.9526 203.638 27.817 204.051 27.7645C204.464 27.7121 204.883 27.744 205.283 27.8583C205.684 27.9726 206.057 28.1669 206.38 28.4295C206.703 28.6921 206.969 29.0175 207.163 29.386Z" fill="#28130D"/>
<path d="M357.978 54.7371C362.187 53.134 365.001 59.7284 360.861 61.7714C339.865 72.0957 316.508 87.9289 292.535 85.1517C277.352 82.4408 268.376 72.1517 277.086 57.0304C281.479 48.8979 287.372 41.6702 294.453 35.7287C297.654 33.0692 301.131 30.7622 304.826 28.8476L305.295 28.6049C305.725 28.4628 306.189 28.4639 306.618 28.608C307.047 28.7521 307.418 29.0314 307.675 29.404C307.932 29.7766 308.061 30.2225 308.043 30.6747C308.025 31.127 307.861 31.5612 307.575 31.9123C306.878 32.6672 306.122 33.3656 305.315 34.0011C301.757 36.8229 298.517 40.0241 295.652 43.548C295.395 43.8503 295.15 44.1673 294.906 44.4708C291.676 48.7638 283.282 59.4404 282.725 66.737C282.522 68.3293 282.92 69.9402 283.84 71.2551C284.707 72.0228 285.638 72.7137 286.624 73.3199C294.534 78.0923 304.913 76.6063 313.48 74.0232C323.836 70.8506 333.847 66.645 343.362 61.4698C347.263 59.5274 351.202 57.6155 355.216 55.9137C356.136 55.4807 357.051 55.1016 357.978 54.7371Z" fill="#28130D"/>
<path d="M338.059 39.3638C338.359 39.8069 338.56 40.3087 338.651 40.8358C338.741 41.3629 338.718 41.9032 338.583 42.4207C338.449 42.9383 338.205 43.4212 337.87 43.8374C337.534 44.2536 337.113 44.5935 336.636 44.8345C330.798 47.2139 321.541 51.0094 315.637 47.758C315.353 47.5092 315.088 47.2409 314.841 46.955C314.293 46.3675 313.892 45.6581 313.671 44.8852C312.707 41.2615 317.611 38.2431 321.399 36.5075C321.979 36.234 322.542 35.9996 323.036 35.7861C323.235 35.585 323.477 35.4304 323.743 35.3332C324.01 35.236 324.294 35.1987 324.577 35.224C324.859 35.2492 325.132 35.3363 325.377 35.4791C325.622 35.6219 325.833 35.8169 325.994 36.0502C327.437 38.5645 323.789 39.3368 322.605 40.9118C326.545 40.2063 330.242 38.571 334.155 37.7005C334.898 37.5113 335.683 37.5716 336.388 37.8721C337.094 38.1727 337.681 38.6968 338.059 39.3638Z" fill="#28130D"/>
<path d="M398.234 85.385C398.443 85.483 398.623 85.633 398.758 85.8206C398.892 86.0082 398.976 86.2271 399.002 86.4564C399.028 86.6857 398.994 86.9178 398.905 87.1305C398.815 87.3432 398.673 87.5294 398.491 87.6714C392.258 90.2324 386.139 93.034 380.132 95.9405C375.629 98.1002 371.162 100.317 366.709 102.522C360.204 105.858 353.977 109.708 347.803 113.589C344.758 115.513 341.689 117.394 338.839 119.565C330.212 126.928 322.782 135.752 315.716 144.609C310.406 152.159 306.738 160.303 303.182 168.714C300.885 174.733 299.02 180.908 297.601 187.192C297.404 188.042 297.218 188.906 297.02 189.756C295.408 197.338 294.637 205.062 293.612 212.751C293.338 214.759 293.063 216.768 292.816 218.779C292.689 219.554 292.306 220.265 291.728 220.796C291.218 221.259 290.579 221.557 289.896 221.651C289.214 221.745 288.519 221.629 287.903 221.321C287.287 221.012 286.778 220.524 286.444 219.922C286.111 219.319 285.967 218.629 286.032 217.943C286.134 215.133 286.237 212.309 286.393 209.504C286.7 201.938 287.553 194.404 288.947 186.961C289.25 185.497 289.57 184.035 289.908 182.574C290.446 180.196 291.023 177.835 291.665 175.493L291.848 174.818C292.186 173.615 292.522 172.425 292.887 171.224C293.013 170.87 293.127 170.514 293.254 170.146C295.117 164.613 297.32 159.202 299.851 153.941C301.183 151.173 302.606 148.44 304.105 145.768C304.495 145.78 304.881 145.691 305.227 145.511C305.573 145.331 305.867 145.065 306.081 144.738C306.285 144.617 306.459 144.452 306.591 144.255C306.724 144.059 306.811 143.835 306.847 143.601C308.178 141.552 309.665 139.609 311.296 137.79C313.915 134.717 316.71 131.808 319.541 128.943L320.685 128.883C323.446 128.316 323.441 124.575 321.483 123.438C324.357 120.187 327.433 117.121 330.692 114.257C332.046 113.089 333.465 111.998 334.942 110.99C337.079 109.514 339.259 108.177 341.534 106.835C344.329 105.892 347.196 104.901 349.933 103.844C351.954 103.075 353.976 102.28 355.976 101.442C364.297 97.6704 372.375 93.385 380.163 88.6105C383.994 87.4526 387.88 86.4876 391.807 85.7193C393.912 85.3651 396.189 84.7551 398.234 85.385Z" fill="#28130D"/>
<path d="M315.15 217.615C315.656 186.133 328.443 155.097 351.947 134.438C359.653 127.614 368.221 121.831 377.432 117.236C384.777 112.944 393.503 111.677 401.766 113.703C404.893 113.9 426.109 119.169 423.02 123.407C421.057 124.587 417.658 122.739 415.395 122.726C408.695 121.813 401.938 121.391 395.177 121.464C387.198 121.714 380.327 126.413 373.499 130.168C357.68 139.373 344.623 152.658 335.692 168.634C329.224 181.14 324.984 194.677 323.162 208.639C322.256 212.407 322.95 217.538 320.75 220.473C320.244 220.931 319.611 221.225 318.935 221.316C318.258 221.406 317.571 221.288 316.963 220.977C316.355 220.667 315.856 220.179 315.532 219.579C315.208 218.978 315.075 218.293 315.15 217.615Z" fill="#28130D"/>
<path d="M340.331 222.98C336.66 215.36 339.7 206.212 341.288 198.289C344.163 183.541 352.873 171.009 363.434 160.959C371.115 153.716 380.043 146.326 390.853 145.787C399.963 145.001 409.669 144.078 418.046 148.472C422.434 151.1 432.418 154.499 428.734 161.299C424.059 168.12 414.451 154.277 403.645 155.386C396.841 155.687 389.474 155.002 383.139 158.096C370.027 165.641 359.302 176.722 352.187 190.072C348.185 199.677 343.945 209.667 343.331 220.198C344.98 222.216 342.116 225.606 340.331 222.98Z" fill="#28130D"/>
<path d="M377.123 219.406C376.459 218.429 376.153 217.253 376.254 216.076C376.417 211.549 377.871 207.164 380.446 203.438C385.031 196.108 391.494 193.703 399.525 193.62C412.457 192.701 417.182 203.234 420.314 214.452C420.802 216.434 421.675 218.64 420.694 220.68C420.375 221.312 419.885 221.84 419.28 222.205C418.674 222.571 417.977 222.757 417.27 222.744C416.563 222.73 415.874 222.517 415.283 222.129C414.692 221.741 414.222 221.194 413.928 220.55C412.577 216.166 410.873 211.898 408.833 207.788C408.115 206.109 406.895 204.693 405.339 203.736C403.784 202.779 401.97 202.328 400.147 202.445C391.071 202.231 387.297 204.28 382.303 212.387C381.359 214.075 380.604 215.862 380.052 217.716C379.962 218.196 379.838 218.67 379.682 219.133C379.573 219.369 379.405 219.572 379.195 219.723C378.984 219.875 378.738 219.968 378.48 219.996C378.222 220.024 377.961 219.984 377.723 219.88C377.485 219.777 377.279 219.614 377.123 219.406Z" fill="#28130D"/>
<path d="M220.408 201.078C216.737 191.791 222.515 184.758 207.921 189.12C204.256 190.182 201.091 192.52 198.997 195.711C198.339 196.705 197.602 197.646 196.794 198.523C196.475 198.755 196.099 198.896 195.706 198.932C195.313 198.967 194.918 198.896 194.562 198.725C194.207 198.555 193.904 198.291 193.686 197.962C193.468 197.633 193.343 197.252 193.324 196.858C194.019 191.919 196.505 187.409 200.311 184.185C207.294 178.682 220.901 174.597 225.415 185.071C226.829 188.667 227.926 198.09 225.468 201.178C225.139 201.521 224.742 201.792 224.303 201.974C223.864 202.156 223.392 202.246 222.916 202.236C222.441 202.227 221.972 202.119 221.541 201.92C221.109 201.721 220.723 201.434 220.408 201.078Z" fill="#28130D"/>
<path d="M258.31 214.221C256.114 213.158 256.94 210.737 257.29 208.79C257.323 197.949 258.619 186.775 255.916 176.205C249.553 154.262 227.182 146.139 207.071 152.476C192.017 157.597 179.966 168.693 169.594 180.724C167.063 183.612 164.85 186.763 162.994 190.125C162.963 190.417 162.846 190.693 162.656 190.917C162.467 191.142 162.215 191.305 161.933 191.385C159.61 191.896 159.842 188.691 160.639 187.204C164.221 178.659 170.605 171.828 176.65 165.144C189.737 151.403 208.262 140.966 227.284 143.478C249.396 145.845 265.231 166.153 264.087 188.984C263.384 193.828 265.967 216.965 258.31 214.221Z" fill="#28130D"/>
<path d="M272.342 215.392C271.645 215.242 271.035 214.821 270.647 214.223C270.258 213.624 270.123 212.896 270.269 212.198C270.979 208.046 271.861 203.937 272.543 199.782C275.973 182.617 268.562 167.399 257.84 154.961C250.16 146.252 238.93 141.928 228.055 139.399C220.907 139.075 213.76 140.087 206.983 142.383C183.919 152.347 162.53 169.67 149.183 191.643C149.279 191.845 149.323 192.068 149.311 192.292C149.3 192.516 149.232 192.733 149.116 192.924C148.999 193.116 148.837 193.275 148.643 193.388C148.45 193.501 148.231 193.564 148.007 193.571C142.431 194.09 150.922 180.508 152.194 178.561C160.131 165.566 171.701 155.295 183.932 146.737C195.274 138.722 208.04 132.217 222.035 131.827C233.759 130.922 251.873 139.668 260.203 147.921C270.975 159.807 279.938 175.246 279.028 192.12C278.802 195.719 277.137 217.257 272.342 215.392Z" fill="#28130D"/>
<path d="M70.0043 196.136C67.0298 194.23 69.3393 190.831 70.4489 188.423C73.1485 182.93 76.0818 177.554 79.1692 172.272C88.8124 155.35 99.0349 137.707 101.569 117.82C102.34 100.539 99.0598 85.9604 81.7628 79.4554C66.6062 75.3915 50.5526 76.6691 35.6878 81.482C28.0641 83.7162 20.6764 86.6883 13.6293 90.356C10.8862 92.3882 8.93443 87.2261 12.3819 86.8697C20.7474 80.3109 30.8222 76.3173 40.8938 73.4213C55.4511 69.0882 70.9983 69.4099 85.3638 74.3417C102.463 81.6965 107.902 96.5357 108.102 114.486C107.63 137.987 94.4754 158.567 83.157 178.009C80.6595 182.3 78.408 186.721 76.2457 191.204C75.025 193.643 73.2719 197.946 70.0043 196.136Z" fill="#28130D"/>
<path d="M93.6963 198.739C93.0347 198.302 92.5647 197.629 92.3818 196.857C92.1989 196.085 92.3169 195.273 92.7117 194.585C94.7869 191.382 97.1948 188.398 99.1793 185.146C104.43 176.886 109.346 168.433 114.115 159.805C119.289 150.278 124.915 140.696 127.55 130.006C129.484 116.394 128.524 101.942 123.055 89.2682C119.016 78.3354 111.768 68.58 101.215 63.504C87.1394 56.5953 70.9921 56.6447 55.8424 59.0331C47.4244 60.4096 38.8746 61.8963 31.3279 66.1156C29.8401 68.9646 25.9275 65.8774 28.1337 63.6347C33.9062 58.1862 41.6897 55.2622 49.3556 53.6559C78.8205 45.9311 114.07 53.1171 126.485 84.2476C133.417 99.2673 135.589 116.048 132.71 132.337C129.63 143.15 123.509 152.809 118.192 162.568C113.608 170.494 108.858 178.298 104.263 186.196C102.654 189.034 100.955 191.824 99.3206 194.646C98.1472 196.859 96.5298 200.402 93.6963 198.739Z" fill="#28130D"/>
<path d="M299.192 23.5057C299.611 23.5913 299.985 23.8245 300.246 24.1628C300.507 24.5012 300.638 24.9221 300.615 25.3489C300.591 25.7757 300.415 26.1799 300.119 26.4878C299.822 26.7957 299.425 26.9868 299 27.0262L297.553 28.0491C287.589 34.8989 277.631 42.1423 269.047 50.6877C265.618 54.0982 262.438 57.7506 259.532 61.6167C256.786 65.5339 254.273 69.609 252.005 73.821C251.134 75.6815 250.075 78.2842 247.994 78.5186C247.984 75.3081 248.388 72.1098 249.195 69.0025C251.079 61.7749 254.157 54.9124 258.3 48.6981C260.391 46.2831 262.631 44.0023 265.009 41.8695C268.136 39.0637 271.451 36.4749 274.931 34.1213C279.957 30.5926 285.42 27.7316 291.183 25.61C292.12 25.287 293.068 24.9922 293.972 24.734C295.683 24.2081 297.426 23.7978 299.192 23.5057Z" fill="#28130D"/>
<path d="M311.779 102.497C309.373 100.439 312.332 98.1144 314.47 97.7088C317.835 96.4505 321.19 95.1507 324.559 93.8521C343.166 87.2046 360.763 77.9052 377.658 67.3504C380.214 66.047 382.363 63.5281 385.306 63.967C386.352 64.199 387.264 64.836 387.841 65.7386C388.419 66.6411 388.615 67.7357 388.387 68.7827C386.883 73.0264 377.873 76.3288 374.15 79.1681C361.391 87.4098 347.665 94.0463 333.282 98.9275C327.294 100.412 317.547 104.53 311.779 102.497Z" fill="#28130D"/>
<path d="M141.694 98.6309C139.331 96.1022 141.137 91.9668 140.444 88.8011C136.57 70.103 121.272 56.3896 103.802 50.6011C87.7991 45.1585 70.6168 44.1727 54.0965 47.7495C48.1618 48.941 42.7875 51.904 36.9338 53.2518C35.2236 53.8853 32.3618 52.8437 33.4008 50.6187C38.6606 46.7309 44.5553 43.7855 50.8223 41.9136C81.573 34.2087 125.732 43.6268 141.241 73.9492C143.409 77.9108 151.962 102.95 141.694 98.6309Z" fill="#28130D"/>
<path d="M96.0417 209.941C91.8229 205.728 98.9086 200.601 101.102 197.137C105.266 192.087 109.704 187.17 113.649 181.843C124.603 167.247 132.613 150.545 138.463 133.149C139.05 131.589 139.241 129.898 139.865 128.381C141.689 126.01 143.79 128.596 143.228 130.945C139.966 155.634 127.461 178.197 111.637 196.342C108.905 199.609 106.201 202.878 103.622 206.253C101.708 208.563 99.1306 212.385 96.0417 209.941Z" fill="#28130D"/>
<path d="M125.217 193.637C124.748 193.326 124.401 192.861 124.236 192.322C124.072 191.783 124.1 191.204 124.315 190.683C125.194 188.729 126.241 186.87 127.262 184.996C128.284 183.122 129.46 181.031 130.571 179.057C136.473 169.432 141.472 159.279 146.667 149.225C149.101 144.129 151.792 139.178 154.382 134.164C155.352 132.556 155.916 130.492 157.52 129.374C159.138 128.557 160.142 130.368 159.67 131.857C158.37 137.163 155.898 142.079 153.602 146.997C150.899 152.977 148.017 158.237 145.168 164.041C141.839 170.968 137.594 177.366 133.712 183.959L131.166 188.34C130.271 189.973 129.28 191.55 128.196 193.063C127.87 193.525 127.378 193.844 126.822 193.951C126.267 194.058 125.691 193.945 125.217 193.637Z" fill="#E55E25"/>
<path d="M175.172 136.738C169.215 135.746 162.572 136.223 157.054 133.657C154.331 128.182 165.94 130.384 168.543 130.372C172.268 130.854 176.027 131.257 179.698 132.046C182.347 132.73 181.691 137.198 178.928 137.019L175.172 136.738Z" fill="#E55E25"/>
<path d="M132.487 195.872C132 195.63 131.613 195.225 131.392 194.728C131.172 194.23 131.132 193.672 131.279 193.148C131.866 191.17 132.65 189.256 133.619 187.434C136.442 181.989 139.628 176.74 143.154 171.722C149.448 161.956 152.268 151.473 160.587 143.46C164.209 140.122 168.106 137.097 172.238 134.416C167.656 133.885 163.111 133.072 158.63 131.981C158.352 131.918 158.093 131.79 157.875 131.606C157.656 131.422 157.485 131.189 157.376 130.926C157.267 130.662 157.222 130.376 157.247 130.092C157.271 129.808 157.363 129.534 157.515 129.293C157.884 128.954 158.329 128.708 158.812 128.574C159.295 128.441 159.803 128.424 160.294 128.524C162.996 128.674 165.683 129.032 168.331 129.594C171.816 130.176 175.337 130.518 178.777 131.313C180.124 131.471 181.461 131.712 182.778 132.036C185.525 133.908 178.341 137.251 176.953 138.537C174.198 140.853 169.144 140.076 166.473 142.508C159.348 149.137 158.513 158.645 152.779 166.55C147.349 174.537 141.869 182.478 137.411 191.12C136.739 192.416 136.028 193.708 135.262 194.995C134.992 195.461 134.558 195.809 134.044 195.971C133.531 196.133 132.975 196.098 132.487 195.872Z" fill="#E55E25"/>
<path d="M149.282 165.181C148.784 165.068 148.322 164.83 147.942 164.488C147.561 164.147 147.274 163.714 147.108 163.231C146.942 162.747 146.903 162.229 146.993 161.726C147.084 161.223 147.301 160.752 147.626 160.356C145.457 157.018 149.658 153.991 151.247 151.368C148.405 149.041 151.189 145.494 152.868 143.38C154.628 141.005 156.043 138.394 157.071 135.623C157.211 130.417 164.467 133.247 167.715 132.697C170.448 133.212 174.861 132.061 176.098 135.357C178.537 135.967 177.135 140.288 174.882 138.962C167.258 142.524 163.638 150.889 158.348 157.153C155.752 159.821 153.481 165.664 149.282 165.181Z" fill="#E55E25"/>
<path d="M129.991 191.759C129.48 191.412 129.104 190.901 128.925 190.31C128.746 189.72 128.775 189.085 129.006 188.513C129.297 187.83 129.624 187.163 129.985 186.513C128.307 184.358 136.186 174.746 137.478 171.961C140.193 167.663 142.882 163.349 145.599 159.037C146.499 157.762 147.668 155.44 149.529 156.46C154.283 148.752 157.021 161.507 151.683 159.201L151.254 159.908C153.002 163.1 145.568 171.68 143.971 174.994C141.499 178.84 139.012 182.562 136.597 186.385C136.303 186.87 135.855 187.24 135.324 187.437C134.116 189.43 132.882 193.386 129.991 191.759Z" fill="#E55E25"/>
<path d="M301.297 145.057C301.378 145.972 300.386 146.602 298.843 147.033L298.4 147.143C293.848 147.861 289.221 147.963 284.642 147.446L284.562 147.439C284.408 147.442 284.255 147.428 284.105 147.398C283.075 147.238 281.428 147.01 281.196 146.122C282.016 146.195 282.836 146.268 283.65 146.26C284.215 146.31 284.776 146.252 285.333 146.234C286.884 146.169 288.429 146.022 289.959 145.888L290.699 145.805C293.57 145.519 296.444 145.369 299.317 145.219L299.64 145.247L301.297 145.057Z" fill="#E55E25"/>
<path d="M291.961 170.057C291.987 170.174 291.99 170.296 291.969 170.414C291.948 170.532 291.903 170.645 291.837 170.745C291.771 170.846 291.685 170.932 291.585 170.999C291.485 171.065 291.373 171.111 291.255 171.133C291.133 171.149 291.009 171.138 290.892 171.1C290.736 171.059 290.596 170.975 290.486 170.857C290.377 170.739 290.303 170.593 290.273 170.435L289.953 169.471C288.189 164.326 286.202 159.255 284.271 154.163C283.253 151.605 281.332 149.59 280.199 147.09C280.147 146.971 280.113 146.844 280.097 146.715C280.052 146.463 280.075 146.203 280.165 145.962L280.891 146.027L281.2 146.055C282.02 146.128 282.84 146.201 283.654 146.192C283.984 146.578 284.287 146.986 284.562 147.412L285.171 148.334C286.411 150.251 287.379 152.331 288.049 154.514C289.551 158.969 290.743 163.523 291.616 168.142C291.769 168.861 291.879 169.453 291.961 170.057Z" fill="#E55E25"/>
<path d="M301.994 144.997C302.613 146.407 301.257 148.997 300.989 150.329C300.721 151.66 300.189 152.765 299.782 153.989C298.653 157.371 297.498 160.738 296.343 164.118C295.485 166.888 294.473 169.875 293.632 172.619C293.614 172.82 293.529 173.016 293.47 173.214C293.282 174.106 292.964 175.094 291.962 174.923L291.801 174.909C291.694 174.871 291.594 174.816 291.504 174.747C290.921 174.288 291.032 173.349 291.148 172.505C291.176 172.196 291.201 171.914 291.223 171.672L291.275 171.08C291.362 170.112 291.447 169.157 291.68 168.216C292.207 165.349 293.053 162.551 293.79 159.77C294.946 155.449 296.46 151.232 298.317 147.162L298.324 147.082L298.521 146.706C298.728 146.171 298.969 145.649 299.243 145.144L299.566 145.173L301.217 145.049L301.994 144.997Z" fill="#E55E25"/>
<path d="M298.843 147.033C299.287 147.568 299.507 148.252 299.459 148.945C299.169 150.83 297.915 152.426 297.123 154.158C296.694 155.475 296.264 156.792 295.902 158.115C295.858 158.673 295.641 159.203 295.282 159.633C294.924 160.062 294.44 160.369 293.899 160.512C293.9 160.579 293.894 160.647 293.881 160.714C293.852 161.287 293.605 161.827 293.191 162.224L293.156 162.614C293.272 162.728 293.357 162.869 293.402 163.025C293.448 163.181 293.452 163.346 293.415 163.505C293.215 165.75 292.772 167.974 292.586 170.208C292.676 170.161 292.774 170.133 292.875 170.126C292.976 170.119 293.077 170.132 293.173 170.165C293.324 170.224 293.453 170.33 293.541 170.467C293.628 170.604 293.67 170.765 293.661 170.927C293.627 171.304 293.595 171.667 293.561 172.043C293.623 172.219 293.648 172.406 293.634 172.592C293.608 172.934 293.555 173.274 293.475 173.608C293.218 174.818 293.015 176.034 292.759 177.231C292.627 177.951 292.496 178.657 292.337 179.375C292.302 179.675 292.212 179.966 292.071 180.232C291.945 180.446 291.754 180.614 291.526 180.712C291.454 181.519 291.634 182.999 290.496 182.992C290.363 182.985 290.233 182.946 290.118 182.876C290.004 182.807 289.908 182.71 289.84 182.595C289.743 182.432 289.694 182.244 289.699 182.054C289.722 179.209 289.883 176.35 289.948 173.496C289.757 172.47 289.764 171.418 289.967 170.394C289.992 170.112 289.952 169.81 289.951 169.512C289.927 168.723 289.89 167.92 289.906 167.136C289.547 166.885 289.254 166.551 289.052 166.163C288.851 165.774 288.747 165.342 288.75 164.904C288.514 163.596 288.265 162.286 288.072 160.954C287.753 158.899 287.63 156.819 287.705 154.741C285.597 153.454 283 150.051 284.632 147.567C284.72 147.434 284.817 147.306 284.923 147.187C284.946 146.856 285.09 146.546 285.326 146.314C286.877 146.25 288.422 146.103 289.952 145.968L290.691 145.885L290.987 145.912C292.058 145.856 293.121 146.126 294.036 146.685C294.392 146.385 294.823 146.186 295.283 146.108C295.742 146.03 296.215 146.076 296.651 146.241C296.998 146.178 297.355 146.199 297.692 146.303C298.03 146.406 298.337 146.588 298.59 146.834C298.681 146.891 298.766 146.958 298.843 147.033Z" fill="#E55E25"/>
<path d="M209.282 64.7073L209.927 64.7649C209.303 64.7769 208.702 64.8317 208.086 64.8987L207.817 64.8747C207.895 64.807 207.982 64.7509 208.076 64.708L208.328 64.6086C208.648 64.5237 208.987 64.5588 209.282 64.7073Z" fill="#D3E5CF"/>
<path d="M246.586 46.4594C246.759 46.7292 246.859 47.0386 246.878 47.3582C246.897 47.6778 246.834 47.997 246.694 48.2852C245.955 49.3348 245.033 50.244 243.974 50.9701C241.648 52.8904 239.372 54.8558 237.083 56.8066C236.102 57.6271 235.118 58.4745 234.145 59.35C231.971 61.3129 229.966 63.4553 228.152 65.7546C227.138 66.9382 226.984 68.6594 225.884 69.7539C225.427 70.095 224.874 70.2829 224.304 70.2905L224.517 69.7267C224.72 69.5448 224.874 69.3142 224.963 69.0566C225.052 68.799 225.075 68.5229 225.028 68.2543C225.035 67.8756 224.962 67.4997 224.815 67.1509C224.756 67.0508 224.712 66.9384 224.639 66.8371C227.254 60.766 231.471 55.5202 236.837 51.6612C236.145 51.8298 235.452 51.9984 234.77 52.195C233.841 52.8847 232.973 53.6476 232.069 54.3665C229.886 56.333 227.577 58.1552 225.157 59.8217C222.626 61.4498 219.979 62.8896 217.237 64.1296L215.334 64.9491C214.437 64.8691 213.541 64.789 212.644 64.709C211.757 64.6298 210.86 64.6581 209.935 64.6975C209.31 64.7095 208.709 64.7643 208.093 64.8313L208.317 64.5938C208.957 64.121 209.652 63.7279 210.387 63.4232C212.038 62.5405 213.715 61.6736 215.355 60.7628C218.855 58.8993 222.183 56.7289 225.3 54.2772C227.089 52.7563 228.817 51.1621 230.509 49.524L231.446 48.5911C231.857 48.1387 232.35 47.7687 232.899 47.5009C236.604 46.3983 240.416 45.6891 244.27 45.3851C244.717 45.3361 245.169 45.4104 245.578 45.5997C245.986 45.789 246.335 46.0863 246.586 46.4594Z" fill="#D3E5CF"/>
<path d="M235.33 49.1009C237.434 46.1848 241.731 48.9133 239.264 51.7969L235.193 55.4997C232.273 57.8414 228.545 64.9903 224.854 67.1548C224.796 67.0547 224.751 66.9423 224.679 66.841C224.504 66.5444 224.265 66.29 223.98 66.0959C223.695 65.9018 223.371 65.7728 223.031 65.718C220.543 65.4959 217.943 65.1689 215.349 64.9237C214.452 64.8437 213.556 64.7637 212.66 64.6836C212.148 63.2825 213.18 61.5856 215.438 61.9498C219.158 61.7262 223.338 56.8133 225.988 58.2561C226.7 57.2217 227.516 56.2635 228.425 55.397C229.026 53.675 233.512 49.4265 235.33 49.1009Z" fill="#D3E5CF"/>
<path d="M91.8944 206.141C88.4801 202.787 93.3408 198.138 95.0471 195.119C99.1867 188.982 103.758 183.169 108.153 177.218C112.689 170.738 115.905 163.408 120.096 156.693C131.368 139.442 134.418 117.73 130.803 97.496C129.135 88.9978 128.305 79.9239 121.962 73.5429C111.186 60.1925 93.9703 54.142 77.5574 51.7009C68.1026 51.3312 58.6927 53.0393 49.4531 54.9659C46.3101 55.4037 32.901 60.1568 35.3824 53.4658C48.4459 45.9032 64.4769 43.5121 79.4202 44.1956C93.7824 46.8332 108.876 51.4472 120.221 61.0126C134.301 73.3432 136.069 80.861 138.78 98.9265C141.755 121.612 136.584 144.618 124.188 163.849C119.478 172.726 114.754 181.616 108.365 189.26C105.464 193.067 102.642 197.044 99.9629 201.088C98.0811 203.644 95.3966 208.663 91.8944 206.141Z" fill="#E55E25"/>
<path d="M241.544 66.0152C241.851 64.999 242.197 64.0133 242.583 63.0312C241.795 63.9639 241.059 64.9147 240.257 65.8596C240.692 65.8169 241.131 65.87 241.544 66.0152ZM271.589 110.851L271.871 110.876L271.476 110.746L271.589 110.851ZM387.898 79.7045C388.364 80.4456 388.527 81.3379 388.352 82.1958C388.177 83.0536 387.678 83.8109 386.958 84.3102C384.986 85.598 382.98 86.815 380.997 88.0747L380.167 88.5699C372.378 93.3443 364.3 97.6297 355.98 101.401C353.98 102.239 351.957 103.035 349.937 103.803C347.128 104.908 344.332 105.851 341.537 106.794C339.316 108.141 337.083 109.473 334.945 110.95C323.686 116.156 311.85 120.009 299.683 122.426C306.423 123.027 313.191 123.247 319.955 123.084C320.504 123.014 321.061 123.126 321.54 123.402C323.499 124.539 323.53 128.283 320.742 128.847L319.598 128.907C316.767 131.772 313.973 134.681 311.354 137.754C309.723 139.573 308.235 141.516 306.904 143.565C306.869 143.799 306.781 144.023 306.649 144.219C306.517 144.416 306.342 144.581 306.139 144.703C305.926 145.03 305.632 145.297 305.286 145.477C304.94 145.657 304.553 145.745 304.163 145.733C303.771 145.714 303.393 145.587 303.071 145.364C302.904 145.232 302.75 145.087 302.608 144.93L302.117 144.967L301.42 145.027L299.769 145.151L299.446 145.122C296.572 145.285 293.698 145.435 290.828 145.708L290.088 145.791C288.558 145.925 287.014 146.072 285.463 146.137C284.905 146.155 284.335 146.172 283.78 146.163C282.967 146.158 282.144 146.112 281.325 146.025L281.016 145.997L280.29 145.933L279.496 145.862C279.741 146.155 279.986 146.448 280.216 146.753C280.238 146.881 280.272 147.006 280.318 147.128C281.451 149.628 283.372 151.643 284.39 154.201C286.321 159.293 288.308 164.364 290.072 169.509C290.045 169.805 290.086 170.107 290.088 170.391C289.884 171.415 289.878 172.468 290.068 173.493C290.003 176.348 289.843 179.207 289.82 182.051C289.814 182.241 289.863 182.429 289.961 182.592C289.632 184.054 289.311 185.516 289 186.979C287.613 194.423 286.759 201.956 286.445 209.522C286.1 210.359 285.742 211.18 285.382 212.016C285.04 212.747 284.443 213.329 283.704 213.652C282.964 213.975 282.132 214.017 281.363 213.771C280.589 213.474 279.945 212.914 279.544 212.189C279.143 211.464 279.01 210.621 279.169 209.808C279.531 208.024 279.852 206.25 280.321 204.489C281.228 201.005 282.231 197.516 282.914 193.972C284.785 185.189 284.193 176.06 281.202 167.592C277.866 156.681 270.549 148.763 261.894 142.013C259.113 139.956 256.121 138.198 252.969 136.771C249.865 135.219 246.625 133.955 243.29 132.993C239.662 132.203 235.971 131.733 232.261 131.588C228.924 131.345 225.572 131.395 222.244 131.737C221.807 131.779 221.382 131.836 220.955 131.907C207.432 132.624 195.073 138.975 184.063 146.762C171.819 155.319 160.302 165.595 152.325 178.586L151.996 179.085C150.809 180.687 149.662 182.306 148.551 183.969C145.793 187.992 143.397 191.75 140.837 195.832C140.688 196.062 140.5 196.266 140.282 196.433C140.118 196.536 139.932 196.599 139.739 196.617C139.546 196.635 139.352 196.607 139.172 196.535C138.992 196.464 138.832 196.35 138.704 196.205C138.576 196.06 138.484 195.886 138.436 195.699C138.341 194.171 138.675 192.647 139.398 191.298C140.79 187.858 141.292 176.151 143.058 172.92C149.925 165.997 151.016 173.969 162.852 156.62C171.458 147.222 181.04 138.577 192.217 132.553C194.395 131.392 196.617 130.33 198.865 129.298C187.363 127.864 175.763 127.235 164.355 125.214L163.924 125.175C163.64 125.582 163.233 125.886 162.762 126.043C162.292 126.201 161.783 126.202 161.312 126.047C160.841 125.893 160.432 125.59 160.146 125.185C159.86 124.78 159.712 124.293 159.724 123.797C158.449 122.897 158.665 121.846 159.964 121.108C160.111 114.798 159.588 108.491 158.404 102.291C157.695 97.4322 156.662 92.6261 155.311 87.9052C154.123 84.6547 153.188 81.3182 152.05 78.1263L151.219 75.897C150.749 74.9334 150.381 73.5858 151.637 73.0338C152.01 72.8849 152.42 72.8552 152.81 72.9487C156.666 72.7237 160.58 73.0596 164.46 73.0264C172.563 73.233 180.666 72.589 188.635 71.1049C192.476 70.2917 196.235 69.1349 199.868 67.6485C201.51 67.0225 203.175 66.4392 204.795 65.757C204.847 65.6774 204.903 65.6009 204.964 65.5282C205.896 65.2488 206.848 65.0438 207.811 64.9149L208.08 64.9389C208.696 64.8719 209.297 64.8171 209.922 64.8051C210.807 64.7621 211.7 64.7741 212.632 64.8166C213.563 64.8591 214.46 64.9799 215.321 65.0567C217.916 65.2884 220.511 65.6826 223.003 65.8509C223.343 65.9075 223.666 66.0372 223.951 66.2311C224.235 66.4251 224.474 66.6785 224.651 66.974C224.724 67.0753 224.768 67.1877 224.827 67.2878C224.974 67.6366 225.047 68.0125 225.04 68.3912C225.087 68.6598 225.064 68.9359 224.975 69.1935C224.885 69.4511 224.732 69.6817 224.529 69.8636L224.316 70.4274C223.355 73.0554 222.537 75.7333 221.865 78.4494C215.906 101.474 229.096 111.625 249.14 116.504L249.909 116.695C243.921 113.63 238.401 109.728 233.513 105.107C217.302 91.298 223.038 73.6611 234.143 59.4856C235.089 58.6077 236.073 57.7604 237.081 56.9422C239.37 54.9915 241.646 53.026 243.973 51.1058C245.032 50.3796 245.953 49.4705 246.693 48.4209C246.832 48.1326 246.895 47.8135 246.876 47.4939C246.857 47.1743 246.757 46.8649 246.585 46.595C247.144 46.1028 247.7 45.6374 248.27 45.1732C259.568 35.2301 274.103 29.8591 287.98 24.4159C288.268 24.2679 288.586 24.1839 288.91 24.1696C289.234 24.1553 289.557 24.2111 289.857 24.3331C290.158 24.4551 290.428 24.6406 290.651 24.8767C290.873 25.1129 291.042 25.3942 291.145 25.7015C285.389 27.7804 279.925 30.5957 274.892 34.0771C271.412 36.4307 268.097 39.0195 264.97 41.8253C264.22 42.3276 263.524 42.8348 262.733 43.347C261.942 43.8591 261.279 44.4506 260.591 45.0262L259.018 47.461C258.752 47.8575 258.486 48.2539 258.234 48.6516C254.09 54.8659 251.013 61.7283 249.129 68.9559C248.322 72.0632 247.918 75.2615 247.927 78.472C247.972 79.5551 248.14 80.6295 248.427 81.6747C249.757 85.7934 252.112 89.5064 255.271 92.4648C259.373 96.3144 263.99 100.02 269.167 102C289.646 109.752 294.704 109.58 315.89 104.559C320.496 103.37 325.063 102.003 329.672 100.788C333.503 99.7742 337.375 98.7645 341.22 97.7523C347.215 94.8177 353.045 91.7599 358.665 88.7783C364.882 85.7956 370.863 81.9517 377.2 79.4407C377.785 79.394 378.373 79.4714 378.925 79.6679C379.477 79.8644 379.982 80.1755 380.406 80.5807L380.908 80.2731C381.827 79.6911 382.735 79.0809 383.706 78.5305C384.427 78.1739 385.253 78.0964 386.027 78.3132C386.801 78.53 387.468 79.0256 387.898 79.7045Z" fill="#E55E25"/>
<path d="M289.268 195.515C289.93 186.444 291.759 177.497 294.708 168.893C297.913 157.77 302.946 147.258 309.602 137.788C310.753 136.44 324.644 116.726 325.194 122.549C326.742 121.616 327.764 124.134 326.04 124.617C323.937 126.611 322.412 129.118 320.511 131.28C320.36 131.43 320.167 131.531 319.957 131.569C319.822 131.59 319.683 131.578 319.554 131.533C319.235 131.975 318.889 132.397 318.519 132.796C318.356 132.949 318.152 133.05 317.932 133.088C317.712 133.127 317.485 133.1 317.28 133.011C316.725 133.761 316.208 134.542 315.59 135.246C315.477 135.374 315.338 135.478 315.182 135.548C315.026 135.618 314.857 135.654 314.686 135.653C311.4 139.37 308.492 143.406 306.007 147.7C300.931 156.937 296.933 166.726 294.09 176.875C292.943 181.428 292.047 186.04 291.407 190.691L290.763 195.622C290.732 195.799 290.637 195.96 290.498 196.074C290.359 196.188 290.183 196.249 290.003 196.245C289.811 196.237 289.63 196.157 289.494 196.022C289.358 195.887 289.278 195.707 289.268 195.515Z" fill="#28130D"/>
<path d="M240.408 68.1502C237.91 66.8293 237.314 64.0924 239.922 62.509C240.985 61.6822 242.007 60.2554 243.561 60.9227C246.502 61.985 244.841 65.2523 243.749 67.1608C243.399 67.6938 242.871 68.0856 242.26 68.2667C241.648 68.4478 240.992 68.4065 240.408 68.1502Z" fill="#E55E25"/>
<path d="M284.91 166.446C282.22 164.538 281.229 154.84 279.845 151.369C277.066 149.697 280.277 146.528 282.249 149.035C284.6 151.847 285.61 155.57 287.016 158.948C287.71 160.894 289.029 163.113 288.285 165.229C288.146 165.533 287.948 165.806 287.702 166.032C287.456 166.258 287.167 166.433 286.853 166.547C286.539 166.66 286.205 166.709 285.871 166.692C285.538 166.675 285.211 166.591 284.91 166.446Z" fill="#E55E25"/>
<path d="M283.338 214.734C279.89 213.274 282.335 209.575 282.844 206.91C283.731 203.045 284.365 199.13 284.893 195.192C285.834 185.409 286.177 175.342 283.945 165.736C282.9 162.254 281.714 158.841 280.471 155.45C278.795 152.305 277.352 149.041 276.152 145.685C275.682 144.635 275.357 143.525 275.186 142.387C275.317 140.921 276.946 141.039 277.841 141.797C279.255 142.935 280.567 144.195 281.761 145.562C284.295 148.323 286.349 151.489 287.837 154.929C290.394 160.497 291.899 166.491 292.277 172.606C292.99 181.561 292.482 190.572 290.767 199.39C290.066 202.879 289.116 206.314 287.925 209.668C287.522 211.007 287.042 212.322 286.489 213.606C286.167 214.121 285.681 214.512 285.109 214.717C284.538 214.921 283.914 214.928 283.338 214.734Z" fill="#E55E25"/>
<path d="M159.45 107.006C159.348 106.631 159.247 106.243 159.142 105.894C158.565 105.382 159.464 104.568 159.88 105.228C160.169 105.634 160.799 107.222 160.052 107.399C159.986 107.414 159.919 107.415 159.853 107.404C159.787 107.392 159.724 107.367 159.667 107.33C159.611 107.294 159.563 107.246 159.526 107.19C159.488 107.135 159.462 107.072 159.45 107.006Z" fill="#E55E25"/>
<path d="M159.284 125.411C158.272 125.213 158.759 124.009 158.756 123.277C158.84 121.982 158.991 120.693 159.209 119.414C159.657 116.202 159.909 112.965 159.966 109.722C159.974 109.637 160.015 109.558 160.081 109.503C160.147 109.448 160.232 109.421 160.318 109.429C160.403 109.436 160.482 109.478 160.537 109.543C160.593 109.609 160.619 109.694 160.612 109.78C160.566 111.265 160.596 112.752 160.702 114.234C160.661 117.429 161.02 120.687 160.28 123.82C160.255 124.4 160.266 125.499 159.284 125.411Z" fill="#E55E25"/>
<path d="M159.493 125.945C158.58 125.688 157.925 124.829 158.653 123.959C158.975 122.633 159.27 121.303 159.524 119.971C159.521 119.896 159.535 119.821 159.563 119.751C159.591 119.681 159.634 119.619 159.689 119.567C159.744 119.515 159.809 119.476 159.88 119.452C159.951 119.427 160.027 119.419 160.102 119.426C161.124 119.517 159.895 123.406 159.778 124.114C160.734 124.037 161.37 124.649 162.247 124.849C162.347 124.889 162.432 124.96 162.489 125.052C162.546 125.143 162.571 125.251 162.562 125.359C162.552 125.466 162.508 125.568 162.436 125.648C162.364 125.728 162.268 125.783 162.162 125.804C161.289 126.02 160.383 126.068 159.493 125.945Z" fill="#E55E25"/>
<path d="M8.52343 186.256C8.02309 185.94 7.65869 185.448 7.50155 184.878C7.34442 184.307 7.40586 183.699 7.67385 183.171C8.46095 181.642 9.30065 180.131 10.0609 178.599C10.8211 177.068 11.5813 175.536 12.2889 173.987C14.4082 168.619 17.6238 161.749 15.539 155.952C14.7735 154.203 13.5539 154.351 11.9888 154.727C10.3954 155.169 8.85746 155.791 7.40463 156.581C5.60829 157.45 3.87892 158.451 2.23075 159.575C1.44518 160.181 0.5701 160.661 -0.363048 160.997C-0.510016 161.018 -0.65964 161.006 -0.801874 160.964C-0.944109 160.922 -1.07566 160.85 -1.18767 160.752C-1.29968 160.655 -1.38955 160.535 -1.45126 160.4C-1.51296 160.265 -1.54508 160.118 -1.54543 159.97C-1.44542 159.001 -1.0413 158.088 -0.390935 157.362C3.17483 152.34 12.0077 145.254 17.8871 149.994C25.0731 156.952 19.1477 170.641 15.2559 178.101C13.9972 180.51 12.7263 182.904 11.5067 185.329C11.3829 185.596 11.2045 185.834 10.983 186.028C10.7614 186.222 10.5018 186.367 10.2207 186.455C9.93958 186.542 9.64332 186.569 9.35099 186.535C9.05865 186.501 8.77673 186.406 8.52343 186.256Z" fill="#E55E25"/>
<path d="M96.8453 20.8928C96.8614 20.6799 96.957 20.4809 97.1131 20.3352C97.2691 20.1895 97.4743 20.1079 97.6878 20.1065C97.9012 20.105 98.1074 20.1839 98.2654 20.3275C98.4234 20.4711 98.5216 20.6689 98.5406 20.8815C98.551 20.9986 98.537 21.1166 98.4996 21.2281C98.4621 21.3395 98.4019 21.442 98.3228 21.529C98.2438 21.616 98.1475 21.6857 98.0401 21.7336C97.9328 21.7815 97.8167 21.8067 97.6991 21.8075C97.5815 21.8083 97.4651 21.7846 97.3571 21.7381C97.2491 21.6916 97.1519 21.6233 97.0717 21.5373C96.9915 21.4514 96.9299 21.3497 96.8909 21.2388C96.852 21.1278 96.8364 21.01 96.8453 20.8928Z" fill="#E55E25"/>
<path d="M119.057 39.9132C115.529 37.5245 111.58 35.9114 107.943 33.6891C104.592 31.7586 101.605 29.2581 99.1145 26.3001C97.9283 24.4051 96.0189 21.9575 96.5711 19.5671C96.6827 19.3656 96.836 19.1903 97.0207 19.0527C97.2054 18.9151 97.4174 18.8186 97.6424 18.7694C97.8674 18.7202 98.1003 18.7196 98.3256 18.7675C98.5509 18.8155 98.7633 18.9109 98.9488 19.0475C99.2745 19.3329 99.547 19.6739 99.7535 20.0545C101.152 21.923 102.335 23.9428 103.282 26.0758C104.321 27.4769 105.506 28.764 106.816 29.9153C109.326 32.0624 112.095 33.8852 115.06 35.341C116.749 36.3247 118.344 37.4607 119.826 38.7349C119.984 38.8406 120.093 39.0047 120.13 39.191C120.167 39.3773 120.128 39.5705 120.022 39.7283C119.917 39.886 119.753 39.9952 119.566 40.032C119.38 40.0687 119.187 40.03 119.029 39.9242L119.057 39.9132Z" fill="#E55E25"/>
<path d="M99.491 20.8718C99.2038 20.549 99.0502 20.1291 99.0613 19.6972C99.0725 19.2654 99.2475 18.8539 99.5509 18.5464C99.8544 18.2388 100.263 18.0583 100.695 18.0413C101.127 18.0244 101.549 18.1724 101.875 18.4552C102.163 18.7779 102.316 19.1979 102.305 19.6297C102.294 20.0616 102.119 20.4731 101.815 20.7806C101.512 21.0881 101.103 21.2687 100.671 21.2856C100.24 21.3025 99.8175 21.1546 99.491 20.8718Z" fill="#E55E25"/>
<path d="M163.401 72.2951C156.103 71.4538 145.788 69.4892 139.829 65.0266C139.705 65.0947 139.563 65.1244 139.422 65.1118C139.28 65.0992 139.146 65.0449 139.036 64.9558C138.075 64.0296 137.069 63.1537 136.077 62.2655C135.909 62.3317 135.787 62.1718 135.775 62.0081C135.762 61.8443 135.655 61.8347 135.611 61.7223C135.464 60.9366 136.484 61.5021 136.807 61.6801C137.574 60.9895 139.155 62.5538 139.908 62.9327C141.408 64.0768 143.036 65.0411 144.761 65.8057C153.767 69.5374 163.511 70.7597 173.158 70.9568L172.969 70.94C176.53 70.9868 180.086 70.7756 183.641 70.7406C186.79 70.7986 189.939 70.6588 193.071 70.3219C198.36 69.6446 203.538 68.2845 208.477 66.2757C209.166 65.9983 210.16 65.4907 210.594 66.3969C210.708 66.6318 210.724 66.9021 210.638 67.1486C210.553 67.395 210.373 67.5975 210.138 67.7116C204.548 70.1292 198.629 71.702 192.576 72.3786C188.467 72.8521 184.421 72.6265 180.34 72.7907C174.69 73.0626 169.026 72.8969 163.401 72.2951Z" fill="#E55E25"/>
<path d="M146.919 75.513C144.829 74.9334 142.114 71.9396 141.206 69.961C140.556 69.1981 139.725 68.636 139.018 67.9087C137.024 65.7925 139.704 62.1959 142.289 63.6059C143.631 64.5768 145.044 65.446 146.516 66.2061C151.76 68.1924 157.346 68.7859 162.819 69.7218C166.656 70.2518 170.458 71.0031 174.207 71.9719C174.736 72.0966 175.204 72.4062 175.525 72.8449C175.846 73.2836 176 73.8225 175.959 74.3647C175.338 78.2806 169.069 75.6336 166.358 75.6355C160.788 75.1273 155.249 74.3162 149.768 73.2057C149.749 73.5506 149.658 73.8879 149.501 74.1956C149.344 74.5033 149.124 74.7746 148.855 74.9921C148.587 75.2095 148.276 75.3682 147.942 75.458C147.609 75.5477 147.26 75.5664 146.919 75.513Z" fill="#E55E25"/>
<path d="M159.726 72.0076C151.681 71.0318 143.48 69.0663 136.716 64.22C135.639 63.3783 132.151 60.9932 133.387 59.45C133.956 58.8501 134.434 59.2588 134.947 59.5892C137.588 61.2431 140.426 62.5619 143.393 63.5149C149.249 65.3258 155.316 66.3686 161.441 66.6171C172.4 67.5955 183.577 66.5873 194.45 65.3486L194.262 65.3318C199.068 64.9333 203.794 63.8633 208.303 62.1532C211.287 60.6956 214.391 59.4989 217.581 58.5765C219.094 58.0338 220.738 57.3809 221.686 59.2139C221.81 59.494 221.876 59.7969 221.878 60.1034C221.88 60.41 221.819 60.7137 221.698 60.9956C221.578 61.2774 221.4 61.5314 221.177 61.7415C220.954 61.9516 220.69 62.1134 220.401 62.2167C219.649 62.3678 218.918 62.6074 218.223 62.9304C216.78 63.5739 215.383 64.314 214.04 65.1458C211.487 66.5056 208.814 67.6281 206.056 68.4992C202.279 69.63 198.42 70.4682 194.514 71.0064C182.92 73.1185 171.07 73.4321 159.38 71.936L159.726 72.0076Z" fill="#E55E25"/>
<path d="M218.498 69.4068C216.865 68.868 216.287 67.0001 215.657 65.5479C215.406 65.7829 215.154 66.018 214.929 66.269C214.876 66.4333 214.789 66.5843 214.672 66.7114C214.556 66.8385 214.413 66.9387 214.254 67.0051C214.094 67.0714 213.923 67.1023 213.75 67.0956C213.578 67.0889 213.409 67.0447 213.256 66.9662C213.102 66.8876 212.968 66.7766 212.861 66.6408C212.755 66.505 212.679 66.3477 212.64 66.1798C212.601 66.0119 212.598 65.8374 212.633 65.6685C212.668 65.4996 212.739 65.3403 212.842 65.2017C213.607 63.9146 214.622 62.8667 215.475 61.6687C216.327 60.4707 217.234 59.115 218.615 60.0514C219.055 59.6937 219.612 59.5117 220.178 59.5404C220.471 59.3234 220.812 59.1822 221.173 59.1297C221.533 59.0772 221.901 59.1149 222.243 59.2395C222.585 59.3641 222.891 59.5716 223.133 59.8435C223.376 60.1154 223.546 60.4432 223.631 60.7974C223.831 61.5961 223.962 62.4105 224.024 63.2316C224.234 64.3618 225.076 65.4128 224.836 66.5841C224.756 66.9271 224.591 67.2445 224.357 67.5074C224.123 67.7702 223.826 67.9702 223.495 68.0889C223.163 68.2076 222.807 68.2413 222.459 68.1869C222.111 68.1325 221.783 67.9918 221.503 67.7776C221.377 67.7803 221.251 67.769 221.127 67.744C221.081 68.0351 220.974 68.3132 220.813 68.5595C220.651 68.8059 220.439 69.0148 220.19 69.1723C219.941 69.3298 219.661 69.4322 219.369 69.4727C219.077 69.5131 218.78 69.4907 218.498 69.4068Z" fill="#E55E25"/>
<path d="M153.749 117.097C153.318 105.687 149.473 94.7034 145.596 84.0833C144.861 80.9274 141.274 76.4731 144.456 73.7753C144.142 73.0425 143.823 72.3634 143.571 71.5412C143.424 71.1482 143.378 70.7248 143.437 70.3094C142.401 68.8615 144.163 66.7282 145.688 67.8673C150.364 67.2682 151.537 77.3487 153.63 80.6259C155.642 85.4973 157.143 90.5643 158.109 95.7454C158.968 100.39 158.872 105.112 160.173 109.673C160.321 110.538 160.155 111.427 159.705 112.18C159.748 113.824 159.696 115.473 159.644 117.108C159.585 117.85 159.248 118.542 158.7 119.046C158.153 119.55 157.436 119.829 156.692 119.828C155.948 119.826 155.231 119.544 154.686 119.038C154.141 118.532 153.806 117.839 153.749 117.097Z" fill="#E55E25"/>
<path d="M118.133 193.262C114.296 189.477 119.229 185.391 121.679 182.533C126.277 176.902 130.508 170.982 134.349 164.81C140.725 152.299 145.381 138.863 150.902 125.897C151.983 123.559 152.828 121.119 153.423 118.613C154.147 116.427 154.364 112.476 157.231 112.393C157.678 109.189 157.916 105.959 157.945 102.725C157.909 102.517 157.921 102.303 157.982 102.101C158.043 101.898 158.151 101.713 158.296 101.56C158.442 101.407 158.621 101.29 158.82 101.219C159.019 101.148 159.232 101.124 159.441 101.15C159.641 101.179 159.832 101.249 160.003 101.356C160.174 101.463 160.32 101.605 160.433 101.772C160.546 101.939 160.622 102.128 160.658 102.327C160.693 102.525 160.686 102.729 160.638 102.924C160.654 106.545 162.174 124.138 158.251 124.655C156.358 133.866 152.405 142.472 148.987 151.153C145.446 160.447 141.338 169.568 135.412 177.497C132.633 181.45 129.968 185.495 126.862 189.162C124.791 192.014 121.763 196.474 118.133 193.262Z" fill="#E55E25"/>
<path d="M218.816 78.7469C218.428 78.5225 218.14 78.158 218.012 77.7281C217.884 77.2983 217.925 76.8357 218.128 76.4355C218.231 76.1872 218.347 75.9535 218.464 75.7064C218.275 75.5496 218.126 75.3506 218.028 75.1254C217.86 74.7668 217.824 74.3602 217.927 73.9778C215.38 72.1375 218.25 69.4525 219.436 67.7015C219.226 67.3654 219.107 66.9807 219.09 66.5849C219.073 66.1891 219.159 65.7957 219.339 65.4429L219.349 65.3353C219.103 64.943 218.992 64.4808 219.033 64.0194C219.074 63.558 219.265 63.1228 219.577 62.7804L220.536 61.7546C219.121 62.4279 217.663 63.5719 216.027 63.3716C215.848 63.3141 215.683 63.2196 215.542 63.0943C215.401 62.9689 215.288 62.8155 215.21 62.6438C215.132 62.4721 215.091 62.2861 215.09 62.0976C215.088 61.9091 215.126 61.7223 215.201 61.5493C218.104 58.027 222.175 55.6932 225.672 52.8066C227.879 51.0112 229.965 49.0559 232.146 47.2446C233.942 45.9546 235.741 43.2688 238.215 44.2488L238.403 44.2656C238.525 44.2635 238.647 44.2744 238.766 44.298C239.665 43.1855 241.066 42.0636 242.491 42.9633C242.712 42.9018 242.943 42.8884 243.17 42.924C243.397 42.9596 243.613 43.0433 243.805 43.1696C243.997 43.2959 244.159 43.4617 244.281 43.656C244.403 43.8503 244.483 44.0685 244.513 44.296C244.679 44.5993 244.766 44.9389 244.769 45.2844C244.771 45.6299 244.688 45.9706 244.526 46.276C243.529 47.6886 242.395 48.9993 241.141 50.1891C238.31 53.2029 235.566 56.3058 232.948 59.5148C230.933 62.0457 228.985 64.5827 227.066 67.2577C224.831 70.7313 223.094 74.5476 221.115 78.1931C220.884 78.5711 220.511 78.8417 220.08 78.9456C219.649 79.0494 219.194 78.9779 218.816 78.7469Z" fill="#E55E25"/>
<path d="M222.27 75.4628C219.145 73.4218 223.018 68.7525 223.975 66.2356C228.762 57.5693 235.963 50.4803 244.704 45.8305C244.916 45.4719 245.261 45.2122 245.665 45.1084C245.864 45.057 246.072 45.0454 246.276 45.0743C246.481 45.1032 246.677 45.1721 246.854 45.2769C247.032 45.3818 247.187 45.5206 247.311 45.6854C247.435 45.8502 247.525 46.0378 247.577 46.2375C247.628 46.4371 247.64 46.645 247.611 46.8491C247.582 47.0533 247.513 47.2497 247.408 47.4272C242.757 52.759 238.004 58.0273 233.63 63.6006C231.437 66.3054 229.382 69.1309 227.353 71.9723C225.982 73.5036 224.797 76.7592 222.27 75.4628Z" fill="#28130D"/>
<path d="M230.789 60.772C229.215 59.2761 230.709 57.417 231.886 56.2209C233.762 54.1926 235.699 52.2241 237.711 50.3434C240.873 46.531 244.635 43.2595 248.849 40.6572C251.504 38.5494 254.411 36.8164 257.208 34.9381C262.948 31.1733 268.265 26.7991 273.065 21.8916C276.62 18.2105 281.59 23.2626 278.036 26.9438C273.061 32.9276 266.886 37.8018 259.911 41.2516C253.123 44.7119 246.276 48.3837 240.932 53.884C239.139 55.5944 237.397 57.3499 235.656 59.092C234.378 60.3469 232.52 62.3361 230.789 60.772Z" fill="#28130D"/>
</g>
</svg>
