<svg width="166" height="128" viewBox="0 0 166 128" fill="none" xmlns="http://www.w3.org/2000/svg">
<g clip-path="url(#clip0_1540_2503)">
<path fill-rule="evenodd" clip-rule="evenodd" d="M7.97095 45.1556C10.0589 45.0211 9.46585 44.1084 10.9342 44.4999C11.4303 44.6244 11.8635 44.9277 12.1497 45.3511C12.4359 45.7745 12.5547 46.2878 12.4831 46.7913C12.424 47.2419 10.1539 52.318 10.018 52.5532C12.694 50.306 14.5942 47.8105 17.177 50.6988C18.5125 49.0909 20.0644 47.6749 21.7894 46.4903C24.2998 45.9724 24.4996 48.5113 22.1901 50.7705C15.4805 57.4177 15.3652 58.4631 12.8389 54.7805C7.49804 60.2507 3.46604 58.7782 6.66979 50.9907C4.91118 51.2014 4.10553 52.6466 2.23849 51.0554C-0.183548 47.6897 10.5974 36.1795 13.4102 32.8993C15.4859 30.4482 16.6979 29.095 18.7328 31.838C18.1296 33.8278 15.3242 36.1998 13.6927 38.0806C11.7281 40.3393 9.84334 42.7582 8.03557 45.1929L7.97095 45.1556ZM49.0924 29.4931C50.8208 28.8373 53.3661 27.5127 54.8712 28.0395C57.5891 28.9529 56.2428 31.6826 56.3542 33.6287C57.6381 33.7427 59.8498 33.1949 60.8445 35.4514C61.3129 36.2457 61.4656 37.1847 61.2721 38.0818C61.0787 38.979 60.5533 39.7687 59.8003 40.2943C59.4368 40.2625 59.0842 40.1513 58.7678 39.9686C58.4514 39.7859 58.1788 39.5362 57.9695 39.2373C57.3887 38.3033 57.9212 38.5251 57.4731 37.4111C56.1825 37.6069 54.2411 38.6814 53.0026 36.7974C52.1206 35.4898 52.9113 33.7224 52.8118 32.1538C50.816 32.4271 48.3681 34.5778 46.8075 34.0475C44.4191 33.2103 45.6794 30.2313 45.297 28.3568C44.1073 29.1241 42.0816 31.0909 41.1641 28.6509C40.5626 27.1061 42.6585 25.6645 44.036 24.9201C49.8417 21.8283 49.0535 28.6153 49.157 29.5305L49.0924 29.4931ZM91.5191 43.9519C94.0179 45.195 94.2655 46.507 95.4485 50.7255C96.0308 52.801 94.0696 57.143 92.0562 59.0884C90.6779 60.431 90.1145 60.3624 88.4084 60.4323C81.0083 60.6648 85.8224 59.9372 80.3677 58.4417C77.8928 57.7541 78.1064 56.9365 76.0599 55.9546C74.0135 54.9726 73.4797 55.7479 72.537 53.7495C70.8573 50.2421 73.0833 43.6009 75.9962 41.4905C76.9949 40.7556 78.6484 40.8264 79.7514 40.4082C81.8187 39.6629 81.1764 38.6363 83.448 39.3776C87.2617 40.5815 86.9615 41.7483 91.4174 43.9788L91.5191 43.9519ZM34.8177 26.2128C32.5781 29.1966 22.6282 40.9586 28.6954 42.6367C31.0716 41.1573 30.0065 38.5751 34.6463 32.3295C40.6186 24.3727 45.8733 16.5149 54.9401 13.3955C56.0523 13.0112 57.0252 13.1167 57.5968 11.6789C57.714 11.4489 57.7744 11.194 57.7732 10.9354C57.7719 10.6767 57.709 10.4217 57.5897 10.1913C57.4703 9.96085 57.2979 9.76167 57.0866 9.61009C56.8753 9.45852 56.6312 9.35891 56.3744 9.31947C54.2071 8.89502 48.077 12.7975 45.4602 14.5941C41.2777 17.793 37.6803 21.6854 34.824 26.1024L34.8177 26.2128ZM120.235 80.5179C119.976 78.4295 122 72.9834 121.556 71.2158C119.368 72.1198 114.178 75.1396 114.203 70.2214C114.21 67.9725 115.852 62.3915 115.534 60.7538C113.251 61.5741 109.345 65.3063 107.271 63.824C105.198 62.3417 107.559 57.8033 108.422 55.165C108.957 53.592 109.409 51.7146 109.814 50.4658C110.408 48.6417 112.225 48.1798 113.264 49.8629C114.302 51.546 111.669 56.5549 111.189 58.7297C113.074 58.0505 119.141 53.313 119.602 58.2839C119.392 61.6897 118.883 65.0687 118.08 68.3822C120.005 68.1819 124.924 64.8349 125.562 69.0523C125.919 71.3685 124.445 75.165 124.479 77.2946L124.549 77.8197C130.536 72.7226 132.959 75.4901 131.684 82.4238C131.175 83.9703 130.984 85.6048 131.12 87.2305C141.774 79.125 138.512 88.305 135.859 96.5813C143.784 92.8029 137.178 107.778 136.435 108.119C135.089 108.311 133.639 107.988 133.94 106.023C134.102 104.748 135.074 103.513 134.895 101.784C133.862 102.328 132.436 102.959 131.36 101.539C130.284 100.12 132.91 93.8805 134.088 89.9989L132.785 90.4156C132.785 90.4156 126.873 94.7861 126.924 88.828C127.017 86.0305 128.235 82.6278 128.239 79.8358C126.304 80.7999 120.887 85.6559 120.235 80.5179ZM48.9535 50.4265C50.6766 51.4213 56.9689 50.5208 58.1644 50.0419C59.0303 49.6009 60.0049 49.4126 60.9766 49.4987C61.0443 51.8187 60.1384 49.9556 61.5084 52.4574C62.3348 53.9609 61.2492 52.9064 62.299 55.3658C64.4197 60.696 59.071 65.1352 58.4657 68.7204C58.2298 70.1239 58.6572 70.6272 58.446 71.9879C58.1601 73.8757 57.7477 73.6947 56.7755 75.3288C56.009 77.4524 56.3468 78.1606 58.3195 79.0714C60.6912 78.6444 60.0434 79.468 61.9693 80.808C63.4108 80.4998 63.9622 80.3904 64.5406 78.4434C65.8788 72.5442 63.5027 71.6855 69.6483 67.7064C71.0018 68.7445 70.431 69.584 72.4484 69.3231C74.4657 69.0622 73.6622 80.4023 73.0376 80.0417C73.3092 79.5712 73.4525 82.9044 76.0201 83.3319C76.6976 83.3442 77.3657 83.1815 77.9592 82.8596C78.5527 82.5377 79.0514 82.0676 79.4068 81.495C80.2212 79.9239 81.3531 78.5391 82.7319 77.4272C85.3948 75.65 87.493 73.1542 88.7832 70.2288C89.3115 68.9657 89.8737 67.6935 90.4143 66.409C90.6829 66.2398 90.9422 66.0563 91.191 65.8595L91.5856 65.5741C92.968 65.7164 94.3911 67.6786 95.0058 68.6037L95.2211 68.728C96.2189 68.3679 97.3124 68.3588 98.3204 68.7023C99.3285 69.0459 100.191 69.7213 100.765 70.617C101.157 71.6695 101.765 72.6301 102.551 73.4371C103.336 74.244 104.281 74.8795 105.325 75.3028C108.448 77.106 105.515 75.8688 108.841 80.5545C110.559 83.0006 112.566 83.3042 114.67 85.0321C113.832 89.7662 116.458 92.8788 116.498 95.0974C116.594 101.397 118.351 100.444 119.155 102.334C119.336 102.866 119.245 104.068 119.441 104.923C119.935 106.578 120.545 108.198 121.267 109.769C121.721 110.972 121.459 113.216 122.011 114.846C122.315 115.763 122.257 115.416 122.696 116.097C123.526 117.346 123.366 117.225 122.904 119.866C122.526 121.815 121.593 123.529 123.809 124.666C125.713 124.254 125.806 123.395 127.342 121.63C127.847 123.69 126.568 124.662 127.238 125.989C128.299 126.967 129.6 127.649 131.007 127.966C132.689 127.74 133.563 125.878 134.938 124.191C136.678 124.312 137.29 125.093 138.417 122.493C139.048 121.004 139.529 118.031 141.15 119.252L141.409 119.402C141.589 119.799 141.863 120.148 142.208 120.417C142.554 120.686 142.959 120.867 143.39 120.945C145.479 119.613 146.197 114.839 146.671 112.575C147.297 109.6 148.317 106.939 149.121 103.953C149.496 102.527 149.75 101.072 149.882 99.6021C150.239 97.2422 149.866 97.5401 149.776 95.6065C149.5 90.1862 148.77 84.7957 147.593 79.4911C147.299 78.1196 146.919 76.7671 146.456 75.4417C145.978 73.4318 145.219 71.4969 144.203 69.6932C143.943 69.0009 142.72 57.6884 139.029 51.9936C137.772 50.0419 137.667 50.7222 136.678 48.3553C135.233 44.8405 130.652 34.868 126.695 34.4086C124.595 34.1656 126.171 35.0182 122.551 34.3251C118.577 33.8969 114.562 34.2311 110.724 35.3096L102.903 37.2664C99.0033 38.3507 99.7527 39.8383 95.0062 38.4094C93.6933 37.8616 92.3439 37.4064 90.9679 37.0474C88.7173 36.7174 89.375 37.6674 86.9839 36.4865C84.0173 35.0588 81.4768 35.1317 78.7011 33.6717C77.2365 32.8261 75.677 31.4981 74.2526 30.5331C72.8281 29.5681 71.4956 28.9413 69.9448 28.046C68.394 27.1506 63.1507 14.9425 62.3249 13.0401C54.945 -4.02269 41.9958 12.3374 25.9699 19.85C20.6892 23.3598 15.7029 27.2888 11.0593 31.5991C8.69725 33.999 5.90028 34.6651 4.10009 38.3303C0.190789 46.3947 2.5799 42.1571 1.73897 46.9464C1.49387 48.316 -1.65254 52.373 -2.19609 55.8513C-2.58123 58.3091 -1.69786 58.6195 -1.74596 60.0459C-1.79406 61.4722 -2.53062 61.9023 -2.30267 64.1439C-1.94682 67.4571 -5.27809 69.2974 -1.53715 71.9705C-1.82667 74.3124 -1.60867 74.7804 0.556027 74.8612C2.36877 73.3132 2.48309 70.7276 4.42037 68.168C5.93836 68.2745 5.78995 68.7306 7.27908 67.3949C8.25335 66.5033 9.00908 65.5425 10.0109 64.7523C11.3858 63.6643 15.0002 61.9304 15.6233 61.1497C16.8448 59.6309 15.56 60.1152 17.8348 58.4633C18.6679 57.8754 19.6055 57.4495 20.5987 57.2078C22.8407 55.8389 24.7443 53.9863 26.1704 51.7854C33.4204 41.7151 31.3518 45.7955 37.5706 46.9624C40.8831 47.5919 39.9402 45.7929 43.7591 47.6842C47.5781 49.5754 48.0076 48.4833 48.9535 50.4265Z" fill="#231F20"/>
<path fill-rule="evenodd" clip-rule="evenodd" d="M115.535 60.7535C115.896 62.4162 114.232 67.9847 114.204 70.2212C114.234 75.1428 119.369 72.1195 121.556 71.2156C121.951 73.0687 119.976 78.4293 120.235 80.5176C120.887 85.6557 126.304 80.7997 128.239 79.8356C128.211 82.6704 126.956 86.1372 126.925 88.8278C126.874 94.7858 132.672 90.4636 132.786 90.4153L134.089 89.9987C132.951 93.7609 130.149 99.956 131.36 101.539C132.572 103.122 133.798 102.291 134.895 101.784C135.075 103.512 134.103 104.748 133.941 106.023C133.704 108.025 135.09 108.311 136.436 108.119C137.178 107.778 143.85 92.84 135.86 96.5811C138.513 88.3047 141.749 79.1675 131.121 87.2302C130.984 85.6046 131.176 83.9701 131.685 82.4236C132.852 75.4277 130.5 72.7866 124.55 77.8195L124.48 77.2943C124.446 75.1647 125.941 71.3807 125.562 69.0521C124.924 64.8346 120.005 68.1817 118.08 68.3819C118.883 65.0685 119.393 61.6895 119.603 58.2837C119.129 53.3342 113.075 58.0503 111.189 58.7295C111.67 56.5547 114.171 51.3269 113.264 49.8627C112.358 48.3984 110.408 48.6414 109.815 50.4656C109.41 51.7144 108.958 53.5918 108.423 55.1648C107.56 57.8031 105.189 62.3077 107.272 63.8238C109.354 65.3399 113.252 61.5739 115.535 60.7535Z" fill="#58595B"/>
<path fill-rule="evenodd" clip-rule="evenodd" d="M44.8151 55.7063C43.6865 55.6699 42.5602 55.8083 41.4765 56.1168C40.2043 56.3802 39.4857 57.2768 38.2361 56.755C36.9866 56.2332 36.9333 54.6343 38.0586 53.6302C39.6865 52.2036 46.2462 51.6855 47.7427 51.7796C48.0544 51.781 48.3618 51.8555 48.6401 51.9971C48.9184 52.1386 49.1598 52.3432 49.3447 52.5943C49.5297 52.8454 49.653 53.136 49.7047 53.4426C49.7563 53.7491 49.735 54.0631 49.6423 54.359C48.9461 55.6529 48.1464 56.8884 47.2508 58.0535C48.5198 57.8452 55.4674 52.875 52.8078 61.2618C54.484 60.5473 56.2463 57.5446 57.9405 59.4351C59.6347 61.3257 56.6828 62.7577 55.2491 64.0969C53.8154 65.4361 51.5831 67.5117 49.8721 66.6949C47.4902 65.5478 49.2362 63.22 49.1493 61.4306C47.2055 61.962 45.0077 63.6299 43.1131 61.9372C41.2185 60.2446 43.0446 57.8775 44.5041 55.6978L44.8151 55.7063ZM48.9547 50.4265C46.4128 51.4965 34.5972 49.1797 31.4246 52.1381C28.8624 54.5365 31.6992 56.2884 33.85 57.5871C33.6634 58.4411 33.7508 59.3337 34.1 60.1389C34.4492 60.9441 35.0425 61.6214 35.7963 62.0753C36.9252 62.9552 37.4674 62.812 38.051 63.8903C38.6347 64.9685 38.2803 65.1346 39.1597 66.0986C41.555 68.7645 42.1343 66.2192 43.2947 68.885C44.2894 71.1415 45.4401 71.8344 47.344 71.2229C49.7889 73.6039 48.2058 73.8589 51.6142 74.173C53.2523 74.3204 52.8419 74.8818 54.2977 75.4942C54.6739 75.659 55.0922 75.7008 55.4923 75.6137L56.7366 75.4482C57.6872 73.8016 58.1212 73.9951 58.407 72.1073C58.6182 70.7466 58.1909 70.2432 58.4268 68.8398C59.0321 65.2546 64.356 60.8581 62.26 55.4852C61.2748 53.0631 62.2958 54.0802 61.4695 52.5767C60.0563 50.0501 61.0053 51.9381 60.9376 49.618C59.9659 49.5319 58.9913 49.7203 58.1254 50.1613C56.9702 50.5208 50.6531 51.4641 48.9547 50.4265Z" fill="#6D6E71"/>
<path fill-rule="evenodd" clip-rule="evenodd" d="M91.5209 43.9517C87.0773 41.6998 87.3775 40.5331 83.5515 39.3505C81.2799 38.6093 81.9221 39.6358 79.8548 40.3811C78.7518 40.7993 77.0983 40.7285 76.0996 41.4635C73.1374 43.6594 70.9759 50.3379 72.6404 53.7224C73.5831 55.7208 74.5169 55.148 76.1633 55.9275C77.8098 56.707 77.9962 57.727 80.4711 58.4146C85.8827 59.8852 81.1118 60.6377 88.5118 60.4052C90.2609 60.3601 90.8244 60.4288 92.1596 59.0613C94.1607 57.1373 96.1219 52.7953 95.552 50.6984C94.2673 46.5068 94.0196 45.1948 91.5209 43.9517Z" fill="#47302F"/>
<path fill-rule="evenodd" clip-rule="evenodd" d="M7.97163 45.1553C9.77941 42.7206 11.6641 40.3017 13.6287 38.043C15.2726 36.1409 18.0657 33.7902 18.6688 31.8004C16.6339 29.0574 15.4219 30.4106 13.3462 32.8617C10.5334 36.1419 -0.247487 47.6521 2.17455 51.0178C4.10621 52.6463 4.9334 51.2136 6.60585 50.9531C3.4021 58.7406 7.40941 60.2559 12.7749 54.7429C15.3012 58.4255 15.5027 57.4298 22.1262 50.7329C24.3926 48.4488 24.1928 45.9099 21.7255 46.4528C19.9984 47.6152 18.4404 49.0084 17.0947 50.5936C14.5119 47.7053 12.6116 50.2008 9.93573 52.4479C10.0715 52.2127 12.3632 47.1491 12.4008 46.6861C12.4724 46.1825 12.3536 45.6693 12.0674 45.2459C11.7812 44.8225 11.348 44.5191 10.8519 44.3947C9.46653 44.1081 9.99501 44.9835 7.97163 45.1553Z" fill="#58595B"/>
<path fill-rule="evenodd" clip-rule="evenodd" d="M34.8183 26.2132C32.5787 29.197 22.6288 40.959 28.696 42.6371C31.0722 41.1578 30.0071 38.5755 34.6469 32.3299C40.6192 24.3731 45.8739 16.5153 54.9407 13.3959C56.0529 13.0116 57.0258 13.1171 57.5974 11.6793C57.7146 11.4493 57.775 11.1944 57.7738 10.9358C57.7725 10.6771 57.7096 10.4221 57.5903 10.1917C57.4709 9.96126 57.2984 9.76207 57.0872 9.6105C56.8759 9.45893 56.6318 9.35931 56.375 9.31987C54.2077 8.89543 48.0776 12.7979 45.4608 14.5945C41.2665 17.8259 37.6664 21.7562 34.8183 26.2132Z" fill="#58595B"/>
<path fill-rule="evenodd" clip-rule="evenodd" d="M44.8128 55.7051C43.3533 57.8848 41.6256 60.2803 43.4218 61.9445C45.2179 63.6088 47.4281 61.9196 49.458 61.4378C49.5449 63.2273 47.7989 65.5551 50.1808 66.7022C51.8177 67.6473 53.8682 65.6378 55.5578 64.1041C57.2473 62.5705 59.6973 61.1623 58.2492 59.4424C56.8011 57.7225 54.7496 60.5297 53.1165 61.2691C55.7514 52.9251 48.8038 57.8952 47.5595 58.0607C48.4551 56.8957 49.2548 55.6602 49.951 54.3663C50.0437 54.0704 50.065 53.7564 50.0133 53.4499C49.9617 53.1433 49.8383 52.8527 49.6534 52.6016C49.4685 52.3504 49.2271 52.1458 48.9488 52.0043C48.6705 51.8628 48.363 51.7883 48.0514 51.7869C46.4903 51.6555 39.909 52.1611 38.3673 53.6375C37.242 54.6415 37.0644 56.1927 38.5448 56.7623C40.0252 57.3319 40.4053 56.3253 41.7852 56.124C42.7687 55.8431 43.7879 55.7021 44.8128 55.7051Z" fill="#58595B"/>
<path fill-rule="evenodd" clip-rule="evenodd" d="M49.0949 29.4939C48.9914 28.5788 49.7796 21.7918 43.9739 24.8836C42.5964 25.628 40.5005 27.0696 41.102 28.6144C42.0195 31.0544 44.0453 29.0876 45.2349 28.3203C45.6173 30.1948 44.2923 33.1364 46.7454 34.011C48.3059 34.5413 50.7539 32.3906 52.7497 32.1173C52.9138 33.7232 52.1231 35.4906 52.9405 36.7609C54.179 38.6449 56.1204 37.5704 57.411 37.3745C57.8591 38.4886 57.3266 38.2667 57.9074 39.2008C58.1167 39.4997 58.3893 39.7494 58.7057 39.9321C59.0221 40.1147 59.3747 40.226 59.7382 40.2578C60.4912 39.7322 61.0166 38.9424 61.21 38.0453C61.4035 37.1481 61.2508 36.2092 60.7824 35.4149C59.7877 33.1584 57.6377 33.5993 56.2921 33.5922C56.1807 31.6461 57.527 28.9164 54.8091 28.003C53.3686 27.5135 50.8879 28.8754 49.0949 29.4939Z" fill="#58595B"/>
<path fill-rule="evenodd" clip-rule="evenodd" d="M75.2305 68.3344C74.543 68.8784 75.0946 68.5696 74.0657 68.8594C73.5519 69.0186 73.0282 69.1447 72.4978 69.2372C70.4311 69.5837 71.0019 68.7442 69.6978 67.6206C63.5028 71.6852 65.8789 72.5439 64.4296 78.6356C65.6224 80.1511 65.9785 80.927 68.2205 80.8242C68.9871 80.7984 69.7436 80.6476 70.4598 80.3779L72.3881 79.923C72.4621 79.7947 72.5173 79.9976 72.6807 79.8638L71.7545 79.3291C70.1926 79.796 70.864 79.7274 69.0697 79.0051C67.8294 78.5171 67.0718 78.5359 67.1386 76.9778C67.5665 74.7443 69.3803 74.7365 70.965 75.6229C71.0884 75.409 71.3627 75.2822 71.5723 75.1181C69.9729 73.71 70.2235 72.8283 71.7405 71.3946L72.9688 71.7046L76.4914 74.1091C77.336 72.3043 78.4004 70.6111 79.6607 69.0674C77.6725 68.2331 77.4277 69.4034 75.2305 68.3344Z" fill="#6D6E71"/>
<path fill-rule="evenodd" clip-rule="evenodd" d="M88.5549 76.1981C86.0451 73.9792 84.111 76.4836 85.8537 78.8869C88.1744 82.08 89.6593 81.5972 91.5236 78.3682C92.633 79.3225 93.9118 80.0608 95.2929 80.5444C99.0347 77.9433 95.9401 68.6294 93.0769 70.4548C91.354 71.5985 92.4604 73.2637 93.007 74.4061C90.7099 74.3059 90.5268 73.0312 88.5549 76.1981Z" fill="#58595B"/>
<path fill-rule="evenodd" clip-rule="evenodd" d="M53.9617 90.4966C53.3557 92.3422 53.1285 94.1783 55.2766 95.1334C57.5288 94.2668 56.8703 93.9151 57.1162 91.9472C57.3946 90.9675 58.4698 90.6473 58.4409 89.205C57.2012 85.9802 55.2402 87.7848 53.9617 90.4966Z" fill="#231F20"/>
<path fill-rule="evenodd" clip-rule="evenodd" d="M53.9345 84.3807C53.105 84.6922 52.3481 85.1677 51.7091 85.7786C51.0702 86.3896 50.5624 87.1234 50.216 87.9363C49.6995 89.577 51.1358 90.9194 52.9632 89.8931C54.7907 88.8668 59.1635 84.1778 53.9345 84.3807Z" fill="#231F20"/>
<path fill-rule="evenodd" clip-rule="evenodd" d="M71.7673 79.3065C73.8632 77.865 73.009 76.4594 71.0209 75.6252C69.0327 74.7909 67.6224 74.7465 67.1945 76.98C67.1277 78.5382 67.8853 78.5194 69.1256 79.0074C70.9015 79.662 70.3163 79.7803 71.7673 79.3065Z" fill="#231F20"/>
<path fill-rule="evenodd" clip-rule="evenodd" d="M71.6757 75.0912C74.8745 77.9074 77.983 74.5129 73.0721 71.6776L71.8439 71.3677C70.3392 72.7799 70.0548 73.6707 71.6757 75.0912Z" fill="#231F20"/>
<path fill-rule="evenodd" clip-rule="evenodd" d="M58.2066 79.2616C57.0006 81.1379 55.5647 82.8564 53.9317 84.3777C58.7594 84.9695 54.179 88.2271 52.8987 89.997L53.7304 89.8499C53.5909 90.5392 53.7304 89.8499 53.9604 90.496C55.4173 87.9726 57.0112 86.5549 58.5258 89.2541C58.1575 90.6381 57.501 91.029 57.201 91.9962C58.5339 90.0856 58.5848 91.1415 59.806 89.8221C59.9542 89.5655 61.8578 86.8155 62.0554 86.4733C62.4967 84.668 62.4279 82.7732 61.8564 80.9981C60.9045 78.9659 59.8131 77.623 58.2066 79.2616ZM71.6721 75.0893L71.0648 75.594C72.6151 76.8882 73.1346 77.5303 71.8112 79.2754L72.7374 79.8101L73.3836 80.1832C73.9257 79.0722 74.5445 78.0005 75.2355 76.9755C75.9766 76.1639 76.4233 75.1276 76.5051 74.0304L72.9824 71.626C77.5699 74.4742 74.6038 77.3236 71.6721 75.0893Z" fill="#231F20"/>
<path fill-rule="evenodd" clip-rule="evenodd" d="M95.2812 80.5657C93.9 80.082 92.6213 79.3437 91.5118 78.3895C89.6476 81.6185 88.138 82.144 85.842 78.9081C84.0992 76.5048 86.0334 74.0004 88.5432 76.2193C90.5522 72.9883 90.612 74.2774 92.9829 74.4487C92.4363 73.3063 91.33 71.6411 93.0529 70.4974C95.9161 68.672 99.0107 77.9859 95.2688 80.5871L95.2812 80.5657ZM95.0445 68.739C94.4299 67.8139 93.0067 65.8518 91.6243 65.7094L91.2298 65.9949C90.9809 66.1917 90.7216 66.3751 90.453 66.5443C89.9124 67.8289 89.3503 69.101 88.822 70.3642C87.5317 73.2895 85.4335 75.7854 82.7706 77.5625C81.3918 78.6745 80.2599 80.0593 79.4456 81.6304C83.7734 82.9886 85.7591 85.6177 89.6476 81.6185C93.7557 83.7052 93.3854 84.3467 96.9005 80.8449C100.216 81.818 103.796 80.2925 100.703 76.3971C98.9081 74.1345 95.9462 71.4551 95.2352 68.9062L95.0445 68.739Z" fill="#6D6E71"/>
<path fill-rule="evenodd" clip-rule="evenodd" d="M102.871 50.3055L103 50.3801C104.661 49.6448 106.131 48.5441 107.3 47.1603C108.213 45.9767 110.214 42.1136 109.658 41.1368C109.152 41.6147 108.249 42.2338 107.713 42.8649C106.646 44.0166 105.947 45.9228 105.189 46.5399C103.01 47.8765 103.222 48.2555 102.954 50.4105L102.871 50.3055ZM73.8366 33.5424L73.9971 33.2644C74.084 33.062 74.1483 32.8505 74.1889 32.6338C74.285 32.1191 74.2629 32.5055 74.1897 32.0355C74.5729 30.7008 75.1749 29.4396 75.9715 28.3027C76.5515 27.4707 77.0595 26.5908 77.49 25.6725C77.6794 24.8508 77.9412 24.0479 78.2723 23.2729C76.579 24.6032 75.2088 26.2965 74.2625 28.2284C73.758 29.1604 73.4744 30.1961 73.4332 31.2566C73.3216 32.1129 73.4945 32.9839 73.9256 33.7364L73.8366 33.5424ZM77.126 46.8465C77.7504 47.4065 77.7719 47.419 77.9095 48.1257C78.0471 48.8324 78.423 48.6788 78.5021 49.4372C79.4931 49.8098 80.4104 50.1113 80.4033 48.482C80.1084 47.9981 79.1454 47.3281 79.2634 46.6264C78.8776 46.5292 78.4718 46.554 78.1024 46.6974C77.7081 46.7834 77.4864 46.7694 77.126 46.8465ZM85.5046 51.6839C85.4022 52.309 85.3194 52.0047 85.6882 52.5597C86.2923 52.7073 86.8685 52.9532 87.3932 53.2875C87.9533 53.6108 88.0725 54.2499 88.5868 54.2047C88.3357 53.1473 88.8293 52.4914 87.9128 51.5916C87.4261 51.7383 87.3181 51.8755 86.73 51.8496C86.1419 51.8237 85.905 51.6869 85.5046 51.6839ZM84.9564 19.6047C85.2761 19.2501 85.6722 18.972 86.1153 18.7912L90.185 17.4627C90.7518 17.2768 90.5147 17.3394 91.1275 17.3226C92.3976 16.9517 93.7347 16.8582 95.0479 17.0484C97.1717 17.4805 99.1889 18.3348 100.978 19.56C101.495 19.8585 102.034 20.1694 102.572 20.4803L105.98 23.3318C107.242 24.6147 108.216 26.1492 108.838 27.833L108.908 28.5576C109.03 29.5404 109.295 29.3798 109.063 30.5286C108.923 31.2179 108.928 32.3041 108.776 33.2142C108.417 35.429 107.418 37.4878 105.901 39.1386C105.123 40.4858 103.331 44.9826 102.742 45.555C102.153 46.1273 101.373 47.1309 100.78 48.1573C99.8399 47.6722 98.751 47.564 97.738 47.8551C96.2996 48.1081 95.9413 48.9277 95.2756 49.2847C94.61 49.6417 94.3791 49.594 93.9323 49.8207C92.6843 50.4403 90.8978 53.0869 91.1831 53.9359L91.0843 54.107C90.7622 54.3333 90.3796 54.4595 89.9845 54.4699L90.4232 53.4116C90.9915 51.8573 91.088 50.1681 90.7007 48.5537L90.3752 47.8241C90.2809 47.6153 90.2039 47.3992 90.1451 47.178C90.4751 46.8553 90.4872 47.0333 90.8202 46.6554C91.3438 45.9357 91.5627 45.0388 91.4302 44.1563C91.5453 41.8568 91.8992 39.5768 92.4863 37.3529C92.6855 36.9774 92.7932 36.56 92.8007 36.1343C92.8082 35.7086 92.7153 35.2865 92.5295 34.9019C92.3437 34.5173 92.0702 34.181 91.7309 33.9199C91.3917 33.6588 90.9962 33.4804 90.5763 33.3989C90.0467 33.3212 89.6829 33.6529 89.2511 34.2019C88.6375 35.4147 87.9574 36.5926 87.2139 37.7303C86.1963 38.7965 84.2706 39.595 83.4495 41.1168C82.9186 42.0363 83.3158 42.0946 83.2348 42.7321C80.6961 42.6507 78.2119 43.4411 76.1985 44.9709C76.1617 44.4654 76.0976 43.962 76.0066 43.463L76.1053 43.2919C76.6609 42.6441 76.9885 41.8323 77.0384 40.9794C77.0702 40.2279 77.2806 39.4655 77.2969 38.7906C77.3387 37.4747 75.6739 36.6276 75.1061 35.2733C75.1863 35.1381 75.2338 34.986 75.2447 34.829C75.2556 34.672 75.2296 34.5144 75.1688 34.3686C75.5027 33.3924 77.4151 31.075 78.014 29.9382C78.2023 29.5155 78.3503 29.0759 78.4561 28.6252C78.9589 27.7682 79.5338 26.9556 80.1746 26.1959C80.3474 25.8965 81.7977 23.6831 81.8224 23.6403C83.0388 22.437 84.0923 21.0805 84.9564 19.6047Z" fill="#F3CCAC"/>
<path fill-rule="evenodd" clip-rule="evenodd" d="M83.2574 42.7459C85.8905 42.6124 84.529 45.2193 86.7649 45.0275C87.3346 44.9858 88.5143 44.783 89.0218 45.2471C89.4775 45.7994 89.8473 46.4166 90.1186 47.0779C90.4486 46.7552 90.4606 46.9332 90.7937 46.5553C91.3172 45.8356 91.5362 44.9387 91.4037 44.0562C91.5188 41.7567 91.8727 39.4767 92.4598 37.2528C92.659 36.8773 92.7667 36.4599 92.7742 36.0342C92.7817 35.6085 92.6888 35.1864 92.503 34.8018C92.3172 34.4172 92.0437 34.0808 91.7044 33.8198C91.3652 33.5587 90.9697 33.3803 90.5498 33.2987C90.0202 33.2211 89.6564 33.5528 89.2245 34.1018C88.611 35.3146 87.9309 36.4925 87.1874 37.6302C86.1698 38.6964 84.2441 39.4949 83.423 41.0167C82.9412 42.0501 83.4245 42.1581 83.2574 42.7459Z" fill="#DEB795"/>
<path fill-rule="evenodd" clip-rule="evenodd" d="M99.4593 37.0171C100.257 36.879 101.613 38.2607 101.862 38.775C102.738 39.9935 103.903 38.8701 103.39 37.9182C102.08 36.2815 100.321 35.058 98.3296 34.3976L97.5539 34.1493C94.9532 33.1325 93.4788 34.9899 93.9366 35.7389C94.3944 36.488 94.7551 36.2115 95.245 36.0096C97.2347 35.6472 98.1225 37.2433 99.4593 37.0171Z" fill="#231F20"/>
<path fill-rule="evenodd" clip-rule="evenodd" d="M93.2771 38.3226C92.795 39.5555 95.1096 42.6596 97.5951 42.3838C98.3219 42.3187 98.9562 42.3143 99.459 41.6922C100.563 40.2769 98.6989 39.0294 97.3543 38.2245C96.5789 37.7769 93.7344 37.1325 93.2771 38.3226Z" fill="white"/>
<path fill-rule="evenodd" clip-rule="evenodd" d="M82.2158 27.2888C81.9812 27.6951 82.4025 28.1094 82.8919 28.3064C83.3813 28.5034 83.9972 28.4314 84.148 28.5184C84.4628 28.8202 84.8094 29.0872 85.1816 29.3147C86.5057 29.7879 87.6475 30.6667 88.4424 31.8246C88.8847 32.6502 90.0363 32.7449 90.1519 31.5C90.2688 29.2581 86.7341 26.6755 84.3322 26.6574C83.6792 26.7936 82.5129 26.1773 82.2158 27.2888Z" fill="#231F20"/>
<path fill-rule="evenodd" clip-rule="evenodd" d="M79.1886 46.7553C79.0706 47.457 80.0336 48.127 80.3285 48.611C81.1257 49.2421 82.0111 49.7534 82.9563 50.1281C83.9328 50.4168 84.8026 50.9885 85.4545 51.7701C85.8549 51.7731 86.3011 51.9452 86.6799 51.9358C87.0587 51.9264 87.376 51.8245 87.8627 51.6778C86.9135 49.9893 85.1031 49.7424 83.8116 48.398C83.2215 47.7836 82.4958 47.315 81.6928 47.0297C80.8899 46.7444 80.0321 46.6504 79.1886 46.7553Z" fill="#E38D8C"/>
<path fill-rule="evenodd" clip-rule="evenodd" d="M81.559 32.2988C81.588 32.8001 81.7207 33.2906 81.949 33.7395C82.1773 34.1884 82.496 34.586 82.8852 34.9071C83.2745 35.2282 83.7257 35.466 84.2105 35.6055C84.6953 35.7449 85.2033 35.783 85.7023 35.7174C87.1499 35.4982 88.142 35.0731 87.1591 33.194C86.7035 32.5742 86.0501 32.1266 85.3071 31.9251C84.6115 31.6376 81.9761 31.228 81.559 32.2988Z" fill="white"/>
<path fill-rule="evenodd" clip-rule="evenodd" d="M83.2538 42.7431C80.7151 42.6616 78.2308 43.452 76.2175 44.9819C74.7597 45.9649 76.5471 47.1965 76.8954 46.9414L77.0893 47.0534C77.4497 46.9763 77.6714 46.9902 78.0656 46.9042C78.4351 46.7609 78.8409 46.7361 79.2267 46.8332C80.0705 46.7237 80.9296 46.8133 81.7347 47.0949C82.5399 47.3765 83.2686 47.8422 83.862 48.4545C85.1536 49.799 86.9639 50.0458 87.9132 51.7343C88.8296 52.6341 88.3361 53.2901 88.5871 54.3474C88.6294 54.4437 88.6903 54.5307 88.7663 54.6036C88.8424 54.6764 88.9322 54.7335 89.0304 54.7716C89.1286 54.8098 89.2333 54.8282 89.3384 54.8257C89.4436 54.8232 89.547 54.8 89.6428 54.7573C90.0254 54.4021 90.2919 53.9404 90.4083 53.4315C90.9766 51.8772 91.0731 50.188 90.6858 48.5736L90.3603 47.8439C90.266 47.6351 90.189 47.4191 90.1303 47.1979C89.8589 46.5366 89.4891 45.9194 89.0334 45.3671C88.5259 44.903 87.3462 45.1058 86.7765 45.1475C84.5254 45.2164 85.9946 42.6717 83.2538 42.7431Z" fill="#6D6E71"/>
<path fill-rule="evenodd" clip-rule="evenodd" d="M78.5456 51.6008C77.2761 49.8699 78.9202 47.7684 80.2864 48.5856C81.0835 49.2168 81.969 49.728 82.9141 50.1027C83.8906 50.3914 84.7604 50.9631 85.4124 51.7447C85.3068 52.425 86.1663 52.18 85.4008 53.5058C84.6353 54.8316 79.394 52.7179 78.5456 51.6008Z" fill="#6D6E71"/>
<path fill-rule="evenodd" clip-rule="evenodd" d="M73.8243 33.5644C72.2613 37.167 71.2141 37.3892 70.7162 41.236C70.5607 42.4008 70.1708 43.7724 70.0862 44.864C69.8442 48.5164 69.8709 51.5542 72.2877 54.2325C73.9076 56.1921 75.8979 57.816 78.1445 59.011C79.3624 59.8048 80.6811 60.4319 82.0651 60.8754C84.3128 61.3993 86.6334 61.5228 88.9193 61.2402C91.0341 60.5532 92.9952 59.4694 94.6974 58.0469C95.7547 57.2602 96.3562 56.467 97.3489 55.643C98.3415 54.819 99.1981 54.4297 100.135 53.6022C101.468 52.5641 102.535 51.2269 103.251 49.6984C103.423 48.4181 104.093 47.2591 105.115 46.4694C105.787 45.8026 106.572 43.9461 107.639 42.7944C107.884 42.5383 108.147 42.2994 108.425 42.0793C107.128 40.4464 106.192 39.8778 105.456 39.9091C104.65 41.8181 103.737 43.6806 102.724 45.4879C102.168 46.4502 101.354 47.0639 100.762 48.0903C100.762 48.0903 98.4724 51.3591 98.2444 51.4555C97.283 51.9269 97.7729 51.725 97.0758 52.6341C96.3786 53.5431 95.1561 53.5216 94.4842 53.9891C93.8123 54.4565 92.9331 55.6311 91.8926 55.344C90.8522 55.057 91.2068 54.6915 90.9549 54.2324C90.6328 54.4587 90.2502 54.5849 89.8551 54.5953L90.2938 53.5371C90.1774 54.046 89.9109 54.5077 89.5283 54.8629C89.4325 54.9056 89.3291 54.9288 89.2239 54.9312C89.1188 54.9337 89.0141 54.9153 88.9159 54.8772C88.8177 54.8391 88.7279 54.7819 88.6518 54.7091C88.5758 54.6363 88.5148 54.5492 88.4726 54.453C87.9583 54.4982 87.8144 53.9019 87.2791 53.5358C86.7543 53.2015 86.1782 52.9556 85.5741 52.808C85.8199 53.1781 85.2074 52.9955 84.76 53.6211C83.8451 53.6726 82.9298 53.5039 82.0915 53.1291C81.2532 52.7542 80.5165 52.1844 79.9437 51.4676C79.4058 50.7579 77.4507 50.513 78.4218 49.6766C78.3427 48.9181 77.9698 49.216 77.8292 48.365C77.6887 47.5141 77.6701 47.6459 77.0457 47.0858L76.8519 46.9739C76.5036 47.229 74.7161 45.9974 76.174 45.0143C76.1371 44.5088 76.073 44.0054 75.982 43.5064C75.5472 43.9112 75.2173 44.2339 74.7647 44.1722C74.4947 44.1356 74.2418 44.0179 74.0396 43.835C73.8374 43.652 73.6956 43.4125 73.6329 43.1481C73.1948 41.4695 74.2415 41.6462 73.7259 40.3506C73.2103 39.055 73.648 38.7944 73.7974 37.5406L75.8621 36.4517C76.3362 36.5258 75.451 35.2734 75.9176 34.1172C76.3841 32.9609 77.406 31.0418 77.9277 30.0885C78.1159 29.6658 78.2639 29.2263 78.3698 28.7756C78.8726 27.9186 79.4474 27.1059 80.0882 26.3462C80.1507 26.2209 80.2207 26.0995 80.2981 25.9827C79.8498 25.0681 78.4458 24.9133 78.0536 23.4038C77.6496 24.1493 77.3846 24.9622 77.2713 25.8034C76.8408 26.7217 76.3328 27.6016 75.7527 28.4336C74.9562 29.5705 74.3541 30.8317 73.9709 32.1664C73.9796 32.5991 74.0786 32.2286 73.9701 32.7647C73.9296 32.9814 73.8653 33.1929 73.7784 33.3953L73.8243 33.5644Z" fill="#C2C4C6"/>
<path fill-rule="evenodd" clip-rule="evenodd" d="M97.75 47.8336C96.3116 48.0866 95.9533 48.9062 95.2877 49.2632C94.6221 49.6202 94.3912 49.5725 93.9444 49.7992C92.6964 50.4188 90.9099 53.0654 91.1951 53.9144L91.0964 54.0855C91.3483 54.5445 91.3693 54.9558 92.0341 55.1971C92.6989 55.4384 94.0554 54.2827 94.6256 53.8421C95.1959 53.4016 96.3133 53.7045 97.2172 52.4872C98.1211 51.2698 97.4245 51.78 98.3859 51.3086C98.8451 51.091 99.2697 50.8079 99.6465 50.4682C101.389 48.7939 103.171 46.8007 97.8611 47.6412L97.75 47.8336ZM108.523 42.1069C108.909 41.7877 109.328 41.4594 109.633 41.1795C110.828 38.6478 111.656 35.9579 112.092 33.19C112.224 32.6052 112.28 32.0056 112.261 31.4056C112.301 30.8874 112.585 30.3956 112.626 29.6779C112.917 28.3413 112.817 26.9473 112.339 25.6606C111.86 24.3739 111.023 23.2482 109.926 22.4165C108.806 21.7699 108.107 19.399 106.883 18.635C103.484 16.5274 99.8841 14.7641 96.1364 13.3716L95.9211 13.2473C95.1136 12.7858 94.1597 12.6543 93.261 12.8805C92.5959 12.8386 91.7143 13.4702 90.3408 13.561C89.537 13.6102 89.9962 13.3621 88.9949 13.7534C87.9936 14.1447 88.0527 13.6941 86.9279 14.2992C86.2376 14.699 86.3981 14.421 85.8895 14.7547C84.5266 15.6709 83.3325 16.8137 82.3591 18.1337C82.0076 18.318 81.7062 18.584 81.4804 18.9095C81.2706 19.273 80.9007 19.5157 80.5831 19.817C80.2832 20.091 80.0058 20.3885 79.7536 20.7067C79.2169 21.3378 78.7042 22.5243 78.3708 23.1017C78.8 24.547 80.2531 24.8157 80.6153 25.6806C81.0351 24.9536 81.8499 23.5422 81.924 23.4139C83.1383 22.2605 84.1997 20.9571 85.0825 19.535C85.4022 19.1803 85.7982 18.9023 86.2414 18.7215L90.311 17.393C90.8779 17.207 90.6407 17.2697 91.2535 17.2528C92.4887 16.9232 93.7807 16.8535 95.0476 17.0483C97.1714 17.4804 99.1886 18.3347 100.978 19.5599C101.495 19.8584 102.034 20.1693 102.572 20.4802L105.98 23.3317C107.242 24.6146 108.216 26.1491 108.838 27.8329L108.908 28.5575C109.03 29.5403 109.295 29.3797 109.062 30.5285C108.923 31.2178 108.927 32.304 108.775 33.2141C108.417 35.4289 107.418 37.4877 105.9 39.1385C105.765 39.3738 105.567 39.7159 105.345 40.1008C104.715 41.1914 106.82 42.5205 108.4 42.1213L108.523 42.1069ZM73.9297 37.3599C73.7555 38.6564 73.4532 39.0806 73.8582 40.1698C74.2632 41.259 73.1792 41.3459 73.7652 42.9673C73.8278 43.2317 73.9697 43.4713 74.1719 43.6542C74.3741 43.8372 74.627 43.9548 74.897 43.9915C75.3496 44.0532 75.6795 43.7304 76.1142 43.3256L76.213 43.1546C76.7686 42.5068 77.0961 41.695 77.1461 40.842C77.1779 40.0906 77.3883 39.3282 77.4046 38.6533C77.3847 37.9048 77.1611 37.1746 76.7577 36.5406C75.4425 34.4412 74.5179 32.7098 73.8651 37.3226L73.9297 37.3599Z" fill="#6D6E71"/>
<path fill-rule="evenodd" clip-rule="evenodd" d="M95.6705 37.7098C95.3408 37.8962 95.076 38.1779 94.9107 38.5179C94.7453 38.8579 94.6872 39.2404 94.744 39.6152C94.8007 39.9901 94.9697 40.3398 95.2287 40.6186C95.4877 40.8974 95.8247 41.0923 96.1955 41.1777C96.5028 41.3048 96.8381 41.3478 97.1667 41.3025C97.4952 41.2572 97.805 41.125 98.0641 40.9198C98.3232 40.7146 98.5221 40.4438 98.6401 40.1354C98.7582 39.827 98.7912 39.4922 98.7356 39.1658C98.2796 38.8469 97.7967 38.5681 97.2925 38.3326C96.7857 38.0454 96.2389 37.8355 95.6705 37.7098Z" fill="#D5A165"/>
<path fill-rule="evenodd" clip-rule="evenodd" d="M96.6803 37.9494C96.4172 37.9817 96.1741 38.1044 95.9928 38.2964C95.8115 38.4884 95.7034 38.7377 95.687 39.0015C95.6706 39.2653 95.7469 39.5271 95.9029 39.742C96.0589 39.9568 96.2847 40.1113 96.5417 40.1789C96.755 40.2544 96.9851 40.2681 97.2051 40.2183C97.4251 40.1685 97.6261 40.0574 97.7845 39.8977C97.9428 39.7381 98.0521 39.5366 98.0996 39.3168C98.147 39.0969 98.1307 38.8678 98.0525 38.6561L97.3419 38.2458C97.1345 38.12 96.9122 38.0204 96.6803 37.9494Z" fill="#231F20"/>
<path fill-rule="evenodd" clip-rule="evenodd" d="M83.2911 31.5874C83.0953 31.8441 82.9668 32.1455 82.917 32.4647C82.8673 32.784 82.898 33.111 83.0062 33.4165C83.1144 33.722 83.2969 33.9964 83.5372 34.2152C83.7775 34.434 84.0682 34.5903 84.3832 34.67C84.6664 34.7899 84.9748 34.8374 85.2802 34.808C85.5857 34.7787 85.8783 34.6735 86.1316 34.5021C86.3848 34.3307 86.5904 34.0985 86.7298 33.8267C86.8691 33.555 86.9376 33.2524 86.9291 32.9465C86.4527 32.4552 85.8482 32.1062 85.1844 31.9392C84.5735 31.7299 83.9355 31.6114 83.2911 31.5874Z" fill="#D5A165"/>
<path fill-rule="evenodd" clip-rule="evenodd" d="M84.6747 31.7316C84.4303 31.8274 84.2271 32.0046 84.0995 32.2332C83.9719 32.4617 83.9277 32.7277 83.9744 32.9861C84.0211 33.2444 84.1558 33.4793 84.3558 33.651C84.5558 33.8227 84.8087 33.9206 85.0718 33.9282C85.2666 33.9193 85.4557 33.8618 85.6219 33.761C85.7881 33.6602 85.926 33.5193 86.023 33.3512C86.1201 33.1832 86.1731 32.9933 86.1773 32.799C86.1815 32.6046 86.1368 32.4121 86.0471 32.2389C85.8007 32.0545 85.5332 31.9001 85.2504 31.7789C85.0635 31.7239 84.8676 31.7078 84.6747 31.7316Z" fill="#231F20"/>
<path fill-rule="evenodd" clip-rule="evenodd" d="M84.6736 31.7307C84.4932 31.792 84.3319 31.8984 84.205 32.0398C84.0782 32.1812 83.99 32.3528 83.9489 32.5384C84.0541 32.4149 84.1853 32.3161 84.3333 32.2489C84.4812 32.1816 84.6424 32.1475 84.8054 32.149C84.9813 32.1388 85.1572 32.1722 85.3174 32.2462C85.4777 32.3203 85.6173 32.4326 85.7238 32.5731C85.8304 32.7137 85.9005 32.8781 85.9279 33.0518C85.9553 33.2254 85.9391 33.4029 85.8809 33.5683C86.0287 33.3839 86.1223 33.1621 86.1514 32.9274C86.1805 32.6927 86.1441 32.4541 86.046 32.238C85.7996 32.0536 85.5321 31.8992 85.2493 31.778C85.0624 31.723 84.8665 31.7069 84.6736 31.7307Z" fill="#231F20"/>
<path fill-rule="evenodd" clip-rule="evenodd" d="M85.3436 32.1172C85.2876 32.1351 85.2391 32.1706 85.2051 32.2184C85.1712 32.2662 85.1538 32.3237 85.1555 32.3823C85.1571 32.441 85.1777 32.4977 85.2143 32.5439C85.2508 32.5902 85.3013 32.6235 85.3583 32.6389C85.6692 32.6474 85.6884 32.1167 85.3436 32.1172Z" fill="white"/>
<path fill-rule="evenodd" clip-rule="evenodd" d="M96.9254 38.319C96.8897 38.3133 96.8533 38.3153 96.8186 38.325C96.7839 38.3347 96.7518 38.3518 96.7245 38.3752C96.6972 38.3985 96.6754 38.4276 96.6606 38.4602C96.6458 38.4929 96.6383 38.5285 96.6387 38.5645C96.6391 38.6004 96.6474 38.6359 96.6629 38.6684C96.6785 38.701 96.701 38.7298 96.7288 38.7529C96.7566 38.7759 96.789 38.7927 96.8239 38.8021C96.8588 38.8114 96.8953 38.813 96.9308 38.8069C97.2202 38.8029 97.1625 38.2564 96.9254 38.319Z" fill="white"/>
</g>
<defs>
<clipPath id="clip0_1540_2503">
<rect width="166" height="127.636" fill="white" transform="translate(0 0.140381)"/>
</clipPath>
</defs>
</svg>
