<svg width="224" height="173" viewBox="0 0 224 173" fill="none" xmlns="http://www.w3.org/2000/svg">
<g clip-path="url(#clip0_1540_1825)">
<path fill-rule="evenodd" clip-rule="evenodd" d="M8.95289 61.0145C11.783 60.8321 10.9791 59.595 12.9693 60.1258C13.6418 60.2944 14.2289 60.7056 14.6169 61.2795C15.0048 61.8534 15.1659 62.549 15.0688 63.2315C14.9887 63.8423 11.9117 70.7225 11.7276 71.0413C15.3546 67.9954 17.9302 64.613 21.431 68.5279C23.2411 66.3485 25.3447 64.4292 27.6827 62.8236C31.0853 62.1215 31.3562 65.5628 28.2259 68.625C19.1315 77.6347 18.9752 79.0517 15.551 74.0603C8.3119 81.4747 2.84683 79.4788 7.18927 68.9235C4.80562 69.2091 3.71362 71.1679 1.18298 69.0112C-2.09989 64.4493 12.5128 48.848 16.3253 44.4021C19.1388 41.0797 20.7816 39.2456 23.5397 42.9636C22.7222 45.6605 18.9196 48.8756 16.7082 51.4249C14.0454 54.4864 11.4908 57.7649 9.04047 61.0651L8.95289 61.0145ZM64.6897 39.7852C67.0325 38.8963 70.4825 37.1009 72.5225 37.815C76.2064 39.053 74.3816 42.7529 74.5325 45.3907C76.2728 45.5452 79.2706 44.8027 80.6189 47.8612C81.2538 48.9378 81.4607 50.2105 81.1985 51.4265C80.9363 52.6425 80.2242 53.713 79.2035 54.4254C78.7108 54.3822 78.2329 54.2315 77.8041 53.9839C77.3752 53.7362 77.0057 53.3978 76.722 52.9927C75.9348 51.7267 76.6565 52.0274 76.0491 50.5173C74.2999 50.7828 71.6684 52.2392 69.9898 49.6856C68.7943 47.9133 69.866 45.5176 69.7311 43.3915C67.0259 43.762 63.708 46.6771 61.5928 45.9583C58.3554 44.8235 60.0638 40.7858 59.5454 38.2451C57.9329 39.285 55.1872 41.9508 53.9436 38.6436C53.1283 36.5498 55.9692 34.5958 57.8362 33.5869C65.7054 29.3961 64.6371 38.5954 64.7773 39.8358L64.6897 39.7852ZM122.196 59.383C125.583 61.0679 125.918 62.8462 127.522 68.564C128.311 71.3771 125.653 77.2624 122.924 79.8992C121.056 81.7191 120.292 81.626 117.98 81.7208C107.949 82.036 114.474 81.0498 107.081 79.0227C103.727 78.0907 104.016 76.9826 101.242 75.6516C98.4683 74.3207 97.7449 75.3715 96.4671 72.6628C94.1904 67.9089 97.2076 58.9072 101.156 56.0468C102.509 55.0506 104.751 55.1465 106.246 54.5798C109.048 53.5696 108.177 52.1781 111.256 53.1828C116.425 54.8147 116.018 56.3961 122.058 59.4193L122.196 59.383ZM45.3416 35.339C42.3059 39.3833 28.8197 55.3257 37.0433 57.6003C40.264 55.5951 38.8204 52.0951 45.1092 43.6297C53.2043 32.8449 60.3266 22.1942 72.6159 17.9661C74.1234 17.4452 75.4421 17.5882 76.2169 15.6395C76.3757 15.3276 76.4576 14.9822 76.4559 14.6316C76.4542 14.281 76.369 13.9354 76.2072 13.623C76.0454 13.3107 75.8117 13.0408 75.5253 12.8353C75.2389 12.6299 74.9081 12.4949 74.56 12.4414C71.6224 11.8661 63.3135 17.1556 59.7666 19.5907C54.0976 23.9266 49.2216 29.2024 45.3501 35.1893L45.3416 35.339ZM161.117 108.945C160.766 106.115 163.51 98.7329 162.908 96.3371C159.943 97.5623 152.909 101.655 152.943 94.9892C152.951 91.941 155.177 84.3764 154.746 82.1566C151.652 83.2685 146.357 88.3271 143.547 86.318C140.736 84.3089 143.937 78.1574 145.107 74.5815C145.832 72.4493 146.444 69.9047 146.993 68.2121C147.798 65.7396 150.261 65.1136 151.669 67.3949C153.077 69.6761 149.507 76.4653 148.857 79.4131C151.412 78.4925 159.635 72.0712 160.26 78.8089C159.976 83.4252 159.285 88.0051 158.197 92.4963C160.806 92.2248 167.473 87.6882 168.338 93.4046C168.822 96.5439 166.824 101.69 166.871 104.576L166.966 105.288C175.081 98.3794 178.364 102.13 176.636 111.529C175.947 113.625 175.687 115.84 175.872 118.044C190.312 107.057 185.892 119.5 182.295 130.718C193.037 125.597 184.082 145.894 183.076 146.357C181.252 146.617 179.286 146.178 179.695 143.516C179.914 141.787 181.231 140.113 180.988 137.77C179.589 138.508 177.655 139.362 176.197 137.438C174.739 135.514 178.298 127.057 179.895 121.796L178.129 122.361C178.129 122.361 170.115 128.285 170.185 120.209C170.311 116.417 171.961 111.805 171.966 108.021C169.343 109.328 162.001 115.909 161.117 108.945ZM64.5015 68.1587C66.837 69.5071 75.3658 68.2865 76.9862 67.6375C78.1598 67.0397 79.4808 66.7845 80.7979 66.9011C80.8896 70.0458 79.6617 67.5205 81.5187 70.9114C82.6388 72.9493 81.1673 71.5201 82.5903 74.8536C85.4648 82.0782 78.215 88.0952 77.3946 92.9547C77.0749 94.857 77.6541 95.5392 77.3678 97.3835C76.9804 99.9424 76.4214 99.6969 75.1037 101.912C74.0647 104.79 74.5226 105.75 77.1964 106.985C80.411 106.406 79.533 107.522 82.1434 109.338C84.0973 108.921 84.8446 108.773 85.6287 106.133C87.4425 98.1375 84.2218 96.9737 92.5517 91.5804C94.3863 92.9874 93.6126 94.1252 96.347 93.7716C99.0813 93.4179 97.9922 108.789 97.1456 108.3C97.5137 107.662 97.708 112.18 101.188 112.759C102.106 112.776 103.012 112.556 103.816 112.119C104.621 111.683 105.297 111.046 105.779 110.27C106.882 108.14 108.417 106.263 110.285 104.756C113.895 102.347 116.739 98.9643 118.488 94.9993C119.204 93.2872 119.966 91.5629 120.698 89.8217C121.062 89.5924 121.414 89.3438 121.751 89.077L122.286 88.6901C124.16 88.8831 126.089 91.5426 126.922 92.7965L127.214 92.965C128.566 92.4769 130.048 92.4646 131.415 92.9302C132.781 93.3958 133.95 94.3114 134.727 95.5254C135.259 96.952 136.084 98.254 137.148 99.3478C138.213 100.442 139.494 101.303 140.909 101.877C145.142 104.321 141.166 102.644 145.674 108.995C148.003 112.31 150.724 112.722 153.575 115.064C152.44 121.481 155.999 125.699 156.053 128.707C156.183 137.245 158.564 135.953 159.654 138.515C159.9 139.236 159.776 140.866 160.042 142.024C160.711 144.268 161.538 146.463 162.517 148.593C163.132 150.223 162.778 153.265 163.526 155.474C163.937 156.717 163.859 156.246 164.454 157.17C165.579 158.863 165.362 158.699 164.736 162.279C164.223 164.92 162.959 167.244 165.962 168.784C168.542 168.226 168.669 167.062 170.751 164.67C171.436 167.461 169.702 168.779 170.61 170.578C172.048 171.904 173.811 172.828 175.719 173.258C177.998 172.951 179.183 170.427 181.047 168.141C183.405 168.305 184.235 169.363 185.763 165.84C186.617 163.821 187.269 159.792 189.467 161.447L189.817 161.649C190.061 162.188 190.433 162.661 190.901 163.025C191.369 163.39 191.919 163.635 192.502 163.74C195.335 161.936 196.307 155.464 196.95 152.396C197.799 148.364 199.181 144.756 200.271 140.71C200.779 138.777 201.124 136.804 201.302 134.812C201.786 131.614 201.281 132.018 201.159 129.397C200.785 122.05 199.795 114.743 198.2 107.554C197.801 105.695 197.286 103.861 196.659 102.065C196.01 99.3406 194.982 96.718 193.605 94.2733C193.252 93.3349 191.595 78.0017 186.592 70.2828C184.889 67.6375 184.745 68.5596 183.406 65.3514C181.446 60.5874 175.237 47.0704 169.874 46.4477C167.028 46.1184 169.164 47.2741 164.257 46.3346C158.871 45.7542 153.429 46.2072 148.227 47.669L137.626 50.3212C132.34 51.7909 133.356 53.8072 126.922 51.8706C125.143 51.128 123.314 50.5111 121.449 50.0244C118.398 49.5771 119.29 50.8648 116.049 49.2641C112.028 47.3291 108.584 47.4278 104.822 45.4489C102.837 44.3028 100.723 42.5027 98.7924 41.1948C96.8617 39.8868 95.0555 39.0373 92.9535 37.8237C90.8515 36.6101 83.7448 20.063 82.6255 17.4844C72.6225 -5.64286 55.071 16.5319 33.3491 26.7147C26.1914 31.4719 19.4329 36.7974 13.1389 42.6396C9.93733 45.8925 6.14625 46.7954 3.70624 51.7633C-1.59251 62.694 1.64575 56.9503 0.505933 63.4418C0.173709 65.2982 -4.09099 70.7971 -4.82774 75.5116C-5.34976 78.843 -4.15243 79.2637 -4.21762 81.197C-4.28282 83.1304 -5.28116 83.7134 -4.97219 86.7516C-4.48987 91.2425 -9.00515 93.7368 -3.9346 97.3599C-4.32702 100.534 -4.03153 101.169 -1.09746 101.278C1.35958 99.1799 1.51453 95.6753 4.14036 92.2059C6.19788 92.3504 5.99671 92.9685 8.01511 91.1581C9.33567 89.9495 10.36 88.6473 11.7179 87.5763C13.5814 86.1015 18.4805 83.7514 19.3251 82.6932C20.9807 80.6347 19.2393 81.2911 22.3226 79.052C23.4518 78.2552 24.7226 77.6779 26.0688 77.3503C29.1076 75.4949 31.6878 72.9838 33.6208 70.0007C43.4477 56.3511 40.6438 61.8818 49.0728 63.4634C53.5628 64.3166 52.2847 61.8783 57.461 64.4417C62.6373 67.0052 63.2195 65.5249 64.5015 68.1587Z" fill="#231F20"/>
<path fill-rule="evenodd" clip-rule="evenodd" d="M154.747 82.156C155.237 84.4095 152.981 91.9572 152.944 94.9886C152.985 101.66 159.944 97.5617 162.909 96.3365C163.444 98.8482 160.767 106.114 161.118 108.945C162.002 115.909 169.344 109.327 171.967 108.02C171.929 111.863 170.228 116.561 170.185 120.208C170.116 128.284 177.975 122.426 178.129 122.36L179.896 121.795C178.353 126.895 174.556 135.292 176.198 137.438C177.839 139.583 179.502 138.456 180.989 137.769C181.232 140.112 179.915 141.787 179.696 143.515C179.375 146.228 181.252 146.617 183.077 146.356C184.083 145.894 193.126 125.647 182.296 130.717C185.892 119.499 190.279 107.115 175.873 118.043C175.688 115.84 175.948 113.624 176.637 111.528C178.219 102.046 175.031 98.4658 166.966 105.288L166.871 104.576C166.825 101.689 168.852 96.5602 168.339 93.404C167.474 87.6876 160.807 92.2242 158.198 92.4956C159.286 88.0045 159.976 83.4246 160.261 78.8083C159.619 72.0996 151.413 78.4919 148.857 79.4125C149.508 76.4647 152.899 69.3789 151.67 67.3942C150.441 65.4096 147.799 65.739 146.994 68.2115C146.445 69.9041 145.832 72.4487 145.107 74.5808C143.938 78.1568 140.724 84.2625 143.547 86.3174C146.37 88.3724 151.653 83.2679 154.747 82.156Z" fill="#58595B"/>
<path fill-rule="evenodd" clip-rule="evenodd" d="M58.8922 75.3152C57.3626 75.2658 55.836 75.4535 54.367 75.8715C52.6428 76.2286 51.6686 77.4439 49.975 76.7366C48.2814 76.0293 48.2091 73.8621 49.7344 72.5012C51.9408 70.5675 60.8321 69.8653 62.8604 69.9929C63.2828 69.9948 63.6995 70.0957 64.0767 70.2876C64.454 70.4794 64.7812 70.7567 65.0318 71.0971C65.2825 71.4374 65.4496 71.8313 65.5197 72.2469C65.5898 72.6624 65.5608 73.0879 65.4351 73.489C64.4915 75.2428 63.4075 76.9174 62.1937 78.4966C63.9137 78.2143 73.3306 71.4776 69.7258 82.8453C71.9977 81.8768 74.3864 77.8068 76.6828 80.3693C78.9791 82.9318 74.978 84.8728 73.0347 86.6879C71.0914 88.5031 68.0658 91.3165 65.7466 90.2094C62.5181 88.6546 64.8848 85.4994 64.767 83.0739C62.1323 83.7943 59.1533 86.0549 56.5853 83.7607C54.0173 81.4665 56.4925 78.258 58.4707 75.3036L58.8922 75.3152ZM64.5032 68.1588C61.0578 69.6091 45.0428 66.4689 40.7425 70.4787C37.2697 73.7296 41.1148 76.1041 44.0299 77.8645C43.777 79.022 43.8955 80.2318 44.3688 81.3232C44.8421 82.4146 45.6463 83.3326 46.668 83.9478C48.1982 85.1404 48.9331 84.9464 49.7241 86.4079C50.5152 87.8694 50.0349 88.0945 51.2269 89.4011C54.4735 93.0145 55.2586 89.5646 56.8315 93.1779C58.1797 96.2364 59.7395 97.1756 62.32 96.3467C65.6339 99.574 63.4881 99.9196 68.108 100.345C70.3282 100.545 69.772 101.306 71.7452 102.136C72.2551 102.359 72.8221 102.416 73.3644 102.298L75.0509 102.074C76.3395 99.842 76.9276 100.104 77.315 97.5454C77.6013 95.7011 77.0221 95.0189 77.3419 93.1166C78.1623 88.2571 85.3785 82.2981 82.5375 75.0155C81.2021 71.7325 82.586 73.1112 81.466 71.0733C79.5506 67.6487 80.8369 70.2077 80.7451 67.063C79.4281 66.9463 78.107 67.2015 76.9334 67.7994C75.3675 68.2866 66.8053 69.5652 64.5032 68.1588Z" fill="#6D6E71"/>
<path fill-rule="evenodd" clip-rule="evenodd" d="M122.198 59.3824C116.175 56.3302 116.582 54.7488 111.396 53.1459C108.317 52.1412 109.188 53.5327 106.386 54.5429C104.891 55.1096 102.65 55.0137 101.296 56.0099C97.2809 58.9863 94.3513 68.0385 96.6074 72.6259C97.8851 75.3346 99.1508 74.5582 101.382 75.6147C103.614 76.6712 103.867 78.0538 107.221 78.9858C114.556 80.9791 108.09 81.9991 118.12 81.6839C120.491 81.6228 121.254 81.7159 123.064 79.8623C125.776 77.2545 128.435 71.3692 127.662 68.5271C125.921 62.8457 125.585 61.0673 122.198 59.3824Z" fill="#47302F"/>
<path fill-rule="evenodd" clip-rule="evenodd" d="M8.95385 61.0141C11.4042 57.714 13.9588 54.4354 16.6216 51.3739C18.8497 48.7957 22.6355 45.6096 23.453 42.9126C20.6949 39.1947 19.0521 41.0288 16.2387 44.3511C12.4262 48.7971 -2.18652 64.3983 1.09636 68.9603C3.71458 71.1676 4.83577 69.2256 7.10264 68.8726C2.76021 79.4279 8.19181 81.4817 15.4643 74.0094C18.8885 79.0008 19.1616 77.6512 28.1393 68.574C31.2112 65.4782 30.9403 62.0369 27.5961 62.7727C25.2552 64.3483 23.1435 66.2366 21.3194 68.3853C17.8186 64.4704 15.243 67.8528 11.616 70.8987C11.8001 70.5799 14.9063 63.7165 14.9572 63.0889C15.0543 62.4064 14.8933 61.7107 14.5053 61.1369C14.1174 60.563 13.5302 60.1518 12.8578 59.9831C10.9801 59.5947 11.6964 60.7812 8.95385 61.0141Z" fill="#58595B"/>
<path fill-rule="evenodd" clip-rule="evenodd" d="M45.3424 35.3398C42.3068 39.3841 28.8206 55.3265 37.0442 57.6011C40.2649 55.596 38.8213 52.0959 45.1101 43.6305C53.2051 32.8457 60.3275 22.195 72.6168 17.9669C74.1243 17.446 75.443 17.589 76.2178 15.6403C76.3766 15.3285 76.4585 14.983 76.4568 14.6324C76.4551 14.2819 76.3699 13.9362 76.2081 13.6239C76.0462 13.3116 75.8125 13.0416 75.5262 12.8361C75.2398 12.6307 74.9089 12.4957 74.5609 12.4422C71.6233 11.8669 63.3144 17.1564 59.7675 19.5916C54.0824 23.9714 49.2028 29.2987 45.3424 35.3398Z" fill="#58595B"/>
<path fill-rule="evenodd" clip-rule="evenodd" d="M58.8891 75.3134C56.9109 78.2678 54.5692 81.5147 57.0037 83.7705C59.4382 86.0262 62.434 83.7366 65.1854 83.0837C65.3032 85.5091 62.9366 88.6643 66.1651 90.2191C68.3838 91.5001 71.1631 88.7764 73.4531 86.6977C75.7432 84.619 79.064 82.7103 77.1012 80.379C75.1384 78.0478 72.3577 81.8528 70.1443 82.855C73.7155 71.5453 64.2986 78.282 62.6121 78.5063C63.826 76.9271 64.91 75.2526 65.8536 73.4987C65.9792 73.0977 66.0082 72.6721 65.9381 72.2566C65.8681 71.8411 65.7009 71.4472 65.4503 71.1068C65.1996 70.7664 64.8724 70.4891 64.4952 70.2973C64.1179 70.1055 63.7013 70.0045 63.2788 70.0026C61.1629 69.8244 52.2425 70.5098 50.1528 72.511C48.6276 73.8718 48.3868 75.9743 50.3934 76.7464C52.4 77.5184 52.9152 76.1541 54.7855 75.8813C56.1185 75.5005 57.5 75.3093 58.8891 75.3134Z" fill="#58595B"/>
<path fill-rule="evenodd" clip-rule="evenodd" d="M64.6932 39.7863C64.553 38.546 65.6213 29.3466 57.7521 33.5374C55.8851 34.5463 53.0442 36.5003 53.8595 38.5941C55.1031 41.9014 57.8489 39.2355 59.4614 38.1956C59.9797 40.7363 58.1837 44.7234 61.5087 45.9088C63.6239 46.6276 66.9419 43.7125 69.647 43.342C69.8695 45.5187 68.7978 47.9143 69.9057 49.6361C71.5843 52.1897 74.2158 50.7333 75.965 50.4678C76.5724 51.9779 75.8507 51.6772 76.6378 52.9432C76.9216 53.3483 77.2911 53.6867 77.72 53.9344C78.1489 54.182 78.6267 54.3327 79.1194 54.3759C80.1401 53.6635 80.8522 52.593 81.1144 51.377C81.3766 50.161 81.1697 48.8883 80.5348 47.8117C79.1865 44.7532 76.2724 45.3508 74.4484 45.3412C74.2975 42.7034 76.1223 39.0035 72.4384 37.7655C70.486 37.102 67.1235 38.948 64.6932 39.7863Z" fill="#58595B"/>
<path fill-rule="evenodd" clip-rule="evenodd" d="M100.118 92.4313C99.1862 93.1687 99.9339 92.7502 98.5393 93.143C97.8428 93.3587 97.133 93.5297 96.4141 93.6551C93.6128 94.1247 94.3865 92.9869 92.6188 91.4639C84.222 96.9732 87.4426 98.137 85.4782 106.394C87.0949 108.448 87.5777 109.5 90.6164 109.36C91.6556 109.325 92.6809 109.121 93.6516 108.755L96.2653 108.139C96.3657 107.965 96.4404 108.24 96.6619 108.059L95.4066 107.334C93.2896 107.967 94.1996 107.874 91.7675 106.895C90.0864 106.233 89.0596 106.259 89.15 104.147C89.7301 101.119 92.1885 101.109 94.3364 102.31C94.5038 102.02 94.8755 101.849 95.1596 101.626C92.9917 99.7176 93.3314 98.5225 95.3876 96.5793L97.0524 96.9994L101.827 100.258C102.972 97.8123 104.415 95.5172 106.123 93.4248C103.428 92.2941 103.096 93.8802 100.118 92.4313Z" fill="#6D6E71"/>
<path fill-rule="evenodd" clip-rule="evenodd" d="M118.178 103.09C114.776 100.083 112.155 103.477 114.517 106.735C117.662 111.063 119.675 110.408 122.202 106.032C123.706 107.325 125.439 108.326 127.311 108.981C132.383 105.456 128.188 92.8314 124.307 95.3057C121.972 96.8559 123.472 99.1129 124.213 100.661C121.099 100.526 120.851 98.7978 118.178 103.09Z" fill="#58595B"/>
<path fill-rule="evenodd" clip-rule="evenodd" d="M71.2898 122.471C70.4684 124.972 70.1604 127.461 73.072 128.756C76.1247 127.581 75.2321 127.104 75.5654 124.437C75.9428 123.109 77.4001 122.675 77.361 120.72C75.6806 116.349 73.0227 118.795 71.2898 122.471Z" fill="#231F20"/>
<path fill-rule="evenodd" clip-rule="evenodd" d="M71.2529 114.181C70.1285 114.603 69.1026 115.248 68.2366 116.076C67.3706 116.904 66.6822 117.899 66.2128 119C65.5127 121.224 67.4595 123.044 69.9365 121.653C72.4134 120.261 78.3405 113.906 71.2529 114.181Z" fill="#231F20"/>
<path fill-rule="evenodd" clip-rule="evenodd" d="M95.4239 107.304C98.2647 105.35 97.107 103.445 94.4122 102.314C91.7174 101.183 89.8058 101.123 89.2258 104.15C89.1353 106.262 90.1621 106.237 91.8433 106.898C94.2504 107.786 93.4572 107.946 95.4239 107.304Z" fill="#231F20"/>
<path fill-rule="evenodd" clip-rule="evenodd" d="M95.2997 101.59C99.6353 105.407 103.849 100.806 97.1925 96.963L95.5276 96.5429C93.4882 98.4571 93.1026 99.6644 95.2997 101.59Z" fill="#231F20"/>
<path fill-rule="evenodd" clip-rule="evenodd" d="M77.0434 107.243C75.4087 109.786 73.4625 112.115 71.2491 114.177C77.7927 114.979 71.5844 119.395 69.849 121.794L70.9762 121.594C70.7872 122.528 70.9762 121.594 71.2881 122.47C73.2627 119.05 75.4232 117.128 77.476 120.787C76.9768 122.663 76.0871 123.192 75.6804 124.503C77.487 121.914 77.5561 123.345 79.2113 121.557C79.4121 121.209 81.9924 117.481 82.2601 117.018C82.8584 114.571 82.7651 112.002 81.9904 109.596C80.7002 106.842 79.2209 105.022 77.0434 107.243ZM95.2949 101.587L94.4717 102.271C96.573 104.026 97.2772 104.896 95.4834 107.261L96.7388 107.986L97.6146 108.492C98.3494 106.986 99.1881 105.533 100.125 104.144C101.129 103.044 101.735 101.639 101.846 100.152L97.0709 96.8931C103.289 100.754 99.2685 104.616 95.2949 101.587Z" fill="#231F20"/>
<path fill-rule="evenodd" clip-rule="evenodd" d="M127.295 109.01C125.423 108.355 123.69 107.354 122.186 106.061C119.659 110.437 117.613 111.15 114.501 106.764C112.139 103.506 114.76 100.112 118.162 103.119C120.885 98.7397 120.966 100.487 124.18 100.719C123.439 99.1707 121.94 96.9137 124.275 95.3635C128.156 92.8892 132.35 105.514 127.278 109.039L127.295 109.01ZM126.974 92.9801C126.141 91.7262 124.212 89.0667 122.338 88.8737L121.804 89.2606C121.466 89.5274 121.115 89.776 120.751 90.0054C120.018 91.7465 119.256 93.4708 118.54 95.1829C116.791 99.148 113.947 102.531 110.338 104.94C108.469 106.447 106.935 108.324 105.831 110.453C111.697 112.294 114.389 115.858 119.659 110.437C125.227 113.266 124.725 114.135 129.49 109.389C133.983 110.708 138.836 108.64 134.644 103.36C132.211 100.293 128.196 96.6615 127.233 93.2066L126.974 92.9801Z" fill="#6D6E71"/>
<path fill-rule="evenodd" clip-rule="evenodd" d="M137.583 67.9948L137.758 68.0959C140.008 67.0992 142.001 65.6073 143.586 63.7317C144.824 62.1275 147.535 56.8913 146.782 55.5673C146.096 56.2151 144.872 57.0542 144.145 57.9096C142.699 59.4706 141.752 62.0544 140.724 62.8908C137.771 64.7025 138.058 65.2162 137.695 68.137L137.583 67.9948ZM98.2286 45.2737L98.4462 44.8969C98.564 44.6225 98.6512 44.3359 98.7061 44.0422C98.8364 43.3445 98.8065 43.8683 98.7072 43.2313C99.2266 41.4221 100.043 39.7127 101.122 38.1717C101.908 37.044 102.597 35.8513 103.181 34.6066C103.437 33.4929 103.792 32.4046 104.241 31.3542C101.946 33.1572 100.089 35.4525 98.8059 38.0711C98.1221 39.3342 97.7377 40.738 97.6818 42.1755C97.5306 43.3362 97.765 44.5166 98.3493 45.5366L98.2286 45.2737ZM102.687 63.3063C103.533 64.0654 103.563 64.0823 103.749 65.0402C103.936 65.9981 104.445 65.7899 104.552 66.8179C105.896 67.3229 107.139 67.7316 107.129 65.5232C106.73 64.8673 105.424 63.9591 105.584 63.008C105.061 62.8763 104.511 62.9099 104.011 63.1042C103.476 63.2208 103.176 63.2019 102.687 63.3063ZM114.044 69.8631C113.905 70.7104 113.793 70.2978 114.293 71.0502C115.111 71.2502 115.892 71.5835 116.604 72.0366C117.363 72.4749 117.524 73.3411 118.221 73.2798C117.881 71.8467 118.55 70.9576 117.308 69.738C116.648 69.9368 116.502 70.1228 115.705 70.0877C114.908 70.0526 114.586 69.8672 114.044 69.8631ZM113.301 26.3823C113.734 25.9015 114.271 25.5247 114.872 25.2796L120.388 23.4789C121.156 23.2269 120.834 23.3118 121.665 23.289C123.387 22.7863 125.199 22.6596 126.979 22.9174C129.858 23.5031 132.592 24.661 135.017 26.3217C135.718 26.7262 136.448 27.1476 137.178 27.569L141.797 31.4341C143.507 33.1729 144.828 35.2528 145.671 37.5351L145.765 38.5172C145.931 39.8493 146.29 39.6316 145.975 41.1887C145.786 42.123 145.792 43.5952 145.586 44.8288C145.1 47.8309 143.746 50.6214 141.689 52.859C140.635 54.685 138.206 60.78 137.408 61.5558C136.609 62.3316 135.552 63.6918 134.748 65.0831C133.474 64.4255 131.998 64.2789 130.625 64.6735C128.675 65.0164 128.19 66.1273 127.288 66.6112C126.385 67.0951 126.072 67.0303 125.467 67.3377C123.775 68.1774 121.354 71.7647 121.74 72.9155L121.607 73.1474C121.17 73.4541 120.651 73.6252 120.116 73.6393L120.71 72.2049C121.481 70.0982 121.612 67.8085 121.087 65.6203L120.645 64.6314C120.518 64.3484 120.413 64.0555 120.334 63.7557C120.781 63.3182 120.797 63.5596 121.249 63.0473C121.958 62.0719 122.255 60.8561 122.075 59.66C122.231 56.5432 122.711 53.4528 123.507 50.4385C123.777 49.9296 123.923 49.3638 123.933 48.7869C123.943 48.2099 123.817 47.6377 123.565 47.1164C123.314 46.5951 122.943 46.1392 122.483 45.7854C122.023 45.4315 121.487 45.1896 120.918 45.0791C120.2 44.9739 119.707 45.4235 119.122 46.1676C118.29 47.8115 117.368 49.408 116.361 50.9501C114.981 52.3952 112.371 53.4776 111.258 55.5402C110.539 56.7865 111.077 56.8655 110.967 57.7297C107.526 57.6193 104.159 58.6906 101.43 60.7642C101.38 60.0789 101.293 59.3967 101.17 58.7203L101.304 58.4884C102.057 57.6104 102.501 56.5101 102.568 55.354C102.612 54.3354 102.897 53.302 102.919 52.3873C102.976 50.6036 100.719 49.4554 99.9493 47.6198C100.058 47.4366 100.122 47.2304 100.137 47.0176C100.152 46.8048 100.117 46.5911 100.034 46.3936C100.487 45.0704 103.079 41.9293 103.891 40.3884C104.146 39.8155 104.347 39.2198 104.49 38.6089C105.171 37.4473 105.951 36.3458 106.819 35.3161C107.054 34.9103 109.019 31.9101 109.053 31.8522C110.702 30.2212 112.129 28.3826 113.301 26.3823Z" fill="#F3CCAC"/>
<path fill-rule="evenodd" clip-rule="evenodd" d="M110.998 57.7484C114.567 57.5674 112.721 61.1009 115.752 60.841C116.524 60.7844 118.123 60.5096 118.811 61.1386C119.429 61.8871 119.93 62.7238 120.298 63.6201C120.745 63.1826 120.761 63.424 121.213 62.9117C121.922 61.9362 122.219 60.7205 122.039 59.5244C122.195 56.4076 122.675 53.3172 123.471 50.3029C123.741 49.7939 123.887 49.2282 123.897 48.6513C123.907 48.0743 123.781 47.5021 123.529 46.9808C123.278 46.4595 122.907 46.0036 122.447 45.6498C121.987 45.2959 121.451 45.054 120.882 44.9435C120.164 44.8383 119.671 45.2879 119.086 46.032C118.254 47.6758 117.332 49.2724 116.325 50.8145C114.945 52.2596 112.335 53.342 111.222 55.4046C110.569 56.8053 111.224 56.9516 110.998 57.7484Z" fill="#DEB795"/>
<path fill-rule="evenodd" clip-rule="evenodd" d="M132.958 49.9834C134.04 49.7961 135.878 51.6689 136.215 52.366C137.402 54.0177 138.982 52.495 138.287 51.2047C136.51 48.9863 134.126 47.328 131.427 46.4328L130.376 46.0963C126.851 44.7181 124.852 47.2357 125.473 48.2509C126.093 49.2662 126.582 48.8914 127.246 48.6178C129.943 48.1266 131.146 50.2899 132.958 49.9834Z" fill="#231F20"/>
<path fill-rule="evenodd" clip-rule="evenodd" d="M124.579 51.7527C123.925 53.4237 127.063 57.6311 130.431 57.2573C131.417 57.1691 132.276 57.1631 132.958 56.3199C134.455 54.4015 131.928 52.7107 130.105 51.6198C129.054 51.013 125.199 50.1396 124.579 51.7527Z" fill="white"/>
<path fill-rule="evenodd" clip-rule="evenodd" d="M109.586 36.7974C109.268 37.3482 109.839 37.9097 110.502 38.1767C111.166 38.4438 112.001 38.3461 112.205 38.4641C112.632 38.8732 113.101 39.2351 113.606 39.5435C115.401 40.1847 116.948 41.3759 118.026 42.9454C118.625 44.0645 120.186 44.1927 120.343 42.5054C120.501 39.4666 115.71 35.9662 112.455 35.9416C111.569 36.1262 109.989 35.2909 109.586 36.7974Z" fill="#231F20"/>
<path fill-rule="evenodd" clip-rule="evenodd" d="M105.483 63.1824C105.323 64.1336 106.628 65.0417 107.028 65.6976C108.108 66.5532 109.309 67.2461 110.59 67.754C111.913 68.1453 113.092 68.9201 113.976 69.9795C114.518 69.9836 115.123 70.2169 115.637 70.2042C116.15 70.1914 116.58 70.0533 117.24 69.8545C115.953 67.5658 113.5 67.2312 111.749 65.4089C110.949 64.5763 109.965 63.941 108.877 63.5543C107.789 63.1676 106.626 63.0402 105.483 63.1824Z" fill="#E38D8C"/>
<path fill-rule="evenodd" clip-rule="evenodd" d="M108.696 43.5881C108.735 44.2676 108.915 44.9325 109.224 45.5409C109.534 46.1494 109.966 46.6882 110.493 47.1235C111.021 47.5588 111.632 47.8811 112.29 48.0701C112.947 48.2591 113.635 48.3107 114.312 48.2217C116.274 47.9246 117.619 47.3484 116.286 44.8015C115.669 43.9614 114.783 43.3547 113.776 43.0817C112.833 42.6919 109.261 42.1368 108.696 43.5881Z" fill="white"/>
<path fill-rule="evenodd" clip-rule="evenodd" d="M110.993 57.7446C107.552 57.6342 104.185 58.7055 101.456 60.7791C99.4798 62.1116 101.903 63.7809 102.375 63.4351L102.637 63.5868C103.126 63.4824 103.426 63.5013 103.961 63.3847C104.462 63.1904 105.012 63.1568 105.535 63.2885C106.678 63.14 107.843 63.2614 108.934 63.6431C110.025 64.0248 111.013 64.6561 111.817 65.486C113.568 67.3083 116.022 67.6429 117.308 69.9316C118.551 71.1511 117.882 72.0402 118.222 73.4734C118.279 73.6038 118.362 73.7218 118.465 73.8205C118.568 73.9193 118.69 73.9967 118.823 74.0484C118.956 74.1001 119.098 74.125 119.24 74.1216C119.383 74.1183 119.523 74.0868 119.653 74.029C120.171 73.5475 120.533 72.9217 120.69 72.2319C121.461 70.1252 121.591 67.8356 121.066 65.6474L120.625 64.6584C120.497 64.3754 120.393 64.0825 120.313 63.7827C119.946 62.8864 119.444 62.0498 118.827 61.3012C118.139 60.6722 116.54 60.9471 115.768 61.0037C112.716 61.097 114.708 57.6479 110.993 57.7446Z" fill="#6D6E71"/>
<path fill-rule="evenodd" clip-rule="evenodd" d="M104.611 69.7501C102.891 67.404 105.119 64.5555 106.971 65.6632C108.051 66.5187 109.251 67.2116 110.533 67.7196C111.856 68.1109 113.035 68.8857 113.919 69.9451C113.776 70.8673 114.941 70.5351 113.903 72.3321C112.866 74.1292 105.761 71.2642 104.611 69.7501Z" fill="#6D6E71"/>
<path fill-rule="evenodd" clip-rule="evenodd" d="M98.2121 45.3032C96.0935 50.1862 94.674 50.4873 93.9992 55.7014C93.7884 57.2801 93.26 59.1393 93.1453 60.6189C92.8173 65.5694 92.8535 69.6868 96.1293 73.3172C98.3249 75.9732 101.023 78.1743 104.068 79.794C105.718 80.8699 107.506 81.7199 109.382 82.3211C112.428 83.0312 115.574 83.1986 118.672 82.8155C121.539 81.8844 124.197 80.4153 126.504 78.4872C127.937 77.4209 128.752 76.3458 130.098 75.2289C131.443 74.1121 132.604 73.5844 133.875 72.4628C135.681 71.0558 137.127 69.2433 138.097 67.1715C138.331 65.4361 139.238 63.8652 140.624 62.7949C141.535 61.891 142.599 59.3747 144.045 57.8136C144.378 57.4666 144.734 57.1427 145.111 56.8444C143.352 54.6311 142.084 53.8605 141.087 53.9029C139.993 56.4904 138.757 59.0148 137.383 61.4646C136.63 62.7689 135.527 63.6006 134.724 64.9919C134.724 64.9919 131.621 69.4224 131.312 69.5531C130.008 70.1921 130.673 69.9184 129.728 71.1506C128.783 72.3828 127.126 72.3536 126.215 72.9872C125.304 73.6207 124.112 75.2128 122.702 74.8237C121.292 74.4346 121.773 73.9392 121.431 73.317C120.995 73.6237 120.476 73.7948 119.94 73.8089L120.535 72.3745C120.377 73.0643 120.016 73.6901 119.498 74.1716C119.368 74.2294 119.227 74.2609 119.085 74.2642C118.942 74.2676 118.801 74.2427 118.667 74.191C118.534 74.1393 118.413 74.0618 118.31 73.9631C118.206 73.8644 118.124 73.7464 118.067 73.616C117.37 73.6773 117.174 72.869 116.449 72.3728C115.738 71.9196 114.957 71.5864 114.138 71.3863C114.471 71.8879 113.641 71.6404 113.035 72.4884C111.794 72.5583 110.554 72.3295 109.418 71.8215C108.281 71.3134 107.283 70.541 106.506 69.5696C105.777 68.6076 103.127 68.2756 104.444 67.1419C104.336 66.1139 103.831 66.5176 103.64 65.3642C103.45 64.2108 103.425 64.3895 102.578 63.6303L102.316 63.4786C101.844 63.8244 99.4208 62.1551 101.397 60.8226C101.347 60.1374 101.26 59.4551 101.137 58.7787C100.547 59.3274 100.1 59.7648 99.4867 59.6812C99.1207 59.6315 98.7779 59.4721 98.5039 59.2241C98.2298 58.9761 98.0375 58.6514 97.9526 58.2931C97.3587 56.0179 98.7775 56.2574 98.0787 54.5013C97.3798 52.7452 97.973 52.392 98.1756 50.6926L100.974 49.2166C101.617 49.3171 100.417 47.6196 101.049 46.0524C101.682 44.4852 103.067 41.884 103.774 40.5918C104.029 40.0189 104.23 39.4231 104.373 38.8122C105.055 37.6506 105.834 36.5491 106.702 35.5195C106.787 35.3495 106.882 35.185 106.987 35.0268C106.379 33.787 104.476 33.5772 103.945 31.5312C103.397 32.5417 103.038 33.6435 102.884 34.7837C102.301 36.0284 101.612 37.221 100.826 38.3488C99.7462 39.8897 98.9302 41.5992 98.4108 43.4083C98.4225 43.9948 98.5567 43.4926 98.4097 44.2193C98.3547 44.513 98.2676 44.7996 98.1498 45.074L98.2121 45.3032Z" fill="#C2C4C6"/>
<path fill-rule="evenodd" clip-rule="evenodd" d="M130.641 64.6442C128.692 64.9871 128.206 66.098 127.304 66.5819C126.402 67.0658 126.089 67.0011 125.483 67.3084C123.792 68.1482 121.37 71.7355 121.757 72.8862L121.623 73.1181C121.964 73.7403 121.993 74.2978 122.894 74.6249C123.795 74.9519 125.634 73.3855 126.407 72.7883C127.179 72.1911 128.694 72.6018 129.919 70.9517C131.144 69.3016 130.2 69.9932 131.503 69.3543C132.126 69.0594 132.701 68.6757 133.212 68.2152C135.573 65.9457 137.989 63.2442 130.792 64.3834L130.641 64.6442ZM145.244 56.8821C145.766 56.4494 146.334 56.0045 146.748 55.625C148.368 52.1935 149.49 48.5476 150.081 44.796C150.259 44.0033 150.336 43.1906 150.309 42.3773C150.364 41.6749 150.749 41.0083 150.805 40.0356C151.199 38.2239 151.064 36.3345 150.415 34.5904C149.767 32.8464 148.632 31.3206 147.145 30.1934C145.627 29.3169 144.68 26.1034 143.02 25.0678C138.414 22.2111 133.534 19.8211 128.454 17.9337L128.162 17.7651C127.068 17.1396 125.775 16.9613 124.557 17.2679C123.655 17.2112 122.46 18.0672 120.599 18.1904C119.509 18.257 120.132 17.9207 118.774 18.4511C117.417 18.9815 117.497 18.3707 115.973 19.191C115.037 19.7329 115.255 19.3561 114.565 19.8083C112.718 21.0501 111.1 22.5992 109.78 24.3884C109.304 24.6381 108.895 24.9987 108.589 25.4398C108.305 25.9326 107.803 26.2615 107.373 26.6699C106.966 27.0412 106.59 27.4445 106.249 27.8758C105.521 28.7311 104.826 30.3395 104.374 31.1221C104.956 33.081 106.926 33.4453 107.417 34.6176C107.986 33.6321 109.09 31.7191 109.19 31.5452C110.836 29.9819 112.275 28.2152 113.471 26.2876C113.905 25.8069 114.442 25.4301 115.042 25.185L120.558 23.3843C121.327 23.1323 121.005 23.2172 121.836 23.1944C123.51 22.7476 125.261 22.6531 126.978 22.9171C129.857 23.5028 132.591 24.6607 135.017 26.3215C135.718 26.726 136.447 27.1474 137.177 27.5688L141.797 31.4338C143.507 33.1726 144.827 35.2526 145.67 37.5348L145.765 38.517C145.93 39.849 146.289 39.6313 145.974 41.1884C145.785 42.1227 145.791 43.595 145.585 44.8285C145.1 47.8306 143.746 50.6212 141.689 52.8587C141.505 53.1775 141.237 53.6413 140.936 54.163C140.082 55.6412 142.935 57.4427 145.077 56.9016L145.244 56.8821ZM98.3548 50.4479C98.1187 52.2052 97.7089 52.7802 98.2579 54.2565C98.8068 55.7328 97.3375 55.8507 98.1318 58.0483C98.2167 58.4067 98.409 58.7314 98.6831 58.9794C98.9571 59.2274 99.2999 59.3868 99.6659 59.4365C100.279 59.5201 100.727 59.0826 101.316 58.534L101.45 58.3021C102.203 57.4241 102.647 56.3238 102.714 55.1677C102.757 54.1491 103.043 53.1157 103.065 52.201C103.038 51.1865 102.735 50.1967 102.188 49.3373C100.405 46.4918 99.1521 44.1451 98.2672 50.3973L98.3548 50.4479Z" fill="#6D6E71"/>
<path fill-rule="evenodd" clip-rule="evenodd" d="M127.823 50.922C127.376 51.1747 127.017 51.5565 126.793 52.0173C126.569 52.4782 126.49 52.9966 126.567 53.5047C126.644 54.0127 126.873 54.4868 127.224 54.8647C127.575 55.2426 128.032 55.5067 128.534 55.6225C128.951 55.7947 129.405 55.8531 129.851 55.7916C130.296 55.7302 130.716 55.5511 131.067 55.273C131.418 54.9948 131.688 54.6277 131.848 54.2097C132.008 53.7917 132.053 53.3379 131.977 52.8955C131.359 52.4633 130.705 52.0854 130.021 51.7661C129.334 51.377 128.593 51.0924 127.823 50.922Z" fill="#D5A165"/>
<path fill-rule="evenodd" clip-rule="evenodd" d="M129.192 51.2469C128.835 51.2907 128.505 51.457 128.26 51.7172C128.014 51.9775 127.867 52.3154 127.845 52.673C127.823 53.0305 127.926 53.3854 128.138 53.6766C128.349 53.9678 128.655 54.1772 129.004 54.2688C129.293 54.3712 129.605 54.3897 129.903 54.3222C130.201 54.2548 130.473 54.1041 130.688 53.8877C130.903 53.6714 131.051 53.3983 131.115 53.1003C131.18 52.8023 131.157 52.4917 131.051 52.2048L130.088 51.6487C129.807 51.4781 129.506 51.3432 129.192 51.2469Z" fill="#231F20"/>
<path fill-rule="evenodd" clip-rule="evenodd" d="M111.044 42.6241C110.778 42.9719 110.604 43.3805 110.537 43.8132C110.469 44.2459 110.511 44.6891 110.657 45.1032C110.804 45.5173 111.051 45.8893 111.377 46.1858C111.703 46.4823 112.097 46.6942 112.524 46.8023C112.908 46.9648 113.326 47.0291 113.74 46.9893C114.154 46.9496 114.55 46.807 114.894 46.5746C115.237 46.3423 115.516 46.0276 115.704 45.6593C115.893 45.2909 115.986 44.8808 115.975 44.4662C115.329 43.8002 114.509 43.3272 113.61 43.1009C112.782 42.8172 111.917 42.6565 111.044 42.6241Z" fill="#D5A165"/>
<path fill-rule="evenodd" clip-rule="evenodd" d="M112.919 42.819C112.588 42.9488 112.312 43.189 112.139 43.4988C111.966 43.8086 111.906 44.1691 111.97 44.5193C112.033 44.8695 112.216 45.1878 112.487 45.4205C112.758 45.6532 113.1 45.786 113.457 45.7963C113.721 45.7842 113.977 45.7063 114.203 45.5696C114.428 45.433 114.615 45.2421 114.746 45.0143C114.878 44.7865 114.95 44.5291 114.956 44.2657C114.961 44.0023 114.901 43.7413 114.779 43.5066C114.445 43.2567 114.083 43.0473 113.699 42.8831C113.446 42.8085 113.18 42.7867 112.919 42.819Z" fill="#231F20"/>
<path fill-rule="evenodd" clip-rule="evenodd" d="M112.917 42.8179C112.673 42.9009 112.454 43.0452 112.282 43.2368C112.11 43.4284 111.991 43.6611 111.935 43.9126C112.078 43.7453 112.256 43.6113 112.456 43.5202C112.657 43.429 112.875 43.3828 113.096 43.3848C113.334 43.371 113.573 43.4163 113.79 43.5166C114.007 43.6169 114.197 43.7692 114.341 43.9597C114.485 44.1502 114.58 44.3731 114.617 44.6084C114.655 44.8438 114.633 45.0843 114.554 45.3085C114.754 45.0586 114.881 44.758 114.92 44.4399C114.96 44.1218 114.91 43.7984 114.778 43.5054C114.444 43.2555 114.081 43.0462 113.698 42.8819C113.444 42.8074 113.179 42.7856 112.917 42.8179Z" fill="#231F20"/>
<path fill-rule="evenodd" clip-rule="evenodd" d="M113.825 43.342C113.75 43.3663 113.684 43.4144 113.638 43.4792C113.592 43.5439 113.568 43.6219 113.57 43.7014C113.573 43.7809 113.601 43.8577 113.65 43.9204C113.7 43.9831 113.768 44.0282 113.845 44.0491C114.267 44.0606 114.293 43.3414 113.825 43.342Z" fill="white"/>
<path fill-rule="evenodd" clip-rule="evenodd" d="M129.524 51.7482C129.475 51.7404 129.426 51.7431 129.379 51.7563C129.332 51.7694 129.288 51.7926 129.251 51.8243C129.214 51.8559 129.185 51.8953 129.165 51.9396C129.145 51.9839 129.135 52.0321 129.135 52.0809C129.136 52.1296 129.147 52.1777 129.168 52.2218C129.189 52.2659 129.22 52.3049 129.257 52.3362C129.295 52.3675 129.339 52.3903 129.386 52.4029C129.434 52.4156 129.483 52.4178 129.531 52.4095C129.923 52.4041 129.845 51.6633 129.524 51.7482Z" fill="white"/>
</g>
<defs>
<clipPath id="clip0_1540_1825">
<rect width="225" height="173" fill="white" transform="translate(-1.85107)"/>
</clipPath>
</defs>
</svg>
