<svg width="158" height="187" viewBox="0 0 158 187" fill="none" xmlns="http://www.w3.org/2000/svg">
<path fill-rule="evenodd" clip-rule="evenodd" d="M142.466 115.412L142.992 115.941C146.882 112.433 151.351 103.454 152.461 98.4578C153.61 93.2416 154.367 77.5278 150.577 75.2066C149.559 77.5401 147.563 80.9867 146.757 83.4987C145.015 88.8767 145.418 96.1793 144.183 99.4179C138.922 107.13 140.204 108.062 142.466 115.412ZM14.1542 105.631L14.2261 104.329C14.0981 103.627 13.9793 102.759 13.7698 102.025C13.2336 100.162 13.551 101.457 12.8226 100.056C11.2395 97.0227 12.5926 88.6222 12.7561 85.1578C12.9533 81.0838 13.5157 78.4473 13.1095 74.2289C12.8068 71.1555 11.559 67.5854 11.8244 64.7935L11.418 64.6043C8.26982 66.7646 6.0509 81.7864 5.84947 86.9438C5.68168 91.4917 6.55695 94.7635 8.04016 98.0965C10.4367 103.509 13.8002 105.5 13.8617 105.393C13.9217 105.313 14.0465 105.57 14.1542 105.631ZM47.6644 144.412C50.7843 145.279 50.9228 145.286 52.5041 147.346C54.4195 149.898 55.284 148.334 56.8222 150.669C60.8098 150.417 64.5295 149.983 61.7667 144.662C59.9103 143.56 55.5022 142.872 54.6934 140.409C52.9882 140.593 51.9358 141.535 50.8618 142.365C49.614 143.324 48.8215 143.586 47.6644 144.412ZM84.787 146.962C85.4172 149.136 84.9598 148.361 86.8409 149.521C89.6281 149.369 90.2727 148.765 93.9112 149.3C96.4184 149.688 97.8549 151.351 99.6553 150.45C96.9609 147.412 97.5679 144.472 92.9533 142.994C91.4716 144.163 91.381 144.797 89.3052 145.655C87.9679 146.22 86.1288 146.313 84.8147 146.963L84.787 146.962ZM108.503 77.2737C104.204 80.1485 98.5548 76.2797 92.2338 80.5434C90.9059 81.4427 89.5428 82.9791 87.2831 81.6316C84.4307 79.9458 86.4502 71.5543 97.1032 70.8643L100.263 70.5108C106.726 69.7007 118.913 70.9294 123.622 74.2183C126.913 76.5119 124.808 81.9254 119.782 79.3415C117.81 78.3156 111.013 75.6061 108.531 77.2752L108.503 77.2737ZM32.6777 72.1139C31.873 68.068 36.4471 68.265 39.4693 66.8758C47.2234 63.3303 63.7952 66.1628 67.1021 73.7092C68.7794 77.5532 64.6507 79.3537 61.7859 77.3893C57.1538 74.2158 52.1135 74.4098 46.3467 74.1747C43.9627 74.0709 41.9801 73.2389 41.3706 73.2053C40.7889 73.1731 38.1698 74.3067 36.7185 74.4211C34.7101 74.5603 33.0216 73.9391 32.6485 72.1401L32.6777 72.1139ZM29.5407 42.8747C30.2973 41.2492 30.5662 39.9024 32.1479 38.4337L44.0442 27.8088C45.6274 26.3123 44.9304 26.8573 47.0401 25.8901C49.833 24.6272 53.2805 20.0658 59.8749 18.9017C73.6824 16.4408 72.5515 17.2953 84.5717 18.0146C86.9264 18.1447 89.355 17.9453 91.7098 18.0754L108.185 22.153C113.031 23.9767 122.523 28.6968 125.555 32.6712C126.048 33.3097 126.393 34.1068 126.984 34.9731C129.072 37.9227 129.675 37.0668 130.812 41.1311C131.481 43.6133 133.397 47.1648 134.312 50.7166C138.049 65.0669 135.242 64.0783 134.321 74.1978C133.817 79.8108 135.16 97.2524 134.088 100.055C133.371 103.989 132.021 107.305 131.705 111.511C126.72 111.208 123.747 113.211 120.662 115.236C116.049 118.261 116.203 121.52 114.52 123.817C113.555 125.181 111.969 126.233 110.809 127.613C107.506 131.571 105.738 142.95 108.2 145.17L108.105 145.887C107.449 147.185 106.115 148.195 104.887 148.794L104.697 144.699C104.232 139.532 101.009 131.463 97.4825 128.406C96.5542 127.604 96.1524 127.332 95.2272 126.475C94.2742 125.617 94.2343 125.837 93.2966 124.701C93.9625 123.21 94.2951 123.728 94.7517 122.003C95.6416 118.467 94.1664 115.996 92.6556 113.162C89.4108 107.008 87.2174 96.9113 85.4111 89.3644C84.4386 85.3371 82.8721 81.4992 79.4827 79.9782C77.7741 79.217 74.2711 78.7456 72.2428 79.245C70.2145 79.7443 69.5394 81.4021 68.9584 83.8709C67.898 88.4807 69.085 94.1593 67.5382 98.52C65.7592 103.562 60.4775 109.134 60.1333 115.367C59.9222 119.19 61.3102 118.711 62.1313 120.952C55.185 123.958 43.6524 131.519 41.291 139.058C39.9638 137.428 39.6262 135.993 38.0698 134.49L38.168 133.717C39.1166 130.629 38.6383 127.213 37.5032 124.621C36.4189 122.116 35.8531 119.278 34.7797 117.079C32.6866 112.712 25.9179 112.505 21.278 108.97C21.3084 107.916 20.9709 106.48 20.0304 105.9C19.512 102.203 22.2603 91.6848 22.4296 87.1091C22.5379 84.1418 21.9993 84.3344 21.817 82.1013C21.562 79.1695 23.2012 74.6472 23.6757 71.589C23.8584 70.2931 25.1296 60.8599 25.1126 60.6644C27.5249 57.741 28.6815 46.3563 29.5946 42.9054L29.5407 42.8747Z" fill="#F6D3B5"/>
<path fill-rule="evenodd" clip-rule="evenodd" d="M62.0695 121.032C70.9036 116.546 70.5686 127.142 77.9916 123.05C79.855 122.014 83.6572 119.584 86.146 120.305C88.5256 120.992 91.2275 123.392 92.9685 124.572C93.0224 124.603 93.1563 124.694 93.2364 124.754C93.9023 123.262 94.2349 123.781 94.6914 122.055C95.5813 118.52 94.1061 116.049 92.5954 113.214C89.3505 107.061 87.1571 96.9637 85.3509 89.4168C84.3784 85.3895 82.8119 81.5516 79.4224 80.0306C77.7138 79.2694 74.2108 78.7981 72.1825 79.2974C70.1542 79.7967 69.4791 81.4545 68.8982 83.9233C67.8378 88.5331 69.0247 94.2118 67.4779 98.5724C65.6989 103.615 60.4172 109.186 60.073 115.42C59.8619 119.243 61.25 118.764 62.071 121.004L62.0695 121.032Z" fill="#E6C09D"/>
<path fill-rule="evenodd" clip-rule="evenodd" d="M108.475 77.2998C110.984 75.6322 117.782 78.3417 119.726 79.3661C124.75 81.9777 126.855 76.5642 123.566 74.2429C118.857 70.954 106.67 69.7253 100.206 70.5354L97.0469 70.8889C86.3954 71.5512 84.3743 79.9704 87.2267 81.6562C89.5142 83.0052 90.8496 81.4673 92.1775 80.568C98.4708 76.3028 104.148 80.1731 108.447 77.2983L108.475 77.2998Z" fill="#272C1E"/>
<path fill-rule="evenodd" clip-rule="evenodd" d="M89.2851 91.1347C89.7192 95.8548 102.834 102.414 111.011 97.753C113.421 96.3856 115.56 95.3922 116.245 92.5401C117.731 86.2588 109.184 85.0365 103.184 84.5106C99.7268 84.2086 88.8465 86.4977 89.2851 91.1347Z" fill="white"/>
<path fill-rule="evenodd" clip-rule="evenodd" d="M32.6463 72.1401C33.0178 73.9668 34.6786 74.5865 36.7163 74.4212C38.166 74.3345 40.7866 73.1732 41.3684 73.2053C41.9778 73.239 43.9327 74.0694 46.3444 74.1748C52.1113 74.4099 57.1516 74.2158 61.7836 77.3893C64.6485 79.3537 68.8048 77.5547 67.0998 73.7092C63.793 66.1629 47.2211 63.3304 39.4671 66.8759C36.4449 68.2651 31.8708 68.0681 32.6755 72.1139L32.6463 72.1401Z" fill="#272C1E"/>
<path fill-rule="evenodd" clip-rule="evenodd" d="M54.6651 140.408C55.4739 142.87 59.882 143.558 61.7384 144.661C66.7021 145.352 68.1444 145.904 73.3631 145.497C77.186 145.208 82.2402 145.265 84.7587 146.96C86.0713 146.338 87.9119 146.217 89.2492 145.652C91.3251 144.794 91.4156 144.16 92.8974 142.991C86.7906 138.847 80.1195 140.896 73.39 138.468C68.2952 136.631 57.8405 136.748 54.639 140.379L54.6651 140.408Z" fill="#E69090"/>
<path fill-rule="evenodd" clip-rule="evenodd" d="M38.7725 89.5123C39.0924 93.2813 50.2141 99.7031 58.7355 94.3382C63.4563 91.3755 66.1487 88.412 59.1491 83.8295C56.8693 82.342 53.708 82.223 50.61 82.4688C48.183 82.6404 38.4418 85.437 38.7725 89.5123Z" fill="white"/>
<path fill-rule="evenodd" clip-rule="evenodd" d="M62.0703 121.032C55.124 124.038 43.5914 131.599 41.23 139.138C37.8166 144.59 46.0263 145.877 46.8262 144.476L47.6357 144.41C48.7928 143.584 49.5868 143.295 50.8331 142.363C51.9071 141.533 52.9595 140.591 54.6647 140.407C57.8662 136.777 68.3209 136.66 73.4158 138.497C80.1453 140.925 86.8163 138.876 92.9231 143.02C97.5376 144.498 96.9307 147.438 99.625 150.476C100.964 151.384 102.848 151.488 103.863 150.21C104.937 148.88 104.676 146.559 104.639 144.723C104.174 139.557 100.952 131.487 97.4246 128.43C96.4963 127.629 96.0945 127.356 95.1692 126.499C94.2163 125.641 94.1763 125.861 93.2387 124.726C93.1586 124.666 93.0232 124.603 92.9708 124.544C91.2298 123.364 88.5557 120.966 86.1484 120.277C83.6595 119.556 79.8573 121.986 77.9939 123.022C70.5709 127.114 70.906 116.518 62.0718 121.004L62.0703 121.032Z" fill="#6F6F6E"/>
<path fill-rule="evenodd" clip-rule="evenodd" d="M60.5774 157.157C53.2211 153.499 55.408 144.089 61.7383 144.689C66.7019 145.379 68.1442 145.931 73.363 145.525C77.1859 145.236 82.2401 145.293 84.7585 146.988C85.4611 149.361 88.0107 147.473 87.5815 152.729C87.0189 159.395 65.3369 159.531 60.5774 157.157Z" fill="#6F6F6E"/>
<path fill-rule="evenodd" clip-rule="evenodd" d="M14.1273 105.63C14.7892 119.81 11.5502 122.104 16.1764 135.448C17.5644 139.498 18.5065 144.58 20.1083 148.281C25.379 160.52 30.4735 170.416 43.3108 175.46C52.6401 179.115 60.5085 181.551 71.6252 182.025C75.756 182.198 84.8706 183.201 88.2684 182.055C98.7143 178.575 103.342 178.803 112.521 172.613C118.351 168.683 123.868 159.346 127.204 153.278C129.519 149.098 130.269 145.583 132.279 141.387C134.163 137.462 136.688 134.517 138.584 130.37C140.278 127.879 143.971 116.357 142.809 112.736C141.409 108.407 141.525 106.301 144.156 99.4162C145.391 96.1777 144.987 88.9028 146.73 83.4971C147.067 82.4319 147.634 81.2128 148.231 79.9675C148.176 79.9645 148.14 80.1015 148.086 80.0707C140.876 76.7826 136.675 76.3839 134.133 77.6329C134.25 85.0587 134.816 97.9557 134.034 100.052C133.316 103.986 131.966 107.302 131.651 111.508C131.651 111.508 129.144 125.708 128.548 126.426C126.022 129.398 127.319 128.053 126.459 132.062C125.438 136.952 121.302 137.891 119.848 140.061C118.574 141.992 117.225 147.808 113.123 148.11C110.472 148.324 109.739 147.006 108.078 145.886C107.423 147.183 106.088 148.194 104.861 148.793L104.67 144.697C104.707 146.533 104.941 148.853 103.894 150.184C102.85 151.488 100.968 151.356 99.656 150.45C97.8818 151.381 96.4469 149.69 93.9119 149.3C90.2735 148.765 89.6011 149.367 86.8417 149.52L86.7387 149.876C88.1656 150.705 85.7833 151.074 85.3286 153.772C79.4166 156.669 71.7001 157.521 65.0196 154.206C62.0441 152.736 54.839 154.895 56.8507 150.671C55.3124 148.335 54.448 149.899 52.5326 147.348C50.9528 145.26 50.8128 145.28 47.6929 144.413L46.8833 144.479C46.0573 145.851 37.8738 144.593 41.2871 139.141C39.9599 137.511 39.6224 136.076 38.0659 134.573C37.2063 136.554 36.6789 138.053 34.9553 138.569C32.6378 139.275 30.6613 138.332 29.4035 136.956C25.0556 132.159 28.9737 131.153 25.074 127.297C21.8594 124.119 22.1805 122.33 20.5984 117.769L25.9135 111.088C27.7202 110.576 22.5066 107.871 22.2573 103.328C22.0095 98.7567 22.2439 90.989 22.4012 87.1352C22.5094 84.1679 21.9708 84.3604 21.7885 82.1274C21.5336 79.1956 23.1727 74.6733 23.6472 71.6151C23.661 71.3657 23.7747 70.8163 23.8699 70.099C20.831 67.7638 15.6927 69.2307 11.8345 65.1273C11.1597 67.7855 12.5814 71.2263 13.1395 74.2026C13.5457 78.421 12.9833 81.0576 12.7861 85.1315C12.5949 88.5944 11.2972 96.998 12.8526 100.029C13.6072 101.46 13.262 100.163 13.7998 101.999C14.0093 102.733 14.1266 103.629 14.2284 104.301L14.1565 105.603L14.1273 105.63Z" fill="#D2CABF"/>
<path fill-rule="evenodd" clip-rule="evenodd" d="M120.633 115.262C116.02 118.286 116.174 121.546 114.491 123.843C113.526 125.207 111.94 126.259 110.78 127.639C107.477 131.597 105.709 142.976 108.171 145.196L108.076 145.913C109.737 147.033 110.498 148.354 113.122 148.137C117.225 147.808 118.572 142.019 119.846 140.089C121.3 137.918 125.436 136.98 126.457 132.09C127.319 128.053 126.02 129.426 128.546 126.453C130.032 124.701 130.926 123.111 131.475 121.724C134.73 113.595 137.505 104.106 120.606 115.261L120.633 115.262ZM148.257 79.9967C149.073 78.2912 150.002 76.564 150.576 75.2341C150.927 70.3906 148.006 47.8046 145.721 45.3998C145.183 42.5636 144.292 41.5973 143.283 39.2353C142.57 37.5564 142.738 35.5094 141.706 33.0627C137.451 23.0742 132.368 15.4853 120.281 13.4562C115.353 12.6283 108.944 6.4112 103.417 5.85591C96.5092 5.14101 64.2486 3.10944 57.5468 5.21246L56.6081 5.60523C53.1758 4.85994 48.3947 6.9023 46.5006 8.49276C44.1431 9.41851 42.1235 12.7805 37.5426 15.2229C34.8513 16.6582 35.9528 15.3296 33.2265 17.9023C31.1171 19.8699 29.8764 19.19 27.0319 22.8955C25.2336 25.2693 25.384 24.0549 24.1919 26.0176C18.0913 35.851 18.5085 40.8759 17.6164 42.4383C16.6028 44.1885 17.0209 42.6555 15.9278 46.3465L14.3287 50.6486C13.7935 51.7862 13.2538 53.507 12.8711 54.903C12.1317 57.7243 12.595 62.4183 11.8232 64.821C11.8171 64.9318 11.811 65.0426 11.8049 65.1534C15.6631 69.2568 20.8291 67.7914 23.8403 70.1251C24.2594 67.0638 25.0731 60.8843 25.0545 60.7166C27.4668 57.7931 28.6234 46.4084 29.5365 42.9576C30.2931 41.3321 30.562 39.9853 32.1437 38.5166L44.04 27.8917C45.6232 26.3952 44.9262 26.9403 47.0359 25.973C49.8288 24.7101 53.2763 20.1488 59.8707 18.9846C73.6782 16.5237 72.5473 17.3782 84.5675 18.0976C86.9222 18.2276 89.3508 18.0283 91.7056 18.1583L108.181 22.2359C113.026 24.0596 122.519 28.7797 125.551 32.7541C126.044 33.3926 126.389 34.1897 126.98 35.056C129.068 38.0057 129.671 37.1498 130.808 41.214C131.477 43.6963 133.393 47.2477 134.308 50.7995C138.045 65.1499 135.237 64.1612 134.317 74.2807C134.234 75.2765 134.186 76.6632 134.182 78.2469C134.175 82.8871 143.593 83.9351 148.111 80.1276C148.169 80.0752 148.226 80.0506 148.255 80.0244L148.257 79.9967ZM20.5688 117.795C22.1509 122.356 21.8021 124.143 25.0444 127.323C28.9441 131.179 25.0537 132.187 29.3739 136.982C30.6317 138.358 32.6082 139.301 34.9257 138.595C36.6216 138.077 37.1767 136.58 38.0363 134.599L38.1346 133.826C39.0831 130.738 38.6049 127.322 37.4698 124.73C36.3854 122.225 35.8197 119.387 34.7462 117.189C33.5511 114.677 31.4236 112.948 28.959 111.284C21.2743 106.024 15.5031 101.843 20.5657 117.85L20.5688 117.795Z" fill="#6F6F6E"/>
<path fill-rule="evenodd" clip-rule="evenodd" d="M96.5499 85.4224C92.5316 90.2579 97.6187 96.7633 104.167 95.93C111.108 95.035 111.812 89.3219 109.553 85.4458C107.468 84.9694 105.176 84.7039 103.184 84.5383C101.773 84.4326 99.1445 84.7321 96.5484 85.4501L96.5499 85.4224Z" fill="#DDA863"/>
<path fill-rule="evenodd" clip-rule="evenodd" d="M100.372 84.6606C95.8201 87.5771 99.1754 92.7364 103.708 92.1808C108.522 91.5574 108.405 87.1327 106.306 84.8772C105.23 84.7344 104.181 84.6209 103.185 84.5381C102.492 84.4998 101.518 84.5294 100.372 84.6606Z" fill="#000003"/>
<path fill-rule="evenodd" clip-rule="evenodd" d="M43.6053 84.5547C42.2786 88.9553 46.8003 93.6232 52.3976 92.9042C58.7782 92.0894 59.9108 87.178 58.2612 83.3355C56.0939 82.3266 53.319 82.2568 50.6119 82.4685C49.3838 82.5674 46.3136 83.3149 43.6053 84.5547Z" fill="#DDA863"/>
<path fill-rule="evenodd" clip-rule="evenodd" d="M48.5619 82.8554C45.4279 85.7668 48.6356 91.5848 53.6691 89.5008C56.9392 88.1531 56.4361 84.1794 54.1993 82.4164C53.0358 82.3522 51.8107 82.3957 50.6118 82.4684C50.1655 82.4994 49.436 82.6258 48.5619 82.8554Z" fill="#000003"/>
<path fill-rule="evenodd" clip-rule="evenodd" d="M48.5609 82.8556C47.4177 83.9318 47.1166 85.3601 47.4602 86.6851C47.74 85.6446 48.4599 84.684 49.7463 84.0326C52.8039 82.5064 55.3256 84.6464 55.8866 87.0671C56.3093 85.451 55.5822 83.5212 54.226 82.4182C53.0624 82.3539 51.8374 82.3974 50.6385 82.4702C50.1922 82.5011 49.4627 82.6275 48.5886 82.8572L48.5609 82.8556Z" fill="#000003"/>
<path fill-rule="evenodd" clip-rule="evenodd" d="M51.5464 83.1594C50.46 83.7107 51.1762 85.3342 52.4273 84.8197C53.5368 84.353 52.7174 82.5849 51.5464 83.1594Z" fill="white"/>
<path fill-rule="evenodd" clip-rule="evenodd" d="M101.851 85.4928C100.794 86.018 101.514 87.5583 102.681 87.067C103.733 86.6249 102.937 84.9415 101.851 85.4928Z" fill="white"/>
</svg>
