<svg width="546" height="482" viewBox="0 0 546 482" fill="none" xmlns="http://www.w3.org/2000/svg">
<g clip-path="url(#clip0_792_1644)">
<mask id="mask0_792_1644" style="mask-type:alpha" maskUnits="userSpaceOnUse" x="106" y="28" width="380" height="336">
<rect x="144.703" y="28.5664" width="343.682" height="292.387" transform="rotate(7.53695 144.703 28.5664)" fill="#0DA2AF"/>
</mask>
<g mask="url(#mask0_792_1644)">
<path d="M590.957 397.434C591.006 397.519 591.037 397.613 591.047 397.71C591.058 397.807 591.049 397.905 591.02 397.998C590.991 398.091 590.943 398.178 590.879 398.251C590.815 398.325 590.737 398.385 590.649 398.427L588.662 399.414C588.237 401.33 587.829 403.243 587.459 405.058C587.393 405.349 587.232 405.611 587.001 405.801C586.77 405.991 586.482 406.098 586.183 406.106C585.871 406.86 585.537 407.6 585.165 408.327C583.632 411.521 581.817 413.934 577.69 413.723C575.585 413.809 573.493 413.966 571.4 414.123C568.102 414.341 564.832 414.719 561.545 414.897C558.259 415.076 555.209 414.919 552.047 414.855L551.584 414.842C551.343 414.902 551.097 414.944 550.85 414.968C545.07 415.994 539.134 415.712 533.477 414.143C524.37 411.68 515.659 407.936 507.606 403.021C500.184 398.659 492.987 393.889 485.923 388.931C480.059 384.945 473.939 381.188 468.199 376.961C463.072 373.177 458.226 369.028 453.697 364.547C445.831 356.317 438.633 347.364 429.589 340C424.091 335.881 418.183 332.34 411.959 329.433C405.062 325.994 397.805 323.33 390.32 321.49C384.218 319.868 377.865 319.044 371.689 317.638C360.424 315.526 349.476 311.978 339.115 307.08C332.558 303.785 326.155 300.095 319.958 296.314C314.446 292.877 309.325 288.929 303.424 285.909C295.399 281.571 286.969 278.028 278.254 275.33C271.183 273.532 263.871 272.862 256.59 273.344C242.948 273.849 229.298 274.207 215.685 273.49C199.367 272.423 183.214 269.586 167.511 265.026C157.337 261.911 147.333 258.398 137.354 254.808C129.403 252.339 121.313 250.346 113.125 248.841C102.414 247.022 91.6096 245.805 80.7626 245.194L79.4573 245.105C78.6285 245.324 77.7682 245.397 76.9145 245.322C76.2924 245.368 75.6668 245.333 75.0537 245.218C74.8551 245.174 74.6788 245.06 74.5564 244.898C73.7739 244.848 72.9882 244.781 72.2143 244.674C72.1012 244.666 71.991 244.635 71.8903 244.583C71.7895 244.531 71.7005 244.459 71.6285 244.371C71.5565 244.284 71.5031 244.182 71.4716 244.073C71.4401 243.965 71.431 243.85 71.445 243.738C71.5128 243.504 71.6544 243.299 71.8484 243.153C72.0425 243.007 72.2786 242.927 72.5217 242.926C73.1838 242.906 73.8438 242.842 74.4973 242.734C74.7131 242.696 74.9354 242.721 75.1367 242.808L77.0592 242.735C78.9498 242.262 80.8675 241.84 82.7612 241.385C91.0543 239.35 99.4108 237.47 107.826 235.93C119.057 233.832 130.401 232.286 141.715 230.671C164.243 227.182 186.901 224.445 209.606 222.308C239.331 219.835 269.126 218.063 298.994 216.991C321.492 215.792 344.06 214.25 366.76 214.546C381.332 214.729 395.931 214.853 410.491 215.61C441.596 217.409 472.508 221.305 503.219 226.065C519.558 228.487 535.825 231.346 552.125 234.071C562.028 235.61 571.972 236.959 581.922 238.343C585.958 238.786 589.967 239.45 593.93 240.331L594.378 240.365C602.433 241.27 610.393 242.879 618.168 245.173C624.112 246.73 620.805 255.039 620.083 258.555C618.412 264.371 616.848 270.169 615.283 275.967C611.908 289.448 608.354 302.959 605.449 316.599C604.125 323.369 602.707 330.119 601.306 336.865C598.804 350.712 595.906 364.498 593.309 378.324C592.356 383.501 591.41 388.713 590.174 393.846C589.855 395.099 589.554 396.349 589.253 397.598L590.004 397.248C590.163 397.179 590.339 397.159 590.509 397.192C590.68 397.226 590.836 397.31 590.957 397.434Z" fill="#646B23"/>
</g>
<path fill-rule="evenodd" clip-rule="evenodd" d="M148.526 12.6006L512.691 62.7058L467.655 390.03L92.3465 338.391L137.383 11.0674L148.526 12.6006ZM487.338 81.9258L156.603 36.42L117.699 319.171L448.435 364.677L487.338 81.9258Z" fill="#6B402D"/>
<path fill-rule="evenodd" clip-rule="evenodd" d="M156.944 33.9407L490.158 79.7875L450.573 367.497L114.879 321.309L154.465 33.5996L156.944 33.9407ZM484.525 84.0142L158.747 39.1906L120.519 317.033L446.297 361.857L484.525 84.0142Z" fill="#DEBA6C"/>
<path fill-rule="evenodd" clip-rule="evenodd" d="M145.331 19.8142L505.691 69.396L462.614 382.484L99.1606 332.477L142.238 19.3887L145.331 19.8142ZM498.652 74.7547L147.667 26.4629L106.295 327.156L457.28 375.448L498.652 74.7547Z" fill="#DEBA6C"/>
<path d="M257.708 271.805C257.332 267.598 261.398 263.962 265.38 263.454C272.324 262.769 277.729 268.191 283.174 271.695C281.874 266.503 281.09 260.769 283.238 255.76C286.021 249.401 293.421 250.082 297.85 254.521C301.899 258.599 303.719 264.297 305.214 269.686C308.156 264.212 313.064 258.565 319.394 263.69C322.908 266.625 323.141 271.525 323.443 275.723C324.143 283.387 322.362 291.073 318.362 297.648C319.73 299.174 321.216 300.591 322.807 301.885C323.922 299.097 325.201 296.378 326.638 293.742C328.119 290.984 329.827 287.966 332.98 286.937C337.616 285.428 342.047 289.528 343.911 293.467C345.524 297.197 346.134 301.283 345.68 305.321C345.227 309.359 343.725 313.208 341.324 316.487C346.538 320.748 352.085 324.584 357.913 327.956L364.492 332.386C364.457 331.617 364.594 330.85 364.894 330.141C365.837 328.608 367.212 327.388 368.847 326.635C370.958 325.321 373.17 324.174 375.46 323.204C366.39 322.234 352.846 318.924 355.973 307.047C356.617 305.318 357.791 303.837 359.326 302.814C362.258 300.477 365.551 298.65 368.691 296.594C360.835 294.599 345.641 287.398 344.958 278.335C344.991 276.933 345.447 275.574 346.267 274.437C347.087 273.3 348.233 272.438 349.552 271.964C353.56 270.471 357.697 269.35 361.91 268.618C358.51 259.768 353.768 248.429 357.466 239.124C360.682 232.288 370.646 228.522 376.633 234.323C385.708 243.461 383.149 261.415 377.848 271.903L378.555 272.236L378.941 272.417C382.764 267.972 387.224 264.117 392.175 260.977C402.052 254.893 410.502 256.514 407.08 269.796C406.081 273.81 404.303 277.589 401.847 280.918C397.751 286.996 393.13 292.704 388.037 297.976C388.798 299.25 389.581 300.534 390.28 301.831C394.649 296.271 400.413 290.529 407.951 290.307C409.676 290.212 411.385 290.679 412.821 291.638C414.258 292.597 415.344 293.996 415.918 295.625C417.271 299.926 415.346 304.517 413.177 308.181C408.622 315.303 401.816 320.424 396.066 326.303C397.394 328.454 398.57 330.695 399.584 333.01C402.725 329.672 405.791 326.272 409.061 323.048C411.923 319.779 415.502 317.217 419.519 315.562C426.763 313.239 430.889 320.545 428.803 326.814C425.926 335.187 421.198 342.803 414.97 349.095C412.535 351.823 409.603 353.715 407.826 356.936C407.392 357.858 406.681 358.701 406.121 359.615C401.572 357.26 396.677 355.646 391.619 354.834C386.849 353.921 381.985 353.592 377.135 353.855C376.619 352.799 376.324 351.649 376.269 350.476C376.214 349.302 376.399 348.129 376.813 347.03C375.256 346.166 373.71 345.281 372.143 344.44C370.101 343.217 368.291 341.502 366.208 340.365C358.771 337.703 350.37 335.923 342.656 338.077C333.849 340.608 325.416 345.068 316.094 345.524C305.956 345.988 305.169 336.091 311.454 330.464C305.534 330.531 296.312 329.882 291.875 325.518C285.496 317.936 294.78 310.108 300.949 306.231L299.085 305.354C296.942 304.346 294.792 303.073 292.666 301.863C285.416 306.147 277.793 310.333 269.161 310.879C264.426 310.928 256.953 311.181 255.606 305.365C254.841 295.033 269.123 291.99 276.957 289.97C273.746 287.938 270.713 285.636 267.893 283.089C266.238 281.655 264.562 280.212 262.937 278.715C260.691 276.925 258.047 274.922 257.708 271.805Z" fill="#9D9B36"/>
<path d="M324.389 421.597C321.379 421.613 319.04 418.509 318.916 415.651C318.844 410.679 323.017 407.163 325.831 403.506C322.066 404.12 317.947 404.334 314.518 402.51C310.168 400.154 311.094 394.939 314.51 392.06C317.647 389.427 321.803 388.475 325.719 387.734C322.007 385.319 318.29 381.496 322.307 377.307C324.601 374.987 328.094 375.113 331.094 375.15C336.578 375.11 341.93 376.834 346.36 380.066C347.526 379.186 348.621 378.215 349.634 377.162C347.721 376.204 345.867 375.133 344.08 373.956C342.21 372.74 340.169 371.347 339.627 369.046C338.831 365.664 342.007 362.762 344.916 361.674C347.66 360.75 350.599 360.561 353.439 361.124C356.28 361.687 358.923 362.983 361.108 364.884C364.446 361.436 367.501 357.725 370.243 353.787L373.782 349.38C373.234 349.359 372.697 349.216 372.211 348.961C371.179 348.2 370.395 347.15 369.958 345.944C369.15 344.366 368.467 342.728 367.915 341.043C366.685 347.427 363.526 356.847 355.279 353.918C354.09 353.357 353.108 352.436 352.473 351.284C350.988 349.063 349.888 346.615 348.615 344.263C346.73 349.722 340.709 360.083 334.232 360.027C333.239 359.92 332.301 359.515 331.542 358.865C330.784 358.214 330.24 357.35 329.982 356.384C329.161 353.449 328.612 350.445 328.343 347.409C321.856 349.295 313.521 351.986 307.133 348.805C302.471 346.113 300.391 338.812 304.867 334.907C311.898 329.008 324.496 331.896 331.627 336.287L331.906 335.804L332.057 335.541C329.129 332.561 326.658 329.164 324.723 325.46C320.992 318.083 322.647 312.179 331.875 315.402C334.666 316.351 337.243 317.839 339.461 319.782C343.533 323.053 347.31 326.676 350.75 330.607C351.701 330.142 352.659 329.663 353.622 329.244C349.934 325.809 346.201 321.373 346.492 316.007C346.528 314.777 346.962 313.591 347.728 312.628C348.495 311.665 349.554 310.977 350.745 310.667C353.88 309.963 357.025 311.604 359.498 313.363C364.284 317.022 367.514 322.161 371.346 326.595C372.952 325.78 374.614 325.079 376.319 324.497C374.136 322.067 371.904 319.687 369.81 317.172C367.659 314.945 366.053 312.251 365.118 309.299C363.9 304.016 369.335 301.522 373.662 303.377C379.436 305.92 384.563 309.733 388.66 314.531C390.451 316.423 391.62 318.618 393.801 320.072C394.43 320.435 394.986 320.99 395.602 321.443C393.658 324.532 392.22 327.912 391.341 331.455C390.408 334.788 389.885 338.223 389.782 341.683C389.002 341.986 388.167 342.127 387.331 342.096C386.494 342.065 385.672 341.864 384.916 341.504C384.21 342.558 383.489 343.604 382.798 344.666C381.808 346.043 380.482 347.226 379.55 348.637C377.216 353.76 375.451 359.62 376.52 365.226C377.792 371.632 380.456 377.886 380.223 384.533C379.948 391.761 372.873 391.729 369.252 386.93C368.946 391.138 367.936 397.648 364.571 400.539C358.807 404.616 353.801 397.556 351.417 392.944L350.683 394.216C349.839 395.677 348.807 397.128 347.82 398.565C350.43 403.97 352.948 409.633 352.82 415.795C352.573 419.16 352.306 424.483 348.096 425.092C340.713 425.019 339.404 414.695 338.437 409.012C336.803 411.171 334.987 413.187 333.01 415.037C331.893 416.127 330.768 417.232 329.608 418.296C328.203 419.785 326.623 421.542 324.389 421.597Z" fill="#9D9B36"/>
<path d="M444.724 301.724C445.016 299.1 444.377 296.456 442.92 294.254C441.549 292.761 439.879 291.573 438.019 290.767C436.159 289.961 434.151 289.555 432.124 289.575C427.416 289.18 376.902 285.939 371.152 285.572H370.785C370.794 285.45 370.794 285.328 370.785 285.206C370.687 282.94 369.922 280.753 368.587 278.92C367.347 277.34 365.763 276.065 363.955 275.19C362.148 274.316 360.165 273.866 358.157 273.874C355.409 273.849 352.689 274.415 350.179 275.534C347.669 276.652 345.43 278.297 343.611 280.357L343.414 280.583L343.16 280.442C338.37 278.273 333.074 277.463 327.854 278.102C321.264 278.884 314.929 281.117 309.306 284.642C299.215 291.463 293.492 300.23 293.182 309.307C293.078 311.879 293.55 314.441 294.565 316.807C295.579 319.173 297.11 321.281 299.045 322.978C305.67 329.011 317.424 328.757 322.216 328.334C327.516 327.883 410.982 319.878 421.976 318.835C431.954 317.792 441.567 315.226 444.386 303.81C444.576 303.128 444.699 302.43 444.752 301.724H444.724Z" fill="#EE7203"/>
<path d="M356.69 290.673C359.509 290.673 362.328 289.743 362.948 286.783C363.258 284.81 361.905 282.611 358.776 282.16C357.205 281.9 355.592 282.189 354.209 282.977C353.273 283.564 352.574 284.462 352.236 285.514C352.018 286.033 351.922 286.596 351.956 287.158C351.99 287.72 352.154 288.267 352.433 288.756C352.939 289.391 353.589 289.896 354.329 290.23C355.07 290.563 355.879 290.715 356.69 290.673Z" fill="white"/>
<path d="M438.329 302.372C438.112 302.807 437.807 303.192 437.434 303.503C437.06 303.814 436.625 304.043 436.158 304.176H435.792C435.792 304.176 436.271 302.175 436.355 301.583C436.637 298.764 436.214 295.945 431.902 295.776C430.028 295.833 428.233 296.543 426.827 297.783C425.422 299.024 424.495 300.717 424.206 302.569C423.417 304.232 422.007 306.544 421.134 306.6C420.961 306.583 420.8 306.503 420.683 306.375C420.597 306.275 420.534 306.158 420.5 306.031C420.466 305.904 420.461 305.771 420.485 305.642C420.659 304.845 420.894 304.063 421.19 303.302C421.677 301.973 422.054 300.606 422.318 299.215C422.909 295.86 420.908 295.015 418.738 295.015C417.439 295.016 416.179 295.453 415.158 296.255L414.312 297.073L414.932 294.987L410.112 294.733L407.857 301.47C407.284 302.171 406.505 302.674 405.63 302.908H405.292V302.541C405.32 302.194 405.32 301.845 405.292 301.498C405.292 300.709 404.784 298.031 402.219 298.031C395.538 298.031 395.059 306.234 399.09 305.416H399.569V305.896C398.78 309.109 397.23 310.716 395.313 310.8C395.17 310.815 395.026 310.795 394.894 310.74C394.761 310.686 394.643 310.6 394.552 310.49C394.383 310.257 394.263 309.992 394.2 309.711C394.137 309.43 394.132 309.139 394.185 308.855C394.354 307.249 398.639 294.197 398.639 294.197L392.494 293.915L390.38 300.314L390.126 300.991C389.816 301.865 389.591 302.457 389.421 303.049C388.238 305.501 386.321 308.066 385.024 308.123C384.906 308.123 384.79 308.098 384.683 308.049C384.576 308.001 384.481 307.929 384.404 307.841C384.312 307.738 384.245 307.617 384.206 307.485C384.167 307.354 384.158 307.215 384.178 307.08L384.376 305.98L388.914 293.577L381.923 293.126L381.106 295.269C380.928 294.609 380.591 294.004 380.123 293.507C379.656 293.009 379.072 292.635 378.425 292.417C377.778 292.2 377.087 292.146 376.414 292.259C375.74 292.373 375.106 292.652 374.566 293.07C371.656 295.757 369.831 299.417 369.436 303.359V303.5C368.421 308.207 367.04 311.364 363.798 311.533C363.13 311.608 362.456 311.459 361.881 311.11C362.894 310.536 363.776 309.759 364.475 308.827C364.78 308.509 365.018 308.132 365.173 307.719C365.328 307.306 365.397 306.866 365.376 306.425C365.355 305.984 365.244 305.552 365.05 305.156C364.857 304.76 364.584 304.407 364.249 304.12C363.709 303.747 363.084 303.515 362.431 303.445C361.778 303.374 361.118 303.468 360.511 303.717C359.904 303.966 359.368 304.363 358.953 304.871C358.537 305.38 358.255 305.984 358.132 306.629C357.79 307.896 357.941 309.246 358.555 310.406C357.704 310.947 356.739 311.284 355.736 311.392C355.425 311.408 355.115 311.35 354.831 311.222C354.547 311.095 354.297 310.902 354.101 310.659C353.453 309.617 354.693 306.516 354.89 306.121C355.088 305.726 360.528 293.013 360.866 292.196L351.282 291.717C350.916 292.534 349.591 295.748 348.266 298.708C345.616 304.345 338.738 312.097 332.199 313.225C329.598 313.932 326.824 313.588 324.475 312.266C322.304 310.659 321.262 307.164 322.558 302.485C323.087 300.248 323.962 298.108 325.152 296.142C331.438 285.205 339.866 288.503 339.246 289.321C338.654 289.459 338.078 289.657 337.526 289.913C336.467 290.392 335.538 291.118 334.817 292.03C334.096 292.942 333.604 294.014 333.383 295.156C333.255 295.879 333.28 296.621 333.455 297.334C333.629 298.048 333.95 298.717 334.397 299.299C334.868 299.8 335.442 300.19 336.08 300.444C336.719 300.697 337.405 300.807 338.09 300.765C339.787 300.787 341.43 300.171 342.694 299.037C343.958 297.904 344.749 296.338 344.912 294.648C345.065 293.75 345.029 292.83 344.805 291.946C344.582 291.063 344.177 290.236 343.615 289.518C341.867 287.376 339.725 286.192 334.736 285.91C329.542 285.775 324.431 287.238 320.096 290.102C315.76 292.965 312.408 297.091 310.493 301.921C309.82 303.857 309.639 305.93 309.969 307.953C310.299 309.976 311.128 311.885 312.382 313.507C315.539 316.917 319.683 318.44 327.237 317.65C333.749 316.596 339.711 313.367 344.151 308.489C344.151 308.489 344.151 308.489 344.151 308.686C342.91 312.097 343.897 315.903 349.788 315.649C353.333 315.391 356.764 314.29 359.795 312.435C360.647 313.196 361.65 313.77 362.737 314.119C363.825 314.469 364.974 314.587 366.11 314.465C367.447 314.305 368.738 313.873 369.902 313.194C371.065 312.515 372.077 311.605 372.875 310.519C374.992 307.154 376.5 303.442 377.329 299.553C377.495 298.646 377.78 297.765 378.174 296.932C378.365 296.512 378.708 296.18 379.133 296.001C380.204 295.663 380.655 296.734 380.373 297.467C380.091 298.2 378.738 301.893 378.738 301.893L378.484 302.457C377.523 304.353 376.866 306.388 376.539 308.489C376.416 309.148 376.436 309.827 376.596 310.478C376.756 311.13 377.054 311.739 377.47 312.266C377.874 312.691 378.374 313.012 378.928 313.204C379.483 313.395 380.075 313.451 380.655 313.366C382.323 313.025 383.899 312.333 385.279 311.337C386.659 310.341 387.812 309.063 388.66 307.587L388.858 307.305L389.168 306.91V307.728C389.478 310.998 391.987 312.52 395.792 312.266C397.937 312.343 400.043 311.686 401.765 310.405C403.486 309.124 404.72 307.295 405.263 305.219V305.05H405.433C405.93 304.901 406.412 304.703 406.87 304.458L407.265 304.232L404.897 311.251C405.602 311.251 410.337 310.8 410.704 310.8L413.523 301.836C414.002 300.371 415.214 297.58 416.342 297.608C416.455 297.608 416.567 297.633 416.669 297.682C416.772 297.731 416.862 297.802 416.934 297.89C417.169 298.237 417.269 298.658 417.215 299.074C417.014 300.168 416.692 301.236 416.257 302.259C415.629 303.876 415.148 305.546 414.819 307.249C414.694 307.654 414.676 308.085 414.768 308.5C414.859 308.914 415.057 309.298 415.341 309.613C415.625 309.929 415.986 310.165 416.389 310.299C416.791 310.433 417.222 310.46 417.638 310.378C419.47 310.378 421.951 309.56 424.347 305.247V305.726C424.462 306.883 425.024 307.95 425.914 308.698C426.804 309.446 427.952 309.816 429.111 309.729C430.431 309.698 431.717 309.303 432.826 308.586C433.936 307.87 434.825 306.861 435.397 305.67V305.501H435.566C436.323 305.375 437.032 305.046 437.618 304.55C438.203 304.054 438.644 303.408 438.892 302.682C438.892 302.682 438.526 302.654 438.329 302.372ZM361.684 305.586C362.699 305.586 363.065 306.375 362.389 307.587C361.774 308.463 360.975 309.194 360.049 309.729C358.865 307.587 360.387 305.416 361.684 305.586ZM400.161 303.302C399.807 303.623 399.342 303.794 398.865 303.781C398.188 303.781 398.047 303.443 398.019 303.274C398.05 302.902 398.182 302.545 398.401 302.242C398.619 301.939 398.916 301.702 399.259 301.555C399.378 301.482 399.515 301.444 399.654 301.444C399.793 301.444 399.93 301.482 400.049 301.555C400.191 301.821 400.275 302.115 400.294 302.416C400.314 302.718 400.268 303.02 400.161 303.302ZM432.409 303.753C432.173 303.473 432.043 303.119 432.043 302.753C432.043 302.386 432.173 302.032 432.409 301.752C432.488 301.674 432.594 301.631 432.705 301.631C432.816 301.631 432.922 301.674 433.001 301.752C432.881 302.439 432.682 303.111 432.409 303.753ZM433.17 299.638C433.17 299.638 431.197 299.638 430.746 302.457C430.645 302.985 430.698 303.531 430.898 304.031C431.098 304.53 431.436 304.962 431.873 305.275V305.67C431.338 306.854 430.689 308.151 429.562 308.207C429.398 308.224 429.232 308.206 429.077 308.152C428.921 308.099 428.779 308.011 428.66 307.897C428.294 307.502 428.181 307.192 428.293 306.065C428.575 303.415 430.52 296.932 432.381 296.988C432.515 296.989 432.647 297.023 432.765 297.087C432.883 297.151 432.983 297.243 433.057 297.354C433.376 298.075 433.416 298.889 433.17 299.638Z" fill="white"/>
<path d="M190.139 288.395C203.875 289.129 209.488 273.641 203.733 262.652C201.77 257.653 198.548 253.248 194.378 249.863C191.732 248.08 188.693 246.966 185.521 246.619C182.916 246.429 178.724 245.79 177.327 248.561C173.23 249.674 172.046 254.221 171.406 257.892C170.123 264.082 171.277 270.529 174.627 275.89C177.824 281.74 182.774 287.992 190.139 288.395ZM208.019 246.169C217.634 257.821 221.874 281.693 213.561 294.884C211.643 298.41 208.488 301.101 204.704 302.439C200.069 304.42 195.019 305.233 189.997 304.807C184.952 303.931 180.998 300.331 177.208 297.134C174.827 295.159 172.638 292.962 170.672 290.574C160.512 277.785 146.658 248.585 164.893 237.193C165.003 236.506 165.34 235.875 165.851 235.403C166.363 234.93 167.018 234.643 167.712 234.588C169.133 234.115 170.554 233.57 171.998 233.144C177.98 231.237 184.43 231.404 190.305 233.617C197.368 235.8 203.538 240.201 207.901 246.169H208.019Z" fill="#FBBD17"/>
<path d="M203.614 262.652C209.369 273.641 203.756 289.129 190.02 288.395C182.773 287.992 177.823 281.74 174.508 275.891C171.16 270.528 170.007 264.082 171.287 257.892C171.927 254.221 173.111 249.674 177.208 248.561C178.605 245.79 182.797 246.43 185.402 246.619C188.575 246.962 191.616 248.076 194.259 249.864C198.428 253.248 201.651 257.654 203.614 262.652Z" fill="#942D29"/>
<path d="M155.348 285.363C154.932 285.325 154.528 285.204 154.16 285.007C153.792 284.81 153.467 284.542 153.204 284.217C152.942 283.893 152.746 283.519 152.631 283.118C152.515 282.717 152.48 282.297 152.53 281.882C152.814 280.248 154.282 279.23 155.466 278.188C157.42 276.586 159.46 275.091 161.576 273.712C162.135 273.099 162.915 272.734 163.743 272.696C164.571 272.658 165.381 272.951 165.993 273.51C166.605 274.069 166.971 274.849 167.009 275.677C167.046 276.505 166.753 277.315 166.194 277.927C163.305 280.816 159.824 285.529 155.348 285.363Z" fill="#942D29"/>
<path d="M163.402 295.002C161.176 291.497 166.149 288.844 168.138 286.642C168.825 286.168 169.228 285.434 169.891 284.937C170.499 284.497 171.246 284.291 171.994 284.356C172.742 284.421 173.441 284.754 173.964 285.292C175.977 287.542 174.106 289.507 172.591 291.307C170.649 293.889 166.575 298.459 163.402 295.002Z" fill="#942D29"/>
<path d="M174.06 304.24C173.722 304.187 173.4 304.063 173.116 303.874C172.831 303.686 172.59 303.438 172.41 303.148C172.23 302.857 172.115 302.532 172.073 302.193C172.031 301.854 172.062 301.51 172.165 301.185C172.477 300.478 172.928 299.842 173.491 299.314C175.016 297.627 176.234 295.688 177.091 293.582C177.328 293.082 177.705 292.66 178.176 292.369C178.647 292.078 179.193 291.93 179.746 291.943C180.3 291.955 180.838 292.128 181.296 292.44C181.754 292.752 182.111 293.19 182.325 293.701C183.13 295.951 180.928 297.798 179.957 299.598C178.441 301.516 176.831 304.524 174.06 304.24Z" fill="#942D29"/>
<path d="M183.034 310.443C182.666 310.366 182.318 310.209 182.017 309.984C181.715 309.758 181.466 309.469 181.288 309.138C181.11 308.806 181.006 308.439 180.985 308.063C180.963 307.687 181.024 307.311 181.163 306.961C181.76 305.75 182.474 304.6 183.295 303.527C183.595 302.612 183.879 301.664 184.147 300.685C184.311 300.167 184.622 299.708 185.042 299.364C185.463 299.02 185.975 298.806 186.515 298.748C187.055 298.69 187.601 298.791 188.085 299.038C188.568 299.286 188.97 299.669 189.239 300.141C190.305 302.32 188.315 304.475 187.605 306.464C186.895 308.453 185.403 310.774 183.034 310.443Z" fill="#942D29"/>
<path d="M198.64 311.035C195.514 309.898 196.84 305.967 197.148 303.48C197.148 301.112 197.148 297.489 200.298 297.512C204.276 297.82 203.14 302.533 202.855 305.233C202.571 307.933 202.121 311.911 198.64 311.035Z" fill="#942D29"/>
<path d="M209.205 304.5C207.832 303.411 207.713 301.682 206.837 300.332C205.298 298.366 203.9 293.511 207.784 293.653C209.205 293.843 209.56 295.406 210.46 296.282C211.913 297.712 213.2 299.301 214.297 301.019C214.576 301.687 214.616 302.431 214.41 303.126C214.204 303.82 213.765 304.422 213.168 304.831C212.57 305.24 211.849 305.43 211.128 305.37C210.406 305.31 209.727 305.002 209.205 304.5Z" fill="#942D29"/>
<path d="M220.927 291.331C218.559 289.839 216.19 288.797 213.704 287.495C213.222 287.533 212.74 287.423 212.323 287.179C211.905 286.935 211.573 286.57 211.369 286.132C211.165 285.694 211.101 285.204 211.184 284.727C211.266 284.251 211.493 283.812 211.833 283.469C212.946 282.379 214.461 283.019 215.764 283.469C217.635 284.013 219.53 284.487 221.4 285.055C222.376 285.304 223.31 285.695 224.171 286.216C224.701 286.705 225.042 287.364 225.135 288.079C225.229 288.793 225.069 289.518 224.683 290.127C224.296 290.735 223.709 291.189 223.023 291.409C222.337 291.629 221.595 291.602 220.927 291.331Z" fill="#942D29"/>
<path d="M218.225 275.82C215.857 275.228 212.139 275.181 211.476 272.363C211.422 271.861 211.569 271.358 211.884 270.964C212.198 270.569 212.656 270.314 213.157 270.255C214.389 267.389 217.894 268.597 220.262 269.118C221.849 269.592 223.696 269.616 224.998 270.871C225.554 271.474 225.85 272.271 225.824 273.09C225.797 273.91 225.45 274.686 224.856 275.252C222.914 276.815 220.356 276.105 218.225 275.82Z" fill="#942D29"/>
<path d="M216.429 263.007C214.321 262.771 211.384 263.244 210.058 261.231C209.936 260.988 209.876 260.719 209.884 260.447C209.891 260.176 209.967 259.91 210.103 259.675C210.24 259.44 210.433 259.242 210.665 259.101C210.897 258.959 211.16 258.877 211.432 258.863C211.882 254.292 217.897 256.021 220.905 256.495C223.912 256.968 225.641 261.421 222.16 262.96C220.259 263.209 218.334 263.225 216.429 263.007Z" fill="#942D29"/>
<path d="M206.525 251.451C205.531 250.575 206.336 249.485 207.212 248.917C206.869 248.571 206.611 248.151 206.458 247.689C206.305 247.227 206.262 246.736 206.33 246.254C206.399 245.772 206.579 245.312 206.855 244.912C207.131 244.511 207.497 244.18 207.923 243.944C208.728 243.569 209.559 243.252 210.409 242.996C212.635 242.357 215.548 241.197 217.514 242.996C217.906 243.437 218.178 243.97 218.306 244.545C218.434 245.12 218.413 245.719 218.244 246.283C218.076 246.848 217.766 247.36 217.344 247.771C216.922 248.183 216.401 248.479 215.832 248.633C213.819 249.651 208.562 252.872 206.525 251.451Z" fill="#942D29"/>
<path d="M182.746 236.104C182.46 235.944 182.227 235.704 182.076 235.414C181.924 235.124 181.861 234.796 181.893 234.47C177.962 233.238 179.525 229.497 181.42 227.105C183.314 224.713 184.569 221.8 187.317 220.497C187.762 220.317 188.242 220.237 188.722 220.262C189.202 220.288 189.67 220.418 190.095 220.643C190.519 220.869 190.889 221.185 191.178 221.569C191.467 221.953 191.669 222.395 191.769 222.865C191.641 224.497 191.068 226.061 190.111 227.389C188.836 229.856 187.387 232.23 185.777 234.494C185.359 235.162 184.782 235.715 184.096 236.104C183.885 236.205 183.654 236.257 183.421 236.257C183.187 236.257 182.957 236.205 182.746 236.104Z" fill="#942D29"/>
<path d="M141.252 192.53C148.409 196.677 155.648 189.915 155.569 182.457C155.884 179.243 155.362 176.003 154.054 173.051C153.124 171.373 151.8 169.945 150.196 168.892C148.853 168.079 146.782 166.591 145.277 167.693C142.778 167.17 140.901 169.281 139.555 171.073C137.176 174.038 136.032 177.806 136.362 181.593C136.475 185.6 137.418 190.301 141.252 192.53ZM162.37 174.8C164.335 183.669 160.081 197.613 152.024 202.407C150.033 203.771 147.608 204.35 145.215 204.032C142.192 203.827 139.264 202.882 136.691 201.282C134.229 199.434 133.094 196.425 131.938 193.677C131.203 191.968 130.631 190.193 130.23 188.377C128.284 178.75 128.844 159.324 141.724 158.206C141.971 157.868 142.324 157.623 142.727 157.509C143.13 157.396 143.559 157.421 143.946 157.581C144.836 157.716 145.746 157.813 146.636 157.979C150.361 158.593 153.77 160.445 156.312 163.236C159.498 166.335 161.6 170.379 162.306 174.768L162.37 174.8Z" fill="#FBBD17"/>
<path d="M155.506 182.424C155.586 189.883 148.346 196.644 141.19 192.497C137.419 190.301 136.476 185.6 136.299 181.56C135.971 177.773 137.115 174.006 139.493 171.04C140.839 169.249 142.716 167.137 145.214 167.66C146.72 166.558 148.79 168.046 150.134 168.86C151.74 169.91 153.064 171.338 153.991 173.018C155.299 175.97 155.821 179.211 155.506 182.424Z" fill="#942D29"/>
<path d="M123.445 181.398C123.233 181.263 123.05 181.088 122.906 180.882C122.763 180.676 122.662 180.443 122.61 180.198C122.558 179.952 122.556 179.699 122.603 179.452C122.651 179.206 122.747 178.971 122.887 178.763C123.486 177.965 124.551 177.821 125.47 177.586C126.954 177.263 128.455 177.02 129.965 176.859C130.432 176.684 130.95 176.701 131.403 176.907C131.857 177.113 132.211 177.491 132.386 177.958C132.561 178.425 132.544 178.942 132.338 179.396C132.132 179.85 131.754 180.204 131.287 180.379C128.95 181.137 125.797 182.71 123.445 181.398Z" fill="#942D29"/>
<path d="M125.127 188.761C124.892 186.276 128.281 186.214 129.948 185.578C130.445 185.512 130.862 185.229 131.353 185.144C131.799 185.075 132.255 185.168 132.638 185.407C133.021 185.647 133.304 186.016 133.438 186.447C133.901 188.203 132.362 188.744 131.058 189.294C129.312 190.146 125.881 191.48 125.127 188.761Z" fill="#942D29"/>
<path d="M128.311 196.622C128.144 196.502 128.006 196.347 127.905 196.168C127.804 195.989 127.743 195.791 127.726 195.586C127.709 195.382 127.736 195.176 127.806 194.983C127.876 194.79 127.987 194.614 128.131 194.468C128.491 194.175 128.906 193.957 129.352 193.828C130.63 193.342 131.812 192.636 132.847 191.742C133.11 191.539 133.427 191.416 133.759 191.389C134.091 191.362 134.424 191.432 134.717 191.59C135.01 191.748 135.251 191.988 135.411 192.28C135.571 192.572 135.643 192.904 135.618 193.236C135.434 194.661 133.75 195.049 132.738 195.747C131.402 196.361 129.717 197.532 128.311 196.622Z" fill="#942D29"/>
<path d="M131.423 202.397C131.247 202.255 131.103 202.076 131.003 201.873C130.903 201.67 130.849 201.447 130.844 201.221C130.839 200.995 130.884 200.77 130.975 200.563C131.067 200.355 131.202 200.171 131.372 200.021C132.023 199.535 132.72 199.114 133.452 198.764C133.863 198.356 134.274 197.926 134.686 197.475C134.915 197.242 135.207 197.081 135.526 197.012C135.846 196.943 136.178 196.968 136.483 197.085C136.789 197.201 137.053 197.404 137.245 197.669C137.436 197.934 137.546 198.249 137.562 198.575C137.537 200.033 135.883 200.644 134.958 201.515C134.034 202.387 132.601 203.222 131.423 202.397Z" fill="#942D29"/>
<path d="M139.617 206.98C138.253 205.516 140.038 203.773 140.882 202.525C141.529 201.257 142.52 199.316 144.2 200.19C146.247 201.442 144.35 203.656 143.46 205.024C142.57 206.392 141.242 208.4 139.617 206.98Z" fill="#942D29"/>
<path d="M147.063 206.366C146.625 205.407 147.034 204.449 146.933 203.486C146.646 202.013 147.224 199.031 149.266 200.168C149.975 200.658 149.738 201.592 149.981 202.308C150.368 203.47 150.623 204.673 150.741 205.893C150.708 206.327 150.526 206.737 150.226 207.052C149.926 207.368 149.526 207.571 149.094 207.626C148.662 207.682 148.225 207.587 147.854 207.357C147.484 207.128 147.205 206.778 147.063 206.366Z" fill="#942D29"/>
<path d="M156.94 202.517C156.079 201.07 155.096 199.865 154.12 198.488C153.851 198.377 153.623 198.186 153.466 197.941C153.31 197.697 153.231 197.41 153.242 197.12C153.253 196.829 153.352 196.549 153.526 196.317C153.701 196.085 153.942 195.911 154.218 195.82C155.112 195.541 155.749 196.298 156.324 196.895C157.177 197.698 158.062 198.469 158.909 199.285C159.364 199.685 159.757 200.149 160.076 200.664C160.226 201.07 160.228 201.517 160.083 201.925C159.938 202.333 159.654 202.678 159.281 202.898C158.908 203.119 158.469 203.201 158.041 203.131C157.614 203.062 157.224 202.844 156.94 202.517Z" fill="#942D29"/>
<path d="M159.73 193.47C158.624 192.506 156.645 191.464 157.06 189.773C157.169 189.49 157.385 189.261 157.661 189.135C157.937 189.01 158.252 188.999 158.537 189.104C159.979 187.906 161.527 189.51 162.653 190.437C163.373 191.124 164.356 191.642 164.711 192.67C164.843 193.145 164.784 193.653 164.546 194.084C164.308 194.516 163.91 194.837 163.437 194.978C161.97 195.284 160.794 194.205 159.73 193.47Z" fill="#942D29"/>
<path d="M162.273 186.116C161.209 185.414 159.506 184.865 159.346 183.424C159.347 183.261 159.388 183.1 159.467 182.956C159.545 182.813 159.658 182.692 159.796 182.603C159.933 182.514 160.09 182.461 160.253 182.449C160.416 182.436 160.58 182.464 160.729 182.531C162.219 180.206 164.969 182.776 166.45 183.851C167.932 184.927 167.641 187.784 165.355 187.657C164.269 187.271 163.234 186.754 162.273 186.116Z" fill="#942D29"/>
<path d="M160.125 177.22C159.832 176.479 160.561 176.116 161.186 176.051C161.097 175.772 161.073 175.476 161.118 175.187C161.162 174.898 161.273 174.622 161.441 174.383C161.61 174.144 161.832 173.947 162.089 173.808C162.347 173.669 162.633 173.591 162.926 173.581C163.459 173.6 163.991 173.658 164.516 173.753C165.883 174.019 167.761 174.194 168.322 175.695C168.411 176.038 168.412 176.398 168.323 176.741C168.234 177.084 168.059 177.399 167.814 177.655C167.57 177.911 167.264 178.101 166.925 178.206C166.587 178.311 166.227 178.328 165.881 178.254C164.524 178.25 160.828 178.538 160.125 177.22Z" fill="#942D29"/>
<path d="M151.585 162.502C151.476 162.338 151.417 162.146 151.415 161.949C151.413 161.752 151.469 161.559 151.575 161.394C149.806 159.66 151.666 158.083 153.334 157.319C155.003 156.556 156.471 155.339 158.299 155.392C158.587 155.417 158.865 155.506 159.116 155.65C159.366 155.795 159.581 155.993 159.747 156.23C159.912 156.466 160.024 156.737 160.074 157.021C160.124 157.306 160.111 157.598 160.036 157.877C159.522 158.716 158.787 159.397 157.912 159.847C156.554 160.82 155.13 161.696 153.649 162.468C153.243 162.712 152.782 162.85 152.308 162.871C152.168 162.867 152.03 162.832 151.905 162.768C151.78 162.705 151.671 162.614 151.585 162.502Z" fill="#942D29"/>
<path fill-rule="evenodd" clip-rule="evenodd" d="M219.834 59.533C220.249 60.5564 220.531 60.4886 221.059 61.4903C222.904 64.8156 222.992 69.7666 220.209 73.3643C219.191 74.6975 218.32 75.3718 215.823 74.7894C214.993 73.7154 214.961 73.2968 214.442 71.6286L211.493 71.1879C211.223 70.5339 211.1 69.2489 210.825 68.678C206.724 69.4796 206.065 68.3317 205.83 65.54C201.481 65.2998 203.956 60.7403 204.854 58.5669C205.946 55.904 209.459 55.6812 212.9 55.7601C210.18 52.6921 204.953 51.7366 199.826 51.4813C191.014 51.0502 187.215 55.9256 182.932 59.0236C179.805 61.2963 177.244 64.406 175.018 67.4787C173.786 69.1612 172.758 70.6606 171.738 72.5217C167.242 80.971 167.113 91.3565 170.738 99.6984C178.351 117.319 185.543 118.411 201.442 119.345C209.696 119.828 214.664 120.436 222.075 116.066C225.695 113.904 227.825 111.576 230.514 108.168C234.309 103.348 237.756 96.7858 237.981 90.1847C238.14 85.803 236.992 80.4322 235.258 77.113C233.12 73.0491 224.031 61.0153 219.863 59.5069L219.834 59.533Z" fill="#D03435"/>
<path fill-rule="evenodd" clip-rule="evenodd" d="M219.835 59.5332L219.147 59.4119C218.417 58.0377 216.999 57.0424 215.027 56.5167C214.476 55.9306 213.842 55.84 212.874 55.7587C209.433 55.6798 205.917 55.9303 204.827 58.5655C203.929 60.739 201.456 65.2707 205.804 65.5386C206.011 68.3288 206.698 69.4783 210.799 68.6766C211.073 69.2475 211.197 70.5326 211.466 71.1866L214.415 71.6273C214.907 73.2939 214.965 73.7417 215.797 74.788C218.322 75.3443 219.166 74.6684 220.182 73.3629C222.995 69.7391 222.878 64.8142 221.033 61.4889C220.503 60.5149 220.223 60.555 219.807 59.5317L219.835 59.5332Z" fill="#530700"/>
<path fill-rule="evenodd" clip-rule="evenodd" d="M170.073 144.001C167.894 140.14 165.173 133.632 165.997 129.446C167.535 131.484 171.564 142.651 171.875 145.888C170.848 145.329 171.021 145.731 169.995 144.013L170.073 144.001ZM151.536 138.699C150.189 133.142 150.47 132.782 152.688 127.022L153.69 129.854C153.818 130.708 153.951 131.592 154.079 132.445C154.369 134.369 154.456 136.117 154.567 138.132C154.773 141.94 155.753 146.013 155.681 149.356C152.924 147.391 152.281 141.522 151.583 138.692L151.536 138.699ZM142.39 128.254C143.296 131.514 143.574 133.471 141.871 136.599C140.434 139.258 139.263 141.672 137.836 144.298C134.535 150.396 129.432 155.78 128.237 158.356C126.535 154.9 132.79 150.912 133.058 141.431C133.137 139.198 139.193 131.115 140.995 129.289C141.215 129.017 141.484 128.788 141.789 128.615C141.789 128.615 142.053 128.353 142.08 128.428C142.108 128.503 142.285 128.302 142.39 128.254ZM187.755 164.759C188.212 165.563 188.682 166.349 189.138 167.153C189.878 167.931 189.159 167.293 190.107 167.96C192.793 164.573 193.281 164.309 191.033 161.157C189.542 159.053 188.229 156.831 187.108 154.512C184.742 150.045 182.396 145.569 180.07 141.085C177.868 137.069 171.95 120.999 171.166 119.609C170.106 117.77 169.903 118.863 169.437 116.299C169.204 114.748 169.173 113.055 168.923 111.712C166.845 115.008 170.913 123.027 172.081 126.437C173.249 129.847 174.843 133.431 176.231 136.919C177.068 139.189 176.386 138.482 178.284 139.942C181.064 142.062 183.596 154.533 186.421 161.2C186.972 162.529 187.159 163.453 187.722 164.749L187.755 164.759ZM223.652 187.299C221.837 191.062 221.979 189.772 222.799 193.948C221.983 191.929 218.269 187.633 216.856 185.465C216.314 184.627 215.888 184.024 215.349 183.201C213.878 181.074 212.412 178.941 210.95 176.803C213.684 177.978 219.6 184.799 223.714 187.289L223.652 187.299ZM207.496 249.863C208.231 247.102 206.576 246.621 205.092 245.464L204.404 245.457C200.386 245.205 199.272 243.214 199.698 239.993C196.858 235.454 192.998 232.211 192.695 224.355C197.449 225.576 203.328 232.148 216.586 230.09L217.745 228.551C215.442 228.327 215.692 228.289 214.356 227.268L214.887 224.428C204.449 224.411 202.513 221.53 195.526 218.424C193.126 217.341 193.762 217.325 191.959 215.962C189.369 213.829 187.385 215.619 184.005 207.068L187.065 206.163C187.742 205.876 188.373 205.492 188.939 205.024C189.817 203.845 188.258 188.705 175.506 190.624C174.661 188.741 173.922 186.813 173.294 184.848C172.596 182.542 173.241 180.35 172.943 177.73C171.66 166.975 160.393 152.74 161.742 142.161C163.657 146.395 167.449 152.155 168.431 154.752C169.951 159.013 171.331 164.47 172.645 168.953C173.374 171.461 173.047 175.239 177.556 174.402C184.082 173.166 176.251 159.779 175.711 155.132C175.773 154.694 175.838 154.272 175.886 153.852C175.886 153.852 175.965 153.634 176.032 153.545C177.102 154.605 180.493 165.566 182.234 168.954C186.45 177.22 184.919 171.295 183.78 176.892C182.792 181.69 186.719 180.924 190.637 180.62C191.589 182.381 193.593 184.761 195.093 186.868C198.446 191.52 196.171 188.831 195.555 194.081C193.536 210.616 201.596 204.278 203.878 203.618C204.878 206.545 208.471 211.098 210.544 213.404C212.617 215.71 212.925 214.997 213.247 218.518C213.424 220.649 215.344 221.836 217.464 222.644L217.823 222.59C222.959 217.85 218.879 216.544 217.801 211.185C217.773 210.999 217.823 210.801 217.842 210.608C208.523 201.776 208.949 193.985 199.435 180.994C196.085 176.358 194.108 176.608 195.559 173.93C195.559 173.93 196.327 172.767 196.423 172.658L197.457 171.566C198.846 172.833 202.771 176.51 202.509 178.485C202.173 181.138 201.15 180.07 202.411 183.355C204.579 188.947 207.565 184.468 210.17 187.979C212.45 191.444 214.758 194.888 217.064 198.318C221.256 204.938 235.619 214.898 247.979 216.958C247.909 215.54 247.827 214.14 247.757 212.723C246.394 212.055 246.275 211.899 244.451 211.142C242.627 210.385 242.389 209.866 242.847 208.765L242.233 208.509C235.394 205.539 233.18 203.255 230.121 201.827L232.116 201.066C235.375 199.894 234.282 199.741 236.13 197.686C239.953 198.951 243.789 200.193 247.638 201.412L248.599 201.427L251.558 199.855C251.307 197.544 250.725 197.077 253.522 195.91L253.339 195.652C250.309 196.013 239.664 192.283 237.339 191.062C232.664 188.672 231.248 183.935 227.709 181.976C232.722 183.427 239.802 186.725 244.989 188.801C254.882 192.738 256.496 189.338 262.087 196.224L262.556 196.153C262.861 194.362 263.941 192.613 263.385 191.046C262.672 189.171 261.231 188.197 261.682 186.844L260.34 186.316L257.549 185.499L249.565 183.527C244.48 181.595 239.388 179.616 234.387 177.608C234.928 176.955 241.203 173.092 236.859 170.35C233.664 168.34 229.878 169.941 226.49 170.577C221.222 171.576 221.564 172.254 219.217 168.229C217.861 165.91 215.452 163.496 214.748 161.364C217.582 161.192 221.033 161.291 222.814 159.849C225.537 157.663 224 155.514 221.681 154.34C214.928 150.881 213.841 152.045 205.429 151.153L201.353 146.689C206.114 144.766 207.72 146.524 212.093 142.661C213.855 141.095 218.3 135.587 213.761 133.779C207.499 131.246 207.135 140.186 199.603 140.05C197.069 139.987 194.633 140.052 193.27 138.639L194.655 137.859C196.248 137.191 205.783 133.964 202.584 129.701C200.567 126.911 197.492 130.055 195.706 130.292C192.545 130.359 189.383 130.236 186.237 129.923C184.42 128.467 180.009 116.359 179.227 113.811C177.548 108.394 175.881 102.975 174.224 97.5552C172.145 90.2204 172.118 91.2082 174.446 83.4167C175.902 78.4378 177.358 73.4588 178.424 68.5386C179.517 63.3763 179.632 57.9803 181.386 53.1786C182.192 50.9947 183.788 47.8987 181.125 46.8715C177.726 45.5265 176.734 48.7062 175.981 50.8186C173.95 56.4394 173.956 60.5161 172.774 66.3582C171.658 71.7937 170.089 76.5517 168.659 81.4949C168.64 81.3708 168.446 81.3525 168.429 81.1329C168.412 80.9134 167.629 79.857 167.424 72.9702C167.317 69.8131 167.085 67.1031 166.889 64.1022C166.215 54.0968 167.938 44.7304 161.182 47.4128C159.969 47.8253 158.782 48.3112 157.629 48.8676C156.556 51.5043 158.167 58.9251 157.509 63.2604C156.734 60.4419 157.579 52.1437 155.95 50.453C155.547 50.052 155.037 49.7749 154.479 49.6549C153.921 49.5349 153.34 49.5771 152.806 49.7764C152.271 49.9757 151.805 50.3237 151.463 50.7787C151.122 51.2338 150.92 51.7766 150.88 52.3423C150.608 54.1444 151.034 58.1421 150.952 60.3598C148.804 57.8746 149.18 51.662 148.555 48.567C148.019 45.9662 139.057 39.5084 145.039 63.7564C146.213 67.6365 146.908 71.6452 147.107 75.694C146.936 85.1638 145.656 94.5839 143.292 103.764C141.947 108.314 135.623 120.562 130.232 123.182L127.038 125.535C114.449 116.211 110.242 122.985 114.265 126.885C114.852 127.456 115.507 127.954 116.214 128.369L117.894 129.973C113.766 132.387 115.337 126.153 107.796 126.589C106.84 126.532 105.894 126.81 105.123 127.376C104.352 127.942 103.805 128.758 103.579 129.683C103.093 131.978 104.483 133.038 105.583 134.506L104.343 136.883C99.2291 137.097 97.5704 139.774 100.46 142.941C107.49 145.056 108.98 139.025 112.914 138.195C120.361 136.599 113.074 140.107 120.293 135.403L122.273 134.439C123.344 133.921 124.455 133.494 125.597 133.161C123.142 136.704 117.451 141.368 114.093 143.904C108.029 148.529 100.88 145.416 96.3582 147.969C94.8248 151.373 96.7854 150.808 95.9217 152.715C95.058 154.622 93.6339 155.566 94.8951 157.788C97.5104 162.424 105.8 156.655 108.043 153.826C111.302 149.782 114.537 152.484 120.621 146.507C111.51 160.302 95.5867 160.048 94.1263 161.6C92.9208 164.209 93.9899 163.668 93.5192 165.531C93.0485 167.395 92.1035 166.744 92.2758 169.907C95.8647 174.428 103.031 168.527 105.241 166.005C107.979 162.959 107.754 163.802 111.365 162.1C113.945 160.871 115.516 159.096 118.303 158.185C114.158 168.661 94.5959 176.936 87.9789 176.186C85.0506 172.232 78.493 169.966 74.6392 170.8C72.102 171.356 70.8677 173.668 72.5987 175.613C74.0595 177.249 76.7076 177.961 78.4833 179.566C72.638 184.159 69.5304 182.199 67.5195 181.898C66.9523 178.128 65.0283 175.006 60.7715 178.154C59.2047 181.229 61.0821 181.28 60.1276 183.328L55.3367 183.35C52.8115 184.73 52.2886 185.078 52.8392 187.994C55.1064 189.573 62.8693 189.547 66.6876 189.433C70.8803 189.377 74.998 188.305 78.6831 186.311C82.8533 184.287 97.5398 179.507 102.294 179.03C99.662 181.822 96.9937 184.587 94.3325 187.399L94.2236 187.844C98.5678 188.888 96.208 189.243 101.305 189.555L102.089 188.819C103.418 187.032 113.304 176.152 114.48 175.578C114.412 178.952 113.369 181.79 113.786 185.202C114.204 188.614 112.952 191.024 111.989 194.501C111.487 197.749 110.98 200.999 110.468 204.249C110.524 208.335 111.188 212.39 112.438 216.281C113.713 219.976 115.214 224.114 121.153 224.394L121.407 224.166C117.418 223.465 120.635 220.521 121.487 218.648C121.51 218.509 121.543 218.371 121.585 218.236C117.956 215.355 116.724 202.499 118.931 196.344C124.375 200.665 117.069 214.457 126.277 212.136L127.056 211.686C129.495 209.415 128.61 202.043 128.017 198.848C126.622 191.49 120.422 190.852 123.045 187.046C124.453 184.93 124.269 184.561 124.747 181.681C125.213 179.151 125.581 176.605 126.31 174.116C128.819 174.436 128.651 177.889 133.808 175.098C135.632 171.285 134.248 169.097 132.527 166.58C130.319 163.485 137.593 156.917 140.961 151.793C142.705 149.15 143.988 146.419 145.66 143.724C147.174 146.669 146.334 155.427 144.296 158.558C142.617 161.206 134.656 166.18 140.242 170.591C143.987 171.265 143.007 170.382 145.229 169.746C147.45 169.11 148.338 170.23 150.025 168.485C151.41 167.071 151.787 160.017 152.246 157.647C152.369 157.724 152.507 158.004 152.59 157.913L153.683 159.018C156.267 162.595 155.555 167.637 162.623 167.351C162.424 168.047 152.589 182.553 159.894 183.945C163.067 184.531 163.533 182.636 165.138 181.093L169.256 193.167C170.853 196.766 173.115 200.757 174.844 204.384C178.499 212.005 183.532 218.372 185.846 227.163C183.542 230.223 183.329 227.748 182.221 233.452C180.51 242.15 185.932 241.541 189.547 238.696C192.675 242.493 195.814 246.257 198.994 249.968C202.314 251.007 204.065 253.616 207.496 249.863Z" fill="#942D29"/>
<path fill-rule="evenodd" clip-rule="evenodd" d="M137.637 48.9417C139.233 48.7242 139.77 49.0595 140.363 50.3983C141.922 53.8745 141.232 53.7808 140.953 57.8224C140.777 60.5081 140.859 59.54 141.716 61.1157C144.239 65.7567 135.546 70.6953 129.429 66.745C124.868 63.7977 128.007 50.2162 137.637 48.9417ZM116.632 67.5111C116.918 69.8888 117.626 71.6508 118.667 73.4311C120.621 76.7902 121.729 80.3804 124.868 83.4159L125.944 84.5591C126.931 85.8084 132.268 89.799 133.789 90.9389C143.98 98.6153 153.641 97.287 165.145 91.7534C166.686 91.0049 168.987 89.6036 170.229 88.7552C172.309 87.3139 173.043 86.6042 174.681 85.1108C176.378 83.565 179.539 76.1535 180.194 73.8554C181.669 68.7684 181.555 63.7881 181.404 58.4723C181.155 50.4001 180.603 46.8128 174.457 41.3605C170.616 37.9528 172.419 33.4951 160.112 30.9259C155.085 29.8703 150.143 29.2917 145.156 30.0167C136.418 31.257 134.864 32.2271 127.995 36.8496C126.407 37.929 125.372 39.5669 123.934 40.9602C121.087 43.6929 118.954 47.1042 117.769 51.457C117.106 53.8935 116.386 64.9133 116.687 67.5142L116.632 67.5111Z" fill="#D03435"/>
<path fill-rule="evenodd" clip-rule="evenodd" d="M137.638 48.9417C128.009 50.2162 124.869 63.7977 129.43 66.745C135.548 70.6952 144.24 65.7566 141.718 61.1157C140.86 59.54 140.751 60.5066 140.955 57.8224C141.234 53.7808 141.951 53.876 140.364 50.3983C139.77 49.0872 139.234 48.7242 137.638 48.9417Z" fill="#530700"/>
</g>
<defs>
<clipPath id="clip0_792_1644">
<rect width="492.729" height="418.202" fill="white" transform="translate(57.0547 0.015625) rotate(7.83411)"/>
</clipPath>
</defs>
</svg>
