<svg width="166" height="108" viewBox="0 0 166 108" fill="none" xmlns="http://www.w3.org/2000/svg">
<g clip-path="url(#clip0_792_1718)">
<path fill-rule="evenodd" clip-rule="evenodd" d="M27.6925 34.5513C29.0851 34.2842 29.5811 34.5513 30.1724 35.7149C31.7367 38.7099 31.1072 38.6526 31.0499 42.2389C31.0118 44.6234 31.0499 43.765 31.8893 45.1194C34.3501 49.0872 26.9104 53.8753 21.3021 50.6896C17.1244 48.3051 19.2228 36.1537 27.6925 34.5513ZM10.0281 51.9868C10.4097 54.0852 11.0964 55.5922 12.1074 57.1183C13.996 59.9797 15.1596 63.1272 18.0782 65.6262L19.0893 66.58C20.024 67.6482 24.9265 70.8911 26.3382 71.845C35.7236 78.14 44.1933 76.4804 54.0938 71.0438C55.41 70.3189 57.3939 68.9454 58.4431 68.1442C60.2172 66.7707 60.8276 66.1031 62.2011 64.7105C63.6318 63.2607 66.0545 56.546 66.5314 54.5048C67.5806 49.9266 67.2372 45.5391 66.8366 40.8464C66.2262 33.7119 65.5585 30.5835 59.8548 26.0625C56.2875 23.2392 57.6801 19.2142 46.6541 17.5545C42.1522 16.8678 37.7647 16.6007 33.3772 17.4782C25.7277 18.9852 24.3924 19.939 18.536 24.3456C17.1816 25.3757 16.3614 26.8827 15.1405 28.1799C12.7751 30.7361 11.0392 33.8455 10.1998 37.7561C9.72292 39.9498 9.62754 49.7358 10.0281 52.0059V51.9868Z" fill="#D03435"/>
<path fill-rule="evenodd" clip-rule="evenodd" d="M27.6911 34.5513C19.2404 36.1537 17.1229 48.3242 21.3006 50.6896C26.909 53.8753 34.3486 49.0872 31.8878 45.1194C31.0485 43.765 31.0103 44.6234 31.0485 42.2389C31.1057 38.6526 31.7352 38.7099 30.171 35.7149C29.5796 34.5704 29.0836 34.2842 27.6911 34.5513Z" fill="#530700"/>
<path fill-rule="evenodd" clip-rule="evenodd" d="M95.9652 53.7418C96.3849 54.6193 96.6138 54.5621 97.1479 55.4014C98.941 58.2438 99.2653 62.6122 96.9762 65.9505C96.1369 67.1713 95.412 67.8008 93.161 67.4384C92.3789 66.5418 92.3217 66.1603 91.7875 64.7105L89.155 64.4625C88.8689 63.9093 88.7163 62.7839 88.4492 62.2688C84.8629 63.1844 84.2143 62.1925 83.89 59.7508C80.0176 59.7317 82.0015 55.5922 82.6883 53.6274C83.5276 51.2238 86.6179 50.8613 89.6701 50.7469C87.1139 48.1716 82.4593 47.5802 77.9002 47.6184C70.0981 47.6756 66.9696 52.1776 63.3452 55.1153C60.6745 57.2709 58.5761 60.1323 56.7448 62.9746C55.7529 64.5198 54.8945 65.8932 54.1123 67.591C50.5451 75.2787 50.9457 84.4733 54.5511 91.665C62.1434 106.869 68.5529 107.479 82.6501 107.536C89.9753 107.555 94.4009 107.861 100.715 103.626C103.825 101.546 105.58 99.3908 107.792 96.2242C110.902 91.7794 113.649 85.8086 113.515 79.9714C113.439 76.0798 112.161 71.3871 110.463 68.5639C108.384 65.073 99.7613 54.8673 96.0033 53.7418H95.9652Z" fill="#D03435"/>
<path fill-rule="evenodd" clip-rule="evenodd" d="M95.9639 53.742L95.3534 53.6657C94.6285 52.483 93.3314 51.6628 91.5764 51.3003C91.0613 50.8043 90.5081 50.7471 89.6497 50.728C86.5975 50.8425 83.5072 51.2049 82.6679 53.6085C81.9811 55.5733 80.0163 59.7128 83.8697 59.7319C84.194 62.1737 84.8425 63.1656 88.4288 62.25C88.715 62.7459 88.8676 63.8714 89.1346 64.4437L91.7671 64.6917C92.3013 66.1415 92.3585 66.523 93.1406 67.4196C95.3916 67.8011 96.1165 67.1525 96.9558 65.9316C99.245 62.5933 98.9207 58.2249 97.1275 55.3826C96.5934 54.5432 96.3835 54.6005 95.9448 53.723L95.9639 53.742Z" fill="#530700"/>
<path fill-rule="evenodd" clip-rule="evenodd" d="M112.772 17.2109C113.402 22.8764 111.895 21.4267 108.976 27.3021C106.763 31.7468 104.97 39.6061 106.057 44.5468C106.801 47.8851 108.175 51.5859 110.292 54.1993C113.382 58.0336 116.339 61.9442 120.422 64.672C122.73 66.2172 127.957 68.0294 130.57 68.2583C134.347 68.6017 140.242 68.0294 143.98 67.6098C151.229 66.8276 157.028 62.65 160.157 56.2214C160.958 54.5808 161.95 53.5698 162.77 51.872C167.081 42.9444 167.082 31.1745 163.552 23.1817C161.492 18.5271 158.249 14.6356 153.881 11.984C147.719 8.22604 147.185 7.44392 137.857 7.50115C133.927 7.52023 129.96 8.79832 126.717 9.86658C125.858 8.95093 125.057 8.39772 124.218 7.69191C123.073 6.75718 122.94 5.76523 120.898 6.01322L121.032 6.56642C122.177 6.71903 124.084 8.79832 123.741 10.6868C123.359 12.8424 122.119 13.9107 121.089 15.1316C119.601 16.9247 119.029 16.6767 116.759 17.7831C115.786 18.26 115.881 18.9659 114.603 18.6988C113.535 18.4889 113.459 17.8594 112.829 17.1918L112.772 17.2109Z" fill="#D03435"/>
<path fill-rule="evenodd" clip-rule="evenodd" d="M112.828 16.696L112.771 17.2111C113.4 17.8978 113.495 18.5082 114.545 18.7181C115.823 18.9661 115.727 18.2793 116.7 17.8024C118.97 16.696 119.543 16.9631 121.031 15.1509C122.042 13.93 123.281 12.8427 123.682 10.7061C124.025 8.79854 122.118 6.73833 120.973 6.58572L120.84 6.03252C119.752 5.3267 119.524 4.20122 118.093 3.74339C116.242 3.15203 115.27 3.55263 114.182 4.54459C114.125 5.82268 114.239 6.24235 115.098 6.73833C116.471 7.53952 116.319 6.70018 117.082 7.97827C116.567 8.28349 117.139 8.11181 116.414 8.16903L113.591 8.01643C112.103 8.07365 111.473 8.53148 111.321 9.94311C111.149 11.6409 111.588 15.3225 112.847 16.6769L112.828 16.696Z" fill="#530700"/>
</g>
<defs>
<clipPath id="clip0_792_1718">
<rect width="166" height="108" fill="white"/>
</clipPath>
</defs>
</svg>
