<svg width="96" height="95" viewBox="0 0 96 95" fill="none" xmlns="http://www.w3.org/2000/svg">
<path fill-rule="evenodd" clip-rule="evenodd" d="M25.0028 10.1251C26.0457 10.0432 27.082 9.89285 28.1052 9.67512C30.9505 9.4458 33.8002 10.0604 36.2981 11.442C38.7959 12.8236 40.831 14.9109 42.1489 17.443C43.1673 19.4797 43.4752 20.9243 41.3201 23.8136C39.7635 24.1885 38.1401 24.1885 36.5836 23.8136L34.2153 27.2949C33.2443 27.2949 31.6102 26.7028 30.7577 26.7502C29.313 32.3866 27.5368 32.5998 24.0081 31.321C21.1189 36.6969 16.9034 31.0368 14.8904 28.6685C12.2853 25.7793 14.0615 21.2085 16.1692 16.8273C10.8407 18.5561 6.69623 24.6662 3.26227 31.0368C-2.42153 42.0018 1.34398 49.5565 2.64652 56.7086C3.78303 61.9005 5.73329 66.88 8.42506 71.4628C9.6894 73.8709 11.1301 76.1824 12.7353 78.3781C16.6084 83.414 21.5815 87.4979 27.2746 90.3178C32.9676 93.1376 39.2299 94.6187 45.5829 94.6479C71.6337 94.6479 76.9859 86.3117 87.3115 66.8921C92.7111 56.8033 96.3345 50.93 95.3162 39.2072C94.7651 33.9193 93.1542 28.7967 90.5796 24.1452C86.9325 16.6615 81.1067 8.58571 73.0783 4.55968C67.6367 1.85695 61.6284 0.492911 55.5532 0.581039C49.3721 0.983642 29.2893 5.67277 25.0028 10.1251Z" fill="#B72223"/>
<path fill-rule="evenodd" clip-rule="evenodd" d="M25.0044 10.1256L24.4596 10.9308C23.2682 11.0903 22.122 11.4919 21.0915 12.111C20.0611 12.7301 19.1683 13.5535 18.468 14.5306C17.4259 14.9095 16.9286 15.6437 16.2655 16.8988C14.1578 21.2327 12.3816 25.8035 14.9866 28.7401C17.1181 31.1083 21.2151 36.7684 24.1044 31.3925C27.6331 32.6714 29.4093 32.4582 30.8539 26.8217C31.7065 26.8217 33.3406 27.3665 34.3116 27.3665L36.6798 23.8851C38.2364 24.2601 39.8598 24.2601 41.4163 23.8851C43.5714 20.9959 43.2636 19.5512 42.2452 17.5145C40.9305 14.9904 38.9029 12.9083 36.4144 11.5272C33.9259 10.1461 31.0864 9.52695 28.2488 9.74667C27.1812 9.97197 26.0952 10.0988 25.0044 10.1256Z" fill="#520000"/>
</svg>
