<svg width="158" height="105" viewBox="0 0 158 105" fill="none" xmlns="http://www.w3.org/2000/svg">
<g clip-path="url(#clip0_792_1718)">
<path fill-rule="evenodd" clip-rule="evenodd" d="M18.6925 31.5513C20.0851 31.2842 20.5811 31.5513 21.1724 32.7149C22.7367 35.7099 22.1072 35.6526 22.0499 39.2389C22.0118 41.6234 22.0499 40.765 22.8893 42.1194C25.3501 46.0872 17.9104 50.8753 12.3021 47.6896C8.12442 45.3051 10.2228 33.1537 18.6925 31.5513ZM1.02813 48.9868C1.40965 51.0852 2.09639 52.5922 3.10742 54.1183C4.99595 56.9797 6.15959 60.1272 9.07822 62.6262L10.0893 63.58C11.024 64.6482 15.9265 67.8911 17.3382 68.845C26.7236 75.14 35.1933 73.4804 45.0938 68.0438C46.41 67.3189 48.3939 65.9454 49.4431 65.1442C51.2172 63.7707 51.8276 63.1031 53.2011 61.7105C54.6318 60.2607 57.0545 53.546 57.5314 51.5048C58.5806 46.9266 58.2372 42.5391 57.8366 37.8464C57.2262 30.7119 56.5585 27.5835 50.8548 23.0625C47.2875 20.2392 48.6801 16.2142 37.6541 14.5545C33.1522 13.8678 28.7647 13.6007 24.3772 14.4782C16.7277 15.9852 15.3924 16.939 9.53605 21.3456C8.18165 22.3757 7.36138 23.8827 6.14051 25.1799C3.77508 27.7361 2.03916 30.8455 1.19982 34.7561C0.722917 36.9498 0.627537 46.7358 1.02813 49.0059V48.9868Z" fill="#D03435"/>
<path fill-rule="evenodd" clip-rule="evenodd" d="M18.6911 31.5513C10.2404 33.1537 8.12294 45.3242 12.3006 47.6896C17.909 50.8753 25.3486 46.0872 22.8878 42.1194C22.0485 40.765 22.0103 41.6234 22.0485 39.2389C22.1057 35.6526 22.7352 35.7099 21.171 32.7149C20.5796 31.5704 20.0836 31.2842 18.6911 31.5513Z" fill="#530700"/>
<path fill-rule="evenodd" clip-rule="evenodd" d="M86.9652 50.7418C87.3849 51.6193 87.6138 51.5621 88.1479 52.4014C89.941 55.2438 90.2653 59.6122 87.9762 62.9505C87.1369 64.1713 86.412 64.8008 84.161 64.4384C83.3789 63.5418 83.3217 63.1603 82.7875 61.7105L80.155 61.4625C79.8689 60.9093 79.7163 59.7839 79.4492 59.2688C75.8629 60.1844 75.2143 59.1925 74.89 56.7508C71.0176 56.7317 73.0015 52.5922 73.6883 50.6274C74.5276 48.2238 77.6179 47.8613 80.6701 47.7469C78.1139 45.1716 73.4593 44.5802 68.9002 44.6184C61.0981 44.6756 57.9696 49.1776 54.3452 52.1153C51.6745 54.2709 49.5761 57.1323 47.7448 59.9746C46.7529 61.5198 45.8945 62.8932 45.1123 64.591C41.5451 72.2787 41.9457 81.4733 45.5511 88.665C53.1434 103.869 59.5529 104.479 73.6501 104.536C80.9753 104.555 85.4009 104.861 91.7151 100.626C94.8245 98.5464 96.5795 96.3908 98.7923 93.2242C101.902 88.7794 104.649 82.8086 104.515 76.9714C104.439 73.0798 103.161 68.3871 101.463 65.5639C99.3837 62.073 90.7613 51.8673 87.0033 50.7418H86.9652Z" fill="#D03435"/>
<path fill-rule="evenodd" clip-rule="evenodd" d="M86.9639 50.742L86.3534 50.6657C85.6285 49.483 84.3314 48.6628 82.5764 48.3003C82.0613 47.8043 81.5081 47.7471 80.6497 47.728C77.5975 47.8425 74.5072 48.2049 73.6679 50.6085C72.9811 52.5733 71.0163 56.7128 74.8697 56.7319C75.194 59.1737 75.8425 60.1656 79.4288 59.25C79.715 59.7459 79.8676 60.8714 80.1346 61.4437L82.7671 61.6917C83.3013 63.1415 83.3585 63.523 84.1406 64.4196C86.3916 64.8011 87.1165 64.1525 87.9558 62.9316C90.245 59.5933 89.9207 55.2249 88.1275 52.3826C87.5934 51.5432 87.3835 51.6005 86.9448 50.723L86.9639 50.742Z" fill="#530700"/>
<path fill-rule="evenodd" clip-rule="evenodd" d="M103.772 14.2109C104.402 19.8764 102.895 18.4267 99.9759 24.3021C97.7631 28.7468 95.9699 36.6061 97.0573 41.5468C97.8012 44.8851 99.1747 48.5859 101.292 51.1993C104.382 55.0336 107.339 58.9442 111.422 61.672C113.73 63.2172 118.957 65.0294 121.57 65.2583C125.347 65.6017 131.242 65.0294 134.98 64.6098C142.229 63.8276 148.028 59.65 151.157 53.2214C151.958 51.5808 152.95 50.5698 153.77 48.872C158.081 39.9444 158.082 28.1745 154.552 20.1817C152.492 15.5271 149.249 11.6356 144.881 8.98402C138.719 5.22604 138.185 4.44392 128.857 4.50115C124.927 4.52023 120.96 5.79832 117.717 6.86658C116.858 5.95093 116.057 5.39772 115.218 4.69191C114.073 3.75718 113.94 2.76523 111.898 3.01322L112.032 3.56642C113.177 3.71903 115.084 5.79832 114.741 7.68685C114.359 9.84244 113.119 10.9107 112.089 12.1316C110.601 13.9247 110.029 13.6767 107.759 14.7831C106.786 15.26 106.881 15.9659 105.603 15.6988C104.535 15.4889 104.459 14.8594 103.829 14.1918L103.772 14.2109Z" fill="#D03435"/>
<path fill-rule="evenodd" clip-rule="evenodd" d="M103.828 13.696L103.771 14.2111C104.4 14.8978 104.495 15.5082 105.545 15.7181C106.823 15.9661 106.727 15.2793 107.7 14.8024C109.97 13.696 110.543 13.9631 112.031 12.1509C113.042 10.93 114.281 9.84266 114.682 7.70615C115.025 5.79854 113.118 3.73833 111.973 3.58572L111.84 3.03252C110.752 2.3267 110.524 1.20122 109.093 0.743392C107.242 0.152035 106.27 0.552632 105.182 1.54459C105.125 2.82268 105.239 3.24235 106.098 3.73833C107.471 4.53952 107.319 3.70018 108.082 4.97827C107.567 5.28349 108.139 5.11181 107.414 5.16903L104.591 5.01643C103.103 5.07365 102.473 5.53148 102.321 6.94311C102.149 8.64087 102.588 12.3225 103.847 13.6769L103.828 13.696Z" fill="#530700"/>
</g>
<defs>
<clipPath id="clip0_792_1718">
<rect width="156.309" height="104.06" fill="white" transform="translate(0.78125 0.476562)"/>
</clipPath>
</defs>
</svg>
