<svg width="99" height="90" viewBox="0 0 99 90" fill="none" xmlns="http://www.w3.org/2000/svg">
<path d="M73.4693 11.9025C74.0414 11.9849 74.5699 12.2552 74.9716 12.671C83.2063 21.8468 90.7168 31.827 94.7105 43.6901C98.68 55.7838 99.5125 68.6876 97.1299 81.1911C96.2227 83.9463 96.5462 88.8912 93.0377 89.5515C91.1327 89.7877 89.692 88.2485 88.2421 87.2615C83.5256 83.9804 79.2347 80.1263 75.4678 75.7878C67.656 66.7952 63.3728 55.2734 63.4135 43.3617C63.6189 39.1497 64.2674 34.9711 65.3484 30.895C61.7559 35.0126 57.4202 38.4168 52.5678 40.9299C50.8635 41.7744 49.1001 42.4943 47.2917 43.084L46.7322 43.2655C38.7026 46.2119 29.856 46.0131 21.9668 42.7092C16.7368 41.0026 11.7822 38.5458 7.25812 35.4155C5.26253 33.7817 2.54165 32.282 1.46117 29.851C-0.590762 27.4566 3.64606 21.865 5.24233 19.9297C12.0559 11.7923 20.9377 5.64282 30.9524 2.12897C39.8596 -0.971741 49.4587 0.460188 58.1536 3.25407C63.4767 5.22759 68.4554 8.02792 72.9064 11.5519C73.102 11.6555 73.2901 11.7726 73.4693 11.9025Z" fill="#194128"/>
</svg>
