<svg width="39" height="59" viewBox="0 0 39 59" fill="none" xmlns="http://www.w3.org/2000/svg">
<path fill-rule="evenodd" clip-rule="evenodd" d="M26.9787 49.1737C26.9584 49.321 26.3335 48.4097 26.2507 48.6484C25.5464 50.6772 26.2709 48.5011 24.8251 50.1028C16.707 49.486 10.2507 40.2447 12.0413 36.8648C14.1075 38.0244 13.2309 38.579 14.2404 40.6936C15.6082 43.6578 20.0856 49.6508 24.824 49.2023C26.909 45.8629 24.9105 44.9377 19.1179 38.6887C18.2899 37.7995 12.8454 29.7478 14.5966 27.5629C17.3969 29.7488 18.0325 34.763 20.1931 37.2361C24.6236 42.2973 25.6086 44.4085 30.2549 44.4476C35.6204 33.8067 27.8457 35.2379 24.9178 28.7079L21.4235 19.0238C21.4138 18.8739 21.4345 18.7236 21.4843 18.582C23.9782 20.4506 24.9302 27.7092 27.8895 29.4669C30.8488 31.2245 31.6374 30.5827 32.5396 28.206C35.7756 19.773 27.798 16.4996 28.3502 10.1232C30.5738 11.2295 29.2092 10.2414 30.5007 12.6699C31.7435 9.93856 32.3499 6.96063 32.2742 3.96073C27.1727 1.95836 24.5153 4.36872 22.4072 7.32985C17.05 14.8207 13.2736 6.82343 7.9332 21.6443C6.20238 26.4079 -0.229121 35.5266 4.37373 44.788C6.1158 47.9885 8.5518 50.7587 11.5033 52.8957C14.4547 55.0328 17.8469 56.4824 21.4312 57.1386C27.8229 57.943 26.5298 53.1634 26.9787 49.1737Z" fill="#F6D3B5"/>
<path fill-rule="evenodd" clip-rule="evenodd" d="M27.649 46.1147C31.5777 46.2801 32.828 44.8266 33.7712 40.8799C34.3607 39.4398 34.3912 37.8315 33.8567 36.3701C33.3222 34.9087 32.2613 33.6996 30.8818 32.9796C31.6971 31.4162 31.1355 32.5894 31.9088 31.6954C39.3223 23.4371 31.8733 16.6851 30.72 12.525C29.3617 10.0373 30.7196 11.0744 28.5695 9.97829C28.0275 16.281 36.0051 19.5544 32.759 28.061C31.8567 30.4378 30.8531 30.8249 28.1089 29.3219C25.3646 27.8189 24.1806 20.4284 21.7037 18.437C21.6538 18.5787 21.6332 18.729 21.6429 18.8788L24.9451 28.6865C27.9433 35.2513 35.7179 33.8201 30.2822 44.4263C25.6359 44.3872 24.6509 42.276 20.2204 37.2148C18.0598 34.7417 17.326 29.714 14.5257 27.528C12.6662 29.7731 18.1209 37.7512 19.0471 38.6539C24.8397 44.9029 26.8381 45.8281 24.7531 49.1675C20.0147 49.616 15.5128 43.6196 14.1696 40.6588C13.16 38.5442 14.0366 37.9895 11.9704 36.8299C10.3821 40.0126 16.036 49.2686 23.3014 50.9935C26.7674 51.7955 27.1217 48.493 27.649 46.1147Z" fill="#6B402D"/>
</svg>
