<svg width="314" height="314" viewBox="0 0 314 314" fill="none" xmlns="http://www.w3.org/2000/svg">
<path fill-rule="evenodd" clip-rule="evenodd" d="M210.386 99.5763C195.383 100.142 199.48 96.462 184.607 87.6675C173.356 81.0016 153.055 74.7827 139.867 76.6906C130.955 78.0042 120.97 80.9017 113.699 85.9623C103.033 93.3442 92.1934 100.361 84.2441 110.561C79.7421 116.327 73.9784 129.71 72.8755 136.531C71.2485 146.387 71.6204 161.981 72.0052 171.883C72.6683 191.075 82.5293 207.11 98.816 216.562C102.972 218.982 105.437 221.781 109.739 224.262C132.363 237.3 163.281 239.56 184.955 231.823C197.577 227.305 208.422 219.533 216.226 208.567C227.28 193.103 229.437 191.85 231.077 167.335C231.782 157.008 229.186 146.34 227.002 137.616C229.572 135.537 231.179 133.539 233.194 131.469C235.869 128.642 238.501 128.482 238.241 123.073L236.762 123.317C236.142 126.294 230.314 130.906 225.419 129.642C219.829 128.226 217.261 124.764 214.252 121.823C209.827 117.571 210.588 116.115 208.118 109.939C207.052 107.292 205.179 107.407 206.126 104.101C206.882 101.335 208.551 101.256 210.425 99.7303L210.386 99.5763Z" fill="#D03435"/>
<path fill-rule="evenodd" clip-rule="evenodd" d="M211.727 99.8252L210.385 99.576C208.46 101.098 206.839 101.231 206.086 103.947C205.189 107.257 207.012 107.138 208.078 109.785C210.548 115.961 209.737 117.413 214.212 121.669C217.225 124.559 219.843 128.025 225.378 129.488C230.324 130.756 236.102 126.14 236.722 123.163L238.201 122.918C240.264 120.197 243.264 119.812 244.741 116.142C246.65 111.395 245.784 108.762 243.387 105.715C240.041 105.32 238.917 105.54 237.449 107.7C235.081 111.154 237.315 110.914 233.811 112.673C233.108 111.262 233.449 112.798 233.438 110.883L234.381 103.496C234.516 99.576 233.434 97.8345 229.756 97.1627C225.329 96.3858 215.573 96.8317 211.774 99.879L211.727 99.8252Z" fill="#530700"/>
</svg>
