<svg width="183" height="172" viewBox="0 0 183 172" fill="none" xmlns="http://www.w3.org/2000/svg">
<path fill-rule="evenodd" clip-rule="evenodd" d="M145.386 28.5763C130.383 29.1425 134.48 25.462 119.607 16.6675C108.356 10.0016 88.0546 3.78268 74.8673 5.69063C65.9553 7.00416 55.9703 9.90174 48.6988 14.9623C38.0335 22.3442 27.1934 29.3607 19.2441 39.5607C14.7421 45.3274 8.97841 58.7097 7.87545 65.5309C6.24851 75.3868 6.62041 90.9806 7.00518 100.883C7.66831 120.075 17.5293 136.11 33.816 145.562C37.9717 147.982 40.4371 150.781 44.7394 153.262C67.3635 166.3 98.2814 168.56 119.955 160.823C132.577 156.305 143.422 148.533 151.226 137.567C162.28 122.103 164.437 120.85 166.077 96.3348C166.782 86.0085 164.186 75.3402 162.002 66.6165C164.572 64.5373 166.179 62.5388 168.194 60.4695C170.869 57.6423 173.501 57.4819 173.241 52.0725L171.762 52.3171C171.142 55.2944 165.314 59.9063 160.419 58.6419C154.829 57.2259 152.261 53.7637 149.252 50.8234C144.827 46.5706 145.588 45.1149 143.118 38.9395C142.052 36.2923 140.179 36.4074 141.126 33.1013C141.882 30.3354 143.551 30.2558 145.425 28.7303L145.386 28.5763Z" fill="#D03435"/>
<path fill-rule="evenodd" clip-rule="evenodd" d="M146.727 28.8252L145.385 28.576C143.46 30.0978 141.839 30.2312 141.086 32.947C140.189 36.2568 142.012 36.138 143.078 38.7852C145.548 44.9607 144.737 46.4127 149.212 50.6691C152.225 53.5593 154.843 57.0252 160.378 58.4876C165.324 59.7557 171.102 55.1401 171.722 52.1628L173.201 51.9182C175.264 49.1974 178.264 48.8121 179.741 45.1418C181.65 40.3946 180.784 37.7621 178.387 34.7154C175.041 34.3197 173.917 34.5399 172.449 36.6996C170.081 40.1538 172.315 39.914 168.811 41.6731C168.108 40.2615 168.449 41.7978 168.438 39.8826L169.381 32.4956C169.516 28.576 168.434 26.8345 164.756 26.1627C160.329 25.3858 150.573 25.8317 146.774 28.879L146.727 28.8252Z" fill="#530700"/>
</svg>
