<svg width="50" height="62" viewBox="0 0 50 62" fill="none" xmlns="http://www.w3.org/2000/svg">
<path fill-rule="evenodd" clip-rule="evenodd" d="M11.7816 7.87382L13.2524 7.72607C13.4056 10.248 6.29663 23.1999 7.26322 28.5348C11.4413 32.886 15.8963 30.4979 17.546 23.5973C18.3249 21.7538 18.9887 20.0195 19.638 18.2081C21.6892 12.3882 21.3488 14.317 22.7679 13.637C21.8224 17.9943 20.3093 22.2088 18.2671 26.1724C14.9874 32.9238 15.2265 31.7312 8.52386 32.4596C-0.731366 50.4681 8.97519 53.3542 17.5392 38.5518C20.8278 32.827 24.058 24.6184 27.1251 24.8653C24.8949 29.6841 22.3401 34.3459 19.4782 38.8186C16.4382 43.8273 14.6666 48.1602 9.19732 49.5584C8.43748 55.0809 9.4648 57.248 15.5997 54.4658C18.5719 52.8854 21.1692 50.6839 23.2152 48.0109L32.311 36.4327C33.8498 34.5187 34.4003 33.244 35.8405 32.5918C36.2945 33.6546 36.3814 32.8413 35.9165 34.4029C35.5315 35.0772 35.1078 35.7287 34.6476 36.3541C28.1601 44.7898 23.7913 52.3667 15.3396 56.3557L14.375 56.8232L13.8927 57.0569C19.9306 57.8877 23.8496 59.5773 27.9998 56.497C35.8315 51.1973 49.8618 38.4724 44.1175 27.3283C42.0403 24.1107 40.3578 20.6549 39.1063 17.0354C37.6896 12.0637 36.7328 10.6566 31.6762 8.51036C27.1469 6.71175 26.3504 3.77614 20.8964 2.70061C14.5977 1.58388 11.7206 2.86363 11.7816 7.87382Z" fill="#F6D3B5"/>
<path fill-rule="evenodd" clip-rule="evenodd" d="M11.7821 7.87381C-1.46427 38.713 11.044 25.0535 5.22879 34.7822C4.14172 36.5308 3.4222 38.4826 3.11407 40.5184C1.80799 47.4662 2.97755 47.3271 7.22784 50.0626C7.2694 55.3953 7.36832 57.5847 13.9991 57.1965L14.4814 56.9628L15.4461 56.4953C23.9011 52.4817 28.2664 44.9294 34.754 36.4937C35.2142 35.8683 35.6379 35.2168 36.0229 34.5425C36.4878 32.9809 36.4009 33.7942 35.9469 32.7314C34.5067 33.3836 33.9562 34.6583 32.4174 36.5723L23.3216 48.1505C21.2756 50.8235 18.6783 53.025 15.7061 54.6054C9.57121 57.3876 8.61753 55.2306 9.30373 49.698C14.7764 48.2752 16.5446 43.9669 19.5846 38.9582C22.4465 34.4855 25.0013 29.8237 27.2315 25.0049C24.1643 24.758 20.9587 32.97 17.6456 38.6914C9.08156 53.4938 -0.624957 50.6078 8.63027 32.5992C15.3329 31.8708 15.0937 33.0634 18.3735 26.312C20.4157 22.3484 21.9288 18.1339 22.8743 13.7766C21.3748 14.4956 21.7152 12.5667 19.7444 18.3477C19.095 20.1591 18.4313 21.8934 17.6524 23.7369C15.0901 29.6366 11.3634 31.2747 7.36963 28.6744C6.40304 23.3396 13.5154 10.3631 13.3588 7.86567L11.7821 7.87381Z" fill="#6B402D"/>
</svg>
