<svg width="107" height="109" viewBox="0 0 107 109" fill="none" xmlns="http://www.w3.org/2000/svg">
<path fill-rule="evenodd" clip-rule="evenodd" d="M16.681 48.7112C20.9138 54.4649 18.3701 53.8358 18.884 62.0403C19.2674 68.2499 22.2456 77.902 26.521 82.5823C29.4198 85.7388 33.2289 88.8942 37.164 90.4036C42.9198 92.6283 48.5785 95.0194 54.7175 95.422C58.1903 95.6526 64.9977 94.3445 67.9772 92.9555C72.291 90.9617 78.329 86.6477 82.1234 83.8497C89.4997 78.4594 93.1753 70.2927 92.5425 61.3565C92.3841 59.0743 92.8271 57.3557 92.6536 54.9994C91.7386 42.6104 84.3645 29.838 75.5271 23.3755C70.3753 19.6153 64.418 17.4241 58.0163 17.2836C48.9755 17.0659 47.9059 16.5518 37.8191 22.4583C33.5667 24.941 30.0617 28.8138 27.2119 32.0049C25.7067 31.549 24.4907 31.4507 23.1376 31.2106C21.31 30.9134 20.5436 29.9206 18.484 31.4685L18.9755 31.9852C20.3131 31.4337 23.6859 32.4949 24.4965 34.7594C25.433 37.3376 24.7567 39.2737 24.4038 41.244C23.9126 44.122 23.1362 44.2115 21.366 46.8344C20.6091 47.9614 21.1548 48.6676 19.6005 49.1785C18.3098 49.6201 17.8326 48.9848 16.7312 48.6547L16.681 48.7112Z" fill="#D03435"/>
<path fill-rule="evenodd" clip-rule="evenodd" d="M16.4231 48.1164L16.6837 48.7112C17.7971 49.062 18.283 49.6647 19.553 49.2351C21.0953 48.7034 20.5616 48.018 21.3185 46.8909C23.0887 44.268 23.877 44.1993 24.3563 41.3005C24.6885 39.3422 25.3529 37.3854 24.449 34.816C23.6264 32.5308 20.2656 31.4903 18.928 32.0417L18.4365 31.5251C16.8143 31.4404 15.8608 30.3625 14.0214 30.762C11.6429 31.2796 10.8381 32.3238 10.2797 34.0815C11.0183 35.5043 11.4055 35.888 12.6477 35.8884C14.6402 35.8973 13.9487 35.0821 15.5775 35.991C15.2098 36.6449 15.7232 36.1001 14.9725 36.6163L11.8131 38.2196C10.2343 39.2139 9.83806 40.1051 10.5569 41.7326C11.4343 43.6825 14.217 47.4028 16.4318 48.0838L16.4231 48.1164Z" fill="#530700"/>
</svg>
