<svg width="665" height="284" viewBox="0 0 665 284" fill="none" xmlns="http://www.w3.org/2000/svg">
<path fill-rule="evenodd" clip-rule="evenodd" d="M21.313 212.622C18.5786 212.842 15.8537 213.063 13.1677 213.187L13.1957 213.123C13.498 213.048 12.1402 211.243 10.7683 209.419C9.36658 207.555 7.95007 205.671 8.27449 205.593C9.47163 201.215 7.80008 198.292 6.05048 195.232C4.78561 193.019 3.47994 190.736 3.18798 187.78C2.61801 182.011 4.07721 178.923 5.88736 175.092C6.65457 173.468 7.48483 171.711 8.25035 169.56C9.51297 166.012 9.19027 162.223 8.86728 158.43C8.79834 157.621 8.72939 156.811 8.67584 156.004C8.63676 155.509 8.5617 154.978 8.48432 154.43C8.26778 152.897 8.03304 151.235 8.51754 149.892C8.90313 148.801 9.65298 148.312 10.4326 147.804C11.09 147.375 11.7686 146.932 12.2677 146.103C15.2896 141.15 17.3472 135.776 19.4157 130.373C20.4546 127.659 21.4964 124.938 22.6644 122.26C27.1907 111.838 23.5304 109.022 15.6675 102.972C14.9888 102.449 14.2788 101.903 13.54 101.326C12.4314 100.472 10.9387 99.5951 9.36683 98.6717C6.21365 96.8193 2.74199 94.7799 1.41386 92.3663C-0.438169 88.9686 0.106588 80.8796 0.364223 77.0541L0.366243 77.0241C0.490798 75.1803 0.934053 73.4985 1.37701 71.8177C1.78311 70.2769 2.18896 68.737 2.34876 67.0741C2.72602 63.1176 2.30947 58.8362 1.90218 54.6499C1.70232 52.5957 1.5047 50.5645 1.40418 48.6058C1.1045 42.7786 1.42204 37.6029 2.46312 32.7029C2.93343 30.4969 2.82032 28.4492 2.69719 26.2202C2.67398 25.8 2.65042 25.3734 2.63034 24.9381C2.64261 25.2042 3.1349 25.5198 3.61972 25.8307C4.09007 26.1322 4.5534 26.4293 4.5646 26.6722C7.13946 26.5429 9.75039 26.3322 12.3714 26.1208C17.4084 25.7144 22.4826 25.305 27.4092 25.464C30.8479 25.5747 34.1319 26.021 37.4093 26.4665C41.6542 27.0434 45.8881 27.6189 50.4326 27.4616C57.278 27.2231 64.142 26.863 71.0075 26.5029C75.1276 26.2868 79.2483 26.0706 83.3658 25.8807L83.8148 25.859C97.2007 25.2113 110.523 24.5667 123.39 21.2531C126.346 20.4887 129.267 19.5458 132.202 18.5985C138.366 16.6093 144.589 14.6008 151.311 14.1861C162.645 13.4969 173.913 11.5652 185.186 9.63264C194.849 7.97614 204.515 6.31895 214.231 5.44289C220.64 4.87264 227.117 4.71019 233.588 4.54788C237.311 4.45451 241.033 4.36117 244.738 4.19026C250.168 3.93981 255.599 3.63058 261.032 3.32129C270.347 2.79092 279.666 2.26035 288.986 2.02566C302.908 1.66168 316.626 3.59401 329.755 8.18037C336.95 10.7226 343.011 12.8227 350.586 13.555C367.66 15.2089 383.407 14.9152 400.646 14.12C404.716 13.9324 408.968 13.9093 413.286 13.8859C423.563 13.8303 434.211 13.7726 443.637 11.4881C449.243 10.1202 454.454 9.64446 459.808 9.15562C462.509 8.90901 465.246 8.65907 468.09 8.28958C470.999 7.91278 473.807 7.124 476.617 6.33463C479.535 5.51518 482.455 4.69509 485.492 4.33462C493.915 3.35892 503.056 3.21542 511.555 3.22514C516.052 3.22421 516.996 3.74488 519.109 4.91074C519.843 5.31526 520.717 5.79745 521.929 6.36247C529.806 10.0459 538.079 11.0686 546.44 12.1023C549.444 12.4737 552.461 12.8466 555.474 13.3449C564.94 14.8861 572.222 15.9719 581.566 12.2032C595.191 6.70234 607.865 3.08725 621.696 1.41662C622.199 2.26065 625.047 2.35804 627.661 2.44748C630.35 2.53947 632.794 2.62305 632.189 3.50181C629.956 6.69524 629.391 8.51378 628.498 12.6035C627.767 15.9869 626.781 18.9306 625.794 21.8766C625.542 22.627 625.291 23.3777 625.043 24.1357C623.989 27.3985 623.39 31.1655 623.21 34.6352C623.086 36.9154 622.679 38.8794 622.273 40.8352C621.913 42.5733 621.554 44.3049 621.397 46.2462C621.188 48.9123 621.945 50.324 622.731 51.7885C623.189 52.6411 623.656 53.5117 623.948 54.6582C624.63 57.3099 624.623 60.1743 624.615 63.0162C624.611 64.7241 624.606 66.424 624.752 68.0647C624.926 70.083 625.615 71.831 626.295 73.5559C626.911 75.1193 627.519 76.6636 627.73 78.373C627.813 79.0116 627.816 79.6044 627.751 80.1591C636.906 79.5804 645.897 79.4186 654.495 80.2391H654.522C655.253 85.5512 656.783 92.5611 658.444 100.167C662.047 116.667 666.262 135.97 664.248 146.824C661.974 159.111 648.995 176.284 640.849 187.047L641.179 187.031C641.069 187.037 640.959 187.042 640.849 187.047C640.829 187.073 640.81 187.099 640.79 187.125L640.787 187.129C640.267 187.816 639.768 188.476 639.292 189.107C645.847 192.617 649.326 197.568 652.822 202.545C655.865 206.876 658.921 211.226 664.03 214.661C662.977 215.528 661.933 216.978 660.798 218.553C659.114 220.891 657.23 223.506 654.822 224.905C657.514 231.37 656.432 243.852 655.443 255.271C655.011 260.261 654.596 265.047 654.522 269.041C639.568 267.598 623.415 269.145 607.281 270.691L607.28 270.691C595.695 271.801 584.121 272.909 573.007 272.909C541.031 272.909 514.758 272.382 489.016 271.866C458.326 271.25 428.39 270.649 390.445 270.975C371.807 271.135 348.128 272.452 323.935 273.799L323.924 273.799C314.501 274.324 305 274.852 295.689 275.319C292.551 276.052 289.443 276.949 286.37 278.017L286.127 278.102C280.106 280.193 275.018 281.961 268.628 282.565C254.089 283.951 240.682 283.68 226.005 282.98C222.536 282.814 218.908 282.791 215.224 282.768H215.223H215.222C206.471 282.713 197.404 282.656 189.407 280.682C184.726 279.528 180.347 279.122 175.857 278.706L175.857 278.706L175.856 278.706C173.486 278.486 171.085 278.263 168.592 277.926C166.115 277.601 163.725 276.926 161.334 276.25C159.386 275.7 157.436 275.149 155.438 274.787C141.514 275.452 127.799 277.147 114.6 280.674C114.97 280.033 115.323 279.389 115.662 278.743C111.148 279.937 106.53 280.5 101.879 281.068H101.879C99.3201 281.38 96.7517 281.694 94.1855 282.114C86.1227 283.44 79.9228 284.328 71.9716 281.107C57.4369 275.23 44.126 271.832 28.557 271.09L37.8774 271.534C36.4565 269.899 35.0731 269.082 33.8791 268.378C31.8661 267.19 30.3914 266.319 30.1829 262.378C30.0794 260.307 30.336 258.173 30.5921 256.043C30.8024 254.294 31.0124 252.548 31.0227 250.84C31.0292 248.654 30.6432 246.501 30.2578 244.351C29.8127 241.869 29.3686 239.391 29.5309 236.875C29.6887 234.287 30.4336 231.391 31.1524 228.596C31.5342 227.112 31.9085 225.657 32.1835 224.291C32.3638 223.407 32.8318 222.433 33.3117 221.435L33.3118 221.434C34.2036 219.579 35.1364 217.638 34.3408 216.026C33.6604 214.626 32.4752 213.834 31.371 213.097C30.851 212.75 30.349 212.415 29.9261 212.033C27.0672 212.157 24.1848 212.389 21.313 212.622ZM621.696 1.41662C625.235 0.98913 628.85 0.688958 632.576 0.51709L621.628 1.02207C621.602 1.16914 621.626 1.3 621.696 1.41662Z" fill="white"/>
<path d="M65.828 249.992C65.3789 249.911 64.9525 249.736 64.578 249.477C63.7159 250.062 62.6654 250.308 61.6318 250.165C60.5982 250.022 59.6559 249.501 58.9891 248.705C58.3454 247.788 57.9656 246.715 57.8904 245.599C57.2529 244.017 56.8795 242.343 56.785 240.641C56.807 234.718 55.7458 228.085 58.0902 222.37C58.4368 221.765 58.9341 221.259 59.5344 220.9C60.1346 220.541 60.8175 220.341 61.5175 220.32C62.2176 220.298 62.9112 220.456 63.5318 220.777C64.1524 221.099 64.679 221.574 65.0611 222.156C66.0029 224.427 66.5843 226.83 66.7849 229.279C68.3535 226.57 70.7745 222.664 74.4703 223.993C75.3312 224.333 76.0571 224.941 76.538 225.727C77.019 226.513 77.2289 227.434 77.136 228.349C76.1707 231.752 74.7685 235.018 72.9641 238.067C76.3117 236.535 80.0943 236.222 83.6482 237.183C84.2964 237.537 84.8461 238.045 85.2483 238.661C85.6505 239.277 85.8928 239.983 85.9534 240.715C86.014 241.448 85.8911 242.184 85.5957 242.858C85.3003 243.532 84.8415 244.123 84.2604 244.579C80.781 246.319 77.0839 247.59 73.2669 248.359C70.8715 249.23 68.3696 249.78 65.828 249.992Z" fill="#231F20"/>
<path d="M110.526 233.603C109.752 232.361 109.466 230.878 109.724 229.44C109.352 227.856 109.628 226.189 110.49 224.806C113.152 220.353 121.138 218.76 123.654 224.154C127.154 231.214 115.96 240.228 110.526 233.603Z" fill="#D23F3F"/>
<path d="M122.384 253.155C121.008 253.039 119.711 252.464 118.705 251.524C117.699 250.585 117.042 249.335 116.842 247.978C117.024 246.059 116.659 244.357 116.842 242.547C117.462 238.927 121.363 237.443 124.609 236.972C125.515 236.912 126.422 237.059 127.262 237.401C128.102 237.743 128.851 238.272 129.453 238.947C130.055 239.621 130.494 240.424 130.735 241.293C130.976 242.162 131.013 243.074 130.844 243.959C131.033 245.141 130.951 246.35 130.605 247.496C130.259 248.642 129.657 249.696 128.844 250.579C128.032 251.463 127.029 252.153 125.91 252.599C124.792 253.045 123.587 253.235 122.384 253.155Z" fill="#D23F3F"/>
<path d="M134.564 239.178C128.911 237.404 127.963 231.937 130.917 227.376C132.288 225.679 134.115 224.404 136.188 223.699C138.26 222.994 140.492 222.888 142.622 223.394C154.583 228.172 144.701 242.255 134.564 239.178Z" fill="#D23F3F"/>
</svg>
