<svg width="670" height="322" viewBox="0 0 670 322" fill="none" xmlns="http://www.w3.org/2000/svg">
<path d="M659.491 95.239C633.8 92.787 604.594 99.1076 577.976 99.1076C507.877 99.1076 465.186 96.5739 395.414 97.1733C354.084 97.5275 287.965 103.548 246.418 103.004C205.143 102.459 159.945 96.0836 119.569 106.872C117.771 123.11 139.103 150.681 127.525 163.649C131.584 171.305 140.656 176.345 148.421 181.221C143.408 189.395 131.203 191.383 127.198 200.619C125.318 204.924 125.427 222.251 125.645 226.882C126.653 248.514 132.32 273.579 119.597 295.674C159.972 284.885 205.17 291.233 246.445 291.805C287.992 292.377 354.112 286.329 395.441 285.975C465.213 285.376 507.905 287.909 578.004 287.909C604.594 287.909 633.827 281.561 659.518 284.041C659.763 270.909 663.686 249.195 659.818 239.905C663.85 237.562 666.411 231.814 669.026 229.661C658.047 222.278 656.548 210.672 644.289 204.106C652.217 193.59 666.819 174.928 669.244 161.824C672.187 145.967 661.834 112.076 659.518 95.239L659.491 95.239Z" fill="white"/>
<path fill-rule="evenodd" clip-rule="evenodd" d="M298.94 134.229L326.086 287.831C314.207 287.501 302.551 289.129 291.367 293.017L291.123 293.102C285.102 295.193 280.015 296.961 273.624 297.565C259.085 298.951 245.678 298.68 231.002 297.98C227.532 297.814 223.904 297.791 220.219 297.768C211.468 297.713 202.401 297.655 194.403 295.682C189.722 294.528 185.343 294.122 180.854 293.706C178.483 293.486 176.082 293.263 173.588 292.926C171.112 292.601 168.722 291.926 166.33 291.25C163.847 290.548 161.362 289.846 158.777 289.535C151.608 288.667 143.85 288.56 136.588 288.556C132.776 288.549 131.976 288.988 130.189 289.968C129.558 290.314 128.804 290.728 127.751 291.213C121.04 294.339 113.995 295.199 106.875 296.068C104.316 296.38 101.748 296.693 99.1818 297.114C91.119 298.44 84.919 299.328 76.9678 296.107C62.4332 290.23 49.1222 286.832 33.5532 286.089L42.8736 286.534C41.4527 284.899 40.0693 284.082 38.8754 283.377C36.8623 282.189 35.3876 281.319 35.1792 277.378C35.0756 275.307 35.3322 273.173 35.5883 271.043C35.7986 269.294 36.0086 267.548 36.0189 265.84C36.0254 263.654 35.6394 261.501 35.254 259.351C34.809 256.869 34.3648 254.391 34.5272 251.875C34.6849 249.287 35.4299 246.391 36.1486 243.596C36.5304 242.112 36.9047 240.656 37.1798 239.291C37.3601 238.407 37.8281 237.433 38.3081 236.434C39.1998 234.579 40.1326 232.638 39.337 231.026C38.6567 229.626 37.4715 228.834 36.3672 228.097C34.4767 226.835 32.8233 225.731 34.3468 221.999C35.7469 218.563 40.4757 216.448 44.9294 214.456C51.2834 211.614 57.0775 209.022 51.8475 203.203C51.0745 202.345 50.1703 201.587 49.2793 200.84C46.9442 198.883 44.7001 197.002 45.1483 193.595C45.3303 192.14 45.8506 190.826 46.3773 189.495C46.9583 188.028 47.5472 186.54 47.6982 184.822C47.8241 183.426 47.8226 181.978 47.821 180.524C47.8186 178.105 47.8161 175.666 48.4004 173.409C48.6503 172.433 49.0493 171.693 49.4401 170.967C50.1113 169.721 50.7583 168.52 50.5838 166.25C50.4521 164.597 50.1489 163.123 49.8445 161.642C49.5019 159.976 49.1579 158.304 49.0555 156.362C48.9069 153.408 48.402 150.2 47.5083 147.42C47.2988 146.775 47.0857 146.136 46.8727 145.497C46.036 142.987 45.1999 140.479 44.5823 137.597C43.8274 134.114 43.3487 132.565 41.4523 129.843C40.9384 129.094 43.0187 129.026 45.3083 128.951C47.5346 128.879 49.9587 128.8 50.3884 128.082C47.3757 127.713 44.2983 127.453 41.1261 127.301L50.4465 127.746C50.4691 127.871 50.4478 127.982 50.3884 128.082C62.162 129.522 72.9476 132.617 84.5407 137.319C92.4919 140.54 98.6931 139.625 106.755 138.326C109.321 137.905 111.889 137.592 114.448 137.28C121.568 136.411 128.613 135.551 135.324 132.425C136.357 131.946 137.102 131.537 137.727 131.193C139.528 130.203 140.332 129.761 144.161 129.768C151.397 129.771 159.18 129.905 166.35 130.747C168.935 131.058 171.42 131.76 173.903 132.462C176.295 133.138 178.685 133.813 181.161 134.138C183.581 134.456 185.911 134.673 188.211 134.886C192.768 135.309 197.204 135.721 201.976 136.893C209.998 138.851 219.063 138.914 227.813 138.975C231.49 139.001 235.11 139.026 238.575 139.192C253.251 139.891 266.658 140.163 281.197 138.777C287.647 138.164 292.811 136.384 298.94 134.229Z" fill="white"/>
<path d="M18.1639 228.186C25.6886 227.839 33.5185 226.736 41.0085 226.978C48.9009 227.232 55.9787 229.255 64.0319 228.976C75.0163 228.593 85.9864 227.901 96.9651 227.395C110.503 226.77 123.98 226.149 136.989 222.767C146.152 220.398 154.987 216.313 164.91 215.7C185.958 214.39 206.779 208.855 227.831 206.957C237.924 206.028 248.222 206.171 258.338 205.704C273.079 205.025 287.861 203.91 302.586 203.54C316.538 203.174 330.225 205.108 343.355 209.695C350.548 212.206 356.58 214.338 364.185 215.069C381.259 216.723 397.007 216.429 414.246 215.634C428 215 443.882 216.276 457.236 213.002C465.64 210.946 473.211 210.937 481.689 209.804C487.618 209.036 493.128 206.557 499.091 205.849C507.513 204.842 516.624 204.731 525.154 204.739C531.212 204.738 530.792 205.685 535.529 207.877C546.236 212.884 557.675 212.974 569.073 214.859C578.541 216.431 585.821 217.486 595.166 213.717C612.248 206.841 627.888 202.875 646.176 202.031L635.228 202.536C639.719 197.384 643.88 199.17 644.282 191.796C644.51 187.367 643.337 182.692 643.317 178.243C643.309 172.711 645.442 167.359 645.095 161.843C644.818 157.189 642.926 151.683 642.002 147.059C641.402 144.089 638.042 140.257 639.484 137.348C641.658 132.89 648.185 133.701 645.361 126.754C641.386 116.955 614.374 116.254 624.841 104.646C628.134 101.002 633.445 98.9026 632.727 93.3729C632.283 89.7775 630.08 86.9123 629.748 83.0645C629.361 78.6939 630.036 73.9035 628.944 69.6581C628.151 66.5424 626.062 65.4644 626.393 61.2461C626.728 57.1203 627.972 53.9416 628.206 49.635C628.386 46.1654 628.985 42.3983 630.04 39.1356C631.258 35.4017 632.578 31.8487 633.494 27.6033C634.387 23.5137 634.953 21.6951 637.185 18.5017C638.459 16.6504 626.206 18.3282 626.625 16.0219L637.573 15.517C619.285 16.3605 603.674 20.2946 586.563 27.203C577.218 30.9718 569.936 29.886 560.47 28.3448C549.072 26.4599 537.633 26.3695 526.925 21.3623C522.22 19.1688 522.609 18.2238 516.551 18.225C508.052 18.2153 498.911 18.3588 490.488 19.3345C484.525 20.0422 479.015 22.5215 473.086 23.2894C464.607 24.3913 457.068 24.43 448.633 26.4879C435.247 29.7323 419.397 28.4855 405.643 29.1199C388.404 29.9151 372.656 30.2088 355.582 28.5549C348.008 27.8226 341.946 25.7225 334.752 23.1802C321.622 18.5939 307.904 16.6615 293.983 17.0255C279.227 17.3971 264.475 18.5102 249.734 19.1901C239.588 19.6581 229.323 19.5444 219.228 20.4428C198.176 22.3409 177.356 27.906 156.307 29.186C146.384 29.7982 137.548 33.8834 128.386 36.253C115.376 39.6037 101.899 40.2253 88.362 40.8806C77.3833 41.387 66.3823 42.0798 55.4288 42.4614C47.3756 42.7402 40.2978 40.7179 32.4054 40.4639C24.9154 40.2222 17.0841 41.2942 9.56083 41.6721C9.53807 41.1787 7.65075 40.4622 7.62656 39.938C7.75316 42.6826 8.01831 45.081 7.45934 47.7027C6.41827 52.6028 6.10072 57.7785 6.40041 63.6056C6.70578 69.5561 7.90737 76.1761 7.34498 82.0739C7.01087 85.5507 5.60121 88.4898 5.36247 92.024C5.10569 95.8371 4.5532 103.96 6.41009 107.366C8.40028 110.983 15.2038 113.76 18.5362 116.325C27.8337 123.592 32.5776 125.938 27.6606 137.26C24.1671 145.271 21.8036 153.662 17.2639 161.103C16.1731 162.915 14.2245 162.881 13.5138 164.892C12.8561 166.715 13.5236 169.125 13.6721 171.004C13.9765 175.594 14.7787 180.255 13.2466 184.56C10.6749 191.786 7.37266 194.565 8.1842 202.78C8.88002 209.825 15.3333 213.05 13.2707 220.593C12.6288 220.747 18.803 227.972 18.1919 228.123L18.1639 228.186Z" fill="white"/>
<path d="M70.828 264.992C70.3789 264.911 69.9525 264.736 69.578 264.477C68.7159 265.062 67.6654 265.308 66.6318 265.165C65.5982 265.022 64.6559 264.501 63.9891 263.705C63.3454 262.788 62.9656 261.715 62.8904 260.599C62.2529 259.017 61.8795 257.343 61.785 255.641C61.807 249.718 60.7458 243.085 63.0902 237.37C63.4368 236.765 63.9341 236.259 64.5344 235.9C65.1346 235.541 65.8175 235.341 66.5175 235.32C67.2176 235.298 67.9112 235.456 68.5318 235.777C69.1524 236.099 69.679 236.574 70.0611 237.156C71.0029 239.427 71.5843 241.83 71.7849 244.279C73.3535 241.57 75.7745 237.664 79.4703 238.993C80.3312 239.333 81.0571 239.941 81.538 240.727C82.019 241.513 82.2289 242.434 82.136 243.349C81.1707 246.752 79.7685 250.018 77.9641 253.067C81.3117 251.535 85.0943 251.222 88.6482 252.183C89.2964 252.537 89.8461 253.045 90.2483 253.661C90.6505 254.277 90.8928 254.983 90.9534 255.715C91.014 256.448 90.8911 257.184 90.5957 257.858C90.3003 258.532 89.8415 259.123 89.2604 259.579C85.781 261.319 82.0839 262.59 78.2669 263.359C75.8715 264.23 73.3696 264.78 70.828 264.992Z" fill="#231F20"/>
<path d="M115.526 248.603C114.752 247.361 114.466 245.878 114.724 244.44C114.352 242.856 114.628 241.189 115.49 239.806C118.152 235.353 126.138 233.76 128.654 239.154C132.154 246.214 120.96 255.228 115.526 248.603Z" fill="#D23F3F"/>
<path d="M127.384 268.155C126.008 268.039 124.711 267.464 123.705 266.524C122.699 265.585 122.042 264.335 121.842 262.978C122.024 261.059 121.659 259.357 121.842 257.547C122.462 253.927 126.363 252.443 129.609 251.972C130.515 251.912 131.422 252.059 132.262 252.401C133.102 252.743 133.851 253.272 134.453 253.947C135.055 254.621 135.494 255.424 135.735 256.293C135.976 257.162 136.013 258.074 135.844 258.959C136.033 260.141 135.951 261.35 135.605 262.496C135.259 263.642 134.657 264.696 133.844 265.579C133.032 266.463 132.029 267.153 130.91 267.599C129.792 268.045 128.587 268.235 127.384 268.155Z" fill="#D23F3F"/>
<path d="M139.564 254.178C133.911 252.404 132.963 246.937 135.917 242.376C137.288 240.679 139.115 239.404 141.188 238.699C143.26 237.994 145.492 237.888 147.622 238.394C159.583 243.172 149.701 257.255 139.564 254.178Z" fill="#D23F3F"/>
</svg>
