<svg width="76" height="81" viewBox="0 0 76 81" fill="none" xmlns="http://www.w3.org/2000/svg">
<path fill-rule="evenodd" clip-rule="evenodd" d="M12.3862 17.35C12.7409 24.0109 11.0904 22.1969 7.3035 28.8791C4.44101 33.9174 1.82918 42.9709 2.78533 48.8035C3.42843 52.7571 4.79811 57.1399 7.09542 60.3234C10.449 65.0102 13.661 69.7448 18.2224 73.1922C20.8101 75.1413 26.8163 77.5849 29.8207 78.0287C34.2041 78.6598 41.1112 78.3743 45.4866 78.1435C53.9866 77.6959 61.0139 73.2211 65.0576 65.9139C66.1051 64.0544 67.3344 62.9274 68.385 61.0125C74.0022 50.8745 74.7317 37.1598 71.1472 27.5974C69.0369 22.0344 65.5186 17.3108 60.594 13.8988C53.6606 9.12546 53.0739 8.17606 42.1835 7.63025C37.5832 7.404 32.8756 8.61679 29.0376 9.68309C28.1 8.54759 27.2209 7.85993 26.2418 6.97223C24.9717 5.81837 24.8698 4.64565 22.4982 4.82035L22.6292 5.46671C23.9498 5.70636 26.0314 8.26663 25.5212 10.4615C24.9402 12.9303 23.4031 14.0959 22.16 15.4722C20.2985 17.4813 19.6504 17.1398 16.9482 18.2688C15.7818 18.7602 15.8482 19.5697 14.3676 19.21C13.1347 18.8919 13.0913 18.167 12.3877 17.3223L12.3862 17.35Z" fill="#D03435"/>
<path fill-rule="evenodd" clip-rule="evenodd" d="M12.5034 16.7451L12.4143 17.3515C13.118 18.1962 13.1613 18.9211 14.3942 19.2393C15.8733 19.6266 15.8069 18.8171 16.9748 18.298C19.6786 17.1413 20.3543 17.4843 22.1867 15.5014C23.4575 14.1266 24.9669 12.9595 25.5478 10.4907C26.058 8.29586 24.0026 5.76481 22.6558 5.49593L22.5248 4.84958C21.2963 3.94811 21.1189 2.63228 19.4581 2.0126C17.3339 1.2284 16.1736 1.60893 14.835 2.70209C14.697 4.19501 14.808 4.70132 15.7455 5.33663C17.2725 6.36574 17.1614 5.35925 17.9653 6.90418C17.3652 7.20449 18.0407 7.04728 17.1774 7.08297L13.8898 6.7347C12.1399 6.72143 11.3906 7.20802 11.1064 8.8318C10.8039 10.788 11.0639 15.1373 12.4465 16.7697L12.5034 16.7451Z" fill="#530700"/>
</svg>
